<svg width="317" height="628" fill="none" xmlns="http://www.w3.org/2000/svg"><path d="M171.08 173.506a17.493 17.493 0 012.15-9.886 17.04 17.04 0 017.238-6.939 17.051 17.051 0 019.892-1.656c3.4.449 6.607 1.905 9.215 4.183a17.85 17.85 0 015.437 8.616c.938 3.34.879 6.871-.17 10.148a17.15 17.15 0 01-5.72 8.265 16.982 16.982 0 01-9.345 3.601 17.132 17.132 0 01-6.745-.85 17.487 17.487 0 01-5.933-3.41 17.725 17.725 0 01-4.201-5.443 17.703 17.703 0 01-1.818-6.629zm10.912-86.093a17.495 17.495 0 012.15-9.886 17.046 17.046 0 017.238-6.94 17.055 17.055 0 019.892-1.656c3.4.45 6.607 1.906 9.215 4.184a17.856 17.856 0 015.438 8.616c.937 3.34.878 6.871-.17 10.148a17.17 17.17 0 01-5.721 8.266 16.989 16.989 0 01-9.345 3.6 17.152 17.152 0 01-6.745-.849 17.505 17.505 0 01-5.933-3.411 17.726 17.726 0 01-4.201-5.442 17.727 17.727 0 01-1.818-6.63zm-67.854 55.572a14.606 14.606 0 011.665-8.365 14.222 14.222 0 016.032-5.92 14.221 14.221 0 018.328-1.441 14.608 14.608 0 017.764 3.532 14.902 14.902 0 014.533 7.293 14.732 14.732 0 01-.255 8.549 14.308 14.308 0 01-4.956 6.868 14.176 14.176 0 01-7.954 2.829c-3.713.148-7.36-1.156-10.183-3.641a14.895 14.895 0 01-4.974-9.704zM83.016 90.032a14.5 14.5 0 011.696-8.276 14.126 14.126 0 016-5.838 14.128 14.128 0 018.252-1.407 14.507 14.507 0 017.687 3.505 14.794 14.794 0 014.496 7.22 14.626 14.626 0 01-.232 8.469 14.213 14.213 0 01-4.88 6.823 14.078 14.078 0 01-7.862 2.848c-3.725.199-7.4-1.087-10.233-3.582a14.689 14.689 0 01-4.924-9.762zm-44.373 37.282a14.607 14.607 0 011.665-8.366 14.224 14.224 0 016.032-5.92 14.223 14.223 0 018.328-1.441 14.607 14.607 0 017.764 3.533 14.89 14.89 0 014.533 7.293 14.72 14.72 0 01-.255 8.548 14.306 14.306 0 01-4.956 6.868 14.167 14.167 0 01-7.953 2.829c-3.72.174-7.38-1.122-10.209-3.612a14.79 14.79 0 01-4.949-9.732z" fill="#B16668"/><path d="M207.649 460.177c3.113-16.241 16.42-20.632 25.517-26.606 9.097-5.975 18.69-11.648 25.718-20.373-1.695 6.558-3.652 13.135-6.801 19.249-3.15 6.114-7.625 11.775-13.238 15.312-9.816 6.14-21.914 5.216-31.173 12.415m43.259-4.202a108.188 108.188 0 01-17.85 3.545c-11.42 1.602-23.992 3.802-33.827 11.406 4.296 4.008 13.397 5.131 19.576 4.169 6.179-.962 12.246-3.698 18.199-6.38a119.77 119.77 0 0016.689-8.579c5.413-3.351 10.13-7.989 13.713-13.48-4.882 4.405-10.552 7.607-16.5 9.319zm-51.557-20.631c.601-7.539-.231-14.904-2.445-21.653-2.215-6.749-5.767-12.743-10.443-17.621 4.236 7.675-.651 19.189-1.119 28.698-.782 16.166 2.675 31.406 8.927 45.079-.225-11.384 4.108-23.014 5.08-34.503zm-38.667-41.151c-2.033 18.238-3.982 37.242 1.927 53.264 4.638 12.565 15.753 20.861 20.959 33.107l.823-.906c-1.526-31.465-8.24-60.535-23.709-85.465zm73.833 90.339c-13.378-5.09-27.995-7.895-42.963-5.847l-2.715 2.956c8.082 8.416 18.934 18.152 30.011 21.738 16.564 5.352 36.051-1.441 53.572.911-12.274-7.298-24.553-14.638-37.905-19.758zm-18.888 24.202c-11.345-8.596-24.947-15.054-39.39-16.926l-1.888 3.445c5.674 10.538 12.904 21.788 22.437 28.266 14.258 9.68 33.955 7.958 49.782 14.879-9.776-10.519-19.601-21.083-30.941-29.664zm-48.111-12.933c-8.71-10.576-17.329-21.303-24.277-33.353-6.948-12.049-12.195-25.558-13.682-40.259 21.138 17.888 34.581 44.019 38.022 73.909m-18.061 19.348c6.24 10.053 13.772 21.62 23.595 27.569 15.528 9.451 35.275 9.569 54.208 9.472-18.671-6.734-30.593-25.521-49.003-32.913-9.062-3.634-17.657-4.451-27.689-5.083" fill="#6F564F"/><path d="M246.515 423.274s-.156.158-.473.458l-1.422 1.263-5.493 4.849c-.592.532-1.225 1.085-1.891 1.686a11.992 11.992 0 01-2.225 1.556 59.368 59.368 0 01-5.483 2.715 50.034 50.034 0 00-6.255 3.058 42.538 42.538 0 00-6.414 4.771 46.893 46.893 0 00-6.079 6.543 2177.894 2177.894 0 00-6.119 7.639c-2.074 2.678-4.429 5.272-6.75 8.024l-3.572 4.153-3.789 4.142a393.557 393.557 0 01-35.266 34.17 389.905 389.905 0 01-38.787 29.151 379.146 379.146 0 01-33.742 19.588c-4.939 2.406-9.367 4.719-13.349 6.419-3.98 1.701-7.362 3.367-10.2 4.445l-6.495 2.603-1.693.663c-.375.145-.57.202-.57.202s.182-.098.566-.264l1.67-.708 6.474-2.695c2.82-1.11 6.201-2.752 10.165-4.532 3.964-1.779 8.393-4.068 13.318-6.491a389.523 389.523 0 0033.634-19.63 395.65 395.65 0 0038.713-29.131 396.908 396.908 0 0035.238-34.084c1.287-1.388 2.552-2.772 3.794-4.128 1.242-1.357 2.398-2.783 3.576-4.14 2.302-2.734 4.675-5.321 6.75-7.999 2.074-2.678 4.169-5.167 6.136-7.608a47.833 47.833 0 016.175-6.591 43.852 43.852 0 016.523-4.729 50.249 50.249 0 016.305-3.05 59.675 59.675 0 005.454-2.654 25.769 25.769 0 004.135-3.235l5.542-4.77 1.449-1.228c.271-.294.45-.431.45-.431zm6.082 76.888a2.076 2.076 0 01-.618-.248l-1.721-.869a184.438 184.438 0 00-6.349-3.136c-14.067-6.704-29.064-11.391-44.677-13.963-2.988-.503-5.417-.809-7.116-1.067l-1.946-.276a2.251 2.251 0 01-.664-.144c.237-.023.471-.021.7.008l1.962.16c1.706.138 4.165.428 7.184.862 15.722 2.343 30.777 7.05 44.775 14.001 2.682 1.337 4.813 2.48 6.263 3.335l1.659.981c.201.087.385.207.548.356zm-27.305 28.752a1.965 1.965 0 01-.543-.292l-1.49-.927c-1.293-.81-3.136-2.02-5.41-3.543-4.542-3.032-10.747-7.322-17.505-12.211a572.47 572.47 0 01-17.074-12.844 292.987 292.987 0 01-5.042-4.032l-1.352-1.135a2.956 2.956 0 01-.448-.426c.189.078.363.186.518.321l1.431 1.035 5.18 3.875c4.374 3.282 10.42 7.8 17.149 12.677 6.73 4.877 12.914 9.238 17.392 12.363l5.3 3.711 1.421 1.031c.176.107.335.24.473.397z" fill="#B16668"/><path d="M142.984 445.702c.148.106.278.236.387.385l1.022 1.211c.883 1.058 2.1 2.642 3.547 4.637 7.578 10.438 13.625 22.133 17.976 34.769.835 2.419 1.458 4.409 1.839 5.796l.434 1.608c.06.185.101.379.121.58a2.285 2.285 0 01-.225-.521l-.534-1.558c-.455-1.417-1.117-3.322-1.99-5.731a156.941 156.941 0 00-7.905-18.068 151.398 151.398 0 00-10.039-16.626 165.162 165.162 0 00-3.409-4.746l-.932-1.288a2.465 2.465 0 01-.292-.448zm24.814-26.439c.149-.065 4.299 13.387 9.285 30.049 4.987 16.661 8.913 30.224 8.764 30.289-.149.065-4.304-13.377-9.285-30.049-4.982-16.672-8.923-30.227-8.764-30.289zm26.8 3.508a11.5 11.5 0 01.029 1.849c-.01 1.281-.033 2.99-.07 5.054a561.555 561.555 0 00.05 16.62c.122 6.474.404 12.313.631 16.522l.273 4.995c.059.605.073 1.221.043 1.842a12.7 12.7 0 01-.241-1.799 122.095 122.095 0 01-.431-4.972c-.327-4.199-.653-10.032-.784-16.509s-.052-12.392.099-16.67c.082-2.143.16-3.878.241-5.084.012-.613.066-1.231.16-1.848zm39.17 38.462a6.028 6.028 0 01-1.332.49 84.55 84.55 0 01-3.574 1.131 224.288 224.288 0 01-11.849 3.237 225.283 225.283 0 01-11.909 2.589c-1.528.29-2.762.492-3.611.629a6.842 6.842 0 01-1.328.141c.419-.181.85-.31 1.283-.383l3.604-.807a537.173 537.173 0 0011.882-2.749c4.64-1.135 8.788-2.259 11.847-3.063l3.587-.963a7.266 7.266 0 011.4-.252zm-39.12 75.927c-.077.175-10.405-4.796-23.064-11.081-12.66-6.285-22.85-11.518-22.764-11.689.086-.172 10.405 4.795 23.069 11.096 12.664 6.3 22.905 11.498 22.759 11.674z" fill="#B16668"/><path d="M149.635 510.583c-9.735-5.286-20.986-11.777-27.411-21.026-10.137-14.694-12.232-34.575-14.081-53.591 7.999 18.122 26.242 28.262 34.797 46.036 4.217 8.764 5.823 17.325 7.402 27.345" fill="#6F564F"/><path d="M127.16 466.986c.133-.098 5.668 9.509 12.363 21.465 6.694 11.957 12.02 21.733 11.887 21.831-.133.099-5.673-9.522-12.368-21.479-6.694-11.957-12.015-21.718-11.882-21.817z" fill="#B16668"/><path d="M42.994 315.084l-1.425.1.455-1.315 34.793-100.43-12.689-3.169c-2.206 5.127-7.505 9.059-13.718 12.628-3.11 1.787-6.517 3.519-9.981 5.281l-.705.358c-3.717 1.891-7.489 3.825-11.084 5.93-7.205 4.218-13.567 9.048-17.25 15.391-3.652 6.293-4.756 14.232-1.115 24.846.5 1.458 1.02 2.376 1.473 2.905.472.551.75.549.756.549l.004-.001a.124.124 0 00.03-.019.802.802 0 00.198-.26c.168-.313.298-.835.267-1.515h0c-.104-2.292.573-5.704 2.016-9.446a43.499 43.499 0 016.832-11.754c6.275-7.661 16.097-13.904 29.856-12.387l1.154.128-.375 1.084-28.697 82.913-.004.011-.004.012c-1.764 4.723-1.153 10.309 1.677 15.848 2.825 5.532 7.832 10.947 14.708 15.26l-.597.813.597-.813c8.095 5.08 17.165 7.623 25.255 7.657 8.109.033 15.082-2.445 19.223-7.228 4.117-4.754 4.82-11.085 2.406-17.606-2.415-6.523-7.928-13.132-16.027-18.213-9.043-5.67-19.29-8.171-28.03-7.558z" stroke="#000" stroke-width="2"/></svg>