<svg width="374" height="520" fill="none" xmlns="http://www.w3.org/2000/svg"><path d="M225.776 486.545a.66.66 0 00.446.76c29.176 8.808 60.292-4.325 79.245-33.449a.682.682 0 00-.184-.917.681.681 0 00-.917.209c-18.639 28.626-49.151 41.523-77.751 32.899a.685.685 0 00-.839.446v.052z" fill="#455A64"/><path d="M283.84 452.572a7.05 7.05 0 000 1.048 24.747 24.747 0 001.259 7.13 22.131 22.131 0 01.603 13.605.572.572 0 00.183.577.547.547 0 00.603 0c5.479-3.486 13.474-14.05 9.935-22.622-2.254-5.453-5.793-5.427-7.235-5.243a6.923 6.923 0 00-5.348 5.505zm3.382 20.001c.6-4.062.204-8.209-1.153-12.085a24.213 24.213 0 01-1.233-6.841 5.823 5.823 0 014.509-5.453c2.491-.446 4.719 1.206 6.108 4.535 3.224 7.864-3.88 16.934-8.388 20.499l.157-.655z" fill="#455A64"/><path d="M285.598 474.408a.467.467 0 000 .446.524.524 0 00.734 0c4.535-4.116 6.946-14.864 4.745-21.312a.528.528 0 00-.656-.341.548.548 0 00-.341.681c2.281 6.659-.55 16.672-4.456 20.185a.629.629 0 00-.026.341z" fill="#455A64"/><path d="M289.449 470.895a.761.761 0 000 .472.65.65 0 00.813.157c3.303-2.097 13.107.787 18.874 3.225a12.036 12.036 0 0010.721-.394 7.257 7.257 0 003.277-6.186 6.103 6.103 0 00-3.749-5.688c-5.95-2.936-18.349-1.101-29.805 8.073a.526.526 0 00-.131.341zm32.427-1.389a5.6 5.6 0 01-2.622 3.853 10.773 10.773 0 01-9.62.315c-.525-.21-10.669-4.483-16.882-4.037 10.302-7.288 20.971-8.677 26.214-6.108a4.982 4.982 0 013.093 4.614 5.75 5.75 0 01-.183 1.363z" fill="#455A64"/><path d="M289.449 470.895a.596.596 0 000 .42.603.603 0 00.812.209c9.07-5.242 22.597-4.535 26.214-3.381a.603.603 0 00.76-.367.577.577 0 00-.393-.734c-3.748-1.206-17.773-1.966-27.157 3.46a.648.648 0 00-.236.393z" fill="#455A64"/><path d="M298.65 431.942a46.959 46.959 0 008.283 18.795c10.748 3.381 15.44 4.142 23.986 2.805a13.917 13.917 0 005.636-2.622 3.201 3.201 0 00.524-4.22 5.06 5.06 0 00-3.277-1.311l-10.721-1.468a23.601 23.601 0 0011.324-3.512c1.259-.787 2.622-2.071 2.176-3.487-.446-1.415-2.779-1.887-4.509-1.625a41.31 41.31 0 00-12.897 4.037 46.184 46.184 0 006.789-12.74 3.163 3.163 0 000-2.831c-.996-1.363-3.171-.446-4.43.655a29.235 29.235 0 00-7.025 9.07 34.268 34.268 0 00.21-15.387 3.047 3.047 0 00-1.128-2.071c-1.363-.839-2.988.681-3.696 2.123a28.383 28.383 0 00-2.778 12.399c-.708-2.621-3.015-8.729-5.243-8.546-2.228.184-4.168 5.532-3.224 9.936z" fill="#BA68C8"/><path opacity=".15" d="M298.65 431.942a46.959 46.959 0 008.283 18.795c10.748 3.381 15.44 4.142 23.986 2.805a13.917 13.917 0 005.636-2.622 3.201 3.201 0 00.524-4.22 5.06 5.06 0 00-3.277-1.311l-10.721-1.468a23.601 23.601 0 0011.324-3.512c1.259-.787 2.622-2.071 2.176-3.487-.446-1.415-2.779-1.887-4.509-1.625a41.31 41.31 0 00-12.897 4.037 46.184 46.184 0 006.789-12.74 3.163 3.163 0 000-2.831c-.996-1.363-3.171-.446-4.43.655a29.235 29.235 0 00-7.025 9.07 34.268 34.268 0 00.21-15.387 3.047 3.047 0 00-1.128-2.071c-1.363-.839-2.988.681-3.696 2.123a28.383 28.383 0 00-2.778 12.399c-.708-2.621-3.015-8.729-5.243-8.546-2.228.184-4.168 5.532-3.224 9.936z" fill="#000"/><path d="M109.152 410.7c-8.386 14.984-11.563 32.942-9.063 51.242 1.659 14.521 5.86 28.918 12.394 42.473a75.354 75.354 0 004.159 7.436 25.906 25.906 0 012.746 4.463c.378.614-.38 1.886-1.217 1.54-3.971-1.717-6.584-7.182-8.488-10.886a125.726 125.726 0 01-7.981-19.738c-5.467-16.116-7.017-32.932-4.503-48.864 1.958-10.26 5.751-19.845 11.195-28.29.337-.196.663.401.44.716l.318-.092z" fill="#455A64"/><path d="M105.605 440.39c-14.13-12.274-24.69-28.359-30.215-46.019-9.825-30.207-7.503-46.85 2.594-52.691 2.676-1.721 5.908-2.472 9.247-2.147 3.34.324 6.62 1.707 9.386 3.957 0 0 7.868-10.681 15.428-7.895 7.56 2.787 13.495 16.292 13.495 16.292s4.976-5.639 8.258-5.805c3.281-.167 22.664 19.972 20.803 37.566-1.861 17.594-22.257 53.255-48.996 56.742z" fill="#BA68C8"/><path opacity=".25" d="M105.605 440.39c-14.13-12.274-24.69-28.359-30.215-46.019-9.825-30.207-7.503-46.85 2.594-52.691 2.676-1.721 5.908-2.472 9.247-2.147 3.34.324 6.62 1.707 9.386 3.957 0 0 7.868-10.681 15.428-7.895 7.56 2.787 13.495 16.292 13.495 16.292s4.976-5.639 8.258-5.805c3.281-.167 22.664 19.972 20.803 37.566-1.861 17.594-22.257 53.255-48.996 56.742z" fill="#000"/><path d="M108.481 440.108c15.488-3.579 29.491-11.017 40.857-21.704 19.874-18.186 23.356-30.054 17.107-43.377-6.249-13.324-16.164-12.138-19.829 2.372 0 0-4.854-6.379-9.524-5.881a13.259 13.259 0 00-6.122 2.933c-1.734 1.484-3.059 3.407-3.87 5.617-.472 2.666 2.251 41.853-18.619 60.04z" fill="#BA68C8"/><path opacity=".15" d="M108.481 440.108c15.488-3.579 29.491-11.017 40.857-21.704 19.874-18.186 23.356-30.054 17.107-43.377-6.249-13.324-16.164-12.138-19.829 2.372 0 0-4.854-6.379-9.524-5.881a13.259 13.259 0 00-6.122 2.933c-1.734 1.484-3.059 3.407-3.87 5.617-.472 2.666 2.251 41.853-18.619 60.04z" fill="#000"/><path d="M95.52 434.333c-11.72-6.171-22.308-14.752-31.04-25.158-12.362-15.871-18.176-31.677-6.849-32.134 0 0-4.035-7.108.284-11.144 4.32-4.036 23.471 3.454 31.76 17.958 8.288 14.505 5.846 50.478 5.846 50.478z" fill="#BA68C8"/><path opacity=".15" d="M95.52 434.333c-11.72-6.171-22.308-14.752-31.04-25.158-12.362-15.871-18.176-31.677-6.849-32.134 0 0-4.035-7.108.284-11.144 4.32-4.036 23.471 3.454 31.76 17.958 8.288 14.505 5.846 50.478 5.846 50.478z" fill="#000"/><path d="M109.159 440.578c13.12-5.636 23.903-23.726 26.837-35.966 3.498-14.805-1.015-33.648-11.27-41.657-10.254-8.01-22.993-4.553-22.993-4.553s-7.944-8.227-18.823-1.416c-7.487 4.661-5.38 28.954.353 47.93 5.734 18.976 16.873 31.558 25.896 35.662z" fill="#BA68C8"/><path d="M99.233 453.548c2.932-3.346 7.243-5.223 18.303-9.392s20.327-8.955 16.946-16.354c-3.381-7.398-18.72 4.297-18.72 4.297s1.625-16.997-6.445-19.467c-10.605-3.32-11.149 17.775-11.149 17.775s-10.324-15.856-16.418-12.713c-6.094 3.142-2.876 11.106 4.118 18.401s12.53 12.787 13.365 17.453zm97.059-261.928c.172.047.362.003.532-.122.169-.125.307-.324.386-.556 14.477-43.641 4.812-89.779-24.617-117.503a.558.558 0 00-.537-.126c-.196.054-.38.203-.514.416a1.39 1.39 0 00-.168.748c.016.254.107.474.255.616 28.923 27.263 38.422 72.507 24.242 115.285a1.315 1.315 0 00-.023.759c.068.232.206.406.386.484l.058-.001z" fill="#455A64"/><path d="M161.676 105.769c.438.034.882.027 1.329-.02 3.085-.152 6.205-.855 9.26-2.086 5.815-2.604 11.885-3.022 17.345-1.197a.614.614 0 00.4-.021.888.888 0 00.364-.274c.09-.14.149-.303.168-.469a.92.92 0 00-.06-.465c-3.429-8.419-15.372-20.6-26.87-14.953-7.314 3.598-7.919 9.079-7.946 11.308.123 2.063.76 3.94 1.829 5.395 1.07 1.455 2.525 2.423 4.181 2.782zm25.95-5.623c-5.039-.851-10.364-.158-15.519 2.019-2.932 1.186-5.926 1.873-8.89 2.041-1.61-.05-3.08-.751-4.182-1.994-1.101-1.243-1.774-2.96-1.913-4.885-.116-3.849 2.378-7.332 6.847-9.548 10.544-5.146 20.755 5.683 24.459 12.598l-.802-.231z" fill="#455A64"/><path d="M190.249 102.878a.466.466 0 00.277.086.58.58 0 00.297-.094c.142-.159.236-.37.261-.59a.858.858 0 00-.125-.584c-4.461-7.176-17.857-10.83-26.57-7.185a.886.886 0 00-.441.418 1.07 1.07 0 00-.119.637.712.712 0 00.294.486c.152.1.338.116.521.046 8.997-3.775 21.37.564 25.171 6.745a.638.638 0 00.434.035z" fill="#455A64"/><path d="M184.448 97.49a.633.633 0 00.52-.009c.143-.146.251-.346.306-.567a1.25 1.25 0 00-.004-.646c-1.789-4.881 2.942-19.533 6.542-28.164a25.104 25.104 0 002.03-8.072c.219-2.769-.043-5.47-.766-7.888-.578-1.512-1.459-2.742-2.561-3.576a5.762 5.762 0 00-3.74-1.194c-1.336.006-2.702.55-3.925 1.561-1.222 1.013-2.246 2.448-2.939 4.123-4.179 8.914-4.119 27.346 4.182 44.243a.44.44 0 00.355.189zm3.601-48.266c.853.188 1.636.627 2.298 1.289.661.661 1.185 1.53 1.535 2.547.644 2.174.873 4.6.669 7.085a22.512 22.512 0 01-1.845 7.236c-.314.784-6.63 15.968-7.122 25.212-6.403-15.212-6.246-31.076-2.584-38.93.558-1.37 1.387-2.547 2.38-3.382.993-.835 2.105-1.29 3.196-1.306a4.477 4.477 0 011.473.25z" fill="#455A64"/><path d="M184.758 97.354c.119.072.258.07.392-.006a1.11 1.11 0 00.302-.543c.057-.225.059-.463.006-.664-3.646-13.348-1.116-33.385.462-38.759.067-.222.08-.464.036-.673-.045-.21-.143-.37-.274-.447a.337.337 0 00-.211-.035.458.458 0 00-.216.102.824.824 0 00-.187.22 1.255 1.255 0 00-.127.307c-1.644 5.568-4.292 26.344-.518 40.155.075.181.194.303.335.343z" fill="#455A64"/><path d="M133.82 82.585c8.469-2.152 16.732-6.542 24.196-12.856 5.945-16.28 7.673-23.375 7.522-36.243-.177-3.088-.932-5.978-2.207-8.453-.525-.88-1.326-1.439-2.252-1.57-.926-.13-1.913.175-2.771.859-1.143 1.373-1.907 3.136-2.151 4.969l-3.622 16.204c.462-6.05-.333-11.908-2.309-17.019-.737-1.883-2.059-3.916-3.85-3.216-1.792.699-2.765 4.228-2.745 6.833-.01 6.765.893 13.313 2.674 19.383-4.181-4.327-8.996-7.702-14.268-10.002a2.928 2.928 0 00-1.658-.475c-.595.009-1.202.19-1.772.53-1.823 1.528-1.085 4.794.032 6.671 2.563 4.354 5.888 7.898 9.782 10.427-5.903-1.768-12.266-1.776-18.608-.023a3.615 3.615 0 00-1.453.557 4.88 4.88 0 00-1.25 1.183c-1.25 2.072.312 4.496 1.937 5.536 4.371 2.72 9.344 4.072 14.545 3.956-3.297 1.118-11.094 4.715-11.255 8.073-.161 3.359 5.985 6.183 11.483 4.676z" fill="#BA68C8"/><path opacity=".15" d="M133.82 82.585c8.469-2.152 16.732-6.542 24.196-12.856 5.945-16.28 7.673-23.375 7.522-36.243-.177-3.088-.932-5.978-2.207-8.453-.525-.88-1.326-1.439-2.252-1.57-.926-.13-1.913.175-2.771.859-1.143 1.373-1.907 3.136-2.151 4.969l-3.622 16.204c.462-6.05-.333-11.908-2.309-17.019-.737-1.883-2.059-3.916-3.85-3.216-1.792.699-2.765 4.228-2.745 6.833-.01 6.765.893 13.313 2.674 19.383-4.181-4.327-8.996-7.702-14.268-10.002a2.928 2.928 0 00-1.658-.475c-.595.009-1.202.19-1.772.53-1.823 1.528-1.085 4.794.032 6.671 2.563 4.354 5.888 7.898 9.782 10.427-5.903-1.768-12.266-1.776-18.608-.023a3.615 3.615 0 00-1.453.557 4.88 4.88 0 00-1.25 1.183c-1.25 2.072.312 4.496 1.937 5.536 4.371 2.72 9.344 4.072 14.545 3.956-3.297 1.118-11.094 4.715-11.255 8.073-.161 3.359 5.985 6.183 11.483 4.676z" fill="#000"/><path d="M356.967 156.982c12.089-6.786 21.77-16.692 27.623-28.265 4.871-9.101 7.912-18.782 8.971-28.564.19-1.843.25-3.684.18-5.513a13.167 13.167 0 01-.067-3.374c-.01-.464 1.049-1.028 1.491-.606 2.064 2.05 1.622 5.988 1.415 8.691a69.523 69.523 0 01-2.615 13.847c-2.87 11.035-8.77 21.477-17.146 30.344-5.631 5.622-12.265 10.368-19.581 14.008-.317.03-.297-.41-.011-.541l-.26-.027z" fill="#455A64"/><path d="M380.02 142.128c4.527 10.751 5.166 22.835 1.83 34.573-5.457 20.171-13.61 29.337-22.646 30.215-2.463.334-4.911-.04-7.004-1.071-2.092-1.032-3.725-2.668-4.672-4.683 0 0-9.475 4.275-13.398.738-3.923-3.537-2.509-12.944-2.509-12.944s-5.549 2.05-7.798 1.321c-2.249-.729-7.148-17.41 1.075-27.249 8.224-9.839 35.949-25.592 55.122-20.9z" fill="#BA68C8"/><path opacity=".25" d="M380.02 142.128c4.527 10.751 5.166 22.835 1.83 34.573-5.457 20.171-13.61 29.337-22.646 30.215-2.463.334-4.911-.04-7.004-1.071-2.092-1.032-3.725-2.668-4.672-4.683 0 0-9.475 4.275-13.398.738-3.923-3.537-2.509-12.944-2.509-12.944s-5.549 2.05-7.798 1.321c-2.249-.729-7.148-17.41 1.075-27.249 8.224-9.839 35.949-25.592 55.122-20.9z" fill="#000"/><path d="M375.433 140.646c-11.088-1.728-22.691-.93-33.857 2.328-19.335 5.415-25.985 11.238-27.06 20.227-1.076 8.988 5.606 10.714 13.364 3.452 0 0 .657 4.753 3.782 5.6a11.58 11.58 0 004.953-.169 12.287 12.287 0 004.545-2.221c1.299-1.382 14.311-24.041 34.273-29.217z" fill="#BA68C8"/><path opacity=".15" d="M375.433 140.646c-11.088-1.728-22.691-.93-33.857 2.328-19.335 5.415-25.985 11.238-27.06 20.227-1.076 8.988 5.606 10.714 13.364 3.452 0 0 .657 4.753 3.782 5.6a11.58 11.58 0 004.953-.169 12.287 12.287 0 004.545-2.221c1.299-1.382 14.311-24.041 34.273-29.217z" fill="#000"/><path d="M380.872 148.733c5.729 6.741 9.639 14.635 11.461 23.141 2.1 12.725-.426 23.713-8.667 21.049 0 0-.126 5.31-4.895 6.61-4.768 1.301-15.222-8.159-15.003-19.009.219-10.849 17.104-31.791 17.104-31.791z" fill="#BA68C8"/><path opacity=".15" d="M380.872 148.733c5.729 6.741 9.639 14.635 11.461 23.141 2.1 12.725-.426 23.713-8.667 21.049 0 0-.126 5.31-4.895 6.61-4.768 1.301-15.222-8.159-15.003-19.009.219-10.849 17.104-31.791 17.104-31.791z" fill="#000"/><path d="M376.687 140.853c-11.092-.006-25.608 7.917-32.494 14.383-8.296 7.834-12.819 20.078-9.132 27.395 3.688 7.318 13.648 8.511 13.648 8.511s2.046 6.86 12.101 5.606c6.909-.847 15.24-15.692 18.995-28.323 3.756-12.631 1.308-22.866-3.118-27.572z" fill="#BA68C8"/><path d="M384.316 135.24c-3.192 1.203-6.708 1.217-15.476.883-8.769-.335-16.616.13-17.29 5.229-.674 5.099 13.774 2.157 13.774 2.157s-7.625 9.39-3.359 12.81c5.579 4.537 14.089-7.483 14.089-7.483s.549 11.69 5.707 11.388c5.158-.303 6.157-5.688 4.452-11.621-1.704-5.934-3.162-10.468-1.897-13.363z" fill="#455A64"/><path d="M275.997 279.58c-1.087.466-2.471.038-3.092-.941l-10.333-16.297c-15.255-24.061-47-34.467-72.269-23.635-25.978 11.136-35.464 40.193-20.696 63.486l10.333 16.296c.621.98.255 2.158-.832 2.624-1.088.466-2.471.038-3.093-.941l-10.332-16.297c-15.975-25.196-5.758-56.681 22.343-68.727 27.465-11.773 61.925-.584 78.471 25.512l10.332 16.296c.621.98.255 2.158-.832 2.624z" stroke="#000"/><rect x="169.107" y="297.285" width="23" height="51" rx="10" transform="rotate(-31.947 169.107 297.285)" fill="#455A64"/><rect x="236.4" y="261.24" width="23" height="51" rx="10" transform="rotate(-32.005 236.4 261.24)" fill="#455A64"/></svg>