<svg width="368" height="534" fill="none" xmlns="http://www.w3.org/2000/svg"><path d="M141.866 500.545a.65.65 0 01-.076.466.65.65 0 01-.369.294c-29.176 8.808-60.292-4.325-79.245-33.449a.68.68 0 01.184-.917.68.68 0 01.917.209c18.638 28.626 49.151 41.523 77.75 32.899a.675.675 0 01.51.053.678.678 0 01.329.393v.052z" fill="#455A64"/><path d="M83.802 466.572a7.05 7.05 0 010 1.048 24.767 24.767 0 01-1.258 7.13 22.125 22.125 0 00-.603 13.605.58.58 0 01-.183.577.548.548 0 01-.603 0c-5.479-3.486-13.474-14.05-9.935-22.622 2.254-5.453 5.793-5.427 7.235-5.243a6.92 6.92 0 015.347 5.505zm-3.381 20.001a25.351 25.351 0 011.153-12.085 24.187 24.187 0 001.232-6.841 5.823 5.823 0 00-4.509-5.453c-2.49-.446-4.718 1.206-6.108 4.535-3.224 7.864 3.88 16.934 8.389 20.499l-.157-.655z" fill="#455A64"/><path d="M82.045 488.408a.47.47 0 010 .446.524.524 0 01-.734 0c-4.535-4.116-6.947-14.864-4.745-21.312a.526.526 0 01.655-.341.551.551 0 01.341.681c-2.28 6.659.55 16.672 4.457 20.185a.63.63 0 01.026.341z" fill="#455A64"/><path d="M78.194 484.895c.05.154.05.319 0 .472a.65.65 0 01-.813.157c-3.303-2.097-13.107.787-18.874 3.225a12.04 12.04 0 01-10.721-.394 7.254 7.254 0 01-3.277-6.186 6.107 6.107 0 013.748-5.688c5.95-2.936 18.35-1.101 29.806 8.073a.52.52 0 01.13.341zm-32.427-1.389a5.609 5.609 0 002.621 3.853 10.776 10.776 0 009.62.315c.525-.21 10.67-4.483 16.883-4.037-10.302-7.288-20.972-8.677-26.214-6.108a4.98 4.98 0 00-3.093 4.614 5.7 5.7 0 00.183 1.363z" fill="#455A64"/><path d="M78.194 484.895c.05.135.05.284 0 .42a.604.604 0 01-.813.209c-9.07-5.242-22.596-4.535-26.214-3.381a.603.603 0 01-.76-.367.58.58 0 01.394-.734c3.748-1.206 17.772-1.966 27.157 3.46a.654.654 0 01.236.393z" fill="#455A64"/><path d="M68.993 445.942a46.952 46.952 0 01-8.284 18.795c-10.747 3.381-15.44 4.142-23.985 2.805a13.915 13.915 0 01-5.636-2.622 3.198 3.198 0 01-.524-4.22 5.063 5.063 0 013.276-1.311l10.722-1.468a23.602 23.602 0 01-11.325-3.512c-1.258-.787-2.621-2.071-2.175-3.487.445-1.415 2.778-1.887 4.508-1.625a41.31 41.31 0 0112.898 4.037 46.217 46.217 0 01-6.79-12.74 3.172 3.172 0 010-2.831c.996-1.363 3.172-.446 4.43.655a29.23 29.23 0 017.026 9.07 34.26 34.26 0 01-.21-15.387 3.048 3.048 0 011.127-2.071c1.363-.839 2.988.681 3.696 2.123a28.39 28.39 0 012.779 12.399c.708-2.621 3.014-8.729 5.243-8.546 2.228.184 4.168 5.532 3.224 9.936z" fill="#BA68C8"/><path opacity=".15" d="M68.993 445.942a46.952 46.952 0 01-8.284 18.795c-10.747 3.381-15.44 4.142-23.985 2.805a13.915 13.915 0 01-5.636-2.622 3.198 3.198 0 01-.524-4.22 5.063 5.063 0 013.276-1.311l10.722-1.468a23.602 23.602 0 01-11.325-3.512c-1.258-.787-2.621-2.071-2.175-3.487.445-1.415 2.778-1.887 4.508-1.625a41.31 41.31 0 0112.898 4.037 46.217 46.217 0 01-6.79-12.74 3.172 3.172 0 010-2.831c.996-1.363 3.172-.446 4.43.655a29.23 29.23 0 017.026 9.07 34.26 34.26 0 01-.21-15.387 3.048 3.048 0 011.127-2.071c1.363-.839 2.988.681 3.696 2.123a28.39 28.39 0 012.779 12.399c.708-2.621 3.014-8.729 5.243-8.546 2.228.184 4.168 5.532 3.224 9.936z" fill="#000"/><path d="M258.49 424.7c8.387 14.984 11.563 32.942 9.064 51.241-1.659 14.522-5.86 28.918-12.395 42.474a75.55 75.55 0 01-4.158 7.436 25.935 25.935 0 00-2.747 4.463c-.377.614.38 1.886 1.218 1.54 3.97-1.717 6.584-7.182 8.488-10.886a125.919 125.919 0 007.981-19.738c5.467-16.116 7.017-32.932 4.503-48.864-1.958-10.26-5.751-19.845-11.195-28.29-.338-.196-.663.401-.441.716l-.318-.092z" fill="#455A64"/><path d="M262.038 454.39c14.129-12.274 24.691-28.359 30.215-46.019 9.825-30.207 7.503-46.85-2.595-52.691-2.676-1.721-5.908-2.472-9.247-2.147-3.339.324-6.619 1.707-9.385 3.957 0 0-7.869-10.681-15.429-7.895-7.56 2.787-13.494 16.292-13.494 16.292s-4.977-5.639-8.258-5.805c-3.281-.167-22.665 19.972-20.803 37.566 1.861 17.594 22.256 53.255 48.996 56.742z" fill="#BA68C8"/><path opacity=".25" d="M262.038 454.39c14.129-12.274 24.691-28.359 30.215-46.019 9.825-30.207 7.503-46.85-2.595-52.691-2.676-1.721-5.908-2.472-9.247-2.147-3.339.324-6.619 1.707-9.385 3.957 0 0-7.869-10.681-15.429-7.895-7.56 2.787-13.494 16.292-13.494 16.292s-4.977-5.639-8.258-5.805c-3.281-.167-22.665 19.972-20.803 37.566 1.861 17.594 22.256 53.255 48.996 56.742z" fill="#000"/><path d="M259.161 454.108c-15.488-3.579-29.49-11.017-40.856-21.704-19.875-18.186-23.356-30.054-17.107-43.377 6.249-13.324 16.163-12.138 19.829 2.372 0 0 4.854-6.379 9.524-5.881a13.268 13.268 0 016.122 2.933c1.734 1.484 3.059 3.407 3.869 5.617.473 2.666-2.25 41.853 18.619 60.04z" fill="#BA68C8"/><path opacity=".15" d="M259.161 454.108c-15.488-3.579-29.49-11.017-40.856-21.704-19.875-18.186-23.356-30.054-17.107-43.377 6.249-13.324 16.163-12.138 19.829 2.372 0 0 4.854-6.379 9.524-5.881a13.268 13.268 0 016.122 2.933c1.734 1.484 3.059 3.407 3.869 5.617.473 2.666-2.25 41.853 18.619 60.04z" fill="#000"/><path d="M272.122 448.333c11.72-6.171 22.309-14.752 31.041-25.158 12.362-15.871 18.175-31.677 6.849-32.134 0 0 4.035-7.108-.285-11.144-4.319-4.036-23.471 3.454-31.759 17.958-8.289 14.505-5.846 50.478-5.846 50.478z" fill="#BA68C8"/><path opacity=".15" d="M272.122 448.333c11.72-6.171 22.309-14.752 31.041-25.158 12.362-15.871 18.175-31.677 6.849-32.134 0 0 4.035-7.108-.285-11.144-4.319-4.036-23.471 3.454-31.759 17.958-8.289 14.505-5.846 50.478-5.846 50.478z" fill="#000"/><path d="M258.484 454.578c-13.121-5.636-23.903-23.726-26.837-35.966-3.499-14.805 1.015-33.648 11.269-41.657 10.254-8.01 22.993-4.553 22.993-4.553s7.945-8.227 18.823-1.416c7.487 4.661 5.381 28.954-.353 47.93-5.733 18.976-16.872 31.558-25.895 35.662z" fill="#BA68C8"/><path d="M268.41 467.548c-2.932-3.346-7.244-5.223-18.304-9.392-11.059-4.169-20.326-8.955-16.945-16.354 3.381-7.398 18.72 4.297 18.72 4.297s-1.626-16.997 6.444-19.467c10.606-3.32 11.149 17.775 11.149 17.775s10.325-15.856 16.419-12.713c6.093 3.142 2.875 11.106-4.118 18.401-6.994 7.295-12.531 12.787-13.365 17.453zm-96.809-276.076a.62.62 0 01-.532-.121 1.155 1.155 0 01-.387-.556c-14.476-43.641-4.811-89.78 24.617-117.503a.56.56 0 01.538-.126c.195.054.379.203.514.416a1.4 1.4 0 01.168.748c-.016.254-.108.474-.255.615-28.924 27.264-38.422 72.508-24.242 115.286.082.255.09.527.022.759-.067.232-.206.405-.385.483l-.058-.001z" fill="#455A64"/><path d="M206.216 105.622a7.38 7.38 0 01-1.328-.02c-3.085-.152-6.205-.855-9.26-2.087-5.816-2.603-11.885-3.021-17.345-1.196a.614.614 0 01-.4-.021.897.897 0 01-.364-.274 1.095 1.095 0 01-.168-.469.92.92 0 01.059-.465c3.43-8.42 15.373-20.6 26.871-14.953 7.314 3.597 7.919 9.078 7.946 11.308-.124 2.063-.76 3.939-1.83 5.394-1.069 1.456-2.524 2.424-4.181 2.783zm-25.949-5.623c5.038-.852 10.364-.158 15.518 2.019 2.932 1.186 5.927 1.873 8.89 2.04 1.611-.049 3.08-.75 4.182-1.993 1.102-1.244 1.774-2.96 1.914-4.885.115-3.849-2.379-7.332-6.847-9.548-10.544-5.146-20.755 5.682-24.459 12.597l.802-.23z" fill="#455A64"/><path d="M177.643 102.731a.454.454 0 01-.276.085.57.57 0 01-.298-.093 1.089 1.089 0 01-.261-.59.87.87 0 01.125-.584c4.462-7.177 17.858-10.83 26.571-7.185a.89.89 0 01.441.417c.105.198.147.427.119.637a.713.713 0 01-.294.487.565.565 0 01-.521.046c-8.997-3.775-21.37.564-25.172 6.745a.638.638 0 01-.434.035z" fill="#455A64"/><path d="M183.444 97.343a.633.633 0 01-.52-.009 1.246 1.246 0 01-.306-.567 1.259 1.259 0 01.004-.646c1.789-4.881-2.941-19.533-6.542-28.165a25.128 25.128 0 01-2.029-8.07c-.22-2.77.043-5.47.766-7.89.578-1.511 1.459-2.741 2.56-3.575a5.766 5.766 0 013.741-1.194c1.336.006 2.702.549 3.924 1.561 1.223 1.013 2.246 2.448 2.94 4.123 4.178 8.914 4.118 27.346-4.183 44.242a.436.436 0 01-.355.19zm-3.601-48.266c-.852.187-1.636.627-2.297 1.288-.661.662-1.185 1.53-1.536 2.547-.643 2.175-.872 4.6-.668 7.086a22.484 22.484 0 001.844 7.236c.314.784 6.631 15.968 7.123 25.212 6.403-15.212 6.245-31.076 2.583-38.93-.558-1.37-1.386-2.547-2.379-3.382-.993-.835-2.106-1.29-3.196-1.306-.506 0-1.001.084-1.474.25z" fill="#455A64"/><path d="M183.135 97.207a.373.373 0 01-.392-.006 1.11 1.11 0 01-.302-.543 1.333 1.333 0 01-.006-.664c3.646-13.348 1.116-33.385-.462-38.759a1.372 1.372 0 01-.036-.673c.044-.21.143-.37.274-.447a.337.337 0 01.211-.035.463.463 0 01.216.101.828.828 0 01.186.222 1.2 1.2 0 01.127.306c1.645 5.568 4.293 26.344.519 40.155-.075.18-.194.303-.335.343z" fill="#455A64"/><path d="M234.072 82.438c-8.468-2.152-16.732-6.542-24.196-12.857-5.945-16.28-7.672-23.374-7.522-36.242.178-3.088.932-5.978 2.207-8.454.525-.88 1.327-1.438 2.253-1.569.926-.13 1.912.175 2.771.859 1.143 1.372 1.907 3.136 2.151 4.968l3.622 16.205c-.462-6.05.332-11.908 2.309-17.02.736-1.883 2.058-3.915 3.85-3.216 1.792.7 2.764 4.229 2.744 6.834.011 6.765-.893 13.313-2.674 19.382 4.181-4.326 8.996-7.701 14.269-10a2.924 2.924 0 011.657-.477c.596.01 1.202.191 1.773.53 1.823 1.53 1.085 4.794-.033 6.672-2.563 4.354-5.887 7.898-9.781 10.427 5.902-1.769 12.265-1.777 18.607-.023.495.068.99.258 1.454.557a4.86 4.86 0 011.249 1.183c1.251 2.072-.312 4.495-1.937 5.536-4.371 2.72-9.343 4.072-14.545 3.956 3.298 1.118 11.095 4.715 11.255 8.073.161 3.358-5.985 6.183-11.483 4.676z" fill="#BA68C8"/><path opacity=".15" d="M234.072 82.438c-8.468-2.152-16.732-6.542-24.196-12.857-5.945-16.28-7.672-23.374-7.522-36.242.178-3.088.932-5.978 2.207-8.454.525-.88 1.327-1.438 2.253-1.569.926-.13 1.912.175 2.771.859 1.143 1.372 1.907 3.136 2.151 4.968l3.622 16.205c-.462-6.05.332-11.908 2.309-17.02.736-1.883 2.058-3.915 3.85-3.216 1.792.7 2.764 4.229 2.744 6.834.011 6.765-.893 13.313-2.674 19.382 4.181-4.326 8.996-7.701 14.269-10a2.924 2.924 0 011.657-.477c.596.01 1.202.191 1.773.53 1.823 1.53 1.085 4.794-.033 6.672-2.563 4.354-5.887 7.898-9.781 10.427 5.902-1.769 12.265-1.777 18.607-.023.495.068.99.258 1.454.557a4.86 4.86 0 011.249 1.183c1.251 2.072-.312 4.495-1.937 5.536-4.371 2.72-9.343 4.072-14.545 3.956 3.298 1.118 11.095 4.715 11.255 8.073.161 3.358-5.985 6.183-11.483 4.676z" fill="#000"/><path d="M10.926 156.835c-12.09-6.786-21.77-16.692-27.623-28.266-4.871-9.1-7.912-18.782-8.972-28.563a39.056 39.056 0 01-.18-5.513c.167-1.108.19-2.24.068-3.374.01-.464-1.05-1.028-1.491-.606-2.064 2.05-1.622 5.988-1.416 8.69a69.543 69.543 0 002.616 13.847c2.87 11.035 8.77 21.478 17.145 30.344 5.631 5.623 12.266 10.369 19.581 14.009.318.03.298-.411.011-.541l.26-.027z" fill="#455A64"/><path d="M-12.127 141.981c-4.527 10.75-5.167 22.835-1.83 34.572 5.457 20.172 13.61 29.338 22.645 30.216 2.464.334 4.912-.041 7.004-1.072 2.093-1.031 3.726-2.667 4.673-4.682 0 0 9.475 4.275 13.398.738 3.922-3.537 2.509-12.944 2.509-12.944s5.549 2.05 7.798 1.321c2.249-.729 7.148-17.411-1.076-27.249-8.223-9.839-35.949-25.593-55.121-20.9z" fill="#BA68C8"/><path opacity=".25" d="M-12.127 141.981c-4.527 10.75-5.167 22.835-1.83 34.572 5.457 20.172 13.61 29.338 22.645 30.216 2.464.334 4.912-.041 7.004-1.072 2.093-1.031 3.726-2.667 4.673-4.682 0 0 9.475 4.275 13.398.738 3.922-3.537 2.509-12.944 2.509-12.944s5.549 2.05 7.798 1.321c2.249-.729 7.148-17.411-1.076-27.249-8.223-9.839-35.949-25.593-55.121-20.9z" fill="#000"/><path d="M-7.54 140.499c11.088-1.728 22.69-.93 33.856 2.327 19.336 5.416 25.985 11.239 27.061 20.227 1.076 8.989-5.607 10.715-13.365 3.453 0 0-.656 4.753-3.781 5.6a11.565 11.565 0 01-4.953-.17 12.29 12.29 0 01-4.545-2.22c-1.299-1.382-14.311-24.041-34.273-29.217z" fill="#BA68C8"/><path opacity=".15" d="M-7.54 140.499c11.088-1.728 22.69-.93 33.856 2.327 19.336 5.416 25.985 11.239 27.061 20.227 1.076 8.989-5.607 10.715-13.365 3.453 0 0-.656 4.753-3.781 5.6a11.565 11.565 0 01-4.953-.17 12.29 12.29 0 01-4.545-2.22c-1.299-1.382-14.311-24.041-34.273-29.217z" fill="#000"/><path d="M-12.98 148.586c-5.729 6.741-9.638 14.634-11.46 23.14-2.1 12.726.426 23.714 8.666 21.05 0 0 .127 5.31 4.895 6.61 4.769 1.3 15.222-8.16 15.003-19.009-.219-10.849-17.103-31.791-17.103-31.791z" fill="#BA68C8"/><path opacity=".15" d="M-12.98 148.586c-5.729 6.741-9.638 14.634-11.46 23.14-2.1 12.726.426 23.714 8.666 21.05 0 0 .127 5.31 4.895 6.61 4.769 1.3 15.222-8.16 15.003-19.009-.219-10.849-17.103-31.791-17.103-31.791z" fill="#000"/><path d="M-8.795 140.706c11.093-.006 25.608 7.917 32.494 14.383 8.296 7.834 12.82 20.077 9.132 27.395-3.687 7.318-13.648 8.511-13.648 8.511s-2.046 6.86-12.1 5.606c-6.91-.848-15.24-15.692-18.996-28.323-3.755-12.632-1.307-22.867 3.118-27.572z" fill="#BA68C8"/><path d="M-16.423 135.093c3.191 1.203 6.707 1.217 15.476.882 8.769-.334 16.616.13 17.29 5.229.674 5.1-13.775 2.157-13.775 2.157s7.626 9.391 3.36 12.811c-5.58 4.536-14.09-7.483-14.09-7.483s-.548 11.69-5.706 11.388c-5.159-.303-6.157-5.688-4.453-11.622 1.704-5.933 3.162-10.467 1.898-13.362z" fill="#455A64"/><path d="M68.654 285.017c1.061.521 2.465.166 3.136-.781l11.157-15.743c16.475-23.244 48.713-32.002 73.391-19.884 25.371 12.459 33.348 41.966 17.4 64.468l-11.158 15.742c-.67.947-.365 2.141.697 2.663 1.061.521 2.465.166 3.136-.781l11.157-15.742c17.252-24.341 8.669-56.31-18.775-69.787-26.823-13.171-61.813-3.771-79.68 21.439l-11.157 15.743c-.671.947-.366 2.141.696 2.663z" stroke="#000"/><rect width="23" height="51" rx="10" transform="scale(-1 1) rotate(-31.947 442.096 464.502)" fill="#455A64"/><rect width="23" height="51" rx="10" transform="scale(-1 1) rotate(-32.004 411.898 328.569)" fill="#455A64"/></svg>