<svg width="343" height="725" fill="none" xmlns="http://www.w3.org/2000/svg"><path d="M226.183 691.545a.658.658 0 00.445.76c29.176 8.808 60.292-4.325 79.245-33.449a.683.683 0 00-.184-.917.679.679 0 00-.917.209c-18.638 28.626-49.151 41.523-77.751 32.899a.678.678 0 00-.838.445v.053z" fill="#455A64"/><path d="M284.247 657.572a7.05 7.05 0 000 1.048 24.746 24.746 0 001.258 7.13 22.131 22.131 0 01.603 13.605.572.572 0 00.183.577.55.55 0 00.603 0c5.479-3.486 13.474-14.051 9.935-22.623-2.254-5.452-5.793-5.426-7.235-5.242a6.916 6.916 0 00-5.347 5.505zm3.381 20.001c.6-4.062.204-8.21-1.153-12.085a24.183 24.183 0 01-1.232-6.842 5.82 5.82 0 014.508-5.452c2.491-.446 4.719 1.206 6.108 4.535 3.225 7.864-3.879 16.934-8.388 20.499l.157-.655z" fill="#455A64"/><path d="M286.004 679.408a.467.467 0 000 .445.52.52 0 00.734 0c4.535-4.115 6.947-14.863 4.745-21.311a.525.525 0 00-.656-.341.55.55 0 00-.34.681c2.28 6.659-.551 16.672-4.457 20.185a.629.629 0 00-.026.341z" fill="#455A64"/><path d="M289.855 675.895a.761.761 0 000 .472.658.658 0 00.813.157c3.303-2.097 13.107.787 18.874 3.224a12.026 12.026 0 0010.721-.393 7.251 7.251 0 003.277-6.186 6.111 6.111 0 00-3.748-5.689c-5.951-2.936-18.35-1.101-29.806 8.074a.527.527 0 00-.131.341zm32.427-1.389a5.604 5.604 0 01-2.622 3.853 10.773 10.773 0 01-9.62.315c-.524-.21-10.669-4.483-16.882-4.037 10.302-7.288 20.971-8.677 26.214-6.108a4.984 4.984 0 012.25 1.835c.55.822.844 1.789.843 2.779-.006.46-.067.917-.183 1.363z" fill="#455A64"/><path d="M289.855 675.895a.604.604 0 000 .419.602.602 0 00.813.21c9.07-5.243 22.596-4.535 26.213-3.381a.603.603 0 00.761-.367.577.577 0 00-.394-.734c-3.748-1.206-17.773-1.966-27.157 3.46a.653.653 0 00-.236.393z" fill="#455A64"/><path d="M299.056 636.941a46.957 46.957 0 008.283 18.796c10.748 3.381 15.44 4.141 23.986 2.805a13.917 13.917 0 005.636-2.622 3.197 3.197 0 00.524-4.22 5.055 5.055 0 00-3.276-1.311l-10.722-1.468a23.599 23.599 0 0011.325-3.513c1.258-.786 2.621-2.07 2.175-3.486-.445-1.416-2.778-1.887-4.509-1.625a41.291 41.291 0 00-12.897 4.037 46.214 46.214 0 006.79-12.74 3.179 3.179 0 000-2.831c-.996-1.364-3.172-.446-4.43.655a29.227 29.227 0 00-7.026 9.07 34.258 34.258 0 00.21-15.388 3.047 3.047 0 00-1.127-2.07c-1.363-.839-2.989.681-3.696 2.123a28.37 28.37 0 00-2.779 12.399c-.708-2.621-3.015-8.729-5.243-8.546-2.228.184-4.168 5.531-3.224 9.935z" fill="#BA68C8"/><path opacity=".15" d="M299.056 636.941a46.957 46.957 0 008.283 18.796c10.748 3.381 15.44 4.141 23.986 2.805a13.917 13.917 0 005.636-2.622 3.197 3.197 0 00.524-4.22 5.055 5.055 0 00-3.276-1.311l-10.722-1.468a23.599 23.599 0 0011.325-3.513c1.258-.786 2.621-2.07 2.175-3.486-.445-1.416-2.778-1.887-4.509-1.625a41.291 41.291 0 00-12.897 4.037 46.214 46.214 0 006.79-12.74 3.179 3.179 0 000-2.831c-.996-1.364-3.172-.446-4.43.655a29.227 29.227 0 00-7.026 9.07 34.258 34.258 0 00.21-15.388 3.047 3.047 0 00-1.127-2.07c-1.363-.839-2.989.681-3.696 2.123a28.37 28.37 0 00-2.779 12.399c-.708-2.621-3.015-8.729-5.243-8.546-2.228.184-4.168 5.531-3.224 9.935z" fill="#000"/><path d="M109.148 615.699c-8.386 14.984-11.562 32.943-9.063 51.242 1.659 14.522 5.86 28.918 12.395 42.474a75.256 75.256 0 004.158 7.436 25.868 25.868 0 012.746 4.463c.378.613-.38 1.886-1.217 1.54-3.971-1.717-6.584-7.183-8.488-10.886a125.697 125.697 0 01-7.981-19.739c-5.467-16.116-7.017-32.932-4.503-48.863 1.958-10.26 5.751-19.845 11.195-28.29.337-.196.663.401.44.715l.318-.092z" fill="#455A64"/><path d="M105.601 645.39c-14.13-12.274-24.69-28.36-30.215-46.02-9.825-30.206-7.503-46.85 2.594-52.69 2.676-1.722 5.908-2.472 9.247-2.148 3.34.324 6.62 1.707 9.386 3.957 0 0 7.868-10.681 15.428-7.894 7.56 2.786 13.495 16.292 13.495 16.292s4.976-5.639 8.258-5.806c3.281-.167 22.664 19.972 20.803 37.567-1.861 17.594-22.257 53.254-48.996 56.742z" fill="#BA68C8"/><path opacity=".25" d="M105.601 645.39c-14.13-12.274-24.69-28.36-30.215-46.02-9.825-30.206-7.503-46.85 2.594-52.69 2.676-1.722 5.908-2.472 9.247-2.148 3.34.324 6.62 1.707 9.386 3.957 0 0 7.868-10.681 15.428-7.894 7.56 2.786 13.495 16.292 13.495 16.292s4.976-5.639 8.258-5.806c3.281-.167 22.664 19.972 20.803 37.567-1.861 17.594-22.257 53.254-48.996 56.742z" fill="#000"/><path d="M108.477 645.108c15.488-3.579 29.491-11.017 40.857-21.704 19.874-18.186 23.356-30.054 17.107-43.377-6.249-13.324-16.163-12.138-19.829 2.372 0 0-4.854-6.38-9.524-5.881a13.259 13.259 0 00-6.122 2.933c-1.734 1.484-3.059 3.407-3.869 5.617-.473 2.665 2.25 41.852-18.62 60.04z" fill="#BA68C8"/><path opacity=".15" d="M108.477 645.108c15.488-3.579 29.491-11.017 40.857-21.704 19.874-18.186 23.356-30.054 17.107-43.377-6.249-13.324-16.163-12.138-19.829 2.372 0 0-4.854-6.38-9.524-5.881a13.259 13.259 0 00-6.122 2.933c-1.734 1.484-3.059 3.407-3.869 5.617-.473 2.665 2.25 41.852-18.62 60.04z" fill="#000"/><path d="M95.517 639.332c-11.72-6.17-22.309-14.752-31.042-25.157-12.361-15.871-18.174-31.677-6.848-32.134 0 0-4.035-7.108.284-11.144 4.32-4.036 23.471 3.454 31.76 17.958 8.288 14.505 5.846 50.477 5.846 50.477z" fill="#BA68C8"/><path opacity=".15" d="M95.517 639.332c-11.72-6.17-22.309-14.752-31.042-25.157-12.361-15.871-18.174-31.677-6.848-32.134 0 0-4.035-7.108.284-11.144 4.32-4.036 23.471 3.454 31.76 17.958 8.288 14.505 5.846 50.477 5.846 50.477z" fill="#000"/><path d="M109.155 645.578c13.12-5.637 23.903-23.726 26.837-35.966 3.498-14.805-1.015-33.648-11.269-41.658-10.255-8.009-22.993-4.552-22.993-4.552s-7.945-8.228-18.824-1.417c-7.487 4.661-5.38 28.955.353 47.931 5.734 18.976 16.873 31.557 25.896 35.662z" fill="#BA68C8"/><path d="M99.229 658.548c2.932-3.347 7.243-5.224 18.303-9.392 11.06-4.169 20.327-8.956 16.946-16.354-3.381-7.398-18.72 4.296-18.72 4.296s1.626-16.997-6.445-19.467c-10.605-3.319-11.149 17.776-11.149 17.776s-10.324-15.856-16.418-12.714c-6.094 3.142-2.876 11.107 4.118 18.402 6.994 7.295 12.53 12.787 13.365 17.453zm66.18-467.15a.618.618 0 00.532-.122c.17-.125.307-.323.387-.556 14.476-43.641 4.811-89.779-24.617-117.502a.56.56 0 00-.538-.127c-.195.054-.379.203-.514.416a1.398 1.398 0 00-.168.748c.016.254.107.475.255.616 28.923 27.264 38.422 72.508 24.242 115.286-.082.254-.09.527-.023.759.068.232.206.405.386.483l.058-.001z" fill="#455A64"/><path d="M130.793 105.548c.438.033.882.026 1.329-.02 3.085-.152 6.205-.855 9.26-2.087 5.815-2.603 11.885-3.022 17.345-1.196.127.038.265.03.4-.022a.888.888 0 00.364-.274c.09-.14.149-.302.168-.468a.93.93 0 00-.059-.465c-3.43-8.42-15.373-20.6-26.871-14.953-7.314 3.597-7.919 9.078-7.946 11.308.123 2.062.76 3.939 1.83 5.394 1.069 1.455 2.524 2.423 4.18 2.783zm25.95-5.624c-5.038-.85-10.364-.158-15.518 2.02-2.933 1.185-5.927 1.873-8.89 2.04-1.611-.05-3.081-.75-4.182-1.994-1.102-1.243-1.775-2.96-1.914-4.885-.115-3.848 2.378-7.332 6.847-9.548 10.544-5.146 20.755 5.683 24.459 12.598l-.802-.23z" fill="#455A64"/><path d="M159.367 102.657a.46.46 0 00.276.085.576.576 0 00.298-.094c.141-.158.235-.37.26-.59a.86.86 0 00-.125-.584c-4.461-7.176-17.857-10.83-26.57-7.185a.89.89 0 00-.441.418 1.069 1.069 0 00-.119.637.713.713 0 00.294.487.565.565 0 00.521.045c8.997-3.774 21.37.564 25.171 6.745a.64.64 0 00.435.036z" fill="#455A64"/><path d="M153.565 97.268a.636.636 0 00.521-.008c.142-.146.25-.347.305-.568a1.26 1.26 0 00-.003-.645c-1.789-4.882 2.941-19.533 6.542-28.165a25.129 25.129 0 002.029-8.071c.219-2.77-.043-5.47-.766-7.889-.578-1.512-1.459-2.742-2.56-3.575a5.766 5.766 0 00-3.741-1.194c-1.336.005-2.702.549-3.925 1.561-1.222 1.012-2.245 2.447-2.939 4.122-4.179 8.914-4.119 27.347 4.182 44.243a.44.44 0 00.355.19zm3.602-48.265c.852.187 1.635.626 2.297 1.288.661.662 1.185 1.53 1.536 2.547.643 2.174.872 4.6.668 7.085a22.51 22.51 0 01-1.844 7.236c-.315.785-6.631 15.969-7.123 25.213-6.403-15.213-6.246-31.076-2.584-38.93.558-1.37 1.387-2.547 2.38-3.382.993-.835 2.106-1.29 3.196-1.306a4.46 4.46 0 011.474.249z" fill="#455A64"/><path d="M153.875 97.133c.119.072.258.07.392-.007a1.11 1.11 0 00.302-.543c.057-.225.059-.463.006-.663-3.646-13.348-1.116-33.386.462-38.76a1.37 1.37 0 00.036-.673c-.044-.21-.143-.37-.274-.446a.337.337 0 00-.211-.035.462.462 0 00-.216.1.826.826 0 00-.187.222 1.22 1.22 0 00-.126.306c-1.645 5.569-4.293 26.344-.519 40.155.075.182.194.303.335.344z" fill="#455A64"/><path d="M102.937 82.363c8.469-2.151 16.732-6.542 24.197-12.856 5.944-16.28 7.672-23.374 7.522-36.243-.178-3.088-.933-5.977-2.208-8.453-.524-.88-1.326-1.438-2.252-1.569-.926-.131-1.912.174-2.771.858-1.143 1.373-1.907 3.137-2.151 4.97l-3.622 16.203c.462-6.05-.333-11.908-2.309-17.019-.737-1.883-2.058-3.915-3.85-3.216-1.792.7-2.765 4.229-2.744 6.834-.011 6.765.892 13.313 2.673 19.382-4.181-4.327-8.996-7.702-14.268-10.001a2.925 2.925 0 00-1.658-.476c-.595.01-1.202.19-1.772.53-1.823 1.529-1.085 4.794.032 6.672 2.563 4.354 5.888 7.898 9.782 10.426-5.903-1.768-12.266-1.776-18.608-.023a3.614 3.614 0 00-1.453.557 4.87 4.87 0 00-1.25 1.183c-1.25 2.073.313 4.496 1.938 5.537 4.37 2.719 9.343 4.071 14.545 3.956-3.298 1.118-11.095 4.714-11.256 8.073-.16 3.358 5.985 6.183 11.483 4.675z" fill="#BA68C8"/><path opacity=".15" d="M102.937 82.363c8.469-2.151 16.732-6.542 24.197-12.856 5.944-16.28 7.672-23.374 7.522-36.243-.178-3.088-.933-5.977-2.208-8.453-.524-.88-1.326-1.438-2.252-1.569-.926-.131-1.912.174-2.771.858-1.143 1.373-1.907 3.137-2.151 4.97l-3.622 16.203c.462-6.05-.333-11.908-2.309-17.019-.737-1.883-2.058-3.915-3.85-3.216-1.792.7-2.765 4.229-2.744 6.834-.011 6.765.892 13.313 2.673 19.382-4.181-4.327-8.996-7.702-14.268-10.001a2.925 2.925 0 00-1.658-.476c-.595.01-1.202.19-1.772.53-1.823 1.529-1.085 4.794.032 6.672 2.563 4.354 5.888 7.898 9.782 10.426-5.903-1.768-12.266-1.776-18.608-.023a3.614 3.614 0 00-1.453.557 4.87 4.87 0 00-1.25 1.183c-1.25 2.073.313 4.496 1.938 5.537 4.37 2.719 9.343 4.071 14.545 3.956-3.298 1.118-11.095 4.714-11.256 8.073-.16 3.358 5.985 6.183 11.483 4.675z" fill="#000"/><path d="M326.082 156.761c12.09-6.787 21.771-16.693 27.623-28.266 4.871-9.101 7.912-18.782 8.971-28.563.19-1.843.25-3.685.18-5.514a13.212 13.212 0 01-.067-3.374c-.009-.463 1.049-1.028 1.491-.605 2.064 2.05 1.622 5.987 1.416 8.69a69.597 69.597 0 01-2.616 13.847c-2.869 11.035-8.77 21.477-17.146 30.344-5.63 5.622-12.265 10.369-19.581 14.008-.317.03-.297-.41-.01-.541l-.261-.026z" fill="#455A64"/><path d="M349.135 141.907c4.527 10.75 5.166 22.834 1.83 34.572-5.457 20.171-13.609 29.337-22.645 30.215-2.464.334-4.912-.04-7.004-1.071-2.093-1.031-3.726-2.668-4.673-4.683 0 0-9.475 4.275-13.398.739-3.923-3.537-2.509-12.945-2.509-12.945s-5.549 2.05-7.798 1.321c-2.249-.729-7.148-17.41 1.075-27.249 8.224-9.838 35.95-25.592 55.122-20.899z" fill="#BA68C8"/><path opacity=".25" d="M349.135 141.907c4.527 10.75 5.166 22.834 1.83 34.572-5.457 20.171-13.609 29.337-22.645 30.215-2.464.334-4.912-.04-7.004-1.071-2.093-1.031-3.726-2.668-4.673-4.683 0 0-9.475 4.275-13.398.739-3.923-3.537-2.509-12.945-2.509-12.945s-5.549 2.05-7.798 1.321c-2.249-.729-7.148-17.41 1.075-27.249 8.224-9.838 35.95-25.592 55.122-20.899z" fill="#000"/><path d="M344.548 140.425c-11.088-1.728-22.691-.931-33.856 2.327-19.336 5.415-25.986 11.238-27.061 20.227-1.076 8.988 5.607 10.715 13.365 3.453 0 0 .656 4.753 3.781 5.6 1.609.303 3.305.245 4.953-.17a12.286 12.286 0 004.545-2.22c1.299-1.383 14.311-24.042 34.273-29.217z" fill="#BA68C8"/><path opacity=".15" d="M344.548 140.425c-11.088-1.728-22.691-.931-33.856 2.327-19.336 5.415-25.986 11.238-27.061 20.227-1.076 8.988 5.607 10.715 13.365 3.453 0 0 .656 4.753 3.781 5.6 1.609.303 3.305.245 4.953-.17a12.286 12.286 0 004.545-2.22c1.299-1.383 14.311-24.042 34.273-29.217z" fill="#000"/><path d="M349.987 148.512c5.729 6.741 9.639 14.634 11.461 23.14 2.1 12.725-.426 23.714-8.666 21.05 0 0-.127 5.309-4.895 6.61-4.769 1.3-15.223-8.16-15.003-19.009.219-10.85 17.103-31.791 17.103-31.791z" fill="#BA68C8"/><path opacity=".15" d="M349.987 148.512c5.729 6.741 9.639 14.634 11.461 23.14 2.1 12.725-.426 23.714-8.666 21.05 0 0-.127 5.309-4.895 6.61-4.769 1.3-15.223-8.16-15.003-19.009.219-10.85 17.103-31.791 17.103-31.791z" fill="#000"/><path d="M345.802 140.632c-11.092-.006-25.608 7.916-32.494 14.382-8.295 7.835-12.819 20.078-9.131 27.396 3.687 7.317 13.648 8.51 13.648 8.51s2.045 6.861 12.1 5.606c6.909-.847 15.24-15.691 18.996-28.323 3.755-12.631 1.307-22.866-3.119-27.571z" fill="#BA68C8"/><path d="M353.431 135.019c-3.192 1.202-6.707 1.217-15.476.882-8.769-.335-16.616.13-17.29 5.229-.674 5.099 13.775 2.157 13.775 2.157s-7.626 9.39-3.359 12.81c5.578 4.537 14.089-7.482 14.089-7.482s.548 11.69 5.706 11.387c5.159-.302 6.157-5.688 4.453-11.621-1.704-5.933-3.163-10.468-1.898-13.362z" fill="#455A64"/><rect x="96.602" y="321.433" width="164" height="120" rx="7.5" transform="rotate(-13.337 96.602 321.433)" stroke="#000"/><path stroke="#000" d="M166.95 340.726l17.515-4.152 11.533 48.651-17.514 4.153zm24.326-5.767l17.515-4.152 11.533 48.651-17.514 4.153z"/></svg>