<svg width="368" height="742" fill="none" xmlns="http://www.w3.org/2000/svg"><path d="M141.866 708.544a.648.648 0 01-.076.466.65.65 0 01-.369.294c-29.176 8.808-60.292-4.325-79.245-33.448a.684.684 0 01.184-.918.68.68 0 01.917.21c18.638 28.625 49.151 41.523 77.75 32.898a.685.685 0 01.839.446v.052z" fill="#455A64"/><path d="M83.802 674.571c.026.349.026.7 0 1.049a24.773 24.773 0 01-1.258 7.13 22.124 22.124 0 00-.603 13.605.576.576 0 01-.183.577.555.555 0 01-.603 0c-5.479-3.487-13.474-14.051-9.935-22.623 2.254-5.453 5.793-5.426 7.235-5.243a6.927 6.927 0 015.347 5.505zm-3.381 20.001a25.346 25.346 0 011.153-12.084 24.2 24.2 0 001.232-6.842 5.818 5.818 0 00-4.509-5.453c-2.49-.445-4.718 1.206-6.108 4.535-3.224 7.865 3.88 16.935 8.389 20.5l-.157-.656z" fill="#455A64"/><path d="M82.045 696.408a.468.468 0 010 .445.525.525 0 01-.734 0c-4.535-4.115-6.947-14.863-4.745-21.312a.527.527 0 01.655-.34.548.548 0 01.341.681c-2.28 6.658.55 16.672 4.457 20.185a.63.63 0 01.026.341z" fill="#455A64"/><path d="M78.194 692.895c.05.153.05.318 0 .471a.657.657 0 01-.813.158c-3.303-2.097-13.107.786-18.874 3.224a12.026 12.026 0 01-10.721-.393 7.265 7.265 0 01-3.277-6.187 6.107 6.107 0 013.748-5.688c5.95-2.936 18.35-1.101 29.806 8.074.083.094.13.215.13.341zm-32.427-1.39a5.609 5.609 0 002.621 3.854 10.769 10.769 0 009.62.314c.525-.21 10.67-4.482 16.883-4.037-10.302-7.287-20.972-8.677-26.214-6.108a4.98 4.98 0 00-3.093 4.614 5.7 5.7 0 00.183 1.363z" fill="#455A64"/><path d="M78.194 692.895c.05.135.05.284 0 .419a.6.6 0 01-.813.21c-9.07-5.243-22.596-4.535-26.214-3.382a.603.603 0 01-.76-.367.576.576 0 01.394-.734c3.748-1.206 17.772-1.966 27.157 3.46a.657.657 0 01.236.394z" fill="#455A64"/><path d="M68.993 653.941a46.945 46.945 0 01-8.284 18.795c-10.747 3.382-15.44 4.142-23.985 2.805a13.927 13.927 0 01-5.636-2.621 3.2 3.2 0 01-.524-4.221 5.057 5.057 0 013.276-1.31l10.722-1.468a23.593 23.593 0 01-11.325-3.513c-1.258-.787-2.621-2.071-2.175-3.487.445-1.415 2.778-1.887 4.508-1.625a41.335 41.335 0 0112.898 4.037 46.217 46.217 0 01-6.79-12.74 3.168 3.168 0 010-2.831c.996-1.363 3.172-.446 4.43.655a29.242 29.242 0 017.026 9.07 34.26 34.26 0 01-.21-15.387 3.038 3.038 0 011.127-2.071c1.363-.839 2.988.682 3.696 2.123a28.393 28.393 0 012.779 12.4c.708-2.622 3.014-8.73 5.243-8.546 2.228.183 4.168 5.531 3.224 9.935z" fill="#BA68C8"/><path opacity=".15" d="M68.993 653.941a46.945 46.945 0 01-8.284 18.795c-10.747 3.382-15.44 4.142-23.985 2.805a13.927 13.927 0 01-5.636-2.621 3.2 3.2 0 01-.524-4.221 5.057 5.057 0 013.276-1.31l10.722-1.468a23.593 23.593 0 01-11.325-3.513c-1.258-.787-2.621-2.071-2.175-3.487.445-1.415 2.778-1.887 4.508-1.625a41.335 41.335 0 0112.898 4.037 46.217 46.217 0 01-6.79-12.74 3.168 3.168 0 010-2.831c.996-1.363 3.172-.446 4.43.655a29.242 29.242 0 017.026 9.07 34.26 34.26 0 01-.21-15.387 3.038 3.038 0 011.127-2.071c1.363-.839 2.988.682 3.696 2.123a28.393 28.393 0 012.779 12.4c.708-2.622 3.014-8.73 5.243-8.546 2.228.183 4.168 5.531 3.224 9.935z" fill="#000"/><path d="M258.49 632.699c8.387 14.984 11.563 32.943 9.064 51.242-1.659 14.522-5.86 28.918-12.395 42.474a75.665 75.665 0 01-4.158 7.436 25.935 25.935 0 00-2.747 4.463c-.377.613.38 1.886 1.218 1.54 3.97-1.717 6.584-7.183 8.488-10.886a125.89 125.89 0 007.981-19.739c5.467-16.116 7.017-32.932 4.503-48.863-1.958-10.26-5.751-19.845-11.195-28.29-.338-.196-.663.401-.441.715l-.318-.092z" fill="#455A64"/><path d="M262.038 662.39c14.129-12.274 24.691-28.36 30.215-46.02 9.825-30.206 7.503-46.85-2.595-52.69-2.676-1.722-5.908-2.472-9.247-2.148-3.339.324-6.619 1.707-9.385 3.957 0 0-7.869-10.681-15.429-7.894-7.56 2.786-13.494 16.292-13.494 16.292s-4.977-5.639-8.258-5.806c-3.281-.167-22.665 19.972-20.803 37.567 1.861 17.594 22.256 53.254 48.996 56.742z" fill="#BA68C8"/><path opacity=".25" d="M262.038 662.39c14.129-12.274 24.691-28.36 30.215-46.02 9.825-30.206 7.503-46.85-2.595-52.69-2.676-1.722-5.908-2.472-9.247-2.148-3.339.324-6.619 1.707-9.385 3.957 0 0-7.869-10.681-15.429-7.894-7.56 2.786-13.494 16.292-13.494 16.292s-4.977-5.639-8.258-5.806c-3.281-.167-22.665 19.972-20.803 37.567 1.861 17.594 22.256 53.254 48.996 56.742z" fill="#000"/><path d="M259.161 662.108c-15.488-3.579-29.49-11.017-40.856-21.704-19.875-18.186-23.356-30.054-17.107-43.377 6.249-13.324 16.163-12.138 19.829 2.372 0 0 4.854-6.38 9.524-5.881a13.268 13.268 0 016.122 2.933c1.734 1.484 3.059 3.407 3.869 5.617.473 2.665-2.25 41.852 18.619 60.04z" fill="#BA68C8"/><path opacity=".15" d="M259.161 662.108c-15.488-3.579-29.49-11.017-40.856-21.704-19.875-18.186-23.356-30.054-17.107-43.377 6.249-13.324 16.163-12.138 19.829 2.372 0 0 4.854-6.38 9.524-5.881a13.268 13.268 0 016.122 2.933c1.734 1.484 3.059 3.407 3.869 5.617.473 2.665-2.25 41.852 18.619 60.04z" fill="#000"/><path d="M272.122 656.332c11.72-6.17 22.309-14.752 31.041-25.157 12.362-15.871 18.175-31.677 6.849-32.134 0 0 4.035-7.108-.285-11.144-4.319-4.036-23.471 3.454-31.759 17.958-8.289 14.505-5.846 50.477-5.846 50.477z" fill="#BA68C8"/><path opacity=".15" d="M272.122 656.332c11.72-6.17 22.309-14.752 31.041-25.157 12.362-15.871 18.175-31.677 6.849-32.134 0 0 4.035-7.108-.285-11.144-4.319-4.036-23.471 3.454-31.759 17.958-8.289 14.505-5.846 50.477-5.846 50.477z" fill="#000"/><path d="M258.484 662.578c-13.121-5.637-23.903-23.726-26.837-35.966-3.499-14.805 1.015-33.648 11.269-41.658 10.254-8.009 22.993-4.552 22.993-4.552s7.945-8.228 18.823-1.417c7.487 4.661 5.381 28.955-.353 47.931-5.733 18.976-16.872 31.557-25.895 35.662z" fill="#BA68C8"/><path d="M268.41 675.548c-2.932-3.347-7.244-5.224-18.304-9.392-11.059-4.169-20.326-8.956-16.945-16.354 3.381-7.398 18.72 4.296 18.72 4.296s-1.626-16.997 6.444-19.467c10.606-3.319 11.149 17.776 11.149 17.776s10.325-15.856 16.419-12.714c6.093 3.142 2.875 11.107-4.118 18.402-6.994 7.295-12.531 12.787-13.365 17.453zm-96.69-484.297a.617.617 0 01-.532-.122 1.145 1.145 0 01-.387-.556c-14.476-43.641-4.811-89.779 24.617-117.503a.56.56 0 01.538-.126c.195.054.379.203.514.416a1.4 1.4 0 01.168.748c-.016.254-.108.474-.255.616-28.923 27.263-38.422 72.507-24.242 115.286.082.254.09.527.023.758-.068.232-.206.406-.386.484l-.058-.001z" fill="#455A64"/><path d="M206.336 105.401a7.39 7.39 0 01-1.329-.021c-3.085-.152-6.205-.855-9.26-2.086-5.816-2.603-11.885-3.022-17.345-1.196a.615.615 0 01-.4-.022.888.888 0 01-.364-.274 1.109 1.109 0 01-.168-.468.935.935 0 01.059-.466c3.43-8.419 15.373-20.6 26.871-14.952 7.314 3.597 7.919 9.078 7.946 11.308-.124 2.062-.76 3.939-1.83 5.394-1.069 1.455-2.524 2.423-4.18 2.783zm-25.95-5.624c5.038-.851 10.364-.158 15.518 2.02 2.932 1.185 5.927 1.872 8.89 2.04 1.611-.05 3.081-.751 4.182-1.994 1.102-1.243 1.775-2.96 1.914-4.885.115-3.849-2.379-7.332-6.847-9.548-10.544-5.146-20.755 5.683-24.459 12.598l.802-.231z" fill="#455A64"/><path d="M177.762 102.51a.467.467 0 01-.276.085.583.583 0 01-.298-.094 1.09 1.09 0 01-.261-.59.866.866 0 01.126-.584c4.461-7.176 17.857-10.83 26.57-7.185a.89.89 0 01.441.418c.105.197.147.427.119.637a.713.713 0 01-.294.487.565.565 0 01-.521.045c-8.997-3.774-21.37.564-25.172 6.745a.644.644 0 01-.434.036z" fill="#455A64"/><path d="M183.564 97.121a.636.636 0 01-.521-.008 1.255 1.255 0 01-.306-.568 1.259 1.259 0 01.004-.645c1.789-4.882-2.941-19.533-6.542-28.165a25.129 25.129 0 01-2.029-8.071c-.219-2.77.043-5.47.766-7.889.578-1.512 1.459-2.742 2.56-3.576a5.767 5.767 0 013.741-1.194c1.336.006 2.702.55 3.925 1.562 1.222 1.012 2.245 2.447 2.939 4.122 4.179 8.914 4.118 27.346-4.183 44.243a.436.436 0 01-.354.189zm-3.602-48.265c-.852.187-1.636.626-2.297 1.288-.661.662-1.185 1.53-1.536 2.547-.643 2.174-.872 4.6-.668 7.085a22.51 22.51 0 001.844 7.236c.314.785 6.631 15.969 7.123 25.213 6.403-15.213 6.245-31.076 2.584-38.93-.559-1.37-1.387-2.547-2.38-3.383-.993-.834-2.106-1.29-3.196-1.306a4.487 4.487 0 00-1.474.25z" fill="#455A64"/><path d="M183.254 96.986a.373.373 0 01-.392-.007 1.11 1.11 0 01-.302-.543 1.345 1.345 0 01-.006-.663c3.646-13.348 1.116-33.386-.462-38.76a1.372 1.372 0 01-.036-.673c.044-.21.143-.37.274-.446a.337.337 0 01.211-.035.462.462 0 01.216.1.825.825 0 01.186.222c.054.09.097.195.127.306 1.645 5.569 4.293 26.344.519 40.155-.075.181-.194.303-.335.344z" fill="#455A64"/><path d="M234.192 82.216c-8.469-2.151-16.732-6.542-24.197-12.856-5.945-16.28-7.672-23.375-7.522-36.243.178-3.088.932-5.978 2.207-8.453.525-.88 1.327-1.438 2.253-1.57.926-.13 1.912.175 2.771.86 1.143 1.372 1.907 3.136 2.151 4.968l3.622 16.204c-.462-6.05.332-11.908 2.309-17.019.736-1.883 2.058-3.915 3.85-3.216 1.792.7 2.764 4.228 2.744 6.834.011 6.764-.892 13.313-2.674 19.382 4.182-4.327 8.996-7.702 14.269-10.001a2.925 2.925 0 011.658-.476c.595.01 1.202.19 1.772.53 1.823 1.529 1.085 4.794-.032 6.671-2.564 4.355-5.888 7.899-9.782 10.427 5.903-1.768 12.265-1.776 18.607-.023.496.069.99.258 1.454.557.464.299.889.701 1.249 1.183 1.251 2.073-.312 4.496-1.937 5.536-4.37 2.72-9.343 4.072-14.545 3.957 3.298 1.117 11.095 4.714 11.255 8.072.161 3.359-5.984 6.184-11.482 4.676z" fill="#BA68C8"/><path opacity=".15" d="M234.192 82.216c-8.469-2.151-16.732-6.542-24.197-12.856-5.945-16.28-7.672-23.375-7.522-36.243.178-3.088.932-5.978 2.207-8.453.525-.88 1.327-1.438 2.253-1.57.926-.13 1.912.175 2.771.86 1.143 1.372 1.907 3.136 2.151 4.968l3.622 16.204c-.462-6.05.332-11.908 2.309-17.019.736-1.883 2.058-3.915 3.85-3.216 1.792.7 2.764 4.228 2.744 6.834.011 6.764-.892 13.313-2.674 19.382 4.182-4.327 8.996-7.702 14.269-10.001a2.925 2.925 0 011.658-.476c.595.01 1.202.19 1.772.53 1.823 1.529 1.085 4.794-.032 6.671-2.564 4.355-5.888 7.899-9.782 10.427 5.903-1.768 12.265-1.776 18.607-.023.496.069.99.258 1.454.557.464.299.889.701 1.249 1.183 1.251 2.073-.312 4.496-1.937 5.536-4.37 2.72-9.343 4.072-14.545 3.957 3.298 1.117 11.095 4.714 11.255 8.072.161 3.359-5.984 6.184-11.482 4.676z" fill="#000"/><path d="M11.047 156.613c-12.09-6.786-21.77-16.692-27.623-28.265-4.871-9.101-7.912-18.782-8.971-28.564a39.056 39.056 0 01-.18-5.513c.166-1.107.189-2.24.067-3.374.01-.464-1.049-1.028-1.491-.606-2.064 2.05-1.622 5.988-1.416 8.691a69.567 69.567 0 002.616 13.847c2.87 11.035 8.77 21.477 17.146 30.344 5.63 5.622 12.265 10.368 19.58 14.008.318.03.298-.41.011-.541l.26-.027z" fill="#455A64"/><path d="M-12.006 141.759c-4.527 10.751-5.166 22.835-1.83 34.573 5.457 20.171 13.61 29.337 22.645 30.215 2.464.334 4.912-.04 7.004-1.071 2.093-1.031 3.726-2.668 4.673-4.683 0 0 9.475 4.275 13.398.738 3.923-3.537 2.509-12.944 2.509-12.944s5.549 2.05 7.798 1.321c2.249-.729 7.148-17.41-1.076-27.249-8.223-9.838-35.949-25.592-55.121-20.9z" fill="#BA68C8"/><path opacity=".25" d="M-12.006 141.759c-4.527 10.751-5.166 22.835-1.83 34.573 5.457 20.171 13.61 29.337 22.645 30.215 2.464.334 4.912-.04 7.004-1.071 2.093-1.031 3.726-2.668 4.673-4.683 0 0 9.475 4.275 13.398.738 3.923-3.537 2.509-12.944 2.509-12.944s5.549 2.05 7.798 1.321c2.249-.729 7.148-17.41-1.076-27.249-8.223-9.838-35.949-25.592-55.121-20.9z" fill="#000"/><path d="M-7.419 140.277c11.088-1.727 22.69-.93 33.856 2.328 19.336 5.415 25.985 11.238 27.061 20.227 1.076 8.988-5.607 10.715-13.365 3.452 0 0-.656 4.753-3.781 5.6a11.565 11.565 0 01-4.953-.169 12.276 12.276 0 01-4.545-2.221c-1.299-1.382-14.311-24.041-34.273-29.217z" fill="#BA68C8"/><path opacity=".15" d="M-7.419 140.277c11.088-1.727 22.69-.93 33.856 2.328 19.336 5.415 25.985 11.238 27.061 20.227 1.076 8.988-5.607 10.715-13.365 3.452 0 0-.656 4.753-3.781 5.6a11.565 11.565 0 01-4.953-.169 12.276 12.276 0 01-4.545-2.221c-1.299-1.382-14.311-24.041-34.273-29.217z" fill="#000"/><path d="M-12.858 148.364c-5.73 6.742-9.639 14.635-11.462 23.141-2.099 12.725.427 23.713 8.667 21.049 0 0 .127 5.31 4.895 6.611 4.769 1.3 15.222-8.16 15.003-19.009-.219-10.85-17.103-31.792-17.103-31.792z" fill="#BA68C8"/><path opacity=".15" d="M-12.858 148.364c-5.73 6.742-9.639 14.635-11.462 23.141-2.099 12.725.427 23.713 8.667 21.049 0 0 .127 5.31 4.895 6.611 4.769 1.3 15.222-8.16 15.003-19.009-.219-10.85-17.103-31.792-17.103-31.792z" fill="#000"/><path d="M-8.674 140.484c11.093-.005 25.608 7.917 32.495 14.383 8.295 7.834 12.819 20.078 9.131 27.395-3.687 7.318-13.648 8.511-13.648 8.511s-2.045 6.86-12.1 5.606c-6.91-.847-15.24-15.692-18.996-28.323-3.755-12.631-1.307-22.866 3.118-27.572z" fill="#BA68C8"/><path d="M-16.302 134.871c3.191 1.203 6.707 1.217 15.476.883 8.769-.335 16.616.13 17.29 5.229.674 5.099-13.775 2.157-13.775 2.157s7.626 9.39 3.36 12.81c-5.58 4.537-14.09-7.482-14.09-7.482s-.548 11.689-5.706 11.387c-5.159-.303-6.157-5.688-4.453-11.621 1.704-5.934 3.162-10.468 1.898-13.363z" fill="#455A64"/><rect x="99.822" y="295.321" width="164" height="120" rx="7.5" transform="rotate(15 99.822 295.321)" stroke="#000"/><path d="M157.158 350.835l30.007 30.006-40.99 10.983 10.983-40.989z" stroke="#000"/></svg>