<svg width="317" height="628" fill="none" xmlns="http://www.w3.org/2000/svg"><path d="M121.567 173.506a17.493 17.493 0 00-2.15-9.886 17.037 17.037 0 00-7.239-6.939 17.05 17.05 0 00-9.891-1.656 17.503 17.503 0 00-9.215 4.183 17.856 17.856 0 00-5.438 8.616 17.656 17.656 0 00.17 10.148 17.156 17.156 0 005.72 8.265 16.985 16.985 0 009.346 3.601 17.127 17.127 0 006.744-.85 17.468 17.468 0 005.933-3.41 17.74 17.74 0 006.02-12.072zm-10.913-86.093a17.486 17.486 0 00-2.149-9.886 17.043 17.043 0 00-7.239-6.94 17.053 17.053 0 00-9.891-1.656 17.51 17.51 0 00-9.216 4.184 17.853 17.853 0 00-5.437 8.616 17.655 17.655 0 00.17 10.148 17.169 17.169 0 005.72 8.266 16.991 16.991 0 009.346 3.6 17.146 17.146 0 006.744-.849 17.496 17.496 0 005.933-3.411 17.729 17.729 0 006.019-12.072zm67.854 55.572a14.605 14.605 0 00-1.664-8.365 14.228 14.228 0 00-6.032-5.92 14.226 14.226 0 00-8.329-1.441 14.608 14.608 0 00-7.764 3.532 14.9 14.9 0 00-4.532 7.293 14.716 14.716 0 00.255 8.549 14.312 14.312 0 004.955 6.868 14.176 14.176 0 007.954 2.829c3.713.148 7.36-1.156 10.183-3.641a14.895 14.895 0 004.974-9.704zm31.123-52.953a14.51 14.51 0 00-1.697-8.276 14.126 14.126 0 00-5.999-5.838 14.129 14.129 0 00-8.253-1.407 14.513 14.513 0 00-7.687 3.505 14.792 14.792 0 00-4.495 7.22 14.617 14.617 0 00.232 8.469c.911 2.724 2.61 5.1 4.88 6.823a14.075 14.075 0 007.861 2.848c3.725.199 7.4-1.087 10.234-3.582a14.69 14.69 0 004.924-9.762zm44.372 37.282a14.607 14.607 0 00-1.664-8.366 14.228 14.228 0 00-6.032-5.92 14.226 14.226 0 00-8.329-1.441 14.609 14.609 0 00-7.764 3.533 14.9 14.9 0 00-4.533 7.293 14.72 14.72 0 00.256 8.548 14.3 14.3 0 004.955 6.868 14.168 14.168 0 007.954 2.829c3.719.174 7.38-1.122 10.208-3.612a14.788 14.788 0 004.949-9.732z" fill="#B16668"/><path d="M84.997 460.177c-3.113-16.241-16.42-20.632-25.516-26.606-9.097-5.975-18.69-11.648-25.718-20.373 1.695 6.558 3.651 13.135 6.801 19.249 3.15 6.114 7.624 11.775 13.238 15.312 9.815 6.14 21.914 5.216 31.173 12.415m-43.259-4.202a108.188 108.188 0 0017.85 3.545c11.42 1.602 23.991 3.802 33.826 11.406-4.295 4.008-13.397 5.131-19.576 4.169-6.178-.962-12.245-3.698-18.199-6.38a119.856 119.856 0 01-16.689-8.579c-5.412-3.351-10.13-7.989-13.712-13.48 4.882 4.405 10.551 7.607 16.5 9.319zm51.557-20.631c-.602-7.539.23-14.904 2.445-21.653 2.214-6.749 5.766-12.743 10.442-17.621-4.235 7.675.651 19.189 1.119 28.698.782 16.166-2.675 31.406-8.927 45.079.225-11.384-4.108-23.014-5.08-34.503zm38.666-41.151c2.034 18.238 3.983 37.242-1.926 53.264-4.639 12.565-15.753 20.861-20.959 33.107l-.824-.906c1.526-31.465 8.241-60.535 23.709-85.465zm-73.832 90.339c13.377-5.09 27.995-7.895 42.963-5.847l2.714 2.956c-8.082 8.416-18.934 18.152-30.01 21.738-16.565 5.352-36.052-1.441-53.573.911 12.275-7.298 24.553-14.638 37.906-19.758zm18.887 24.202c11.346-8.596 24.947-15.054 39.39-16.926l1.888 3.445c-5.673 10.538-12.904 21.788-22.437 28.266-14.258 9.68-33.955 7.958-49.782 14.879 9.777-10.519 19.601-21.083 30.941-29.664zm48.111-12.933c8.71-10.576 17.33-21.303 24.278-33.353 6.948-12.049 12.195-25.558 13.681-40.259-21.138 17.888-34.581 44.019-38.022 73.909m18.062 19.348c-6.241 10.053-13.772 21.62-23.595 27.569-15.529 9.451-35.276 9.569-54.208 9.472 18.67-6.734 30.593-25.521 49.003-32.913 9.062-3.634 17.656-4.451 27.688-5.083" fill="#6F564F"/><path d="M46.131 423.274s.157.158.473.458l1.423 1.263 5.493 4.849c.592.532 1.225 1.085 1.89 1.686.69.608 1.439 1.131 2.226 1.556a59.33 59.33 0 005.483 2.715 50.056 50.056 0 016.254 3.058 42.56 42.56 0 016.415 4.771 46.87 46.87 0 016.079 6.543c1.978 2.458 4.017 5.004 6.118 7.639 2.075 2.678 4.43 5.272 6.75 8.024l3.572 4.153 3.79 4.142a393.545 393.545 0 0035.265 34.17 390.137 390.137 0 0038.787 29.151 379.176 379.176 0 0033.742 19.588c4.939 2.406 9.368 4.719 13.349 6.419 3.981 1.701 7.362 3.367 10.201 4.445l6.495 2.603 1.693.663c.374.145.57.202.57.202s-.183-.098-.566-.264l-1.671-.708-6.473-2.695c-2.821-1.11-6.202-2.752-10.166-4.532-3.964-1.779-8.392-4.068-13.317-6.491a389.295 389.295 0 01-33.634-19.63 395.662 395.662 0 01-38.714-29.131 396.897 396.897 0 01-35.237-34.084c-1.288-1.388-2.553-2.772-3.794-4.128-1.242-1.357-2.398-2.783-3.577-4.14-2.302-2.734-4.675-5.321-6.75-7.999-2.073-2.678-4.168-5.167-6.135-7.608a47.768 47.768 0 00-6.176-6.591 43.8 43.8 0 00-6.523-4.729 50.256 50.256 0 00-6.304-3.05 59.577 59.577 0 01-5.455-2.654 25.773 25.773 0 01-4.134-3.235l-5.542-4.77-1.45-1.228a4.036 4.036 0 00-.45-.431zm-6.081 76.888c.219-.049.427-.133.618-.248l1.72-.869a185.158 185.158 0 016.35-3.136c14.067-6.704 29.064-11.391 44.676-13.963 2.989-.503 5.418-.809 7.117-1.067l1.945-.276c.231-.015.454-.063.665-.144a3.155 3.155 0 00-.701.008l-1.962.16c-1.706.138-4.164.428-7.183.862-15.722 2.343-30.777 7.05-44.776 14.001-2.681 1.337-4.813 2.48-6.262 3.335l-1.66.981c-.2.087-.385.207-.548.356zm27.304 28.752a1.95 1.95 0 00.543-.292l1.49-.927c1.293-.81 3.136-2.02 5.41-3.543 4.542-3.032 10.747-7.322 17.506-12.211a571.816 571.816 0 0017.073-12.844 293.809 293.809 0 005.043-4.032l1.351-1.135c.164-.125.314-.268.449-.426a1.863 1.863 0 00-.518.321l-1.431 1.035-5.181 3.875c-4.374 3.282-10.42 7.8-17.149 12.677a1216.243 1216.243 0 01-17.391 12.363l-5.3 3.711-1.421 1.031c-.176.107-.335.24-.474.397z" fill="#B16668"/><path d="M149.662 445.702a1.72 1.72 0 00-.386.385l-1.023 1.211c-.883 1.058-2.099 2.642-3.546 4.637-7.579 10.438-13.626 22.133-17.976 34.769-.836 2.419-1.459 4.409-1.839 5.796l-.435 1.608c-.06.185-.1.379-.12.58a2.33 2.33 0 00.225-.521l.533-1.558c.456-1.417 1.118-3.322 1.991-5.731a156.936 156.936 0 017.904-18.068 151.25 151.25 0 0110.04-16.626 167.518 167.518 0 013.408-4.746l.932-1.288c.113-.137.211-.286.292-.448zm-24.813-26.439c-.149-.065-4.299 13.387-9.286 30.049-4.986 16.661-8.913 30.224-8.764 30.289.149.065 4.304-13.377 9.286-30.049 4.982-16.672 8.922-30.227 8.764-30.289zm-26.8 3.508c-.06.606-.07 1.225-.03 1.849.01 1.281.034 2.99.07 5.054.047 4.258.072 10.147-.05 16.62-.121 6.474-.403 12.313-.63 16.522l-.274 4.995a12.825 12.825 0 00-.043 1.842c.123-.586.203-1.188.242-1.799.13-1.156.283-2.849.43-4.972.327-4.199.654-10.032.785-16.509.13-6.477.051-12.392-.1-16.67a200.8 200.8 0 00-.24-5.084 14.217 14.217 0 00-.16-1.848zm-39.17 38.462c.43.218.878.383 1.331.49.842.291 2.064.685 3.575 1.131a224.02 224.02 0 0011.849 3.237 225.126 225.126 0 0011.908 2.589c1.528.29 2.762.492 3.612.629a6.84 6.84 0 001.327.141 5.575 5.575 0 00-1.283-.383l-3.604-.807a538.012 538.012 0 01-11.881-2.749c-4.64-1.135-8.788-2.259-11.847-3.063l-3.587-.963a7.28 7.28 0 00-1.4-.252zm39.12 75.927c.076.175 10.404-4.796 23.064-11.081 12.659-6.285 22.85-11.518 22.764-11.689-.087-.172-10.405 4.795-23.069 11.096-12.664 6.3-22.905 11.498-22.76 11.674z" fill="#B16668"/><path d="M143.011 510.583c9.735-5.286 20.986-11.777 27.412-21.026 10.137-14.694 12.231-34.575 14.081-53.591-7.999 18.122-26.242 28.262-34.797 46.036-4.218 8.764-5.823 17.325-7.403 27.345" fill="#6F564F"/><path d="M165.487 466.986c-.134-.098-5.669 9.509-12.363 21.465-6.695 11.957-12.021 21.733-11.887 21.831.133.099 5.673-9.522 12.367-21.479 6.695-11.957 12.016-21.718 11.883-21.817z" fill="#B16668"/><path d="M250.622 313.869l-34.793-100.43 12.689-3.169c2.206 5.127 7.505 9.059 13.718 12.628 3.11 1.787 6.518 3.519 9.982 5.281l.705.358c3.717 1.891 7.488 3.825 11.083 5.93 7.205 4.218 13.567 9.048 17.25 15.391 3.653 6.293 4.757 14.232 1.116 24.846-.501 1.458-1.021 2.376-1.474 2.905-.472.551-.749.549-.755.549l-.004-.001h-.001a.148.148 0 01-.03-.019.791.791 0 01-.198-.26c-.167-.313-.298-.835-.266-1.515h0c.104-2.292-.573-5.704-2.016-9.446a43.498 43.498 0 00-6.832-11.754c-6.276-7.661-16.098-13.904-29.857-12.387l-1.153.128.375 1.084 28.696 82.913.004.011.005.012c1.764 4.723 1.152 10.309-1.677 15.848-2.826 5.532-7.833 10.947-14.708 15.26l.606.827-.606-.827c-8.096 5.08-17.166 7.623-25.256 7.657-8.108.033-15.082-2.445-19.223-7.228-4.116-4.754-4.82-11.085-2.406-17.606 2.415-6.523 7.928-13.131 16.027-18.213 9.043-5.67 19.29-8.171 28.03-7.558l1.425.1-.456-1.315z" stroke="#000" stroke-width="2"/></svg>