<svg width="369" height="501" fill="none" xmlns="http://www.w3.org/2000/svg"><path d="M118.151 439.117a.696.696 0 00.397-.381c10.081-25.419 37.365-37.634 49.02-42.832 1.882-.839 3.368-1.512 4.347-2.033 4.409-2.352 7.195-6.355 7.431-10.727a11.685 11.685 0 00-1.273-5.805 11.333 11.333 0 00-3.941-4.363c-8.67-6.241-27.532 1.347-42.828 17.272-21.426 22.319-20.831 43.874-20.819 44.09a.683.683 0 00.31.56l6.762 4.207c.075.048.16.078.248.089a.516.516 0 00.346-.077zm14.132-47.966c14.862-15.468 32.919-22.992 41.13-17.12a10.066 10.066 0 013.513 3.868 10.4 10.4 0 011.144 5.156 12.232 12.232 0 01-2.15 5.716 11.815 11.815 0 01-4.612 3.892c-.941.509-2.477 1.157-4.273 1.996-11.691 5.223-38.914 17.374-49.416 42.831l-5.784-3.609c.025-2.86.954-22.42 20.448-42.73z" fill="#DDB3E3"/><path d="M114 436.779h-.086a.66.66 0 01-.396-.316.691.691 0 01-.063-.51c8.521-30.783 37.799-53.826 53.467-55.567a.639.639 0 01.645.345.69.69 0 01.073.252.69.69 0 01-.138.5.674.674 0 01-.198.171.67.67 0 01-.246.079c-15.482 1.728-44.277 25.419-52.327 54.537a.67.67 0 01-.27.4.645.645 0 01-.461.109z" fill="#DDB3E3"/><path d="M111.079 434.936a.665.665 0 01-.26-.102l-4.521-3.088a.696.696 0 01-.297-.559c0-.318-.136-32.245 17.934-69.574 9.202-19.064 26.355-35.015 40.784-38.052 6.935-1.462 12.917-.064 17.772 4.181 2.75 2.389 4.112 5.084 4.062 8.007-.148 8.084-10.948 16.815-22.392 26.068-8 6.482-16.274 13.167-21.116 19.84a.642.642 0 01-.686.255.622.622 0 01-.231-.116.659.659 0 01-.175-.196.682.682 0 01.039-.757c4.954-6.812 13.289-13.561 21.352-20.094 11.146-9.036 21.748-17.59 21.884-25.025 0-2.542-1.127-4.805-3.591-6.953-4.533-3.952-10.131-5.261-16.646-3.889-14.069 2.962-30.826 18.671-39.867 37.341-16.918 34.914-17.76 65.011-17.798 68.633l4.224 2.885a.7.7 0 01.185.941.689.689 0 01-.656.254z" fill="#DDB3E3"/><path d="M115.351 415.96a.668.668 0 01-.417-.299.702.702 0 01-.091-.514c10.218-48.437 47.063-78.305 56.624-82.436a.67.67 0 01.513.002.672.672 0 01.361.373.719.719 0 01-.002.526.69.69 0 01-.364.37c-9.388 4.08-45.738 33.567-55.844 81.483a.683.683 0 01-.294.406.65.65 0 01-.486.089z" fill="#DDB3E3"/><path d="M359.215 432.735c-1.66-20.082-.112-28.534-2.106-59.889-.235-8.045-.619-16.662-1.238-24.313-2.081-25.738-6.069-34.507-6.49-39.464 0 0 0-30.885-2.266-87.24-1.078-26.5-8.67-34.443-14.862-48.449l-75.859.864c-4.012 35.092-3.777 100.178-3.133 135.994.334 18.239 8.496 108.872 8.669 111.121.595 7.957 0 11.109-3.059 14.49-6.328 7.092-15.53 13.879-23.531 20.081 1.238 3.126 10.849 2.898 15.605.457a121.443 121.443 0 0017.698-11.807c6.539-5.084 14.924-9.151 14.936-16.739.033-.458.104-.913.211-1.36.074-4.435 9.611-62.938 10.28-78.101.569-13.04-1.239-35.13-1.239-35.13l6.775-44.928s4.297 23.373 9.685 45.589c4.396 18.086 12.125 41.942 17.079 64.21 4.818 25.648 11.666 43.874 12.967 56.723.384 3.076 4.136 33.186 5.623 40.074 1.486 6.889 16.224 6.902 17.041-4.982.533-7.931-2.477-33.427-2.786-37.201z" fill="#C8856A"/><path d="M221.804 464.077c-.396 0-1.015 4.588 1.239 6.545 2.563 2.25 10.081 5.949 20.001 4.627 9.921-1.322 15.296-4.449 19.259-7.842 3.963-3.394 9.537-8.185 14.02-9.202 4.174-.941 8.669-2.872 10.032-4.194 1.362-1.322 1.139-7.156 1.139-7.156l-65.69 17.222z" fill="#263238"/><path d="M283.976 424.321s.743 0 1.003 1.385c.31 1.614.644 6.355 1.301 8.897.916 3.673 1.535 11.21.99 14.21-.545 2.999-7.344 5.083-11.679 6.774a55.193 55.193 0 00-14.069 9.087c-4.657 3.928-14.466 7.868-20.931 7.969-9.908.153-16.274-2.542-18.255-6.202-2.477-4.487-.533-7.079 10.812-12.456 2.142-1.016 9.685-5.579 12.261-7.231a59.171 59.171 0 007.716-5.872 48.057 48.057 0 003.455-3.508 15.952 15.952 0 002.874-3.737c.124-.318.21-.673.322-.991.321-.88.569-1.785.743-2.707.186-.966.297-2.377 1.238-2.949a7.471 7.471 0 014.063-.496 30 30 0 014.371.636c1.672.381 3.605.534 4.595 2.135a8.674 8.674 0 01.942 4.194v2.034c0 .292-.124.813.272.686.396-.127.805-1.131.941-1.474.31-.75.52-1.564.855-2.313.38-.869.854-1.692 1.412-2.453a11.99 11.99 0 011.796-1.869 17.303 17.303 0 001.944-1.271 4.697 4.697 0 001.028-2.478z" fill="#37474F"/><path d="M231.315 454.926c14.304.991 18.813 10.003 19.419 15.582a33.217 33.217 0 01-10.143 2.186c-9.908.153-16.683-2.542-18.652-6.202-2.316-4.22-.755-7.639 9.376-11.566z" fill="#FAFAFA"/><path d="M252.753 455.066c.16 0 .314-.058.434-.166a.703.703 0 00.253-.48.732.732 0 00-.154-.524 16.805 16.805 0 00-5.918-4.031 16.457 16.457 0 00-7.012-1.167.7.7 0 00-.619.788.707.707 0 00.496.612c.088.026.18.034.272.024 2.156-.101 4.31.258 6.324 1.054a15.582 15.582 0 015.379 3.572.69.69 0 00.545.318zm6.142-3.673a.706.706 0 00.446-.153.703.703 0 00.253-.481.741.741 0 00-.154-.523 16.768 16.768 0 00-5.917-4.035 16.412 16.412 0 00-7.013-1.163.695.695 0 00-.642.498c-.028.093-.038.192-.028.29a.72.72 0 00.277.495.68.68 0 00.542.128 15.196 15.196 0 016.333 1.079 15.536 15.536 0 015.371 3.61.7.7 0 00.532.255zm5.712-4.182a.645.645 0 00.433-.165.713.713 0 00.227-.758.705.705 0 00-.128-.246 16.817 16.817 0 00-5.919-4.029 16.45 16.45 0 00-7.01-1.169.696.696 0 00-.466.264.74.74 0 00-.074.791.717.717 0 00.175.215.674.674 0 00.513.153c2.16-.093 4.315.274 6.33 1.079a15.594 15.594 0 015.374 3.598.683.683 0 00.545.267zm5.584-4.181a.66.66 0 00.434-.166.724.724 0 00.111-.991c-2.749-3.533-8.942-5.859-14.131-5.274a.66.66 0 00-.466.262.712.712 0 00-.141.526.702.702 0 00.496.611.66.66 0 00.272.024c4.669-.521 10.441 1.601 12.868 4.728a.707.707 0 00.557.28z" fill="#F0F0F0"/><path d="M340.39 480.345c.471 6.876 1.573 11.439 4.013 15.443 2.44 4.003 6.96 5.223 11.518 3.99 4.558-1.232 10.379-4.461 11.617-10.421 1.239-5.961 1.957-10.028.843-16.396l-27.991 7.384z" fill="#263238"/><path d="M358.967 430.282c1.883.127 2.477 9.367 3.716 18.607 1.238 9.901 4.223 13.98 5.362 22.089 1.239 9.278-.173 13.447-3.294 19.065-3.121 5.618-14.342 11.299-20.002 3.317-4.607-6.507-4.88-13.777-4.582-23.068.146-7.844-.144-15.69-.867-23.5-.459-6.953-2.044-13.981-.409-14.744.136 1.017.272 2.314.409 3.318.081 1.254.301 2.495.656 3.698.198.521.619 1.055.78.216a5.84 5.84 0 000-1.741c-.309-2.542.954-2.771 1.635-2.987a81.98 81.98 0 018.67-1.36c1.436-.114 6.403-.394 7.059.432.424.828.649 1.747.657 2.682.185 1.398.507 2.415.544 1.983.075-1.004-.136-3.61-.173-4.232-.037-.623-.136-1.424-.149-2.034-.012-.61.1-1.157-.012-1.741z" fill="#37474F"/><path d="M368.714 476.354a23.622 23.622 0 01-3.356 14.159c-3.134 5.656-15.259 11.324-20.919 3.343-2.811-3.966-3.616-8.694-4.05-13.511 3.27-6.24 22.999-9.202 28.325-3.991z" fill="#FAFAFA"/><path d="M344.379 470.19h.235c.075 0 8.744-3.813 17.253-1.919.18.038.368.002.523-.1a.72.72 0 00.212-.981.67.67 0 00-.438-.304c-8.992-2.021-17.835 1.855-18.169 2.021a.714.714 0 00-.349.409.742.742 0 00.027.544.7.7 0 00.706.33zm16.979-8.897a.705.705 0 00.364-.154.73.73 0 00.23-.329.743.743 0 00-.044-.544.711.711 0 00-.402-.358c-8.484-2.822-17.797 1.665-18.144 1.856a.71.71 0 00-.285.966.696.696 0 00.942.292c.074 0 9.164-4.398 17.054-1.767.09.037.188.05.285.038zm-.37-6.545a.685.685 0 00.407-.204.722.722 0 00-.246-1.169c-9.326-3.291-18.169 1.602-18.491 1.805a.707.707 0 00-.338.443.732.732 0 00.081.557.71.71 0 00.45.322.677.677 0 00.537-.114c.075 0 8.67-4.728 17.339-1.665a.791.791 0 00.261.025z" fill="#F0F0F0"/><path d="M360.454 448.393a.687.687 0 00.357-.149.71.71 0 00.225-.321.747.747 0 00-.029-.546.715.715 0 00-.392-.369c-8.744-3.216-18.256 1.792-18.578 2.02a.715.715 0 00-.317.431.732.732 0 00.069.535.695.695 0 00.966.255c.075 0 9.302-4.894 17.426-1.894a.65.65 0 00.273.038z" fill="#EBEBEB"/><path d="M340.193 173.558c8.669 15.671 9.041 28.52 10.44 75.381 1.4 46.861.26 50.839.496 56.47.235 5.63 3.591 15.709 6.737 43.518a295.019 295.019 0 01.669 54.042s-1.907 4.499-12.385 5.579c-9.611.991-14.416-2.644-14.416-2.644s-14.293-47.026-18.132-63.815c-3.839-16.79-13.921-62.557-13.921-62.557l-4.954 34.43s3.109 15.341.458 39.794a370.12 370.12 0 01-6.935 42.235 45.064 45.064 0 01-15.531 3.012 25.287 25.287 0 01-13.45-3.698s-8.385-65.265-8.67-92.947c-.285-27.682 1.796-94.306 4.025-127.555l85.569-1.245z" fill="#2E4C5B"/><path d="M310.754 313.81s4.075-6.152 14.218-7.525c10.144-1.372 15.506 4.207 15.506 4.207s-18.887-1.817-29.724 3.318zm30.963.762c-13.079 2.796-19.061 2.326-25.067 1.182-.05 0 18.788-2.656 24.98-1.182h.087zm-90.857-4.995l-.124-2.999c8.743-1.271 22.714 1.436 26.479 3.597a126.076 126.076 0 00-26.355-.598zm20.175 4.093c-5.846 1.678-19.816 2.542-19.816 2.542l-.174-2.809s9.995-.356 19.99.267z" fill="#C8856A"/><path d="M356.751 404.989c-.447.354-.919.673-1.412.953 2.155-43.785-3.939-61.858-7.691-78.571-.36-1.602-.706-3.127-1.016-4.576-2.836-13.065-1.845-20.882-2.056-42.399 0-6.482-.124-13.18-.26-20.336-.173-8.325-.52-16.929-1.238-25.419-14.962-1.653-18.38-16.676-22.69-35.651-.582-2.542-1.238-5.275-1.858-8.033l1.326-.33c.668 2.758 1.238 5.452 1.857 8.045 4.323 19.065 7.431 32.829 21.228 34.532-1.845-19.344-5.969-38.053-15.431-51.499l1.102-.814c14.069 20.005 16.534 51.246 17.104 79.169.136 7.118.198 13.816.26 20.336.21 21.441-.781 29.232 2.018 42.107.322 1.449.657 2.974 1.016 4.576 3.703 16.637 9.772 34.57 7.741 77.91zm-66.235-174.288l9.226 48.83-4.954 34.431-.495-33.045-6.193-32.931c-.185 3.279-.371 6.647-.557 10.079-1.573 28.317-2.477 50.051-.991 56.787 4.186 18.454 3.146 30.135 1.239 51.36a810.444 810.444 0 00-.595 6.761c-1.028 11.986-2.365 16.841-3.145 24.556-.434.114-.905.241-1.412.356.78-7.703 2.155-12.799 3.195-25.039.211-2.364.409-4.613.594-6.761 1.871-21.073 2.899-32.677-1.238-50.916-1.573-6.939-.694-27.389.954-57.193.297-5.402.594-10.638.854-15.633l-1.313-5.936c-6.551-1.525-17.091-6.507-19.11-15.696 10.23 10.6 23.941 9.99 23.941 9.99z" fill="#263238"/><path d="M274.984 82.785c-13.326 2.618-19.729 7.003-26.665 19.064-6.935 12.062-17.339 42.476-17.202 49.314h27.717l16.15-68.378z" fill="#C8856A"/><path d="M257.201 140.322c-5.908-1.627-10.267-2.784-13.364-2.708 2.477-1.69 13.624.267 13.624.267l-.26 2.441z" fill="#AF6152"/><path d="M275.641 81.908c-9.438.762-16.299 3.457-22.591 11.362-6.291 7.906-6.836 10.969-10.168 19.611-3.331 8.643-5.598 14.4-5.598 14.4s6.341 11.655 26.938 9.901l7.332-22.547 4.087-32.727z" fill="#F9FAF9"/><path d="M324.773 79.264s11.939 3.228 23.853 7.626c0 0 13.067 5.427 5.933 44.84-1.808 9.939-5.474 24.403-6.478 36.693-.569 6.978-.123 23.805.781 38.129 0 0-21.179 14.337-60.068 9.888-30.529-3.508-35.483-17.285-35.483-17.285s1.239-35.282 3.778-58.592c3.653-33.465 10.18-52.186 18.577-58.744l17.339-1.907 31.768-.648z" fill="#F9FAF9"/><path d="M338.446 53.908a64.127 64.127 0 01-11.011 15.455 7.495 7.495 0 01-5.09 2.542l2.96-11.87 2.267-8.186s-5.115-7.626-4.335-13.714c.272-2.28.86-4.51 1.746-6.621l-39.248-6.355s-1.313-10.905 5.549-17.654c6.564-6.47 14.862-9.647 27.68-5.91 15.642 4.575 22.07 14.502 21.699 21.48 2.395 1.716 4.068 4.3 4.681 7.231.78 3.33.644 9.011-6.898 23.602z" fill="#263238"/><path d="M334.57 64.89c-.401.181-.815.33-1.239.444a7.83 7.83 0 01-3.468.292 6.164 6.164 0 01-2.601-1.525 9.462 9.462 0 01-2.155-2.542l-.421 22.484c-10.577 13.243-46.419 9.608-31.643-3.635l-.434-8.122a34.594 34.594 0 01-5.053-1.728 14.21 14.21 0 01-6.532-5.07 14.784 14.784 0 01-2.707-7.932c-.372-9.316 5.585-28.05 9.276-38.13a11.098 11.098 0 012.598-4.017 10.738 10.738 0 014.016-2.503c7.072-1.766 11.889 4.284 19.927 9.914 3.319 2.339 12.051 5.084 14.639 4.461a12.215 12.215 0 00-3.938 6.99c-.4 1.992-.455 4.04-.161 6.05.434 1.78.703 3.596.805 5.427a4.29 4.29 0 00.384 2.453 2.32 2.32 0 001.343.746 2.288 2.288 0 001.505-.263 12.12 12.12 0 002.477-1.931 7.043 7.043 0 013.716-1.742 6.378 6.378 0 013.71 1.05 6.628 6.628 0 012.482 3.017 11.277 11.277 0 01.075 7.906 13.018 13.018 0 01-2.489 4.666 12.621 12.621 0 01-4.112 3.24z" fill="#C8856A"/><path d="M292.594 72.261c6.936 1.576 13.29 2.123 17.773 1.27 4.483-.85 9.388-5.731 11.84-11.146-1.016 4.589-4.756 12.253-11.716 14.185-6.961 1.931-13.128.495-17.686-.458l-.211-3.851z" fill="#AF6152"/><path d="M310.665 29.302l4.422 4.919a3.595 3.595 0 001.042-2.411 3.603 3.603 0 00-.869-2.482 3.155 3.155 0 00-1.042-.758 3.09 3.09 0 00-2.502-.014 3.16 3.16 0 00-1.051.746zM287.566 27.7l6.564.293a3.3 3.3 0 00-.123-1.3 3.232 3.232 0 00-.617-1.144 3.139 3.139 0 00-1.01-.796 3.069 3.069 0 00-1.235-.319 3.44 3.44 0 00-2.421.905 3.621 3.621 0 00-1.158 2.362zm23.855 11.783c-.159.51-.463.961-.872 1.296a2.596 2.596 0 01-2.927.257 2.69 2.69 0 01-1.074-1.126 2.784 2.784 0 01.312-2.997 2.644 2.644 0 011.28-.868 2.587 2.587 0 012.449.517 2.779 2.779 0 01.832 2.92zm-18.923-5.898c-.162.51-.467.959-.876 1.29a2.595 2.595 0 01-2.925.248 2.688 2.688 0 01-1.07-1.125 2.778 2.778 0 01.313-2.995 2.65 2.65 0 011.279-.867 2.587 2.587 0 012.45.518 2.76 2.76 0 01.946 1.866 2.8 2.8 0 01-.117 1.065z" fill="#263238"/><path d="M301.488 32.975l-5.796 16.523-8.558-5.847a39.98 39.98 0 0114.354-10.676zM295.654 56.5l.074-.075a.645.645 0 01.372-.09c1.031.075 2.065.075 3.096 0a8.881 8.881 0 002.589-.736c.702-.48 1.439-.905 2.204-1.271a.328.328 0 01.382.17.344.344 0 01.039.147c-.074.8-1.238 1.411-1.882 1.754a7.303 7.303 0 01-2.477.788c-.921.12-1.854.12-2.775 0-.467-.053-.93-.137-1.387-.254-.21-.14-.334-.292-.235-.432z" fill="#AF6152"/><path d="M329.863 177.676c-1.35 0-2.687 0-4.025.076a97.186 97.186 0 01-10.366-.305 68.598 68.598 0 01-6.428-.864c-1.94-.275-3.857-.7-5.734-1.271-3.716-1.36-7.345-2.911-10.949-4.461-3.604-1.551-8.298-1.792-12.063-2.123-8.855-.75-16.757-.724-25.55-2.097a53.105 53.105 0 01-14.862-4.576 19.535 19.535 0 01-7.518-6.736c-2.353-3.813-1.102-6.355 2.18-8.655 2.811-1.995 10.998-6.177 22.689-6.355 5.586 1.5 12.125 3.749 18.318 5.821 5.808 1.957 10.217 3.559 16.1 5.084a21.37 21.37 0 007.79.229c2.478-.356 4.595-1.144 6.973-1.538a54.83 54.83 0 019.19-1.411c5.276 0 10.676 1.741 14.255 2.237 3.579.496 3.344 2.542.644 4.054a8.997 8.997 0 01-4.458.649c-1.697 0-3.394-.127-5.091 0-.396 0-1.176 0-1.387.394-.21.394.335.94.706 1.118 2.118 1.004 4.471.725 6.738.712h10.415c1.4.089 2.837.305 3.617 1.639.256.394.382.862.359 1.335 0 .394-.223.724.211 1.017a2.82 2.82 0 001.139.305c.418.092.809.285 1.139.564.33.279.591.635.759 1.038a2.8 2.8 0 01-.177 2.516c-.37.533-.858.968-1.424 1.271a2.483 2.483 0 00-.768.559 2.57 2.57 0 00-.346.724 4.41 4.41 0 01-1.239 1.703 7.186 7.186 0 01-3.443 1.399 44.2 44.2 0 01-3.146.432c-1.424.165-2.848.394-4.285.584l-1.845.216-.929.102a2.892 2.892 0 00-.88.14c.174.178.892.102 1.152.114l1.325.089c.843.064 1.685.153 2.477.293a5.33 5.33 0 011.66.533c.455.201.828.559 1.054 1.011.226.452.291.971.184 1.468a1.258 1.258 0 01-.395.458 1.222 1.222 0 01-.558.215c-.368.08-.74.135-1.115.166-.594.127-1.35.127-2.093.127z" fill="#C8856A"/><path d="M306.257 164.14a56.33 56.33 0 01-5.239-12.977c1.833-.394 3.554-.94 5.412-1.271a54.83 54.83 0 019.19-1.411c5.276 0 10.676 1.742 14.255 2.237 3.579.496 3.344 2.542.644 4.055a8.999 8.999 0 01-4.459.648c-1.696 0-3.393-.127-5.09 0-.396 0-1.177 0-1.387.394-.211.394.334.94.706 1.118 2.118 1.004 4.471.725 6.737.712h10.416c1.4.089 2.836.305 3.617 1.64.256.393.382.861.359 1.334 0 .331-.149.623.074.877-.54.349-1 .813-1.35 1.36l-2.378 4.182c1.992.222 4.004.171 5.982-.153a5.12 5.12 0 01-.681.483c-.27.132-.516.308-.731.521a34.244 34.244 0 00-4.446 1.271 12.638 12.638 0 00-3.431 2.974h-.322c-1.424.165-2.848.394-4.285.585l-1.845.216-.929.102a2.915 2.915 0 00-.879.139c.173.178.891.102 1.151.115l1.326.089c.842.063 1.684.152 2.477.292.422.075.836.19 1.238.343-4.186 3.317-10.032 4.893-14.936 2.606a14.846 14.846 0 01-1.809-.992c-4.161-2.694-6.972-7.143-9.387-11.489z" fill="#AF6152"/><path d="M322.42 176.24c4.954-.445 9.375-.852 16.509-12.609 5.536-9.1 8.446-15.086 13.896-27.821 5.449-12.735 9.499-21.607 8.991-29.716-.408-6.621-2.056-13.802-13.375-18.289-6.812 4.449-16.2 17.006-20.547 28.356-4.347 11.349-12.038 32.549-12.038 32.549l6.564 27.53z" fill="#C8856A"/><path d="M348.626 87.297c11.791 4.944 16.101 14.107 12.819 27.707-3.654 15.252-13.624 35.587-13.624 35.587s-6.663.318-15.048-5.249c-5.108-3.474-9.116-8.404-11.53-14.184 0 0 4.198-12.1 6.477-18.544 4.496-12.747 12.398-23.246 20.906-25.317z" fill="#F9FAF9"/><path d="M334.371 151.201c-.347-13.701-6.428-22.039-11.072-32.295-4.645-10.257-7.196-16.434-8.905-22.649-1.709-6.215-2.588-15.252-1.759-19.853a67.36 67.36 0 012.911-10.307c.842-2.288-.062-2.542-2.18-2.44-2.118.101-4.397 1.13-6.366 5.083-1.969 3.953-2.477 6.355-3.406 6.165-.929-.191-5.536-5.707-8.223-8.3-2.688-2.593-3.716-2.669-7.877-3.19a28.788 28.788 0 00-9.983.229c-1.709.546-4.223 3.025-5.251 3.813-1.436 1.144.991 3.24 3.716 2.25l2.675-.98c-1.053.84-.979 1.996-1.14 3.432a4.012 4.012 0 00.83 2.682s-.991.305-1.362 2.123a6.957 6.957 0 00.124 3.291 1.491 1.491 0 00-.894.167 1.547 1.547 0 00-.642.66c-.607 1.016-1.412 2.656 2.155 5.986 3.567 3.33 6.193 5.567 9.264 8.172a24.614 24.614 0 015.301 5.72c1.87 2.796 2.477 7.511 3.629 15.099 2.65 16.827 3.158 21.009 5.969 31.291 2.13 7.817 4.632 15.913 12.918 24.67 7.307 7.727 12.162 3.279 15.023-2.263a46.618 46.618 0 004.545-18.556z" fill="#C8856A"/><path d="M334.37 151.201c.31-12.71-6.811-23.602-11.666-34.735a186.53 186.53 0 01-6.812-17.082 56.824 56.824 0 01-2.749-22.535 66.262 66.262 0 013.083-11.02c1.239-3.685-3.913-2.973-5.771-1.893-3.517 2.072-4.521 6.355-6.193 9.787-.136.292-.445.851-.569.775-3.604-2.91-6.341-7.08-10.206-9.812a9.774 9.774 0 00-4.421-1.27c-3-.422-6.036-.507-9.053-.255-3.221 0-5.512 2.402-7.741 4.436 2.304-1.907 4.607-4.207 7.765-4.106 2.99-.16 5.988.01 8.942.509a9.503 9.503 0 014.149 1.27c3.852 2.822 6.403 7.105 10.193 10.092 1.524.661 2.217-2.338 2.774-3.304 1.239-2.631 2.316-5.72 4.88-7.169a6.233 6.233 0 013.988-.584c.607.152.322.686.223 1.194-1.796 5.084-3.641 10.422-3.443 15.9 0 12.57 4.954 24.339 10.143 35.473 5.19 11.134 12.274 21.607 12.497 34.317l-.013.012z" fill="#AF6152"/><path d="M289.375 70.355c-3.146-1.792-7.431-4.068-10.775-1.526a8.014 8.014 0 015.338.077c1.598.47 3.827 1.08 5.437 1.449zm-2.922 6.914a12.371 12.371 0 00-8.162-2.313 55.4 55.4 0 008.162 2.313zm-2.291 6.698a49.378 49.378 0 00-7.109-3.61 11.042 11.042 0 007.109 3.61z" fill="#AF6152"/><path d="M98.068 91.692c10.766 1.815 14.524 3.976 23.384 14.415 6.663 7.825 23.929 30.628 23.929 30.628s5.682 29.865-.836 30.338a14.378 14.378 0 01-10.275-3.232c-9.95-8.515-27.233-28.359-27.233-28.359l-8.97-43.79z" fill="#C8856A"/><path d="M144.346 135.355c-3.722 3.813-8.424 21.442-8.424 21.442a23.892 23.892 0 01-.727-13.907 35.541 35.541 0 016.064-11.583l3.087 4.048zm58.152-24.818c1.144-2.469 4.848-1.634 6.572-3.341a1.928 1.928 0 00.569-1.863 1.931 1.931 0 00-1.349-1.405 12.414 12.414 0 00-4.775 0 13.146 13.146 0 01-5.32-1.144c-3.631-1.452-7.988-2.469-11.347.109.86.307 1.682.709 2.451 1.199a1095.35 1095.35 0 0113.199 6.445z" fill="#AF6152"/><path d="M216.641 109.03l-1.326.635-1.706.835a6.86 6.86 0 00-.799.436c-.127 0-.654.563-.763.527a13.845 13.845 0 00-5.446-.69c-2.306.381-2.778.835-5.973-1.434-2.143-1.526-4.757-4.303-7.589-5.61-2.833-1.308-5.719-2.052-8.697.708-2.977 2.759-4.466 4.629-7.643 7.262a202.477 202.477 0 01-16.467 12.218c-9.078 6.409-16.739 10.331-22.331 19.735-2.251 3.795-6.482 17.683-3.631 20.189 4.048 3.54 13.562 6.082 23.093-2.669a135.865 135.865 0 0012.273-12.709c3.867-4.448 5.447-6.753 10.984-13.217 5.538-6.463 8.679-9.767 11.928-11.674 2.778-1.634 6.5-1.361 9.078-1.252a24.723 24.723 0 009.695-1.162c3.214-.835 5.265-1.816 7.462-2.433a27.559 27.559 0 006.1-3.631l3.631-2.197a3.028 3.028 0 001.053-.853c.127-.236-.145-.763-.236-1.035a1.944 1.944 0 00-.49-.654 5.134 5.134 0 001.362-.345c.386-.136.78-.251 1.18-.345.29 0 .617-.254.617-.562a.763.763 0 00-.218-.491 3.742 3.742 0 00-1.924-1.18 11.594 11.594 0 00-3.069 0 .964.964 0 01-.453 0 2.091 2.091 0 01-.491-.327 2.417 2.417 0 00-1.815-.29c-1.09.284-2.163.63-3.214 1.035-.653.2-1.325.29-1.979.472-.751.172-1.486.409-2.196.708z" fill="#C8856A"/><path d="M209.071 112.643a6.847 6.847 0 01-3.086-.309 9.808 9.808 0 01-2.379-1.216 7.531 7.531 0 01-2.414-1.071c-1.653-1.144-3.45-2.76-5.32-4.176a9.08 9.08 0 00-5.229-.418c-.871.241-1.707.595-2.487 1.053a25.27 25.27 0 00-2.306 1.979 7.854 7.854 0 011.816-2.287 7.74 7.74 0 012.651-1.398 7.258 7.258 0 015.21.853c-3.522-2.614-7.262-4.448-11.238-1.216 2.869-3.232 7.425-2.088 10.639 0 3.213 2.087 5.574 5.337 9.187 6.191.922-.021 1.84-.131 2.741-.327a13.968 13.968 0 015.102.78l.236-.181a22.676 22.676 0 018.006-3.195c1.816-.291 3.795-1.816 5.447-.654-1.816-.908-3.631.508-5.447.926a23.124 23.124 0 00-7.916 3.486.922.922 0 01-.58.181 13.165 13.165 0 00-4.703-.762c-.947.179-1.905.294-2.868.345l.399.145 1.434.508c1.015.33 2.053.585 3.105.763zm7.135.926a2.83 2.83 0 001.108 0c.261-.104.505-.244.726-.418a6.737 6.737 0 013.413-1.053 2.6 2.6 0 00.835 0c.263-.11.513-.25.744-.417a8.726 8.726 0 012.923-1.072 3.69 3.69 0 01.781-.127c.144-.026.292-.026.436 0a7.973 7.973 0 00-2.578.672c-.733.394-1.432.85-2.088 1.362h-.272a10.2 10.2 0 00-1.271.109c-.424.077-.842.18-1.253.308a7.686 7.686 0 00-2.288 1.126l-.217.163h-.164a8.012 8.012 0 00-.98-.218 6.19 6.19 0 00-1.017-.09h-1.035l-1.053.163a5.154 5.154 0 013.25-.508zm9.296-5.883c.199 0 .435 0 .617-.109-.636.259-1.244.582-1.816.963a2.699 2.699 0 01-.399.199l-.436.127c-.761.141-1.504.367-2.215.672a6.921 6.921 0 00-1.979 1.489l-.163.181h-.254a6.36 6.36 0 00-1.362-.236 9.296 9.296 0 00-1.416 0c-.487.022-.971.07-1.452.146-.489.07-.974.167-1.453.29a8.232 8.232 0 013.631-.799c.4 0 .799 0 1.198.091.4.091.763.164 1.017 0l.109-.109a4.316 4.316 0 012.142-1.47c.799-.255 1.653-.255 2.433-.563.4-.145.745-.363 1.126-.545.217-.122.441-.231.672-.327z" fill="#AF6152"/><path d="M89.155 418.234l-2.379-23.856 29.576-2.851s-1.344 18.827-1.253 27.451c0 4.067 2.85 11.746 2.85 11.746s-11.71 5.937-17.719 3.414c-6.01-2.524-9.931-12.092-9.768-13.835l-1.307-2.069z" fill="#C8856A"/><path d="M151.516 459.918c.4 0 .563 3.831-1.815 5.61a29.451 29.451 0 01-21.115 3.995c-9.931-1.816-15.178-5.175-18.972-8.697-3.795-3.522-9.078-8.478-13.617-9.713a32.347 32.347 0 01-10.893-6.173c-1.27-1.343-.744-7.026-.744-7.026l67.156 22.004z" fill="#263238"/><path d="M88.937 416.037s-.545.254-.89 1.561-.998 6.082-1.816 8.624a45.28 45.28 0 00-1.815 13.744c.381 2.941 8.152 6.899 12.436 8.787a55.438 55.438 0 0113.653 9.604c4.485 4.067 14.125 8.587 20.661 8.914 7.698.363 16.539-1.616 18.736-5.011 2.705-4.23 4.793-9.186-6.336-15.032-2.106-1.108-9.441-5.973-11.946-7.716-6.754-4.739-11.438-8.987-14.216-16.867a4.373 4.373 0 00-1.507-2.432 3.627 3.627 0 00-2.215-.327c-3.82.209-7.619.707-11.365 1.489-1.579.635-3.794 1.343-3.885 3.286.008.672.118 1.339.327 1.979.109.417.181.944-.182 1.162-.363.217-.762 0-1.053-.364a31.163 31.163 0 01-2.868-3.812 31.295 31.295 0 00-2.742-3.45 18.582 18.582 0 01-1.815-1.361 4.431 4.431 0 01-1.162-2.778z" fill="#455A64"/><path d="M110.541 458.266a76.8 76.8 0 00-5.955-4.938s12.963 8.787 18.609 5.447c3.631-2.161 2.142-5.12 2.124-6.028-.018-.908 12.709-6.681 16.122-6.899.908.563 1.67 1.053 2.161 1.289 8.732 4.012 9.658 8.606 7.824 14.216-2.178 3.413-10.148 6.608-20.116 6.064-6.517-.364-16.285-5.084-20.769-9.151z" fill="#37474F"/><path d="M124.52 450.024c6.953 3.195 3.849 4.339 1.815 4.502-2.033.164-13.562-7.371-20.533-13.471-7.263-6.354-12.71-14.633-15.433-16.975a46.041 46.041 0 01-3.031-2.923c.272-1.525.508-2.923.69-3.631.344-1.307.89-1.562.89-1.562a8.58 8.58 0 001.125 2.778c.577.491 1.183.945 1.815 1.362a31.378 31.378 0 012.742 3.449 31.174 31.174 0 002.868 3.813c5.846 8.097 20.116 19.535 27.052 22.658z" fill="#37474F"/><path d="M125.919 453.473a.725.725 0 01-.435-.181.699.699 0 01-.205-.491.689.689 0 01.205-.49c2.16-2.305 12-7.516 17.193-6.663a.696.696 0 01.459.277.694.694 0 01.122.522.675.675 0 01-.799.563c-4.866-.781-14.234 4.412-15.94 6.227a.71.71 0 01-.6.236zm-5.993-4.103a.779.779 0 01-.436-.181.678.678 0 01-.157-.758.684.684 0 01.157-.223c2.142-2.306 11.983-7.516 17.193-6.663a.704.704 0 01.453.282.682.682 0 01-.414 1.079.688.688 0 01-.275.001c-4.847-.781-14.215 4.412-15.922 6.227a.754.754 0 01-.599.236zm-5.99-3.903a.78.78 0 01-.436-.182.67.67 0 010-.98c2.142-2.306 11.982-7.535 17.193-6.663a.709.709 0 01.581.799.695.695 0 01-.542.562.67.67 0 01-.275 0c-4.866-.78-14.216 4.412-15.922 6.228a.774.774 0 01-.599.236zm-5.502-4.394a.712.712 0 01-.454-.181.712.712 0 010-.981c2.143-2.306 12.019-7.516 17.194-6.663a.713.713 0 01.671.525.7.7 0 01-.32.79.694.694 0 01-.587.065c-4.848-.781-14.216 4.394-15.923 6.227a.631.631 0 01-.581.218zm-5.41-4.375a.67.67 0 01-.417-.182.678.678 0 01-.205-.49.697.697 0 01.205-.49c2.959-3.268 13.199-7.498 18.391-6.645a.693.693 0 01.581.781.725.725 0 01-.817.58c-4.666-.762-14.524 3.305-17.102 6.21a.711.711 0 01-.636.236z" fill="#263238"/><path d="M38.5 431.596l6.318-29.412-29.048-4.139-.164 29.048s-2.142 7.825-.472 10.476c1.67 2.651 19.063 5.247 20.643 3.45 1.58-1.798 2.723-9.423 2.723-9.423z" fill="#C8856A"/><path d="M36.086 477.856c-.708 6.59-2.033 10.893-4.848 14.524-2.814 3.631-7.879 4.267-12.908 2.578-5.029-1.688-11.438-5.446-12.709-11.347a32.225 32.225 0 01.618-15.795l29.847 10.04z" fill="#263238"/><path d="M15.68 426.93c-2.107 0-1.49 5.102-2.38 13.98-.98 9.604-5.228 17.175-6.699 24.891-1.67 8.823-1.289 12.872 2.052 18.682 3.34 5.809 15.668 12.49 22.15 5.446 5.3-5.773 5.773-12.709 5.664-21.786a205.413 205.413 0 01.418-22.822c.671-6.663 3.413-12.835 1.615-13.798-.181.981-1.815 7.735-3.068 7.644a13.01 13.01 0 010-2.524 2.81 2.81 0 00-.49-2.233 9.646 9.646 0 00-3.377-1.67c-2.052-.581-5.7-1.307-7.789-1.689a36.691 36.691 0 00-3.14-.472 9.395 9.395 0 00-2.67 0 1.636 1.636 0 00-1.161.781 2.708 2.708 0 00-.145 1.017 6.692 6.692 0 01-.345 1.815c0 .254-.29.563-.6.472a.561.561 0 01-.308-.581c.09-.98.2-6.499.272-7.153z" fill="#455A64"/><path d="M7.182 463.386c-.255 1.271-1.816 9.677.744 11.511 2.56 1.833 4.611-4.576 4.611-4.576s6.754-1.071 16.34 3.759c-.544 1.325.781 6.063 3.486 5.446s4.103-10.367 4.121-10.494c0 8.624-.526 15.378-5.664 20.988-6.482 7.08-18.827.399-22.15-5.447-3.322-5.846-3.721-9.858-2.051-18.682.145-.835.345-1.724.563-2.505z" fill="#37474F"/><path d="M13.281 470.993c-.181 3.232-3.74 1.816-3.722-2.85.019-4.666 2.324-15.759 3.16-23.275.49-10.803.853-17.938 2.959-17.865v.327c0 .108-.146 6.154-.164 6.862-.308 6.591-.272 19.408-1.162 25.418a92.047 92.047 0 00-1.07 11.383zm14.417 2.869a89.257 89.257 0 002.45-11.148c.945-5.9 4.358-17.737 6.047-24.11.562-1.053 2.269-7.008 2.269-7.008 1.452.399 0 6.064-.581 8.733-.581 2.669-1.47 5.446-2.27 9.295-2.105 7.517-2.196 18.737-3.63 23.076-1.435 4.339-5.048 4.266-4.285 1.162z" fill="#37474F"/><path d="M29.059 474.37a.84.84 0 01-.272-.109 28.562 28.562 0 00-16.068-3.25.867.867 0 01-.944-.599.618.618 0 01.581-.762 29.97 29.97 0 0117.193 3.467.683.683 0 01.362.416.673.673 0 01-.071.547.786.786 0 01-.781.29zm2.033-6.845l-.272-.09a35.581 35.581 0 00-17.992-3.631.855.855 0 01-.908-.618.653.653 0 01.618-.762 36.617 36.617 0 0119.008 3.849.661.661 0 01.374.399.672.672 0 01-.047.545.744.744 0 01-.78.308zm-17.484-10.33a.902.902 0 01-.654-.545.631.631 0 01.268-.724.645.645 0 01.259-.093c9.495-1.815 18.609 3.45 18.99 3.631a.674.674 0 01.29.963.8.8 0 01-1.053.163s-8.95-5.12-17.773-3.449l-.327.054zm.782-6.245a.819.819 0 01-.635-.527.618.618 0 01.508-.817 27.797 27.797 0 0119.372 3.631.674.674 0 01.324.709.666.666 0 01-.106.253.793.793 0 01-1.072.127 26.439 26.439 0 00-18.046-3.413l-.345.037zm.908-6.99a.924.924 0 01-.635-.527.636.636 0 01.49-.835c9.804-2.142 19.117 3.631 19.517 3.885a.656.656 0 01.236.963.782.782 0 01-1.071.127c-.091 0-9.078-5.628-18.156-3.631a.847.847 0 01-.38.018z" fill="#263238"/><path d="M33.326 172.428c-3.795 17.811-9.205 27.833-10.04 73.003-.835 45.171-.708 57.843-.89 63.29-.181 5.446-3.34 15.196-6.136 42.029a459.038 459.038 0 00-1.344 58.097s3.777 5.066 14.034 5.973a23.763 23.763 0 0015.233-3.322s11.91-51.634 15.504-67.792c3.595-16.158 14.016-69.281 14.016-69.281l6.191 43.101s-2.886 14.815 0 38.344c2.887 23.529 7.462 47.349 7.462 47.349s3.994 3.304 15.051 2.669a37.624 37.624 0 0013.707-3.322s7.099-70.026 7.099-96.696-2.669-92.937-6.609-133.369l-83.278-.073z" fill="#455A64"/><path d="M109.904 211.426c-4.012 11.002-18.663 18.718-25.09 20.261l-7.553 42.085 2.632 43.681-6.19-43.028 8.46-51.361s17.828-1.289 27.741-11.638zm-61.02-5.446c-1.053 4.32-1.997 8.678-3.014 13.035-1.016 4.357-1.997 8.715-3.086 13.108-.044-4.519.26-9.035.908-13.507a132.52 132.52 0 012.432-13.29 119.636 119.636 0 013.868-12.981 62.506 62.506 0 015.791-12.255 218.459 218.459 0 00-3.631 12.908c-1.071 4.303-2.251 8.806-3.268 13.054v-.072zm-7.57-8.334c-1.453 2.596-2.833 5.247-4.23 7.898l-4.104 8.079a37.006 37.006 0 012.07-8.969 59.727 59.727 0 013.758-8.369 68.88 68.88 0 014.974-7.716 47.154 47.154 0 016.1-6.845c-1.343 2.778-2.795 5.447-4.248 8.043a417.058 417.058 0 00-4.32 7.952v-.073zm6.699 121.804c2.578-13.816 4.411-27.795 6.209-41.757 1.797-13.961 3.522-27.995 5.446-41.975-.853 14.088-1.815 28.177-3.268 42.229-1.452 14.053-3.068 28.087-5.61 42.03-2.541 13.943-5.446 27.705-8.351 41.521-2.905 13.816-5.9 27.578-9.078 41.34a1667.095 1667.095 0 016.954-41.757c2.414-13.853 5.047-27.76 7.698-41.558v-.073zm64.197-46.84l-2.306-36.801a572.074 572.074 0 014.503 36.619c1.107 12.273 2.16 24.492 2.197 36.928-.418 12.364-1.362 24.582-2.361 36.855-.998 12.273-2.233 24.492-3.631 36.711.339-12.31.829-24.595 1.471-36.856l.944-18.446c.309-6.118.69-12.273.817-18.355.127-6.082-.272-12.2-.545-18.318-.272-6.119-.744-12.255-1.089-18.337z" fill="#37474F"/><path d="M26.3 108.34a25.76 25.76 0 0025.762-25.762V18.29h-4.266A21.496 21.496 0 0026.3 39.785v68.555z" fill="#D8A85F"/><path d="M39.007 26.387a15.39 15.39 0 00-.69 3.268 8.602 8.602 0 000 2.16 7.262 7.262 0 007.063 5.846 11 11 0 008.496-4.557c2.76-3.522 6.863-11.819 1.507-14.76a10.894 10.894 0 00-11.365.926 14.07 14.07 0 00-5.011 7.117z" fill="#BA68C8"/><path opacity=".25" d="M39.007 26.387a15.39 15.39 0 00-.69 3.268 8.602 8.602 0 000 2.16 7.262 7.262 0 007.063 5.846 11 11 0 008.496-4.557c2.76-3.522 6.863-11.819 1.507-14.76a10.894 10.894 0 00-11.365.926 14.07 14.07 0 00-5.011 7.117z" fill="#000"/><path d="M25.882 202.348c2.778-14.034 6.481-32.207 6.681-38.943.454-14.143-2.923-24.855-4.121-32.788-2.578-17.266-.672-32.535 3.34-35.93 0 0 11.71-2.705 15.56-3.395 3.032-.545 5.446-.908 9.386-1.816a56.391 56.391 0 0120.624-1.325c1.816.182 6.518 1.434 11.838 2.215l8.95 1.38s3.795 2.342 9.532 12.6c4.375 7.825 6.663 9.313 8.46 26.979 2.469 24.455 2.415 56.862 3.341 69.898-17.738 10.82-70.824 14.433-93.591 1.125z" fill="#D7AFDD"/><path d="M100.519 57.886l2.106-.653c9.458-5.066 9.077-17.411 6.681-23.838-5.12-14.361-20.643-19.735-30.247-20.262-18.155-.998-27.088 3.632-29.049 13.145-2.45-.218-5.846 1.815-7.897 4.557-4.466 6.1-7.789 24.346 15.813 46.732l42.593-19.68z" fill="#D8A85F"/><path d="M52.714 70.831a9.695 9.695 0 01-8.86-4.157c-3.63-5.447-3.449-10.549-1.27-13.744a6.862 6.862 0 018.968-1.943c3.032 2.07 2.887 3.631 3.105 6.173.218 2.542 5.646 2.251 7.099-6.627 1.343-8.26 1.815-16.34 6.064-19.97 6.3-5.447 14.16-3.523 16.467-.11 2.632-3.794 7.915-4.048 11.964-1.652 3.359 1.961 6.245 6.046 5.9 15.324.078 2.218.284 4.431.618 6.626 1.615 18.156-2.342 25-6.918 28.885-2.632 2.252-6.517 3.632-12.563 3.74l.218 7.1s8.17 15.449 7.607 29.229c0 0-3.34-2.305-18.319-15.414-10.003-8.732-16.34-13.888-16.34-13.888L57 67.327a5.955 5.955 0 01-4.285 3.504z" fill="#C8856A"/><path d="M99.466 43.398l-6.01-2.033a3.032 3.032 0 013.922-2.052 3.34 3.34 0 012.088 4.085zm-21.368-1.833l-6.082 3.014a3.25 3.25 0 011.416-4.521 3.631 3.631 0 014.666 1.507zm-3.742 7.825a2.596 2.596 0 105.192 0 2.596 2.596 0 00-5.192 0zm18.7-.454a2.596 2.596 0 105.192 0 2.596 2.596 0 00-5.192 0z" fill="#263238"/><path d="M69.275 31.652c-1.417 1.815-2.451 4.775-2.234 11.256A27.232 27.232 0 0164.21 53.91c-1.58 3.286-3.213 5.247-6.717 5.865a12.71 12.71 0 01-6.318-.654c-1.235-.563-4.72-3.032-4.303-6.627a7.588 7.588 0 002.56 1.816 7.93 7.93 0 002.306.563 7.117 7.117 0 005.973-3.305c2.342-3.486 2.196-8.188 2.904-12.182.926-5.084 1.816-9.368 6.391-11.892 5.447-2.977 16.104-2.541 17.284 2.996a10.766 10.766 0 00-15.014 1.162z" fill="#D8A85F"/><path d="M83.978 46.34l.672 15.885 8.805-2.687-9.477-13.198zm-5.936 20.098a4.248 4.248 0 012.07-.418c.726.027 1.45.118 2.16.272A6.336 6.336 0 0185.45 68c.174.148.31.334.4.544.09.454-.327.436-.636.31l-.617-.328c-.309-.145-.654-.236-.962-.38a9.242 9.242 0 00-1.816-.618 10.897 10.897 0 00-1.815-.254h-.98c-.346 0-.8 0-1-.327a.418.418 0 01.019-.508zm5.248 16.957a31.572 31.572 0 01-15.868-3.632c-4.302-2.215-5.446-6.082-7.552-10.13 0 0 .726 8.424 5.955 12.545 7.37 5.81 17.556 4.83 17.556 4.83l-.091-3.613z" fill="#AF6152"/><path d="M31.729 94.687c-11.13 1.816-14.87 5.302-19.48 17.357C7.8 123.699-2.495 149.934.555 167.545c1.816 10.748 29.049-16.25 29.049-16.25l12.98-29.92s-1.45-26.688-10.854-26.688z" fill="#C8856A"/><path d="M39.264 103.111a79.196 79.196 0 013.25 18.264l-13 29.92s-3.903 3.886-8.841 8.134l-18.392-9.55c.255-4.575 10.767-17.919 17.266-24.745 4.793-5.029 14.706-16.703 19.717-22.023z" fill="#AF6152"/><path d="M34.834 109.447a33.965 33.965 0 006.1-11.855c1.253-5.029 5.21-9.659 6.572-11.565 1.362-1.906 4.248-4.702 6.481-7.371 2.234-2.669 2.87-3.431 6.064-3.958 4.394-.744 7.843-1.434 9.568-.926 1.725.508 1.652 1.652.164 3.177-1.49 1.525-4.63 1.816-5.61 2.197a5742.5 5742.5 0 00-3.123 1.217l-4.067 5.99a58.451 58.451 0 018.243 2.016 6.609 6.609 0 011.924 6.155 3.741 3.741 0 011.543 4.194s1.544 2.015.472 3.631a26.438 26.438 0 01-4.103 4.557 11.125 11.125 0 01-4.157.907 30.622 30.622 0 01-5.193 6.046c-2.36 1.816-3.921 1.634-6.518 5.302l-14.36-9.714z" fill="#C8856A"/><path d="M60.089 86.971c1.634-.708 1.997-1.815 3.63-1.216 1.635.599.945 2.342.945 2.342l-4.575-1.126zm7.007 7.716a15.56 15.56 0 00-3.34-2.178c-1.144-.545-3.486-1.38-3.486-1.38 1.639.145 3.247.53 4.775 1.144.787.295 1.542.673 2.25 1.125.01.38-.04.76-.144 1.126l-.055.163zm.217 2.306c.548.233 1.082.5 1.597.799a4.91 4.91 0 01-.272 1.107 13.889 13.889 0 00-4.34-2.687c1.03.15 2.041.411 3.014.781zm-7.024 11.765a33.735 33.735 0 013.359-5.447 2.487 2.487 0 013.377-.309c.435.654-1.816.563-2.451.854a21.538 21.538 0 00-4.285 4.902zm-5.194-22.586s1.27-1.815 3.522-4.611c2.251-2.796 2.124-2.415 4.321-2.85 2.197-.436 6.354-1.162 7.48-2.488a7.272 7.272 0 01-.636.726c-1.452 1.47-4.63 1.816-5.61 2.197l-3.122 1.217-4.176 6.172-1.78-.363z" fill="#AF6152"/><path d="M34.834 109.448c-7.37 8.896-27.233 30.264-31.826 38.779-3.177 5.883-3.976 19.554-.744 24.528 3.231 4.975 12.509 2.887 19.97-3.631 6.482-5.682 11.874-19.372 16.576-29.048 4.703-9.677 10.33-20.734 10.33-20.734l-14.306-9.894z" fill="#C8856A"/><path d="M39.21 102.258a25.567 25.567 0 001.434-3.94c.328-1.377.783-2.72 1.361-4.012a38.33 38.33 0 014.485-7.135 57.714 57.714 0 015.446-6.427c.944-1.035 1.816-2.106 2.742-3.195a7.39 7.39 0 013.377-2.56 33.818 33.818 0 014.157-.854c1.38-.236 2.778-.472 4.176-.635.713-.055 1.43-.055 2.142 0a3.632 3.632 0 012.088.672 1.18 1.18 0 01.454 1.107 2.36 2.36 0 01-.436 1.053 5.156 5.156 0 01-1.561 1.507 13.143 13.143 0 01-4.03 1.398c-1.33.344-2.625.812-3.868 1.398l-3.885 5.683c2.415.472 4.811.944 7.171 1.652.321.096.631.223.926.381.28.193.526.433.727.708.37.563.664 1.174.871 1.816.446 1.2.553 2.5.309 3.758a4.775 4.775 0 011.488 1.815c.175.382.261.797.254 1.217a3.14 3.14 0 01-.217 1.162 3.632 3.632 0 01.617 3.449 16.633 16.633 0 01-2.233 2.869c-.418.435-.835.871-1.271 1.289a4.219 4.219 0 01-1.47 1.089c-1.149.324-2.33.513-3.523.563a39.14 39.14 0 01-2.378 3.123 16.332 16.332 0 01-2.96 2.868c-1.125.817-2.414 1.325-3.522 2.142a12.98 12.98 0 00-2.832 2.978 12.992 12.992 0 012.796-3.014c1.108-.835 2.378-1.38 3.486-2.197a16.798 16.798 0 002.905-2.886 48.25 48.25 0 002.433-3.305 15.192 15.192 0 003.504-.581 3.935 3.935 0 001.38-1.034c.417-.418.835-.854 1.234-1.289a15.906 15.906 0 002.179-2.796 3.415 3.415 0 00-.636-3.232 2.94 2.94 0 00.218-1.108 2.994 2.994 0 00-.254-1.125 4.321 4.321 0 00-1.453-1.816h-.09v-.109a6.41 6.41 0 00-.327-3.63c-.418-1.163-1.017-2.38-2.306-2.615a72.152 72.152 0 00-7.425-1.67h-.29l.163-.255 4.048-5.99a20.583 20.583 0 013.994-1.453 13.709 13.709 0 003.922-1.326 5.01 5.01 0 001.434-1.398c.4-.526.581-1.234 0-1.615a5.864 5.864 0 00-3.94-.509c-1.38.145-2.76.382-4.157.618a37.336 37.336 0 00-4.103.798 7.063 7.063 0 00-3.232 2.47c-.908 1.053-1.815 2.142-2.778 3.177a57.508 57.508 0 00-5.446 6.39 37.767 37.767 0 00-4.485 7.063 21.785 21.785 0 00-1.398 3.958 23.64 23.64 0 01-1.507 3.958 46.962 46.962 0 01-4.466 7.135 46.928 46.928 0 004.557-7.553z" fill="#AF6152"/></svg>