<svg xmlns="http://www.w3.org/2000/svg" viewBox="0 0 302.2 105.6"><g data-name="Calque 2"><g data-name="Calque 1"><path d="M.5.5h23.3a53.7 53.7 0 0117 2.5 33.32 33.32 0 0113 7.7 35.63 35.63 0 018.4 13.2 54.71 54.71 0 013 19.1 55.3 55.3 0 01-3 19.2 36.7 36.7 0 01-8.3 13.5 34.3 34.3 0 01-12.7 8 47.25 47.25 0 01-16.3 2.6H.5zm22.2 70.1a29 29 0 009.1-1.4 17 17 0 007.1-4.7 21.55 21.55 0 004.6-8.5 44.36 44.36 0 001.6-13 42.49 42.49 0 00-1.6-12.8 20.67 20.67 0 00-4.6-8.3 16.4 16.4 0 00-7.1-4.4 29.44 29.44 0 00-9.1-1.3h-2.8v54.5h2.8zM71.4.5h19.7l2.8 45.7c.1 3.7.2 7.3.3 10.9s.2 7.2.3 10.9h.4c.7-3.7 1.5-7.3 2.3-10.9s1.6-7.2 2.3-10.9l5.9-23.8h11.7l5.7 23.8c.7 3.5 1.4 7.1 2.2 10.8s1.5 7.4 2.2 11.1h.5c.2-3.7.3-7.3.3-11s.2-7.3.3-10.9L130.9.5h18.4l-10.7 85.8h-20.3l-5.4-27c-.5-2.7-1-5.5-1.4-8.4s-.7-5.5-.9-8.1h-.4c-.3 2.5-.6 5.2-1 8.1s-.9 5.6-1.4 8.4l-5.1 27H82.9zm108.2 16.3h-25.7V.5h70.8v16.3H199v69.5h-19.5V16.8z" stroke="#fefefe" stroke-miterlimit="10"/><path fill="#fcdc02" d="M243.7 86.3h58.5v19.3h-58.5z"/></g></g></svg>