<svg width="359" height="194" fill="none" xmlns="http://www.w3.org/2000/svg"><path d="M304.283 119.889c-9.318-17.419-6.537-12.358 13.626 15.08 10.651 17.841 18.333 40.375 2.061 49.835-24.673 9.99-35.811-8.946-32.964-25.327 3.546-20.402 26.972-14.568 17.277-39.588z" fill="url(#paint0_linear_229_419)"/><path d="M97.688 57.25c-.48-.167-1.5-.25-3.063-.25h-12.75c-1.083 0-1.948-.167-2.594-.5-.646-.354-.969-.99-.969-1.906 0-.667.157-1.198.47-1.594a8.96 8.96 0 002.28.313c.73 0 1.303-.073 1.72-.22a2.64 2.64 0 001.093-.843c.625-.833.938-2.219.938-4.156V16.125c-.063-1.458-.542-2.385-1.438-2.781-.27-.125-.646-.24-1.125-.344l-1.375-.313a5.763 5.763 0 01-1.125-.437c-.625-.333-.938-.77-.938-1.313 0-.979.167-1.677.5-2.093.48.166 1.51.25 3.094.25h4.063l10.969-.313 1.343-.031c6.417 0 11.219 1.146 14.407 3.438 3.187 2.27 4.781 5.479 4.781 9.624 0 3.105-1.011 5.959-3.031 8.563-2.25 2.896-5.355 4.854-9.313 5.875 1.083.75 2.313 2.125 3.687 4.125l3.313 4.844c3.104 4.52 5.677 6.781 7.719 6.781.771 0 1.354-.073 1.75-.219l.781-.312c.167-.063.354-.094.563-.094.208 0 .427.167.656.5.229.313.344.677.344 1.094 0 .416-.178.916-.532 1.5-.354.562-.854 1.073-1.5 1.531-1.458 1.063-3.052 1.594-4.781 1.594-1.729 0-3.156-.292-4.281-.875a12.759 12.759 0 01-3.063-2.282 21.147 21.147 0 01-2.531-3.25 59.344 59.344 0 01-2.125-3.718l-1.844-3.719c-1.312-2.708-2.364-4.448-3.156-5.219-.77-.791-1.48-1.187-2.125-1.187h-3.156c-.521 0-.781-.375-.781-1.125 0-1.042.395-1.854 1.187-2.438.27-.187 1.083-.291 2.438-.312 1.354-.042 2.874-.334 4.562-.875 1.708-.542 3.115-1.282 4.219-2.219 2.146-1.854 3.219-4.458 3.219-7.813 0-2.812-.938-5.114-2.813-6.906-2.125-2.02-5.083-3.052-8.875-3.094-2.5 0-4.167.376-5 1.126-.833.708-1.27 2.052-1.313 4.03v31.907c0 1.646.459 2.688 1.376 3.125.291.125.677.24 1.156.344.479.104.937.218 1.375.343.458.105.844.24 1.156.407.625.333.938.781.938 1.343 0 .959-.167 1.646-.5 2.063zm30.187-17.063c0-2.52.26-4.76.781-6.718.521-1.959 1.219-3.709 2.094-5.25.896-1.563 1.938-2.927 3.125-4.094a18.831 18.831 0 013.875-2.906c2.708-1.542 5.375-2.313 8-2.313s4.729.469 6.312 1.407A11.314 11.314 0 01155.938 24c1.854 2.938 2.781 6.844 2.781 11.719 0 1.812-.761 2.74-2.281 2.781l-21.813.469c.125 4.52 1.292 7.864 3.5 10.031 1.875 1.833 4.302 2.75 7.281 2.75 4.438 0 8.042-.927 10.813-2.781.187 0 .416.156.687.468.521.626.782 1.167.782 1.626 0 1-1.25 2.28-3.75 3.843-2.876 1.792-6.23 2.688-10.063 2.688-5 0-8.927-1.594-11.781-4.782-2.813-3.124-4.219-7.333-4.219-12.624zm6.937-5.25c6-.291 11.49-.677 16.469-1.156.229-6.625-2.062-9.937-6.875-9.937-2.687 0-4.885 1.041-6.594 3.125-1.562 1.916-2.562 4.573-3 7.968zM131.781 8c-.416-.208-.625-.542-.625-1 0-.48.167-1.02.5-1.625a8.724 8.724 0 011.313-1.75c1.291-1.27 2.51-1.906 3.656-1.906.625 0 1.167.229 1.625.687l9.969 9.969a.723.723 0 01.219.531c0 .209-.063.427-.188.656a2.833 2.833 0 01-.531.626c-.521.479-1.084.718-1.688.718L131.781 8zm45.938 36.531c-.792.792-1.188 1.563-1.188 2.313 0 .75.219 1.323.657 1.718.437.376 1.01.667 1.718.876 1.084.291 2.282.437 3.594.437h2.688c6.791 0 11.26 1.625 13.406 4.875.791 1.208 1.187 2.677 1.187 4.406 0 1.75-.291 3.282-.875 4.594a11.688 11.688 0 01-2.344 3.469 14.682 14.682 0 01-3.406 2.625 21.703 21.703 0 01-4.094 1.781c-2.812.938-5.437 1.406-7.874 1.406-2.438 0-4.573-.198-6.407-.594-1.812-.374-3.427-.968-4.843-1.78-3.063-1.772-4.594-4.313-4.594-7.626 0-2.812 1.406-5.333 4.218-7.562a19.766 19.766 0 012.719-1.782c-1.125-.937-1.687-2.197-1.687-3.78 0-2.48 1.229-4.563 3.687-6.25-3.604-1.376-5.969-3.834-7.093-7.376-.355-1.166-.532-2.468-.532-3.906 0-1.438.219-2.792.656-4.063a12.472 12.472 0 011.844-3.406c.792-1 1.709-1.875 2.75-2.625a16.98 16.98 0 013.344-1.875c2.333-1 4.781-1.5 7.344-1.5 4.229 0 7.604 1.063 10.125 3.188.271-1.042.406-2.115.406-3.219 0-1.104-.24-2-.719-2.688.813-.958 2.021-1.437 3.625-1.437.917 0 1.646.25 2.188.75 1.041.896 1.562 1.792 1.562 2.688 0 .875-.135 1.645-.406 2.312a8.618 8.618 0 01-1.063 1.844c-.77 1.083-1.77 2.062-3 2.937.834 1.563 1.25 3.375 1.25 5.438 0 2.041-.458 3.948-1.374 5.718a13.722 13.722 0 01-3.626 4.47c-3.124 2.52-6.979 3.78-11.562 3.78-.625 0-1.385-.052-2.281-.156zm-1.531-6.656c.75.73 1.604 1.27 2.562 1.625a8.76 8.76 0 003.062.531 9.918 9.918 0 003.094-.468c.979-.313 1.823-.771 2.532-1.376 1.52-1.291 2.281-3.124 2.281-5.5 0-2.624-.677-4.812-2.031-6.562-1.542-1.938-3.709-2.906-6.5-2.906-3.521 0-5.803 1.437-6.844 4.312-.354.98-.532 2.188-.532 3.625 0 1.438.209 2.73.626 3.875.437 1.146 1.02 2.094 1.75 2.844zm.031 17.656c-2.729 1.854-4.094 3.959-4.094 6.313 0 2.041 1.187 3.593 3.563 4.656 1.895.875 4.229 1.313 7 1.313 2.52 0 4.854-.417 7-1.25 2.812-1.105 4.218-2.907 4.218-5.407 0-3.354-2.718-5.031-8.156-5.031l-2.781.031c-2.834 0-5.084-.208-6.75-.625zm34 1.469c-3.188 0-4.781-.73-4.781-2.188 0-.77.156-1.354.468-1.75.5.167.969.25 1.406.25 1.813 0 2.75-1.093 2.813-3.28V10.905c0-1.458-.146-2.385-.437-2.781-.48-.667-1.25-1-2.313-1-.479 0-.948.052-1.406.156-.438.084-.75.084-.938 0a1.266 1.266 0 01-.406-.406c-.417-.688.104-1.563 1.563-2.625 2.291-1.688 4.552-2.531 6.781-2.531 2.375 0 3.708 1.281 4 3.843a22.8 22.8 0 01.125 2.438v42.156c.062 1.625.656 2.625 1.781 3 .333.104.719.198 1.156.282.459.083.875.187 1.25.312.375.104.667.23.875.375.354.27.532.708.532 1.313 0 .729-.167 1.302-.5 1.718-.417-.104-1.084-.156-2-.156h-9.969zm16.906-16.813c0-2.52.26-4.76.781-6.718.521-1.959 1.219-3.709 2.094-5.25.896-1.563 1.938-2.927 3.125-4.094A18.831 18.831 0 01237 21.219c2.708-1.542 5.375-2.313 8-2.313s4.729.469 6.312 1.407A11.314 11.314 0 01255.188 24c1.854 2.938 2.781 6.844 2.781 11.719 0 1.812-.761 2.74-2.281 2.781l-21.813.469c.125 4.52 1.292 7.864 3.5 10.031 1.875 1.833 4.302 2.75 7.281 2.75 4.438 0 8.042-.927 10.813-2.781.187 0 .416.156.687.468.521.626.782 1.167.782 1.626 0 1-1.25 2.28-3.75 3.843-2.876 1.792-6.23 2.688-10.063 2.688-5 0-8.927-1.594-11.781-4.782-2.813-3.124-4.219-7.333-4.219-12.624zm6.937-5.25c6-.291 11.49-.677 16.469-1.156.229-6.625-2.062-9.937-6.875-9.937-2.687 0-4.885 1.041-6.594 3.125-1.562 1.916-2.562 4.573-3 7.968zm-192.75 68.751l-.03 8.218c0 3.438.176 5.511.53 6.219.355.687.771 1.104 1.25 1.25.48.125 1.094.187 1.844.187s1.427-.052 2.032-.156a13.441 13.441 0 001.75-.468 17.339 17.339 0 001.562-.626l1.531-.656c.354-.125.75.24 1.188 1.094.125.229.187.5.187.812 0 .292-.125.678-.375 1.157s-.74 1.031-1.468 1.656a12.324 12.324 0 01-2.5 1.625c-2.084 1.062-3.959 1.594-5.626 1.594-1.645 0-2.99-.094-4.03-.282-1.042-.187-1.928-.562-2.657-1.124-1.5-1.167-2.25-3.303-2.25-6.407V93.187h-3.094c-.646 0-1.114-.208-1.406-.624-.5-.646-.75-1.188-.75-1.626 0-.729.177-1.135.531-1.218 3.313-.563 5.657-3.021 7.032-7.375.395-1.313.708-2.865.937-4.656 1-.167 1.75-.25 2.25-.25.52 0 .969.26 1.344.78.375.522.552 1.126.531 1.813 0 .688-.01 1.334-.031 1.938-.021.604-.042 1.26-.063 1.969l-.125 4.374H52.22c.27.48.406.99.406 1.532v.969c0 .874-.469 1.593-1.406 2.156-.938.541-1.98.812-3.125.812a65.94 65.94 0 01-2.438-.031c-.479-.042-.948-.083-1.406-.125l-1.375-.188c-.48-.041-.99-.083-1.531-.124v.343l-.032 10.032zm16.72 4.062c0-2.542.25-4.823.75-6.844.5-2.02 1.187-3.802 2.062-5.344.875-1.541 1.906-2.854 3.093-3.937a16.73 16.73 0 013.813-2.688c2.646-1.354 5.552-2.03 8.719-2.03 4.062 0 7.51 1.478 10.344 4.437 3.145 3.25 4.718 7.541 4.718 12.875 0 7-1.906 12.448-5.719 16.343-3.312 3.355-7.28 5.032-11.906 5.032-4.833 0-8.708-1.698-11.625-5.094-2.833-3.271-4.25-7.521-4.25-12.75zM75.75 120.5c1.396 0 2.646-.323 3.75-.969 1.104-.666 2.042-1.573 2.813-2.719 1.541-2.374 2.312-5.458 2.312-9.25 0-4.166-.813-7.708-2.438-10.624-1.833-3.355-4.468-5.032-7.906-5.032-2.77 0-4.99 1.063-6.656 3.188-1.77 2.25-2.656 5.396-2.656 9.437 0 5.063 1.114 9.063 3.344 12 2 2.646 4.479 3.969 7.437 3.969zm39.062 4.656c-.416-.104-1.083-.156-2-.156h-9.968c-2 0-3.281-.354-3.844-1.062a1.41 1.41 0 01-.344-.938c0-.875.167-1.521.5-1.938.5.167 1.063.25 1.688.25.646 0 1.125-.26 1.437-.781.334-.521.49-1.489.469-2.906V97.187c0-1.958-.365-3.177-1.094-3.656-.291-.187-.677-.281-1.156-.281-.479 0-.865.073-1.156.219-.271.146-.5.25-.688.312-.166.063-.312.063-.437 0a1.873 1.873 0 01-.375-.344c-.313-.333-.469-.677-.469-1.03 0-.376.125-.761.375-1.157.27-.417.698-.885 1.281-1.406a11.267 11.267 0 012-1.469c1.688-.98 3.375-1.469 5.063-1.469 1.937 0 3.083 1.281 3.437 3.844.104.75.167 1.52.188 2.313 3.104-2.605 6.479-4.459 10.125-5.563a13.673 13.673 0 013.968-.594c1.355 0 2.636.177 3.844.531 1.229.355 2.292.928 3.188 1.72 1.896 1.666 2.844 4.27 2.844 7.812v21.187c.062 1.625.666 2.625 1.812 3a8.68 8.68 0 001.156.282c.459.083.865.187 1.219.312.375.104.667.229.875.375.354.271.531.708.531 1.313 0 .729-.166 1.302-.5 1.718-.416-.104-1.083-.156-2-.156h-9.969c-2 0-3.281-.354-3.843-1.062a1.412 1.412 0 01-.344-.938c0-.875.167-1.521.5-1.938.5.167.958.25 1.375.25.438 0 .802-.052 1.094-.156.291-.125.521-.323.687-.594.292-.5.438-1.479.438-2.937V99.187c0-3.541-1.052-5.52-3.157-5.937-.645-.125-1.458-.188-2.437-.188-.958 0-2.021.146-3.187.438a19.61 19.61 0 00-3.282 1.125c-1.958.875-3.604 1.98-4.937 3.313v20.218c.062 1.625.656 2.625 1.781 3 .333.104.719.198 1.156.282.459.083.875.187 1.25.312.375.104.667.229.875.375.354.271.531.708.531 1.313 0 .729-.166 1.302-.5 1.718zm74.126-26.844l.031-1.124c0-.396-.094-1.063-.281-2-.188-.959-.792-1.74-1.813-2.344-1-.604-2.281-.906-3.844-.906-1.541 0-2.916.395-4.125 1.187-1.187.77-2.156 1.813-2.906 3.125-1.417 2.5-2.125 5.844-2.125 10.031 0 3.959.958 7.177 2.875 9.657 1.958 2.541 4.542 3.812 7.75 3.812 2.917 0 5.708-.802 8.375-2.406.646-.396 1.146-.74 1.5-1.032.208 0 .448.167.719.5.521.605.781 1.094.781 1.469 0 .354-.146.771-.437 1.25-.292.459-.719.959-1.282 1.5a16.698 16.698 0 01-1.968 1.594 16.24 16.24 0 01-2.594 1.469c-2.188 1-4.427 1.5-6.719 1.5-2.292 0-4.437-.386-6.437-1.156a14.241 14.241 0 01-5.126-3.469c-3.083-3.229-4.624-7.667-4.624-13.313 0-6.416 1.958-11.573 5.874-15.469 3.563-3.52 7.678-5.28 12.344-5.28 3.063 0 5.615.656 7.656 1.968 2.146 1.375 3.219 3.188 3.219 5.438 0 1.229-.271 2.156-.812 2.78-.938 1.105-2.031 1.657-3.281 1.657-1.23 0-2.146-.146-2.75-.438zm11.5-6.374l-.657.124c-.458 0-.781-.312-.969-.937-.062-.167-.093-.406-.093-.719 0-.312.177-.698.531-1.156a4.797 4.797 0 011.375-1.188c1.25-.77 2.573-1.156 3.969-1.156 1.104 0 1.896.156 2.375.469.937.583 1.666 1.77 2.187 3.563l9.532 27.656c1.958-4.354 3.302-7.438 4.031-9.25l1.906-4.844c1.771-4.75 2.656-7.844 2.656-9.281 0-1.459-.25-2.521-.75-3.188-.5-.666-1.364-1.062-2.593-1.187-.23-.25-.344-.584-.344-1 0-.438.187-.834.562-1.188.396-.375.906-.698 1.532-.969a10.22 10.22 0 013.906-.78c1.354 0 2.312.072 2.875.218.562.125 1.01.344 1.343.656.646.584.969 1.667.969 3.25 0 1.417-1.114 5.156-3.343 11.219-2.084 5.417-3.646 9.344-4.688 11.781-3.833 8.542-6.719 14.521-8.656 17.938-1.938 3.416-3.771 5.781-5.5 7.093-1.729 1.334-3.552 2-5.469 2-1.917 0-3.365-.416-4.344-1.25-.979-.812-1.469-1.937-1.469-3.374 0-1.084.271-1.896.813-2.438 1.021-1.021 2.104-1.417 3.25-1.188.187 1.563 1.125 2.344 2.813 2.344 1.52 0 2.885-.989 4.093-2.968.563-.938 1.115-2.032 1.657-3.282l1.812-4.031.625-1.281c-1.208-.167-2.229-.761-3.063-1.782-.333-.395-.604-.895-.812-1.5l-8.75-22.968L203 95.5c-.958-2.375-1.812-3.563-2.562-3.563zM262 98.311l.031-1.124c0-.396-.093-1.063-.281-2-.188-.959-.792-1.74-1.812-2.344-1-.604-2.282-.906-3.844-.906-1.542 0-2.917.395-4.125 1.187-1.188.77-2.157 1.813-2.907 3.125-1.416 2.5-2.124 5.844-2.124 10.031 0 3.959.958 7.177 2.874 9.657 1.959 2.541 4.542 3.812 7.75 3.812 2.917 0 5.709-.802 8.376-2.406.645-.396 1.145-.74 1.5-1.032.208 0 .447.167.718.5.521.605.782 1.094.782 1.469 0 .354-.146.771-.438 1.25-.292.459-.719.959-1.281 1.5a16.714 16.714 0 01-1.969 1.594 16.197 16.197 0 01-2.594 1.469c-2.187 1-4.427 1.5-6.718 1.5-2.292 0-4.438-.386-6.438-1.156a14.237 14.237 0 01-5.125-3.469c-3.083-3.229-4.625-7.667-4.625-13.313 0-6.416 1.958-11.573 5.875-15.469 3.563-3.52 7.677-5.28 12.344-5.28 3.062 0 5.614.656 7.656 1.968 2.146 1.375 3.219 3.188 3.219 5.438 0 1.229-.271 2.156-.813 2.78-.937 1.105-2.031 1.657-3.281 1.657-1.229 0-2.146-.146-2.75-.438zM280.469 125c-3.188 0-4.781-.729-4.781-2.188 0-.77.156-1.354.468-1.75.5.167.969.25 1.406.25 1.813 0 2.75-1.093 2.813-3.281V78.906c0-1.458-.146-2.385-.437-2.781-.48-.667-1.25-1-2.313-1-.479 0-.948.052-1.406.156-.438.084-.75.084-.938 0a1.264 1.264 0 01-.406-.406c-.417-.688.104-1.563 1.563-2.625 2.291-1.688 4.552-2.531 6.781-2.531 2.375 0 3.708 1.281 4 3.844.083.77.125 1.583.125 2.437v42.156c.062 1.625.656 2.625 1.781 3 .333.104.719.198 1.156.282.459.083.875.187 1.25.312.375.104.667.229.875.375.354.271.532.708.532 1.313 0 .729-.167 1.302-.5 1.718-.417-.104-1.084-.156-2-.156h-9.969zm16.906-16.812c0-2.521.26-4.761.781-6.719.521-1.959 1.219-3.709 2.094-5.25.896-1.563 1.938-2.927 3.125-4.094a18.831 18.831 0 013.875-2.906c2.708-1.542 5.375-2.313 8-2.313s4.729.469 6.312 1.406A11.314 11.314 0 01325.438 92c1.854 2.938 2.781 6.844 2.781 11.719 0 1.812-.761 2.739-2.281 2.781l-21.813.469c.125 4.521 1.292 7.864 3.5 10.031 1.875 1.833 4.302 2.75 7.281 2.75 4.438 0 8.042-.927 10.813-2.781.187 0 .416.156.687.469.521.624.782 1.166.782 1.624 0 1-1.25 2.282-3.75 3.844-2.876 1.792-6.23 2.688-10.063 2.688-5 0-8.927-1.594-11.781-4.782-2.813-3.124-4.219-7.333-4.219-12.624zm6.937-5.25c6-.292 11.49-.678 16.469-1.157.229-6.625-2.062-9.937-6.875-9.937-2.687 0-4.885 1.041-6.594 3.125-1.562 1.916-2.562 4.573-3 7.969z" fill="#000"/><defs><linearGradient id="paint0_linear_229_419" x1="275.104" y1="87.249" x2="323.426" y2="214.674" gradientUnits="userSpaceOnUse"><stop stop-color="#BA68C8"/><stop offset=".969" stop-color="#DDB3E3" stop-opacity="0"/></linearGradient></defs></svg>