<svg width="359" height="194" viewBox="0 0 359 194" fill="none" xmlns="http://www.w3.org/2000/svg">
<path d="M304.283 119.889C294.965 102.47 297.746 107.531 317.909 134.969C328.56 152.81 336.242 175.344 319.97 184.804C295.297 194.794 284.159 175.858 287.006 159.477C290.552 139.075 313.978 144.909 304.283 119.889Z" fill="url(#paint0_linear_229_419)"/>
<path d="M97.6875 57.25C97.2083 57.0833 96.1875 57 94.625 57H81.875C80.7917 57 79.9271 56.8333 79.2812 56.5C78.6354 56.1458 78.3125 55.5104 78.3125 54.5938C78.3125 53.9271 78.4688 53.3958 78.7812 53C79.5729 53.2083 80.3333 53.3125 81.0625 53.3125C81.7917 53.3125 82.3646 53.2396 82.7812 53.0938C83.1979 52.9271 83.5625 52.6458 83.875 52.25C84.5 51.4167 84.8125 50.0312 84.8125 48.0938V16.125C84.75 14.6667 84.2708 13.7396 83.375 13.3438C83.1042 13.2188 82.7292 13.1042 82.25 13C81.7917 12.8958 81.3333 12.7917 80.875 12.6875C80.4375 12.5625 80.0625 12.4167 79.75 12.25C79.125 11.9167 78.8125 11.4792 78.8125 10.9375C78.8125 9.95833 78.9792 9.26042 79.3125 8.84375C79.7917 9.01042 80.8229 9.09375 82.4062 9.09375H86.4688L97.4375 8.78125L98.7812 8.75C105.198 8.75 110 9.89583 113.188 12.1875C116.375 14.4583 117.969 17.6667 117.969 21.8125C117.969 24.9167 116.958 27.7708 114.938 30.375C112.688 33.2708 109.583 35.2292 105.625 36.25C106.708 37 107.938 38.375 109.312 40.375L112.625 45.2188C115.729 49.7396 118.302 52 120.344 52C121.115 52 121.698 51.9271 122.094 51.7812L122.875 51.4688C123.042 51.4062 123.229 51.375 123.438 51.375C123.646 51.375 123.865 51.5417 124.094 51.875C124.323 52.1875 124.438 52.5521 124.438 52.9688C124.438 53.3854 124.26 53.8854 123.906 54.4688C123.552 55.0312 123.052 55.5417 122.406 56C120.948 57.0625 119.354 57.5938 117.625 57.5938C115.896 57.5938 114.469 57.3021 113.344 56.7188C112.24 56.1354 111.219 55.375 110.281 54.4375C109.365 53.4792 108.521 52.3958 107.75 51.1875C107 49.9792 106.292 48.7396 105.625 47.4688L103.781 43.75C102.469 41.0417 101.417 39.3021 100.625 38.5312C99.8542 37.7396 99.1458 37.3438 98.5 37.3438H95.3438C94.8229 37.3438 94.5625 36.9688 94.5625 36.2188C94.5625 35.1771 94.9583 34.3646 95.75 33.7812C96.0208 33.5938 96.8333 33.4896 98.1875 33.4688C99.5417 33.4271 101.062 33.1354 102.75 32.5938C104.458 32.0521 105.865 31.3125 106.969 30.375C109.115 28.5208 110.188 25.9167 110.188 22.5625C110.188 19.75 109.25 17.4479 107.375 15.6562C105.25 13.6354 102.292 12.6042 98.5 12.5625C96 12.5625 94.3333 12.9375 93.5 13.6875C92.6667 14.3958 92.2292 15.7396 92.1875 17.7188V49.625C92.1875 51.2708 92.6458 52.3125 93.5625 52.75C93.8542 52.875 94.2396 52.9896 94.7188 53.0938C95.1979 53.1979 95.6562 53.3125 96.0938 53.4375C96.5521 53.5417 96.9375 53.6771 97.25 53.8438C97.875 54.1771 98.1875 54.625 98.1875 55.1875C98.1875 56.1458 98.0208 56.8333 97.6875 57.25ZM127.875 40.1875C127.875 37.6667 128.135 35.4271 128.656 33.4688C129.177 31.5104 129.875 29.7604 130.75 28.2188C131.646 26.6562 132.688 25.2917 133.875 24.125C135.083 22.9583 136.375 21.9896 137.75 21.2188C140.458 19.6771 143.125 18.9062 145.75 18.9062C148.375 18.9062 150.479 19.375 152.062 20.3125C153.646 21.2292 154.938 22.4583 155.938 24C157.792 26.9375 158.719 30.8438 158.719 35.7188C158.719 37.5312 157.958 38.4583 156.438 38.5L134.625 38.9688C134.75 43.4896 135.917 46.8333 138.125 49C140 50.8333 142.427 51.75 145.406 51.75C149.844 51.75 153.448 50.8229 156.219 48.9688C156.406 48.9688 156.635 49.125 156.906 49.4375C157.427 50.0625 157.688 50.6042 157.688 51.0625C157.688 52.0625 156.438 53.3438 153.938 54.9062C151.062 56.6979 147.708 57.5938 143.875 57.5938C138.875 57.5938 134.948 56 132.094 52.8125C129.281 49.6875 127.875 45.4792 127.875 40.1875ZM134.812 34.9375C140.812 34.6458 146.302 34.2604 151.281 33.7812C151.51 27.1562 149.219 23.8438 144.406 23.8438C141.719 23.8438 139.521 24.8854 137.812 26.9688C136.25 28.8854 135.25 31.5417 134.812 34.9375ZM131.781 8C131.365 7.79167 131.156 7.45833 131.156 7C131.156 6.52083 131.323 5.97917 131.656 5.375C132.01 4.75 132.448 4.16667 132.969 3.625C134.26 2.35417 135.479 1.71875 136.625 1.71875C137.25 1.71875 137.792 1.94792 138.25 2.40625L148.219 12.375C148.365 12.5208 148.438 12.6979 148.438 12.9062C148.438 13.1146 148.375 13.3333 148.25 13.5625C148.125 13.7708 147.948 13.9792 147.719 14.1875C147.198 14.6667 146.635 14.9062 146.031 14.9062L131.781 8ZM177.719 44.5312C176.927 45.3229 176.531 46.0938 176.531 46.8438C176.531 47.5938 176.75 48.1667 177.188 48.5625C177.625 48.9375 178.198 49.2292 178.906 49.4375C179.99 49.7292 181.188 49.875 182.5 49.875H185.188C191.979 49.875 196.448 51.5 198.594 54.75C199.385 55.9583 199.781 57.4271 199.781 59.1562C199.781 60.9062 199.49 62.4375 198.906 63.75C198.323 65.0625 197.542 66.2188 196.562 67.2188C195.583 68.2396 194.448 69.1146 193.156 69.8438C191.865 70.5729 190.5 71.1667 189.062 71.625C186.25 72.5625 183.625 73.0312 181.188 73.0312C178.75 73.0312 176.615 72.8333 174.781 72.4375C172.969 72.0625 171.354 71.4688 169.938 70.6562C166.875 68.8854 165.344 66.3438 165.344 63.0312C165.344 60.2188 166.75 57.6979 169.562 55.4688C170.417 54.8021 171.323 54.2083 172.281 53.6875C171.156 52.75 170.594 51.4896 170.594 49.9062C170.594 47.4271 171.823 45.3438 174.281 43.6562C170.677 42.2812 168.312 39.8229 167.188 36.2812C166.833 35.1146 166.656 33.8125 166.656 32.375C166.656 30.9375 166.875 29.5833 167.312 28.3125C167.771 27.0417 168.385 25.9062 169.156 24.9062C169.948 23.9062 170.865 23.0312 171.906 22.2812C172.948 21.5312 174.062 20.9062 175.25 20.4062C177.583 19.4062 180.031 18.9062 182.594 18.9062C186.823 18.9062 190.198 19.9688 192.719 22.0938C192.99 21.0521 193.125 19.9792 193.125 18.875C193.125 17.7708 192.885 16.875 192.406 16.1875C193.219 15.2292 194.427 14.75 196.031 14.75C196.948 14.75 197.677 15 198.219 15.5C199.26 16.3958 199.781 17.2917 199.781 18.1875C199.781 19.0625 199.646 19.8333 199.375 20.5C199.104 21.1458 198.75 21.7604 198.312 22.3438C197.542 23.4271 196.542 24.4062 195.312 25.2812C196.146 26.8438 196.562 28.6562 196.562 30.7188C196.562 32.7604 196.104 34.6667 195.188 36.4375C194.292 38.1875 193.083 39.6771 191.562 40.9062C188.438 43.4271 184.583 44.6875 180 44.6875C179.375 44.6875 178.615 44.6354 177.719 44.5312ZM176.188 37.875C176.938 38.6042 177.792 39.1458 178.75 39.5C179.708 39.8542 180.729 40.0312 181.812 40.0312C182.917 40.0312 183.948 39.875 184.906 39.5625C185.885 39.25 186.729 38.7917 187.438 38.1875C188.958 36.8958 189.719 35.0625 189.719 32.6875C189.719 30.0625 189.042 27.875 187.688 26.125C186.146 24.1875 183.979 23.2188 181.188 23.2188C177.667 23.2188 175.385 24.6562 174.344 27.5312C173.99 28.5104 173.812 29.7188 173.812 31.1562C173.812 32.5938 174.021 33.8854 174.438 35.0312C174.875 36.1771 175.458 37.125 176.188 37.875ZM176.219 55.5312C173.49 57.3854 172.125 59.4896 172.125 61.8438C172.125 63.8854 173.312 65.4375 175.688 66.5C177.583 67.375 179.917 67.8125 182.688 67.8125C185.208 67.8125 187.542 67.3958 189.688 66.5625C192.5 65.4583 193.906 63.6562 193.906 61.1562C193.906 57.8021 191.188 56.125 185.75 56.125L182.969 56.1562C180.135 56.1562 177.885 55.9479 176.219 55.5312ZM210.219 57C207.031 57 205.438 56.2708 205.438 54.8125C205.438 54.0417 205.594 53.4583 205.906 53.0625C206.406 53.2292 206.875 53.3125 207.312 53.3125C209.125 53.3125 210.062 52.2188 210.125 50.0312V10.9062C210.125 9.44792 209.979 8.52083 209.688 8.125C209.208 7.45833 208.438 7.125 207.375 7.125C206.896 7.125 206.427 7.17708 205.969 7.28125C205.531 7.36458 205.219 7.36458 205.031 7.28125C204.865 7.17708 204.729 7.04167 204.625 6.875C204.208 6.1875 204.729 5.3125 206.188 4.25C208.479 2.5625 210.74 1.71875 212.969 1.71875C215.344 1.71875 216.677 3 216.969 5.5625C217.052 6.33333 217.094 7.14583 217.094 8V50.1562C217.156 51.7812 217.75 52.7812 218.875 53.1562C219.208 53.2604 219.594 53.3542 220.031 53.4375C220.49 53.5208 220.906 53.625 221.281 53.75C221.656 53.8542 221.948 53.9792 222.156 54.125C222.51 54.3958 222.688 54.8333 222.688 55.4375C222.688 56.1667 222.521 56.7396 222.188 57.1562C221.771 57.0521 221.104 57 220.188 57H210.219ZM227.125 40.1875C227.125 37.6667 227.385 35.4271 227.906 33.4688C228.427 31.5104 229.125 29.7604 230 28.2188C230.896 26.6562 231.938 25.2917 233.125 24.125C234.333 22.9583 235.625 21.9896 237 21.2188C239.708 19.6771 242.375 18.9062 245 18.9062C247.625 18.9062 249.729 19.375 251.312 20.3125C252.896 21.2292 254.188 22.4583 255.188 24C257.042 26.9375 257.969 30.8438 257.969 35.7188C257.969 37.5312 257.208 38.4583 255.688 38.5L233.875 38.9688C234 43.4896 235.167 46.8333 237.375 49C239.25 50.8333 241.677 51.75 244.656 51.75C249.094 51.75 252.698 50.8229 255.469 48.9688C255.656 48.9688 255.885 49.125 256.156 49.4375C256.677 50.0625 256.938 50.6042 256.938 51.0625C256.938 52.0625 255.688 53.3438 253.188 54.9062C250.312 56.6979 246.958 57.5938 243.125 57.5938C238.125 57.5938 234.198 56 231.344 52.8125C228.531 49.6875 227.125 45.4792 227.125 40.1875ZM234.062 34.9375C240.062 34.6458 245.552 34.2604 250.531 33.7812C250.76 27.1562 248.469 23.8438 243.656 23.8438C240.969 23.8438 238.771 24.8854 237.062 26.9688C235.5 28.8854 234.5 31.5417 234.062 34.9375ZM41.3125 103.688L41.2812 111.906C41.2812 115.344 41.4583 117.417 41.8125 118.125C42.1667 118.812 42.5833 119.229 43.0625 119.375C43.5417 119.5 44.1562 119.562 44.9062 119.562C45.6562 119.562 46.3333 119.51 46.9375 119.406C47.5625 119.281 48.1458 119.125 48.6875 118.938C49.2292 118.75 49.75 118.542 50.25 118.312L51.7812 117.656C52.1354 117.531 52.5312 117.896 52.9688 118.75C53.0938 118.979 53.1562 119.25 53.1562 119.562C53.1562 119.854 53.0312 120.24 52.7812 120.719C52.5312 121.198 52.0417 121.75 51.3125 122.375C50.6042 122.979 49.7708 123.521 48.8125 124C46.7292 125.062 44.8542 125.594 43.1875 125.594C41.5417 125.594 40.1979 125.5 39.1562 125.312C38.1146 125.125 37.2292 124.75 36.5 124.188C35 123.021 34.25 120.885 34.25 117.781V93.1875H31.1562C30.5104 93.1875 30.0417 92.9792 29.75 92.5625C29.25 91.9167 29 91.375 29 90.9375C29 90.2083 29.1771 89.8021 29.5312 89.7188C32.8438 89.1562 35.1875 86.6979 36.5625 82.3438C36.9583 81.0312 37.2708 79.4792 37.5 77.6875C38.5 77.5208 39.25 77.4375 39.75 77.4375C40.2708 77.4375 40.7188 77.6979 41.0938 78.2188C41.4688 78.7396 41.6458 79.3438 41.625 80.0312C41.625 80.7188 41.6146 81.3646 41.5938 81.9688C41.5729 82.5729 41.5521 83.2292 41.5312 83.9375L41.4062 88.3125H52.2188C52.4896 88.7917 52.625 89.3021 52.625 89.8438V90.8125C52.625 91.6875 52.1562 92.4062 51.2188 92.9688C50.2812 93.5104 49.2396 93.7812 48.0938 93.7812C46.9688 93.7812 46.1562 93.7708 45.6562 93.75C45.1771 93.7083 44.7083 93.6667 44.25 93.625L42.875 93.4375C42.3958 93.3958 41.8854 93.3542 41.3438 93.3125V93.6562L41.3125 103.688ZM58.0312 107.75C58.0312 105.208 58.2812 102.927 58.7812 100.906C59.2812 98.8854 59.9688 97.1042 60.8438 95.5625C61.7188 94.0208 62.75 92.7083 63.9375 91.625C65.125 90.5208 66.3958 89.625 67.75 88.9375C70.3958 87.5833 73.3021 86.9062 76.4688 86.9062C80.5312 86.9062 83.9792 88.3854 86.8125 91.3438C89.9583 94.5938 91.5312 98.8854 91.5312 104.219C91.5312 111.219 89.625 116.667 85.8125 120.562C82.5 123.917 78.5312 125.594 73.9062 125.594C69.0729 125.594 65.1979 123.896 62.2812 120.5C59.4479 117.229 58.0312 112.979 58.0312 107.75ZM75.75 120.5C77.1458 120.5 78.3958 120.177 79.5 119.531C80.6042 118.865 81.5417 117.958 82.3125 116.812C83.8542 114.438 84.625 111.354 84.625 107.562C84.625 103.396 83.8125 99.8542 82.1875 96.9375C80.3542 93.5833 77.7188 91.9062 74.2812 91.9062C71.5104 91.9062 69.2917 92.9688 67.625 95.0938C65.8542 97.3438 64.9688 100.49 64.9688 104.531C64.9688 109.594 66.0833 113.594 68.3125 116.531C70.3125 119.177 72.7917 120.5 75.75 120.5ZM114.812 125.156C114.396 125.052 113.729 125 112.812 125H102.844C100.844 125 99.5625 124.646 99 123.938C98.7708 123.667 98.6562 123.354 98.6562 123C98.6562 122.125 98.8229 121.479 99.1562 121.062C99.6562 121.229 100.219 121.312 100.844 121.312C101.49 121.312 101.969 121.052 102.281 120.531C102.615 120.01 102.771 119.042 102.75 117.625V97.1875C102.75 95.2292 102.385 94.0104 101.656 93.5312C101.365 93.3438 100.979 93.25 100.5 93.25C100.021 93.25 99.6354 93.3229 99.3438 93.4688C99.0729 93.6146 98.8438 93.7188 98.6562 93.7812C98.4896 93.8438 98.3438 93.8438 98.2188 93.7812C98.0938 93.6979 97.9688 93.5833 97.8438 93.4375C97.5312 93.1042 97.375 92.7604 97.375 92.4062C97.375 92.0312 97.5 91.6458 97.75 91.25C98.0208 90.8333 98.4479 90.3646 99.0312 89.8438C99.6146 89.3021 100.281 88.8125 101.031 88.375C102.719 87.3958 104.406 86.9062 106.094 86.9062C108.031 86.9062 109.177 88.1875 109.531 90.75C109.635 91.5 109.698 92.2708 109.719 93.0625C112.823 90.4583 116.198 88.6042 119.844 87.5C121.156 87.1042 122.479 86.9062 123.812 86.9062C125.167 86.9062 126.448 87.0833 127.656 87.4375C128.885 87.7917 129.948 88.3646 130.844 89.1562C132.74 90.8229 133.688 93.4271 133.688 96.9688V118.156C133.75 119.781 134.354 120.781 135.5 121.156C135.812 121.26 136.198 121.354 136.656 121.438C137.115 121.521 137.521 121.625 137.875 121.75C138.25 121.854 138.542 121.979 138.75 122.125C139.104 122.396 139.281 122.833 139.281 123.438C139.281 124.167 139.115 124.74 138.781 125.156C138.365 125.052 137.698 125 136.781 125H126.812C124.812 125 123.531 124.646 122.969 123.938C122.74 123.667 122.625 123.354 122.625 123C122.625 122.125 122.792 121.479 123.125 121.062C123.625 121.229 124.083 121.312 124.5 121.312C124.938 121.312 125.302 121.26 125.594 121.156C125.885 121.031 126.115 120.833 126.281 120.562C126.573 120.062 126.719 119.083 126.719 117.625V99.1875C126.719 95.6458 125.667 93.6667 123.562 93.25C122.917 93.125 122.104 93.0625 121.125 93.0625C120.167 93.0625 119.104 93.2083 117.938 93.5C116.771 93.7917 115.677 94.1667 114.656 94.625C112.698 95.5 111.052 96.6042 109.719 97.9375V118.156C109.781 119.781 110.375 120.781 111.5 121.156C111.833 121.26 112.219 121.354 112.656 121.438C113.115 121.521 113.531 121.625 113.906 121.75C114.281 121.854 114.573 121.979 114.781 122.125C115.135 122.396 115.312 122.833 115.312 123.438C115.312 124.167 115.146 124.74 114.812 125.156ZM188.938 98.3125L188.969 97.1875C188.969 96.7917 188.875 96.125 188.688 95.1875C188.5 94.2292 187.896 93.4479 186.875 92.8438C185.875 92.2396 184.594 91.9375 183.031 91.9375C181.49 91.9375 180.115 92.3333 178.906 93.125C177.719 93.8958 176.75 94.9375 176 96.25C174.583 98.75 173.875 102.094 173.875 106.281C173.875 110.24 174.833 113.458 176.75 115.938C178.708 118.479 181.292 119.75 184.5 119.75C187.417 119.75 190.208 118.948 192.875 117.344C193.521 116.948 194.021 116.604 194.375 116.312C194.583 116.312 194.823 116.479 195.094 116.812C195.615 117.417 195.875 117.906 195.875 118.281C195.875 118.635 195.729 119.052 195.438 119.531C195.146 119.99 194.719 120.49 194.156 121.031C193.615 121.552 192.958 122.083 192.188 122.625C191.417 123.167 190.552 123.656 189.594 124.094C187.406 125.094 185.167 125.594 182.875 125.594C180.583 125.594 178.438 125.208 176.438 124.438C174.458 123.646 172.75 122.49 171.312 120.969C168.229 117.74 166.688 113.302 166.688 107.656C166.688 101.24 168.646 96.0833 172.562 92.1875C176.125 88.6667 180.24 86.9062 184.906 86.9062C187.969 86.9062 190.521 87.5625 192.562 88.875C194.708 90.25 195.781 92.0625 195.781 94.3125C195.781 95.5417 195.51 96.4688 194.969 97.0938C194.031 98.1979 192.938 98.75 191.688 98.75C190.458 98.75 189.542 98.6042 188.938 98.3125ZM200.438 91.9375L199.781 92.0625C199.323 92.0625 199 91.75 198.812 91.125C198.75 90.9583 198.719 90.7188 198.719 90.4062C198.719 90.0938 198.896 89.7083 199.25 89.25C199.604 88.7917 200.062 88.3958 200.625 88.0625C201.875 87.2917 203.198 86.9062 204.594 86.9062C205.698 86.9062 206.49 87.0625 206.969 87.375C207.906 87.9583 208.635 89.1458 209.156 90.9375L218.688 118.594C220.646 114.24 221.99 111.156 222.719 109.344L224.625 104.5C226.396 99.75 227.281 96.6562 227.281 95.2188C227.281 93.7604 227.031 92.6979 226.531 92.0312C226.031 91.3646 225.167 90.9688 223.938 90.8438C223.708 90.5938 223.594 90.2604 223.594 89.8438C223.594 89.4062 223.781 89.0104 224.156 88.6562C224.552 88.2812 225.062 87.9583 225.688 87.6875C226.958 87.1667 228.26 86.9062 229.594 86.9062C230.948 86.9062 231.906 86.9792 232.469 87.125C233.031 87.25 233.479 87.4688 233.812 87.7812C234.458 88.3646 234.781 89.4479 234.781 91.0312C234.781 92.4479 233.667 96.1875 231.438 102.25C229.354 107.667 227.792 111.594 226.75 114.031C222.917 122.573 220.031 128.552 218.094 131.969C216.156 135.385 214.323 137.75 212.594 139.062C210.865 140.396 209.042 141.062 207.125 141.062C205.208 141.062 203.76 140.646 202.781 139.812C201.802 139 201.312 137.875 201.312 136.438C201.312 135.354 201.583 134.542 202.125 134C203.146 132.979 204.229 132.583 205.375 132.812C205.562 134.375 206.5 135.156 208.188 135.156C209.708 135.156 211.073 134.167 212.281 132.188C212.844 131.25 213.396 130.156 213.938 128.906L215.75 124.875L216.375 123.594C215.167 123.427 214.146 122.833 213.312 121.812C212.979 121.417 212.708 120.917 212.5 120.312L203.75 97.3438L203 95.5C202.042 93.125 201.188 91.9375 200.438 91.9375ZM262 98.3125L262.031 97.1875C262.031 96.7917 261.938 96.125 261.75 95.1875C261.562 94.2292 260.958 93.4479 259.938 92.8438C258.938 92.2396 257.656 91.9375 256.094 91.9375C254.552 91.9375 253.177 92.3333 251.969 93.125C250.781 93.8958 249.812 94.9375 249.062 96.25C247.646 98.75 246.938 102.094 246.938 106.281C246.938 110.24 247.896 113.458 249.812 115.938C251.771 118.479 254.354 119.75 257.562 119.75C260.479 119.75 263.271 118.948 265.938 117.344C266.583 116.948 267.083 116.604 267.438 116.312C267.646 116.312 267.885 116.479 268.156 116.812C268.677 117.417 268.938 117.906 268.938 118.281C268.938 118.635 268.792 119.052 268.5 119.531C268.208 119.99 267.781 120.49 267.219 121.031C266.677 121.552 266.021 122.083 265.25 122.625C264.479 123.167 263.615 123.656 262.656 124.094C260.469 125.094 258.229 125.594 255.938 125.594C253.646 125.594 251.5 125.208 249.5 124.438C247.521 123.646 245.812 122.49 244.375 120.969C241.292 117.74 239.75 113.302 239.75 107.656C239.75 101.24 241.708 96.0833 245.625 92.1875C249.188 88.6667 253.302 86.9062 257.969 86.9062C261.031 86.9062 263.583 87.5625 265.625 88.875C267.771 90.25 268.844 92.0625 268.844 94.3125C268.844 95.5417 268.573 96.4688 268.031 97.0938C267.094 98.1979 266 98.75 264.75 98.75C263.521 98.75 262.604 98.6042 262 98.3125ZM280.469 125C277.281 125 275.688 124.271 275.688 122.812C275.688 122.042 275.844 121.458 276.156 121.062C276.656 121.229 277.125 121.312 277.562 121.312C279.375 121.312 280.312 120.219 280.375 118.031V78.9062C280.375 77.4479 280.229 76.5208 279.938 76.125C279.458 75.4583 278.688 75.125 277.625 75.125C277.146 75.125 276.677 75.1771 276.219 75.2812C275.781 75.3646 275.469 75.3646 275.281 75.2812C275.115 75.1771 274.979 75.0417 274.875 74.875C274.458 74.1875 274.979 73.3125 276.438 72.25C278.729 70.5625 280.99 69.7188 283.219 69.7188C285.594 69.7188 286.927 71 287.219 73.5625C287.302 74.3333 287.344 75.1458 287.344 76V118.156C287.406 119.781 288 120.781 289.125 121.156C289.458 121.26 289.844 121.354 290.281 121.438C290.74 121.521 291.156 121.625 291.531 121.75C291.906 121.854 292.198 121.979 292.406 122.125C292.76 122.396 292.938 122.833 292.938 123.438C292.938 124.167 292.771 124.74 292.438 125.156C292.021 125.052 291.354 125 290.438 125H280.469ZM297.375 108.188C297.375 105.667 297.635 103.427 298.156 101.469C298.677 99.5104 299.375 97.7604 300.25 96.2188C301.146 94.6562 302.188 93.2917 303.375 92.125C304.583 90.9583 305.875 89.9896 307.25 89.2188C309.958 87.6771 312.625 86.9062 315.25 86.9062C317.875 86.9062 319.979 87.375 321.562 88.3125C323.146 89.2292 324.438 90.4583 325.438 92C327.292 94.9375 328.219 98.8438 328.219 103.719C328.219 105.531 327.458 106.458 325.938 106.5L304.125 106.969C304.25 111.49 305.417 114.833 307.625 117C309.5 118.833 311.927 119.75 314.906 119.75C319.344 119.75 322.948 118.823 325.719 116.969C325.906 116.969 326.135 117.125 326.406 117.438C326.927 118.062 327.188 118.604 327.188 119.062C327.188 120.062 325.938 121.344 323.438 122.906C320.562 124.698 317.208 125.594 313.375 125.594C308.375 125.594 304.448 124 301.594 120.812C298.781 117.688 297.375 113.479 297.375 108.188ZM304.312 102.938C310.312 102.646 315.802 102.26 320.781 101.781C321.01 95.1562 318.719 91.8438 313.906 91.8438C311.219 91.8438 309.021 92.8854 307.312 94.9688C305.75 96.8854 304.75 99.5417 304.312 102.938Z" fill="black"/>
<defs>
<linearGradient id="paint0_linear_229_419" x1="275.104" y1="87.2491" x2="323.426" y2="214.674" gradientUnits="userSpaceOnUse">
<stop stop-color="#BA68C8"/>
<stop offset="0.96875" stop-color="#DDB3E3" stop-opacity="0"/>
</linearGradient>
</defs>
</svg>
