<svg width="549" height="257" viewBox="0 0 549 257" fill="none" xmlns="http://www.w3.org/2000/svg">
<path d="M376.283 182.889C366.965 165.47 369.746 170.531 389.909 197.969C400.56 215.81 408.242 238.344 391.97 247.804C367.297 257.794 356.159 238.858 359.006 222.477C362.552 202.075 385.978 207.909 376.283 182.889Z" fill="url(#paint0_linear_286_980)"/>
<path d="M31.2812 87.447C30.6224 87.2179 29.2188 87.1033 27.0703 87.1033H9.53906C8.04948 87.1033 6.86068 86.8741 5.97266 86.4158C5.08464 85.9288 4.64062 85.0551 4.64062 83.7947C4.64062 82.878 4.85547 82.1475 5.28516 81.6033C6.3737 81.8897 7.41927 82.033 8.42188 82.033C9.42448 82.033 10.2122 81.9327 10.7852 81.7322C11.3581 81.503 11.8594 81.1163 12.2891 80.572C13.1484 79.4262 13.5781 77.5212 13.5781 74.8572V30.9001C13.4922 28.8949 12.8333 27.6202 11.6016 27.0759C11.2292 26.9041 10.7135 26.7465 10.0547 26.6033C9.42448 26.46 8.79427 26.3168 8.16406 26.1736C7.5625 26.0017 7.04688 25.8012 6.61719 25.572C5.75781 25.1137 5.32812 24.5121 5.32812 23.7673C5.32812 22.421 5.55729 21.4613 6.01562 20.8884C6.67448 21.1176 8.09245 21.2322 10.2695 21.2322H15.8555L30.9375 20.8025L32.7852 20.7595C41.6081 20.7595 48.2109 22.335 52.5938 25.4861C56.9766 28.6085 59.168 33.0199 59.168 38.7205C59.168 42.9887 57.7786 46.9132 55 50.4939C51.9062 54.4757 47.638 57.1684 42.1953 58.572C43.6849 59.6033 45.375 61.4939 47.2656 64.2439L51.8203 70.9041C56.0885 77.1202 59.6263 80.2283 62.4336 80.2283C63.4935 80.2283 64.2956 80.128 64.8398 79.9275L65.9141 79.4978C66.1432 79.4119 66.401 79.3689 66.6875 79.3689C66.974 79.3689 67.2747 79.5981 67.5898 80.0564C67.9049 80.4861 68.0625 80.9874 68.0625 81.5603C68.0625 82.1332 67.819 82.8207 67.332 83.6228C66.8451 84.3962 66.1576 85.0981 65.2695 85.7283C63.2643 87.1892 61.0729 87.9197 58.6953 87.9197C56.3177 87.9197 54.3555 87.5186 52.8086 86.7166C51.2904 85.9145 49.8867 84.8689 48.5977 83.5798C47.3372 82.2621 46.1771 80.7725 45.1172 79.1111C44.0859 77.4496 43.112 75.7452 42.1953 73.9978L39.6602 68.8845C37.8555 65.1606 36.4089 62.7686 35.3203 61.7087C34.2604 60.6202 33.2865 60.0759 32.3984 60.0759H28.0586C27.3424 60.0759 26.9844 59.5603 26.9844 58.5291C26.9844 57.0968 27.5286 55.9796 28.6172 55.1775C28.9896 54.9197 30.1068 54.7764 31.9688 54.7478C33.8307 54.6905 35.9219 54.2895 38.2422 53.5447C40.5911 52.7999 42.5247 51.783 44.043 50.4939C46.9935 47.9444 48.4688 44.3637 48.4688 39.7517C48.4688 35.8845 47.1797 32.7192 44.6016 30.2556C41.6797 27.477 37.612 26.059 32.3984 26.0017C28.9609 26.0017 26.6693 26.5173 25.5234 27.5486C24.3776 28.5225 23.776 30.3702 23.7188 33.0916V76.9626C23.7188 79.2257 24.349 80.658 25.6094 81.2595C26.0104 81.4314 26.5404 81.5889 27.1992 81.7322C27.8581 81.8754 28.4883 82.033 29.0898 82.2048C29.7201 82.3481 30.25 82.5343 30.6797 82.7634C31.5391 83.2218 31.9688 83.8376 31.9688 84.6111C31.9688 85.9288 31.7396 86.8741 31.2812 87.447ZM72.7891 63.9861C72.7891 60.5199 73.1471 57.4405 73.8633 54.7478C74.5794 52.0551 75.5391 49.6488 76.7422 47.5291C77.974 45.3806 79.4062 43.5043 81.0391 41.9001C82.7005 40.296 84.4766 38.9639 86.3672 37.9041C90.0911 35.7843 93.7578 34.7244 97.3672 34.7244C100.977 34.7244 103.87 35.3689 106.047 36.658C108.224 37.9184 110 39.6085 111.375 41.7283C113.924 45.7673 115.199 51.1384 115.199 57.8416C115.199 60.3337 114.154 61.6085 112.062 61.6658L82.0703 62.3103C82.2422 68.5264 83.8464 73.1241 86.8828 76.1033C89.4609 78.6241 92.7982 79.8845 96.8945 79.8845C102.996 79.8845 107.952 78.6098 111.762 76.0603C112.02 76.0603 112.335 76.2751 112.707 76.7048C113.423 77.5642 113.781 78.309 113.781 78.9392C113.781 80.3142 112.062 82.0759 108.625 84.2244C104.672 86.6879 100.06 87.9197 94.7891 87.9197C87.9141 87.9197 82.5143 85.7283 78.5898 81.3455C74.7227 77.0486 72.7891 71.2621 72.7891 63.9861ZM82.3281 56.7673C90.5781 56.3663 98.1263 55.8363 104.973 55.1775C105.288 46.0681 102.137 41.5134 95.5195 41.5134C91.8242 41.5134 88.8021 42.9457 86.4531 45.8103C84.3047 48.4457 82.9297 52.0981 82.3281 56.7673ZM78.1602 19.7283C77.5872 19.4418 77.3008 18.9835 77.3008 18.3533C77.3008 17.6944 77.5299 16.9496 77.9883 16.1189C78.4753 15.2595 79.0768 14.4574 79.793 13.7126C81.569 11.9653 83.2448 11.0916 84.8203 11.0916C85.6797 11.0916 86.4245 11.4067 87.0547 12.0369L100.762 25.7439C100.962 25.9444 101.062 26.1879 101.062 26.4744C101.062 26.7608 100.977 27.0616 100.805 27.3767C100.633 27.6632 100.389 27.9496 100.074 28.2361C99.3581 28.8949 98.5846 29.2244 97.7539 29.2244L78.1602 19.7283ZM141.324 69.9587C140.236 71.0473 139.691 72.1072 139.691 73.1384C139.691 74.1697 139.992 74.9574 140.594 75.5017C141.195 76.0173 141.983 76.4184 142.957 76.7048C144.447 77.1059 146.094 77.3064 147.898 77.3064H151.594C160.932 77.3064 167.077 79.5408 170.027 84.0095C171.116 85.671 171.66 87.6905 171.66 90.0681C171.66 92.4744 171.259 94.5798 170.457 96.3845C169.655 98.1892 168.581 99.7791 167.234 101.154C165.888 102.558 164.327 103.761 162.551 104.763C160.775 105.766 158.898 106.582 156.922 107.213C153.055 108.502 149.445 109.146 146.094 109.146C142.742 109.146 139.806 108.874 137.285 108.33C134.793 107.814 132.573 106.998 130.625 105.881C126.414 103.446 124.309 99.9509 124.309 95.3962C124.309 91.5291 126.242 88.0629 130.109 84.9978C131.284 84.0811 132.53 83.2647 133.848 82.5486C132.301 81.2595 131.527 79.5264 131.527 77.3494C131.527 73.9405 133.217 71.0759 136.598 68.7556C131.642 66.865 128.391 63.4848 126.844 58.615C126.357 57.0108 126.113 55.2205 126.113 53.2439C126.113 51.2673 126.414 49.4054 127.016 47.658C127.646 45.9106 128.491 44.3494 129.551 42.9744C130.639 41.5994 131.9 40.3962 133.332 39.365C134.764 38.3337 136.297 37.4744 137.93 36.7869C141.138 35.4119 144.504 34.7244 148.027 34.7244C153.842 34.7244 158.483 36.1853 161.949 39.1072C162.322 37.6749 162.508 36.1996 162.508 34.6814C162.508 33.1632 162.178 31.9314 161.52 30.9861C162.637 29.6684 164.298 29.0095 166.504 29.0095C167.764 29.0095 168.767 29.3533 169.512 30.0408C170.944 31.2725 171.66 32.5043 171.66 33.7361C171.66 34.9392 171.474 35.9991 171.102 36.9158C170.729 37.8038 170.242 38.6488 169.641 39.4509C168.581 40.9405 167.206 42.2869 165.516 43.49C166.661 45.6384 167.234 48.1306 167.234 50.9666C167.234 53.7738 166.604 56.3949 165.344 58.8298C164.112 61.2361 162.451 63.2843 160.359 64.9744C156.062 68.4405 150.763 70.1736 144.461 70.1736C143.602 70.1736 142.556 70.102 141.324 69.9587ZM139.219 60.8064C140.25 61.809 141.424 62.5538 142.742 63.0408C144.06 63.5278 145.464 63.7712 146.953 63.7712C148.471 63.7712 149.889 63.5564 151.207 63.1267C152.553 62.697 153.714 62.0668 154.688 61.2361C156.779 59.46 157.824 56.9392 157.824 53.6736C157.824 50.0642 156.893 47.0564 155.031 44.6501C152.911 41.9861 149.932 40.6541 146.094 40.6541C141.253 40.6541 138.116 42.6306 136.684 46.5837C136.197 47.9301 135.953 49.5916 135.953 51.5681C135.953 53.5447 136.24 55.3207 136.812 56.8962C137.414 58.4718 138.216 59.7751 139.219 60.8064ZM139.262 85.0837C135.509 87.6332 133.633 90.5264 133.633 93.7634C133.633 96.5707 135.266 98.7048 138.531 100.166C141.138 101.369 144.346 101.97 148.156 101.97C151.622 101.97 154.831 101.398 157.781 100.252C161.648 98.7335 163.582 96.2556 163.582 92.8181C163.582 88.2061 159.844 85.9001 152.367 85.9001L148.543 85.9431C144.647 85.9431 141.553 85.6567 139.262 85.0837ZM186.012 87.1033C181.629 87.1033 179.438 86.1007 179.438 84.0955C179.438 83.0356 179.652 82.2335 180.082 81.6892C180.77 81.9184 181.414 82.033 182.016 82.033C184.508 82.033 185.797 80.5291 185.883 77.5212V23.7244C185.883 21.7192 185.682 20.4444 185.281 19.9001C184.622 18.9835 183.562 18.5251 182.102 18.5251C181.443 18.5251 180.798 18.5968 180.168 18.74C179.566 18.8546 179.137 18.8546 178.879 18.74C178.65 18.5968 178.464 18.4106 178.32 18.1814C177.747 17.2361 178.464 16.033 180.469 14.572C183.62 12.2517 186.728 11.0916 189.793 11.0916C193.059 11.0916 194.892 12.8533 195.293 16.3767C195.408 17.4366 195.465 18.5538 195.465 19.7283V77.6931C195.551 79.9275 196.367 81.3025 197.914 81.8181C198.372 81.9613 198.902 82.0903 199.504 82.2048C200.134 82.3194 200.707 82.4626 201.223 82.6345C201.738 82.7778 202.139 82.9496 202.426 83.1501C202.913 83.5225 203.156 84.1241 203.156 84.9548C203.156 85.9574 202.927 86.7452 202.469 87.3181C201.896 87.1749 200.979 87.1033 199.719 87.1033H186.012ZM209.258 63.9861C209.258 60.5199 209.616 57.4405 210.332 54.7478C211.048 52.0551 212.008 49.6488 213.211 47.5291C214.443 45.3806 215.875 43.5043 217.508 41.9001C219.169 40.296 220.945 38.9639 222.836 37.9041C226.56 35.7843 230.227 34.7244 233.836 34.7244C237.445 34.7244 240.339 35.3689 242.516 36.658C244.693 37.9184 246.469 39.6085 247.844 41.7283C250.393 45.7673 251.668 51.1384 251.668 57.8416C251.668 60.3337 250.622 61.6085 248.531 61.6658L218.539 62.3103C218.711 68.5264 220.315 73.1241 223.352 76.1033C225.93 78.6241 229.267 79.8845 233.363 79.8845C239.465 79.8845 244.421 78.6098 248.23 76.0603C248.488 76.0603 248.803 76.2751 249.176 76.7048C249.892 77.5642 250.25 78.309 250.25 78.9392C250.25 80.3142 248.531 82.0759 245.094 84.2244C241.141 86.6879 236.529 87.9197 231.258 87.9197C224.383 87.9197 218.983 85.7283 215.059 81.3455C211.191 77.0486 209.258 71.2621 209.258 63.9861ZM218.797 56.7673C227.047 56.3663 234.595 55.8363 241.441 55.1775C241.757 46.0681 238.605 41.5134 231.988 41.5134C228.293 41.5134 225.271 42.9457 222.922 45.8103C220.773 48.4457 219.398 52.0981 218.797 56.7673ZM19.4219 167.799L19.3789 179.099C19.3789 183.826 19.6224 186.676 20.1094 187.65C20.5964 188.595 21.1693 189.168 21.8281 189.369C22.487 189.541 23.332 189.627 24.3633 189.627C25.3945 189.627 26.3255 189.555 27.1562 189.412C28.0156 189.24 28.8177 189.025 29.5625 188.767C30.3073 188.51 31.0234 188.223 31.7109 187.908L33.8164 187.006C34.3034 186.834 34.8477 187.335 35.4492 188.51C35.6211 188.825 35.707 189.197 35.707 189.627C35.707 190.028 35.5352 190.558 35.1914 191.217C34.8477 191.875 34.1745 192.635 33.1719 193.494C32.1979 194.325 31.0521 195.069 29.7344 195.728C26.8698 197.189 24.2917 197.92 22 197.92C19.737 197.92 17.8893 197.791 16.457 197.533C15.0247 197.275 13.8073 196.76 12.8047 195.986C10.7422 194.382 9.71094 191.446 9.71094 187.177V153.361H5.45703C4.56901 153.361 3.92448 153.075 3.52344 152.502C2.83594 151.614 2.49219 150.869 2.49219 150.267C2.49219 149.265 2.73568 148.706 3.22266 148.592C7.77734 147.818 11 144.438 12.8906 138.451C13.4349 136.646 13.8646 134.512 14.1797 132.049C15.5547 131.819 16.5859 131.705 17.2734 131.705C17.9896 131.705 18.6055 132.063 19.1211 132.779C19.6367 133.495 19.8802 134.326 19.8516 135.271C19.8516 136.217 19.8372 137.105 19.8086 137.935C19.7799 138.766 19.7513 139.668 19.7227 140.642L19.5508 146.658H34.418C34.7904 147.317 34.9766 148.019 34.9766 148.763V150.095C34.9766 151.299 34.332 152.287 33.043 153.06C31.7539 153.805 30.3216 154.177 28.7461 154.177C27.1992 154.177 26.082 154.163 25.3945 154.135C24.7357 154.077 24.0911 154.02 23.4609 153.963L21.5703 153.705C20.9115 153.648 20.2096 153.59 19.4648 153.533V154.006L19.4219 167.799ZM42.4102 173.385C42.4102 169.89 42.7539 166.753 43.4414 163.974C44.1289 161.196 45.0742 158.747 46.2773 156.627C47.4805 154.507 48.8984 152.702 50.5312 151.213C52.1641 149.694 53.9115 148.463 55.7734 147.517C59.4115 145.655 63.4076 144.724 67.7617 144.724C73.3477 144.724 78.0885 146.758 81.9844 150.826C86.3099 155.295 88.4727 161.196 88.4727 168.529C88.4727 178.154 85.8516 185.645 80.6094 191.002C76.0547 195.614 70.5977 197.92 64.2383 197.92C57.5924 197.92 52.2643 195.585 48.2539 190.916C44.3581 186.418 42.4102 180.575 42.4102 173.385ZM66.7734 190.916C68.6927 190.916 70.4115 190.472 71.9297 189.584C73.4479 188.667 74.737 187.421 75.7969 185.845C77.9167 182.58 78.9766 178.34 78.9766 173.127C78.9766 167.398 77.8594 162.528 75.625 158.517C73.1042 153.905 69.4805 151.599 64.7539 151.599C60.944 151.599 57.8932 153.06 55.6016 155.982C53.1667 159.076 51.9492 163.401 51.9492 168.959C51.9492 175.92 53.4818 181.42 56.5469 185.459C59.2969 189.097 62.7057 190.916 66.7734 190.916ZM120.484 197.318C119.911 197.175 118.995 197.103 117.734 197.103H104.027C101.277 197.103 99.5156 196.616 98.7422 195.642C98.4271 195.27 98.2695 194.84 98.2695 194.353C98.2695 193.15 98.4987 192.262 98.957 191.689C99.6445 191.918 100.418 192.033 101.277 192.033C102.165 192.033 102.824 191.675 103.254 190.959C103.712 190.243 103.927 188.911 103.898 186.963V158.861C103.898 156.168 103.397 154.493 102.395 153.834C101.993 153.576 101.464 153.447 100.805 153.447C100.146 153.447 99.6159 153.547 99.2148 153.748C98.8424 153.948 98.5273 154.092 98.2695 154.177C98.0404 154.263 97.8398 154.263 97.668 154.177C97.4961 154.063 97.3242 153.905 97.1523 153.705C96.7227 153.247 96.5078 152.774 96.5078 152.287C96.5078 151.771 96.6797 151.241 97.0234 150.697C97.3958 150.124 97.9831 149.48 98.7852 148.763C99.5872 148.019 100.504 147.345 101.535 146.744C103.855 145.398 106.176 144.724 108.496 144.724C111.16 144.724 112.736 146.486 113.223 150.01C113.366 151.041 113.452 152.101 113.48 153.189C117.749 149.608 122.389 147.059 127.402 145.541C129.207 144.997 131.026 144.724 132.859 144.724C134.721 144.724 136.483 144.968 138.145 145.455C139.835 145.942 141.296 146.73 142.527 147.818C145.134 150.11 146.438 153.691 146.438 158.56V187.693C146.523 189.927 147.354 191.302 148.93 191.818C149.359 191.961 149.889 192.09 150.52 192.205C151.15 192.319 151.708 192.463 152.195 192.635C152.711 192.778 153.112 192.95 153.398 193.15C153.885 193.523 154.129 194.124 154.129 194.955C154.129 195.957 153.9 196.745 153.441 197.318C152.868 197.175 151.952 197.103 150.691 197.103H136.984C134.234 197.103 132.473 196.616 131.699 195.642C131.384 195.27 131.227 194.84 131.227 194.353C131.227 193.15 131.456 192.262 131.914 191.689C132.602 191.918 133.232 192.033 133.805 192.033C134.406 192.033 134.908 191.961 135.309 191.818C135.71 191.646 136.025 191.374 136.254 191.002C136.655 190.314 136.855 188.968 136.855 186.963V161.611C136.855 156.741 135.409 154.02 132.516 153.447C131.628 153.275 130.51 153.189 129.164 153.189C127.846 153.189 126.385 153.39 124.781 153.791C123.177 154.192 121.673 154.707 120.27 155.338C117.577 156.541 115.314 158.059 113.48 159.892V187.693C113.566 189.927 114.383 191.302 115.93 191.818C116.388 191.961 116.918 192.09 117.52 192.205C118.15 192.319 118.723 192.463 119.238 192.635C119.754 192.778 120.155 192.95 120.441 193.15C120.928 193.523 121.172 194.124 121.172 194.955C121.172 195.957 120.943 196.745 120.484 197.318ZM222.406 160.408L222.449 158.861C222.449 158.317 222.32 157.4 222.062 156.111C221.805 154.793 220.974 153.719 219.57 152.888C218.195 152.058 216.434 151.642 214.285 151.642C212.165 151.642 210.275 152.187 208.613 153.275C206.98 154.335 205.648 155.767 204.617 157.572C202.669 161.01 201.695 165.607 201.695 171.365C201.695 176.808 203.013 181.233 205.648 184.642C208.341 188.137 211.893 189.885 216.305 189.885C220.315 189.885 224.154 188.782 227.82 186.576C228.708 186.032 229.396 185.559 229.883 185.158C230.169 185.158 230.499 185.387 230.871 185.845C231.587 186.676 231.945 187.349 231.945 187.865C231.945 188.352 231.745 188.925 231.344 189.584C230.943 190.214 230.355 190.901 229.582 191.646C228.837 192.362 227.935 193.093 226.875 193.838C225.815 194.582 224.626 195.256 223.309 195.857C220.301 197.232 217.221 197.92 214.07 197.92C210.919 197.92 207.969 197.39 205.219 196.33C202.497 195.241 200.148 193.651 198.172 191.56C193.932 187.12 191.812 181.019 191.812 173.256C191.812 164.433 194.505 157.343 199.891 151.986C204.789 147.145 210.447 144.724 216.863 144.724C221.074 144.724 224.583 145.627 227.391 147.431C230.341 149.322 231.816 151.814 231.816 154.908C231.816 156.598 231.444 157.873 230.699 158.732C229.41 160.25 227.906 161.01 226.188 161.01C224.497 161.01 223.237 160.809 222.406 160.408ZM238.219 151.642L237.316 151.814C236.686 151.814 236.242 151.385 235.984 150.525C235.898 150.296 235.855 149.967 235.855 149.537C235.855 149.107 236.099 148.577 236.586 147.947C237.073 147.317 237.703 146.773 238.477 146.314C240.195 145.254 242.014 144.724 243.934 144.724C245.452 144.724 246.54 144.939 247.199 145.369C248.488 146.171 249.491 147.804 250.207 150.267L263.312 188.295C266.005 182.308 267.853 178.068 268.855 175.576L271.477 168.916C273.911 162.385 275.129 158.131 275.129 156.154C275.129 154.149 274.785 152.688 274.098 151.771C273.41 150.855 272.221 150.31 270.531 150.138C270.216 149.795 270.059 149.336 270.059 148.763C270.059 148.162 270.316 147.618 270.832 147.131C271.376 146.615 272.078 146.171 272.938 145.799C274.685 145.082 276.475 144.724 278.309 144.724C280.171 144.724 281.488 144.825 282.262 145.025C283.035 145.197 283.651 145.498 284.109 145.927C284.997 146.73 285.441 148.219 285.441 150.396C285.441 152.344 283.909 157.486 280.844 165.822C277.979 173.27 275.831 178.67 274.398 182.021C269.128 193.766 265.16 201.987 262.496 206.685C259.832 211.383 257.311 214.635 254.934 216.439C252.556 218.273 250.049 219.189 247.414 219.189C244.779 219.189 242.788 218.616 241.441 217.47C240.095 216.353 239.422 214.806 239.422 212.83C239.422 211.34 239.794 210.223 240.539 209.478C241.943 208.075 243.432 207.53 245.008 207.845C245.266 209.994 246.555 211.068 248.875 211.068C250.966 211.068 252.842 209.707 254.504 206.986C255.277 205.697 256.036 204.193 256.781 202.474L259.273 196.931L260.133 195.17C258.471 194.941 257.068 194.124 255.922 192.72C255.464 192.176 255.091 191.489 254.805 190.658L242.773 159.076L241.742 156.541C240.424 153.275 239.25 151.642 238.219 151.642ZM322.867 160.408L322.91 158.861C322.91 158.317 322.781 157.4 322.523 156.111C322.266 154.793 321.435 153.719 320.031 152.888C318.656 152.058 316.895 151.642 314.746 151.642C312.626 151.642 310.736 152.187 309.074 153.275C307.441 154.335 306.109 155.767 305.078 157.572C303.13 161.01 302.156 165.607 302.156 171.365C302.156 176.808 303.474 181.233 306.109 184.642C308.802 188.137 312.354 189.885 316.766 189.885C320.776 189.885 324.615 188.782 328.281 186.576C329.169 186.032 329.857 185.559 330.344 185.158C330.63 185.158 330.96 185.387 331.332 185.845C332.048 186.676 332.406 187.349 332.406 187.865C332.406 188.352 332.206 188.925 331.805 189.584C331.404 190.214 330.816 190.901 330.043 191.646C329.298 192.362 328.396 193.093 327.336 193.838C326.276 194.582 325.087 195.256 323.77 195.857C320.762 197.232 317.682 197.92 314.531 197.92C311.38 197.92 308.43 197.39 305.68 196.33C302.958 195.241 300.609 193.651 298.633 191.56C294.393 187.12 292.273 181.019 292.273 173.256C292.273 164.433 294.966 157.343 300.352 151.986C305.25 147.145 310.908 144.724 317.324 144.724C321.535 144.724 325.044 145.627 327.852 147.431C330.802 149.322 332.277 151.814 332.277 154.908C332.277 156.598 331.905 157.873 331.16 158.732C329.871 160.25 328.367 161.01 326.648 161.01C324.958 161.01 323.698 160.809 322.867 160.408ZM348.262 197.103C343.879 197.103 341.688 196.101 341.688 194.095C341.688 193.036 341.902 192.233 342.332 191.689C343.02 191.918 343.664 192.033 344.266 192.033C346.758 192.033 348.047 190.529 348.133 187.521V133.724C348.133 131.719 347.932 130.444 347.531 129.9C346.872 128.983 345.812 128.525 344.352 128.525C343.693 128.525 343.048 128.597 342.418 128.74C341.816 128.855 341.387 128.855 341.129 128.74C340.9 128.597 340.714 128.411 340.57 128.181C339.997 127.236 340.714 126.033 342.719 124.572C345.87 122.252 348.978 121.092 352.043 121.092C355.309 121.092 357.142 122.853 357.543 126.377C357.658 127.437 357.715 128.554 357.715 129.728V187.693C357.801 189.927 358.617 191.302 360.164 191.818C360.622 191.961 361.152 192.09 361.754 192.205C362.384 192.319 362.957 192.463 363.473 192.635C363.988 192.778 364.389 192.95 364.676 193.15C365.163 193.523 365.406 194.124 365.406 194.955C365.406 195.957 365.177 196.745 364.719 197.318C364.146 197.175 363.229 197.103 361.969 197.103H348.262ZM371.508 173.986C371.508 170.52 371.866 167.441 372.582 164.748C373.298 162.055 374.258 159.649 375.461 157.529C376.693 155.381 378.125 153.504 379.758 151.9C381.419 150.296 383.195 148.964 385.086 147.904C388.81 145.784 392.477 144.724 396.086 144.724C399.695 144.724 402.589 145.369 404.766 146.658C406.943 147.918 408.719 149.608 410.094 151.728C412.643 155.767 413.918 161.138 413.918 167.842C413.918 170.334 412.872 171.608 410.781 171.666L380.789 172.31C380.961 178.526 382.565 183.124 385.602 186.103C388.18 188.624 391.517 189.885 395.613 189.885C401.715 189.885 406.671 188.61 410.48 186.06C410.738 186.06 411.053 186.275 411.426 186.705C412.142 187.564 412.5 188.309 412.5 188.939C412.5 190.314 410.781 192.076 407.344 194.224C403.391 196.688 398.779 197.92 393.508 197.92C386.633 197.92 381.233 195.728 377.309 191.345C373.441 187.049 371.508 181.262 371.508 173.986ZM381.047 166.767C389.297 166.366 396.845 165.836 403.691 165.177C404.007 156.068 400.855 151.513 394.238 151.513C390.543 151.513 387.521 152.946 385.172 155.81C383.023 158.446 381.648 162.098 381.047 166.767Z" fill="black"/>
<defs>
<linearGradient id="paint0_linear_286_980" x1="347.104" y1="150.249" x2="395.426" y2="277.674" gradientUnits="userSpaceOnUse">
<stop stop-color="#BA68C8"/>
<stop offset="0.96875" stop-color="#DDB3E3" stop-opacity="0"/>
</linearGradient>
</defs>
</svg>
