<svg xmlns="http://www.w3.org/2000/svg" viewBox="0 0 302.2 105.6"><defs><style>.cls-1{stroke:#fefefe;stroke-miterlimit:10;}.cls-2{fill:#fcdc02;}</style></defs><title>logodwtd</title><g id="Calque_2" data-name="Calque 2"><g id="Calque_1-2" data-name="Calque 1"><path class="cls-1" d="M.5.5H23.8A53.7,53.7,0,0,1,40.8,3a33.32,33.32,0,0,1,13,7.7,35.63,35.63,0,0,1,8.4,13.2,54.71,54.71,0,0,1,3,19.1,55.3,55.3,0,0,1-3,19.2,36.7,36.7,0,0,1-8.3,13.5,34.3,34.3,0,0,1-12.7,8,47.25,47.25,0,0,1-16.3,2.6H.5ZM22.7,70.6a29,29,0,0,0,9.1-1.4,17,17,0,0,0,7.1-4.7A21.55,21.55,0,0,0,43.5,56a44.36,44.36,0,0,0,1.6-13,42.49,42.49,0,0,0-1.6-12.8,20.67,20.67,0,0,0-4.6-8.3,16.4,16.4,0,0,0-7.1-4.4,29.44,29.44,0,0,0-9.1-1.3H19.9V70.7h2.8Z"/><path class="cls-1" d="M71.4.5H91.1l2.8,45.7c.1,3.7.2,7.3.3,10.9s.2,7.2.3,10.9h.4c.7-3.7,1.5-7.3,2.3-10.9s1.6-7.2,2.3-10.9l5.9-23.8h11.7l5.7,23.8c.7,3.5,1.4,7.1,2.2,10.8s1.5,7.4,2.2,11.1h.5c.2-3.7.3-7.3.3-11s.2-7.3.3-10.9L130.9.5h18.4L138.6,86.3H118.3l-5.4-27c-.5-2.7-1-5.5-1.4-8.4s-.7-5.5-.9-8.1h-.4c-.3,2.5-.6,5.2-1,8.1s-.9,5.6-1.4,8.4l-5.1,27H82.9Z"/><path class="cls-1" d="M179.6,16.8H153.9V.5h70.8V16.8H199V86.3H179.5V16.8Z"/><rect class="cls-2" x="243.7" y="86.3" width="58.5" height="19.3"/></g></g></svg>