<svg width="314" height="560" viewBox="0 0 314 560" fill="none" xmlns="http://www.w3.org/2000/svg">
<path d="M14.2846 343.798C15.202 344.967 15.7532 346.374 15.8689 347.841C15.9845 349.308 15.6593 350.77 14.9343 352.041C14.2093 353.313 13.1171 354.338 11.7954 354.986C10.4738 355.635 8.98206 355.878 7.50859 355.684C6.03512 355.491 4.64597 354.87 3.51655 353.901C2.38712 352.931 1.56806 351.656 1.16279 350.236C0.757514 348.816 0.784201 347.315 1.23947 345.923C1.69474 344.53 2.55818 343.309 3.72077 342.413C4.49286 341.811 5.38042 341.369 6.33181 341.112C7.2832 340.855 8.27943 340.79 9.2625 340.918C10.2456 341.047 11.1958 341.368 12.058 341.863C12.9202 342.357 13.6771 343.015 14.2846 343.798Z" fill="#B16668"/>
<path d="M30.8705 377.144C31.7879 378.313 32.3392 379.719 32.4548 381.187C32.5705 382.654 32.2452 384.115 31.5202 385.387C30.7952 386.659 29.703 387.684 28.3814 388.332C27.0597 388.98 25.568 389.223 24.0945 389.03C22.6211 388.837 21.2319 388.216 20.1025 387.247C18.9731 386.277 18.154 385.001 17.7487 383.581C17.3435 382.161 17.3701 380.661 17.8254 379.268C18.2807 377.876 19.1441 376.655 20.3067 375.759C21.0788 375.157 21.9664 374.714 22.9178 374.458C23.8691 374.201 24.8654 374.135 25.8484 374.264C26.8315 374.393 27.7818 374.714 28.644 375.208C29.5061 375.703 30.263 376.361 30.8705 377.144Z" fill="#B16668"/>
<path d="M41.8841 341.151C42.678 342.12 43.1642 343.299 43.28 344.535C43.3958 345.771 43.1359 347.007 42.5339 348.084C41.9319 349.162 41.0153 350.031 39.9022 350.581C38.7891 351.13 37.5305 351.334 36.2887 351.166C35.0469 350.998 33.8786 350.467 32.9346 349.64C31.9905 348.813 31.3139 347.728 30.9918 346.526C30.6698 345.323 30.7171 344.058 31.1277 342.893C31.5383 341.729 32.2933 340.718 33.2955 339.991C34.5864 339.054 36.1993 338.652 37.7989 338.868C39.3984 339.085 40.8616 339.902 41.8841 341.151Z" fill="#B16668"/>
<path d="M65.5993 352.66C66.3792 353.625 66.8538 354.795 66.9624 356.019C67.0709 357.244 66.8085 358.467 66.2087 359.532C65.6089 360.597 64.699 361.456 63.5957 361.998C62.4924 362.54 61.2459 362.741 60.0161 362.575C58.7862 362.409 57.6289 361.883 56.6926 361.066C55.7563 360.248 55.0836 359.176 54.7607 357.986C54.4378 356.796 54.4794 355.543 54.8803 354.388C55.2811 353.232 56.0229 352.226 57.0105 351.5C58.2936 350.543 59.912 350.128 61.518 350.345C63.124 350.562 64.5894 351.393 65.5993 352.66Z" fill="#B16668"/>
<path d="M72.5776 328.787C73.3715 329.757 73.8576 330.935 73.9734 332.171C74.0892 333.407 73.8294 334.643 73.2273 335.721C72.6253 336.798 71.7087 337.668 70.5956 338.217C69.4825 338.766 68.2239 338.97 66.982 338.802C65.7402 338.635 64.5719 338.103 63.6278 337.276C62.6838 336.449 62.0071 335.364 61.6851 334.162C61.363 332.959 61.4104 331.694 61.821 330.53C62.2316 329.365 62.9866 328.354 63.9888 327.627C65.2759 326.68 66.8915 326.272 68.4943 326.488C70.097 326.705 71.5613 327.529 72.5776 328.787Z" fill="#B16668"/>
<path d="M128.774 191.435C128.52 191.512 128.247 191.493 128.008 191.381C127.768 191.268 127.58 191.072 127.48 190.828C109.203 145.121 126.274 93.0962 170.959 58.3333C171.186 58.1632 171.469 58.0852 171.75 58.1153C172.032 58.1454 172.29 58.2814 172.473 58.4952C172.639 58.7247 172.71 59.0094 172.67 59.2902C172.629 59.5711 172.482 59.8265 172.258 60.0034C128.339 94.1873 111.568 145.207 129.468 190.012C129.572 190.279 129.566 190.576 129.453 190.841C129.339 191.105 129.126 191.315 128.86 191.428L128.774 191.435Z" fill="#455A64"/>
<path d="M175.687 92.9388C175.126 93.0308 174.56 93.0817 173.993 93.0909C170.066 93.3337 166.129 93.0019 162.306 92.1061C155.045 90.1284 147.327 90.4805 140.25 93.1123C140.086 93.1689 139.91 93.1791 139.741 93.1418C139.572 93.1046 139.417 93.0214 139.293 92.9015C139.187 92.7662 139.122 92.6026 139.107 92.4308C139.093 92.2589 139.129 92.0862 139.212 91.9339C144.099 82.6359 160.075 68.2725 174.401 72.708C183.514 75.5348 183.952 81.2178 183.852 83.5582C183.569 85.7424 182.642 87.7986 181.189 89.4679C179.736 91.1371 177.822 92.3448 175.687 92.9388ZM142.922 90.4138C149.402 88.8616 156.154 88.8951 162.598 90.5115C166.266 91.3751 170.045 91.7067 173.816 91.4961C175.873 91.2337 177.791 90.3052 179.272 88.8543C180.753 87.4035 181.715 85.5109 182.01 83.4693C182.391 79.4082 179.421 76.072 173.855 74.3254C160.716 70.292 147.031 83.0083 141.885 90.7613L142.922 90.4138Z" fill="#455A64"/>
<path d="M140.209 93.2758C140.103 93.3445 139.982 93.3863 139.857 93.3975C139.731 93.4088 139.605 93.3891 139.489 93.3402C139.321 93.1971 139.216 92.9939 139.198 92.7741C139.179 92.5543 139.248 92.3355 139.39 92.1647C145.419 84.3067 162.441 78.8905 173.148 81.4846C173.367 81.5331 173.557 81.6655 173.676 81.8528C173.796 82.0402 173.836 82.2674 173.787 82.4849C173.728 82.706 173.586 82.8965 173.389 83.0166C173.193 83.1366 172.958 83.177 172.733 83.1292C161.676 80.4394 145.896 86.4213 140.755 93.1845C140.585 93.2644 140.396 93.2959 140.209 93.2758Z" fill="#455A64"/>
<path d="M145.251 86.543C145.009 86.6459 144.741 86.67 144.485 86.6117C144.284 86.4728 144.138 86.269 144.071 86.0348C144.004 85.8005 144.021 85.5501 144.119 85.3257C147.074 79.7005 141.053 64.3291 136.308 55.3951C134.828 52.7757 133.984 49.8476 133.841 46.8411C133.698 43.8347 134.26 40.8319 135.483 38.069C136.434 36.3231 137.812 34.8412 139.49 33.7611C141.168 32.681 143.092 32.0376 145.082 31.8909C147.05 31.6969 149.029 32.0888 150.765 33.0167C152.501 33.9445 153.916 35.3663 154.83 37.1007C160.41 46.2579 159.122 66.4959 145.787 86.2823C145.645 86.4299 145.455 86.5224 145.251 86.543ZM143.082 34.1121C141.814 34.4453 140.63 35.0448 139.612 35.8701C138.595 36.6953 137.766 37.727 137.183 38.8952C136.093 41.3776 135.598 44.0739 135.737 46.7711C135.876 49.4683 136.646 52.0926 137.985 54.4364C138.397 55.2504 146.72 70.9684 146.844 81.0399C157.272 63.386 158.072 45.9994 153.185 37.9289C152.451 36.5089 151.306 35.3406 149.897 34.5728C148.488 33.8051 146.877 33.4728 145.271 33.6182C144.524 33.6949 143.79 33.8608 143.082 34.1121Z" fill="#455A64"/>
<path d="M145.26 86.5647C145.046 86.6653 144.802 86.6869 144.574 86.6256C144.344 86.5134 144.168 86.3171 144.084 86.0783C143.999 85.8395 144.012 85.577 144.12 85.3463C151.452 69.9666 148.443 48.2685 146.061 42.6055C145.958 42.3718 145.952 42.107 146.045 41.868C146.138 41.6289 146.322 41.4347 146.557 41.3269C146.675 41.2774 146.802 41.2518 146.929 41.2516C147.057 41.2514 147.183 41.2767 147.3 41.326C147.417 41.3752 147.523 41.4474 147.611 41.5382C147.699 41.6289 147.767 41.7364 147.812 41.8541C150.297 47.7208 153.46 70.2141 145.871 86.1274C145.727 86.3406 145.51 86.4959 145.26 86.5647Z" fill="#455A64"/>
<path d="M206.791 66.1301C195.608 64.9641 184.838 61.348 175.255 55.5414C168.321 38.7464 166.452 31.3097 167.452 17.3698C167.88 14.0052 169.068 10.7759 170.925 7.92324C171.681 6.89977 172.787 6.18587 174.033 5.91718C175.278 5.6485 176.577 5.84374 177.682 6.46583C179.124 7.79391 180.035 9.59693 180.248 11.5456L184.083 28.5769C183.841 22.096 185.266 15.6505 188.224 9.85106C189.325 7.71277 191.217 5.33337 193.568 5.84417C195.919 6.35497 197 10.0389 196.811 12.8598C196.406 20.1756 194.793 27.3827 192.037 34.1917C197.892 28.9383 204.535 24.6276 211.723 21.4175C212.404 21.0009 213.173 20.7468 213.968 20.6753C214.763 20.6038 215.562 20.7169 216.303 21.0056C218.644 22.4094 217.456 26.0425 215.846 28.2266C212.151 33.288 207.489 37.5772 202.129 40.8462C210.126 38.1241 218.629 37.2431 226.995 38.2698C227.652 38.2764 228.301 38.4136 228.902 38.6731C229.504 38.9327 230.047 39.3096 230.499 39.7815C232.041 41.852 229.803 44.6873 227.567 46.0356C221.558 49.5762 214.829 51.7211 207.886 52.3091C212.223 53.0661 222.418 55.8877 222.425 59.4983C222.431 63.1089 214.044 67.0072 206.791 66.1301Z" fill="#82655D"/>
<path opacity="0.15" d="M206.791 66.1301C195.608 64.9641 184.838 61.348 175.255 55.5414C168.321 38.7464 166.452 31.3097 167.452 17.3698C167.88 14.0052 169.068 10.7759 170.925 7.92324C171.681 6.89977 172.787 6.18587 174.033 5.91718C175.278 5.6485 176.577 5.84374 177.682 6.46583C179.124 7.79391 180.035 9.59693 180.248 11.5456L184.083 28.5769C183.841 22.096 185.266 15.6505 188.224 9.85106C189.325 7.71277 191.217 5.33337 193.568 5.84417C195.919 6.35497 197 10.0389 196.811 12.8598C196.406 20.1756 194.793 27.3827 192.037 34.1917C197.892 28.9383 204.535 24.6276 211.723 21.4175C212.404 21.0009 213.173 20.7468 213.968 20.6753C214.763 20.6038 215.562 20.7169 216.303 21.0056C218.644 22.4094 217.456 26.0425 215.846 28.2266C212.151 33.288 207.489 37.5772 202.129 40.8462C210.126 38.1241 218.629 37.2431 226.995 38.2698C227.652 38.2764 228.301 38.4136 228.902 38.6731C229.504 38.9327 230.047 39.3096 230.499 39.7815C232.041 41.852 229.803 44.6873 227.567 46.0356C221.558 49.5762 214.829 51.7211 207.886 52.3091C212.223 53.0661 222.418 55.8877 222.425 59.4983C222.431 63.1089 214.044 67.0072 206.791 66.1301Z" fill="black"/>
<path d="M191.706 459.945C172.861 453.206 157.525 440.882 147.948 424.78C140.006 412.202 134.829 398.154 132.674 383.332C132.283 380.536 132.09 377.702 132.098 374.847C132.291 373.079 132.264 371.319 132.015 369.599C132.004 368.878 130.356 368.334 129.704 369.126C126.662 372.945 127.553 378.908 128.016 383.032C128.869 390.099 130.461 397.007 132.772 403.666C137.761 419.865 147.35 434.2 160.634 445.321C169.547 452.273 179.944 457.555 191.323 460.909C191.809 460.857 191.754 460.18 191.309 460.068L191.706 459.945Z" fill="#455A64"/>
<path d="M161.644 455.067C155.031 472.617 154.639 490.945 160.526 507.502C170.203 536.043 183.583 547.227 197.935 545.7C201.853 545.426 205.709 544.094 208.97 541.889C212.23 539.684 214.731 536.715 216.127 533.394C216.127 533.394 231.349 536.826 237.378 530.286C243.408 523.746 240.685 510.079 240.685 510.079C240.685 510.079 249.577 511.408 253.1 509.607C256.624 507.806 263.522 481.242 249.996 469.071C236.469 456.901 191.76 441.994 161.644 455.067Z" fill="#AE7864"/>
<path opacity="0.25" d="M161.644 455.067C155.031 472.617 154.639 490.945 160.526 507.502C170.203 536.043 183.583 547.227 197.935 545.7C201.853 545.426 205.709 544.094 208.97 541.889C212.23 539.684 214.731 536.715 216.127 533.394C216.127 533.394 231.349 536.826 237.378 530.286C243.408 523.746 240.685 510.079 240.685 510.079C240.685 510.079 249.577 511.408 253.1 509.607C256.624 507.806 263.522 481.242 249.996 469.071C236.469 456.901 191.76 441.994 161.644 455.067Z" fill="black"/>
<path d="M166.278 451.289C184.243 445.615 203.168 443.259 221.499 444.416C253.233 446.11 264.338 452.139 266.521 464.179C268.705 476.218 257.911 480.58 244.933 472.903C244.933 472.903 244.094 479.634 239.049 481.728C236.444 482.623 233.681 483.048 230.978 482.968C228.274 482.888 225.705 482.306 223.473 481.268C221.292 479.753 199.02 452.467 166.278 451.289Z" fill="#AE7864"/>
<path opacity="0.15" d="M166.278 451.289C184.243 445.615 203.168 443.259 221.499 444.416C253.233 446.11 264.338 452.139 266.521 464.179C268.705 476.218 257.911 480.58 244.933 472.903C244.933 472.903 244.094 479.634 239.049 481.728C236.444 482.623 233.681 483.048 230.978 482.968C228.274 482.888 225.705 482.306 223.473 481.268C221.292 479.753 199.02 452.467 166.278 451.289Z" fill="black"/>
<path d="M158.952 459.056C150.688 471.344 145.233 484.865 142.959 498.695C140.503 519.191 144.925 535.544 157.204 528.836C157.204 528.836 157.691 537.078 164.955 537.628C172.22 538.178 187.457 520.186 186.521 503.334C185.585 486.483 158.952 459.056 158.952 459.056Z" fill="#AE7864"/>
<path opacity="0.15" d="M158.952 459.056C150.688 471.344 145.233 484.865 142.959 498.695C140.503 519.191 144.925 535.544 157.204 528.836C157.204 528.836 157.691 537.078 164.955 537.628C172.22 538.178 187.457 520.186 186.521 503.334C185.585 486.483 158.952 459.056 158.952 459.056Z" fill="black"/>
<path d="M166.19 449.925C183.624 446.422 206.852 453.847 218.013 461.47C231.461 470.721 239.21 487.838 233.796 500.081C228.383 512.324 212.789 517.268 212.789 517.268C212.789 517.268 209.932 528.302 194.063 529.57C183.159 530.462 169.291 510.606 162.728 492.661C156.166 474.715 159.48 458.444 166.19 449.925Z" fill="#AE7864"/>
<path d="M150.626 439.717C155.816 440.474 161.469 439.404 175.55 436.195C189.631 432.986 202.27 431.225 203.607 438.429C204.943 445.633 181.568 445.841 181.568 445.841C181.568 445.841 194.294 457.126 187.605 463.423C178.862 471.751 164.583 456.919 164.583 456.919C164.583 456.919 164.282 474.085 155.974 475.246C147.666 476.408 145.793 468.889 148.238 459.733C150.683 450.577 152.802 443.533 150.626 439.717Z" fill="#455A64"/>
<path d="M148.21 355.8C133.593 343.792 188.683 310.037 176.141 301.399C135.941 273.691 171.857 203.662 180.572 182.281C181.471 180.035 173.492 172.715 176.302 167.686C178.144 164.408 182.755 163.141 184.535 163.283C192.062 163.914 308.884 230.402 308.884 230.402C308.65 232.349 312.141 243.574 301.189 244.802C296.111 245.36 290.267 242.324 289.624 243.939C286.122 252.897 244.501 311.405 191.472 313.096C178.365 313.522 186.254 338.181 160.36 357.243C155.363 360.914 148.483 356.022 148.21 355.8Z" stroke="black" stroke-width="2" stroke-miterlimit="10"/>
<path d="M196.034 296.145C200.884 292.855 235.364 294.718 244.881 271.999" stroke="black" stroke-width="2" stroke-miterlimit="10"/>
</svg>
