<svg width="368" height="742" viewBox="0 0 368 742" fill="none" xmlns="http://www.w3.org/2000/svg">
<path d="M141.866 708.544C141.9 708.704 141.873 708.87 141.79 709.01C141.708 709.151 141.576 709.256 141.421 709.304C112.245 718.112 81.1287 704.979 62.1761 675.856C62.0838 675.708 62.0514 675.531 62.0855 675.36C62.1196 675.19 62.2177 675.039 62.3596 674.938C62.5101 674.848 62.6895 674.82 62.8603 674.859C63.0312 674.898 63.1804 675.002 63.277 675.148C81.9151 703.773 112.428 716.671 141.027 708.046C141.198 707.997 141.381 708.016 141.537 708.099C141.694 708.182 141.812 708.323 141.866 708.492V708.544Z" fill="#455A64"/>
<path d="M83.8023 674.571C83.8281 674.92 83.8281 675.271 83.8023 675.62C83.7343 678.045 83.3104 680.448 82.544 682.75C80.9176 687.109 80.7066 691.869 81.9411 696.355C81.9669 696.459 81.9634 696.567 81.931 696.669C81.8986 696.771 81.8386 696.862 81.7576 696.932C81.668 696.99 81.5632 697.021 81.4561 697.021C81.349 697.021 81.2443 696.99 81.1547 696.932C75.676 693.445 67.6807 682.881 71.2196 674.309C73.474 668.856 77.0129 668.883 78.4546 669.066C79.7897 669.354 81.0099 670.03 81.9614 671.009C82.913 671.989 83.5535 673.228 83.8023 674.571ZM80.4207 694.572C79.8207 690.51 80.2165 686.363 81.5741 682.488C82.312 680.278 82.7269 677.974 82.8061 675.646C82.7581 674.368 82.2905 673.141 81.4755 672.156C80.6605 671.17 79.5436 670.48 78.2973 670.193C75.807 669.748 73.5788 671.399 72.1895 674.728C68.9652 682.593 76.0692 691.663 80.578 695.228L80.4207 694.572Z" fill="#455A64"/>
<path d="M82.0447 696.408C82.0815 696.476 82.1007 696.553 82.1007 696.63C82.1007 696.708 82.0815 696.785 82.0447 696.853C81.9467 696.949 81.815 697.003 81.6777 697.003C81.5405 697.003 81.4088 696.949 81.3108 696.853C76.7758 692.738 74.3641 681.99 76.566 675.541C76.6082 675.41 76.7008 675.3 76.8235 675.236C76.9463 675.172 77.0893 675.159 77.2214 675.201C77.3551 675.248 77.4653 675.346 77.5288 675.473C77.5923 675.6 77.6042 675.746 77.5622 675.882C75.2816 682.54 78.1127 692.554 82.0185 696.067C82.0585 696.176 82.0676 696.294 82.0447 696.408Z" fill="#455A64"/>
<path d="M78.1936 692.895C78.2436 693.048 78.2436 693.213 78.1936 693.366C78.0969 693.482 77.9632 693.561 77.8152 693.59C77.6672 693.618 77.5138 693.595 77.3809 693.524C74.078 691.427 64.274 694.31 58.5069 696.748C56.8112 697.516 54.9604 697.881 53.1 697.812C51.2395 697.744 49.4203 697.245 47.7855 696.355C46.7622 695.683 45.9252 694.764 45.3523 693.682C44.7794 692.601 44.4893 691.392 44.5087 690.168C44.4979 688.955 44.8487 687.766 45.5163 686.753C46.1839 685.74 47.1382 684.948 48.2573 684.48C54.2079 681.544 66.607 683.379 78.0625 692.554C78.1456 692.648 78.1921 692.769 78.1936 692.895ZM45.767 691.505C45.9022 692.298 46.2063 693.052 46.6586 693.717C47.1109 694.382 47.7008 694.942 48.3884 695.359C49.8578 696.153 51.4919 696.595 53.1615 696.65C54.8312 696.705 56.4907 696.37 58.0089 695.673C58.5332 695.463 68.6779 691.191 74.8906 691.636C64.5886 684.349 53.9195 682.959 48.6767 685.528C47.7613 685.903 46.9781 686.542 46.4272 687.364C45.8763 688.186 45.5826 689.153 45.5835 690.142C45.5896 690.602 45.6512 691.06 45.767 691.505Z" fill="#455A64"/>
<path d="M78.1939 692.895C78.2441 693.03 78.2441 693.179 78.1939 693.314C78.1123 693.448 77.9818 693.544 77.8301 693.583C77.6784 693.623 77.5175 693.601 77.3813 693.524C68.3113 688.281 54.785 688.989 51.1674 690.142C51.0179 690.193 50.8545 690.182 50.7124 690.114C50.5703 690.045 50.4607 689.924 50.4072 689.775C50.3832 689.701 50.3743 689.623 50.3812 689.546C50.388 689.468 50.4105 689.393 50.4473 689.324C50.484 689.256 50.5342 689.195 50.5949 689.147C50.6556 689.098 50.7255 689.062 50.8005 689.041C54.549 687.835 68.5735 687.075 77.958 692.501C78.0814 692.6 78.1652 692.739 78.1939 692.895Z" fill="#455A64"/>
<path d="M68.993 653.941C67.6529 660.741 64.8241 667.159 60.7094 672.736C49.9618 676.118 45.2695 676.878 36.7238 675.541C34.6715 675.103 32.7448 674.207 31.0878 672.92C30.4982 672.403 30.1191 671.687 30.0224 670.909C29.9258 670.131 30.1183 669.345 30.5635 668.699C31.463 667.883 32.6261 667.418 33.8402 667.389L44.5617 665.921C40.5494 665.733 36.6515 664.524 33.2373 662.408C31.979 661.621 30.6159 660.337 31.0616 658.921C31.5072 657.506 33.8402 657.034 35.5703 657.296C40.0619 657.925 44.4192 659.289 48.4676 661.333C45.551 657.468 43.26 653.169 41.6782 648.593C41.4589 648.154 41.3448 647.669 41.3448 647.178C41.3448 646.686 41.4589 646.202 41.6782 645.762C42.6743 644.399 44.85 645.316 46.1083 646.417C49.0263 648.947 51.414 652.03 53.1336 655.487C51.8978 650.441 51.8261 645.179 52.9239 640.1C52.9645 639.697 53.0851 639.306 53.2786 638.951C53.4722 638.595 53.7348 638.282 54.0511 638.029C55.4142 637.19 57.0395 638.711 57.7473 640.152C59.5984 644.022 60.5484 648.262 60.5259 652.552C61.2337 649.93 63.5405 643.822 65.7687 644.006C67.9969 644.189 69.9367 649.537 68.993 653.941Z" fill="#BA68C8"/>
<path opacity="0.15" d="M68.993 653.941C67.6529 660.741 64.8241 667.159 60.7094 672.736C49.9618 676.118 45.2695 676.878 36.7238 675.541C34.6715 675.103 32.7448 674.207 31.0878 672.92C30.4982 672.403 30.1191 671.687 30.0224 670.909C29.9258 670.131 30.1183 669.345 30.5635 668.699C31.463 667.883 32.6261 667.418 33.8402 667.389L44.5617 665.921C40.5494 665.733 36.6515 664.524 33.2373 662.408C31.979 661.621 30.6159 660.337 31.0616 658.921C31.5072 657.506 33.8402 657.034 35.5703 657.296C40.0619 657.925 44.4192 659.289 48.4676 661.333C45.551 657.468 43.26 653.169 41.6782 648.593C41.4589 648.154 41.3448 647.669 41.3448 647.178C41.3448 646.686 41.4589 646.202 41.6782 645.762C42.6743 644.399 44.85 645.316 46.1083 646.417C49.0263 648.947 51.414 652.03 53.1336 655.487C51.8978 650.441 51.8261 645.179 52.9239 640.1C52.9645 639.697 53.0851 639.306 53.2786 638.951C53.4722 638.595 53.7348 638.282 54.0511 638.029C55.4142 637.19 57.0395 638.711 57.7473 640.152C59.5984 644.022 60.5484 648.262 60.5259 652.552C61.2337 649.93 63.5405 643.822 65.7687 644.006C67.9969 644.189 69.9367 649.537 68.993 653.941Z" fill="black"/>
<path d="M258.49 632.699C266.877 647.683 270.053 665.642 267.554 683.941C265.895 698.463 261.694 712.859 255.159 726.415C253.917 728.964 252.528 731.448 251.001 733.851C249.935 735.245 249.014 736.742 248.254 738.314C247.877 738.927 248.634 740.2 249.472 739.854C253.442 738.137 256.056 732.671 257.96 728.968C261.187 722.591 263.859 715.982 265.941 709.229C271.408 693.113 272.958 676.297 270.444 660.366C268.486 650.106 264.693 640.521 259.249 632.076C258.911 631.88 258.586 632.477 258.808 632.791L258.49 632.699Z" fill="#455A64"/>
<path d="M262.038 662.39C276.167 650.116 286.729 634.03 292.253 616.37C302.078 586.164 299.756 569.52 289.658 563.68C286.982 561.958 283.75 561.208 280.411 561.532C277.072 561.856 273.792 563.239 271.026 565.489C271.026 565.489 263.157 554.808 255.597 557.595C248.037 560.381 242.103 573.887 242.103 573.887C242.103 573.887 237.126 568.248 233.845 568.081C230.564 567.914 211.18 588.053 213.042 605.648C214.903 623.242 235.298 658.902 262.038 662.39Z" fill="#BA68C8"/>
<path opacity="0.25" d="M262.038 662.39C276.167 650.116 286.729 634.03 292.253 616.37C302.078 586.164 299.756 569.52 289.658 563.68C286.982 561.958 283.75 561.208 280.411 561.532C277.072 561.856 273.792 563.239 271.026 565.489C271.026 565.489 263.157 554.808 255.597 557.595C248.037 560.381 242.103 573.887 242.103 573.887C242.103 573.887 237.126 568.248 233.845 568.081C230.564 567.914 211.18 588.053 213.042 605.648C214.903 623.242 235.298 658.902 262.038 662.39Z" fill="black"/>
<path d="M259.161 662.108C243.673 658.529 229.671 651.091 218.305 640.404C198.43 622.218 194.949 610.35 201.198 597.027C207.447 583.703 217.361 584.889 221.027 599.399C221.027 599.399 225.881 593.019 230.551 593.518C232.842 593.963 234.938 594.967 236.673 596.451C238.407 597.935 239.732 599.858 240.542 602.068C241.015 604.733 238.292 643.92 259.161 662.108Z" fill="#BA68C8"/>
<path opacity="0.15" d="M259.161 662.108C243.673 658.529 229.671 651.091 218.305 640.404C198.43 622.218 194.949 610.35 201.198 597.027C207.447 583.703 217.361 584.889 221.027 599.399C221.027 599.399 225.881 593.019 230.551 593.518C232.842 593.963 234.938 594.967 236.673 596.451C238.407 597.935 239.732 599.858 240.542 602.068C241.015 604.733 238.292 643.92 259.161 662.108Z" fill="black"/>
<path d="M272.122 656.332C283.842 650.162 294.431 641.58 303.163 631.175C315.525 615.304 321.338 599.498 310.012 599.041C310.012 599.041 314.047 591.933 309.727 587.897C305.408 583.861 286.256 591.351 277.968 605.855C269.679 620.36 272.122 656.332 272.122 656.332Z" fill="#BA68C8"/>
<path opacity="0.15" d="M272.122 656.332C283.842 650.162 294.431 641.58 303.163 631.175C315.525 615.304 321.338 599.498 310.012 599.041C310.012 599.041 314.047 591.933 309.727 587.897C305.408 583.861 286.256 591.351 277.968 605.855C269.679 620.36 272.122 656.332 272.122 656.332Z" fill="black"/>
<path d="M258.484 662.578C245.363 656.941 234.581 638.852 231.647 626.612C228.148 611.807 232.662 592.964 242.916 584.954C253.17 576.945 265.909 580.402 265.909 580.402C265.909 580.402 273.854 572.174 284.732 578.985C292.219 583.646 290.113 607.94 284.379 626.916C278.646 645.892 267.507 658.473 258.484 662.578Z" fill="#BA68C8"/>
<path d="M268.41 675.548C265.478 672.201 261.166 670.324 250.106 666.156C239.047 661.987 229.78 657.2 233.161 649.802C236.542 642.404 251.881 654.098 251.881 654.098C251.881 654.098 250.255 637.101 258.325 634.631C268.931 631.312 269.474 652.407 269.474 652.407C269.474 652.407 279.799 636.551 285.893 639.693C291.986 642.835 288.768 650.8 281.775 658.095C274.781 665.39 269.244 670.882 268.41 675.548Z" fill="#455A64"/>
<path d="M171.72 191.251C171.547 191.298 171.358 191.255 171.188 191.129C171.018 191.004 170.88 190.806 170.801 190.573C156.325 146.932 165.99 100.794 195.418 73.0703C195.568 72.9355 195.76 72.8904 195.956 72.9443C196.151 72.9982 196.335 73.147 196.47 73.3603C196.594 73.5863 196.654 73.8541 196.638 74.108C196.622 74.3619 196.53 74.5825 196.383 74.7239C167.46 101.987 157.961 147.231 172.141 190.01C172.223 190.264 172.231 190.537 172.164 190.768C172.096 191 171.958 191.174 171.778 191.252L171.72 191.251Z" fill="#455A64"/>
<path d="M206.336 105.401C205.898 105.434 205.454 105.427 205.007 105.38C201.922 105.228 198.802 104.525 195.747 103.294C189.931 100.691 183.862 100.272 178.402 102.098C178.275 102.136 178.137 102.128 178.002 102.076C177.867 102.024 177.741 101.929 177.638 101.802C177.548 101.662 177.489 101.499 177.47 101.334C177.451 101.168 177.471 101.006 177.529 100.868C180.959 92.4493 192.902 80.2689 204.4 85.9158C211.714 89.5129 212.319 94.9939 212.346 97.2235C212.222 99.286 211.586 101.163 210.516 102.618C209.447 104.073 207.992 105.041 206.336 105.401ZM180.386 99.7769C185.424 98.9259 190.75 99.619 195.904 101.797C198.836 102.982 201.831 103.669 204.794 103.837C206.405 103.787 207.875 103.086 208.976 101.843C210.078 100.6 210.751 98.883 210.89 96.9582C211.005 93.1094 208.511 89.6262 204.043 87.41C193.499 82.2641 183.288 93.0928 179.584 100.008L180.386 99.7769Z" fill="#455A64"/>
<path d="M177.762 102.51C177.681 102.567 177.586 102.596 177.486 102.595C177.386 102.593 177.283 102.561 177.188 102.501C177.047 102.343 176.953 102.131 176.927 101.911C176.902 101.692 176.947 101.482 177.053 101.327C181.514 94.1511 194.91 90.4975 203.623 94.1423C203.8 94.2122 203.959 94.3624 204.064 94.56C204.169 94.7575 204.211 94.9866 204.183 95.1971C204.146 95.4101 204.041 95.5844 203.889 95.6836C203.737 95.7828 203.551 95.7991 203.368 95.7292C194.371 91.9547 181.998 96.2931 178.196 102.474C178.063 102.536 177.913 102.548 177.762 102.51Z" fill="#455A64"/>
<path d="M183.564 97.121C183.402 97.1928 183.22 97.1899 183.043 97.1126C182.901 96.9666 182.792 96.7662 182.737 96.5452C182.682 96.3243 182.684 96.0963 182.741 95.8997C184.53 91.0182 179.8 76.3666 176.199 67.7348C175.084 65.1958 174.389 62.433 174.17 59.6637C173.951 56.8943 174.213 54.194 174.936 51.7752C175.514 50.2632 176.395 49.0331 177.496 48.1992C178.598 47.3654 179.885 46.9547 181.237 47.0055C182.573 47.011 183.939 47.5545 185.162 48.5668C186.384 49.579 187.407 51.0142 188.101 52.6892C192.28 61.6031 192.219 80.0355 183.918 96.9319C183.828 97.054 183.702 97.1211 183.564 97.121ZM179.962 48.8555C179.11 49.0428 178.326 49.4822 177.665 50.1439C177.004 50.8056 176.48 51.6742 176.129 52.6908C175.486 54.8649 175.257 57.2906 175.461 59.7761C175.665 62.2616 176.297 64.7389 177.305 67.0122C177.619 67.7967 183.936 82.9805 184.428 92.2246C190.831 77.0123 190.673 61.1485 187.012 53.2951C186.453 51.9251 185.625 50.7475 184.632 49.9125C183.639 49.0775 182.526 48.6228 181.436 48.6065C180.93 48.6074 180.435 48.691 179.962 48.8555Z" fill="#455A64"/>
<path d="M183.254 96.9855C183.135 97.0578 182.996 97.0555 182.862 96.9791C182.726 96.8561 182.618 96.6614 182.56 96.4362C182.503 96.211 182.5 95.9731 182.554 95.7727C186.2 82.4247 183.67 62.3872 182.092 57.0135C182.024 56.7913 182.011 56.5496 182.056 56.3402C182.1 56.1308 182.199 55.9705 182.33 55.8936C182.396 55.8591 182.468 55.8472 182.541 55.8586C182.614 55.8699 182.688 55.9044 182.757 55.9598C182.826 56.0153 182.89 56.0906 182.943 56.1812C182.997 56.2718 183.04 56.3759 183.07 56.4871C184.715 62.0557 187.363 82.8314 183.589 96.6423C183.514 96.8235 183.395 96.9454 183.254 96.9855Z" fill="#455A64"/>
<path d="M234.192 82.216C225.723 80.0646 217.46 75.6741 209.995 69.3599C204.05 53.0795 202.323 45.9854 202.473 33.1173C202.651 30.0293 203.405 27.1394 204.68 24.6638C205.205 23.7841 206.007 23.2257 206.933 23.0947C207.859 22.9637 208.845 23.2692 209.704 23.9532C210.847 25.3259 211.611 27.0895 211.855 28.922L215.477 45.1263C215.015 39.0762 215.809 33.2182 217.786 28.1072C218.522 26.2237 219.844 24.1916 221.636 24.8909C223.428 25.5902 224.4 29.1192 224.38 31.7246C224.391 38.4893 223.488 45.0377 221.706 51.1068C225.888 46.78 230.702 43.4052 235.975 41.1058C236.47 40.7833 237.037 40.6204 237.633 40.6297C238.228 40.6391 238.835 40.8205 239.405 41.1597C241.228 42.6886 240.49 45.9539 239.373 47.8313C236.809 52.1857 233.485 55.7296 229.591 58.2582C235.494 56.4898 241.856 56.4818 248.198 58.2349C248.694 58.3038 249.188 58.4932 249.652 58.792C250.116 59.0908 250.541 59.493 250.901 59.9751C252.152 62.0477 250.589 64.4709 248.964 65.5113C244.594 68.2306 239.621 69.5832 234.419 69.4675C237.717 70.5853 245.514 74.1822 245.674 77.5405C245.835 80.8988 239.69 83.7237 234.192 82.216Z" fill="#BA68C8"/>
<path opacity="0.15" d="M234.192 82.216C225.723 80.0646 217.46 75.6741 209.995 69.3599C204.05 53.0795 202.323 45.9854 202.473 33.1173C202.651 30.0293 203.405 27.1394 204.68 24.6638C205.205 23.7841 206.007 23.2257 206.933 23.0947C207.859 22.9637 208.845 23.2692 209.704 23.9532C210.847 25.3259 211.611 27.0895 211.855 28.922L215.477 45.1263C215.015 39.0762 215.809 33.2182 217.786 28.1072C218.522 26.2237 219.844 24.1916 221.636 24.8909C223.428 25.5902 224.4 29.1192 224.38 31.7246C224.391 38.4893 223.488 45.0377 221.706 51.1068C225.888 46.78 230.702 43.4052 235.975 41.1058C236.47 40.7833 237.037 40.6204 237.633 40.6297C238.228 40.6391 238.835 40.8205 239.405 41.1597C241.228 42.6886 240.49 45.9539 239.373 47.8313C236.809 52.1857 233.485 55.7296 229.591 58.2582C235.494 56.4898 241.856 56.4818 248.198 58.2349C248.694 58.3038 249.188 58.4932 249.652 58.792C250.116 59.0908 250.541 59.493 250.901 59.9751C252.152 62.0477 250.589 64.4709 248.964 65.5113C244.594 68.2306 239.621 69.5832 234.419 69.4675C237.717 70.5853 245.514 74.1822 245.674 77.5405C245.835 80.8988 239.69 83.7237 234.192 82.216Z" fill="black"/>
<path d="M11.0469 156.613C-1.0427 149.827 -10.7236 139.921 -16.5759 128.348C-21.4472 119.247 -24.488 109.566 -25.5475 99.7843C-25.7376 97.9416 -25.7975 96.1001 -25.727 94.2711C-25.5607 93.1638 -25.5382 92.0318 -25.6599 90.8971C-25.6507 90.4335 -26.709 89.8688 -27.151 90.2914C-29.2153 92.3408 -28.7733 96.2791 -28.5668 98.9822C-28.1756 103.623 -27.2999 108.259 -25.9513 112.829C-23.0816 123.864 -17.181 134.306 -8.80543 143.173C-3.17465 148.795 3.4596 153.541 10.7755 157.181C11.0929 157.211 11.0727 156.771 10.7862 156.64L11.0469 156.613Z" fill="#455A64"/>
<path d="M-12.0064 141.759C-16.5329 152.51 -17.1724 164.594 -13.8361 176.332C-8.37922 196.503 -0.226797 205.669 8.80938 206.547C11.2729 206.881 13.7208 206.507 15.8133 205.476C17.9058 204.445 19.539 202.808 20.4861 200.793C20.4861 200.793 29.9607 205.068 33.8837 201.531C37.8066 197.994 36.3926 188.587 36.3926 188.587C36.3926 188.587 41.9418 190.637 44.1909 189.908C46.44 189.179 51.3389 172.498 43.1154 162.659C34.8919 152.821 7.16624 137.067 -12.0064 141.759Z" fill="#BA68C8"/>
<path opacity="0.25" d="M-12.0064 141.759C-16.5329 152.51 -17.1724 164.594 -13.8361 176.332C-8.37922 196.503 -0.226797 205.669 8.80938 206.547C11.2729 206.881 13.7208 206.507 15.8133 205.476C17.9058 204.445 19.539 202.808 20.4861 200.793C20.4861 200.793 29.9607 205.068 33.8837 201.531C37.8066 197.994 36.3926 188.587 36.3926 188.587C36.3926 188.587 41.9418 190.637 44.1909 189.908C46.44 189.179 51.3389 172.498 43.1154 162.659C34.8919 152.821 7.16624 137.067 -12.0064 141.759Z" fill="black"/>
<path d="M-7.41899 140.277C3.66862 138.55 15.2717 139.347 26.4372 142.605C45.773 148.02 52.4225 153.843 53.4981 162.832C54.5737 171.82 47.8912 173.547 40.1332 166.284C40.1332 166.284 39.4767 171.037 36.352 171.884C34.7432 172.188 33.0474 172.129 31.3988 171.715C29.7502 171.3 28.1942 170.54 26.854 169.494C25.5552 168.112 12.543 145.453 -7.41899 140.277Z" fill="#BA68C8"/>
<path opacity="0.15" d="M-7.41899 140.277C3.66862 138.55 15.2717 139.347 26.4372 142.605C45.773 148.02 52.4225 153.843 53.4981 162.832C54.5737 171.82 47.8912 173.547 40.1332 166.284C40.1332 166.284 39.4767 171.037 36.352 171.884C34.7432 172.188 33.0474 172.129 31.3988 171.715C29.7502 171.3 28.1942 170.54 26.854 169.494C25.5552 168.112 12.543 145.453 -7.41899 140.277Z" fill="black"/>
<path d="M-12.8583 148.364C-18.5874 155.106 -22.4968 162.999 -24.3196 171.505C-26.4189 184.23 -23.893 195.218 -15.6527 192.554C-15.6527 192.554 -15.5262 197.864 -10.7577 199.165C-5.98913 200.465 4.46443 191.005 4.24536 180.156C4.0263 169.306 -12.8583 148.364 -12.8583 148.364Z" fill="#BA68C8"/>
<path opacity="0.15" d="M-12.8583 148.364C-18.5874 155.106 -22.4968 162.999 -24.3196 171.505C-26.4189 184.23 -23.893 195.218 -15.6527 192.554C-15.6527 192.554 -15.5262 197.864 -10.7577 199.165C-5.98913 200.465 4.46443 191.005 4.24536 180.156C4.0263 169.306 -12.8583 148.364 -12.8583 148.364Z" fill="black"/>
<path d="M-8.67357 140.484C2.41866 140.479 16.9344 148.401 23.8206 154.867C32.1163 162.701 36.6397 174.945 32.9523 182.262C29.2649 189.58 19.3042 190.773 19.3042 190.773C19.3042 190.773 17.2585 197.633 7.20385 196.379C0.294549 195.532 -8.03585 180.687 -11.7916 168.056C-15.5474 155.425 -13.0992 145.19 -8.67357 140.484Z" fill="#BA68C8"/>
<path d="M-16.3019 134.871C-13.1105 136.074 -9.59478 136.088 -0.826009 135.754C7.94276 135.419 15.7901 135.884 16.4639 140.983C17.1378 146.082 2.68927 143.14 2.68927 143.14C2.68927 143.14 10.3149 152.53 6.04823 155.95C0.469691 160.487 -8.0407 148.468 -8.0407 148.468C-8.0407 148.468 -8.58883 160.157 -13.7473 159.855C-18.9058 159.552 -19.9038 154.167 -18.1998 148.234C-16.4957 142.3 -15.0375 137.766 -16.3019 134.871Z" fill="#455A64"/>
<rect x="99.8223" y="295.321" width="164" height="120" rx="7.5" transform="rotate(15 99.8223 295.321)" stroke="black"/>
<path d="M157.158 350.835L187.165 380.841L146.175 391.824L157.158 350.835Z" stroke="black"/>
</svg>
