<svg width="369" height="584" viewBox="0 0 369 584" fill="none" xmlns="http://www.w3.org/2000/svg">
<path d="M14.6671 380.291C15.609 381.491 16.1751 382.936 16.2938 384.442C16.4125 385.948 16.0786 387.449 15.3342 388.755C14.5898 390.061 13.4683 391.113 12.1113 391.779C10.7543 392.444 9.22268 392.694 7.70978 392.496C6.19687 392.297 4.77055 391.66 3.6109 390.664C2.45125 389.668 1.61027 388.359 1.19415 386.901C0.778031 385.443 0.805432 383.902 1.27288 382.472C1.74034 381.043 2.62689 379.789 3.82059 378.869C4.61334 378.251 5.52465 377.797 6.5015 377.533C7.47836 377.27 8.50125 377.202 9.51062 377.334C10.52 377.467 11.4957 377.796 12.381 378.304C13.2662 378.812 14.0433 379.487 14.6671 380.291Z" fill="#B16668"/>
<path d="M31.6964 414.53C32.6383 415.73 33.2044 417.174 33.3231 418.681C33.4418 420.187 33.1079 421.688 32.3635 422.994C31.6191 424.299 30.4976 425.352 29.1406 426.018C27.7836 426.683 26.252 426.933 24.7391 426.734C23.2262 426.536 21.7999 425.899 20.6402 424.903C19.4806 423.907 18.6396 422.598 18.2235 421.14C17.8073 419.682 17.8347 418.141 18.3022 416.711C18.7696 415.282 19.6562 414.028 20.8499 413.108C21.6426 412.489 22.554 412.035 23.5308 411.772C24.5077 411.508 25.5305 411.441 26.5399 411.573C27.5493 411.706 28.525 412.035 29.4103 412.543C30.2955 413.05 31.0726 413.726 31.6964 414.53Z" fill="#B16668"/>
<path d="M43.0037 377.574C43.8188 378.569 44.318 379.779 44.4369 381.048C44.5558 382.317 44.289 383.586 43.6709 384.693C43.0527 385.799 42.1116 386.692 40.9687 387.256C39.8259 387.82 38.5336 388.029 37.2585 387.857C35.9835 387.685 34.784 387.139 33.8147 386.29C32.8453 385.44 32.1506 384.327 31.8199 383.092C31.4892 381.858 31.5378 380.559 31.9594 379.363C32.381 378.167 33.1562 377.129 34.1853 376.383C35.5107 375.421 37.1668 375.008 38.8091 375.23C40.4515 375.452 41.9538 376.291 43.0037 377.574Z" fill="#B16668"/>
<path d="M67.3546 389.391C68.1553 390.382 68.6427 391.583 68.7542 392.84C68.8656 394.097 68.5962 395.353 67.9803 396.446C67.3644 397.54 66.4302 398.422 65.2974 398.978C64.1646 399.535 62.8847 399.741 61.622 399.571C60.3592 399.4 59.1709 398.861 58.2096 398.021C57.2482 397.182 56.5575 396.081 56.2259 394.859C55.8944 393.637 55.9372 392.351 56.3487 391.164C56.7603 389.978 57.5219 388.946 58.536 388.2C59.8534 387.216 61.5151 386.791 63.1641 387.013C64.8131 387.236 66.3177 388.09 67.3546 389.391Z" fill="#B16668"/>
<path d="M74.5195 364.879C75.3346 365.874 75.8337 367.084 75.9527 368.353C76.0716 369.622 75.8047 370.891 75.1866 371.998C74.5684 373.104 73.6273 373.997 72.4844 374.561C71.3415 375.125 70.0492 375.334 68.7741 375.162C67.499 374.99 66.2995 374.444 65.3302 373.595C64.3609 372.745 63.6661 371.632 63.3354 370.397C63.0048 369.163 63.0534 367.864 63.4749 366.668C63.8965 365.472 64.6718 364.434 65.7008 363.687C67.0223 362.715 68.6812 362.296 70.3269 362.518C71.9725 362.741 73.476 363.587 74.5195 364.879Z" fill="#B16668"/>
<path d="M150.318 248.657L270.827 208.393L181.18 256.802L211.46 290.232L109.282 355.105L175.461 288.936L150.318 248.657Z" stroke="black"/>
<path d="M298.018 529.035C294.891 542.644 305.083 549.679 310.974 556.825C316.865 563.971 323.305 571.015 326.367 579.767C327.242 574.154 327.892 568.456 327.317 562.8C326.743 557.144 324.832 551.488 321.142 547.196C314.676 539.725 303.628 537.196 298.037 529.044" fill="#6F564F"/>
<path d="M332.942 543.154C328.488 540.32 323.81 537.864 318.957 535.812C309.774 531.625 299.82 526.681 294.109 518.308C299.189 516.351 307.355 517.85 312.289 520.188C317.224 522.526 321.436 526.195 325.572 529.792C329.607 533.101 333.36 536.746 336.79 540.689C340.227 544.659 342.617 549.434 343.737 554.569C341.124 549.93 337.415 546.007 332.942 543.154Z" fill="#6F564F"/>
<path d="M285.043 545.073C282.852 551.135 279.465 556.679 275.086 561.372C270.706 566.065 265.425 569.809 259.559 572.38C266.047 567.502 265.907 557.184 268.926 549.615C274.07 536.75 282.603 525.741 293.026 516.705C288.722 525.557 288.334 535.818 285.043 545.073Z" fill="#6F564F"/>
<path d="M237.473 565.942C242.226 551.272 247.325 536.032 258.158 525.167C266.658 516.647 279.237 513.138 288.114 505.015L288.503 505.933C275.948 529.918 259.758 550.684 237.473 565.942Z" fill="#6F564F"/>
<path d="M327.333 514.78C314.608 515.123 301.626 513.492 289.98 508.242L288.733 505.409C298.209 501.317 310.409 496.959 320.735 497.133C336.174 497.4 349.954 507.237 365.176 509.927C352.621 512.154 340.048 514.409 327.333 514.78Z" fill="#6F564F"/>
<path d="M319.358 489.713C307.103 493.139 293.704 494.434 281.152 492.169L280.752 489.178C288.978 482.907 298.729 476.508 308.776 474.175C323.8 470.69 339.48 476.903 354.872 475.829C343.265 481.053 331.604 486.298 319.358 489.713Z" fill="#6F564F"/>
<path d="M279.227 487.629C268.097 493.453 256.99 499.417 246.84 506.821C236.691 514.226 227.475 523.184 221.039 534.024C245.315 525.828 265.944 509.35 279.385 487.418" fill="#6F564F"/>
<path d="M266.698 465.4C275.215 459.642 285.304 453.105 295.399 451.238C311.372 448.254 327.693 453.132 343.271 457.961C325.618 458.175 309.487 468.87 291.829 469.63C283.138 470.001 275.778 468.436 267.294 466.375" fill="#6F564F"/>
<path d="M321.03 563.84C321.03 563.84 320.949 563.675 320.779 563.355L319.984 561.987L316.907 556.723C316.578 556.148 316.221 555.546 315.853 554.898C315.466 554.237 314.997 553.628 314.459 553.085C313.245 551.818 311.963 550.62 310.62 549.494C309.058 548.251 307.589 546.892 306.226 545.43C304.735 543.757 303.423 541.93 302.31 539.981C301.072 537.849 300.072 535.586 299.328 533.234C298.477 530.782 297.603 528.243 296.707 525.618C295.85 522.967 294.716 520.307 293.67 517.533L292.029 513.326L290.193 509.071C284.838 496.583 278.6 484.493 271.528 472.897C264.446 461.299 256.57 450.21 247.958 439.712C240.884 431.179 233.343 423.05 225.371 415.363C221.898 412.161 218.841 409.167 215.955 406.773C213.07 404.378 210.7 402.171 208.594 400.568L203.825 396.796L202.576 395.825C202.3 395.611 202.148 395.514 202.148 395.514C202.148 395.514 202.273 395.64 202.55 395.872L203.764 396.873L208.48 400.712C210.559 402.334 212.937 404.522 215.779 406.974C218.621 409.426 221.687 412.401 225.141 415.613C233.064 423.315 240.568 431.445 247.618 439.966C256.198 450.462 264.055 461.539 271.131 473.115C278.195 484.691 284.435 496.755 289.802 509.215C290.433 510.645 291.045 512.067 291.647 513.461C292.249 514.855 292.751 516.28 293.297 517.657C294.333 520.414 295.486 523.073 296.343 525.724C297.199 528.375 298.143 530.883 298.991 533.32C299.757 535.694 300.779 537.978 302.04 540.13C303.193 542.079 304.543 543.904 306.066 545.575C307.445 547.041 308.929 548.402 310.506 549.647C311.847 550.755 313.128 551.935 314.343 553.182C315.3 554.295 316.128 555.516 316.809 556.819L319.959 562.034L320.789 563.383C320.922 563.686 321.03 563.84 321.03 563.84Z" fill="#BA68C8"/>
<path d="M347.298 508.19C347.103 508.17 346.907 508.177 346.714 508.211L345.033 508.394C343.574 508.57 341.458 508.798 338.851 509.025C325.233 510.247 311.512 509.81 297.976 507.724C295.381 507.333 293.306 506.941 291.84 506.699L290.167 506.408C289.975 506.361 289.778 506.339 289.58 506.343C289.765 506.419 289.957 506.476 290.153 506.513L291.801 506.891C293.234 507.22 295.328 507.629 297.925 508.078C311.477 510.353 325.251 510.789 338.893 509.375C341.507 509.1 343.612 508.825 345.068 508.583L346.736 508.305C346.928 508.293 347.117 508.254 347.298 508.19Z" fill="#BA68C8"/>
<path d="M334.319 477.416C334.135 477.416 333.952 477.442 333.775 477.492L332.239 477.79C330.905 478.053 328.984 478.469 326.604 479.004C321.854 480.064 315.315 481.62 308.121 483.472C300.927 485.323 294.455 487.14 289.782 488.508C287.445 489.192 285.568 489.766 284.286 490.169L282.794 490.654C282.618 490.703 282.447 490.769 282.283 490.85C282.465 490.841 282.645 490.806 282.817 490.747L284.34 490.355L289.897 488.843C294.592 487.559 301.076 485.798 308.242 483.947C315.409 482.097 321.954 480.484 326.683 479.34L332.283 477.977L333.797 477.585C333.978 477.552 334.153 477.495 334.319 477.416Z" fill="#BA68C8"/>
<path d="M239.875 519.288C240.038 519.245 240.194 519.18 240.339 519.095L241.635 518.434C242.758 517.854 244.35 516.959 246.282 515.81C256.4 509.799 265.657 502.434 273.802 493.912C275.363 492.281 276.593 490.923 277.405 489.962L278.339 488.847C278.456 488.721 278.559 488.583 278.646 488.435C278.509 488.534 278.383 488.648 278.272 488.775L277.27 489.827C276.384 490.79 275.151 492.074 273.561 493.687C269.433 497.858 265.066 501.781 260.482 505.438C255.885 509.081 251.081 512.452 246.095 515.537C244.183 516.722 242.611 517.654 241.527 518.279L240.28 519.022C240.137 519.097 240.001 519.186 239.875 519.288Z" fill="#BA68C8"/>
<path d="M251.681 548.058C251.786 548.147 260.163 538.829 270.405 527.247C280.647 515.665 288.87 506.202 288.764 506.113C288.659 506.023 280.282 515.332 270.04 526.924C259.798 538.515 251.566 547.968 251.681 548.058Z" fill="#BA68C8"/>
<path d="M275.156 553.506C275.429 553.044 275.662 552.56 275.852 552.058C276.309 551.047 276.907 549.695 277.623 548.061C279.125 544.697 281.239 540.055 283.694 534.993C286.149 529.93 288.516 525.41 290.244 522.159L292.297 518.301C292.568 517.84 292.804 517.359 293.003 516.862C292.682 517.291 292.393 517.742 292.137 518.213C291.601 519.088 290.853 520.379 289.952 522.011C288.14 525.227 285.735 529.73 283.271 534.793C280.806 539.856 278.732 544.534 277.314 547.941C276.61 549.65 276.05 551.037 275.684 552.008C275.473 552.494 275.297 552.994 275.156 553.506Z" fill="#BA68C8"/>
<path d="M320.38 533.656C320.091 533.38 319.77 533.14 319.425 532.942C318.814 532.506 317.919 531.892 316.797 531.166C314.57 529.693 311.434 527.719 307.906 525.666C304.377 523.613 301.121 521.858 298.738 520.643C297.546 520.031 296.574 519.56 295.903 519.238C295.56 519.055 295.2 518.905 294.829 518.79C295.12 519.035 295.44 519.243 295.781 519.41L298.547 520.948C300.887 522.24 304.108 524.033 307.636 526.086C311.164 528.14 314.279 530.058 316.586 531.453L319.283 533.106C319.631 533.324 319.998 533.508 320.38 533.656Z" fill="#BA68C8"/>
<path d="M311.29 461.277C311.284 461.134 301.299 462.048 288.999 463.303C276.698 464.558 266.74 465.69 266.755 465.832C266.77 465.975 276.746 465.062 289.055 463.797C301.365 462.532 311.352 461.437 311.29 461.277Z" fill="#BA68C8"/>
<path d="M269.148 470.261C259.031 471.777 247.205 473.82 238.506 479.207C224.748 487.784 215.995 502.384 207.754 516.388C220.901 504.65 239.941 501.63 253.438 490.3C260.093 484.713 264.458 478.607 269.314 471.384" fill="#6F564F"/>
<path d="M233.629 497.329C233.708 497.438 241.775 491.55 251.65 484.172C261.525 476.793 269.474 470.722 269.395 470.613C269.317 470.504 261.241 476.402 251.366 483.78C241.491 491.159 233.551 497.22 233.629 497.329Z" fill="#BA68C8"/>
<path d="M264.218 94.087C266.365 78.0418 280.171 74.3652 289.398 68.885C298.624 63.4048 308.4 58.2512 315.235 49.9165C313.903 56.3721 312.296 62.8326 309.389 68.7682C306.482 74.7038 302.137 80.1168 296.433 83.3486C286.456 88.9569 273.554 87.3919 264.242 94.0849" fill="#6F564F"/>
<path d="M307.659 92.3026C301.707 93.6538 295.667 94.5035 289.602 94.843C278.003 95.8183 265.265 97.3186 255.708 104.235C260.39 108.37 269.801 109.935 276.069 109.314C282.338 108.694 288.369 106.335 294.288 104.024C299.982 101.989 305.507 99.4748 310.806 96.5085C316.123 93.5157 320.638 89.2312 323.931 84.0545C319.231 88.1034 313.639 90.9374 307.659 92.3026Z" fill="#6F564F"/>
<path d="M256.52 71.1391C256.619 63.6743 255.222 56.3063 252.412 49.4781C249.602 42.6499 245.437 36.5024 240.168 31.405C245.171 39.2609 240.841 50.452 241.022 59.8833C241.343 75.9177 246.062 91.2552 253.614 105.182C252.571 93.8497 256.31 82.5132 256.52 71.1391Z" fill="#6F564F"/>
<path d="M213.73 29.5276C212.897 47.4046 212.205 66.0404 219.463 82.1456C225.16 94.7771 237.282 103.536 243.545 115.882L244.337 115.032C240.548 83.9286 231.539 54.9148 213.73 29.5276Z" fill="#6F564F"/>
<path d="M290.297 120.813C276.679 115.396 261.983 112.052 247.261 113.221L244.764 115.846C253.347 124.105 264.768 133.733 276.002 137.631C292.801 143.451 311.691 138.076 329.239 141.142C316.569 133.718 303.892 126.256 290.297 120.813Z" fill="#6F564F"/>
<path d="M271.607 144.804C259.751 136.185 245.794 129.457 231.307 126.984L229.66 130.118C236.006 140.274 243.948 151.176 253.86 157.719C268.685 167.5 288.156 166.866 304.357 174.139C293.932 163.796 283.457 153.409 271.607 144.804Z" fill="#6F564F"/>
<path d="M226.998 131.141C217.362 120.397 207.809 109.51 199.874 97.4221C191.938 85.3343 185.64 71.913 183.104 57.5242C205.95 76.0253 221.499 102.156 227.083 131.433" fill="#6F564F"/>
<path d="M204.905 150.251C211.775 159.961 220.028 171.151 230.183 177.202C246.238 186.811 265.862 187.902 284.662 188.753C265.666 181.528 252.569 163.369 233.789 155.542C224.545 151.694 215.953 150.503 205.945 149.413" fill="#6F564F"/>
<path d="M303.014 64.1841C303.014 64.1841 302.861 64.3321 302.548 64.6142L301.139 65.795L295.696 70.3282C295.11 70.8265 294.482 71.3429 293.823 71.9053C293.139 72.4741 292.388 72.9548 291.589 73.3361C289.77 74.2412 287.906 75.0461 286.005 75.7472C283.821 76.4916 281.691 77.3977 279.632 78.458C277.351 79.6985 275.199 81.1758 273.213 82.8651C271.017 84.7051 269.025 86.7802 267.272 89.0523C265.362 91.3922 263.394 93.8173 261.367 96.3276C259.372 98.8817 257.074 101.337 254.825 103.952L251.356 107.894L247.656 111.814C236.837 123.33 225.23 134.067 212.925 143.939C200.608 153.809 187.644 162.813 174.128 170.887C163.062 177.42 151.657 183.33 139.967 188.588C134.935 190.721 130.433 192.787 126.359 194.268C122.285 195.749 118.842 197.228 115.928 198.151L109.269 200.397L107.533 200.967C107.149 201.091 106.946 201.138 106.946 201.138C106.946 201.138 107.132 201.05 107.524 200.905L109.234 200.289L115.863 197.95C118.756 196.995 122.201 195.54 126.251 193.98C130.301 192.419 134.805 190.376 139.822 188.226C151.465 182.931 162.829 177.006 173.865 170.477C187.347 162.393 200.285 153.395 212.586 143.546C224.874 133.692 236.473 122.984 247.294 111.504C248.553 110.192 249.787 108.882 250.999 107.599C252.211 106.315 253.328 104.958 254.474 103.67C256.705 101.071 259.022 98.6238 261.018 96.0697C263.013 93.5156 265.044 91.1508 266.943 88.8262C268.729 86.5384 270.755 84.4493 272.982 82.5968C275.012 80.9241 277.203 79.4631 279.519 78.2372C281.596 77.1791 283.744 76.2763 285.945 75.5361C287.836 74.8538 289.692 74.0689 291.504 73.1849C292.985 72.3456 294.369 71.3389 295.63 70.185L301.13 65.7332L302.57 64.5882C302.835 64.3102 303.014 64.1841 303.014 64.1841Z" fill="#BA68C8"/>
<path d="M309.206 136.044C308.988 135.988 308.778 135.902 308.583 135.788L306.838 134.916C305.33 134.141 303.133 133.047 300.403 131.759C286.16 124.987 271.136 120.002 255.647 116.906C252.681 116.303 250.277 115.908 248.593 115.59L246.666 115.245C246.439 115.22 246.216 115.165 246.004 115.082C246.235 115.072 246.466 115.086 246.693 115.123L248.628 115.364C250.311 115.572 252.743 115.956 255.734 116.496C271.316 119.39 286.398 124.397 300.589 131.39C303.308 132.734 305.474 133.875 306.952 134.722L308.645 135.693C308.848 135.783 309.037 135.901 309.206 136.044Z" fill="#BA68C8"/>
<path d="M282.764 164.251C282.565 164.178 282.377 164.078 282.206 163.953L280.666 163.015C279.331 162.197 277.423 160.978 275.067 159.446C270.361 156.397 263.923 152.093 256.896 147.204C249.87 142.314 243.609 137.749 239.112 134.391C236.863 132.712 235.066 131.337 233.844 130.386L232.428 129.26C232.258 129.136 232.099 128.996 231.955 128.841C232.148 128.924 232.328 129.033 232.49 129.167L233.978 130.202L239.373 134.069C243.928 137.343 250.224 141.851 257.221 146.728C264.218 151.605 270.64 155.974 275.288 159.108L280.79 162.828L282.268 163.859C282.45 163.967 282.616 164.099 282.764 164.251Z" fill="#BA68C8"/>
<path d="M197.51 81.04C197.668 81.1508 197.81 81.2832 197.931 81.4338L199.06 82.6655C200.036 83.7413 201.389 85.3454 203.006 87.3618C211.474 97.9121 218.463 109.607 223.784 122.131C224.804 124.528 225.579 126.497 226.064 127.868L226.619 129.454C226.693 129.638 226.748 129.829 226.782 130.025C226.674 129.864 226.585 129.69 226.516 129.507L225.863 127.963C225.3 126.56 224.491 124.672 223.433 122.282C220.676 116.097 217.561 110.089 214.104 104.287C210.626 98.4959 206.816 92.9201 202.693 87.5875C201.112 85.5389 199.796 83.9026 198.881 82.7925L197.839 81.4902C197.714 81.3519 197.604 81.2011 197.51 81.04Z" fill="#BA68C8"/>
<path d="M221.86 54.6011C222.01 54.5446 227.25 68.0033 233.582 84.6649C239.913 101.327 244.93 114.882 244.78 114.938C244.63 114.995 239.386 101.546 233.058 84.8746C226.731 68.2029 221.701 54.6536 221.86 54.6011Z" fill="#BA68C8"/>
<path d="M249.396 58.1086C249.503 58.7176 249.558 59.3361 249.559 59.9573C249.64 61.2369 249.737 62.9425 249.845 65.0023C250.099 69.2533 250.492 75.134 251.083 81.6072C251.673 88.0804 252.389 93.9281 252.931 98.1442L253.577 103.148C253.682 103.756 253.741 104.372 253.753 104.991C253.582 104.399 253.454 103.794 253.369 103.181C253.147 102.019 252.865 100.32 252.557 98.1913C251.911 93.9796 251.148 88.136 250.547 81.6589C249.947 75.1817 249.609 69.2769 249.465 65.0117C249.399 62.876 249.358 61.1464 249.358 59.9461C249.328 59.3346 249.341 58.7206 249.396 58.1086Z" fill="#BA68C8"/>
<path d="M290.268 97.5605C289.844 97.7494 289.401 97.8859 288.947 97.9669C288.111 98.2048 286.896 98.5245 285.39 98.8793C282.39 99.617 278.205 100.546 273.565 101.408C268.924 102.27 264.698 102.911 261.634 103.306C260.1 103.508 258.859 103.641 258.005 103.73C257.56 103.795 257.112 103.819 256.665 103.799C257.078 103.645 257.508 103.542 257.943 103.493L261.552 102.896C264.601 102.401 268.804 101.704 273.445 100.842C278.085 99.9796 282.225 99.1033 285.28 98.4819L288.861 97.7321C289.325 97.6294 289.796 97.5719 290.268 97.5605Z" fill="#BA68C8"/>
<path d="M251.418 172.502C251.354 172.657 240.915 167.668 228.107 161.381C215.299 155.093 204.977 149.875 205.051 149.724C205.124 149.573 215.553 154.558 228.367 160.86C241.181 167.162 251.549 172.351 251.418 172.502Z" fill="#BA68C8"/>
<path d="M209.121 145.916C198.826 140.281 186.903 133.4 179.71 124.085C168.357 109.292 164.849 89.8708 161.65 71.304C171.06 89.3176 190.367 100.104 200.32 117.808C205.226 126.538 207.454 134.937 209.757 144.752" fill="#6F564F"/>
<path d="M181.926 102.324C182.055 102.235 188.363 111.85 196.015 123.807C203.667 135.763 209.773 145.532 209.644 145.62C209.515 145.709 203.201 136.08 195.549 124.124C187.897 112.167 181.796 102.413 181.926 102.324Z" fill="#BA68C8"/>
</svg>
