<svg width="338" height="633" viewBox="0 0 338 633" fill="none" xmlns="http://www.w3.org/2000/svg">
<path d="M121.571 173.21C121.84 169.758 121.092 166.318 119.421 163.324C117.75 160.329 115.231 157.914 112.182 156.385C109.133 154.855 105.691 154.279 102.291 154.729C98.8902 155.178 95.6834 156.634 93.0755 158.912C90.4676 161.19 88.5756 164.189 87.6381 167.528C86.7005 170.868 86.7597 174.399 87.808 177.676C88.8563 180.954 90.8468 183.829 93.5282 185.941C96.2096 188.053 99.4617 189.306 102.874 189.542C105.149 189.713 107.442 189.424 109.618 188.692C111.795 187.961 113.811 186.802 115.551 185.282C117.291 183.762 118.72 181.912 119.753 179.839C120.786 177.767 121.404 175.513 121.571 173.21Z" fill="#B16668"/>
<path d="M110.658 87.1166C110.928 83.6651 110.18 80.225 108.509 77.2305C106.838 74.236 104.319 71.8216 101.27 70.2919C98.2212 68.7621 94.7791 68.1857 91.3785 68.6355C87.9779 69.0854 84.7713 70.5414 82.1634 72.8195C79.5555 75.0975 77.6633 78.0956 76.7258 81.4352C75.7883 84.7748 75.8474 88.3061 76.8957 91.5833C77.9441 94.8605 79.9347 97.7367 82.6161 99.8486C85.2975 101.96 88.5495 103.213 91.9616 103.449C94.2369 103.62 96.5295 103.331 98.7059 102.6C100.882 101.868 102.899 100.709 104.639 99.189C106.379 97.6691 107.807 95.8191 108.841 93.7466C109.874 91.674 110.492 89.4202 110.658 87.1166Z" fill="#B16668"/>
<path d="M178.512 142.689C178.799 139.784 178.219 136.87 176.848 134.324C175.476 131.778 173.375 129.716 170.815 128.404C168.256 127.092 165.355 126.59 162.487 126.963C159.619 127.335 156.915 128.566 154.723 130.495C152.532 132.425 150.953 134.965 150.191 137.788C149.428 140.612 149.517 143.589 150.446 146.337C151.375 149.085 153.101 151.477 155.401 153.205C157.702 154.933 160.472 155.919 163.355 156.034C167.068 156.182 170.715 154.878 173.538 152.393C176.361 149.908 178.142 146.432 178.512 142.689Z" fill="#B16668"/>
<path d="M209.635 89.7357C209.9 86.8564 209.309 83.9748 207.938 81.4602C206.567 78.9456 204.478 76.9126 201.939 75.6218C199.4 74.331 196.526 73.8412 193.686 74.2151C190.846 74.589 188.17 75.8096 185.999 77.7205C183.829 79.6313 182.263 82.1455 181.504 84.9405C180.744 87.7356 180.825 90.6841 181.736 93.4086C182.646 96.133 184.346 98.509 186.616 100.232C188.886 101.955 191.623 102.947 194.477 103.08C198.202 103.279 201.876 101.993 204.711 99.4979C207.545 97.0027 209.313 93.4975 209.635 89.7357Z" fill="#B16668"/>
<path d="M254.007 127.018C254.294 124.112 253.715 121.198 252.343 118.652C250.971 116.106 248.87 114.044 246.31 112.732C243.751 111.42 240.85 110.918 237.982 111.291C235.114 111.664 232.41 112.894 230.218 114.824C228.027 116.753 226.448 119.293 225.685 122.117C224.923 124.94 225.012 127.917 225.94 130.665C226.869 133.413 228.595 135.805 230.896 137.533C233.197 139.262 235.967 140.247 238.85 140.362C242.569 140.536 246.229 139.24 249.058 136.75C251.887 134.26 253.661 130.77 254.007 127.018Z" fill="#B16668"/>
<g clip-path="url(#clip0_566_999)">
<path d="M303.397 402.303L234.713 393.803C228.819 393.073 224.634 387.711 225.362 381.822L238.383 276.612C239.58 266.94 252.033 258.967 259.236 251.762L314.24 258.569C319.707 265.574 329.603 278.081 328.406 287.753L315.386 392.963C314.657 398.852 309.291 403.032 303.397 402.303Z" stroke="#1D1D1B" stroke-miterlimit="10"/>
<path d="M286.749 255.167C289.383 233.889 203.307 253.679 205.938 232.422" stroke="#1D1D1B" stroke-miterlimit="10"/>
<path d="M220.414 205.626L198.43 202.905L194.889 231.513L216.873 234.233L220.414 205.626Z" stroke="#1D1D1B" stroke-miterlimit="10"/>
<path d="M237.749 384.446L242.949 381.249" stroke="#1D1D1B" stroke-miterlimit="10"/>
<path d="M250.246 380.711L257.882 385.017" stroke="#1D1D1B" stroke-miterlimit="10"/>
<path d="M258.494 386.948L262.092 383.29" stroke="#1D1D1B" stroke-miterlimit="10"/>
<path d="M257.977 380.359L261.913 380.846" stroke="#1D1D1B" stroke-miterlimit="10"/>
<path d="M250.855 374.545L257.954 375.424" stroke="#1D1D1B" stroke-miterlimit="10"/>
<path d="M246.177 384.289L246.762 379.56" stroke="#1D1D1B" stroke-miterlimit="10"/>
<path d="M246.637 374.744L244.922 373.069" stroke="#1D1D1B" stroke-miterlimit="10"/>
<path d="M287.286 377.723L283.021 373.354" stroke="#1D1D1B" stroke-miterlimit="10"/>
<path d="M276.078 371.033L267.599 373.366" stroke="#1D1D1B" stroke-miterlimit="10"/>
<path d="M266.141 376.328L263.52 371.923" stroke="#1D1D1B" stroke-miterlimit="10"/>
<path d="M268.642 368.825L264.727 368.341" stroke="#1D1D1B" stroke-miterlimit="10"/>
<path d="M276.989 364.905L269.869 364.023" stroke="#1D1D1B" stroke-miterlimit="10"/>
<path d="M279.129 375.513L279.717 370.763" stroke="#1D1D1B" stroke-miterlimit="10"/>
<path d="M281.033 366.125L283.102 364.941" stroke="#1D1D1B" stroke-miterlimit="10"/>
<path d="M257.998 369.777L253.736 365.387" stroke="#1D1D1B" stroke-miterlimit="10"/>
<path d="M246.791 363.088L238.334 365.423" stroke="#1D1D1B" stroke-miterlimit="10"/>
<path d="M236.854 368.383L234.232 363.977" stroke="#1D1D1B" stroke-miterlimit="10"/>
<path d="M239.38 360.861L235.443 360.374" stroke="#1D1D1B" stroke-miterlimit="10"/>
<path d="M247.702 356.959L240.604 356.081" stroke="#1D1D1B" stroke-miterlimit="10"/>
<path d="M249.861 367.57L250.449 362.82" stroke="#1D1D1B" stroke-miterlimit="10"/>
<path d="M251.744 358.18L253.813 356.995" stroke="#1D1D1B" stroke-miterlimit="10"/>
<path d="M305.473 394.18L301.189 389.787" stroke="#1D1D1B" stroke-miterlimit="10"/>
<path d="M294.266 387.49L285.79 389.802" stroke="#1D1D1B" stroke-miterlimit="10"/>
<path d="M284.306 392.783L281.709 388.359" stroke="#1D1D1B" stroke-miterlimit="10"/>
<path d="M286.833 385.261L282.918 384.776" stroke="#1D1D1B" stroke-miterlimit="10"/>
<path d="M295.177 381.362L288.057 380.481" stroke="#1D1D1B" stroke-miterlimit="10"/>
<path d="M297.319 391.949L297.904 387.22" stroke="#1D1D1B" stroke-miterlimit="10"/>
<path d="M299.197 382.58L301.288 381.398" stroke="#1D1D1B" stroke-miterlimit="10"/>
<path d="M293.168 355.428L292.827 361.54" stroke="#1D1D1B" stroke-miterlimit="10"/>
<path d="M295.801 368.215L303.216 372.886" stroke="#1D1D1B" stroke-miterlimit="10"/>
<path d="M306.407 371.971L304.903 376.892" stroke="#1D1D1B" stroke-miterlimit="10"/>
<path d="M299.176 375.179L301.463 378.408" stroke="#1D1D1B" stroke-miterlimit="10"/>
<path d="M290.654 371.68L294.802 377.518" stroke="#1D1D1B" stroke-miterlimit="10"/>
<path d="M297.043 362.935L293.141 365.703" stroke="#1D1D1B" stroke-miterlimit="10"/>
<path d="M288.832 367.876L286.564 367.137" stroke="#1D1D1B" stroke-miterlimit="10"/>
<path d="M261.396 376.199L265.937 380.275" stroke="#1D1D1B" stroke-miterlimit="10"/>
<path d="M273.024 382.133L281.308 379.253" stroke="#1D1D1B" stroke-miterlimit="10"/>
<path d="M282.701 377.526L285.586 381.746" stroke="#1D1D1B" stroke-miterlimit="10"/>
<path d="M280.564 383.852L284.532 384.082" stroke="#1D1D1B" stroke-miterlimit="10"/>
<path d="M272.5 388.31L279.657 388.715" stroke="#1D1D1B" stroke-miterlimit="10"/>
<path d="M269.666 377.855L269.403 382.624" stroke="#1D1D1B" stroke-miterlimit="10"/>
<path d="M268.403 387.345L266.404 388.669" stroke="#1D1D1B" stroke-miterlimit="10"/>
<path d="M268.94 359.718L261.283 355.41" stroke="#1D1D1B" stroke-miterlimit="10"/>
<path d="M260.572 352.158L256.975 355.815" stroke="#1D1D1B" stroke-miterlimit="10"/>
<path d="M261.186 360.068L257.25 359.581" stroke="#1D1D1B" stroke-miterlimit="10"/>
<path d="M268.308 365.881L261.209 365.003" stroke="#1D1D1B" stroke-miterlimit="10"/>
</g>
<path d="M84.9302 458.453C82.7832 442.408 68.9774 438.732 59.7508 433.251C50.5241 427.771 40.7489 422.618 33.9138 414.283C35.2452 420.739 36.8528 427.199 39.7597 433.135C42.6666 439.07 47.011 444.483 52.7153 447.715C62.6923 453.323 75.5948 451.758 84.9065 458.451" fill="#6F564F"/>
<path d="M41.4898 456.669C47.4414 458.02 53.4811 458.87 59.5462 459.209C71.1454 460.185 83.8834 461.685 93.4406 468.601C88.7585 472.736 79.3479 474.301 73.0791 473.681C66.8102 473.06 60.7793 470.701 54.8606 468.39C49.1667 466.355 43.641 463.841 38.3428 460.875C33.0256 457.882 28.5099 453.597 25.217 448.421C29.9178 452.47 35.509 455.304 41.4898 456.669Z" fill="#6F564F"/>
<path d="M92.6289 435.505C92.5296 428.041 93.9269 420.673 96.7369 413.844C99.5469 407.016 103.711 400.869 108.98 395.771C103.977 403.627 108.307 414.818 108.127 424.25C107.805 440.284 103.086 455.621 95.5342 469.548C96.5777 458.216 92.8384 446.88 92.6289 435.505Z" fill="#6F564F"/>
<path d="M135.418 393.894C136.251 411.771 136.943 430.407 129.685 446.512C123.988 459.143 111.866 467.903 105.603 480.248L104.812 479.399C108.601 448.295 117.61 419.281 135.418 393.894Z" fill="#6F564F"/>
<path d="M58.8517 485.179C72.4694 479.762 87.1659 476.418 101.887 477.587L104.384 480.213C95.8014 488.471 84.3807 498.099 73.1466 501.998C56.3478 507.817 37.4577 502.442 19.9093 505.508C32.5794 498.084 45.2565 490.622 58.8517 485.179Z" fill="#6F564F"/>
<path d="M77.5395 509.17C89.3954 500.552 103.352 493.824 117.84 491.35L119.487 494.484C113.14 504.641 105.199 515.542 95.2866 522.086C80.4613 531.866 60.9902 531.233 44.7895 538.505C55.214 528.162 65.6894 517.775 77.5395 509.17Z" fill="#6F564F"/>
<path d="M122.15 495.507C131.786 484.763 141.339 473.876 149.275 461.788C157.211 449.7 163.509 436.279 166.045 421.89C143.199 440.391 127.65 466.522 122.066 495.799" fill="#6F564F"/>
<path d="M144.243 514.618C137.373 524.328 129.12 535.518 118.966 541.569C102.91 551.177 83.2865 552.269 64.4866 553.119C83.4822 545.895 96.579 527.735 115.359 519.908C124.604 516.06 133.195 514.869 143.203 513.78" fill="#6F564F"/>
<path d="M46.1343 428.551C46.1343 428.551 46.2878 428.699 46.6003 428.981L48.0096 430.161L53.4526 434.695C54.0386 435.193 54.6665 435.709 55.325 436.272C56.0094 436.841 56.7602 437.321 57.5594 437.703C59.3783 438.608 61.2424 439.413 63.1433 440.114C65.3271 440.858 67.4572 441.764 69.516 442.824C71.7979 444.065 73.9497 445.542 75.9355 447.232C78.131 449.072 80.1236 451.147 81.8765 453.419C83.7862 455.759 85.7545 458.184 87.7813 460.694C89.7768 463.248 92.0742 465.704 94.3239 468.318L97.7927 472.261L101.492 476.18C112.311 487.697 123.919 498.433 136.224 508.306C148.54 518.175 161.504 527.18 175.021 535.253C186.087 541.786 197.492 547.696 209.181 552.955C214.214 555.087 218.715 557.154 222.789 558.635C226.863 560.116 230.307 561.595 233.221 562.518L239.879 564.763L241.616 565.333C242 565.458 242.202 565.504 242.202 565.504C242.202 565.504 242.017 565.416 241.624 565.271L239.914 564.655L233.285 562.316C230.392 561.362 226.947 559.907 222.897 558.346C218.847 556.785 214.344 554.743 209.327 552.593C197.684 547.298 186.319 541.373 175.284 534.844C161.802 526.76 148.864 517.761 136.562 507.912C124.274 498.058 112.675 487.351 101.854 475.87C100.596 474.559 99.3614 473.249 98.1492 471.965C96.937 470.681 95.82 469.324 94.6749 468.037C92.4433 465.438 90.1263 462.99 88.1308 460.436C86.1352 457.882 84.1045 455.517 82.2051 453.193C80.419 450.905 78.3939 448.816 76.1663 446.963C74.1361 445.291 71.9455 443.83 69.6294 442.604C67.5526 441.546 65.4048 440.643 63.2037 439.903C61.3124 439.22 59.4567 438.435 57.6448 437.551C56.1637 436.712 54.779 435.705 53.5184 434.551L48.018 430.1L46.578 428.955C46.313 428.677 46.1343 428.551 46.1343 428.551Z" fill="#B16668"/>
<path d="M39.942 500.41C40.1609 500.355 40.3705 500.269 40.5652 500.155L42.3104 499.282C43.8181 498.507 46.0155 497.414 48.7456 496.125C62.9887 489.354 78.0122 484.368 93.5015 481.273C96.4674 480.67 98.871 480.274 100.555 479.956L102.483 479.611C102.71 479.587 102.932 479.532 103.144 479.449C102.913 479.438 102.683 479.452 102.456 479.49L100.52 479.73C98.8371 479.939 96.4053 480.322 93.4139 480.863C77.8322 483.756 62.7504 488.764 48.5591 495.756C45.8403 497.1 43.6741 498.242 42.1959 499.089L40.503 500.06C40.3007 500.149 40.1119 500.267 39.942 500.41Z" fill="#B16668"/>
<path d="M66.3827 528.618C66.5816 528.545 66.7691 528.444 66.9402 528.319L68.4801 527.382C69.8153 526.563 71.7237 525.345 74.0794 523.813C78.7854 520.763 85.2233 516.459 92.25 511.57C99.2767 506.681 105.537 502.116 110.034 498.758C112.283 497.079 114.08 495.703 115.303 494.752L116.718 493.627C116.889 493.503 117.047 493.362 117.191 493.208C116.999 493.29 116.819 493.399 116.656 493.533L115.169 494.568L109.774 498.435C105.219 501.709 98.9229 506.217 91.9259 511.094C84.9288 515.972 78.5064 520.341 73.8582 523.474L68.3561 527.194L66.8782 528.225C66.6967 528.333 66.5301 528.465 66.3827 528.618Z" fill="#B16668"/>
<path d="M151.639 445.406C151.48 445.517 151.339 445.65 151.217 445.8L150.088 447.032C149.112 448.108 147.76 449.712 146.143 451.728C137.675 462.278 130.685 473.974 125.365 486.497C124.344 488.895 123.569 490.864 123.085 492.234L122.53 493.821C122.455 494.004 122.4 494.196 122.366 494.392C122.474 494.23 122.564 494.056 122.632 493.873L123.285 492.329C123.849 490.927 124.657 489.038 125.716 486.649C128.473 480.464 131.588 474.455 135.045 468.654C138.523 462.862 142.333 457.286 146.456 451.954C148.036 449.905 149.352 448.269 150.268 447.159L151.31 445.857C151.434 445.718 151.544 445.567 151.639 445.406Z" fill="#B16668"/>
<path d="M127.288 418.968C127.138 418.911 121.898 432.37 115.566 449.031C109.235 465.693 104.218 479.248 104.368 479.305C104.518 479.361 109.763 465.913 116.09 449.241C122.417 432.569 127.448 419.02 127.288 418.968Z" fill="#B16668"/>
<path d="M99.752 422.475C99.6452 423.084 99.5908 423.702 99.5894 424.323C99.5083 425.603 99.4115 427.309 99.303 429.368C99.0497 433.619 98.6564 439.5 98.0657 445.973C97.475 452.447 96.7596 458.294 96.2176 462.51L95.5715 467.514C95.4665 468.122 95.4075 468.738 95.395 469.357C95.5665 468.765 95.6949 468.16 95.7792 467.547C96.001 466.385 96.2833 464.686 96.5913 462.557C97.2378 458.346 98.0007 452.502 98.6011 446.025C99.2016 439.548 99.5391 433.643 99.6837 429.378C99.749 427.242 99.7902 425.513 99.7902 424.312C99.8205 423.701 99.8077 423.087 99.752 422.475Z" fill="#B16668"/>
<path d="M58.8809 461.927C59.3044 462.116 59.7478 462.252 60.2012 462.333C61.037 462.571 62.2521 462.891 63.758 463.245C66.7586 463.983 70.9435 464.912 75.5837 465.774C80.224 466.636 84.4499 467.277 87.5141 467.672C89.0484 467.874 90.289 468.007 91.1432 468.096C91.588 468.162 92.0368 468.185 92.4837 468.165C92.0701 468.011 91.6408 467.908 91.2053 467.859L87.5961 467.262C84.5475 466.767 80.3441 466.07 75.7038 465.208C71.0636 464.346 66.9236 463.469 63.8681 462.848L60.2872 462.098C59.8238 461.996 59.3528 461.938 58.8809 461.927Z" fill="#B16668"/>
<path d="M97.7309 536.868C97.7945 537.023 108.234 532.034 121.042 525.747C133.85 519.459 144.171 514.241 144.098 514.09C144.024 513.939 133.595 518.924 120.782 525.226C107.968 531.528 97.5994 536.717 97.7309 536.868Z" fill="#B16668"/>
<path d="M140.028 510.282C150.322 504.648 162.246 497.766 169.438 488.452C180.792 473.658 184.3 454.237 187.498 435.67C178.089 453.684 158.781 464.47 148.829 482.175C143.922 490.905 141.694 499.303 139.392 509.118" fill="#6F564F"/>
<path d="M167.223 466.69C167.094 466.601 160.786 476.216 153.134 488.173C145.481 500.13 139.375 509.898 139.504 509.987C139.634 510.075 145.947 500.446 153.599 488.49C161.252 476.533 167.352 466.779 167.223 466.69Z" fill="#B16668"/>
<defs>
<clipPath id="clip0_566_999">
<rect width="140.584" height="186.144" fill="white" transform="translate(197.92 202.253) rotate(7.05495)"/>
</clipPath>
</defs>
</svg>
