<svg width="333" height="632" viewBox="0 0 333 632" fill="none" xmlns="http://www.w3.org/2000/svg">
<path d="M235.724 457.76C237.871 441.715 251.677 438.038 260.904 432.558C270.13 427.078 279.905 421.924 286.74 413.59C285.409 420.045 283.802 426.506 280.895 432.441C277.988 438.377 273.643 443.79 267.939 447.022C257.962 452.63 245.06 451.065 235.748 457.758" fill="#6F564F"/>
<path d="M279.164 455.975C273.213 457.327 267.173 458.176 261.108 458.516C249.509 459.491 236.771 460.991 227.214 467.908C231.896 472.043 241.306 473.608 247.575 472.987C253.844 472.367 259.875 470.008 265.794 467.697C271.488 465.662 277.013 463.148 282.312 460.181C287.629 457.189 292.144 452.904 295.437 447.727C290.737 451.776 285.145 454.61 279.164 455.975Z" fill="#6F564F"/>
<path d="M228.025 434.812C228.125 427.347 226.727 419.979 223.917 413.151C221.107 406.323 216.943 400.175 211.674 395.078C216.677 402.934 212.347 414.125 212.528 423.556C212.849 439.591 217.568 454.928 225.12 468.855C224.077 457.523 227.816 446.186 228.025 434.812Z" fill="#6F564F"/>
<path d="M185.236 393.201C184.403 411.077 183.711 429.713 190.969 445.819C196.666 458.45 208.788 467.209 215.051 479.555L215.843 478.705C212.054 447.602 203.044 418.588 185.236 393.201Z" fill="#6F564F"/>
<path d="M261.803 484.486C248.185 479.069 233.488 475.725 218.767 476.894L216.27 479.519C224.853 487.778 236.274 497.406 247.508 501.304C264.307 507.124 283.197 501.749 300.745 504.815C288.075 497.391 275.398 489.929 261.803 484.486Z" fill="#6F564F"/>
<path d="M243.115 508.477C231.259 499.858 217.302 493.13 202.815 490.657L201.168 493.791C207.514 503.948 215.456 514.849 225.368 521.393C240.193 531.173 259.664 530.539 275.865 537.812C265.44 527.469 254.965 517.082 243.115 508.477Z" fill="#6F564F"/>
<path d="M198.504 494.814C188.868 484.069 179.315 473.183 171.379 461.095C163.443 449.007 157.146 435.586 154.609 421.197C177.456 439.698 193.004 465.829 198.589 495.106" fill="#6F564F"/>
<path d="M176.411 513.924C183.281 523.635 191.534 534.825 201.688 540.876C217.744 550.484 237.368 551.575 256.168 552.426C237.172 545.202 224.075 527.042 205.295 519.215C196.051 515.367 187.459 514.176 177.451 513.087" fill="#6F564F"/>
<path d="M274.52 427.857C274.52 427.857 274.367 428.005 274.054 428.287L272.645 429.468L267.202 434.001C266.616 434.5 265.988 435.016 265.329 435.578C264.645 436.147 263.894 436.628 263.095 437.009C261.276 437.914 259.412 438.719 257.511 439.42C255.327 440.165 253.197 441.071 251.138 442.131C248.856 443.372 246.705 444.849 244.719 446.538C242.523 448.378 240.531 450.453 238.778 452.725C236.868 455.065 234.9 457.49 232.873 460.001C230.877 462.555 228.58 465.01 226.33 467.625L222.862 471.567L219.162 475.487C208.343 487.003 196.736 497.74 184.431 507.612C172.114 517.482 159.15 526.486 145.633 534.56C134.567 541.093 123.163 547.003 111.473 552.262C106.441 554.394 101.939 556.46 97.8651 557.941C93.7913 559.422 90.3474 560.901 87.4336 561.824L80.7754 564.07L79.0385 564.64C78.6546 564.765 78.4521 564.811 78.4521 564.811C78.4521 564.811 78.6378 564.723 79.0301 564.578L80.7403 563.962L87.3691 561.623C90.2619 560.668 93.7072 559.213 97.7572 557.653C101.807 556.092 106.31 554.049 111.328 551.899C122.971 546.605 134.335 540.679 145.37 534.15C158.853 526.066 171.791 517.068 184.092 507.219C196.38 497.365 207.979 486.657 218.8 475.177C220.058 473.865 221.293 472.555 222.505 471.272C223.717 469.988 224.834 468.631 225.979 467.343C228.211 464.745 230.528 462.297 232.524 459.743C234.519 457.189 236.55 454.824 238.449 452.499C240.235 450.212 242.26 448.122 244.488 446.27C246.518 444.597 248.709 443.136 251.025 441.91C253.102 440.852 255.25 439.949 257.451 439.209C259.342 438.527 261.198 437.742 263.009 436.858C264.491 436.019 265.875 435.012 267.136 433.858L272.636 429.406L274.076 428.261C274.341 427.983 274.52 427.857 274.52 427.857Z" fill="#B16668"/>
<path d="M280.712 499.717C280.493 499.661 280.284 499.575 280.089 499.461L278.344 498.589C276.836 497.814 274.639 496.72 271.909 495.432C257.666 488.661 242.642 483.675 227.153 480.579C224.187 479.977 221.783 479.581 220.099 479.263L218.172 478.918C217.944 478.893 217.722 478.838 217.51 478.755C217.741 478.745 217.972 478.759 218.198 478.797L220.134 479.037C221.817 479.246 224.249 479.629 227.24 480.17C242.822 483.063 257.904 488.071 272.095 495.063C274.814 496.407 276.98 497.548 278.458 498.395L280.151 499.366C280.354 499.456 280.542 499.574 280.712 499.717Z" fill="#B16668"/>
<path d="M254.272 527.924C254.073 527.851 253.885 527.751 253.714 527.626L252.174 526.688C250.839 525.87 248.931 524.651 246.575 523.119C241.869 520.07 235.431 515.766 228.404 510.877C221.378 505.987 215.117 501.422 210.62 498.064C208.371 496.385 206.574 495.009 205.352 494.059L203.936 492.933C203.765 492.809 203.607 492.669 203.463 492.514C203.656 492.597 203.836 492.706 203.998 492.84L205.486 493.875L210.881 497.742C215.436 501.016 221.731 505.524 228.728 510.401C235.725 515.278 242.148 519.647 246.796 522.781L252.298 526.501L253.776 527.532C253.958 527.64 254.124 527.772 254.272 527.924Z" fill="#B16668"/>
<path d="M169.016 444.713C169.174 444.824 169.316 444.956 169.437 445.107L170.566 446.339C171.542 447.414 172.894 449.018 174.511 451.035C182.98 461.585 189.969 473.28 195.289 485.804C196.31 488.201 197.085 490.17 197.57 491.541L198.125 493.127C198.199 493.311 198.254 493.502 198.288 493.698C198.18 493.537 198.091 493.363 198.022 493.18L197.369 491.636C196.806 490.233 195.997 488.345 194.939 485.955C192.181 479.77 189.067 473.762 185.61 467.96C182.132 462.169 178.322 456.593 174.199 451.261C172.618 449.212 171.302 447.576 170.387 446.466L169.345 445.163C169.22 445.025 169.11 444.874 169.016 444.713Z" fill="#B16668"/>
<path d="M193.366 418.274C193.516 418.218 198.756 431.676 205.088 448.338C211.419 465 216.436 478.555 216.286 478.612C216.136 478.668 210.892 465.219 204.564 448.548C198.237 431.876 193.206 418.327 193.366 418.274Z" fill="#B16668"/>
<path d="M220.902 421.781C221.009 422.39 221.063 423.009 221.065 423.63C221.146 424.91 221.243 426.615 221.351 428.675C221.605 432.926 221.998 438.807 222.589 445.28C223.179 451.753 223.895 457.601 224.437 461.817L225.083 466.821C225.188 467.429 225.247 468.044 225.259 468.664C225.088 468.072 224.959 467.467 224.875 466.854C224.653 465.692 224.371 463.993 224.063 461.864C223.416 457.652 222.654 451.809 222.053 445.332C221.453 438.855 221.115 432.95 220.971 428.684C220.905 426.549 220.864 424.819 220.864 423.619C220.834 423.007 220.847 422.393 220.902 421.781Z" fill="#B16668"/>
<path d="M261.773 461.233C261.35 461.422 260.906 461.559 260.453 461.64C259.617 461.878 258.402 462.197 256.896 462.552C253.896 463.29 249.711 464.219 245.071 465.081C240.43 465.942 236.204 466.584 233.14 466.978C231.606 467.181 230.365 467.313 229.511 467.403C229.066 467.468 228.617 467.491 228.171 467.472C228.584 467.318 229.013 467.215 229.449 467.166L233.058 466.569C236.107 466.074 240.31 465.376 244.95 464.514C249.591 463.652 253.731 462.776 256.786 462.155L260.367 461.405C260.83 461.302 261.301 461.245 261.773 461.233Z" fill="#B16668"/>
<path d="M222.923 536.174C222.86 536.329 212.421 531.341 199.613 525.053C186.805 518.766 176.483 513.548 176.556 513.397C176.63 513.246 187.059 518.231 199.873 524.532C212.686 530.834 223.055 536.023 222.923 536.174Z" fill="#B16668"/>
<path d="M180.627 509.589C170.332 503.954 158.408 497.073 151.216 487.758C139.863 472.965 136.354 453.544 133.156 434.977C142.566 452.991 161.873 463.777 171.826 481.481C176.732 490.212 178.96 498.61 181.263 508.425" fill="#6F564F"/>
<path d="M153.431 465.997C153.561 465.908 159.869 475.523 167.521 487.48C175.173 499.436 181.279 509.204 181.15 509.293C181.021 509.382 174.707 499.753 167.055 487.796C159.403 475.84 153.302 466.086 153.431 465.997Z" fill="#B16668"/>
<path d="M199.084 172.516C198.814 169.065 199.563 165.625 201.233 162.63C202.904 159.636 205.423 157.221 208.472 155.691C211.521 154.162 214.963 153.585 218.363 154.035C221.764 154.485 224.971 155.941 227.579 158.219C230.187 160.497 232.079 163.495 233.016 166.835C233.954 170.174 233.895 173.706 232.846 176.983C231.798 180.26 229.807 183.136 227.126 185.248C224.445 187.36 221.193 188.613 217.781 188.849C215.505 189.019 213.213 188.73 211.036 187.999C208.86 187.268 206.843 186.108 205.103 184.588C203.363 183.068 201.935 181.219 200.901 179.146C199.868 177.073 199.25 174.82 199.084 172.516Z" fill="#B16668"/>
<path d="M209.996 86.4232C209.727 82.9717 210.475 79.5316 212.146 76.5371C213.817 73.5426 216.336 71.1282 219.384 69.5985C222.433 68.0688 225.875 67.4923 229.276 67.9422C232.676 68.3921 235.883 69.848 238.491 72.1261C241.099 74.4042 242.991 77.4022 243.928 80.7418C244.866 84.0814 244.807 87.6128 243.759 90.8899C242.71 94.1671 240.72 97.0434 238.038 99.1552C235.357 101.267 232.105 102.52 228.693 102.756C226.417 102.926 224.125 102.638 221.948 101.906C219.772 101.175 217.755 100.015 216.015 98.4956C214.275 96.9757 212.847 95.1257 211.814 93.0532C210.78 90.9807 210.162 88.7268 209.996 86.4232Z" fill="#B16668"/>
<path d="M142.142 141.996C141.855 139.09 142.435 136.177 143.807 133.631C145.178 131.084 147.279 129.023 149.839 127.711C152.398 126.399 155.299 125.897 158.167 126.269C161.035 126.642 163.739 127.872 165.931 129.802C168.123 131.731 169.701 134.272 170.464 137.095C171.226 139.919 171.137 142.896 170.208 145.644C169.28 148.391 167.554 150.784 165.253 152.512C162.952 154.24 160.182 155.225 157.299 155.34C153.586 155.489 149.939 154.185 147.116 151.7C144.293 149.214 142.512 145.739 142.142 141.996Z" fill="#B16668"/>
<path d="M111.02 89.0424C110.754 86.1631 111.345 83.2814 112.716 80.7669C114.087 78.2523 116.176 76.2193 118.715 74.9285C121.254 73.6376 124.128 73.1479 126.968 73.5217C129.808 73.8956 132.485 75.1163 134.655 77.0271C136.826 78.938 138.391 81.4521 139.151 84.2472C139.91 87.0423 139.829 89.9908 138.919 92.7152C138.008 95.4396 136.309 97.8157 134.039 99.5388C131.768 101.262 129.031 102.254 126.177 102.387C122.452 102.586 118.778 101.3 115.944 98.8046C113.109 96.3093 111.341 92.8041 111.02 89.0424Z" fill="#B16668"/>
<path d="M66.6471 126.324C66.36 123.418 66.9397 120.505 68.3116 117.959C69.6834 115.413 71.7843 113.351 74.3439 112.039C76.9034 110.727 79.8042 110.225 82.6723 110.597C85.5404 110.97 88.2445 112.201 90.4361 114.13C92.6278 116.06 94.2065 118.6 94.9689 121.423C95.7314 124.247 95.6426 127.224 94.7139 129.972C93.7852 132.72 92.0591 135.112 89.7583 136.84C87.4575 138.568 84.6873 139.554 81.8046 139.669C78.0855 139.842 74.4248 138.547 71.5963 136.057C68.7677 133.567 66.993 130.076 66.6471 126.324Z" fill="#B16668"/>
<path d="M64.1973 265.507C-20.4155 284.692 7.39042 304.592 21.1378 320.448C35.2835 336.772 65.0888 365.005 96.5121 358.346C130.549 351.135 141.815 315.519 142.397 297.769C143.29 270.369 164.584 242.754 64.1973 265.507ZM78.2223 288.918C42.1868 296.553 11.6204 298.055 9.95186 292.265C8.28331 286.475 36.1473 275.596 72.1698 267.964C108.192 260.331 138.772 258.826 140.44 264.616C142.109 270.406 114.245 281.285 78.2093 288.92L78.2223 288.918Z" stroke="#1D1D1B" stroke-miterlimit="10"/>
<path d="M143.736 288.96C143.116 277.317 165.425 281.606 163.632 302.546C162.17 319.7 136.252 325.873 137.111 322.438C138.21 318.063 163.241 314.655 158.408 297.861C153.574 281.067 143.885 291.919 143.736 288.96Z" stroke="#1D1D1B" stroke-miterlimit="10"/>
<path d="M105.319 328.357C109.817 315.774 102.332 301.541 98.4479 298.149C97.2023 297.063 95.8535 310.541 86.9778 322.526C78.8894 333.443 82.9537 346.6 88.0226 348.215C93.0916 349.83 100.834 340.937 105.332 328.354L105.319 328.357Z" stroke="#1D1D1B" stroke-miterlimit="10"/>
<path d="M112.74 338.917C114.662 333.533 111.46 327.433 109.795 325.985C109.264 325.522 108.687 331.297 104.884 336.429C101.415 341.103 103.153 346.738 105.325 347.428C107.497 348.119 110.808 344.316 112.74 338.917Z" stroke="#1D1D1B" stroke-miterlimit="10"/>
<path d="M69.8309 340.211C68.7953 334.568 72.8706 329.161 74.7214 328.032C75.3106 327.67 74.9861 333.452 77.8992 339.195C80.5579 344.431 77.9768 349.644 75.7482 349.931C73.5196 350.217 70.87 345.865 69.8181 340.214L69.8309 340.211Z" stroke="#1D1D1B" stroke-miterlimit="10"/>
<path d="M105.73 346.244C104.742 342.827 110.605 336.209 109.617 332.793" stroke="#1D1D1B" stroke-miterlimit="10"/>
<path d="M88.6766 346.093C88.1613 336.163 101.785 319.448 99.163 310.377" stroke="#1D1D1B" stroke-miterlimit="10"/>
<path d="M75.4853 348.1C74.5748 344.876 72.767 338.473 73.6918 334.918" stroke="#1D1D1B" stroke-miterlimit="10"/>
</svg>
