<svg width="396" height="685" viewBox="0 0 396 685" fill="none" xmlns="http://www.w3.org/2000/svg">
<path d="M208.455 439.813C219.508 440.397 258.362 436.422 256.55 398.205C256.283 398.279 255.941 398.374 255.675 398.448C229.069 405.837 217.667 409.004 216.28 404.01C214.893 399.017 228.956 395.111 251.001 388.988C252.407 388.597 253.814 388.207 255.182 387.827C254.788 385.965 254.334 384.038 253.784 382.056C253.032 379.349 252.181 376.876 251.248 374.548C249.956 374.907 248.816 375.223 247.865 375.487C221.259 382.877 209.857 386.044 208.533 381.279C207.21 376.514 219.373 373.136 241.418 367.013C243.242 366.506 245.067 365.999 246.891 365.493C227.996 334.607 191.776 354.11 185.125 355.958C181.324 357.013 178.983 352.859 178.424 348.785C178.078 346.212 178.811 343.545 180.688 341.751C198.419 324.96 245.253 320.534 266.409 360.441C276.646 358.091 283.816 357.372 284.589 360.155C285.256 362.557 278.362 365.744 270.132 368.687C271.128 371.244 272.032 373.908 272.826 376.767C273.398 378.826 273.883 380.867 274.309 382.843C284.546 380.492 291.45 379.848 292.297 382.897C293.059 385.642 284.884 389.227 275.769 392.374C281.214 445.884 228.816 462.12 207.803 452.353C202.395 449.831 203.692 439.616 208.428 439.861L208.455 439.813Z" stroke="black" stroke-width="2" stroke-miterlimit="10"/>
<path d="M80.5339 384.304C81.0884 385.021 81.418 385.887 81.4811 386.791C81.5441 387.696 81.3378 388.598 80.8881 389.386C80.4385 390.173 79.7657 390.809 78.9546 391.214C78.1436 391.619 77.2307 391.775 76.3312 391.662C75.4317 391.548 74.586 391.171 73.9008 390.577C73.2156 389.984 72.7217 389.2 72.4814 388.326C72.2411 387.452 72.2652 386.526 72.5507 385.666C72.8361 384.805 73.3701 384.049 74.0853 383.492C74.5602 383.117 75.1049 382.841 75.6877 382.679C76.2704 382.517 76.8796 382.472 77.4797 382.548C78.0798 382.624 78.6589 382.818 79.1832 383.119C79.7075 383.421 80.1667 383.824 80.5339 384.304Z" fill="#BA68C8"/>
<path d="M91.0456 404.41C91.6001 405.128 91.9297 405.993 91.9928 406.897C92.0558 407.802 91.8495 408.704 91.3998 409.492C90.9502 410.279 90.2774 410.915 89.4663 411.32C88.6553 411.725 87.7424 411.881 86.8429 411.768C85.9435 411.654 85.0977 411.277 84.4126 410.683C83.7274 410.09 83.2334 409.306 82.9931 408.432C82.7528 407.558 82.7769 406.632 83.0624 405.772C83.3478 404.911 83.8818 404.155 84.597 403.598C85.0719 403.223 85.6167 402.947 86.1994 402.785C86.7822 402.623 87.3913 402.578 87.9914 402.654C88.5915 402.73 89.1706 402.924 89.6949 403.225C90.2193 403.527 90.6784 403.93 91.0456 404.41Z" fill="#BA68C8"/>
<path d="M97.8052 382.6C98.2854 383.195 98.5764 383.92 98.6407 384.682C98.7051 385.444 98.5398 386.207 98.1663 386.874C97.7928 387.541 97.2281 388.081 96.545 388.424C95.8619 388.767 95.0917 388.898 94.3337 388.799C93.5756 388.701 92.8644 388.377 92.2918 387.871C91.7191 387.365 91.3112 386.698 91.1207 385.958C90.9301 385.218 90.9656 384.437 91.2226 383.718C91.4795 382.998 91.9462 382.371 92.5625 381.919C93.3562 381.336 94.344 381.082 95.3205 381.209C96.2969 381.336 97.1868 381.834 97.8052 382.6Z" fill="#BA68C8"/>
<path d="M112.698 389.468C113.169 390.061 113.453 390.78 113.513 391.535C113.573 392.29 113.407 393.045 113.035 393.704C112.663 394.364 112.102 394.897 111.425 395.235C110.748 395.574 109.985 395.703 109.234 395.605C108.484 395.508 107.779 395.188 107.211 394.688C106.643 394.187 106.238 393.528 106.047 392.796C105.855 392.063 105.887 391.29 106.138 390.576C106.389 389.862 106.848 389.239 107.455 388.787C108.244 388.191 109.235 387.929 110.216 388.056C111.196 388.184 112.087 388.691 112.698 389.468Z" fill="#BA68C8"/>
<path d="M116.969 374.998C117.449 375.593 117.74 376.318 117.805 377.08C117.869 377.842 117.704 378.605 117.33 379.272C116.957 379.939 116.392 380.479 115.709 380.822C115.026 381.165 114.256 381.296 113.498 381.197C112.74 381.099 112.029 380.775 111.456 380.269C110.883 379.763 110.475 379.096 110.285 378.356C110.094 377.616 110.13 376.835 110.387 376.115C110.644 375.396 111.11 374.769 111.727 374.317C112.518 373.728 113.507 373.469 114.486 373.597C115.464 373.724 116.355 374.227 116.969 374.998Z" fill="#BA68C8"/>
<path d="M19.2175 523.736C15.0757 490.103 25.6137 456.707 45.9032 429.864C51.355 422.632 57.5008 415.951 64.2529 409.915C70.9554 403.475 78.6572 398.163 87.059 394.187C87.059 394.187 87.2163 394.187 87.059 394.344C81.0036 399.587 74.3977 403.991 68.4471 409.312C62.5442 414.539 57.0494 420.209 52.011 426.273C41.6656 438.705 33.6709 452.918 28.4186 468.215C23.0928 483.971 21.0841 500.658 22.5187 517.228C23.9533 533.798 28.8001 549.892 36.7546 564.498C41.3196 572.647 46.953 580.15 53.5052 586.806C60.2415 593.305 67.8674 598.812 76.154 603.164C77.7007 604.055 76.5997 606.886 74.8695 606.545C66.2976 604.789 58.748 598.839 52.5615 592.888C46.1781 586.707 40.5947 579.749 35.942 572.179C26.9418 557.425 21.2367 540.9 19.2175 523.736Z" fill="#37474F"/>
<path d="M27.8171 676.274C45.7736 686.629 88.974 689.565 115.738 673.653C145.911 655.723 149.397 629.089 135.268 622.903C115.188 613.99 105.384 646.495 76.9681 658.396C43.1784 672.578 27.8171 665.029 27.8171 665.029V676.274Z" fill="#BA68C8"/>
<path opacity="0.2" d="M27.8171 676.274C45.7736 686.629 88.974 689.565 115.738 673.653C145.911 655.723 149.397 629.089 135.268 622.903C115.188 613.99 105.384 646.495 76.9681 658.396C43.1784 672.578 27.8171 665.029 27.8171 665.029V676.274Z" fill="white"/>
<path d="M56.5252 676.825C91.3635 676.825 122.741 654.543 131.261 634.647C131.386 634.34 131.387 633.997 131.265 633.689C131.143 633.382 130.907 633.133 130.606 632.995C130.456 632.931 130.295 632.896 130.132 632.894C129.969 632.892 129.807 632.923 129.656 632.984C129.505 633.044 129.367 633.135 129.251 633.249C129.135 633.364 129.043 633.5 128.98 633.651C118.809 657.4 74.4293 683.457 33.9551 670.953C33.6387 670.854 33.2961 670.884 33.0016 671.036C32.7071 671.188 32.4845 671.45 32.3823 671.766C32.2914 672.085 32.328 672.428 32.4844 672.721C32.6409 673.014 32.9049 673.236 33.2211 673.338C40.77 675.664 48.6262 676.84 56.5252 676.825Z" fill="white"/>
<path d="M64.3643 620.229C64.3308 620.388 64.3578 620.555 64.4402 620.695C64.5226 620.836 64.6544 620.94 64.8099 620.989C93.9859 629.797 125.102 616.664 144.054 587.54C144.147 587.393 144.179 587.216 144.145 587.045C144.111 586.874 144.013 586.723 143.871 586.623C143.72 586.533 143.541 586.505 143.37 586.544C143.199 586.583 143.05 586.686 142.953 586.832C124.315 615.458 93.8024 628.355 65.2031 619.731C65.0328 619.681 64.8499 619.7 64.6933 619.783C64.5366 619.867 64.4186 620.008 64.3643 620.177V620.229Z" fill="#455A64"/>
<path d="M122.428 586.256C122.402 586.605 122.402 586.955 122.428 587.304C122.496 589.73 122.92 592.132 123.686 594.434C125.313 598.793 125.524 603.554 124.289 608.039C124.264 608.143 124.267 608.252 124.299 608.354C124.332 608.456 124.392 608.547 124.473 608.616C124.563 608.675 124.667 608.706 124.774 608.706C124.881 608.706 124.986 608.675 125.076 608.616C130.555 605.13 138.55 594.566 135.011 585.994C132.756 580.541 129.218 580.567 127.776 580.751C126.441 581.038 125.221 581.714 124.269 582.694C123.317 583.674 122.677 584.913 122.428 586.256ZM125.81 606.257C126.41 602.195 126.014 598.048 124.656 594.172C123.919 591.963 123.504 589.659 123.424 587.331C123.472 586.053 123.94 584.826 124.755 583.84C125.57 582.855 126.687 582.165 127.933 581.878C130.423 581.432 132.652 583.084 134.041 586.413C137.265 594.277 130.161 603.347 125.653 606.912L125.81 606.257Z" fill="#455A64"/>
<path d="M124.186 608.092C124.149 608.16 124.13 608.237 124.13 608.315C124.13 608.392 124.149 608.469 124.186 608.537C124.284 608.634 124.415 608.687 124.553 608.687C124.69 608.687 124.822 608.634 124.92 608.537C129.455 604.422 131.866 593.674 129.664 587.226C129.622 587.094 129.53 586.984 129.407 586.92C129.284 586.856 129.141 586.844 129.009 586.885C128.875 586.933 128.765 587.03 128.702 587.157C128.638 587.284 128.626 587.431 128.668 587.566C130.949 594.225 128.118 604.238 124.212 607.751C124.172 607.86 124.163 607.978 124.186 608.092Z" fill="#455A64"/>
<path d="M128.037 604.579C127.987 604.733 127.987 604.898 128.037 605.051C128.134 605.167 128.267 605.246 128.415 605.274C128.563 605.303 128.717 605.28 128.85 605.208C132.152 603.111 141.956 605.995 147.724 608.433C149.419 609.201 151.27 609.565 153.131 609.497C154.991 609.429 156.81 608.93 158.445 608.04C159.468 607.368 160.305 606.449 160.878 605.367C161.451 604.286 161.741 603.077 161.722 601.853C161.733 600.64 161.382 599.451 160.714 598.438C160.047 597.425 159.092 596.633 157.973 596.165C152.023 593.229 139.623 595.064 128.168 604.238C128.085 604.333 128.038 604.454 128.037 604.579ZM160.463 603.19C160.328 603.983 160.024 604.737 159.572 605.402C159.12 606.067 158.53 606.626 157.842 607.043C156.373 607.838 154.739 608.28 153.069 608.335C151.399 608.389 149.74 608.055 148.222 607.358C147.697 607.148 137.553 602.875 131.34 603.321C141.642 596.034 152.311 594.644 157.554 597.213C158.469 597.588 159.252 598.227 159.803 599.049C160.354 599.87 160.648 600.838 160.647 601.827C160.641 602.287 160.579 602.745 160.463 603.19Z" fill="#455A64"/>
<path d="M128.037 604.579C127.986 604.714 127.986 604.863 128.037 604.999C128.118 605.132 128.249 605.229 128.4 605.268C128.552 605.307 128.713 605.286 128.849 605.208C137.919 599.966 151.446 600.673 155.063 601.827C155.213 601.877 155.376 601.867 155.518 601.798C155.66 601.73 155.77 601.608 155.823 601.46C155.847 601.386 155.856 601.308 155.849 601.23C155.842 601.153 155.82 601.077 155.783 601.009C155.746 600.94 155.696 600.88 155.636 600.831C155.575 600.783 155.505 600.747 155.43 600.726C151.681 599.52 137.657 598.76 128.272 604.186C128.149 604.284 128.065 604.424 128.037 604.579Z" fill="#455A64"/>
<path d="M137.237 565.626C138.578 572.425 141.406 578.844 145.521 584.421C156.269 587.802 160.961 588.563 169.507 587.226C171.559 586.788 173.486 585.892 175.143 584.604C175.732 584.087 176.111 583.372 176.208 582.594C176.305 581.816 176.112 581.029 175.667 580.384C174.767 579.568 173.604 579.103 172.39 579.073L161.669 577.605C165.681 577.417 169.579 576.208 172.993 574.093C174.251 573.306 175.615 572.022 175.169 570.606C174.723 569.191 172.39 568.719 170.66 568.981C166.169 569.61 161.811 570.973 157.763 573.018C160.679 569.153 162.97 564.854 164.552 560.278C164.772 559.838 164.886 559.354 164.886 558.862C164.886 558.371 164.772 557.886 164.552 557.447C163.556 556.084 161.38 557.001 160.122 558.102C157.204 560.632 154.816 563.714 153.097 567.172C154.333 562.125 154.404 556.863 153.307 551.785C153.266 551.382 153.145 550.991 152.952 550.635C152.758 550.28 152.496 549.966 152.179 549.714C150.816 548.875 149.191 550.395 148.483 551.837C146.632 555.707 145.682 559.946 145.705 564.236C144.997 561.615 142.69 555.507 140.462 555.69C138.234 555.874 136.294 561.222 137.237 565.626Z" fill="#BA68C8"/>
<path opacity="0.15" d="M137.237 565.626C138.578 572.425 141.406 578.844 145.521 584.421C156.269 587.802 160.961 588.563 169.507 587.226C171.559 586.788 173.486 585.892 175.143 584.604C175.732 584.087 176.111 583.372 176.208 582.594C176.305 581.816 176.112 581.029 175.667 580.384C174.767 579.568 173.604 579.103 172.39 579.073L161.669 577.605C165.681 577.417 169.579 576.208 172.993 574.093C174.251 573.306 175.615 572.022 175.169 570.606C174.723 569.191 172.39 568.719 170.66 568.981C166.169 569.61 161.811 570.973 157.763 573.018C160.679 569.153 162.97 564.854 164.552 560.278C164.772 559.838 164.886 559.354 164.886 558.862C164.886 558.371 164.772 557.886 164.552 557.447C163.556 556.084 161.38 557.001 160.122 558.102C157.204 560.632 154.816 563.714 153.097 567.172C154.333 562.125 154.404 556.863 153.307 551.785C153.266 551.382 153.145 550.991 152.952 550.635C152.758 550.28 152.496 549.966 152.179 549.714C150.816 548.875 149.191 550.395 148.483 551.837C146.632 555.707 145.682 559.946 145.705 564.236C144.997 561.615 142.69 555.507 140.462 555.69C138.234 555.874 136.294 561.222 137.237 565.626Z" fill="black"/>
<path d="M98.6211 498.518C87.5356 504.249 78.5781 513.381 73.0626 524.575C68.4811 533.351 65.549 542.894 64.412 552.728C64.2064 554.582 64.1188 556.447 64.1499 558.312C64.2807 559.453 64.2807 560.605 64.1499 561.746C64.1499 562.218 63.1799 562.69 62.7867 562.218C60.9518 559.937 61.4236 555.979 61.6595 553.253C62.098 548.576 62.9757 543.95 64.2809 539.438C67.0822 528.504 72.6213 518.463 80.3762 510.262C85.5837 505.092 91.6854 500.909 98.3852 497.915C98.6735 497.915 98.6473 498.361 98.3852 498.466L98.6211 498.518Z" fill="#455A64"/>
<path d="M81.9488 512.123C77.8935 500.668 77.5087 488.235 80.8478 476.551C86.3265 456.445 94.1382 447.873 102.632 447.873C104.949 447.776 107.239 448.403 109.183 449.666C111.128 450.93 112.631 452.768 113.484 454.924C113.484 454.924 122.449 451.49 126.067 455.501C129.684 459.512 128.19 469.001 128.19 469.001C128.19 469.001 133.433 467.455 135.53 468.425C137.627 469.395 141.926 486.958 134.036 496.211C126.145 505.465 99.8529 518.834 81.9488 512.123Z" fill="#BA68C8"/>
<path opacity="0.25" d="M81.9488 512.123C77.8935 500.668 77.5087 488.235 80.8478 476.551C86.3265 456.445 94.1382 447.873 102.632 447.873C104.949 447.776 107.239 448.403 109.183 449.666C111.128 450.93 112.631 452.768 113.484 454.924C113.484 454.924 122.449 451.49 126.067 455.501C129.684 459.512 128.19 469.001 128.19 469.001C128.19 469.001 133.433 467.455 135.53 468.425C137.627 469.395 141.926 486.958 134.036 496.211C126.145 505.465 99.8529 518.834 81.9488 512.123Z" fill="black"/>
<path d="M84.5195 513.67C95.2397 516.614 106.506 516.974 117.392 514.718C136.239 511.048 142.793 505.648 143.999 496.369C145.205 487.089 138.756 484.599 131.102 491.388C131.102 491.388 130.551 486.355 127.536 485.149C125.982 484.667 124.336 484.553 122.73 484.817C121.124 485.081 119.602 485.715 118.283 486.669C116.998 487.98 103.97 510.314 84.5195 513.67Z" fill="#BA68C8"/>
<path opacity="0.15" d="M84.5195 513.67C95.2397 516.614 106.506 516.974 117.392 514.718C136.239 511.048 142.793 505.648 143.999 496.369C145.205 487.089 138.756 484.599 131.102 491.388C131.102 491.388 130.551 486.355 127.536 485.149C125.982 484.667 124.336 484.553 122.73 484.817C121.124 485.081 119.602 485.715 118.283 486.669C116.998 487.98 103.97 510.314 84.5195 513.67Z" fill="black"/>
<path d="M79.7771 505.543C74.7627 498.16 71.4007 489.782 69.9207 480.981C68.2693 467.874 70.7334 456.969 78.0732 460.456C78.0732 460.456 78.283 455.082 82.582 454.217C86.8811 453.352 96.0822 463.942 95.689 474.926C95.2957 485.909 79.7771 505.543 79.7771 505.543Z" fill="#BA68C8"/>
<path opacity="0.15" d="M79.7771 505.543C74.7627 498.16 71.4007 489.782 69.9207 480.981C68.2693 467.874 70.7334 456.969 78.0732 460.456C78.0732 460.456 78.283 455.082 82.582 454.217C86.8811 453.352 96.0822 463.942 95.689 474.926C95.2957 485.909 79.7771 505.543 79.7771 505.543Z" fill="black"/>
<path d="M84.5224 513.67C94.8506 514.771 108.508 508.112 115.035 502.188C122.899 495.005 127.33 482.947 124.027 475.109C120.724 467.271 111.47 465.069 111.47 465.069C111.47 465.069 109.688 457.86 100.303 458.149C93.8545 458.332 85.8331 472.671 82.1107 485.201C78.3883 497.732 80.4854 508.427 84.5224 513.67Z" fill="#BA68C8"/>
<path d="M74.8965 518.441C77.9636 517.523 81.3189 517.864 89.6812 519.096C98.0434 520.328 105.541 520.643 106.275 515.452C107.009 510.262 93.1676 511.835 93.1676 511.835C93.1676 511.835 100.612 502.922 96.6016 498.964C91.3589 493.721 83.0228 505.255 83.0228 505.255C83.0228 505.255 82.7083 493.144 77.7801 492.935C72.8519 492.725 71.8033 498.177 73.3237 504.469C74.8441 510.76 76.1548 515.583 74.8965 518.441Z" fill="#455A64"/>
<path d="M27.8214 676.274L7.63672 664.609C7.63672 664.609 -18.0004 617.424 24.6757 580.567C64.7567 545.913 108.56 547.931 108.56 547.931C108.56 547.931 119.753 604.606 99.3853 641.253C77.8375 680.285 27.8214 676.274 27.8214 676.274Z" fill="#BA68C8"/>
<path opacity="0.5" d="M27.8214 676.274L7.63672 664.609C7.63672 664.609 -18.0004 617.424 24.6757 580.567C64.7567 545.913 108.56 547.931 108.56 547.931C108.56 547.931 119.753 604.606 99.3853 641.253C77.8375 680.285 27.8214 676.274 27.8214 676.274Z" fill="white"/>
<path d="M17.7265 671.687C18.0186 671.686 18.3013 671.584 18.5261 671.397C18.7509 671.21 18.9038 670.952 18.9586 670.665C31.515 601.119 76.8912 569.112 95.8176 558.574C95.9614 558.498 96.0882 558.393 96.1904 558.266C96.2925 558.139 96.3679 557.993 96.412 557.836C96.4561 557.679 96.468 557.515 96.4469 557.354C96.4259 557.192 96.3723 557.037 96.2895 556.896C96.1292 556.612 95.8645 556.401 95.5514 556.308C95.2384 556.215 94.9014 556.247 94.6118 556.398C75.3708 567.12 29.2344 599.625 16.4945 670.219C16.448 670.545 16.528 670.875 16.7182 671.144C16.9084 671.412 17.1943 671.597 17.5168 671.661L17.7265 671.687Z" fill="white"/>
<path d="M40.4804 611.5C40.7896 611.504 41.089 611.392 41.3193 611.185C50.0747 603.321 77.7041 602.64 92.3053 609.901C92.4492 609.977 92.6069 610.022 92.769 610.036C92.9311 610.049 93.0941 610.029 93.2484 609.978C93.4027 609.926 93.545 609.844 93.6667 609.737C93.7884 609.629 93.8871 609.497 93.9567 609.35C94.1036 609.054 94.1282 608.713 94.0252 608.399C93.9222 608.085 93.6999 607.824 93.4062 607.673C77.6779 599.808 49.1572 600.805 39.6678 609.324C39.4388 609.559 39.3107 609.874 39.3107 610.202C39.3107 610.53 39.4388 610.846 39.6678 611.08C39.7675 611.202 39.891 611.302 40.0308 611.374C40.1705 611.446 40.3235 611.489 40.4804 611.5Z" fill="white"/>
<path d="M152.021 512.28C152.737 511.039 153.885 510.106 155.246 509.659C156.022 509.413 156.842 509.334 157.651 509.429C158.46 509.524 159.24 509.79 159.938 510.209C161.115 511.159 161.936 512.478 162.269 513.953C162.602 515.428 162.427 516.973 161.773 518.336C162.67 517.115 163.948 516.229 165.406 515.816C166.863 515.403 168.417 515.487 169.821 516.055C170.5 516.482 171.083 517.045 171.534 517.708C171.985 518.371 172.294 519.12 172.442 519.909C172.718 521.304 172.465 522.752 171.734 523.972C169.401 527.904 162.481 528.664 160.253 529.031C158.515 529.279 156.764 529.428 155.01 529.477C154.125 527.909 153.354 526.279 152.703 524.601C152.021 522.425 149.636 516.212 152.021 512.28Z" fill="#BA68C8"/>
<path d="M217.844 63.142C217.628 63.9105 217.649 64.6961 217.904 65.3993C218.158 66.1026 218.635 66.6922 219.274 67.0934C219.913 67.4947 220.686 67.6898 221.494 67.654C222.303 67.6183 223.111 67.3533 223.816 66.8926C224.522 66.4318 225.094 65.7959 225.459 65.0652C225.825 64.3344 225.968 63.5417 225.87 62.7869C225.773 62.0322 225.439 61.3494 224.911 60.8246C224.383 60.2999 223.684 59.9567 222.904 59.8386C222.384 59.7567 221.839 59.7776 221.302 59.8999C220.765 60.0222 220.246 60.2435 219.775 60.5509C219.304 60.8583 218.891 61.2457 218.56 61.6905C218.228 62.1354 217.985 62.6287 217.844 63.142Z" fill="#BA68C8"/>
<path d="M217.393 82.894C217.177 83.6626 217.198 84.4481 217.453 85.1514C217.707 85.8547 218.184 86.4442 218.823 86.8455C219.462 87.2467 220.235 87.4419 221.043 87.4061C221.851 87.3704 222.659 87.1054 223.365 86.6446C224.071 86.1838 224.643 85.5479 225.008 84.8172C225.374 84.0865 225.517 83.2938 225.419 82.539C225.321 81.7843 224.988 81.1014 224.46 80.5766C223.932 80.0519 223.233 79.7087 222.452 79.5906C221.933 79.5088 221.388 79.5296 220.851 79.6519C220.314 79.7742 219.795 79.9955 219.324 80.3029C218.853 80.6103 218.44 80.9977 218.108 81.4425C217.777 81.8874 217.534 82.3808 217.393 82.894Z" fill="#BA68C8"/>
<path d="M203.711 68.4398C203.515 69.0857 203.52 69.7499 203.725 70.347C203.93 70.944 204.326 71.4464 204.861 71.7895C205.396 72.1326 206.047 72.3007 206.728 72.272C207.41 72.2434 208.091 72.0194 208.685 71.6288C209.279 71.2382 209.757 70.699 210.059 70.0806C210.361 69.4623 210.473 68.7931 210.38 68.1594C210.286 67.5257 209.992 66.9564 209.535 66.5249C209.079 66.0934 208.48 65.8196 207.817 65.7386C206.963 65.6342 206.059 65.8567 205.294 66.3598C204.53 66.8629 203.962 67.6079 203.711 68.4398Z" fill="#BA68C8"/>
<path d="M194.733 79.5423C194.543 80.1827 194.553 80.84 194.759 81.4299C194.965 82.0199 195.359 82.5156 195.891 82.8536C196.422 83.1916 197.067 83.3564 197.742 83.3269C198.417 83.2975 199.092 83.0751 199.68 82.6883C200.268 82.3014 200.742 81.7678 201.042 81.1557C201.342 80.5437 201.455 79.8812 201.364 79.253C201.274 78.6248 200.985 78.0596 200.536 77.6299C200.086 77.2001 199.495 76.9254 198.839 76.8409C197.984 76.7249 197.075 76.9429 196.308 77.4481C195.54 77.9532 194.974 78.7051 194.733 79.5423Z" fill="#BA68C8"/>
<path d="M185.819 69.8936C185.624 70.5395 185.629 71.2038 185.834 71.8008C186.039 72.3979 186.435 72.9003 186.97 73.2434C187.505 73.5866 188.156 73.7546 188.837 73.726C189.519 73.6973 190.2 73.4732 190.794 73.0827C191.388 72.6921 191.867 72.1529 192.169 71.5345C192.471 70.9161 192.582 70.247 192.489 69.6132C192.395 68.9794 192.101 68.4101 191.645 67.9786C191.188 67.5472 190.589 67.2733 189.926 67.1923C189.071 67.0822 188.165 67.3024 187.399 67.8065C186.632 68.3106 186.066 69.0591 185.819 69.8936Z" fill="#BA68C8"/>
<path d="M321.839 146.419C313.445 118.848 292.364 97.7385 265.137 85.8288C257.814 82.614 250.083 80.1183 242.056 78.3775C233.927 76.3049 225.332 75.5258 216.604 76.0704C216.604 76.0704 216.467 76.1377 216.66 76.191C223.798 77.6218 231.117 78.1736 238.192 79.7096C245.192 81.1929 251.995 83.1913 258.542 85.6873C271.977 90.7975 284.003 98.2792 294.029 107.766C304.283 117.574 311.983 129.515 316.646 142.839C321.308 156.164 322.833 170.583 321.122 185.19C320.058 193.395 317.833 201.56 314.507 209.47C310.964 217.337 306.294 224.824 300.637 231.708C299.609 233.053 301.577 234.754 302.961 233.752C309.792 228.737 314.237 220.943 317.497 213.731C320.846 206.258 323.222 198.532 324.569 190.735C327.137 175.566 326.205 160.449 321.839 146.419Z" fill="#37474F"/>
<path d="M372.031 268.469C361.071 283.459 327.242 303.206 300.265 302.273C269.856 301.228 258.004 282.869 267.293 272.53C280.454 257.747 299.393 277.897 326.34 275.18C358.393 271.97 368.213 260.118 368.213 260.118L372.031 268.469Z" fill="#BA68C8"/>
<path opacity="0.2" d="M372.031 268.469C361.071 283.459 327.242 303.206 300.265 302.273C269.856 301.228 258.004 282.869 267.293 272.53C280.454 257.747 299.393 277.897 326.34 275.18C358.393 271.97 368.213 260.118 368.213 260.118L372.031 268.469Z" fill="white"/>
<path d="M348.923 280.672C320.98 294.755 288.29 290.978 274.74 279.723C274.536 279.547 274.419 279.294 274.413 279.018C274.407 278.741 274.513 278.462 274.708 278.238C274.806 278.13 274.924 278.04 275.054 277.972C275.184 277.905 275.324 277.862 275.465 277.846C275.607 277.83 275.748 277.841 275.88 277.879C276.011 277.916 276.131 277.98 276.233 278.065C292.409 291.5 336.801 292.809 365.043 267.209C365.264 267.008 365.548 266.892 365.836 266.885C366.124 266.879 366.391 266.982 366.579 267.174C366.76 267.373 366.846 267.641 366.82 267.921C366.793 268.201 366.656 268.471 366.437 268.675C361.168 273.445 355.263 277.489 348.923 280.672Z" fill="white"/>
<path d="M321.687 239.266C321.766 239.369 321.799 239.502 321.779 239.639C321.759 239.775 321.687 239.906 321.577 240.005C300.936 258.364 271.501 261.449 246.613 247.859C246.49 247.788 246.405 247.672 246.377 247.533C246.348 247.394 246.377 247.244 246.459 247.112C246.551 246.985 246.686 246.891 246.837 246.85C246.988 246.809 247.142 246.823 247.268 246.891C271.738 260.245 300.609 257.234 320.846 239.244C320.967 239.138 321.121 239.077 321.274 239.074C321.428 239.071 321.57 239.126 321.669 239.228L321.687 239.266Z" fill="#455A64"/>
<path d="M263.857 236.659C264.001 236.914 264.124 237.181 264.224 237.458C265.014 239.334 265.492 241.344 265.643 243.423C265.777 247.434 267.263 251.149 269.888 254.039C269.946 254.107 269.981 254.192 269.989 254.283C269.997 254.374 269.978 254.469 269.933 254.557C269.877 254.639 269.798 254.708 269.707 254.753C269.615 254.799 269.514 254.82 269.417 254.813C263.513 254.491 252.981 249.851 253.007 241.817C253.026 236.705 256.061 235.218 257.358 234.744C258.6 234.395 259.88 234.39 261.037 234.731C262.193 235.072 263.174 235.743 263.857 236.659ZM267.964 253.329C266.03 250.492 264.917 247.165 264.722 243.636C264.58 241.64 264.128 239.708 263.381 237.902C262.893 236.949 262.064 236.214 261.022 235.811C259.981 235.407 258.784 235.358 257.618 235.67C255.333 236.39 254.006 238.597 253.983 241.723C253.978 249.084 263.226 252.966 268.328 253.761L267.964 253.329Z" fill="#455A64"/>
<path d="M270.115 254.226C270.172 254.263 270.216 254.314 270.244 254.374C270.272 254.433 270.283 254.5 270.275 254.569C270.224 254.685 270.127 254.782 270.007 254.841C269.887 254.9 269.753 254.915 269.632 254.884C264.189 253.667 258.229 246.446 257.848 240.548C257.837 240.429 257.879 240.305 257.964 240.203C258.048 240.101 258.169 240.03 258.299 240.005C258.433 239.984 258.565 240.012 258.666 240.082C258.767 240.153 258.83 240.26 258.842 240.382C259.229 246.475 265.293 252.953 269.97 253.976C270.044 254.042 270.095 254.129 270.115 254.226Z" fill="#455A64"/>
<path d="M266.023 252.752C266.114 252.844 266.168 252.965 266.178 253.097C266.138 253.221 266.056 253.333 265.947 253.414C265.837 253.496 265.706 253.541 265.575 253.543C262.225 253.356 255.277 259.456 251.433 263.586C250.32 264.839 248.949 265.859 247.428 266.567C245.907 267.274 244.278 267.651 242.668 267.666C241.623 267.592 240.647 267.261 239.83 266.703C239.013 266.146 238.382 265.381 237.995 264.478C237.588 263.596 237.479 262.584 237.684 261.572C237.889 260.56 238.397 259.593 239.145 258.794C242.972 254.225 253.562 250.516 265.805 252.557C265.903 252.592 265.98 252.661 266.023 252.752ZM239.448 264.943C239.818 265.467 240.311 265.895 240.894 266.197C241.476 266.498 242.136 266.667 242.826 266.692C244.271 266.674 245.733 266.332 247.096 265.692C248.458 265.052 249.685 264.132 250.679 263.004C251.032 262.637 257.798 255.382 262.949 253.178C252.256 252.047 243.205 255.377 239.827 259.39C239.213 260.037 238.792 260.823 238.619 261.648C238.445 262.472 238.526 263.299 238.852 264.022C239.009 264.355 239.209 264.665 239.448 264.943Z" fill="#455A64"/>
<path d="M265.785 252.938C265.868 253.015 265.916 253.121 265.92 253.239C265.898 253.367 265.826 253.488 265.718 253.577C265.611 253.665 265.476 253.714 265.343 253.712C256.459 253.56 245.96 259.45 243.464 261.718C243.361 261.813 243.228 261.871 243.094 261.878C242.959 261.886 242.833 261.842 242.742 261.757C242.699 261.713 242.667 261.661 242.647 261.602C242.628 261.544 242.621 261.481 242.628 261.417C242.635 261.354 242.656 261.29 242.688 261.231C242.721 261.172 242.765 261.118 242.817 261.074C245.401 258.717 256.277 252.59 265.471 252.749C265.6 252.771 265.712 252.838 265.785 252.938Z" fill="#455A64"/>
<path d="M244.576 225.843C245.768 231.487 245.6 237.469 244.084 243.358C236.339 250.379 232.716 252.909 225.196 255.481C223.35 256.012 221.454 256.147 219.648 255.877C218.985 255.737 218.43 255.361 218.087 254.82C217.743 254.278 217.637 253.61 217.786 252.941C218.254 251.955 219.059 251.121 220.053 250.591L228.423 245.012C225.041 246.549 221.409 247.274 217.869 247.12C216.563 247.058 215.001 246.667 214.89 245.422C214.78 244.178 216.55 242.85 218.069 242.323C221.997 240.915 226.062 240.113 230.102 239.95C226.382 238.279 223.033 236.023 220.176 233.262C219.846 233.025 219.588 232.711 219.422 232.343C219.256 231.976 219.186 231.566 219.219 231.146C219.581 229.71 221.691 229.487 223.104 229.784C226.373 230.455 229.391 231.762 231.983 233.629C229.253 230.372 227.414 226.468 226.604 222.212C226.501 221.893 226.468 221.551 226.508 221.204C226.548 220.857 226.659 220.513 226.835 220.192C227.679 218.995 229.537 219.453 230.61 220.235C233.451 222.354 235.671 225.127 237.103 228.344C236.802 226.088 236.643 220.557 238.548 219.763C240.453 218.969 243.866 222.156 244.576 225.843Z" fill="#BA68C8"/>
<path opacity="0.15" d="M244.576 225.843C245.768 231.487 245.6 237.469 244.084 243.358C236.339 250.379 232.716 252.909 225.196 255.481C223.35 256.012 221.454 256.147 219.648 255.877C218.985 255.737 218.43 255.361 218.087 254.82C217.743 254.278 217.637 253.61 217.786 252.941C218.254 251.955 219.059 251.121 220.053 250.591L228.423 245.012C225.041 246.549 221.409 247.274 217.869 247.12C216.563 247.058 215.001 246.667 214.89 245.422C214.78 244.178 216.55 242.85 218.069 242.323C221.997 240.915 226.062 240.113 230.102 239.95C226.382 238.279 223.033 236.023 220.176 233.262C219.846 233.025 219.588 232.711 219.422 232.343C219.256 231.976 219.186 231.566 219.219 231.146C219.581 229.71 221.691 229.487 223.104 229.784C226.373 230.455 229.391 231.762 231.983 233.629C229.253 230.372 227.414 226.468 226.604 222.212C226.501 221.893 226.468 221.551 226.508 221.204C226.548 220.857 226.659 220.513 226.835 220.192C227.679 218.995 229.537 219.453 230.61 220.235C233.451 222.354 235.671 225.127 237.103 228.344C236.802 226.088 236.643 220.557 238.548 219.763C240.453 218.969 243.866 222.156 244.576 225.843Z" fill="black"/>
<path d="M247.785 160.527C259.177 160.163 269.942 163.282 278.501 169.426C285.43 174.134 291.225 180.124 295.599 187.097C296.416 188.415 297.137 189.792 297.757 191.219C298.041 192.14 298.44 193.013 298.947 193.823C299.11 194.181 300.097 194.126 300.267 193.602C301.033 191.093 299.261 188.292 298.116 186.326C296.123 182.966 293.775 179.832 291.103 176.965C284.937 169.865 276.757 164.605 267.335 161.681C261.125 159.973 254.498 159.393 247.776 159.969C247.532 160.092 247.708 160.419 247.967 160.387L247.785 160.527Z" fill="#455A64"/>
<path d="M265.982 161.391C265.464 151.101 261.562 141.619 254.818 134.263C243.435 121.492 234.029 118.346 226.967 121.913C225.007 122.813 223.316 124.245 222.128 126.009C220.94 127.773 220.315 129.781 220.338 131.756C220.338 131.756 211.717 132.947 210.072 137.472C208.426 141.998 212.89 148.484 212.89 148.484C212.89 148.484 208.006 149.526 206.592 151.134C205.177 152.742 207.567 167.713 217.27 171.336C226.973 174.959 253.374 173.94 265.982 161.391Z" fill="#BA68C8"/>
<path opacity="0.25" d="M265.982 161.391C265.464 151.101 261.562 141.619 254.818 134.263C243.435 121.492 234.029 118.346 226.967 121.913C225.007 122.813 223.316 124.245 222.128 126.009C220.94 127.773 220.315 129.781 220.338 131.756C220.338 131.756 211.717 132.947 210.072 137.472C208.426 141.998 212.89 148.484 212.89 148.484C212.89 148.484 208.006 149.526 206.592 151.134C205.177 152.742 207.567 167.713 217.27 171.336C226.973 174.959 253.374 173.94 265.982 161.391Z" fill="black"/>
<path d="M264.802 164.125C257.09 170.685 248.083 175.57 238.52 178.38C222.041 183.418 214.949 182.142 210.908 175.824C206.867 169.506 211.268 165.032 219.711 166.876C219.711 166.876 218.495 162.955 220.538 160.833C221.638 159.841 222.934 159.083 224.322 158.618C225.71 158.153 227.153 157.994 228.536 158.153C230.009 158.589 247.938 169.641 264.802 164.125Z" fill="#BA68C8"/>
<path opacity="0.15" d="M264.802 164.125C257.09 170.685 248.083 175.57 238.52 178.38C222.041 183.418 214.949 182.142 210.908 175.824C206.867 169.506 211.268 165.032 219.711 166.876C219.711 166.876 218.495 162.955 220.538 160.833C221.638 159.841 222.934 159.083 224.322 158.618C225.71 158.153 227.153 157.994 228.536 158.153C230.009 158.589 247.938 169.641 264.802 164.125Z" fill="black"/>
<path d="M264.482 156.661C266.187 148.913 266.135 141.112 264.33 133.791C261.17 123.124 255.266 115.883 250.219 121.659C250.219 121.659 248.167 117.663 244.197 118.836C240.228 120.01 236.069 131.979 240.233 140.161C244.397 148.343 264.482 156.661 264.482 156.661Z" fill="#BA68C8"/>
<path opacity="0.15" d="M264.482 156.661C266.187 148.913 266.135 141.112 264.33 133.791C261.17 123.124 255.266 115.883 250.219 121.659C250.219 121.659 248.167 117.663 244.197 118.836C240.228 120.01 236.069 131.979 240.233 140.161C244.397 148.343 264.482 156.661 264.482 156.661Z" fill="black"/>
<path d="M264.427 164.031C256.173 169.21 242.488 169.957 235.011 168.252C225.988 166.164 218.171 158.963 218.255 151.678C218.34 144.393 225.321 138.838 225.321 138.838C225.321 138.838 224.35 132.667 232.29 128.93C237.742 126.351 249.338 133.754 256.726 141.608C264.113 149.462 266.011 158.388 264.427 164.031Z" fill="#BA68C8"/>
<path d="M273.995 164.594C271.169 165.187 268.528 166.836 262.074 171.229C255.62 175.622 249.569 178.974 247.227 175.423C244.884 171.872 256.777 167.284 256.777 167.284C256.777 167.284 247.677 163.759 249.643 159.15C252.191 153.074 262.903 158.177 262.903 158.177C262.903 158.177 259.102 149.048 263.078 146.842C267.055 144.637 269.744 148.252 270.604 153.559C271.464 158.865 272.004 162.994 273.995 164.594Z" fill="#455A64"/>
<path d="M370.424 268.151L383.011 250.97C383.011 250.97 387.746 204.686 339.747 194.522C294.653 184.946 259.239 204.628 259.239 204.628C259.239 204.628 269.712 252.096 299.245 271.347C330.58 291.913 370.424 268.151 370.424 268.151Z" fill="#BA68C8"/>
<path opacity="0.5" d="M370.424 268.151L383.011 250.97C383.011 250.97 387.746 204.686 339.747 194.522C294.653 184.946 259.239 204.628 259.239 204.628C259.239 204.628 269.712 252.096 299.245 271.347C330.58 291.913 370.424 268.151 370.424 268.151Z" fill="white"/>
<path d="M377.684 260.66C377.441 260.781 377.17 260.821 376.918 260.773C376.666 260.725 376.448 260.592 376.302 260.397C341.482 212.817 292.537 207.413 273.108 207.294C272.962 207.296 272.819 207.269 272.69 207.215C272.561 207.161 272.447 207.082 272.355 206.981C272.263 206.88 272.196 206.761 272.157 206.629C272.118 206.498 272.108 206.357 272.127 206.216C272.161 205.934 272.307 205.663 272.535 205.462C272.763 205.261 273.054 205.145 273.348 205.139C293.103 205.267 342.854 210.733 378.194 259.033C378.347 259.26 378.396 259.545 378.332 259.828C378.268 260.111 378.095 260.37 377.85 260.553L377.684 260.66Z" fill="white"/>
<path d="M336.762 224.372C336.519 224.497 336.245 224.534 335.995 224.475C326.471 222.234 304.423 232.654 295.299 243.685C295.21 243.796 295.101 243.892 294.977 243.966C294.854 244.039 294.718 244.089 294.579 244.113C294.441 244.137 294.301 244.133 294.169 244.103C294.037 244.073 293.916 244.017 293.812 243.938C293.598 243.782 293.465 243.544 293.442 243.275C293.42 243.007 293.509 242.73 293.69 242.505C303.505 230.592 326.361 220.048 336.682 222.474C336.941 222.554 337.146 222.731 337.255 222.969C337.364 223.207 337.367 223.486 337.264 223.747C337.226 223.874 337.161 223.996 337.075 224.103C336.988 224.211 336.882 224.302 336.762 224.372Z" fill="white"/>
<path d="M212.083 190.366C211.069 189.728 209.808 189.499 208.539 189.724C207.819 189.859 207.121 190.138 206.491 190.543C205.862 190.948 205.315 191.47 204.888 192.073C204.253 193.273 204.036 194.603 204.272 195.85C204.508 197.097 205.184 198.186 206.19 198.941C205.035 198.393 203.682 198.254 202.347 198.544C201.012 198.834 199.769 199.538 198.816 200.545C198.407 201.146 198.124 201.81 197.984 202.494C197.843 203.179 197.849 203.87 198 204.524C198.256 205.687 198.962 206.671 199.981 207.287C203.248 209.282 209.175 207 211.125 206.357C212.633 205.827 214.117 205.217 215.571 204.531C215.754 202.987 215.822 201.443 215.776 199.913C215.584 197.995 215.393 192.339 212.083 190.366Z" fill="#BA68C8"/>
</svg>
