<svg width="758" height="742" viewBox="0 0 758 742" fill="none" xmlns="http://www.w3.org/2000/svg">
<path d="M232.649 274.758C241.905 203.837 293.715 161.282 363.782 146.888C436.203 132.01 495.165 159.154 538.931 218.732C575.673 268.747 552.937 314.729 567.525 375.049C582.046 435.09 632.108 467.635 613.273 526.467C590.899 596.353 523.562 615.15 450.342 620.097C394.575 623.865 348.739 624.051 312.528 581.48C272.335 534.227 321.917 482.905 306.823 422.737C291.093 360.038 224.283 338.857 232.649 274.758Z" stroke="#AE7864" stroke-width="3"/>
<path d="M145.203 253.089C154.46 182.168 206.27 139.613 276.337 125.219C348.758 110.341 407.719 137.485 451.486 197.063C488.228 247.078 465.492 293.06 480.08 353.38C494.601 413.421 544.662 445.966 525.827 504.798C503.453 574.684 436.117 593.481 362.897 598.428C307.13 602.196 261.294 602.382 225.082 559.811C184.889 512.558 234.472 461.236 219.377 401.068C203.648 338.369 136.838 317.188 145.203 253.089Z" stroke="#DDB3E3" stroke-width="3"/>
</svg>
