<svg width="363" height="592" viewBox="0 0 363 592" fill="none" xmlns="http://www.w3.org/2000/svg">
<path d="M15.4945 249.62C16.4684 250.601 17.1439 251.851 17.4359 253.211C17.7279 254.571 17.6231 255.98 17.1349 257.26C16.6467 258.54 15.7969 259.634 14.6929 260.404C13.5888 261.174 12.28 261.585 10.9316 261.585C9.58329 261.585 8.25587 261.175 7.11701 260.405C5.97815 259.636 5.0789 258.542 4.53281 257.262C3.98672 255.982 3.81829 254.573 4.04875 253.213C4.27921 251.854 4.89826 250.604 5.82771 249.621C6.44404 248.962 7.18461 248.439 8.00633 248.082C8.82804 247.724 9.7145 247.54 10.6141 247.54C11.5137 247.54 12.4084 247.724 13.2463 248.081C14.0842 248.438 14.8484 248.961 15.4945 249.62Z" fill="#B16668"/>
<path d="M34.6684 278.811C35.6422 279.793 36.3178 281.042 36.6097 282.402C36.9017 283.762 36.7969 285.171 36.3087 286.451C35.8205 287.731 34.9708 288.826 33.8667 289.595C32.7627 290.365 31.4538 290.776 30.1055 290.776C28.7571 290.777 27.4297 290.366 26.2909 289.597C25.152 288.827 24.2528 287.734 23.7067 286.454C23.1606 285.174 22.9921 283.765 23.2226 282.405C23.453 281.045 24.0721 279.795 25.0015 278.813C25.6179 278.154 26.3584 277.63 27.1802 277.273C28.0019 276.916 28.8883 276.731 29.7879 276.731C30.6875 276.731 31.5823 276.915 32.4201 277.272C33.258 277.629 34.0222 278.152 34.6684 278.811Z" fill="#B16668"/>
<path d="M39.9491 243.747C40.7865 244.558 41.3743 245.602 41.6368 246.745C41.8992 247.888 41.8243 249.078 41.4217 250.161C41.019 251.244 40.3071 252.171 39.3777 252.823C38.4483 253.474 37.3439 253.82 36.2069 253.815C35.0699 253.811 33.9523 253.456 32.9982 252.798C32.0442 252.139 31.2973 251.207 30.8539 250.12C30.4104 249.034 30.2908 247.843 30.5103 246.702C30.7298 245.561 31.2784 244.521 32.0854 243.717C33.125 242.681 34.5223 242.106 35.9868 242.112C37.4514 242.118 38.8705 242.703 39.9491 243.747Z" fill="#B16668"/>
<path d="M62.7273 251.61C63.5516 252.418 64.1279 253.455 64.3824 254.588C64.6369 255.722 64.558 256.9 64.1558 257.971C63.7535 259.042 63.0463 259.958 62.1247 260.602C61.2032 261.245 60.1092 261.587 58.9832 261.582C57.8571 261.578 56.7502 261.228 55.8043 260.577C54.8584 259.927 54.1167 259.005 53.6741 257.931C53.2315 256.856 53.1083 255.677 53.3202 254.546C53.5321 253.414 54.0695 252.381 54.8635 251.579C55.8933 250.525 57.2939 249.937 58.7644 249.943C60.2348 249.949 61.6577 250.547 62.7273 251.61Z" fill="#B16668"/>
<path d="M65.9337 228.393C66.7711 229.203 67.3589 230.247 67.6214 231.39C67.8838 232.534 67.8089 233.723 67.4062 234.807C67.0036 235.89 66.2917 236.817 65.3622 237.468C64.4328 238.12 63.3284 238.465 62.1913 238.461C61.0543 238.456 59.9367 238.102 58.9826 237.444C58.0286 236.785 57.2817 235.853 56.8383 234.766C56.3948 233.68 56.2752 232.489 56.4947 231.348C56.7142 230.206 57.2628 229.167 58.0699 228.362C59.1046 227.317 60.5036 226.736 61.971 226.742C63.4385 226.748 64.8595 227.34 65.9337 228.393Z" fill="#B16668"/>
<path d="M331.336 267.377C320.221 246.506 300.81 217.818 272.368 228.212C245.594 237.997 208.443 293.15 187.552 311.461C186.14 312.693 184.883 313.369 183.052 314.038C181.221 314.708 178.958 315.317 177.094 315.282C149.748 314.6 88.4097 295.441 61.6562 305.218C33.214 315.612 35.3722 350.606 39.2856 374.108C43.9904 402.377 94.4616 408.691 129.992 401.674C153.413 397.042 168.32 389.077 185.209 383.252C191.575 381.056 197.294 378.836 204.129 376.338C210.965 373.839 218.432 371.718 224.72 369.29C241.4 362.847 256.154 359.495 277.187 347.881C309.141 330.236 344.667 292.493 331.296 267.391L331.336 267.377Z" stroke="#1D1D1B" stroke-width="1.24" stroke-miterlimit="10"/>
<path d="M205.589 376.803C223.714 370.15 233.677 350.774 227.841 333.526C222.006 316.278 202.582 307.689 184.457 314.342C166.332 320.995 156.369 340.371 162.205 357.619C168.04 374.867 187.464 383.456 205.589 376.803Z" stroke="#1D1D1B" stroke-width="1.39" stroke-miterlimit="10"/>
<path d="M201.954 366.06C213.844 361.696 220.379 348.985 216.551 337.67C212.723 326.356 199.981 320.721 188.091 325.086C176.201 329.45 169.666 342.161 173.494 353.475C177.322 364.79 190.064 370.424 201.954 366.06Z" stroke="#1D1D1B" stroke-width="0.91" stroke-miterlimit="10"/>
<path d="M206.99 341.314L210.972 339.898" stroke="#1D1D1B" stroke-width="0.91" stroke-miterlimit="10"/>
<path d="M178.811 351.342L184.402 349.352" stroke="#1D1D1B" stroke-width="0.91" stroke-miterlimit="10"/>
<path d="M180.551 347.385L182.743 353.548" stroke="#1D1D1B" stroke-width="0.91" stroke-miterlimit="10"/>
<path d="M174.501 94.0873C172.353 78.042 158.548 74.3654 149.321 68.8852C140.094 63.4051 130.319 58.2515 123.484 49.9167C124.816 56.3723 126.423 62.8329 129.33 68.7684C132.237 74.704 136.581 80.1171 142.286 83.3488C152.263 88.9571 165.165 87.3922 174.477 94.0852" fill="#6F564F"/>
<path d="M131.058 92.3031C137.01 93.6543 143.05 94.504 149.115 94.8435C160.714 95.8188 173.452 97.3191 183.009 104.236C178.327 108.37 168.916 109.936 162.647 109.315C156.379 108.694 150.348 106.335 144.429 104.024C138.735 101.989 133.209 99.4753 127.911 96.509C122.594 93.5162 118.078 89.2317 114.785 84.055C119.486 88.1039 125.077 90.9378 131.058 92.3031Z" fill="#6F564F"/>
<path d="M182.199 71.1394C182.1 63.6745 183.497 56.3066 186.307 49.4783C189.117 42.6501 193.282 36.5026 198.551 31.4053C193.547 39.2612 197.878 50.4522 197.697 59.8836C197.376 75.918 192.656 91.2555 185.105 105.182C186.148 93.85 182.409 82.5135 182.199 71.1394Z" fill="#6F564F"/>
<path d="M224.988 29.5278C225.821 47.4048 226.513 66.0407 219.255 82.1459C213.559 94.7774 201.437 103.537 195.173 115.882L194.382 115.032C198.171 83.9289 207.18 54.9151 224.988 29.5278Z" fill="#6F564F"/>
<path d="M148.422 120.813C162.04 115.396 176.736 112.052 191.457 113.221L193.955 115.846C185.372 124.105 173.951 133.733 162.717 137.631C145.918 143.451 127.028 138.076 109.48 141.142C122.15 133.718 134.827 126.256 148.422 120.813Z" fill="#6F564F"/>
<path d="M167.112 144.804C178.968 136.185 192.924 129.457 207.412 126.984L209.059 130.118C202.713 140.275 194.771 151.176 184.859 157.72C170.034 167.5 150.563 166.866 134.362 174.139C144.786 163.796 155.262 153.409 167.112 144.804Z" fill="#6F564F"/>
<path d="M211.72 131.141C221.356 120.397 230.909 109.51 238.845 97.4223C246.781 85.3345 253.079 71.9133 255.615 57.5244C232.769 76.0256 217.22 102.156 211.636 131.434" fill="#6F564F"/>
<path d="M233.814 150.251C226.944 159.962 218.691 171.152 208.536 177.203C192.481 186.811 172.857 187.902 154.057 188.753C173.053 181.529 186.149 163.369 204.93 155.542C214.174 151.694 222.766 150.503 232.773 149.414" fill="#6F564F"/>
<path d="M135.705 64.1843C135.705 64.1843 135.858 64.3323 136.171 64.6144L137.58 65.7952L143.023 70.3285C143.609 70.8268 144.237 71.3432 144.895 71.9055C145.58 72.4743 146.33 72.9551 147.13 73.3363C148.949 74.2414 150.813 75.0463 152.714 75.7474C154.897 76.4919 157.028 77.398 159.086 78.4582C161.368 79.6988 163.52 81.176 165.506 82.8653C167.701 84.7053 169.694 86.7805 171.447 89.0525C173.357 91.3924 175.325 93.8175 177.352 96.3279C179.347 98.882 181.645 101.337 183.894 103.952L187.363 107.895L191.062 111.814C201.881 123.33 213.489 134.067 225.794 143.939C238.111 153.809 251.075 162.814 264.591 170.887C275.657 177.42 287.062 183.33 298.751 188.589C303.784 190.721 308.286 192.787 312.36 194.268C316.433 195.75 319.877 197.228 322.791 198.151L329.449 200.397L331.186 200.967C331.57 201.092 331.772 201.138 331.772 201.138C331.772 201.138 331.587 201.05 331.195 200.905L329.484 200.289L322.856 197.95C319.963 196.995 316.517 195.541 312.467 193.98C308.417 192.419 303.914 190.377 298.897 188.226C287.254 182.932 275.889 177.007 264.854 170.477C251.372 162.394 238.434 153.395 226.133 143.546C213.844 133.692 202.245 122.984 191.424 111.504C190.166 110.192 188.932 108.883 187.72 107.599C186.507 106.315 185.39 104.958 184.245 103.67C182.014 101.072 179.697 98.624 177.701 96.07C175.706 93.5159 173.675 91.151 171.775 88.8265C169.989 86.5387 167.964 84.4496 165.737 82.597C163.706 80.9243 161.516 79.4634 159.2 78.2374C157.123 77.1793 154.975 76.2765 152.774 75.5364C150.883 74.854 149.027 74.0691 147.215 73.1852C145.734 72.3458 144.349 71.3392 143.089 70.1852L137.588 65.7335L136.148 64.5884C135.883 64.3105 135.705 64.1843 135.705 64.1843Z" fill="#BA68C8"/>
<path d="M129.512 136.044C129.731 135.988 129.941 135.902 130.135 135.788L131.881 134.916C133.388 134.141 135.586 133.047 138.316 131.759C152.559 124.988 167.582 120.002 183.072 116.906C186.038 116.304 188.441 115.908 190.126 115.59L192.053 115.245C192.28 115.22 192.502 115.165 192.714 115.082C192.483 115.072 192.253 115.086 192.026 115.124L190.09 115.364C188.407 115.573 185.976 115.956 182.984 116.497C167.403 119.39 152.321 124.398 138.129 131.39C135.411 132.734 133.244 133.875 131.766 134.722L130.073 135.693C129.871 135.783 129.682 135.901 129.512 136.044Z" fill="#BA68C8"/>
<path d="M155.955 164.252C156.154 164.179 156.341 164.078 156.512 163.953L158.052 163.016C159.388 162.197 161.296 160.979 163.652 159.447C168.358 156.397 174.796 152.093 181.822 147.204C188.849 142.315 195.109 137.749 199.607 134.392C201.855 132.713 203.652 131.337 204.875 130.386L206.291 129.261C206.461 129.136 206.619 128.996 206.764 128.842C206.571 128.924 206.391 129.033 206.229 129.167L204.741 130.202L199.346 134.069C194.791 137.343 188.495 141.851 181.498 146.728C174.501 151.605 168.079 155.974 163.43 159.108L157.928 162.828L156.45 163.859C156.269 163.967 156.102 164.099 155.955 164.252Z" fill="#BA68C8"/>
<path d="M241.209 81.0403C241.051 81.151 240.909 81.2835 240.787 81.434L239.658 82.6658C238.683 83.7416 237.33 85.3456 235.713 87.362C227.245 97.9123 220.256 109.608 214.935 122.131C213.914 124.528 213.14 126.497 212.655 127.868L212.1 129.455C212.026 129.638 211.971 129.83 211.936 130.026C212.045 129.864 212.134 129.69 212.202 129.507L212.856 127.963C213.419 126.561 214.227 124.672 215.286 122.282C218.043 116.097 221.158 110.089 224.615 104.288C228.093 98.4962 231.903 92.9203 236.026 87.5878C237.606 85.5392 238.923 83.9028 239.838 82.7927L240.88 81.4905C241.004 81.3521 241.115 81.2013 241.209 81.0403Z" fill="#BA68C8"/>
<path d="M216.859 54.6013C216.709 54.5448 211.468 68.0035 205.137 84.6652C198.805 101.327 193.789 114.882 193.939 114.939C194.088 114.995 199.333 101.547 205.66 84.8748C211.988 68.2032 217.018 54.6538 216.859 54.6013Z" fill="#BA68C8"/>
<path d="M189.322 58.1089C189.216 58.7178 189.161 59.3363 189.16 59.9575C189.079 61.2372 188.982 62.9427 188.873 65.0026C188.62 69.2535 188.227 75.1342 187.636 81.6074C187.045 88.0806 186.33 93.9283 185.788 98.1444L185.142 103.148C185.037 103.756 184.978 104.372 184.965 104.991C185.137 104.399 185.265 103.794 185.35 103.181C185.571 102.019 185.854 100.32 186.162 98.1915C186.808 93.9798 187.571 88.1363 188.171 81.6591C188.772 75.182 189.109 69.2772 189.254 65.0119C189.319 62.8763 189.36 61.1466 189.361 59.9463C189.391 59.3348 189.378 58.7208 189.322 58.1089Z" fill="#BA68C8"/>
<path d="M148.451 97.5607C148.875 97.7496 149.318 97.8861 149.772 97.9671C150.607 98.2051 151.822 98.5247 153.328 98.8796C156.329 99.6173 160.514 100.546 165.154 101.408C169.794 102.27 174.02 102.911 177.084 103.306C178.619 103.508 179.859 103.641 180.714 103.73C181.158 103.796 181.607 103.819 182.054 103.799C181.64 103.645 181.211 103.543 180.776 103.493L177.166 102.896C174.118 102.401 169.914 101.704 165.274 100.842C160.634 99.9798 156.494 99.1035 153.438 98.4821L149.858 97.7324C149.394 97.6296 148.923 97.5721 148.451 97.5607Z" fill="#BA68C8"/>
<path d="M187.301 172.502C187.365 172.657 197.804 167.668 210.612 161.381C223.42 155.093 233.742 149.875 233.668 149.724C233.595 149.573 223.165 154.558 210.352 160.86C197.538 167.162 187.17 172.351 187.301 172.502Z" fill="#BA68C8"/>
<path d="M229.598 145.916C239.892 140.281 251.816 133.4 259.009 124.085C270.362 109.292 273.87 89.8711 277.068 71.3042C267.659 89.3178 248.351 100.104 238.399 117.809C233.492 126.539 231.264 134.937 228.962 144.752" fill="#6F564F"/>
<path d="M256.793 102.324C256.664 102.235 250.356 111.85 242.704 123.807C235.052 135.764 228.946 145.532 229.075 145.621C229.204 145.709 235.518 136.08 243.17 124.124C250.822 112.167 256.922 102.413 256.793 102.324Z" fill="#BA68C8"/>
<path d="M172.087 537.035C175.214 550.644 165.022 557.679 159.131 564.825C153.241 571.971 146.801 579.015 143.739 587.767C142.864 582.154 142.214 576.456 142.788 570.8C143.362 565.144 145.273 559.488 148.963 555.196C155.43 547.725 166.477 545.196 172.069 537.044" fill="#6F564F"/>
<path d="M137.164 551.154C141.617 548.32 146.295 545.864 151.148 543.812C160.331 539.625 170.286 534.681 175.997 526.308C170.916 524.351 162.751 525.85 157.816 528.188C152.882 530.526 148.669 534.195 144.533 537.792C140.498 541.101 136.745 544.746 133.316 548.689C129.879 552.659 127.489 557.434 126.369 562.569C128.981 557.93 132.691 554.007 137.164 551.154Z" fill="#6F564F"/>
<path d="M185.062 553.073C187.253 559.135 190.64 564.679 195.02 569.372C199.399 574.065 204.681 577.809 210.547 580.38C204.058 575.502 204.198 565.184 201.18 557.615C196.036 544.75 187.503 533.741 177.08 524.705C181.384 533.557 181.772 543.818 185.062 553.073Z" fill="#6F564F"/>
<path d="M232.633 573.942C227.88 559.273 222.781 544.032 211.947 533.168C203.447 524.648 190.868 521.138 181.991 513.015L181.602 513.933C194.157 537.918 210.347 558.685 232.633 573.942Z" fill="#6F564F"/>
<path d="M142.773 522.78C155.498 523.123 168.48 521.492 180.126 516.242L181.372 513.409C171.897 509.317 159.697 504.959 149.37 505.133C133.931 505.4 120.151 515.237 104.929 517.927C117.485 520.154 130.058 522.409 142.773 522.78Z" fill="#6F564F"/>
<path d="M150.747 497.713C163.002 501.138 176.401 502.434 188.953 500.168L189.354 497.177C181.127 490.907 171.376 484.508 161.329 482.174C146.305 478.69 130.625 484.902 115.233 483.828C126.84 489.052 138.501 494.298 150.747 497.713Z" fill="#6F564F"/>
<path d="M190.878 495.629C202.009 501.453 213.116 507.417 223.265 514.821C233.415 522.226 242.63 531.184 249.066 542.024C224.79 533.828 204.162 517.35 190.72 495.418" fill="#6F564F"/>
<path d="M203.408 473.4C194.89 467.642 184.801 461.105 174.707 459.238C158.734 456.254 142.412 461.132 126.834 465.961C144.487 466.175 160.618 476.87 178.277 477.63C186.967 478.001 194.328 476.436 202.811 474.375" fill="#6F564F"/>
<path d="M149.076 571.84C149.076 571.84 149.156 571.675 149.326 571.355L150.121 569.987L153.199 564.723C153.527 564.148 153.884 563.546 154.252 562.898C154.64 562.237 155.108 561.628 155.647 561.085C156.861 559.818 158.142 558.62 159.486 557.494C161.047 556.251 162.516 554.892 163.879 553.43C165.37 551.757 166.683 549.93 167.795 547.981C169.033 545.849 170.033 543.586 170.777 541.234C171.629 538.782 172.502 536.243 173.398 533.618C174.255 530.967 175.389 528.307 176.435 525.533L178.076 521.326L179.913 517.071C185.268 504.583 191.505 492.493 198.577 480.897C205.66 469.299 213.536 458.21 222.148 447.712C229.222 439.179 236.762 431.05 244.735 423.363C248.207 420.161 251.265 417.167 254.15 414.773C257.036 412.378 259.406 410.171 261.511 408.568L266.28 404.796L267.529 403.825C267.806 403.611 267.957 403.514 267.957 403.514C267.957 403.514 267.832 403.64 267.555 403.872L266.342 404.873L261.625 408.712C259.547 410.334 257.168 412.522 254.327 414.974C251.485 417.426 248.419 420.401 244.964 423.613C237.041 431.315 229.538 439.445 222.488 447.966C213.907 458.462 206.051 469.539 198.974 481.115C191.91 492.691 185.671 504.755 180.304 517.215C179.672 518.645 179.06 520.067 178.458 521.461C177.856 522.855 177.355 524.28 176.809 525.657C175.772 528.414 174.62 531.073 173.763 533.724C172.906 536.375 171.963 538.883 171.115 541.32C170.349 543.694 169.326 545.978 168.066 548.13C166.912 550.079 165.563 551.904 164.039 553.575C162.661 555.041 161.176 556.402 159.599 557.647C158.258 558.755 156.977 559.935 155.762 561.182C154.805 562.295 153.977 563.516 153.296 564.819L150.147 570.034L149.316 571.383C149.184 571.686 149.076 571.84 149.076 571.84Z" fill="#BA68C8"/>
<path d="M122.808 516.19C123.003 516.17 123.199 516.177 123.392 516.211L125.073 516.395C126.532 516.57 128.647 516.798 131.255 517.025C144.872 518.247 158.593 517.811 172.129 515.725C174.724 515.333 176.799 514.942 178.266 514.7L179.938 514.408C180.13 514.361 180.328 514.339 180.525 514.343C180.34 514.42 180.148 514.476 179.952 514.513L178.304 514.891C176.872 515.22 174.777 515.629 172.18 516.078C158.629 518.353 144.854 518.789 131.213 517.375C128.598 517.101 126.494 516.826 125.037 516.583L123.369 516.305C123.178 516.293 122.989 516.254 122.808 516.19Z" fill="#BA68C8"/>
<path d="M135.787 485.416C135.971 485.416 136.154 485.442 136.331 485.492L137.867 485.79C139.201 486.053 141.122 486.469 143.501 487.004C148.252 488.064 154.79 489.62 161.984 491.472C169.178 493.323 175.651 495.14 180.324 496.508C182.66 497.192 184.538 497.766 185.819 498.169L187.311 498.654C187.487 498.703 187.658 498.769 187.822 498.85C187.64 498.841 187.461 498.806 187.289 498.747L185.765 498.355L180.208 496.843C175.513 495.559 169.029 493.798 161.863 491.947C154.697 490.097 148.151 488.484 143.423 487.34L137.822 485.977L136.308 485.585C136.128 485.552 135.952 485.495 135.787 485.416Z" fill="#BA68C8"/>
<path d="M230.23 527.288C230.068 527.245 229.912 527.18 229.767 527.095L228.471 526.434C227.347 525.854 225.756 524.959 223.823 523.81C213.705 517.799 204.448 510.434 196.304 501.912C194.742 500.281 193.512 498.923 192.701 497.962L191.766 496.847C191.65 496.721 191.547 496.583 191.459 496.435C191.597 496.534 191.722 496.648 191.834 496.775L192.836 497.827C193.721 498.79 194.955 500.074 196.544 501.687C200.672 505.858 205.04 509.781 209.623 513.438C214.221 517.081 219.025 520.452 224.01 523.537C225.923 524.722 227.494 525.654 228.579 526.279L229.825 527.022C229.969 527.097 230.104 527.186 230.23 527.288Z" fill="#BA68C8"/>
<path d="M218.425 556.058C218.319 556.147 209.943 546.829 199.701 535.247C189.458 523.665 181.236 514.202 181.341 514.113C181.447 514.023 189.823 523.332 200.065 534.924C210.307 546.515 218.539 555.968 218.425 556.058Z" fill="#BA68C8"/>
<path d="M194.949 561.506C194.676 561.044 194.443 560.56 194.253 560.058C193.797 559.047 193.198 557.695 192.482 556.061C190.98 552.697 188.867 548.055 186.412 542.993C183.956 537.93 181.589 533.41 179.861 530.159L177.808 526.301C177.537 525.84 177.301 525.359 177.102 524.862C177.423 525.291 177.713 525.742 177.969 526.213C178.504 527.088 179.253 528.379 180.153 530.011C181.966 533.227 184.37 537.73 186.835 542.793C189.299 547.856 191.374 552.534 192.791 555.941C193.495 557.65 194.055 559.037 194.421 560.008C194.632 560.494 194.809 560.994 194.949 561.506Z" fill="#BA68C8"/>
<path d="M149.726 541.656C150.014 541.38 150.335 541.14 150.681 540.942C151.291 540.506 152.187 539.892 153.309 539.166C155.536 537.693 158.672 535.719 162.2 533.666C165.728 531.613 168.985 529.858 171.368 528.643C172.559 528.031 173.532 527.56 174.202 527.238C174.546 527.055 174.905 526.905 175.276 526.79C174.985 527.035 174.666 527.243 174.325 527.41L171.559 528.948C169.219 530.24 165.998 532.033 162.47 534.086C158.941 536.14 155.826 538.058 153.519 539.453L150.822 541.106C150.475 541.324 150.108 541.508 149.726 541.656Z" fill="#BA68C8"/>
<path d="M158.815 469.277C158.821 469.134 168.806 470.048 181.107 471.303C193.408 472.558 203.365 473.69 203.35 473.832C203.336 473.975 193.36 473.062 181.05 471.797C168.741 470.532 158.753 469.437 158.815 469.277Z" fill="#BA68C8"/>
<path d="M200.958 478.261C211.075 479.778 222.901 481.82 231.599 487.207C245.358 495.784 254.111 510.384 262.352 524.388C249.205 512.65 230.164 509.63 216.667 498.3C210.013 492.713 205.647 486.608 200.791 479.384" fill="#6F564F"/>
<path d="M236.476 505.329C236.398 505.438 228.33 499.55 218.455 492.172C208.58 484.793 200.632 478.722 200.71 478.613C200.789 478.504 208.865 484.402 218.74 491.78C228.615 499.159 236.555 505.22 236.476 505.329Z" fill="#BA68C8"/>
</svg>
