<svg width="324" height="512" viewBox="0 0 324 512" fill="none" xmlns="http://www.w3.org/2000/svg">
<path d="M14.2846 357.589C15.202 358.758 15.7532 360.165 15.8689 361.632C15.9845 363.099 15.6593 364.561 14.9343 365.832C14.2093 367.104 13.1171 368.129 11.7954 368.777C10.4738 369.426 8.98206 369.669 7.50859 369.475C6.03512 369.282 4.64597 368.661 3.51655 367.692C2.38712 366.722 1.56806 365.447 1.16279 364.027C0.757514 362.607 0.784201 361.106 1.23947 359.714C1.69474 358.321 2.55818 357.1 3.72077 356.204C4.49286 355.602 5.38042 355.16 6.33181 354.903C7.2832 354.646 8.27943 354.581 9.2625 354.709C10.2456 354.838 11.1958 355.159 12.058 355.654C12.9202 356.148 13.6771 356.806 14.2846 357.589Z" fill="#B16668"/>
<path d="M30.8705 390.935C31.7879 392.104 32.3392 393.511 32.4548 394.978C32.5705 396.445 32.2452 397.907 31.5202 399.179C30.7952 400.45 29.703 401.475 28.3814 402.124C27.0597 402.772 25.568 403.015 24.0945 402.822C22.6211 402.628 21.2319 402.008 20.1025 401.038C18.9731 400.068 18.154 398.793 17.7487 397.373C17.3435 395.953 17.3701 394.452 17.8254 393.06C18.2807 391.668 19.1441 390.446 20.3067 389.55C21.0788 388.948 21.9664 388.506 22.9178 388.249C23.8691 387.993 24.8654 387.927 25.8484 388.056C26.8315 388.185 27.7818 388.505 28.644 389C29.5061 389.494 30.263 390.152 30.8705 390.935Z" fill="#B16668"/>
<path d="M41.8841 354.942C42.678 355.912 43.1642 357.091 43.28 358.326C43.3958 359.562 43.1359 360.798 42.5339 361.876C41.9319 362.953 41.0153 363.823 39.9022 364.372C38.7891 364.921 37.5305 365.125 36.2887 364.958C35.0469 364.79 33.8786 364.258 32.9346 363.431C31.9905 362.604 31.3139 361.519 30.9918 360.317C30.6698 359.115 30.7171 357.85 31.1277 356.685C31.5383 355.52 32.2933 354.509 33.2955 353.782C34.5864 352.846 36.1993 352.444 37.7989 352.66C39.3984 352.876 40.8616 353.694 41.8841 354.942Z" fill="#B16668"/>
<path d="M65.5993 366.451C66.3792 367.416 66.8538 368.586 66.9624 369.811C67.0709 371.035 66.8085 372.258 66.2087 373.323C65.6089 374.388 64.699 375.247 63.5957 375.789C62.4924 376.331 61.2459 376.532 60.0161 376.366C58.7862 376.2 57.6289 375.674 56.6926 374.857C55.7563 374.039 55.0836 372.967 54.7607 371.777C54.4378 370.587 54.4794 369.334 54.8803 368.179C55.2811 367.023 56.0229 366.018 57.0105 365.291C58.2936 364.334 59.912 363.919 61.518 364.136C63.124 364.353 64.5894 365.184 65.5993 366.451Z" fill="#B16668"/>
<path d="M72.5776 342.578C73.3715 343.548 73.8576 344.726 73.9734 345.962C74.0892 347.198 73.8294 348.434 73.2273 349.512C72.6253 350.589 71.7087 351.459 70.5956 352.008C69.4825 352.557 68.2239 352.761 66.982 352.593C65.7402 352.426 64.5719 351.894 63.6278 351.067C62.6838 350.24 62.0071 349.155 61.6851 347.953C61.363 346.751 61.4104 345.485 61.821 344.321C62.2316 343.156 62.9866 342.145 63.9888 341.418C65.2759 340.471 66.8915 340.063 68.4943 340.279C70.097 340.496 71.5613 341.32 72.5776 342.578Z" fill="#B16668"/>
<path d="M161.02 506.346C160.972 506.573 161.011 506.809 161.128 507.009C161.245 507.209 161.433 507.358 161.654 507.427C203.129 519.948 247.362 501.278 274.304 459.878C274.435 459.668 274.481 459.416 274.432 459.174C274.384 458.931 274.244 458.716 274.043 458.573C273.829 458.446 273.574 458.406 273.331 458.461C273.088 458.517 272.876 458.664 272.739 458.871C246.244 499.564 202.868 517.898 162.213 505.638C161.97 505.568 161.71 505.595 161.488 505.713C161.265 505.831 161.097 506.032 161.02 506.272V506.346Z" fill="#455A64"/>
<path d="M243.558 458.052C243.522 458.548 243.522 459.046 243.558 459.542C243.655 462.99 244.258 466.405 245.347 469.678C247.659 475.874 247.959 482.642 246.204 489.018C246.167 489.166 246.172 489.32 246.218 489.465C246.264 489.61 246.35 489.739 246.465 489.838C246.592 489.921 246.741 489.966 246.893 489.966C247.046 489.966 247.195 489.921 247.322 489.838C255.11 484.882 266.476 469.864 261.445 457.679C258.24 449.928 253.21 449.965 251.16 450.226C249.262 450.635 247.528 451.596 246.175 452.988C244.822 454.381 243.912 456.143 243.558 458.052ZM248.365 486.484C249.218 480.71 248.656 474.814 246.726 469.305C245.677 466.165 245.087 462.889 244.974 459.579C245.043 457.763 245.707 456.019 246.866 454.618C248.024 453.217 249.612 452.237 251.384 451.828C254.924 451.195 258.091 453.543 260.066 458.275C264.65 469.454 254.551 482.348 248.142 487.416L248.365 486.484Z" fill="#455A64"/>
<path d="M246.055 489.093C246.003 489.19 245.976 489.299 245.976 489.409C245.976 489.52 246.003 489.629 246.055 489.726C246.195 489.863 246.382 489.939 246.577 489.939C246.772 489.939 246.959 489.863 247.099 489.726C253.546 483.876 256.974 468.597 253.844 459.43C253.784 459.243 253.652 459.087 253.478 458.996C253.303 458.905 253.1 458.887 252.912 458.946C252.722 459.014 252.565 459.152 252.475 459.333C252.385 459.514 252.368 459.722 252.428 459.915C255.67 469.38 251.645 483.615 246.093 488.608C246.036 488.763 246.023 488.931 246.055 489.093Z" fill="#455A64"/>
<path d="M251.536 484.099C251.465 484.317 251.465 484.552 251.536 484.77C251.673 484.934 251.863 485.047 252.074 485.087C252.284 485.128 252.502 485.095 252.691 484.994C257.386 482.012 271.323 486.112 279.521 489.577C281.932 490.669 284.563 491.187 287.208 491.09C289.852 490.993 292.438 490.284 294.763 489.018C296.217 488.064 297.407 486.757 298.221 485.219C299.036 483.682 299.448 481.963 299.421 480.224C299.436 478.499 298.937 476.809 297.988 475.369C297.039 473.928 295.683 472.804 294.092 472.137C285.633 467.964 268.007 470.572 251.722 483.615C251.604 483.749 251.538 483.921 251.536 484.099ZM297.632 482.124C297.44 483.251 297.007 484.323 296.364 485.268C295.722 486.214 294.883 487.009 293.905 487.602C291.817 488.732 289.494 489.36 287.12 489.438C284.747 489.516 282.388 489.04 280.229 488.049C279.484 487.751 265.063 481.677 256.231 482.311C270.876 471.951 286.043 469.976 293.496 473.628C294.797 474.161 295.91 475.069 296.693 476.237C297.476 477.405 297.894 478.78 297.893 480.187C297.884 480.841 297.797 481.491 297.632 482.124Z" fill="#455A64"/>
<path d="M251.532 484.099C251.46 484.291 251.46 484.503 251.532 484.695C251.648 484.885 251.833 485.022 252.049 485.078C252.265 485.134 252.493 485.103 252.687 484.993C265.58 477.54 284.809 478.546 289.951 480.186C290.164 480.258 290.396 480.243 290.598 480.146C290.8 480.048 290.956 479.875 291.032 479.664C291.066 479.559 291.079 479.448 291.069 479.338C291.059 479.228 291.027 479.121 290.975 479.023C290.923 478.926 290.851 478.84 290.765 478.771C290.679 478.702 290.58 478.651 290.473 478.621C285.144 476.907 265.208 475.826 251.867 483.54C251.692 483.68 251.573 483.878 251.532 484.099Z" fill="#455A64"/>
<path d="M264.614 428.724C266.519 438.391 270.54 447.515 276.389 455.443C291.667 460.25 298.338 461.331 310.486 459.43C313.403 458.808 316.142 457.534 318.498 455.704C319.336 454.969 319.875 453.952 320.012 452.846C320.15 451.74 319.876 450.622 319.243 449.704C317.964 448.544 316.311 447.883 314.585 447.841L299.344 445.754C305.048 445.487 310.589 443.768 315.442 440.761C317.231 439.643 319.169 437.817 318.535 435.805C317.902 433.792 314.585 433.122 312.126 433.494C305.741 434.388 299.546 436.327 293.792 439.233C297.938 433.739 301.194 427.628 303.443 421.122C303.755 420.497 303.917 419.809 303.917 419.11C303.917 418.412 303.755 417.723 303.443 417.098C302.027 415.16 298.934 416.464 297.145 418.029C292.997 421.625 289.603 426.008 287.158 430.923C288.915 423.749 289.017 416.269 287.457 409.049C287.399 408.476 287.228 407.921 286.952 407.415C286.677 406.91 286.304 406.464 285.854 406.105C283.916 404.912 281.606 407.074 280.6 409.123C277.968 414.625 276.618 420.651 276.65 426.749C275.644 423.023 272.365 414.34 269.197 414.601C266.03 414.862 263.272 422.464 264.614 428.724Z" fill="#82655D"/>
<path opacity="0.15" d="M264.614 428.724C266.519 438.391 270.54 447.515 276.389 455.443C291.667 460.25 298.338 461.331 310.486 459.43C313.403 458.808 316.142 457.534 318.498 455.704C319.336 454.969 319.875 453.952 320.012 452.846C320.15 451.74 319.876 450.622 319.243 449.704C317.964 448.544 316.311 447.883 314.585 447.841L299.344 445.754C305.048 445.487 310.589 443.768 315.442 440.761C317.231 439.643 319.169 437.817 318.535 435.805C317.902 433.792 314.585 433.122 312.126 433.494C305.741 434.388 299.546 436.327 293.792 439.233C297.938 433.739 301.194 427.628 303.443 421.122C303.755 420.497 303.917 419.809 303.917 419.11C303.917 418.412 303.755 417.723 303.443 417.098C302.027 415.16 298.934 416.464 297.145 418.029C292.997 421.625 289.603 426.008 287.158 430.923C288.915 423.749 289.017 416.269 287.457 409.049C287.399 408.476 287.228 407.921 286.952 407.415C286.677 406.91 286.304 406.464 285.854 406.105C283.916 404.912 281.606 407.074 280.6 409.123C277.968 414.625 276.618 420.651 276.65 426.749C275.644 423.023 272.365 414.34 269.197 414.601C266.03 414.862 263.272 422.464 264.614 428.724Z" fill="black"/>
<path d="M129.705 85.6714C113.426 91.7444 100.183 102.636 91.9183 116.747C85.0637 127.776 80.5992 140.052 78.7465 152.967C78.41 155.403 78.2454 157.87 78.2537 160.353C78.4219 161.888 78.3991 163.42 78.1857 164.918C78.1764 165.545 76.7527 166.037 76.1886 165.355C73.5579 162.068 74.3243 156.872 74.7223 153.281C75.4542 147.125 76.8256 141.098 78.8183 135.282C83.1196 121.137 91.3958 108.562 102.867 98.7402C110.563 92.5931 119.543 87.8826 129.373 84.837C129.793 84.8772 129.746 85.4659 129.362 85.5687L129.705 85.6714Z" fill="#455A64"/>
<path d="M103.76 91.475C98.0366 76.2186 97.6874 60.2129 102.761 45.6841C111.101 20.6448 122.65 10.726 135.047 11.8991C138.43 12.0945 141.762 13.215 144.579 15.1048C147.396 16.9947 149.559 19.5601 150.766 22.4451C150.766 22.4451 163.911 19.2775 169.122 24.9228C174.334 30.5682 171.991 42.5367 171.991 42.5367C171.991 42.5367 179.67 41.2765 182.714 42.8105C185.758 44.3445 191.733 67.4719 180.058 78.2543C168.383 89.0367 129.778 102.558 103.76 91.475Z" fill="#AE7864"/>
<path opacity="0.25" d="M103.76 91.475C98.0366 76.2186 97.6874 60.2129 102.761 45.6841C111.101 20.6448 122.65 10.726 135.047 11.8991C138.43 12.0945 141.762 13.215 144.579 15.1048C147.396 16.9947 149.559 19.5601 150.766 22.4451C150.766 22.4451 163.911 19.2775 169.122 24.9228C174.334 30.5682 171.991 42.5367 171.991 42.5367C171.991 42.5367 179.67 41.2765 182.714 42.8105C185.758 44.3445 191.733 67.4719 180.058 78.2543C168.383 89.0367 129.778 102.558 103.76 91.475Z" fill="black"/>
<path d="M107.754 94.6138C123.267 99.4354 139.608 101.311 155.434 100.087C182.831 98.2426 192.414 92.7897 194.291 82.1189C196.169 71.4481 186.847 67.7089 175.647 74.6404C175.647 74.6404 174.918 68.6971 170.561 66.9005C168.312 66.137 165.926 65.7916 163.592 65.8918C161.258 65.992 159.04 66.535 157.114 67.4779C155.232 68.841 136.021 93.214 107.754 94.6138Z" fill="#AE7864"/>
<path opacity="0.15" d="M107.754 94.6138C123.267 99.4354 139.608 101.311 155.434 100.087C182.831 98.2426 192.414 92.7897 194.291 82.1189C196.169 71.4481 186.847 67.7089 175.647 74.6404C175.647 74.6404 174.918 68.6971 170.561 66.9005C168.312 66.137 165.926 65.7916 163.592 65.8918C161.258 65.992 159.04 66.535 157.114 67.4779C155.232 68.841 136.021 93.214 107.754 94.6138Z" fill="black"/>
<path d="M101.452 87.3802C94.3029 76.7959 89.5803 65.1089 87.6066 53.1172C85.4717 35.336 89.2837 21.076 99.8985 26.7662C99.8985 26.7662 100.314 19.5994 106.591 19.0393C112.868 18.4792 126.047 33.9412 125.249 48.5945C124.45 63.2479 101.452 87.3802 101.452 87.3802Z" fill="#AE7864"/>
<path opacity="0.15" d="M101.452 87.3802C94.3029 76.7959 89.5803 65.1089 87.6066 53.1172C85.4717 35.336 89.2837 21.076 99.8985 26.7662C99.8985 26.7662 100.314 19.5994 106.591 19.0393C112.868 18.4792 126.047 33.9412 125.249 48.5945C124.45 63.2479 101.452 87.3802 101.452 87.3802Z" fill="black"/>
<path d="M107.686 95.6769C122.746 98.5372 142.806 91.7995 152.441 85.0243C164.051 76.8031 170.733 61.7843 166.05 51.1643C161.366 40.5442 147.894 36.4056 147.894 36.4056C147.894 36.4056 145.419 26.8122 131.712 25.8841C122.293 25.2274 110.327 42.7047 104.669 58.4336C99.012 74.1624 101.884 88.3197 107.686 95.6769Z" fill="#AE7864"/>
<path d="M94.2481 104.268C98.7296 103.546 103.612 104.423 115.773 107.082C127.934 109.741 138.849 111.146 139.998 104.811C141.148 98.4752 120.963 98.5517 120.963 98.5517C120.963 98.5517 131.945 88.5098 126.165 83.0597C118.61 75.8504 106.289 89.0216 106.289 89.0216C106.289 89.0216 106.019 73.9647 98.8437 73.0376C91.6687 72.1106 90.0569 78.7284 92.1739 86.7338C94.2908 94.7392 96.1251 100.896 94.2481 104.268Z" fill="#455A64"/>
<path d="M134.32 352.778C191.855 423.381 195.555 345.584 213.714 339.59C225.684 335.648 222.596 342.948 229.946 348.087C234.181 351.01 265.447 318.017 271.699 307.726C276.363 299.975 281.233 285.325 271.164 275.686C259.307 264.297 312.98 247.878 269.92 195.038C234.979 152.161 211.496 197.642 201.704 195.218C190.218 192.379 195.265 182.548 186.316 184.985C169.532 189.506 147.811 223.953 143.833 234.486C140.869 242.271 153.51 247.47 150.731 255.981C140.148 288.46 78.6003 284.459 134.323 352.837L134.32 352.778Z" stroke="black" stroke-width="2" stroke-miterlimit="10"/>
<path d="M148.96 289.451C137.653 304.87 118.092 319.795 139.566 346.371C154.662 365.064 169.63 358.181 173.961 353.14C202.632 319.769 265.302 248.708 267.171 231.287C269.543 208.89 257.829 194.292 241.019 194.096C226.913 193.951 176.891 251.294 148.983 289.424L148.96 289.451Z" stroke="black" stroke-width="2" stroke-miterlimit="10"/>
</svg>
