<svg width="327" height="561" viewBox="0 0 327 561" fill="none" xmlns="http://www.w3.org/2000/svg">
<path d="M14.2846 343.759C15.202 344.928 15.7532 346.335 15.8689 347.802C15.9845 349.269 15.6593 350.731 14.9343 352.002C14.2093 353.274 13.1171 354.299 11.7954 354.947C10.4738 355.595 8.98206 355.839 7.50859 355.645C6.03512 355.452 4.64597 354.831 3.51655 353.862C2.38712 352.892 1.56806 351.616 1.16279 350.197C0.757514 348.777 0.784201 347.276 1.23947 345.884C1.69474 344.491 2.55818 343.27 3.72077 342.374C4.49286 341.772 5.38042 341.329 6.33181 341.073C7.2832 340.816 8.27943 340.75 9.2625 340.879C10.2456 341.008 11.1958 341.329 12.058 341.824C12.9202 342.318 13.6771 342.976 14.2846 343.759Z" fill="#B16668"/>
<path d="M30.8705 377.105C31.7879 378.274 32.3392 379.68 32.4548 381.147C32.5705 382.615 32.2452 384.076 31.5202 385.348C30.7952 386.62 29.703 387.645 28.3814 388.293C27.0597 388.941 25.568 389.184 24.0945 388.991C22.6211 388.798 21.2319 388.177 20.1025 387.207C18.9731 386.238 18.154 384.962 17.7487 383.542C17.3435 382.122 17.3701 380.622 17.8254 379.229C18.2807 377.837 19.1441 376.616 20.3067 375.72C21.0788 375.117 21.9664 374.675 22.9178 374.419C23.8691 374.162 24.8654 374.096 25.8484 374.225C26.8315 374.354 27.7818 374.675 28.644 375.169C29.5061 375.664 30.263 376.322 30.8705 377.105Z" fill="#B16668"/>
<path d="M41.8841 341.112C42.678 342.081 43.1642 343.26 43.28 344.496C43.3958 345.732 43.1359 346.968 42.5339 348.045C41.9319 349.123 41.0153 349.992 39.9022 350.542C38.7891 351.091 37.5305 351.295 36.2887 351.127C35.0469 350.959 33.8786 350.428 32.9346 349.601C31.9905 348.773 31.3139 347.689 30.9918 346.487C30.6698 345.284 30.7171 344.019 31.1277 342.854C31.5383 341.69 32.2933 340.679 33.2955 339.952C34.5864 339.015 36.1993 338.613 37.7989 338.829C39.3984 339.045 40.8616 339.863 41.8841 341.112Z" fill="#B16668"/>
<path d="M65.5993 352.621C66.3792 353.586 66.8538 354.756 66.9624 355.98C67.0709 357.205 66.8085 358.428 66.2087 359.493C65.6089 360.558 64.699 361.417 63.5957 361.959C62.4924 362.501 61.2459 362.702 60.0161 362.536C58.7862 362.37 57.6289 361.844 56.6926 361.027C55.7563 360.209 55.0836 359.137 54.7607 357.947C54.4378 356.757 54.4794 355.504 54.8803 354.349C55.2811 353.193 56.0229 352.187 57.0105 351.461C58.2936 350.503 59.912 350.089 61.518 350.306C63.124 350.522 64.5894 351.354 65.5993 352.621Z" fill="#B16668"/>
<path d="M72.5776 328.748C73.3715 329.718 73.8576 330.896 73.9734 332.132C74.0892 333.368 73.8294 334.604 73.2273 335.682C72.6253 336.759 71.7087 337.629 70.5956 338.178C69.4825 338.727 68.2239 338.931 66.982 338.763C65.7402 338.596 64.5719 338.064 63.6278 337.237C62.6838 336.41 62.0071 335.325 61.6851 334.123C61.363 332.92 61.4104 331.655 61.821 330.491C62.2316 329.326 62.9866 328.315 63.9888 327.588C65.2759 326.641 66.8915 326.233 68.4943 326.449C70.097 326.666 71.5613 327.49 72.5776 328.748Z" fill="#B16668"/>
<path d="M280.982 156.293C284.829 153.142 292.028 175.471 292.028 175.471C292.028 175.471 227.864 272.939 220.418 330.525C219.173 340.042 191.47 345.69 188.357 338.877C167.14 292.413 60.0236 252.064 60.0236 252.064C60.0236 252.064 54.6518 215.739 60.6461 219.629C97.7439 243.678 227.728 200.102 280.991 156.328L280.982 156.293Z" stroke="black" stroke-width="2" stroke-miterlimit="10"/>
<path d="M128.485 191.376C128.229 191.454 127.954 191.435 127.714 191.324C127.474 191.213 127.285 191.018 127.185 190.775C108.95 145.221 126.26 93.2052 171.274 58.3037C171.502 58.1329 171.787 58.0538 172.07 58.0827C172.353 58.1115 172.612 58.2461 172.795 58.4588C172.962 58.6872 173.032 58.9711 172.99 59.2517C172.949 59.5323 172.8 59.7879 172.575 59.9655C128.332 94.2855 111.327 145.296 129.187 189.951C129.29 190.218 129.283 190.514 129.168 190.779C129.053 191.043 128.839 191.254 128.57 191.368L128.485 191.376Z" fill="#455A64"/>
<path d="M175.677 92.7715C175.116 92.8654 174.549 92.9183 173.981 92.9298C170.049 93.1878 166.108 92.8754 162.284 92.0025C155.021 90.0704 147.294 90.4531 140.201 93.0963C140.036 93.1531 139.86 93.164 139.691 93.1278C139.522 93.0915 139.367 93.0096 139.244 92.8911C139.137 92.7573 139.073 92.5951 139.059 92.4246C139.045 92.254 139.082 92.0825 139.165 91.9309C144.085 82.6794 160.122 68.3517 174.45 72.6934C183.564 75.4604 183.986 81.1003 183.879 83.424C183.589 85.5936 182.656 87.6389 181.196 89.3022C179.737 90.9656 177.816 92.1727 175.677 92.7715ZM142.884 90.4058C149.375 88.837 156.135 88.8413 162.581 90.4182C166.251 91.2598 170.032 91.5728 173.808 91.3474C175.869 91.078 177.791 90.1481 179.278 88.7014C180.765 87.2547 181.734 85.3718 182.035 83.3437C182.429 79.3105 179.466 76.0113 173.899 74.3014C160.756 70.3538 147.019 83.0365 141.845 90.7553L142.884 90.4058Z" fill="#455A64"/>
<path d="M140.183 93.2384C140.077 93.3068 139.956 93.3487 139.83 93.3603C139.705 93.372 139.578 93.3531 139.463 93.3053C139.295 93.1646 139.191 92.9641 139.173 92.7469C139.155 92.5297 139.224 92.3131 139.367 92.1436C145.421 84.3483 162.467 78.9185 173.174 81.436C173.392 81.4829 173.582 81.6129 173.701 81.7976C173.82 81.9824 173.859 82.2068 173.81 82.4221C173.751 82.6409 173.607 82.8299 173.41 82.9494C173.214 83.069 172.978 83.1099 172.754 83.0637C161.698 80.4532 145.893 86.4367 140.73 93.1458C140.559 93.2255 140.37 93.2575 140.183 93.2384Z" fill="#455A64"/>
<path d="M145.166 86.4741C144.922 86.5779 144.652 86.6031 144.395 86.546C144.194 86.4082 144.047 86.2054 143.981 85.9718C143.914 85.7382 143.932 85.488 144.031 85.2635C147.018 79.6338 141.01 64.3114 136.265 55.4113C134.785 52.8023 133.945 49.8822 133.81 46.8808C133.675 43.8794 134.249 40.8786 135.486 38.1145C136.447 36.367 137.837 34.8814 139.528 33.7955C141.218 32.7097 143.154 32.0589 145.154 31.9037C147.134 31.7013 149.122 32.084 150.865 33.003C152.608 33.9219 154.027 35.3354 154.94 37.0633C160.523 46.1825 159.169 66.3962 145.705 86.2114C145.562 86.3594 145.371 86.4526 145.166 86.4741ZM143.138 34.1303C141.862 34.4686 140.67 35.0724 139.644 35.9008C138.619 36.7293 137.783 37.7631 137.193 38.932C136.09 41.4155 135.584 44.11 135.716 46.8026C135.849 49.4953 136.615 52.1122 137.954 54.4468C138.366 55.2577 146.688 70.9162 146.783 80.9722C157.318 63.2989 158.173 45.9346 153.283 37.8974C152.55 36.4827 151.403 35.3211 149.988 34.5606C148.573 33.8002 146.955 33.4754 145.34 33.6276C144.589 33.7074 143.85 33.8763 143.138 34.1303Z" fill="#455A64"/>
<path d="M145.188 86.5243C144.972 86.6258 144.726 86.6485 144.496 86.5883C144.264 86.4772 144.087 86.2818 144.002 86.0436C143.917 85.8053 143.931 85.5429 144.041 85.3118C151.48 69.9061 148.5 48.233 146.111 42.5839C146.008 42.3508 146.003 42.0862 146.097 41.8468C146.191 41.6075 146.377 41.4125 146.615 41.3037C146.734 41.2537 146.862 41.2275 146.99 41.2267C147.119 41.2259 147.247 41.2507 147.365 41.2993C147.483 41.348 147.589 41.4197 147.678 41.51C147.766 41.6003 147.835 41.7074 147.879 41.8248C150.372 47.677 153.505 70.1441 145.806 86.0844C145.66 86.2981 145.441 86.4543 145.188 86.5243Z" fill="#455A64"/>
<path d="M206.719 65.9549C195.511 64.8405 184.725 61.283 175.135 55.5375C168.233 38.831 166.382 31.4285 167.426 17.5333C167.866 14.1787 169.067 10.9556 170.937 8.10515C171.698 7.08206 172.809 6.36597 174.059 6.09293C175.309 5.81989 176.61 6.00892 177.716 6.62412C179.158 7.9414 180.066 9.7342 180.274 11.6751L184.067 28.6302C183.843 22.1732 185.292 15.7443 188.275 9.95259C189.385 7.81714 191.29 5.43804 193.645 5.93705C196.001 6.43605 197.073 10.1024 196.876 12.9142C196.447 20.2061 194.808 27.3946 192.024 34.1915C197.91 28.9316 204.584 24.6078 211.8 21.3784C212.484 20.9604 213.256 20.7039 214.053 20.6293C214.85 20.5547 215.651 20.6639 216.393 20.9484C218.736 22.3374 217.534 25.9628 215.913 28.146C212.193 33.2054 207.506 37.4993 202.122 40.7797C210.148 38.0331 218.676 37.119 227.06 38.1065C227.719 38.1103 228.369 38.2442 228.971 38.5003C229.574 38.7564 230.117 39.1296 230.568 39.598C232.109 41.6546 229.856 44.4895 227.61 45.8425C221.575 49.3963 214.822 51.5623 207.859 52.1778C212.205 52.9136 222.418 55.682 222.414 59.2799C222.41 62.8777 213.989 66.798 206.719 65.9549Z" fill="#82655D"/>
<path opacity="0.15" d="M206.719 65.9549C195.511 64.8405 184.725 61.283 175.135 55.5375C168.233 38.831 166.382 31.4285 167.426 17.5333C167.866 14.1787 169.067 10.9556 170.937 8.10515C171.698 7.08206 172.809 6.36597 174.059 6.09293C175.309 5.81989 176.61 6.00892 177.716 6.62412C179.158 7.9414 180.066 9.7342 180.274 11.6751L184.067 28.6302C183.843 22.1732 185.292 15.7443 188.275 9.95259C189.385 7.81714 191.29 5.43804 193.645 5.93705C196.001 6.43605 197.073 10.1024 196.876 12.9142C196.447 20.2061 194.808 27.3946 192.024 34.1915C197.91 28.9316 204.584 24.6078 211.8 21.3784C212.484 20.9604 213.256 20.7039 214.053 20.6293C214.85 20.5547 215.651 20.6639 216.393 20.9484C218.736 22.3374 217.534 25.9628 215.913 28.146C212.193 33.2054 207.506 37.4993 202.122 40.7797C210.148 38.0331 218.676 37.119 227.06 38.1065C227.719 38.1103 228.369 38.2442 228.971 38.5003C229.574 38.7564 230.117 39.1296 230.568 39.598C232.109 41.6546 229.856 44.4895 227.61 45.8425C221.575 49.3963 214.822 51.5623 207.859 52.1778C212.205 52.9136 222.418 55.682 222.414 59.2799C222.41 62.8777 213.989 66.798 206.719 65.9549Z" fill="black"/>
<path d="M191.708 459.503C172.868 452.924 157.535 440.757 147.958 424.787C140.015 412.316 134.836 398.36 132.678 383.613C132.286 380.832 132.093 378.011 132.099 375.167C132.292 373.405 132.264 371.652 132.016 369.941C132.004 369.223 130.356 368.692 129.705 369.486C126.665 373.311 127.558 379.244 128.022 383.347C128.876 390.38 130.469 397.249 132.781 403.864C137.774 419.962 147.363 434.173 160.645 445.155C169.555 452.018 179.95 457.205 191.325 460.466C191.811 460.411 191.756 459.738 191.311 459.629L191.708 459.503Z" fill="#455A64"/>
<path d="M161.646 455.633C155.038 473.114 154.652 491.323 160.542 507.728C170.225 536.009 183.604 547.023 197.953 545.403C201.87 545.103 205.725 543.752 208.984 541.539C212.242 539.325 214.743 536.358 216.137 533.049C216.137 533.049 231.356 536.349 237.383 529.809C243.409 523.269 240.683 509.713 240.683 509.713C240.683 509.713 249.573 510.969 253.095 509.155C256.618 507.34 263.507 480.903 249.98 468.911C236.454 456.918 191.751 442.431 161.646 455.633Z" fill="#AE7864"/>
<path opacity="0.25" d="M161.646 455.633C155.038 473.114 154.652 491.323 160.542 507.728C170.225 536.009 183.604 547.023 197.953 545.403C201.87 545.103 205.725 543.752 208.984 541.539C212.242 539.325 214.743 536.358 216.137 533.049C216.137 533.049 231.356 536.349 237.383 529.809C243.409 523.269 240.683 509.713 240.683 509.713C240.683 509.713 249.573 510.969 253.095 509.155C256.618 507.34 263.507 480.903 249.98 468.911C236.454 456.918 191.751 442.431 161.646 455.633Z" fill="black"/>
<path d="M166.281 451.825C184.243 446.097 203.166 443.631 221.496 444.63C253.228 446.056 264.333 451.91 266.52 463.754C268.706 475.599 257.914 479.979 244.935 472.514C244.935 472.514 244.097 479.152 239.053 481.254C236.449 482.156 233.686 482.596 230.983 482.538C228.28 482.48 225.711 481.926 223.479 480.92C221.298 479.444 199.021 452.734 166.281 451.825Z" fill="#AE7864"/>
<path opacity="0.15" d="M166.281 451.825C184.243 446.097 203.166 443.631 221.496 444.63C253.228 446.056 264.333 451.91 266.52 463.754C268.706 475.599 257.914 479.979 244.935 472.514C244.935 472.514 244.097 479.152 239.053 481.254C236.449 482.156 233.686 482.596 230.983 482.538C228.28 482.48 225.711 481.926 223.479 480.92C221.298 479.444 199.021 452.734 166.281 451.825Z" fill="black"/>
<path d="M158.945 459.197C150.689 471.499 145.24 485.01 142.971 498.806C140.522 519.246 144.947 535.511 157.218 528.741C157.218 528.741 157.708 536.95 164.969 537.448C172.23 537.946 187.454 519.912 186.514 503.127C185.574 486.341 158.945 459.197 158.945 459.197Z" fill="#AE7864"/>
<path opacity="0.15" d="M158.945 459.197C150.689 471.499 145.24 485.01 142.971 498.806C140.522 519.246 144.947 535.511 157.218 528.741C157.218 528.741 157.708 536.95 164.969 537.448C172.23 537.946 187.454 519.912 186.514 503.127C185.574 486.341 158.945 459.197 158.945 459.197Z" fill="black"/>
<path d="M166.19 450.333C183.618 446.727 206.842 453.943 218.002 461.442C231.449 470.543 239.201 487.504 233.792 499.714C228.383 511.924 212.795 516.95 212.795 516.95C212.795 516.95 209.942 527.939 194.078 529.313C183.177 530.278 169.307 510.637 162.741 492.843C156.175 475.049 159.484 458.85 166.19 450.333Z" fill="#AE7864"/>
<path d="M150.628 440.002C155.817 440.714 161.469 439.612 175.547 436.33C189.625 433.047 202.262 431.21 203.6 438.337C204.939 445.464 181.567 445.842 181.567 445.842C181.567 445.842 194.294 456.927 187.607 463.214C178.868 471.528 164.587 456.94 164.587 456.94C164.587 456.94 164.291 473.946 155.984 475.158C147.677 476.37 145.804 468.935 148.246 459.848C150.688 450.76 152.805 443.766 150.628 440.002Z" fill="#455A64"/>
</svg>
