<svg width="401" height="673" viewBox="0 0 401 673" fill="none" xmlns="http://www.w3.org/2000/svg">
<g clip-path="url(#clip0_286_2255)">
<path d="M228.373 398.318C215.804 432.643 180.61 412.162 141.213 397.736C101.816 383.311 63.4626 371.358 76.0307 337.034C88.5988 302.71 152.985 244.067 192.382 258.493C231.779 272.918 240.941 363.994 228.373 398.318Z" stroke="#1D1D1B" stroke-width="2" stroke-miterlimit="10"/>
</g>
<path d="M302.869 498.088C305.016 482.042 318.821 478.366 328.048 472.886C337.275 467.405 347.05 462.252 353.885 453.917C352.554 460.373 350.946 466.833 348.039 472.769C345.132 478.704 340.788 484.117 335.084 487.349C325.107 492.957 312.204 491.392 302.892 498.085" fill="#BA68C8"/>
<path d="M346.309 496.303C340.357 497.654 334.318 498.504 328.253 498.843C316.653 499.819 303.915 501.319 294.358 508.236C299.04 512.37 308.451 513.935 314.72 513.315C320.989 512.694 327.02 510.335 332.938 508.024C338.632 505.989 344.158 503.475 349.456 500.509C354.773 497.516 359.289 493.232 362.582 488.055C357.881 492.104 352.29 494.938 346.309 496.303Z" fill="#BA68C8"/>
<path d="M295.17 475.14C295.269 467.675 293.872 460.307 291.062 453.478C288.252 446.65 284.087 440.503 278.818 435.405C283.822 443.261 279.491 454.452 279.672 463.884C279.994 479.918 284.713 495.256 292.265 509.182C291.221 497.85 294.96 486.514 295.17 475.14Z" fill="#BA68C8"/>
<path d="M252.381 433.528C251.548 451.405 250.856 470.041 258.114 486.146C263.811 498.778 275.932 507.537 282.196 519.883L282.987 519.033C279.198 487.929 270.189 458.915 252.381 433.528Z" fill="#BA68C8"/>
<path d="M328.947 524.813C315.329 519.397 300.633 516.052 285.912 517.221L283.415 519.847C291.997 528.105 303.418 537.734 314.652 541.632C331.451 547.452 350.341 542.076 367.89 545.142C355.219 537.719 342.542 530.257 328.947 524.813Z" fill="#BA68C8"/>
<path d="M310.257 548.805C298.402 540.186 284.445 533.458 269.957 530.984L268.31 534.118C274.656 544.275 282.598 555.177 292.51 561.72C307.336 571.5 326.807 570.867 343.007 578.139C332.583 567.797 322.107 557.409 310.257 548.805Z" fill="#BA68C8"/>
<path d="M265.649 535.141C256.013 524.397 246.46 513.51 238.524 501.422C230.588 489.335 224.29 475.913 221.754 461.524C244.6 480.026 260.149 506.156 265.733 535.434" fill="#BA68C8"/>
<path d="M243.556 554.252C250.425 563.962 258.679 575.152 268.833 581.203C284.889 590.811 304.512 591.903 323.312 592.754C304.317 585.529 291.22 567.369 272.439 559.542C263.195 555.694 254.604 554.503 244.596 553.414" fill="#BA68C8"/>
<path d="M341.664 468.185C341.664 468.185 341.511 468.333 341.199 468.615L339.789 469.796L334.346 474.329C333.76 474.827 333.132 475.343 332.474 475.906C331.789 476.475 331.039 476.955 330.239 477.337C328.421 478.242 326.556 479.047 324.655 479.748C322.472 480.492 320.342 481.398 318.283 482.459C316.001 483.699 313.849 485.176 311.863 486.866C309.668 488.706 307.675 490.781 305.922 493.053C304.013 495.393 302.044 497.818 300.018 500.328C298.022 502.882 295.725 505.338 293.475 507.953L290.006 511.895L286.307 515.814C275.488 527.331 263.88 538.067 251.575 547.94C239.258 557.809 226.294 566.814 212.778 574.887C201.712 581.42 190.307 587.33 178.618 592.589C173.585 594.721 169.083 596.788 165.01 598.269C160.936 599.75 157.492 601.229 154.578 602.152L147.92 604.397L146.183 604.967C145.799 605.092 145.597 605.139 145.597 605.139C145.597 605.139 145.782 605.05 146.175 604.905L147.885 604.29L154.514 601.951C157.406 600.996 160.852 599.541 164.902 597.98C168.952 596.419 173.455 594.377 178.472 592.227C190.115 586.932 201.48 581.007 212.515 574.478C225.997 566.394 238.935 557.395 251.237 547.546C263.525 537.692 275.124 526.985 285.945 515.505C287.203 514.193 288.437 512.883 289.65 511.599C290.862 510.315 291.979 508.958 293.124 507.671C295.356 505.072 297.672 502.624 299.668 500.07C301.664 497.516 303.694 495.151 305.594 492.827C307.38 490.539 309.405 488.45 311.633 486.597C313.663 484.925 315.853 483.464 318.169 482.238C320.246 481.18 322.394 480.277 324.595 479.537C326.486 478.854 328.342 478.069 330.154 477.185C331.635 476.346 333.02 475.339 334.28 474.186L339.781 469.734L341.221 468.589C341.486 468.311 341.664 468.185 341.664 468.185Z" fill="#455A64"/>
<path d="M347.857 540.044C347.638 539.989 347.428 539.903 347.234 539.789L345.488 538.916C343.981 538.142 341.783 537.048 339.053 535.76C324.81 528.988 309.787 524.002 294.297 520.907C291.331 520.304 288.928 519.908 287.243 519.591L285.316 519.246C285.089 519.221 284.867 519.166 284.655 519.083C284.886 519.073 285.116 519.086 285.343 519.124L287.279 519.364C288.962 519.573 291.393 519.956 294.385 520.497C309.967 523.39 325.048 528.398 339.24 535.391C341.958 536.734 344.125 537.876 345.603 538.723L347.296 539.694C347.498 539.783 347.687 539.901 347.857 540.044Z" fill="#455A64"/>
<path d="M321.414 568.252C321.215 568.179 321.028 568.078 320.857 567.953L319.317 567.016C317.982 566.197 316.073 564.979 313.717 563.447C309.012 560.397 302.574 556.093 295.547 551.204C288.52 546.315 282.26 541.75 277.762 538.392C275.514 536.713 273.717 535.337 272.494 534.386L271.078 533.261C270.908 533.137 270.75 532.996 270.605 532.842C270.798 532.924 270.978 533.034 271.14 533.167L272.628 534.202L278.023 538.069C282.578 541.343 288.874 545.851 295.871 550.728C302.868 555.606 309.291 559.975 313.939 563.108L319.441 566.828L320.919 567.859C321.1 567.967 321.267 568.099 321.414 568.252Z" fill="#455A64"/>
<path d="M236.16 485.041C236.318 485.151 236.46 485.284 236.582 485.434L237.711 486.666C238.686 487.742 240.039 489.346 241.656 491.362C250.124 501.913 257.113 513.608 262.434 526.131C263.455 528.529 264.229 530.498 264.714 531.868L265.269 533.455C265.344 533.638 265.398 533.83 265.433 534.026C265.325 533.864 265.235 533.69 265.167 533.507L264.513 531.963C263.95 530.561 263.142 528.672 262.083 526.283C259.326 520.098 256.211 514.089 252.754 508.288C249.276 502.496 245.466 496.921 241.343 491.588C239.763 489.539 238.447 487.903 237.531 486.793L236.489 485.491C236.365 485.352 236.255 485.202 236.16 485.041Z" fill="#455A64"/>
<path d="M260.511 458.602C260.66 458.545 265.901 472.004 272.232 488.666C278.564 505.327 283.58 518.883 283.431 518.939C283.281 518.996 278.036 505.547 271.709 488.875C265.381 472.204 260.351 458.654 260.511 458.602Z" fill="#455A64"/>
<path d="M288.047 462.109C288.154 462.718 288.208 463.336 288.209 463.958C288.29 465.237 288.387 466.943 288.496 469.003C288.749 473.254 289.142 479.134 289.733 485.607C290.324 492.081 291.039 497.928 291.581 502.144L292.227 507.148C292.332 507.756 292.391 508.372 292.404 508.991C292.232 508.399 292.104 507.794 292.02 507.181C291.798 506.019 291.516 504.32 291.208 502.192C290.561 497.98 289.798 492.136 289.198 485.659C288.597 479.182 288.26 473.277 288.115 469.012C288.05 466.876 288.009 465.147 288.009 463.946C287.978 463.335 287.991 462.721 288.047 462.109Z" fill="#455A64"/>
<path d="M328.918 501.561C328.494 501.75 328.051 501.886 327.598 501.967C326.762 502.205 325.547 502.525 324.041 502.88C321.04 503.617 316.855 504.546 312.215 505.408C307.575 506.27 303.349 506.912 300.285 507.306C298.75 507.508 297.51 507.641 296.656 507.73C296.211 507.796 295.762 507.819 295.315 507.799C295.729 507.645 296.158 507.543 296.594 507.494L300.203 506.896C303.251 506.402 307.455 505.704 312.095 504.842C316.735 503.98 320.875 503.104 323.931 502.482L327.512 501.732C327.975 501.63 328.446 501.572 328.918 501.561Z" fill="#455A64"/>
<path d="M290.068 576.502C290.004 576.657 279.565 571.668 266.757 565.381C253.949 559.093 243.627 553.875 243.701 553.724C243.774 553.573 254.204 558.558 267.017 564.86C279.831 571.162 290.199 576.35 290.068 576.502Z" fill="#455A64"/>
<path d="M247.771 549.916C237.477 544.282 225.553 537.4 218.361 528.086C207.007 513.292 203.499 493.871 200.301 475.304C209.71 493.318 229.018 504.104 238.97 521.809C243.877 530.539 246.105 538.937 248.407 548.752" fill="#BA68C8"/>
<path d="M220.574 506.324C220.703 506.236 227.011 515.85 234.663 527.807C242.316 539.764 248.421 549.532 248.292 549.621C248.163 549.709 241.85 540.081 234.197 528.124C226.545 516.167 220.445 506.413 220.574 506.324Z" fill="#455A64"/>
<path d="M59.3069 429.151L71.4625 399.27L49.8113 423.254L18.1193 409.819L44.2221 432.138L32.0844 461.986L53.7357 438.002L85.4096 451.47L59.3069 429.151Z" fill="#DDB3E3"/>
<path d="M0.134965 437.626L7.50283 412.707L-7.74638 433.471L-33.5936 424.61L-11.4781 441.018L-18.846 465.938L-3.57943 445.142L22.2504 454.034L0.134965 437.626Z" fill="#DDB3E3"/>
<path d="M42.5502 358.331L31.0054 372.787L11.8421 365.807L28.1435 378.062L22.4294 395.704L33.9954 381.21L53.1587 388.19L36.8574 375.935L42.5502 358.331Z" fill="#DDB3E3"/>
<path d="M293.791 213.72L282.694 194.655L286.631 216.397L266.116 227.939L289.105 223.134L300.192 242.176L296.255 220.434L316.779 208.915L293.791 213.72Z" fill="#DDB3E3"/>
<path d="M273.657 249.293L263.246 234.892L268.115 251.823L252.519 262.113L270.642 256.997L281.053 271.397L276.174 254.444L291.78 244.176L273.657 249.293Z" fill="#DDB3E3"/>
<path d="M248.452 193.201L251.454 205.491L239.669 212.949L253.114 209.244L260.277 219.709L257.263 207.392L269.049 199.934L255.603 203.638L248.452 193.201Z" fill="#DDB3E3"/>
<path d="M155.457 99.6858C160.036 93.6087 166.222 88.8908 173.292 86.0825C180.363 83.2743 188.026 82.4915 195.389 83.8254C215.897 86.7844 233.969 99.1131 234.338 101.573C234.706 104.034 216.472 116.975 192.117 116.515C185.026 116.693 178.04 115.27 171.689 112.355C165.338 109.439 159.787 105.107 155.457 99.6858Z" fill="#E4BFDD"/>
<path d="M111.131 125.687C118.024 122.216 125.704 120.72 133.28 121.371C140.857 122.021 148.022 124.792 153.944 129.362C170.599 141.449 180.828 160.936 180.025 163.26C179.222 165.584 157.068 169.163 136.01 157.539C129.631 154.531 124.076 150.099 119.765 144.581C115.454 139.062 112.502 132.601 111.131 125.687Z" fill="#E4BFDD"/>
<path d="M79.3135 100.833C77.3269 93.7081 77.4277 86.1059 79.6044 78.898C81.781 71.6902 85.9454 65.169 91.6194 60.0828C106.828 45.6366 125.679 38.0754 128.02 39.0879C130.36 40.1005 129.426 64.3304 116.656 82.4693C102.679 101.982 85.2725 100.006 79.3135 100.833Z" fill="#E4BFDD"/>
<path d="M-67.1367 199.794C-55.4886 184.986 -41.3944 172.201 -25.4809 162.009C-11.1505 152.017 3.95108 143.182 19.6701 135.595C52.4419 119.733 87.0663 108.196 122.626 101.29C145.158 96.9073 169.193 92.9214 192.025 96.1872C192.491 96.2975 192.731 97.3839 192.074 97.5167C171.027 98.4881 150.06 101.524 129.484 106.58C110.946 110.22 92.6682 115.24 74.8094 121.596C44.4008 132.468 15.3392 146.956 -11.7187 164.733C-29.1782 176.956 -45.9366 190.149 -61.9088 204.245C-62.5297 204.95 -63.4005 205.392 -64.3298 205.473C-65.2591 205.554 -66.1706 205.268 -66.8639 204.678C-67.5572 204.087 -67.9753 203.241 -68.0265 202.326C-68.0777 201.41 -67.7576 200.499 -67.1367 199.794Z" fill="#37474F"/>
<path d="M69.8331 114.614C73.4611 105.856 78.0469 97.493 83.5059 89.6776C88.4586 82.0386 94.8107 75.3614 102.219 70.0064C103.312 69.3527 102.786 70.9712 102.133 71.6878C96.9988 77.9696 92.2237 84.5271 87.8318 91.3277C83.2505 98.6274 79.6655 106.474 77.1741 114.656C76.8129 115.752 76.1291 116.726 75.2123 117.449C74.2955 118.172 73.1886 118.61 72.037 118.707C71.5826 118.648 71.1518 118.484 70.7786 118.23C70.4054 117.975 70.1 117.636 69.8863 117.239C69.6726 116.842 69.5567 116.398 69.5474 115.943C69.5382 115.487 69.6359 115.032 69.8331 114.614Z" fill="#37474F"/>
<path d="M73.6975 114.874C86.9694 114.747 100.054 117.175 112.226 122.024C117.909 123.916 123.427 126.234 128.732 128.958C135.046 132.144 140.813 136.263 145.842 141.179C145.842 141.179 146.87 142.928 146.213 142.731C140.303 139.206 134.2 135.997 127.93 133.116C122.272 130.518 116.382 128.418 110.324 126.841C98.2228 123.263 85.7082 121.06 73.0165 120.274C70.2032 119.856 71.4267 114.92 73.6975 114.874Z" fill="#37474F"/>
<path d="M38.4426 150.905C44.4516 146.211 51.6207 143.255 59.1226 142.376C66.6245 141.497 74.1535 142.731 80.841 145.937C99.7907 154.286 113.855 170.877 113.554 173.355C113.253 175.833 92.2692 183.8 69.0441 177.026C62.2039 175.319 55.8959 172.081 50.5951 167.556C45.2943 163.031 41.1391 157.338 38.4426 150.905Z" fill="#E4BFDD"/>
<path d="M-0.392103 148.077C12.6139 145.24 25.9653 144.891 38.9361 147.049C44.8926 147.708 50.7731 148.827 56.5242 150.396C63.3582 152.109 69.8612 154.834 75.8176 158.482C75.8176 158.482 76.8129 160.177 76.6139 159.838C70.0875 157.618 63.4271 155.77 56.6646 154.305C50.417 152.975 44.0419 152.213 37.6173 152.028C25.0528 150.981 12.3629 151.333 -0.216649 153.078C-2.70737 153.652 -2.62666 148.629 -0.392103 148.077Z" fill="#37474F"/>
<defs>
<clipPath id="clip0_286_2255">
<rect width="167.578" height="152.344" fill="white" transform="translate(114.115 228) rotate(20.1105)"/>
</clipPath>
</defs>
</svg>
