<svg width="343" height="725" viewBox="0 0 343 725" fill="none" xmlns="http://www.w3.org/2000/svg">
<path d="M226.183 691.545C226.149 691.704 226.176 691.87 226.259 692.011C226.341 692.151 226.473 692.256 226.628 692.305C255.804 701.113 286.92 687.98 305.873 658.856C305.965 658.709 305.997 658.531 305.963 658.361C305.929 658.19 305.831 658.039 305.689 657.939C305.539 657.849 305.359 657.821 305.189 657.86C305.018 657.899 304.868 658.002 304.772 658.148C286.134 686.774 255.621 699.671 227.021 691.047C226.851 690.997 226.668 691.016 226.512 691.099C226.355 691.183 226.237 691.324 226.183 691.492V691.545Z" fill="#455A64"/>
<path d="M284.247 657.572C284.221 657.921 284.221 658.271 284.247 658.62C284.315 661.046 284.738 663.448 285.505 665.75C287.131 670.109 287.342 674.87 286.108 679.355C286.082 679.459 286.085 679.568 286.118 679.67C286.15 679.771 286.21 679.862 286.291 679.932C286.381 679.991 286.486 680.022 286.593 680.022C286.7 680.022 286.805 679.991 286.894 679.932C292.373 676.446 300.368 665.881 296.829 657.309C294.575 651.857 291.036 651.883 289.594 652.067C288.259 652.354 287.039 653.03 286.087 654.01C285.136 654.989 284.495 656.229 284.247 657.572ZM287.628 677.573C288.228 673.511 287.832 669.363 286.475 665.488C285.737 663.279 285.322 660.974 285.243 658.646C285.291 657.368 285.758 656.142 286.573 655.156C287.388 654.171 288.505 653.481 289.751 653.194C292.242 652.748 294.47 654.4 295.859 657.729C299.084 665.593 291.98 674.663 287.471 678.228L287.628 677.573Z" fill="#455A64"/>
<path d="M286.004 679.408C285.967 679.476 285.948 679.553 285.948 679.631C285.948 679.708 285.967 679.785 286.004 679.853C286.102 679.95 286.234 680.003 286.371 680.003C286.508 680.003 286.64 679.95 286.738 679.853C291.273 675.738 293.685 664.99 291.483 658.542C291.441 658.41 291.348 658.3 291.225 658.236C291.103 658.172 290.96 658.16 290.827 658.201C290.694 658.248 290.584 658.346 290.52 658.473C290.457 658.6 290.445 658.747 290.487 658.882C292.767 665.541 289.936 675.554 286.03 679.067C285.99 679.176 285.981 679.294 286.004 679.408Z" fill="#455A64"/>
<path d="M289.855 675.895C289.805 676.048 289.805 676.214 289.855 676.367C289.952 676.483 290.086 676.561 290.234 676.59C290.382 676.619 290.535 676.595 290.668 676.524C293.971 674.427 303.775 677.311 309.542 679.748C311.238 680.517 313.088 680.881 314.949 680.813C316.809 680.745 318.628 680.246 320.263 679.355C321.287 678.684 322.124 677.765 322.697 676.683C323.269 675.601 323.56 674.393 323.54 673.169C323.551 671.955 323.2 670.766 322.533 669.753C321.865 668.74 320.911 667.949 319.792 667.48C313.841 664.544 301.442 666.379 289.986 675.554C289.903 675.648 289.857 675.769 289.855 675.895ZM322.282 674.506C322.147 675.298 321.843 676.053 321.39 676.717C320.938 677.382 320.348 677.942 319.66 678.359C318.191 679.154 316.557 679.596 314.887 679.651C313.218 679.705 311.558 679.371 310.04 678.674C309.516 678.464 299.371 674.191 293.158 674.637C303.46 667.349 314.129 665.96 319.372 668.529C320.288 668.904 321.071 669.543 321.622 670.364C322.172 671.186 322.466 672.153 322.465 673.143C322.459 673.603 322.398 674.06 322.282 674.506Z" fill="#455A64"/>
<path d="M289.855 675.895C289.805 676.03 289.805 676.179 289.855 676.314C289.937 676.448 290.067 676.545 290.219 676.584C290.37 676.623 290.531 676.602 290.668 676.524C299.738 671.281 313.264 671.989 316.881 673.143C317.031 673.193 317.194 673.183 317.336 673.114C317.479 673.046 317.588 672.924 317.642 672.776C317.666 672.702 317.675 672.624 317.668 672.546C317.661 672.469 317.638 672.393 317.602 672.325C317.565 672.256 317.515 672.196 317.454 672.147C317.393 672.098 317.323 672.062 317.248 672.042C313.5 670.836 299.475 670.076 290.091 675.502C289.967 675.6 289.884 675.74 289.855 675.895Z" fill="#455A64"/>
<path d="M299.056 636.941C300.396 643.741 303.225 650.16 307.339 655.737C318.087 659.118 322.779 659.878 331.325 658.542C333.377 658.104 335.304 657.208 336.961 655.92C337.551 655.403 337.93 654.688 338.026 653.91C338.123 653.132 337.93 652.345 337.485 651.7C336.586 650.884 335.423 650.418 334.209 650.389L323.487 648.921C327.499 648.733 331.397 647.524 334.812 645.408C336.07 644.622 337.433 643.338 336.987 641.922C336.542 640.506 334.209 640.035 332.478 640.297C327.987 640.925 323.63 642.289 319.581 644.334C322.498 640.469 324.789 636.17 326.371 631.594C326.59 631.154 326.704 630.669 326.704 630.178C326.704 629.687 326.59 629.202 326.371 628.763C325.375 627.399 323.199 628.317 321.941 629.418C319.023 631.947 316.635 635.03 314.915 638.488C316.151 633.441 316.223 628.179 315.125 623.1C315.084 622.698 314.964 622.307 314.77 621.951C314.577 621.596 314.314 621.282 313.998 621.03C312.635 620.191 311.009 621.711 310.302 623.153C308.45 627.023 307.5 631.262 307.523 635.552C306.815 632.931 304.508 626.823 302.28 627.006C300.052 627.19 298.112 632.537 299.056 636.941Z" fill="#BA68C8"/>
<path opacity="0.15" d="M299.056 636.941C300.396 643.741 303.225 650.16 307.339 655.737C318.087 659.118 322.779 659.878 331.325 658.542C333.377 658.104 335.304 657.208 336.961 655.92C337.551 655.403 337.93 654.688 338.026 653.91C338.123 653.132 337.93 652.345 337.485 651.7C336.586 650.884 335.423 650.418 334.209 650.389L323.487 648.921C327.499 648.733 331.397 647.524 334.812 645.408C336.07 644.622 337.433 643.338 336.987 641.922C336.542 640.506 334.209 640.035 332.478 640.297C327.987 640.925 323.63 642.289 319.581 644.334C322.498 640.469 324.789 636.17 326.371 631.594C326.59 631.154 326.704 630.669 326.704 630.178C326.704 629.687 326.59 629.202 326.371 628.763C325.375 627.399 323.199 628.317 321.941 629.418C319.023 631.947 316.635 635.03 314.915 638.488C316.151 633.441 316.223 628.179 315.125 623.1C315.084 622.698 314.964 622.307 314.77 621.951C314.577 621.596 314.314 621.282 313.998 621.03C312.635 620.191 311.009 621.711 310.302 623.153C308.45 627.023 307.5 631.262 307.523 635.552C306.815 632.931 304.508 626.823 302.28 627.006C300.052 627.19 298.112 632.537 299.056 636.941Z" fill="black"/>
<path d="M109.148 615.699C100.762 630.683 97.5856 648.642 100.085 666.941C101.744 681.463 105.945 695.859 112.48 709.415C113.721 711.964 115.11 714.448 116.638 716.851C117.704 718.245 118.625 719.742 119.384 721.314C119.762 721.927 119.004 723.2 118.167 722.854C114.196 721.137 111.583 715.671 109.679 711.968C106.451 705.591 103.779 698.982 101.698 692.229C96.2307 676.113 94.6811 659.297 97.1951 643.366C99.1527 633.106 102.946 623.521 108.39 615.076C108.727 614.88 109.053 615.477 108.83 615.791L109.148 615.699Z" fill="#455A64"/>
<path d="M105.601 645.39C91.4716 633.116 80.9102 617.03 75.3858 599.37C65.561 569.164 67.8827 552.52 77.9804 546.68C80.6564 544.958 83.8883 544.208 87.2273 544.532C90.5662 544.856 93.8466 546.239 96.6131 548.489C96.6131 548.489 104.481 537.808 112.041 540.595C119.601 543.381 125.536 556.887 125.536 556.887C125.536 556.887 130.512 551.248 133.794 551.081C137.075 550.914 156.458 571.053 154.597 588.648C152.736 606.242 132.34 641.902 105.601 645.39Z" fill="#BA68C8"/>
<path opacity="0.25" d="M105.601 645.39C91.4716 633.116 80.9102 617.03 75.3858 599.37C65.561 569.164 67.8827 552.52 77.9804 546.68C80.6564 544.958 83.8883 544.208 87.2273 544.532C90.5662 544.856 93.8466 546.239 96.6131 548.489C96.6131 548.489 104.481 537.808 112.041 540.595C119.601 543.381 125.536 556.887 125.536 556.887C125.536 556.887 130.512 551.248 133.794 551.081C137.075 550.914 156.458 571.053 154.597 588.648C152.736 606.242 132.34 641.902 105.601 645.39Z" fill="black"/>
<path d="M108.477 645.108C123.965 641.529 137.968 634.091 149.334 623.404C169.208 605.218 172.69 593.35 166.441 580.027C160.192 566.703 150.278 567.889 146.612 582.399C146.612 582.399 141.758 576.019 137.088 576.518C134.796 576.963 132.7 577.967 130.966 579.451C129.232 580.935 127.907 582.858 127.097 585.068C126.624 587.733 129.347 626.92 108.477 645.108Z" fill="#BA68C8"/>
<path opacity="0.15" d="M108.477 645.108C123.965 641.529 137.968 634.091 149.334 623.404C169.208 605.218 172.69 593.35 166.441 580.027C160.192 566.703 150.278 567.889 146.612 582.399C146.612 582.399 141.758 576.019 137.088 576.518C134.796 576.963 132.7 577.967 130.966 579.451C129.232 580.935 127.907 582.858 127.097 585.068C126.624 587.733 129.347 626.92 108.477 645.108Z" fill="black"/>
<path d="M95.517 639.332C83.7964 633.162 73.2081 624.58 64.4754 614.175C52.114 598.304 46.3005 582.498 57.6271 582.041C57.6271 582.041 53.5921 574.933 57.9112 570.897C62.2304 566.861 81.3822 574.351 89.6708 588.855C97.9594 603.36 95.517 639.332 95.517 639.332Z" fill="#BA68C8"/>
<path opacity="0.15" d="M95.517 639.332C83.7964 633.162 73.2081 624.58 64.4754 614.175C52.114 598.304 46.3005 582.498 57.6271 582.041C57.6271 582.041 53.5921 574.933 57.9112 570.897C62.2304 566.861 81.3822 574.351 89.6708 588.855C97.9594 603.36 95.517 639.332 95.517 639.332Z" fill="black"/>
<path d="M109.155 645.578C122.275 639.941 133.058 621.852 135.992 609.612C139.49 594.807 134.977 575.964 124.723 567.954C114.468 559.945 101.73 563.402 101.73 563.402C101.73 563.402 93.7848 555.174 82.9063 561.985C75.4193 566.646 77.5261 590.94 83.2595 609.916C88.9929 628.892 100.132 641.473 109.155 645.578Z" fill="#BA68C8"/>
<path d="M99.229 658.548C102.161 655.201 106.472 653.324 117.532 649.156C128.592 644.987 137.859 640.2 134.478 632.802C131.097 625.404 115.758 637.098 115.758 637.098C115.758 637.098 117.384 620.101 109.313 617.631C98.708 614.312 98.1644 635.407 98.1644 635.407C98.1644 635.407 87.84 619.551 81.7461 622.693C75.6523 625.835 78.8703 633.8 85.8642 641.095C92.858 648.39 98.3943 653.882 99.229 658.548Z" fill="#455A64"/>
<path d="M165.409 191.398C165.581 191.445 165.771 191.402 165.941 191.276C166.111 191.151 166.248 190.953 166.328 190.72C180.804 147.079 171.139 100.941 141.711 73.2176C141.561 73.0827 141.369 73.0376 141.173 73.0915C140.978 73.1454 140.794 73.2942 140.659 73.5075C140.535 73.7335 140.475 74.0013 140.491 74.2552C140.507 74.5092 140.598 74.7297 140.746 74.8711C169.669 102.135 179.168 147.379 164.988 190.157C164.906 190.411 164.898 190.684 164.965 190.916C165.033 191.148 165.171 191.321 165.351 191.399L165.409 191.398Z" fill="#455A64"/>
<path d="M130.793 105.548C131.231 105.581 131.675 105.574 132.122 105.528C135.207 105.376 138.327 104.673 141.382 103.441C147.197 100.838 153.267 100.419 158.727 102.245C158.854 102.283 158.992 102.275 159.127 102.223C159.262 102.171 159.388 102.076 159.491 101.949C159.581 101.809 159.64 101.647 159.659 101.481C159.678 101.315 159.658 101.153 159.6 101.016C156.17 92.5966 144.227 80.4161 132.729 86.063C125.415 89.6601 124.81 95.1411 124.783 97.3708C124.906 99.4332 125.543 101.31 126.613 102.765C127.682 104.22 129.137 105.188 130.793 105.548ZM156.743 99.9241C151.705 99.0731 146.379 99.7662 141.225 101.944C138.292 103.129 135.298 103.817 132.335 103.984C130.724 103.934 129.254 103.234 128.153 101.99C127.051 100.747 126.378 99.0302 126.239 97.1054C126.124 93.2566 128.617 89.7734 133.086 87.5572C143.63 82.4113 153.841 93.24 157.545 100.155L156.743 99.9241Z" fill="#455A64"/>
<path d="M159.367 102.657C159.448 102.714 159.543 102.744 159.643 102.742C159.743 102.741 159.845 102.708 159.941 102.648C160.082 102.49 160.176 102.278 160.201 102.058C160.227 101.839 160.182 101.629 160.076 101.474C155.615 94.2982 142.219 90.6446 133.506 94.2894C133.329 94.3593 133.17 94.5095 133.065 94.7071C132.96 94.9046 132.917 95.1336 132.946 95.3442C132.983 95.5572 133.088 95.7315 133.24 95.8307C133.392 95.9299 133.578 95.9462 133.761 95.8763C142.758 92.1018 155.131 96.4402 158.932 102.621C159.065 102.683 159.216 102.696 159.367 102.657Z" fill="#455A64"/>
<path d="M153.565 97.2683C153.726 97.3401 153.909 97.3371 154.086 97.2599C154.228 97.1138 154.336 96.9134 154.391 96.6925C154.446 96.4715 154.445 96.2435 154.388 96.0469C152.599 91.1654 157.329 76.5138 160.93 67.882C162.045 65.343 162.74 62.5802 162.959 59.8109C163.178 57.0415 162.916 54.3412 162.193 51.9224C161.615 50.4104 160.734 49.1803 159.633 48.3465C158.531 47.5126 157.244 47.1019 155.892 47.1527C154.556 47.1582 153.19 47.7017 151.967 48.714C150.745 49.7262 149.722 51.1614 149.028 52.8364C144.849 61.7503 144.909 80.1827 153.21 97.0791C153.301 97.2012 153.427 97.2683 153.565 97.2683ZM157.167 49.0028C158.019 49.19 158.802 49.6294 159.464 50.2912C160.125 50.9529 160.649 51.8214 161 52.838C161.643 55.0121 161.872 57.4378 161.668 59.9233C161.464 62.4088 160.832 64.8861 159.824 67.1594C159.509 67.9439 153.193 83.1277 152.701 92.3718C146.298 77.1595 146.455 61.2957 150.117 53.4424C150.675 52.0723 151.504 50.8947 152.497 50.0597C153.49 49.2247 154.603 48.77 155.693 48.7537C156.199 48.7546 156.694 48.8382 157.167 49.0028Z" fill="#455A64"/>
<path d="M153.875 97.1326C153.994 97.2048 154.133 97.2026 154.267 97.1262C154.403 97.0032 154.511 96.8085 154.569 96.5833C154.626 96.3581 154.628 96.1202 154.575 95.9198C150.929 82.5718 153.459 62.5343 155.037 57.1606C155.105 56.9384 155.118 56.6967 155.073 56.4873C155.029 56.2779 154.93 56.1176 154.799 56.0407C154.733 56.0062 154.661 55.9943 154.588 56.0057C154.515 56.017 154.441 56.0515 154.372 56.1069C154.303 56.1624 154.239 56.2377 154.185 56.3283C154.132 56.4189 154.088 56.523 154.059 56.6342C152.414 62.2028 149.766 82.9785 153.54 96.7894C153.615 96.9706 153.734 97.0925 153.875 97.1326Z" fill="#455A64"/>
<path d="M102.937 82.3632C111.406 80.2118 119.669 75.8214 127.134 69.5071C133.078 53.2268 134.806 46.1327 134.656 33.2645C134.478 30.1765 133.723 27.2866 132.448 24.811C131.924 23.9313 131.122 23.373 130.196 23.242C129.27 23.1109 128.284 23.4164 127.425 24.1004C126.282 25.4731 125.518 27.2367 125.274 29.0692L121.652 45.2735C122.114 39.2235 121.319 33.3654 119.343 28.2544C118.606 26.3709 117.285 24.3388 115.493 25.0381C113.701 25.7374 112.728 29.2665 112.749 31.8718C112.738 38.6366 113.641 45.1849 115.422 51.254C111.241 46.9272 106.426 43.5524 101.154 41.253C100.659 40.9306 100.092 40.7676 99.4963 40.777C98.9011 40.7863 98.2943 40.9677 97.7239 41.3069C95.9011 42.8358 96.6387 46.1011 97.7563 47.9786C100.319 52.3329 103.644 55.8768 107.538 58.4054C101.635 56.637 95.2725 56.629 88.9304 58.3821C88.4354 58.451 87.9412 58.6404 87.4771 58.9392C87.013 59.238 86.5881 59.6403 86.2275 60.1223C84.9769 62.1949 86.5395 64.6181 88.1647 65.6585C92.5353 68.3778 97.5082 69.7304 102.71 69.6147C99.412 70.7325 91.6152 74.3294 91.4544 77.6877C91.2937 81.0461 97.4393 83.871 102.937 82.3632Z" fill="#BA68C8"/>
<path opacity="0.15" d="M102.937 82.3632C111.406 80.2118 119.669 75.8214 127.134 69.5071C133.078 53.2268 134.806 46.1327 134.656 33.2645C134.478 30.1765 133.723 27.2866 132.448 24.811C131.924 23.9313 131.122 23.373 130.196 23.242C129.27 23.1109 128.284 23.4164 127.425 24.1004C126.282 25.4731 125.518 27.2367 125.274 29.0692L121.652 45.2735C122.114 39.2235 121.319 33.3654 119.343 28.2544C118.606 26.3709 117.285 24.3388 115.493 25.0381C113.701 25.7374 112.728 29.2665 112.749 31.8718C112.738 38.6366 113.641 45.1849 115.422 51.254C111.241 46.9272 106.426 43.5524 101.154 41.253C100.659 40.9306 100.092 40.7676 99.4963 40.777C98.9011 40.7863 98.2943 40.9677 97.7239 41.3069C95.9011 42.8358 96.6387 46.1011 97.7563 47.9786C100.319 52.3329 103.644 55.8768 107.538 58.4054C101.635 56.637 95.2725 56.629 88.9304 58.3821C88.4354 58.451 87.9412 58.6404 87.4771 58.9392C87.013 59.238 86.5881 59.6403 86.2275 60.1223C84.9769 62.1949 86.5395 64.6181 88.1647 65.6585C92.5353 68.3778 97.5082 69.7304 102.71 69.6147C99.412 70.7325 91.6152 74.3294 91.4544 77.6877C91.2937 81.0461 97.4393 83.871 102.937 82.3632Z" fill="black"/>
<path d="M326.082 156.761C338.172 149.974 347.853 140.068 353.705 128.495C358.576 119.394 361.617 109.713 362.676 99.9316C362.866 98.0888 362.926 96.2473 362.856 94.4183C362.69 93.311 362.667 92.179 362.789 91.0444C362.78 90.5808 363.838 90.0161 364.28 90.4387C366.344 92.4881 365.902 96.4263 365.696 99.1294C365.304 103.77 364.429 108.406 363.08 112.976C360.211 124.011 354.31 134.453 345.934 143.32C340.304 148.942 333.669 153.689 326.353 157.328C326.036 157.358 326.056 156.918 326.343 156.787L326.082 156.761Z" fill="#455A64"/>
<path d="M349.135 141.907C353.662 152.657 354.301 164.741 350.965 176.479C345.508 196.65 337.356 205.816 328.32 206.694C325.856 207.028 323.408 206.654 321.316 205.623C319.223 204.592 317.59 202.955 316.643 200.94C316.643 200.94 307.168 205.215 303.245 201.679C299.322 198.142 300.736 188.734 300.736 188.734C300.736 188.734 295.187 190.784 292.938 190.055C290.689 189.326 285.79 172.645 294.013 162.806C302.237 152.968 329.963 137.214 349.135 141.907Z" fill="#BA68C8"/>
<path opacity="0.25" d="M349.135 141.907C353.662 152.657 354.301 164.741 350.965 176.479C345.508 196.65 337.356 205.816 328.32 206.694C325.856 207.028 323.408 206.654 321.316 205.623C319.223 204.592 317.59 202.955 316.643 200.94C316.643 200.94 307.168 205.215 303.245 201.679C299.322 198.142 300.736 188.734 300.736 188.734C300.736 188.734 295.187 190.784 292.938 190.055C290.689 189.326 285.79 172.645 294.013 162.806C302.237 152.968 329.963 137.214 349.135 141.907Z" fill="black"/>
<path d="M344.548 140.425C333.46 138.697 321.857 139.494 310.692 142.752C291.356 148.167 284.706 153.99 283.631 162.979C282.555 171.967 289.238 173.694 296.996 166.432C296.996 166.432 297.652 171.185 300.777 172.032C302.386 172.335 304.082 172.277 305.73 171.862C307.379 171.447 308.935 170.687 310.275 169.642C311.574 168.259 324.586 145.6 344.548 140.425Z" fill="#BA68C8"/>
<path opacity="0.15" d="M344.548 140.425C333.46 138.697 321.857 139.494 310.692 142.752C291.356 148.167 284.706 153.99 283.631 162.979C282.555 171.967 289.238 173.694 296.996 166.432C296.996 166.432 297.652 171.185 300.777 172.032C302.386 172.335 304.082 172.277 305.73 171.862C307.379 171.447 308.935 170.687 310.275 169.642C311.574 168.259 324.586 145.6 344.548 140.425Z" fill="black"/>
<path d="M349.987 148.512C355.716 155.253 359.626 163.146 361.448 171.652C363.548 184.377 361.022 195.366 352.782 192.702C352.782 192.702 352.655 198.011 347.887 199.312C343.118 200.612 332.664 191.152 332.884 180.303C333.103 169.453 349.987 148.512 349.987 148.512Z" fill="#BA68C8"/>
<path opacity="0.15" d="M349.987 148.512C355.716 155.253 359.626 163.146 361.448 171.652C363.548 184.377 361.022 195.366 352.782 192.702C352.782 192.702 352.655 198.011 347.887 199.312C343.118 200.612 332.664 191.152 332.884 180.303C333.103 169.453 349.987 148.512 349.987 148.512Z" fill="black"/>
<path d="M345.802 140.632C334.71 140.626 320.194 148.548 313.308 155.014C305.013 162.849 300.489 175.092 304.177 182.41C307.864 189.727 317.825 190.92 317.825 190.92C317.825 190.92 319.87 197.781 329.925 196.526C336.834 195.679 345.165 180.835 348.921 168.203C352.676 155.572 350.228 145.337 345.802 140.632Z" fill="#BA68C8"/>
<path d="M353.431 135.019C350.239 136.221 346.724 136.236 337.955 135.901C329.186 135.566 321.339 136.031 320.665 141.13C319.991 146.229 334.44 143.287 334.44 143.287C334.44 143.287 326.814 152.677 331.081 156.097C336.659 160.634 345.17 148.615 345.17 148.615C345.17 148.615 345.718 160.305 350.876 160.002C356.035 159.7 357.033 154.314 355.329 148.381C353.625 142.448 352.166 137.913 353.431 135.019Z" fill="#455A64"/>
<rect x="96.6019" y="321.433" width="164" height="120" rx="7.5" transform="rotate(-13.3368 96.6019 321.433)" stroke="black"/>
<rect x="166.95" y="340.726" width="18" height="50" transform="rotate(-13.3368 166.95 340.726)" stroke="black"/>
<rect x="191.276" y="334.959" width="18" height="50" transform="rotate(-13.3368 191.276 334.959)" stroke="black"/>
</svg>
