<svg width="295" height="560" viewBox="0 0 295 560" fill="none" xmlns="http://www.w3.org/2000/svg">
<path d="M14.2846 176.679C15.202 177.847 15.7532 179.254 15.8689 180.721C15.9845 182.188 15.6593 183.65 14.9343 184.922C14.2093 186.194 13.1171 187.218 11.7954 187.867C10.4738 188.515 8.98206 188.758 7.50859 188.565C6.03512 188.372 4.64597 187.751 3.51655 186.781C2.38712 185.812 1.56806 184.536 1.16279 183.116C0.757514 181.696 0.784201 180.195 1.23947 178.803C1.69474 177.411 2.55818 176.19 3.72077 175.294C4.49286 174.691 5.38042 174.249 6.33181 173.993C7.2832 173.736 8.27943 173.67 9.2625 173.799C10.2456 173.928 11.1958 174.249 12.058 174.743C12.9202 175.238 13.6771 175.896 14.2846 176.679Z" fill="#B16668"/>
<path d="M30.8705 210.025C31.7879 211.194 32.3392 212.6 32.4548 214.067C32.5705 215.534 32.2452 216.996 31.5202 218.268C30.7952 219.54 29.703 220.564 28.3814 221.213C27.0597 221.861 25.568 222.104 24.0945 221.911C22.6211 221.718 21.2319 221.097 20.1025 220.127C18.9731 219.158 18.154 217.882 17.7487 216.462C17.3435 215.042 17.3701 213.541 17.8254 212.149C18.2807 210.757 19.1441 209.536 20.3067 208.64C21.0788 208.037 21.9664 207.595 22.9178 207.338C23.8691 207.082 24.8654 207.016 25.8484 207.145C26.8315 207.274 27.7818 207.595 28.644 208.089C29.5061 208.584 30.263 209.242 30.8705 210.025Z" fill="#B16668"/>
<path d="M41.8841 174.032C42.678 175.002 43.1642 176.18 43.28 177.416C43.3958 178.652 43.1359 179.888 42.5339 180.966C41.9319 182.043 41.0153 182.913 39.9022 183.462C38.7891 184.011 37.5305 184.215 36.2887 184.047C35.0469 183.88 33.8786 183.348 32.9346 182.521C31.9905 181.694 31.3139 180.609 30.9918 179.407C30.6698 178.204 30.7171 176.939 31.1277 175.775C31.5383 174.61 32.2933 173.599 33.2955 172.872C34.5864 171.936 36.1993 171.534 37.7989 171.75C39.3984 171.966 40.8616 172.783 41.8841 174.032Z" fill="#B16668"/>
<path d="M65.5993 185.541C66.3792 186.506 66.8538 187.676 66.9624 188.9C67.0709 190.125 66.8085 191.348 66.2087 192.413C65.6089 193.478 64.699 194.337 63.5957 194.879C62.4924 195.421 61.2459 195.622 60.0161 195.456C58.7862 195.29 57.6289 194.764 56.6926 193.946C55.7563 193.129 55.0836 192.057 54.7607 190.867C54.4378 189.677 54.4794 188.424 54.8803 187.268C55.2811 186.113 56.0229 185.107 57.0105 184.381C58.2936 183.423 59.912 183.009 61.518 183.225C63.124 183.442 64.5894 184.274 65.5993 185.541Z" fill="#B16668"/>
<path d="M72.5776 161.668C73.3715 162.637 73.8576 163.816 73.9734 165.052C74.0892 166.287 73.8294 167.524 73.2273 168.601C72.6253 169.679 71.7087 170.548 70.5956 171.098C69.4825 171.647 68.2239 171.851 66.982 171.683C65.7402 171.515 64.5719 170.984 63.6278 170.157C62.6838 169.329 62.0071 168.245 61.6851 167.042C61.363 165.84 61.4104 164.575 61.821 163.41C62.2316 162.246 62.9866 161.235 63.9888 160.508C65.2759 159.561 66.8915 159.152 68.4943 159.369C70.097 159.585 71.5613 160.41 72.5776 161.668Z" fill="#B16668"/>
<path d="M272.635 191.335C272.885 191.411 273.155 191.389 273.392 191.275C273.629 191.161 273.816 190.962 273.917 190.717C292.309 144.753 275.903 92.7129 232.133 58.1825C231.91 58.0137 231.632 57.9375 231.354 57.9698C231.076 58.0021 230.82 58.1402 230.638 58.356C230.473 58.5873 230.401 58.8733 230.438 59.1546C230.476 59.4359 230.619 59.6909 230.838 59.8667C273.859 93.822 289.976 144.856 271.963 189.913C271.858 190.181 271.862 190.48 271.971 190.744C272.081 191.008 272.289 191.218 272.551 191.328L272.635 191.335Z" fill="#455A64"/>
<path d="M226.5 93.0271C227.058 93.1162 227.622 93.1635 228.187 93.1686C232.1 93.3854 236.029 93.0202 239.847 92.0849C247.102 90.0286 254.793 90.328 261.827 92.9403C261.99 92.9963 262.166 93.0053 262.335 92.9664C262.503 92.9274 262.658 92.842 262.783 92.7197C262.89 92.5819 262.956 92.4158 262.972 92.2417C262.988 92.0676 262.953 91.893 262.872 91.7394C258.076 82.3614 242.266 67.9368 227.948 72.534C218.84 75.4637 218.356 81.2209 218.437 83.5898C218.701 85.7993 219.608 87.8743 221.043 89.5537C222.478 91.233 224.376 92.4415 226.5 93.0271ZM259.185 90.2278C252.738 88.7042 246.006 88.7882 239.569 90.4725C235.905 91.3741 232.135 91.7379 228.378 91.5526C226.328 91.3021 224.424 90.3763 222.959 88.9182C221.495 87.4602 220.551 85.5511 220.274 83.4862C219.927 79.3771 222.915 75.9772 228.479 74.1675C241.611 69.9863 255.15 82.7602 260.216 90.5719L259.185 90.2278Z" fill="#455A64"/>
<path d="M261.932 93.1399C262.037 93.2091 262.157 93.2509 262.283 93.2614C262.408 93.2719 262.534 93.2509 262.65 93.2003C262.819 93.0532 262.925 92.8454 262.946 92.6213C262.966 92.3972 262.899 92.1748 262.759 92.0018C256.805 84.0394 239.856 78.6459 229.144 81.368C228.926 81.419 228.735 81.5553 228.614 81.7471C228.493 81.9389 228.451 82.1707 228.498 82.392C228.555 82.6168 228.696 82.8098 228.891 82.9307C229.086 83.0516 229.32 83.091 229.545 83.0407C240.606 80.2185 256.311 86.1975 261.387 93.051C261.557 93.1311 261.745 93.1618 261.932 93.1399Z" fill="#455A64"/>
<path d="M256.722 86.4598C256.96 86.5612 257.224 86.5834 257.476 86.5231C257.675 86.3824 257.821 86.1771 257.889 85.9418C257.956 85.7064 257.942 85.4555 257.847 85.2313C254.983 79.6137 261.039 64.1606 265.786 55.17C267.264 52.5333 268.12 49.5918 268.285 46.5769C268.451 43.562 267.922 40.5559 266.74 37.7952C265.818 36.0519 264.472 34.5764 262.828 33.5058C261.184 32.4353 259.295 31.8043 257.336 31.6717C255.398 31.4916 253.446 31.8989 251.728 32.8417C250.011 33.7845 248.605 35.2201 247.691 36.9654C242.121 46.1858 243.223 66.4644 256.197 86.2024C256.335 86.3493 256.521 86.4407 256.722 86.4598ZM259.287 33.8839C260.534 34.2086 261.694 34.801 262.69 35.6209C263.686 36.4408 264.494 37.4689 265.059 38.6357C266.112 41.1163 266.577 43.8157 266.418 46.5206C266.259 49.2255 265.48 51.8618 264.142 54.2212C263.729 55.0401 255.403 70.8575 255.198 80.9547C245.071 63.3333 244.425 45.9097 249.305 37.7836C250.039 36.3548 251.176 35.1753 252.571 34.3954C253.965 33.6155 255.554 33.2706 257.135 33.4047C257.87 33.4761 258.592 33.637 259.287 33.8839Z" fill="#455A64"/>
<path d="M256.735 86.4334C256.942 86.5325 257.178 86.5524 257.4 86.4895C257.625 86.3756 257.797 86.1779 257.881 85.9383C257.966 85.6988 257.955 85.4361 257.852 85.206C250.861 69.866 253.964 48.1298 256.324 42.4456C256.426 42.2111 256.434 41.946 256.346 41.7074C256.258 41.4688 256.081 41.2758 255.853 41.1696C255.739 41.1208 255.616 41.0961 255.492 41.0968C255.368 41.0975 255.246 41.1238 255.131 41.1739C255.017 41.224 254.914 41.297 254.828 41.3884C254.742 41.4799 254.675 41.5879 254.63 41.706C252.168 47.5947 248.909 70.1278 256.146 86C256.284 86.2124 256.493 86.3663 256.735 86.4334Z" fill="#455A64"/>
<path d="M195.236 66.234C206.351 64.978 217.076 61.2601 226.639 55.3471C233.662 38.3982 235.578 30.9023 234.699 16.8847C234.3 13.5028 233.147 10.2625 231.326 7.4062C230.584 6.38208 229.491 5.67201 228.257 5.41091C227.022 5.14981 225.73 5.35586 224.628 5.98993C223.185 7.33681 222.265 9.15757 222.038 11.1197L218.092 28.2833C218.385 21.7611 217.022 15.2869 214.131 9.47389C213.055 7.33071 211.195 4.95079 208.857 5.48212C206.518 6.01345 205.415 9.72784 205.579 12.5646C205.922 19.9221 207.466 27.1612 210.147 33.9914C204.375 28.7492 197.813 24.4615 190.701 21.285C190.028 20.8708 189.267 20.6209 188.478 20.5549C187.689 20.4888 186.894 20.6085 186.156 20.9044C183.82 22.3342 184.97 25.9807 186.551 28.1661C190.179 33.2311 194.774 37.5119 200.071 40.7612C192.151 38.0817 183.714 37.2583 175.398 38.3533C174.745 38.3648 174.1 38.5075 173.5 38.7732C172.901 39.0388 172.359 39.4219 171.906 39.9001C170.357 41.9946 172.557 44.8307 174.767 46.1706C180.705 49.6883 187.37 51.7965 194.261 52.3367C189.948 53.1304 179.8 56.0448 179.764 59.6775C179.728 63.3102 188.026 67.1701 195.236 66.234Z" fill="#82655D"/>
<path opacity="0.15" d="M195.236 66.234C206.351 64.978 217.076 61.2601 226.639 55.3471C233.662 38.3982 235.578 30.9023 234.699 16.8847C234.3 13.5028 233.147 10.2625 231.326 7.4062C230.584 6.38208 229.491 5.67201 228.257 5.41091C227.022 5.14981 225.73 5.35586 224.628 5.98993C223.185 7.33681 222.265 9.15757 222.038 11.1197L218.092 28.2833C218.385 21.7611 217.022 15.2869 214.131 9.47389C213.055 7.33071 211.195 4.95079 208.857 5.48212C206.518 6.01345 205.415 9.72784 205.579 12.5646C205.922 19.9221 207.466 27.1612 210.147 33.9914C204.375 28.7492 197.813 24.4615 190.701 21.285C190.028 20.8708 189.267 20.6209 188.478 20.5549C187.689 20.4888 186.894 20.6085 186.156 20.9044C183.82 22.3342 184.97 25.9807 186.551 28.1661C190.179 33.2311 194.774 37.5119 200.071 40.7612C192.151 38.0817 183.714 37.2583 175.398 38.3533C174.745 38.3648 174.1 38.5075 173.5 38.7732C172.901 39.0388 172.359 39.4219 171.906 39.9001C170.357 41.9946 172.557 44.8307 174.767 46.1706C180.705 49.6883 187.37 51.7965 194.261 52.3367C189.948 53.1304 179.8 56.0448 179.764 59.6775C179.728 63.3102 188.026 67.1701 195.236 66.234Z" fill="black"/>
<path d="M210.52 460.566C229.379 453.53 244.722 440.912 254.297 424.563C262.238 411.786 267.411 397.563 269.557 382.601C269.947 379.779 270.138 376.921 270.128 374.044C269.933 372.265 269.96 370.491 270.207 368.755C270.218 368.028 271.867 367.458 272.521 368.248C275.568 372.057 274.681 378.077 274.219 382.237C273.371 389.37 271.783 396.351 269.474 403.09C264.491 419.477 254.902 434.046 241.613 445.425C232.696 452.547 222.292 458.004 210.904 461.532C210.417 461.486 210.472 460.804 210.917 460.685L210.52 460.566Z" fill="#455A64"/>
<path d="M240.58 453.842C247.211 471.517 247.615 490.061 241.737 506.893C232.075 535.902 218.695 547.393 204.333 546.034C200.413 545.808 196.553 544.51 193.289 542.32C190.025 540.131 187.52 537.159 186.121 533.816C186.121 533.816 170.893 537.486 164.855 530.946C158.817 524.405 161.532 510.539 161.532 510.539C161.532 510.539 152.635 511.999 149.108 510.222C145.581 508.445 138.659 481.651 152.185 469.159C165.711 456.667 210.437 441.002 240.58 453.842Z" fill="#AE7864"/>
<path opacity="0.25" d="M240.58 453.842C247.211 471.517 247.615 490.061 241.737 506.893C232.075 535.902 218.695 547.393 204.333 546.034C200.413 545.808 196.553 544.51 193.289 542.32C190.025 540.131 187.52 537.159 186.121 533.816C186.121 533.816 170.893 537.486 164.855 530.946C158.817 524.405 161.532 510.539 161.532 510.539C161.532 510.539 152.635 511.999 149.108 510.222C145.581 508.445 138.659 481.651 152.185 469.159C165.711 456.667 210.437 441.002 240.58 453.842Z" fill="black"/>
<path d="M235.951 450.205C217.978 444.619 199.047 442.446 180.712 443.864C148.971 446.001 137.869 452.319 135.694 464.681C133.518 477.044 144.318 481.376 157.293 473.345C157.293 473.345 158.138 480.231 163.186 482.312C165.792 483.197 168.556 483.597 171.26 483.481C173.964 483.365 176.533 482.736 178.765 481.643C180.945 480.064 203.202 451.827 235.951 450.205Z" fill="#AE7864"/>
<path opacity="0.15" d="M235.951 450.205C217.978 444.619 199.047 442.446 180.712 443.864C148.971 446.001 137.869 452.319 135.694 464.681C133.518 477.044 144.318 481.376 157.293 473.345C157.293 473.345 158.138 480.231 163.186 482.312C165.792 483.197 168.556 483.597 171.26 483.481C173.964 483.365 176.533 482.736 178.765 481.643C180.945 480.064 203.202 451.827 235.951 450.205Z" fill="black"/>
<path d="M243.253 458.586C251.535 470.848 257.007 484.388 259.293 498.281C261.767 518.881 257.35 535.402 245.052 528.81C245.052 528.81 244.571 537.113 237.298 537.762C230.026 538.411 214.758 520.497 215.683 503.521C216.608 486.544 243.253 458.586 243.253 458.586Z" fill="#AE7864"/>
<path opacity="0.15" d="M243.253 458.586C251.535 470.848 257.007 484.388 259.293 498.281C261.767 518.881 257.35 535.402 245.052 528.81C245.052 528.81 244.571 537.113 237.298 537.762C230.026 538.411 214.758 520.497 215.683 503.521C216.608 486.544 243.253 458.586 243.253 458.586Z" fill="black"/>
<path d="M236.031 448.974C218.583 445.66 195.343 453.466 184.18 461.315C170.729 470.84 162.988 488.24 168.414 500.544C173.84 512.847 189.448 517.642 189.448 517.642C189.448 517.642 192.315 528.757 208.196 529.832C219.108 530.593 232.971 510.344 239.526 492.122C246.08 473.899 242.752 457.498 236.031 448.974Z" fill="#AE7864"/>
<path d="M251.6 439.02C246.408 439.857 240.752 438.842 226.663 435.761C212.574 432.68 199.929 431.053 198.597 438.392C197.265 445.732 220.65 445.643 220.65 445.643C220.65 445.643 207.927 457.277 214.623 463.592C223.376 471.944 237.65 456.685 237.65 456.685C237.65 456.685 237.964 474.129 246.276 475.203C254.589 476.277 256.456 468.61 254.004 459.335C251.551 450.06 249.426 442.927 251.6 439.02Z" fill="#455A64"/>
<g clip-path="url(#clip0_286_1577)">
<path d="M253.95 323.135C282.35 278.866 269.5 219.934 225.249 191.506C180.999 163.079 122.105 175.92 93.7063 220.189C65.3072 264.457 78.157 323.39 122.407 351.817C166.657 380.245 225.551 367.404 253.95 323.135Z" stroke="#1D1D1B" stroke-width="1.92" stroke-miterlimit="10"/>
<path d="M178.274 180.686C177.385 180.944 163.957 184.948 164.065 189.981C164.122 192.508 169.795 192.885 168.842 195.912C165.958 204.976 146.431 215.13 151.847 220.34C155.309 223.695 214.143 194.685 214.402 215.006C214.685 238.593 158.707 217.187 148.921 242.819C145.117 252.794 147.994 266.778 155.494 271.189C166.27 277.511 181.197 260.958 191.074 267.692C195.62 270.789 201.699 274.8 200.569 293.488C199.752 306.9 206.439 312.22 211.361 312.804C223.061 314.191 227.989 299.904 229.707 285.198C231.889 266.603 242.865 258.852 239.211 252.548C231.418 239.098 218.627 238.229 218.527 232.053C218.455 227.184 238.317 245.986 246.935 218.736C250.7 206.812 206.326 172.546 178.315 180.677L178.274 180.686Z" stroke="#1D1D1B" stroke-width="1.92" stroke-miterlimit="10"/>
<path d="M81.3409 285.959C83.6793 280.608 96.0126 289.732 104.801 299.565C111.174 306.697 119.641 298.782 122.35 302.431C125.55 306.747 122.413 313.37 118.304 324.703C115.307 332.952 127.348 345.669 122.658 348.715C114.218 354.192 75.0637 300.368 81.3615 285.955L81.3409 285.959Z" stroke="#1D1D1B" stroke-width="1.92" stroke-miterlimit="10"/>
</g>
<defs>
<clipPath id="clip0_286_1577">
<rect width="194.561" height="194.561" fill="white" transform="translate(58 197.357) rotate(-12.3005)"/>
</clipPath>
</defs>
</svg>
