<svg width="317" height="628" viewBox="0 0 317 628" fill="none" xmlns="http://www.w3.org/2000/svg">
<path d="M121.567 173.506C121.836 170.054 121.088 166.614 119.417 163.62C117.746 160.625 115.227 158.21 112.178 156.681C109.129 155.151 105.687 154.575 102.287 155.025C98.8863 155.474 95.6795 156.93 93.0716 159.208C90.4637 161.486 88.5717 164.485 87.6342 167.824C86.6966 171.164 86.7558 174.695 87.8041 177.972C88.8524 181.25 90.8429 184.126 93.5243 186.237C96.2057 188.349 99.4577 189.602 102.87 189.838C105.145 190.009 107.438 189.72 109.614 188.988C111.791 188.257 113.808 187.098 115.547 185.578C117.287 184.058 118.716 182.208 119.749 180.135C120.782 178.063 121.4 175.809 121.567 173.506Z" fill="#B16668"/>
<path d="M110.654 87.4126C110.924 83.9611 110.176 80.521 108.505 77.5265C106.834 74.532 104.315 72.1176 101.266 70.5879C98.2173 69.0581 94.7752 68.4817 91.3746 68.9315C87.974 69.3814 84.7674 70.8374 82.1595 73.1155C79.5516 75.3935 77.6594 78.3916 76.7219 81.7312C75.7844 85.0708 75.8435 88.6021 76.8918 91.8793C77.9402 95.1565 79.9308 98.0327 82.6122 100.145C85.2936 102.256 88.5456 103.509 91.9577 103.745C94.233 103.916 96.5255 103.627 98.702 102.896C100.879 102.164 102.895 101.005 104.635 99.4849C106.375 97.9651 107.804 96.1151 108.837 94.0426C109.87 91.97 110.488 89.7162 110.654 87.4126Z" fill="#B16668"/>
<path d="M178.508 142.985C178.795 140.08 178.216 137.166 176.844 134.62C175.472 132.074 173.371 130.012 170.812 128.7C168.252 127.388 165.351 126.886 162.483 127.259C159.615 127.631 156.911 128.862 154.719 130.791C152.528 132.721 150.949 135.261 150.187 138.084C149.424 140.908 149.513 143.885 150.442 146.633C151.371 149.381 153.097 151.773 155.397 153.501C157.698 155.229 160.468 156.215 163.351 156.33C167.064 156.478 170.711 155.174 173.534 152.689C176.357 150.204 178.138 146.728 178.508 142.985Z" fill="#B16668"/>
<path d="M209.631 90.0317C209.896 87.1525 209.305 84.2708 207.934 81.7562C206.563 79.2417 204.474 77.2087 201.935 75.9178C199.396 74.627 196.522 74.1372 193.682 74.5111C190.843 74.885 188.166 76.1056 185.995 78.0165C183.825 79.9274 182.259 82.4415 181.5 85.2366C180.74 88.0316 180.821 90.9802 181.732 93.7046C182.643 96.429 184.342 98.8051 186.612 100.528C188.882 102.251 191.619 103.243 194.473 103.376C198.198 103.575 201.873 102.289 204.707 99.7939C207.541 97.2987 209.309 93.7935 209.631 90.0317Z" fill="#B16668"/>
<path d="M254.003 127.314C254.29 124.408 253.711 121.494 252.339 118.948C250.967 116.402 248.866 114.34 246.307 113.028C243.747 111.716 240.846 111.214 237.978 111.587C235.11 111.96 232.406 113.19 230.214 115.12C228.023 117.049 226.444 119.589 225.681 122.413C224.919 125.236 225.008 128.213 225.937 130.961C226.865 133.709 228.591 136.101 230.892 137.829C233.193 139.558 235.963 140.543 238.846 140.658C242.565 140.832 246.226 139.536 249.054 137.046C251.883 134.556 253.657 131.066 254.003 127.314Z" fill="#B16668"/>
<path d="M84.9973 460.177C81.8842 443.936 68.5777 439.545 59.4809 433.571C50.384 427.596 40.7902 421.923 33.763 413.198C35.4577 419.756 37.414 426.333 40.564 432.447C43.7139 438.561 48.1882 444.222 53.8018 447.759C63.617 453.899 75.7156 452.975 84.9747 460.174" fill="#6F564F"/>
<path d="M41.7158 455.972C47.6349 457.669 53.6054 458.854 59.5651 459.517C70.9857 461.119 83.5573 463.319 93.3921 470.923C89.0969 474.931 79.995 476.054 73.8163 475.092C67.6375 474.13 61.5708 471.394 55.6172 468.712C49.9029 466.326 44.3198 463.456 38.928 460.133C33.5158 456.782 28.7983 452.144 25.2156 446.653C30.0979 451.058 35.7673 454.26 41.7158 455.972Z" fill="#6F564F"/>
<path d="M93.2726 435.341C92.6713 427.802 93.503 420.437 95.7177 413.688C97.9324 406.939 101.484 400.945 106.16 396.067C101.925 403.742 106.811 415.256 107.279 424.765C108.061 440.931 104.604 456.171 98.3521 469.844C98.5775 458.46 94.2442 446.83 93.2726 435.341Z" fill="#6F564F"/>
<path d="M131.939 394.19C133.973 412.428 135.922 431.432 130.013 447.454C125.374 460.019 114.26 468.315 109.054 480.561L108.23 479.655C109.756 448.19 116.471 419.12 131.939 394.19Z" fill="#6F564F"/>
<path d="M58.1069 484.529C71.4841 479.439 86.1016 476.634 101.07 478.682L103.784 481.638C95.7023 490.054 84.8503 499.79 73.7735 503.376C57.209 508.728 37.7224 501.935 20.2013 504.287C32.4756 496.989 44.7543 489.649 58.1069 484.529Z" fill="#6F564F"/>
<path d="M76.9944 508.731C88.3395 500.135 101.941 493.677 116.384 491.805L118.272 495.25C112.599 505.788 105.368 517.038 95.8354 523.516C81.5771 533.196 61.8802 531.474 46.053 538.395C55.8295 527.876 65.654 517.312 76.9944 508.731Z" fill="#6F564F"/>
<path d="M125.105 495.798C133.815 485.222 142.435 474.495 149.383 462.445C156.331 450.396 161.578 436.887 163.064 422.186C141.926 440.074 128.483 466.205 125.042 496.095" fill="#6F564F"/>
<path d="M143.104 515.443C136.863 525.496 129.332 537.063 119.509 543.012C103.98 552.463 84.233 552.581 65.3007 552.484C83.9713 545.75 95.8939 526.963 114.304 519.571C123.366 515.937 131.96 515.12 141.992 514.488" fill="#6F564F"/>
<path d="M46.1313 423.274C46.1313 423.274 46.2875 423.432 46.6044 423.732L48.027 424.995L53.5196 429.844C54.1116 430.376 54.7448 430.929 55.4103 431.53C56.1008 432.138 56.8486 432.661 57.6359 433.086C59.43 434.092 61.2604 434.998 63.1188 435.801C65.2496 436.663 67.3402 437.685 69.3734 438.859C71.6313 440.226 73.7813 441.825 75.7876 443.63C78.004 445.598 80.0429 447.792 81.8669 450.173C83.8448 452.631 85.8843 455.177 87.9854 457.812C90.0597 460.49 92.4148 463.084 94.7352 465.836L98.3071 469.989L102.097 474.131C113.185 486.298 124.97 497.717 137.362 508.301C149.765 518.882 162.726 528.623 176.149 537.452C187.134 544.603 198.399 551.143 209.891 557.04C214.83 559.446 219.259 561.759 223.24 563.459C227.221 565.16 230.602 566.826 233.441 567.904L239.936 570.507L241.629 571.17C242.003 571.315 242.199 571.372 242.199 571.372C242.199 571.372 242.016 571.274 241.633 571.108L239.962 570.4L233.489 567.705C230.668 566.595 227.287 564.953 223.323 563.173C219.359 561.394 214.931 559.105 210.006 556.682C198.555 550.751 187.327 544.198 176.372 537.052C162.98 528.214 150.045 518.48 137.658 507.921C125.284 497.357 113.508 485.967 102.421 473.837C101.133 472.449 99.8685 471.065 98.6267 469.709C97.3848 468.352 96.2286 466.926 95.0504 465.569C92.7483 462.835 90.3751 460.248 88.3008 457.57C86.2266 454.892 84.1317 452.403 82.1645 449.962C80.3079 447.563 78.237 445.353 75.9893 443.371C73.9418 441.581 71.7559 439.996 69.4664 438.642C67.4162 437.469 65.3089 436.45 63.1619 435.592C61.314 434.807 59.493 433.922 57.707 432.938C56.2391 432.016 54.8517 430.931 53.5726 429.703L48.0308 424.933L46.5814 423.705C46.3101 423.411 46.1313 423.274 46.1313 423.274Z" fill="#B16668"/>
<path d="M40.0491 500.162C40.2689 500.113 40.4769 500.029 40.6676 499.914L42.3882 499.045C43.8732 498.271 46.0399 497.183 48.7371 495.909C62.8048 489.205 77.8019 484.518 93.4141 481.946C96.4029 481.443 98.8318 481.137 100.531 480.879L102.476 480.603C102.707 480.588 102.93 480.54 103.141 480.459C102.904 480.436 102.669 480.438 102.44 480.467L100.478 480.627C98.7725 480.765 96.3139 481.055 93.2945 481.489C77.5729 483.832 62.5179 488.539 48.5193 495.49C45.8377 496.827 43.7063 497.97 42.2569 498.825L40.5971 499.806C40.3967 499.893 40.2124 500.013 40.0491 500.162Z" fill="#B16668"/>
<path d="M67.3543 528.914C67.5504 528.846 67.7329 528.747 67.897 528.622L69.3878 527.695C70.68 526.885 72.5234 525.675 74.797 524.152C79.3394 521.12 85.5442 516.83 92.3026 511.941C99.061 507.053 105.067 502.472 109.376 499.097C111.531 497.409 113.25 496.024 114.419 495.065L115.77 493.93C115.934 493.805 116.084 493.662 116.219 493.504C116.03 493.582 115.855 493.69 115.701 493.825L114.27 494.86L109.089 498.735C104.715 502.017 98.6694 506.535 91.9402 511.412C85.2109 516.289 79.0265 520.65 74.5486 523.775L69.2487 527.486L67.8275 528.517C67.6516 528.624 67.4926 528.757 67.3543 528.914Z" fill="#B16668"/>
<path d="M149.662 445.702C149.515 445.808 149.384 445.938 149.276 446.087L148.253 447.298C147.37 448.356 146.154 449.94 144.707 451.935C137.128 462.373 131.081 474.068 126.731 486.704C125.895 489.123 125.272 491.113 124.892 492.5L124.457 494.108C124.397 494.293 124.357 494.487 124.337 494.688C124.432 494.527 124.507 494.352 124.562 494.167L125.095 492.609C125.551 491.192 126.213 489.287 127.086 486.878C129.361 480.645 132.001 474.612 134.99 468.81C138.001 463.019 141.353 457.468 145.03 452.184C146.439 450.154 147.617 448.535 148.438 447.438L149.37 446.15C149.483 446.013 149.581 445.864 149.662 445.702Z" fill="#B16668"/>
<path d="M124.849 419.263C124.7 419.198 120.55 432.65 115.563 449.312C110.577 465.973 106.65 479.536 106.799 479.601C106.948 479.666 111.103 466.224 116.085 449.552C121.067 432.88 125.007 419.325 124.849 419.263Z" fill="#B16668"/>
<path d="M98.0488 422.771C97.989 423.377 97.9793 423.996 98.0198 424.62C98.0295 425.901 98.0529 427.61 98.0893 429.674C98.1364 433.932 98.1611 439.821 98.0394 446.294C97.9176 452.768 97.6359 458.607 97.4081 462.816L97.1351 467.811C97.0769 468.416 97.0627 469.032 97.0925 469.653C97.2146 469.067 97.2951 468.465 97.3335 467.854C97.4646 466.698 97.6168 465.005 97.7642 462.882C98.091 458.683 98.4178 452.85 98.5485 446.373C98.6792 439.896 98.6002 433.981 98.4494 429.703C98.3672 427.56 98.2895 425.825 98.2087 424.619C98.1962 424.006 98.1427 423.388 98.0488 422.771Z" fill="#B16668"/>
<path d="M58.8786 461.233C59.3099 461.451 59.7571 461.616 60.2103 461.723C61.0519 462.014 62.2736 462.408 63.7848 462.854C66.798 463.775 70.9935 464.956 75.6338 466.091C80.2741 467.227 84.49 468.112 87.542 468.68C89.0704 468.97 90.3042 469.172 91.1536 469.309C91.5972 469.4 92.0418 469.447 92.4814 469.45C92.0625 469.269 91.6315 469.14 91.1983 469.067L87.5942 468.26C84.5506 467.588 80.3529 466.646 75.7127 465.511C71.0724 464.376 66.9249 463.252 63.8656 462.448L60.2787 461.485C59.8141 461.354 59.3453 461.27 58.8786 461.233Z" fill="#B16668"/>
<path d="M97.9985 537.16C98.0751 537.335 108.403 532.364 121.063 526.079C133.722 519.794 143.913 514.561 143.827 514.39C143.74 514.218 133.422 519.185 120.758 525.486C108.094 531.786 97.8527 536.984 97.9985 537.16Z" fill="#B16668"/>
<path d="M143.011 510.583C152.746 505.297 163.997 498.806 170.423 489.557C180.56 474.863 182.654 454.982 184.504 435.966C176.505 454.088 158.262 464.228 149.707 482.002C145.489 490.766 143.884 499.327 142.304 509.347" fill="#6F564F"/>
<path d="M165.487 466.986C165.353 466.888 159.818 476.495 153.124 488.451C146.429 500.408 141.103 510.184 141.237 510.282C141.37 510.381 146.91 500.76 153.604 488.803C160.299 476.846 165.62 467.085 165.487 466.986Z" fill="#B16668"/>
<path d="M250.622 313.869L215.829 213.439L228.518 210.27C230.724 215.397 236.023 219.329 242.236 222.898C245.346 224.685 248.754 226.417 252.218 228.179C252.452 228.298 252.687 228.417 252.923 228.537C256.64 230.428 260.411 232.362 264.006 234.467C271.211 238.685 277.573 243.515 281.256 249.858C284.909 256.151 286.013 264.09 282.372 274.704C281.871 276.162 281.351 277.08 280.898 277.609C280.426 278.16 280.149 278.158 280.143 278.158C280.14 278.158 280.139 278.158 280.139 278.157L280.138 278.157C280.137 278.157 280.127 278.152 280.108 278.138C280.067 278.107 279.992 278.032 279.91 277.878C279.743 277.565 279.612 277.043 279.644 276.363L279.644 276.363C279.748 274.071 279.071 270.659 277.628 266.917C276.178 263.155 273.923 258.981 270.796 255.163C264.52 247.502 254.698 241.259 240.939 242.776L239.786 242.904L240.161 243.988L268.857 326.901L268.861 326.912L268.866 326.924C270.63 331.647 270.018 337.233 267.189 342.772C264.363 348.304 259.356 353.719 252.481 358.032L253.087 358.859L252.481 358.032C244.385 363.112 235.315 365.655 227.225 365.689C219.117 365.722 212.143 363.244 208.002 358.461C203.886 353.707 203.182 347.376 205.596 340.855C208.011 334.332 213.524 327.724 221.623 322.642C230.666 316.972 240.913 314.471 249.653 315.084L251.078 315.184L250.622 313.869Z" stroke="black" stroke-width="2"/>
</svg>
