<svg width="323" height="686" viewBox="0 0 323 686" fill="none" xmlns="http://www.w3.org/2000/svg">
<path d="M114.461 440.626C103.408 441.211 64.5543 437.236 66.3665 399.019C66.6326 399.092 66.9746 399.187 67.2407 399.261C93.8467 406.651 105.249 409.818 106.636 404.824C108.023 399.83 93.9601 395.924 71.9151 389.802C70.5087 389.411 69.1024 389.02 67.7341 388.64C68.1283 386.779 68.5817 384.852 69.1322 382.87C69.8839 380.163 70.7347 377.689 71.6678 375.362C72.9601 375.72 74.1004 376.037 75.0506 376.301C101.657 383.691 113.059 386.857 114.383 382.092C115.706 377.327 103.543 373.949 81.4983 367.827C79.6739 367.32 77.8495 366.813 76.0251 366.306C94.9203 335.421 131.14 354.924 137.791 356.772C141.592 357.827 143.933 353.673 144.492 349.599C144.838 347.026 144.105 344.359 142.228 342.565C124.498 325.774 77.6626 321.348 56.5074 361.255C46.2701 358.905 39.1003 358.186 38.3274 360.969C37.6604 363.371 44.5538 366.558 52.7843 369.501C51.7877 372.057 50.884 374.722 50.0899 377.581C49.5182 379.639 49.0331 381.681 48.6071 383.657C38.3698 381.306 31.4661 380.662 30.6191 383.711C29.8568 386.456 38.0319 390.04 47.1472 393.188C41.7019 446.698 94.0997 462.934 115.113 453.167C120.521 450.645 119.224 440.43 114.488 440.675L114.461 440.626Z" stroke="black" stroke-width="2" stroke-miterlimit="10"/>
<path d="M242.382 385.118C241.828 385.835 241.498 386.701 241.435 387.605C241.372 388.509 241.578 389.412 242.028 390.199C242.478 390.987 243.15 391.623 243.961 392.028C244.772 392.433 245.685 392.589 246.585 392.475C247.484 392.362 248.33 391.985 249.015 391.391C249.7 390.797 250.194 390.014 250.435 389.14C250.675 388.266 250.651 387.34 250.365 386.48C250.08 385.619 249.546 384.863 248.831 384.305C248.356 383.931 247.811 383.655 247.228 383.493C246.646 383.331 246.036 383.286 245.436 383.362C244.836 383.437 244.257 383.631 243.733 383.933C243.208 384.235 242.749 384.637 242.382 385.118Z" fill="#BA68C8"/>
<path d="M231.87 405.224C231.316 405.941 230.986 406.807 230.923 407.711C230.86 408.615 231.067 409.518 231.516 410.305C231.966 411.093 232.639 411.729 233.45 412.134C234.261 412.539 235.174 412.695 236.073 412.581C236.973 412.468 237.818 412.091 238.503 411.497C239.189 410.904 239.683 410.12 239.923 409.246C240.163 408.372 240.139 407.446 239.854 406.586C239.568 405.725 239.034 404.969 238.319 404.411C237.844 404.037 237.299 403.761 236.717 403.599C236.134 403.437 235.525 403.392 234.925 403.468C234.325 403.543 233.745 403.738 233.221 404.039C232.697 404.341 232.238 404.743 231.87 405.224Z" fill="#BA68C8"/>
<path d="M225.111 383.414C224.631 384.009 224.34 384.734 224.275 385.496C224.211 386.257 224.376 387.021 224.75 387.688C225.123 388.355 225.688 388.895 226.371 389.238C227.054 389.581 227.824 389.712 228.582 389.613C229.34 389.515 230.052 389.191 230.624 388.685C231.197 388.178 231.605 387.512 231.795 386.772C231.986 386.032 231.95 385.251 231.693 384.531C231.436 383.811 230.97 383.185 230.354 382.732C229.56 382.15 228.572 381.896 227.596 382.022C226.619 382.149 225.729 382.648 225.111 383.414Z" fill="#BA68C8"/>
<path d="M210.218 390.282C209.747 390.874 209.463 391.594 209.403 392.349C209.343 393.103 209.509 393.859 209.881 394.518C210.253 395.177 210.814 395.71 211.491 396.049C212.168 396.388 212.931 396.517 213.682 396.419C214.432 396.321 215.137 396.002 215.705 395.501C216.273 395.001 216.678 394.342 216.869 393.61C217.061 392.877 217.029 392.104 216.778 391.39C216.527 390.676 216.068 390.052 215.461 389.601C214.672 389.005 213.681 388.743 212.7 388.87C211.72 388.998 210.829 389.505 210.218 390.282Z" fill="#BA68C8"/>
<path d="M205.947 375.812C205.467 376.407 205.176 377.132 205.111 377.894C205.047 378.655 205.212 379.419 205.586 380.086C205.959 380.753 206.524 381.293 207.207 381.636C207.89 381.979 208.66 382.11 209.418 382.011C210.176 381.912 210.888 381.589 211.46 381.083C212.033 380.576 212.441 379.91 212.631 379.17C212.822 378.43 212.786 377.649 212.529 376.929C212.272 376.209 211.806 375.583 211.189 375.13C210.398 374.541 209.409 374.283 208.43 374.41C207.452 374.538 206.561 375.04 205.947 375.812Z" fill="#BA68C8"/>
<path d="M303.699 524.55C307.84 490.917 297.302 457.521 277.013 430.678C271.561 423.446 265.415 416.764 258.663 410.729C251.961 404.289 244.259 398.977 235.857 395.001C235.857 395.001 235.7 395.001 235.857 395.158C241.912 400.401 248.518 404.805 254.469 410.126C260.372 415.352 265.867 421.022 270.905 427.086C281.25 439.519 289.245 453.731 294.497 469.029C299.823 484.785 301.832 501.472 300.397 518.042C298.963 534.612 294.116 550.706 286.161 565.312C281.596 573.461 275.963 580.963 269.411 587.62C262.675 594.118 255.049 599.626 246.762 603.978C245.215 604.869 246.316 607.7 248.046 607.359C256.618 605.603 264.168 599.652 270.354 593.702C276.738 587.52 282.321 580.563 286.974 572.993C295.974 558.239 301.679 541.714 303.699 524.55Z" fill="#37474F"/>
<path d="M295.099 677.088C277.142 687.443 233.942 690.378 207.178 674.467C177.005 656.536 173.519 629.903 187.648 623.717C207.728 614.804 217.532 647.309 245.948 659.21C279.738 673.392 295.099 665.842 295.099 665.842V677.088Z" fill="#BA68C8"/>
<path opacity="0.2" d="M295.099 677.088C277.142 687.443 233.942 690.378 207.178 674.467C177.005 656.536 173.519 629.903 187.648 623.717C207.728 614.804 217.532 647.309 245.948 659.21C279.738 673.392 295.099 665.842 295.099 665.842V677.088Z" fill="white"/>
<path d="M266.391 677.638C231.553 677.638 200.175 655.357 191.655 635.46C191.53 635.154 191.529 634.811 191.651 634.503C191.773 634.195 192.009 633.947 192.31 633.809C192.46 633.744 192.621 633.71 192.784 633.708C192.947 633.706 193.109 633.736 193.26 633.797C193.411 633.858 193.549 633.949 193.665 634.063C193.781 634.178 193.873 634.314 193.936 634.464C204.107 658.214 248.487 684.271 288.961 671.767C289.277 671.668 289.62 671.697 289.914 671.849C290.209 672.002 290.432 672.264 290.534 672.579C290.625 672.899 290.588 673.242 290.432 673.535C290.275 673.828 290.011 674.049 289.695 674.152C282.146 676.478 274.29 677.653 266.391 677.638Z" fill="white"/>
<path d="M258.552 621.043C258.585 621.202 258.558 621.368 258.476 621.509C258.393 621.649 258.262 621.754 258.106 621.803C228.93 630.611 197.814 617.478 178.862 588.354C178.769 588.206 178.737 588.029 178.771 587.859C178.805 587.688 178.903 587.537 179.045 587.436C179.196 587.347 179.375 587.319 179.546 587.358C179.717 587.397 179.866 587.5 179.963 587.646C198.601 616.272 229.114 629.169 257.713 620.545C257.883 620.495 258.066 620.514 258.223 620.597C258.379 620.68 258.497 620.821 258.552 620.99V621.043Z" fill="#455A64"/>
<path d="M200.488 587.069C200.514 587.419 200.514 587.769 200.488 588.118C200.42 590.544 199.996 592.946 199.23 595.248C197.603 599.607 197.392 604.368 198.627 608.853C198.652 608.957 198.649 609.066 198.617 609.168C198.584 609.269 198.524 609.36 198.443 609.43C198.354 609.489 198.249 609.52 198.142 609.52C198.035 609.52 197.93 609.489 197.84 609.43C192.361 605.943 184.366 595.379 187.905 586.807C190.16 581.355 193.698 581.381 195.14 581.565C196.475 581.852 197.695 582.528 198.647 583.508C199.599 584.487 200.239 585.727 200.488 587.069ZM197.106 607.071C196.506 603.009 196.902 598.861 198.26 594.986C198.998 592.777 199.412 590.472 199.492 588.144C199.444 586.866 198.976 585.64 198.161 584.654C197.346 583.669 196.229 582.979 194.983 582.692C192.493 582.246 190.264 583.898 188.875 587.227C185.651 595.091 192.755 604.161 197.264 607.726L197.106 607.071Z" fill="#455A64"/>
<path d="M198.73 608.906C198.767 608.974 198.786 609.051 198.786 609.128C198.786 609.206 198.767 609.283 198.73 609.351C198.632 609.447 198.501 609.501 198.363 609.501C198.226 609.501 198.094 609.447 197.996 609.351C193.461 605.236 191.05 594.488 193.252 588.039C193.294 587.908 193.386 587.798 193.509 587.734C193.632 587.67 193.775 587.657 193.907 587.699C194.041 587.746 194.151 587.844 194.214 587.971C194.278 588.098 194.29 588.244 194.248 588.38C191.967 595.038 194.798 605.052 198.704 608.565C198.744 608.674 198.753 608.792 198.73 608.906Z" fill="#455A64"/>
<path d="M194.879 605.393C194.929 605.546 194.929 605.712 194.879 605.865C194.782 605.981 194.649 606.059 194.501 606.088C194.353 606.117 194.199 606.093 194.066 606.022C190.764 603.925 180.96 606.809 175.192 609.246C173.497 610.015 171.646 610.379 169.785 610.311C167.925 610.243 166.106 609.744 164.471 608.853C163.448 608.182 162.611 607.263 162.038 606.181C161.465 605.099 161.175 603.89 161.194 602.667C161.183 601.453 161.534 600.264 162.202 599.251C162.869 598.238 163.824 597.447 164.943 596.978C170.893 594.042 183.293 595.877 194.748 605.052C194.831 605.146 194.878 605.267 194.879 605.393ZM162.453 604.004C162.588 604.796 162.892 605.551 163.344 606.215C163.796 606.88 164.386 607.44 165.074 607.857C166.543 608.652 168.177 609.094 169.847 609.149C171.517 609.203 173.176 608.869 174.694 608.172C175.219 607.962 185.363 603.689 191.576 604.135C181.274 596.847 170.605 595.458 165.362 598.027C164.447 598.402 163.664 599.041 163.113 599.862C162.562 600.684 162.268 601.651 162.269 602.641C162.275 603.101 162.337 603.558 162.453 604.004Z" fill="#455A64"/>
<path d="M194.879 605.393C194.93 605.528 194.93 605.677 194.879 605.812C194.798 605.946 194.667 606.043 194.516 606.082C194.364 606.121 194.203 606.099 194.067 606.022C184.997 600.779 171.471 601.487 167.853 602.64C167.703 602.691 167.54 602.681 167.398 602.612C167.256 602.544 167.146 602.422 167.093 602.273C167.069 602.199 167.06 602.121 167.067 602.044C167.074 601.966 167.096 601.891 167.133 601.823C167.17 601.754 167.22 601.694 167.28 601.645C167.341 601.596 167.411 601.56 167.486 601.539C171.235 600.334 185.259 599.573 194.644 605C194.767 605.098 194.851 605.238 194.879 605.393Z" fill="#455A64"/>
<path d="M185.679 566.439C184.338 573.239 181.51 579.658 177.395 585.235C166.647 588.616 161.955 589.376 153.409 588.039C151.357 587.602 149.43 586.706 147.773 585.418C147.184 584.901 146.805 584.186 146.708 583.408C146.611 582.63 146.804 581.843 147.249 581.198C148.149 580.382 149.312 579.916 150.526 579.887L161.247 578.419C157.235 578.231 153.337 577.022 149.923 574.906C148.665 574.12 147.301 572.835 147.747 571.42C148.193 570.004 150.526 569.532 152.256 569.795C156.747 570.423 161.105 571.787 165.153 573.832C162.237 569.967 159.946 565.668 158.364 561.092C158.144 560.652 158.03 560.167 158.03 559.676C158.03 559.185 158.144 558.7 158.364 558.26C159.36 556.897 161.536 557.815 162.794 558.916C165.712 561.445 168.1 564.528 169.819 567.986C168.583 562.939 168.512 557.677 169.609 552.598C169.65 552.195 169.771 551.805 169.964 551.449C170.158 551.094 170.42 550.78 170.737 550.527C172.1 549.689 173.725 551.209 174.433 552.651C176.284 556.521 177.234 560.76 177.211 565.05C177.919 562.429 180.226 556.321 182.454 556.504C184.682 556.688 186.622 562.035 185.679 566.439Z" fill="#BA68C8"/>
<path opacity="0.15" d="M185.679 566.439C184.338 573.239 181.51 579.658 177.395 585.235C166.647 588.616 161.955 589.376 153.409 588.039C151.357 587.602 149.43 586.706 147.773 585.418C147.184 584.901 146.805 584.186 146.708 583.408C146.611 582.63 146.804 581.843 147.249 581.198C148.149 580.382 149.312 579.916 150.526 579.887L161.247 578.419C157.235 578.231 153.337 577.022 149.923 574.906C148.665 574.12 147.301 572.835 147.747 571.42C148.193 570.004 150.526 569.532 152.256 569.795C156.747 570.423 161.105 571.787 165.153 573.832C162.237 569.967 159.946 565.668 158.364 561.092C158.144 560.652 158.03 560.167 158.03 559.676C158.03 559.185 158.144 558.7 158.364 558.26C159.36 556.897 161.536 557.815 162.794 558.916C165.712 561.445 168.1 564.528 169.819 567.986C168.583 562.939 168.512 557.677 169.609 552.598C169.65 552.195 169.771 551.805 169.964 551.449C170.158 551.094 170.42 550.78 170.737 550.527C172.1 549.689 173.725 551.209 174.433 552.651C176.284 556.521 177.234 560.76 177.211 565.05C177.919 562.429 180.226 556.321 182.454 556.504C184.682 556.688 186.622 562.035 185.679 566.439Z" fill="black"/>
<path d="M224.295 499.332C235.38 505.062 244.338 514.194 249.853 525.388C254.435 534.165 257.367 543.707 258.504 553.542C258.71 555.396 258.797 557.261 258.766 559.126C258.635 560.267 258.635 561.419 258.766 562.56C258.766 563.032 259.736 563.503 260.129 563.032C261.964 560.751 261.492 556.793 261.256 554.066C260.818 549.39 259.94 544.764 258.635 540.252C255.834 529.318 250.295 519.277 242.54 511.076C237.332 505.906 231.231 501.722 224.531 498.729C224.242 498.729 224.269 499.175 224.531 499.279L224.295 499.332Z" fill="#455A64"/>
<path d="M240.967 512.937C245.022 501.482 245.407 489.048 242.068 477.365C236.59 457.259 228.778 448.687 220.284 448.687C217.967 448.59 215.677 449.216 213.733 450.48C211.788 451.744 210.285 453.581 209.432 455.738C209.432 455.738 200.467 452.304 196.849 456.315C193.232 460.326 194.726 469.815 194.726 469.815C194.726 469.815 189.483 468.268 187.386 469.238C185.289 470.208 180.99 487.772 188.88 497.025C196.771 506.279 223.063 519.648 240.967 512.937Z" fill="#BA68C8"/>
<path opacity="0.25" d="M240.967 512.937C245.022 501.482 245.407 489.048 242.068 477.365C236.59 457.259 228.778 448.687 220.284 448.687C217.967 448.59 215.677 449.216 213.733 450.48C211.788 451.744 210.285 453.581 209.432 455.738C209.432 455.738 200.467 452.304 196.849 456.315C193.232 460.326 194.726 469.815 194.726 469.815C194.726 469.815 189.483 468.268 187.386 469.238C185.289 470.208 180.99 487.772 188.88 497.025C196.771 506.279 223.063 519.648 240.967 512.937Z" fill="black"/>
<path d="M238.397 514.483C227.676 517.428 216.41 517.787 205.524 515.532C186.677 511.862 180.123 506.462 178.917 497.182C177.711 487.903 184.16 485.412 191.814 492.202C191.814 492.202 192.365 487.169 195.38 485.963C196.934 485.481 198.58 485.367 200.186 485.631C201.792 485.895 203.314 486.529 204.633 487.483C205.918 488.794 218.946 511.128 238.397 514.483Z" fill="#BA68C8"/>
<path opacity="0.15" d="M238.397 514.483C227.676 517.428 216.41 517.787 205.524 515.532C186.677 511.862 180.123 506.462 178.917 497.182C177.711 487.903 184.16 485.412 191.814 492.202C191.814 492.202 192.365 487.169 195.38 485.963C196.934 485.481 198.58 485.367 200.186 485.631C201.792 485.895 203.314 486.529 204.633 487.483C205.918 488.794 218.946 511.128 238.397 514.483Z" fill="black"/>
<path d="M243.139 506.357C248.153 498.974 251.515 490.596 252.995 481.795C254.647 468.688 252.183 457.783 244.843 461.269C244.843 461.269 244.633 455.895 240.334 455.03C236.035 454.165 226.834 464.756 227.227 475.739C227.62 486.723 243.139 506.357 243.139 506.357Z" fill="#BA68C8"/>
<path opacity="0.15" d="M243.139 506.357C248.153 498.974 251.515 490.596 252.995 481.795C254.647 468.688 252.183 457.783 244.843 461.269C244.843 461.269 244.633 455.895 240.334 455.03C236.035 454.165 226.834 464.756 227.227 475.739C227.62 486.723 243.139 506.357 243.139 506.357Z" fill="black"/>
<path d="M238.394 514.483C228.065 515.584 214.408 508.926 207.881 503.002C200.017 495.819 195.586 483.761 198.889 475.923C202.192 468.085 211.446 465.883 211.446 465.883C211.446 465.883 213.228 458.674 222.613 458.963C229.061 459.146 237.083 473.485 240.805 486.015C244.528 498.545 242.431 509.241 238.394 514.483Z" fill="#BA68C8"/>
<path d="M248.019 519.254C244.952 518.337 241.597 518.678 233.235 519.91C224.873 521.142 217.375 521.456 216.641 516.266C215.907 511.076 229.748 512.648 229.748 512.648C229.748 512.648 222.304 503.736 226.314 499.777C231.557 494.535 239.893 506.069 239.893 506.069C239.893 506.069 240.208 493.958 245.136 493.748C250.064 493.539 251.113 498.991 249.592 505.282C248.072 511.574 246.761 516.397 248.019 519.254Z" fill="#455A64"/>
<path d="M295.095 677.088L315.279 665.423C315.279 665.423 340.916 618.238 298.24 581.381C258.159 546.726 214.356 548.745 214.356 548.745C214.356 548.745 203.163 605.419 223.531 642.066C245.079 681.099 295.095 677.088 295.095 677.088Z" fill="#BA68C8"/>
<path opacity="0.5" d="M295.095 677.088L315.279 665.423C315.279 665.423 340.916 618.238 298.24 581.381C258.159 546.726 214.356 548.745 214.356 548.745C214.356 548.745 203.163 605.419 223.531 642.066C245.079 681.099 295.095 677.088 295.095 677.088Z" fill="white"/>
<path d="M305.19 672.501C304.897 672.5 304.615 672.397 304.39 672.211C304.165 672.024 304.012 671.765 303.957 671.478C291.401 601.933 246.025 569.926 227.098 559.388C226.955 559.311 226.828 559.206 226.726 559.08C226.624 558.953 226.548 558.807 226.504 558.65C226.46 558.493 226.448 558.329 226.469 558.167C226.49 558.006 226.544 557.85 226.627 557.71C226.787 557.426 227.052 557.215 227.365 557.122C227.678 557.029 228.015 557.061 228.304 557.212C247.545 567.934 293.682 600.439 306.422 671.033C306.468 671.358 306.388 671.689 306.198 671.957C306.008 672.226 305.722 672.411 305.399 672.474L305.19 672.501Z" fill="white"/>
<path d="M282.436 612.314C282.126 612.318 281.827 612.205 281.597 611.999C272.841 604.135 245.212 603.453 230.611 610.715C230.467 610.79 230.309 610.836 230.147 610.849C229.985 610.863 229.822 610.843 229.668 610.792C229.513 610.74 229.371 610.658 229.249 610.55C229.128 610.442 229.029 610.311 228.959 610.164C228.812 609.868 228.788 609.526 228.891 609.212C228.994 608.899 229.216 608.638 229.51 608.486C245.238 600.622 273.759 601.618 283.248 610.138C283.477 610.373 283.605 610.688 283.605 611.016C283.605 611.344 283.477 611.659 283.248 611.894C283.148 612.016 283.025 612.116 282.885 612.188C282.745 612.26 282.592 612.303 282.436 612.314Z" fill="white"/>
<path d="M170.895 513.094C170.179 511.853 169.031 510.92 167.67 510.473C166.894 510.226 166.074 510.148 165.265 510.243C164.456 510.338 163.676 510.604 162.978 511.023C161.801 511.973 160.98 513.292 160.647 514.767C160.314 516.242 160.489 517.786 161.143 519.149C160.246 517.929 158.968 517.042 157.51 516.629C156.053 516.216 154.5 516.301 153.095 516.869C152.417 517.296 151.833 517.859 151.382 518.522C150.931 519.185 150.622 519.934 150.474 520.722C150.198 522.118 150.451 523.565 151.182 524.785C153.515 528.717 160.435 529.478 162.663 529.845C164.401 530.092 166.152 530.241 167.906 530.29C168.791 528.722 169.562 527.093 170.213 525.414C170.895 523.239 173.28 517.026 170.895 513.094Z" fill="#BA68C8"/>
<path d="M105.072 63.9557C105.288 64.7243 105.267 65.5098 105.012 66.2131C104.758 66.9163 104.281 67.5059 103.642 67.9072C103.003 68.3085 102.23 68.5035 101.422 68.4678C100.613 68.432 99.8054 68.1671 99.0996 67.7063C98.3939 67.2455 97.8222 66.6096 97.4566 65.8789C97.0911 65.1482 96.9481 64.3554 97.0458 63.6007C97.1434 62.8459 97.4773 62.1631 98.0053 61.6383C98.5333 61.1136 99.2317 60.7704 100.012 60.6523C100.532 60.5705 101.077 60.5913 101.614 60.7136C102.151 60.8359 102.67 61.0572 103.141 61.3646C103.612 61.672 104.025 62.0594 104.356 62.5042C104.688 62.9491 104.931 63.4425 105.072 63.9557Z" fill="#BA68C8"/>
<path d="M105.523 83.7077C105.739 84.4763 105.718 85.2618 105.463 85.9651C105.209 86.6684 104.732 87.2579 104.093 87.6592C103.454 88.0605 102.681 88.2556 101.873 88.2198C101.065 88.1841 100.257 87.9191 99.5508 87.4583C98.8451 86.9975 98.2733 86.3617 97.9078 85.631C97.5422 84.9002 97.3993 84.1075 97.4969 83.3527C97.5946 82.598 97.9285 81.9151 98.4565 81.3904C98.9845 80.8656 99.6829 80.5225 100.464 80.4043C100.984 80.3225 101.528 80.3434 102.065 80.4656C102.602 80.5879 103.121 80.8092 103.592 81.1166C104.063 81.4241 104.476 81.8114 104.808 82.2563C105.139 82.7011 105.382 83.1945 105.523 83.7077Z" fill="#BA68C8"/>
<path d="M119.205 69.2535C119.401 69.8994 119.396 70.5637 119.191 71.1607C118.986 71.7577 118.59 72.2601 118.055 72.6032C117.52 72.9463 116.869 73.1144 116.188 73.0858C115.506 73.0571 114.825 72.8331 114.231 72.4425C113.637 72.0519 113.159 71.5127 112.857 70.8943C112.555 70.276 112.443 69.6069 112.536 68.9731C112.63 68.3394 112.924 67.7701 113.381 67.3386C113.837 66.9071 114.436 66.6333 115.099 66.5523C115.953 66.4479 116.857 66.6704 117.622 67.1735C118.386 67.6766 118.954 68.4216 119.205 69.2535Z" fill="#BA68C8"/>
<path d="M128.183 80.356C128.373 80.9964 128.363 81.6537 128.157 82.2436C127.951 82.8336 127.557 83.3293 127.025 83.6673C126.494 84.0053 125.849 84.1701 125.174 84.1407C124.499 84.1112 123.824 83.8888 123.236 83.502C122.648 83.1152 122.174 82.5815 121.874 81.9695C121.574 81.3574 121.461 80.6949 121.552 80.0667C121.642 79.4385 121.931 78.8733 122.38 78.4436C122.83 78.0139 123.421 77.7391 124.077 77.6546C124.932 77.5387 125.841 77.7567 126.608 78.2618C127.376 78.7669 127.942 79.5188 128.183 80.356Z" fill="#BA68C8"/>
<path d="M137.097 70.7074C137.292 71.3533 137.287 72.0175 137.082 72.6146C136.877 73.2116 136.481 73.714 135.946 74.0572C135.411 74.4003 134.76 74.5684 134.079 74.5397C133.397 74.5111 132.716 74.287 132.122 73.8964C131.528 73.5058 131.049 72.9666 130.747 72.3482C130.445 71.7298 130.334 71.0607 130.427 70.4269C130.521 69.7932 130.815 69.2238 131.271 68.7924C131.728 68.3609 132.327 68.087 132.99 68.006C133.845 67.8959 134.751 68.1162 135.517 68.6203C136.284 69.1243 136.85 69.8728 137.097 70.7074Z" fill="#BA68C8"/>
<path d="M1.07672 147.232C9.47052 119.661 30.5518 98.5522 57.7794 86.6425C65.1022 83.4277 72.8325 80.9321 80.86 79.1912C88.9886 77.1186 97.5841 76.3395 106.312 76.8841C106.312 76.8841 106.449 76.9514 106.256 77.0047C99.1176 78.4355 91.7994 78.9873 84.7241 80.5233C77.7241 82.0066 70.921 84.005 64.3744 86.501C50.9388 91.6112 38.9135 99.0929 28.8871 108.58C18.6331 118.387 10.9328 130.329 6.2702 143.653C1.60756 156.977 0.0834268 171.396 1.7936 186.004C2.85842 194.208 5.08334 202.374 8.40931 210.283C11.9519 218.15 16.6219 225.638 22.2792 232.521C23.3068 233.867 21.339 235.567 19.9554 234.566C13.1242 229.551 8.67854 221.756 5.41886 214.545C2.07014 207.072 -0.305748 199.346 -1.65324 191.548C-4.22055 176.38 -3.2893 161.263 1.07672 147.232Z" fill="#37474F"/>
<path d="M-49.1147 269.282C-38.1547 284.273 -4.32639 304.019 22.6508 303.087C53.0604 302.042 64.9124 283.683 55.6227 273.344C42.4615 258.56 23.5233 278.711 -3.42361 275.993C-35.4768 272.784 -45.297 260.932 -45.297 260.932L-49.1147 269.282Z" fill="#BA68C8"/>
<path opacity="0.2" d="M-49.1147 269.282C-38.1547 284.273 -4.32639 304.019 22.6508 303.087C53.0604 302.042 64.9124 283.683 55.6227 273.344C42.4615 258.56 23.5233 278.711 -3.42361 275.993C-35.4768 272.784 -45.297 260.932 -45.297 260.932L-49.1147 269.282Z" fill="white"/>
<path d="M-26.0067 281.485C1.93606 295.569 34.6259 291.792 48.1763 280.537C48.3798 280.361 48.4967 280.108 48.5026 279.831C48.5086 279.555 48.4031 279.276 48.2082 279.052C48.11 278.944 47.9925 278.853 47.8625 278.786C47.7324 278.719 47.5924 278.676 47.4506 278.66C47.3088 278.644 47.1679 278.655 47.0362 278.692C46.9045 278.73 46.7846 278.794 46.6834 278.879C30.5075 292.313 -13.8854 293.623 -42.1272 268.023C-42.3475 267.822 -42.6324 267.706 -42.92 267.699C-43.2076 267.692 -43.4746 267.796 -43.6631 267.988C-43.8439 268.187 -43.9302 268.455 -43.9037 268.735C-43.8773 269.015 -43.7402 269.285 -43.5213 269.489C-38.2518 274.259 -32.3473 278.303 -26.0067 281.485Z" fill="white"/>
<path d="M1.22947 240.08C1.14991 240.183 1.11702 240.316 1.13721 240.452C1.15739 240.589 1.22919 240.719 1.33863 240.819C21.9804 259.178 51.4154 262.263 76.3031 248.672C76.4261 248.602 76.5106 248.486 76.5393 248.347C76.5679 248.208 76.5386 248.057 76.4572 247.926C76.3653 247.798 76.2299 247.705 76.0791 247.663C75.9284 247.622 75.7739 247.637 75.6478 247.705C51.178 261.059 22.3073 258.047 2.07044 240.058C1.9493 239.952 1.79549 239.891 1.64169 239.888C1.48789 239.885 1.3462 239.94 1.24673 240.042L1.22947 240.08Z" fill="#455A64"/>
<path d="M59.0593 237.473C58.9151 237.728 58.7924 237.995 58.6924 238.272C57.9018 240.147 57.4236 242.157 57.2732 244.237C57.1386 248.248 55.6531 251.963 53.0281 254.853C52.9697 254.921 52.9346 255.005 52.9267 255.097C52.9187 255.188 52.9383 255.283 52.9832 255.37C53.0393 255.453 53.1179 255.522 53.2095 255.567C53.301 255.613 53.4015 255.634 53.4987 255.627C59.4029 255.305 69.9353 250.664 69.9091 242.63C69.8895 237.519 66.8546 236.032 65.5577 235.558C64.3157 235.209 63.0359 235.204 61.8795 235.545C60.7231 235.885 59.7418 236.556 59.0593 237.473ZM54.9517 254.143C56.8862 251.305 57.9989 247.979 58.1942 244.45C58.3365 242.453 58.788 240.522 59.5349 238.716C60.0231 237.763 60.8522 237.028 61.8938 236.624C62.9355 236.221 64.1318 236.171 65.2978 236.483C67.5829 237.204 68.9101 239.41 68.933 242.537C68.938 249.898 59.6904 253.78 54.5879 254.575L54.9517 254.143Z" fill="#455A64"/>
<path d="M52.8006 255.04C52.744 255.077 52.6997 255.128 52.6719 255.187C52.6441 255.247 52.6335 255.314 52.6411 255.382C52.6925 255.498 52.7885 255.596 52.9087 255.655C53.0288 255.714 53.1634 255.729 53.2836 255.697C58.7272 254.481 64.6869 247.26 65.0684 241.362C65.0787 241.242 65.037 241.118 64.9524 241.017C64.8678 240.915 64.7472 240.844 64.6168 240.819C64.4826 240.798 64.3513 240.826 64.2502 240.896C64.1491 240.966 64.0861 241.074 64.0744 241.196C63.6866 247.289 57.6226 253.767 52.9456 254.79C52.8716 254.856 52.8214 254.943 52.8006 255.04Z" fill="#455A64"/>
<path d="M56.8931 253.566C56.8024 253.658 56.7481 253.778 56.738 253.911C56.7778 254.035 56.8595 254.147 56.9693 254.228C57.0792 254.309 57.2104 254.355 57.3408 254.357C60.6905 254.169 67.6392 260.27 71.4829 264.4C72.5961 265.652 73.9671 266.673 75.488 267.38C77.0089 268.088 78.6382 268.464 80.2477 268.479C81.2927 268.405 82.269 268.074 83.086 267.517C83.9029 266.96 84.5341 266.195 84.9207 265.292C85.3282 264.41 85.4366 263.398 85.2319 262.386C85.0272 261.373 84.5187 260.406 83.7713 259.608C79.9436 255.039 69.3535 251.33 57.1107 253.37C57.0128 253.405 56.9355 253.475 56.8931 253.566ZM83.4677 265.757C83.0982 266.281 82.6053 266.709 82.0225 267.01C81.4396 267.312 80.7804 267.481 80.0896 267.506C78.6448 267.488 77.1833 267.146 75.8205 266.506C74.4577 265.866 73.2311 264.945 72.2374 263.818C71.884 263.451 65.1176 256.196 59.9671 253.992C70.6605 252.861 79.7105 256.191 83.0888 260.204C83.703 260.85 84.1237 261.636 84.2973 262.461C84.4709 263.286 84.3895 264.113 84.0636 264.835C83.9075 265.169 83.7074 265.479 83.4677 265.757Z" fill="#455A64"/>
<path d="M57.1314 253.751C57.0479 253.828 56.9999 253.935 56.9961 254.052C57.0177 254.181 57.09 254.302 57.1977 254.39C57.3053 254.479 57.4399 254.527 57.5728 254.526C66.4575 254.373 76.9559 260.264 79.4525 262.531C79.5547 262.627 79.6876 262.685 79.8225 262.692C79.9573 262.699 80.0835 262.656 80.1738 262.571C80.2167 262.527 80.249 262.475 80.2685 262.416C80.2881 262.358 80.2945 262.295 80.2875 262.231C80.2805 262.167 80.2602 262.104 80.2278 262.045C80.1953 261.986 80.1515 261.932 80.0988 261.887C77.5152 259.53 66.6387 253.404 57.4454 253.563C57.3158 253.584 57.2043 253.651 57.1314 253.751Z" fill="#455A64"/>
<path d="M78.3401 226.657C77.1479 232.301 77.316 238.282 78.8321 244.172C86.5768 251.193 90.2003 253.723 97.7202 256.295C99.5656 256.826 101.462 256.961 103.268 256.691C103.931 256.551 104.486 256.175 104.829 255.633C105.173 255.092 105.279 254.423 105.13 253.755C104.662 252.769 103.857 251.935 102.863 251.405L94.4927 245.826C97.8746 247.363 101.507 248.088 105.047 247.933C106.353 247.871 107.915 247.481 108.026 246.236C108.136 244.991 106.366 243.663 104.847 243.136C100.919 241.729 96.8543 240.927 92.8145 240.763C96.534 239.093 99.8833 236.836 102.74 234.076C103.07 233.839 103.328 233.525 103.494 233.157C103.661 232.79 103.73 232.38 103.697 231.959C103.335 230.524 101.225 230.3 99.8119 230.598C96.5428 231.269 93.5251 232.576 90.9331 234.442C93.6627 231.186 95.5022 227.281 96.3125 223.025C96.4152 222.707 96.4477 222.365 96.4079 222.018C96.3681 221.671 96.2569 221.327 96.0809 221.006C95.2373 219.809 93.3788 220.266 92.3056 221.048C89.4654 223.168 87.2455 225.941 85.8127 229.157C86.1142 226.902 86.2728 221.371 84.3679 220.576C82.4631 219.782 79.0496 222.97 78.3401 226.657Z" fill="#BA68C8"/>
<path opacity="0.15" d="M78.3401 226.657C77.1479 232.301 77.316 238.282 78.8321 244.172C86.5768 251.193 90.2003 253.723 97.7202 256.295C99.5656 256.826 101.462 256.961 103.268 256.691C103.931 256.551 104.486 256.175 104.829 255.633C105.173 255.092 105.279 254.423 105.13 253.755C104.662 252.769 103.857 251.935 102.863 251.405L94.4927 245.826C97.8746 247.363 101.507 248.088 105.047 247.933C106.353 247.871 107.915 247.481 108.026 246.236C108.136 244.991 106.366 243.663 104.847 243.136C100.919 241.729 96.8543 240.927 92.8145 240.763C96.534 239.093 99.8833 236.836 102.74 234.076C103.07 233.839 103.328 233.525 103.494 233.157C103.661 232.79 103.73 232.38 103.697 231.959C103.335 230.524 101.225 230.3 99.8119 230.598C96.5428 231.269 93.5251 232.576 90.9331 234.442C93.6627 231.186 95.5022 227.281 96.3125 223.025C96.4152 222.707 96.4477 222.365 96.4079 222.018C96.3681 221.671 96.2569 221.327 96.0809 221.006C95.2373 219.809 93.3788 220.266 92.3056 221.048C89.4654 223.168 87.2455 225.941 85.8127 229.157C86.1142 226.902 86.2728 221.371 84.3679 220.576C82.4631 219.782 79.0496 222.97 78.3401 226.657Z" fill="black"/>
<path d="M75.1309 161.34C63.7394 160.976 52.9744 164.095 44.4149 170.24C37.4859 174.948 31.6907 180.937 27.3171 187.911C26.5002 189.229 25.7795 190.606 25.1594 192.033C24.8749 192.954 24.4756 193.827 23.9691 194.637C23.8056 194.994 22.8191 194.94 22.6491 194.415C21.8827 191.907 23.655 189.106 24.8001 187.139C26.7932 183.78 29.1411 180.645 31.8125 177.779C37.9791 170.678 46.1588 165.418 55.581 162.494C61.7911 160.787 68.4179 160.207 75.1397 160.783C75.3843 160.906 75.2076 161.232 74.9489 161.2L75.1309 161.34Z" fill="#455A64"/>
<path d="M56.9337 162.205C57.4516 151.915 61.3539 142.433 68.0978 135.077C79.4808 122.305 88.887 119.16 95.949 122.727C97.9087 123.627 99.5999 125.058 100.788 126.822C101.976 128.586 102.601 130.595 102.578 132.57C102.578 132.57 111.199 133.761 112.844 138.286C114.49 142.812 110.026 149.298 110.026 149.298C110.026 149.298 114.91 150.34 116.324 151.948C117.739 153.555 115.349 168.527 105.646 172.15C95.9433 175.773 69.5417 174.754 56.9337 162.205Z" fill="#BA68C8"/>
<path opacity="0.25" d="M56.9337 162.205C57.4516 151.915 61.3539 142.433 68.0978 135.077C79.4808 122.305 88.887 119.16 95.949 122.727C97.9087 123.627 99.5999 125.058 100.788 126.822C101.976 128.586 102.601 130.595 102.578 132.57C102.578 132.57 111.199 133.761 112.844 138.286C114.49 142.812 110.026 149.298 110.026 149.298C110.026 149.298 114.91 150.34 116.324 151.948C117.739 153.555 115.349 168.527 105.646 172.15C95.9433 175.773 69.5417 174.754 56.9337 162.205Z" fill="black"/>
<path d="M58.1141 164.938C65.8255 171.498 74.8327 176.384 84.3956 179.194C100.875 184.232 107.967 182.956 112.008 176.638C116.049 170.319 111.648 165.846 103.205 167.69C103.205 167.69 104.421 163.769 102.378 161.647C101.278 160.655 99.9823 159.897 98.5941 159.432C97.206 158.966 95.7632 158.807 94.3799 158.967C92.9067 159.402 74.9779 170.455 58.1141 164.938Z" fill="#BA68C8"/>
<path opacity="0.15" d="M58.1141 164.938C65.8255 171.498 74.8327 176.384 84.3956 179.194C100.875 184.232 107.967 182.956 112.008 176.638C116.049 170.319 111.648 165.846 103.205 167.69C103.205 167.69 104.421 163.769 102.378 161.647C101.278 160.655 99.9823 159.897 98.5941 159.432C97.206 158.966 95.7632 158.807 94.3799 158.967C92.9067 159.402 74.9779 170.455 58.1141 164.938Z" fill="black"/>
<path d="M58.4344 157.475C56.7294 149.727 56.7812 141.926 58.5863 134.605C61.746 123.938 67.6496 116.697 72.697 122.473C72.697 122.473 74.749 118.477 78.7187 119.65C82.6883 120.823 86.8475 132.792 82.6834 140.975C78.5193 149.157 58.4344 157.475 58.4344 157.475Z" fill="#BA68C8"/>
<path opacity="0.15" d="M58.4344 157.475C56.7294 149.727 56.7812 141.926 58.5863 134.605C61.746 123.938 67.6496 116.697 72.697 122.473C72.697 122.473 74.749 118.477 78.7187 119.65C82.6883 120.823 86.8475 132.792 82.6834 140.975C78.5193 149.157 58.4344 157.475 58.4344 157.475Z" fill="black"/>
<path d="M58.4888 164.844C66.7435 170.024 80.4284 170.771 87.9048 169.066C96.9277 166.978 104.745 159.777 104.661 152.492C104.576 145.206 97.595 139.652 97.595 139.652C97.595 139.652 98.566 133.48 90.6257 129.744C85.1745 127.165 73.5775 134.568 66.1903 142.422C58.803 150.276 56.9049 159.201 58.4888 164.844Z" fill="#BA68C8"/>
<path d="M48.9208 165.407C51.7469 166.001 54.3881 167.65 60.842 172.043C67.2959 176.436 73.347 179.788 75.6894 176.237C78.0318 172.686 66.1387 168.098 66.1387 168.098C66.1387 168.098 75.2395 164.572 73.2726 159.963C70.7246 153.888 60.0134 158.99 60.0134 158.99C60.0134 158.99 63.8142 149.861 59.8376 147.656C55.8609 145.451 53.1724 149.066 52.3122 154.372C51.4521 159.679 50.9118 163.808 48.9208 165.407Z" fill="#455A64"/>
<path d="M-47.5082 268.965L-60.0954 251.783C-60.0954 251.783 -64.8305 205.5 -16.8313 195.336C28.2626 185.76 63.677 205.441 63.677 205.441C63.677 205.441 53.2043 252.909 23.6711 272.161C-7.66395 292.727 -47.5082 268.965 -47.5082 268.965Z" fill="#BA68C8"/>
<path opacity="0.5" d="M-47.5082 268.965L-60.0954 251.783C-60.0954 251.783 -64.8305 205.5 -16.8313 195.336C28.2626 185.76 63.677 205.441 63.677 205.441C63.677 205.441 53.2043 252.909 23.6711 272.161C-7.66395 292.727 -47.5082 268.965 -47.5082 268.965Z" fill="white"/>
<path d="M-54.7684 261.474C-54.5252 261.595 -54.2542 261.635 -54.002 261.587C-53.7497 261.539 -53.5318 261.406 -53.3857 261.211C-18.5661 213.631 30.379 208.226 49.8081 208.108C49.9544 208.109 50.0966 208.083 50.226 208.029C50.3554 207.975 50.4693 207.895 50.5609 207.795C50.6526 207.694 50.72 207.574 50.7591 207.443C50.7982 207.312 50.8082 207.171 50.7885 207.03C50.755 206.747 50.6089 206.477 50.3812 206.276C50.1535 206.075 49.862 205.959 49.5683 205.953C29.8134 206.08 -19.9383 211.547 -55.278 259.846C-55.4308 260.074 -55.4802 260.359 -55.4162 260.642C-55.3521 260.924 -55.1793 261.184 -54.9335 261.367L-54.7684 261.474Z" fill="white"/>
<path d="M-13.8455 225.186C-13.6027 225.311 -13.3289 225.348 -13.0786 225.289C-3.55534 223.048 18.493 233.468 27.6172 244.498C27.7057 244.61 27.815 244.706 27.9387 244.779C28.0623 244.853 28.1976 244.903 28.3365 244.927C28.4754 244.95 28.615 244.947 28.7469 244.917C28.8788 244.887 29.0003 244.831 29.1041 244.752C29.3182 244.595 29.451 244.357 29.4737 244.089C29.4965 243.821 29.4074 243.544 29.2257 243.318C19.4112 231.406 -3.44542 220.861 -13.7657 223.288C-14.0245 223.367 -14.2302 223.545 -14.339 223.783C-14.4478 224.021 -14.4511 224.3 -14.3482 224.561C-14.3098 224.688 -14.2454 224.809 -14.1589 224.917C-14.0725 225.024 -13.9658 225.116 -13.8455 225.186Z" fill="white"/>
<path d="M110.833 191.18C111.847 190.542 113.108 190.313 114.377 190.538C115.097 190.673 115.795 190.952 116.425 191.357C117.054 191.762 117.601 192.283 118.028 192.887C118.663 194.086 118.88 195.417 118.644 196.664C118.408 197.91 117.732 199 116.726 199.755C117.881 199.207 119.234 199.067 120.569 199.358C121.904 199.648 123.147 200.352 124.1 201.358C124.509 201.96 124.792 202.623 124.932 203.308C125.073 203.993 125.067 204.684 124.916 205.337C124.66 206.5 123.954 207.485 122.935 208.101C119.669 210.096 113.741 207.814 111.791 207.171C110.283 206.641 108.799 206.031 107.345 205.344C107.162 203.8 107.094 202.257 107.14 200.726C107.332 198.809 107.523 193.153 110.833 191.18Z" fill="#BA68C8"/>
</svg>
