<svg width="405" height="673" viewBox="0 0 405 673" fill="none" xmlns="http://www.w3.org/2000/svg">
<g clip-path="url(#clip0_286_2215)">
<path d="M171.997 398.318C184.565 432.643 219.759 412.162 259.156 397.736C298.553 383.311 336.907 371.358 324.338 337.034C311.77 302.71 247.384 244.067 207.987 258.493C168.59 272.918 159.429 363.994 171.997 398.318Z" stroke="#1D1D1B" stroke-width="2" stroke-miterlimit="10"/>
</g>
<path d="M97.5005 498.088C95.3535 482.042 81.5477 478.366 72.3211 472.886C63.0944 467.405 53.3192 462.252 46.4841 453.917C47.8155 460.373 49.4231 466.833 52.33 472.769C55.2369 478.704 59.5813 484.117 65.2856 487.349C75.2626 492.957 88.1651 491.392 97.4768 498.085" fill="#BA68C8"/>
<path d="M54.0601 496.303C60.0117 497.654 66.0515 498.504 72.1165 498.843C83.7157 499.819 96.4537 501.319 106.011 508.236C101.329 512.37 91.9182 513.935 85.6494 513.315C79.3805 512.694 73.3496 510.335 67.4309 508.024C61.737 505.989 56.2113 503.475 50.9131 500.509C45.5959 497.516 41.0803 493.232 37.7874 488.055C42.4881 492.104 48.0793 494.938 54.0601 496.303Z" fill="#BA68C8"/>
<path d="M105.199 475.14C105.1 467.675 106.497 460.307 109.307 453.478C112.117 446.65 116.282 440.503 121.551 435.405C116.547 443.261 120.878 454.452 120.697 463.884C120.376 479.918 115.656 495.256 108.105 509.182C109.148 497.85 105.409 486.514 105.199 475.14Z" fill="#BA68C8"/>
<path d="M147.988 433.528C148.821 451.405 149.513 470.041 142.255 486.146C136.559 498.778 124.437 507.537 118.173 519.883L117.382 519.033C121.171 487.929 130.18 458.915 147.988 433.528Z" fill="#BA68C8"/>
<path d="M71.422 524.813C85.0397 519.397 99.7362 516.052 114.457 517.221L116.955 519.847C108.372 528.105 96.951 537.734 85.7169 541.632C68.9181 547.452 50.0281 542.076 32.4796 545.142C45.1497 537.719 57.8268 530.257 71.422 524.813Z" fill="#BA68C8"/>
<path d="M90.1118 548.805C101.968 540.186 115.924 533.458 130.412 530.984L132.059 534.118C125.713 544.275 117.771 555.177 107.859 561.72C93.0336 571.5 73.5625 570.867 57.3617 578.139C67.7863 567.797 78.2617 557.409 90.1118 548.805Z" fill="#BA68C8"/>
<path d="M134.72 535.141C144.356 524.397 153.909 513.51 161.845 501.422C169.781 489.335 176.079 475.913 178.615 461.524C155.769 480.026 140.22 506.156 134.636 535.434" fill="#BA68C8"/>
<path d="M156.814 554.252C149.944 563.962 141.691 575.152 131.536 581.203C115.481 590.811 95.8568 591.903 77.0569 592.753C96.0526 585.529 109.149 567.369 127.93 559.542C137.174 555.694 145.766 554.503 155.773 553.414" fill="#BA68C8"/>
<path d="M58.7046 468.185C58.7046 468.185 58.8581 468.333 59.1706 468.615L60.5799 469.796L66.0229 474.329C66.6089 474.827 67.2368 475.343 67.8954 475.906C68.5797 476.475 69.3305 476.955 70.1297 477.337C71.9486 478.242 73.8127 479.047 75.7137 479.748C77.8974 480.492 80.0276 481.398 82.0863 482.459C84.3682 483.699 86.52 485.176 88.5058 486.866C90.7013 488.706 92.6939 490.781 94.4468 493.053C96.3565 495.393 98.3248 497.818 100.352 500.328C102.347 502.882 104.645 505.338 106.894 507.953L110.363 511.895L114.062 515.814C124.881 527.331 136.489 538.067 148.794 547.94C161.111 557.809 174.075 566.814 187.591 574.887C198.657 581.42 210.062 587.33 221.751 592.589C226.784 594.721 231.286 596.788 235.36 598.269C239.433 599.75 242.877 601.229 245.791 602.152L252.449 604.397L254.186 604.967C254.57 605.092 254.772 605.139 254.772 605.139C254.772 605.139 254.587 605.05 254.195 604.905L252.484 604.29L245.856 601.951C242.963 600.996 239.517 599.541 235.467 597.98C231.417 596.419 226.914 594.377 221.897 592.227C210.254 586.932 198.889 581.007 187.854 574.478C174.372 566.394 161.434 557.395 149.133 547.546C136.844 537.692 125.245 526.985 114.424 515.505C113.166 514.193 111.932 512.883 110.72 511.599C109.507 510.315 108.39 508.958 107.245 507.671C105.014 505.072 102.697 502.624 100.701 500.07C98.7055 497.516 96.6748 495.151 94.7754 492.827C92.9893 490.539 90.9642 488.45 88.7366 486.597C86.7064 484.925 84.5158 483.464 82.1997 482.238C80.1229 481.18 77.9751 480.277 75.774 479.537C73.8828 478.854 72.027 478.069 70.2151 477.185C68.734 476.346 67.3493 475.339 66.0887 474.186L60.5883 469.734L59.1483 468.589C58.8833 468.311 58.7046 468.185 58.7046 468.185Z" fill="#455A64"/>
<path d="M52.5123 540.044C52.7312 539.989 52.9408 539.903 53.1355 539.789L54.8807 538.916C56.3885 538.142 58.5858 537.048 61.3159 535.759C75.559 528.988 90.5825 524.002 106.072 520.907C109.038 520.304 111.441 519.908 113.126 519.591L115.053 519.245C115.28 519.221 115.502 519.166 115.714 519.083C115.483 519.072 115.253 519.086 115.026 519.124L113.09 519.364C111.407 519.573 108.976 519.956 105.984 520.497C90.4025 523.39 75.3208 528.398 61.1295 535.391C58.4107 536.734 56.2444 537.876 54.7663 538.723L53.0733 539.694C52.871 539.783 52.6822 539.901 52.5123 540.044Z" fill="#455A64"/>
<path d="M78.955 568.252C79.1539 568.179 79.3414 568.078 79.5124 567.953L81.0523 567.016C82.3876 566.198 84.2959 564.979 86.6517 563.447C91.3576 560.397 97.7956 556.093 104.822 551.204C111.849 546.315 118.109 541.75 122.607 538.392C124.855 536.713 126.652 535.337 127.875 534.386L129.291 533.261C129.461 533.137 129.619 532.996 129.764 532.842C129.571 532.924 129.391 533.034 129.229 533.167L127.741 534.202L122.346 538.069C117.791 541.343 111.495 545.851 104.498 550.729C97.5011 555.606 91.0786 559.975 86.4305 563.108L80.9283 566.828L79.4504 567.859C79.2689 567.968 79.1024 568.099 78.955 568.252Z" fill="#455A64"/>
<path d="M164.209 485.041C164.051 485.151 163.909 485.284 163.787 485.434L162.658 486.666C161.683 487.742 160.33 489.346 158.713 491.362C150.245 501.913 143.256 513.608 137.935 526.131C136.914 528.529 136.14 530.498 135.655 531.868L135.1 533.455C135.026 533.638 134.971 533.83 134.936 534.026C135.045 533.864 135.134 533.69 135.202 533.507L135.856 531.963C136.419 530.561 137.227 528.672 138.286 526.283C141.043 520.098 144.158 514.089 147.615 508.288C151.093 502.496 154.903 496.921 159.026 491.588C160.606 489.539 161.923 487.903 162.838 486.793L163.88 485.491C164.004 485.352 164.115 485.202 164.209 485.041Z" fill="#455A64"/>
<path d="M139.859 458.602C139.709 458.545 134.468 472.004 128.137 488.666C121.805 505.327 116.789 518.883 116.939 518.939C117.088 518.996 122.333 505.547 128.66 488.875C134.988 472.204 140.018 458.654 139.859 458.602Z" fill="#455A64"/>
<path d="M112.322 462.109C112.216 462.718 112.161 463.336 112.16 463.958C112.079 465.237 111.982 466.943 111.873 469.003C111.62 473.254 111.227 479.134 110.636 485.607C110.045 492.081 109.33 497.928 108.788 502.144L108.142 507.148C108.037 507.756 107.978 508.372 107.965 508.991C108.137 508.399 108.265 507.794 108.35 507.181C108.571 506.019 108.854 504.32 109.162 502.192C109.808 497.98 110.571 492.136 111.171 485.659C111.772 479.182 112.109 473.277 112.254 469.012C112.319 466.876 112.36 465.147 112.361 463.946C112.391 463.335 112.378 462.721 112.322 462.109Z" fill="#455A64"/>
<path d="M71.4512 501.561C71.8747 501.75 72.3181 501.886 72.7716 501.967C73.6073 502.205 74.8224 502.525 76.3284 502.88C79.3289 503.617 83.5138 504.546 88.154 505.408C92.7943 506.27 97.0203 506.912 100.084 507.306C101.619 507.508 102.859 507.641 103.714 507.73C104.158 507.796 104.607 507.819 105.054 507.799C104.64 507.645 104.211 507.543 103.776 507.494L100.166 506.896C97.1178 506.402 92.9144 505.704 88.2742 504.842C83.6339 503.98 79.4939 503.104 76.4384 502.482L72.8576 501.732C72.3941 501.63 71.9231 501.572 71.4512 501.561Z" fill="#455A64"/>
<path d="M110.301 576.502C110.365 576.657 120.804 571.668 133.612 565.381C146.42 559.093 156.742 553.875 156.668 553.724C156.595 553.574 146.165 558.558 133.352 564.86C120.538 571.162 110.17 576.351 110.301 576.502Z" fill="#455A64"/>
<path d="M152.598 549.916C162.892 544.282 174.816 537.4 182.009 528.086C193.362 513.292 196.87 493.871 200.068 475.304C190.659 493.318 171.351 504.104 161.399 521.809C156.492 530.539 154.264 538.937 151.962 548.752" fill="#BA68C8"/>
<path d="M179.795 506.324C179.666 506.236 173.358 515.85 165.706 527.807C158.054 539.764 151.948 549.532 152.077 549.621C152.206 549.709 158.52 540.081 166.172 528.124C173.824 516.167 179.924 506.413 179.795 506.324Z" fill="#455A64"/>
<path d="M341.062 429.151L328.907 399.27L350.558 423.254L382.25 409.819L356.147 432.138L368.285 461.986L346.633 438.002L314.959 451.47L341.062 429.151Z" fill="#DDB3E3"/>
<path d="M400.234 437.626L392.866 412.707L408.116 433.471L433.963 424.61L411.847 441.018L419.215 465.938L403.949 445.142L378.119 454.034L400.234 437.626Z" fill="#DDB3E3"/>
<path d="M357.819 358.331L369.364 372.787L388.527 365.807L372.226 378.062L377.94 395.704L366.374 381.21L347.21 388.19L363.512 375.935L357.819 358.331Z" fill="#DDB3E3"/>
<path d="M106.579 213.72L117.675 194.655L113.738 216.397L134.253 227.939L111.264 223.134L100.177 242.176L104.114 220.434L83.5897 208.915L106.579 213.72Z" fill="#DDB3E3"/>
<path d="M126.712 249.293L137.123 234.892L132.254 251.823L147.85 262.113L129.728 256.997L119.316 271.397L124.195 254.444L108.589 244.176L126.712 249.293Z" fill="#DDB3E3"/>
<path d="M151.917 193.201L148.915 205.491L160.7 212.949L147.255 209.244L140.092 219.709L143.106 207.392L131.32 199.934L144.766 203.638L151.917 193.201Z" fill="#DDB3E3"/>
<path d="M244.912 99.6858C240.333 93.6087 234.147 88.8908 227.077 86.0825C220.006 83.2743 212.343 82.4915 204.981 83.8254C184.472 86.7844 166.4 99.1131 166.032 101.573C165.663 104.034 183.897 116.975 208.252 116.515C215.344 116.693 222.329 115.27 228.68 112.355C235.031 109.439 240.582 105.107 244.912 99.6858Z" fill="#E4BFDD"/>
<path d="M289.238 125.687C282.345 122.217 274.666 120.72 267.089 121.371C259.512 122.021 252.348 124.792 246.425 129.362C229.77 141.449 219.541 160.936 220.344 163.26C221.147 165.584 243.301 169.163 264.359 157.539C270.738 154.531 276.294 150.1 280.604 144.581C284.915 139.062 287.867 132.601 289.238 125.687Z" fill="#E4BFDD"/>
<path d="M321.056 100.833C323.042 93.7081 322.941 86.1059 320.765 78.898C318.588 71.6902 314.424 65.169 308.75 60.0828C293.541 45.6366 274.69 38.0754 272.349 39.0879C270.009 40.1005 270.943 64.3304 283.713 82.4693C297.69 101.982 315.097 100.006 321.056 100.833Z" fill="#E4BFDD"/>
<path d="M467.506 199.794C455.858 184.986 441.764 172.201 425.85 162.009C411.52 152.017 396.418 143.182 380.699 135.595C347.927 119.733 313.303 108.196 277.744 101.29C255.211 96.9073 231.176 92.9214 208.344 96.1872C207.878 96.2975 207.639 97.3839 208.295 97.5167C229.342 98.4881 250.309 101.524 270.886 106.58C289.423 110.22 307.701 115.24 325.56 121.596C355.968 132.468 385.03 146.956 412.088 164.733C429.547 176.956 446.306 190.149 462.278 204.245C462.899 204.95 463.77 205.392 464.699 205.473C465.628 205.554 466.54 205.268 467.233 204.678C467.926 204.087 468.344 203.241 468.396 202.326C468.447 201.41 468.127 200.499 467.506 199.794Z" fill="#37474F"/>
<path d="M330.536 114.614C326.908 105.856 322.322 97.493 316.863 89.6776C311.911 82.0386 305.558 75.3614 298.15 70.0064C297.057 69.3527 297.583 70.9712 298.236 71.6878C303.37 77.9696 308.145 84.5271 312.537 91.3277C317.119 98.6274 320.704 106.474 323.195 114.656C323.556 115.752 324.24 116.726 325.157 117.449C326.074 118.172 327.181 118.61 328.332 118.707C328.787 118.648 329.217 118.484 329.591 118.23C329.964 117.975 330.269 117.636 330.483 117.239C330.697 116.842 330.812 116.398 330.822 115.943C330.831 115.487 330.733 115.032 330.536 114.614Z" fill="#37474F"/>
<path d="M326.672 114.874C313.4 114.747 300.315 117.175 288.143 122.024C282.46 123.916 276.942 126.234 271.637 128.958C265.324 132.144 259.556 136.263 254.527 141.179C254.527 141.179 253.499 142.928 254.156 142.731C260.066 139.206 266.169 135.997 272.439 133.116C278.097 130.518 283.988 128.418 290.045 126.841C302.146 123.263 314.661 121.06 327.353 120.274C330.166 119.856 328.942 114.92 326.672 114.874Z" fill="#37474F"/>
<path d="M361.927 150.905C355.918 146.211 348.748 143.255 341.247 142.376C333.745 141.497 326.216 142.731 319.528 145.937C300.578 154.286 286.514 170.877 286.815 173.355C287.116 175.833 308.1 183.8 331.325 177.026C338.165 175.319 344.473 172.081 349.774 167.556C355.075 163.031 359.23 157.338 361.927 150.905Z" fill="#E4BFDD"/>
<path d="M400.761 148.077C387.755 145.24 374.404 144.891 361.433 147.049C355.477 147.708 349.596 148.827 343.845 150.396C337.011 152.109 330.508 154.834 324.552 158.482C324.552 158.482 323.556 160.177 323.755 159.838C330.282 157.618 336.942 155.77 343.705 154.305C349.952 152.975 356.327 152.213 362.752 152.028C375.316 150.981 388.006 151.333 400.586 153.078C403.077 153.652 402.996 148.629 400.761 148.077Z" fill="#37474F"/>
<defs>
<clipPath id="clip0_286_2215">
<rect width="167.578" height="152.344" fill="white" transform="matrix(-0.939031 0.343832 0.343832 0.939031 286.254 228)"/>
</clipPath>
</defs>
</svg>
