<svg width="368" height="534" viewBox="0 0 368 534" fill="none" xmlns="http://www.w3.org/2000/svg">
<path d="M141.866 500.545C141.9 500.704 141.873 500.871 141.79 501.011C141.708 501.152 141.576 501.257 141.421 501.305C112.245 510.113 81.1287 496.98 62.1761 467.856C62.0838 467.709 62.0514 467.532 62.0855 467.361C62.1196 467.19 62.2177 467.039 62.3596 466.939C62.5101 466.849 62.6895 466.821 62.8603 466.86C63.0312 466.899 63.1804 467.002 63.277 467.148C81.9151 495.774 112.428 508.671 141.027 500.047C141.198 499.997 141.381 500.016 141.537 500.1C141.694 500.183 141.812 500.324 141.866 500.493V500.545Z" fill="#455A64"/>
<path d="M83.8023 466.572C83.8281 466.921 83.8281 467.271 83.8023 467.62C83.7343 470.046 83.3104 472.448 82.544 474.75C80.9176 479.109 80.7066 483.87 81.9411 488.355C81.9669 488.459 81.9634 488.568 81.931 488.67C81.8986 488.772 81.8386 488.863 81.7576 488.932C81.668 488.991 81.5632 489.022 81.4561 489.022C81.349 489.022 81.2443 488.991 81.1547 488.932C75.676 485.446 67.6807 474.882 71.2196 466.31C73.474 460.857 77.0129 460.883 78.4546 461.067C79.7897 461.354 81.0099 462.031 81.9614 463.01C82.913 463.99 83.5535 465.229 83.8023 466.572ZM80.4207 486.573C79.8207 482.511 80.2165 478.364 81.5741 474.488C82.312 472.279 82.7269 469.975 82.8061 467.647C82.7581 466.369 82.2905 465.142 81.4755 464.156C80.6605 463.171 79.5436 462.481 78.2973 462.194C75.807 461.748 73.5788 463.4 72.1895 466.729C68.9652 474.593 76.0692 483.663 80.578 487.228L80.4207 486.573Z" fill="#455A64"/>
<path d="M82.0447 488.408C82.0815 488.476 82.1007 488.553 82.1007 488.631C82.1007 488.708 82.0815 488.785 82.0447 488.854C81.9467 488.95 81.815 489.003 81.6777 489.003C81.5405 489.003 81.4088 488.95 81.3108 488.854C76.7758 484.738 74.3641 473.99 76.566 467.542C76.6082 467.41 76.7008 467.3 76.8235 467.236C76.9463 467.172 77.0893 467.16 77.2214 467.201C77.3551 467.249 77.4653 467.346 77.5288 467.473C77.5923 467.6 77.6042 467.747 77.5622 467.882C75.2816 474.541 78.1127 484.554 82.0185 488.067C82.0585 488.176 82.0676 488.294 82.0447 488.408Z" fill="#455A64"/>
<path d="M78.1936 484.895C78.2436 485.049 78.2436 485.214 78.1936 485.367C78.0969 485.483 77.9632 485.562 77.8152 485.59C77.6672 485.619 77.5138 485.596 77.3809 485.524C74.078 483.427 64.274 486.311 58.5069 488.749C56.8112 489.517 54.9604 489.881 53.1 489.813C51.2395 489.745 49.4203 489.246 47.7855 488.355C46.7622 487.684 45.9252 486.765 45.3523 485.683C44.7794 484.602 44.4893 483.393 44.5087 482.169C44.4979 480.956 44.8487 479.767 45.5163 478.754C46.1839 477.74 47.1382 476.949 48.2573 476.481C54.2079 473.545 66.607 475.38 78.0625 484.554C78.1456 484.649 78.1921 484.77 78.1936 484.895ZM45.767 483.506C45.9022 484.299 46.2063 485.053 46.6586 485.718C47.1109 486.383 47.7008 486.942 48.3884 487.359C49.8578 488.154 51.4919 488.596 53.1615 488.651C54.8312 488.705 56.4907 488.371 58.0089 487.674C58.5332 487.464 68.6779 483.191 74.8906 483.637C64.5886 476.349 53.9195 474.96 48.6767 477.529C47.7613 477.904 46.9781 478.543 46.4272 479.365C45.8763 480.186 45.5826 481.154 45.5835 482.143C45.5896 482.603 45.6512 483.061 45.767 483.506Z" fill="#455A64"/>
<path d="M78.1939 484.895C78.2441 485.03 78.2441 485.179 78.1939 485.315C78.1123 485.448 77.9818 485.545 77.8301 485.584C77.6784 485.623 77.5175 485.602 77.3813 485.524C68.3113 480.282 54.785 480.989 51.1674 482.143C51.0179 482.193 50.8545 482.183 50.7124 482.114C50.5703 482.046 50.4607 481.924 50.4072 481.776C50.3832 481.702 50.3743 481.624 50.3812 481.546C50.388 481.469 50.4105 481.393 50.4473 481.325C50.484 481.256 50.5342 481.196 50.5949 481.147C50.6556 481.099 50.7255 481.063 50.8005 481.042C54.549 479.836 68.5735 479.076 77.958 484.502C78.0814 484.6 78.1652 484.74 78.1939 484.895Z" fill="#455A64"/>
<path d="M68.993 445.942C67.6529 452.741 64.8241 459.16 60.7094 464.737C49.9618 468.118 45.2695 468.879 36.7238 467.542C34.6715 467.104 32.7448 466.208 31.0878 464.92C30.4982 464.403 30.1191 463.688 30.0224 462.91C29.9258 462.132 30.1183 461.345 30.5635 460.7C31.463 459.884 32.6261 459.419 33.8402 459.389L44.5617 457.921C40.5494 457.733 36.6515 456.524 33.2373 454.409C31.979 453.622 30.6159 452.338 31.0616 450.922C31.5072 449.507 33.8402 449.035 35.5703 449.297C40.0619 449.926 44.4192 451.289 48.4676 453.334C45.551 449.469 43.26 445.17 41.6782 440.594C41.4589 440.154 41.3448 439.67 41.3448 439.178C41.3448 438.687 41.4589 438.202 41.6782 437.763C42.6743 436.4 44.85 437.317 46.1083 438.418C49.0263 440.948 51.414 444.03 53.1336 447.488C51.8978 442.441 51.8261 437.179 52.9239 432.101C52.9645 431.698 53.0851 431.307 53.2786 430.951C53.4722 430.596 53.7348 430.282 54.0511 430.03C55.4142 429.191 57.0395 430.711 57.7473 432.153C59.5984 436.023 60.5484 440.262 60.5259 444.552C61.2337 441.931 63.5405 435.823 65.7687 436.006C67.9969 436.19 69.9367 441.538 68.993 445.942Z" fill="#BA68C8"/>
<path opacity="0.15" d="M68.993 445.942C67.6529 452.741 64.8241 459.16 60.7094 464.737C49.9618 468.118 45.2695 468.879 36.7238 467.542C34.6715 467.104 32.7448 466.208 31.0878 464.92C30.4982 464.403 30.1191 463.688 30.0224 462.91C29.9258 462.132 30.1183 461.345 30.5635 460.7C31.463 459.884 32.6261 459.419 33.8402 459.389L44.5617 457.921C40.5494 457.733 36.6515 456.524 33.2373 454.409C31.979 453.622 30.6159 452.338 31.0616 450.922C31.5072 449.507 33.8402 449.035 35.5703 449.297C40.0619 449.926 44.4192 451.289 48.4676 453.334C45.551 449.469 43.26 445.17 41.6782 440.594C41.4589 440.154 41.3448 439.67 41.3448 439.178C41.3448 438.687 41.4589 438.202 41.6782 437.763C42.6743 436.4 44.85 437.317 46.1083 438.418C49.0263 440.948 51.414 444.03 53.1336 447.488C51.8978 442.441 51.8261 437.179 52.9239 432.101C52.9645 431.698 53.0851 431.307 53.2786 430.951C53.4722 430.596 53.7348 430.282 54.0511 430.03C55.4142 429.191 57.0395 430.711 57.7473 432.153C59.5984 436.023 60.5484 440.262 60.5259 444.552C61.2337 441.931 63.5405 435.823 65.7687 436.006C67.9969 436.19 69.9367 441.538 68.993 445.942Z" fill="black"/>
<path d="M258.49 424.7C266.877 439.684 270.053 457.642 267.554 475.941C265.895 490.463 261.694 504.859 255.159 518.415C253.917 520.965 252.528 523.448 251.001 525.851C249.935 527.245 249.014 528.742 248.254 530.314C247.877 530.928 248.634 532.2 249.472 531.854C253.442 530.137 256.056 524.672 257.96 520.968C261.187 514.591 263.859 507.982 265.941 501.23C271.408 485.114 272.958 468.298 270.444 452.366C268.486 442.106 264.693 432.521 259.249 424.076C258.911 423.88 258.586 424.477 258.808 424.792L258.49 424.7Z" fill="#455A64"/>
<path d="M262.038 454.39C276.167 442.116 286.729 426.031 292.253 408.371C302.078 378.164 299.756 361.521 289.658 355.68C286.982 353.959 283.75 353.208 280.411 353.533C277.072 353.857 273.792 355.24 271.026 357.49C271.026 357.49 263.157 346.809 255.597 349.595C248.037 352.382 242.103 365.887 242.103 365.887C242.103 365.887 237.126 360.248 233.845 360.082C230.564 359.915 211.18 380.054 213.042 397.648C214.903 415.242 235.298 450.903 262.038 454.39Z" fill="#BA68C8"/>
<path opacity="0.25" d="M262.038 454.39C276.167 442.116 286.729 426.031 292.253 408.371C302.078 378.164 299.756 361.521 289.658 355.68C286.982 353.959 283.75 353.208 280.411 353.533C277.072 353.857 273.792 355.24 271.026 357.49C271.026 357.49 263.157 346.809 255.597 349.595C248.037 352.382 242.103 365.887 242.103 365.887C242.103 365.887 237.126 360.248 233.845 360.082C230.564 359.915 211.18 380.054 213.042 397.648C214.903 415.242 235.298 450.903 262.038 454.39Z" fill="black"/>
<path d="M259.161 454.108C243.673 450.529 229.671 443.091 218.305 432.404C198.43 414.218 194.949 402.35 201.198 389.027C207.447 375.703 217.361 376.889 221.027 391.399C221.027 391.399 225.881 385.02 230.551 385.518C232.842 385.963 234.938 386.967 236.673 388.451C238.407 389.935 239.732 391.858 240.542 394.068C241.015 396.734 238.292 435.921 259.161 454.108Z" fill="#BA68C8"/>
<path opacity="0.15" d="M259.161 454.108C243.673 450.529 229.671 443.091 218.305 432.404C198.43 414.218 194.949 402.35 201.198 389.027C207.447 375.703 217.361 376.889 221.027 391.399C221.027 391.399 225.881 385.02 230.551 385.518C232.842 385.963 234.938 386.967 236.673 388.451C238.407 389.935 239.732 391.858 240.542 394.068C241.015 396.734 238.292 435.921 259.161 454.108Z" fill="black"/>
<path d="M272.122 448.333C283.842 442.162 294.431 433.581 303.163 423.175C315.525 407.304 321.338 391.498 310.012 391.041C310.012 391.041 314.047 383.933 309.727 379.897C305.408 375.861 286.256 383.351 277.968 397.855C269.679 412.36 272.122 448.333 272.122 448.333Z" fill="#BA68C8"/>
<path opacity="0.15" d="M272.122 448.333C283.842 442.162 294.431 433.581 303.163 423.175C315.525 407.304 321.338 391.498 310.012 391.041C310.012 391.041 314.047 383.933 309.727 379.897C305.408 375.861 286.256 383.351 277.968 397.855C269.679 412.36 272.122 448.333 272.122 448.333Z" fill="black"/>
<path d="M258.484 454.578C245.363 448.942 234.581 430.852 231.647 418.612C228.148 403.807 232.662 384.964 242.916 376.955C253.17 368.945 265.909 372.402 265.909 372.402C265.909 372.402 273.854 364.175 284.732 370.986C292.219 375.647 290.113 399.94 284.379 418.916C278.646 437.892 267.507 450.474 258.484 454.578Z" fill="#BA68C8"/>
<path d="M268.41 467.548C265.478 464.202 261.166 462.325 250.106 458.156C239.047 453.987 229.78 449.201 233.161 441.802C236.542 434.404 251.881 446.099 251.881 446.099C251.881 446.099 250.255 429.102 258.325 426.632C268.931 423.312 269.474 444.407 269.474 444.407C269.474 444.407 279.799 428.551 285.893 431.694C291.986 434.836 288.768 442.8 281.775 450.095C274.781 457.39 269.244 462.882 268.41 467.548Z" fill="#455A64"/>
<path d="M171.601 191.472C171.428 191.519 171.239 191.476 171.069 191.351C170.899 191.225 170.761 191.027 170.682 190.795C156.206 147.154 165.871 101.015 195.299 73.2919C195.449 73.157 195.641 73.1119 195.837 73.1658C196.032 73.2197 196.216 73.3686 196.351 73.5818C196.475 73.8078 196.535 74.0756 196.519 74.3296C196.503 74.5835 196.411 74.8041 196.264 74.9455C167.34 102.209 157.842 147.453 172.022 190.231C172.104 190.486 172.112 190.758 172.044 190.99C171.977 191.222 171.838 191.395 171.659 191.473L171.601 191.472Z" fill="#455A64"/>
<path d="M206.216 105.622C205.779 105.655 205.335 105.649 204.888 105.602C201.803 105.45 198.683 104.747 195.628 103.515C189.812 100.912 183.743 100.494 178.283 102.319C178.156 102.357 178.017 102.35 177.883 102.298C177.748 102.245 177.622 102.151 177.519 102.024C177.428 101.884 177.37 101.721 177.351 101.555C177.331 101.389 177.352 101.228 177.41 101.09C180.84 92.6709 192.783 80.4905 204.281 86.1373C211.595 89.7344 212.2 95.2154 212.227 97.4451C212.103 99.5075 211.467 101.384 210.397 102.839C209.328 104.295 207.873 105.263 206.216 105.622ZM180.267 99.9985C185.305 99.1475 190.631 99.8405 195.785 102.018C198.717 103.204 201.712 103.891 204.675 104.058C206.286 104.009 207.755 103.308 208.857 102.065C209.959 100.821 210.631 99.1045 210.771 97.1797C210.886 93.331 208.392 89.8478 203.924 87.6316C193.38 82.4856 183.169 93.3143 179.465 100.229L180.267 99.9985Z" fill="#455A64"/>
<path d="M177.643 102.731C177.562 102.789 177.467 102.818 177.367 102.816C177.266 102.815 177.164 102.783 177.069 102.723C176.927 102.564 176.834 102.352 176.808 102.133C176.783 101.913 176.828 101.704 176.933 101.549C181.395 94.3725 194.791 90.7189 203.504 94.3637C203.681 94.4337 203.84 94.5838 203.945 94.7814C204.05 94.979 204.092 95.208 204.064 95.4185C204.027 95.6315 203.922 95.8058 203.77 95.905C203.618 96.0042 203.431 96.0205 203.249 95.9507C194.252 92.1761 181.879 96.5145 178.077 102.696C177.944 102.758 177.794 102.77 177.643 102.731Z" fill="#455A64"/>
<path d="M183.444 97.3426C183.283 97.4144 183.101 97.4115 182.924 97.3342C182.781 97.1882 182.673 96.9878 182.618 96.7668C182.563 96.5458 182.565 96.3178 182.622 96.1212C184.411 91.2397 179.681 76.5881 176.08 67.9563C174.965 65.4174 174.27 62.6546 174.051 59.8852C173.831 57.1159 174.094 54.4155 174.817 51.9967C175.395 50.4848 176.276 49.2547 177.377 48.4208C178.479 47.5869 179.766 47.1763 181.118 47.2271C182.454 47.2325 183.82 47.776 185.042 48.7883C186.265 49.8006 187.288 51.2357 187.982 52.9108C192.16 61.8247 192.1 80.2571 183.799 97.1535C183.709 97.2756 183.583 97.3427 183.444 97.3426ZM179.843 49.0771C178.991 49.2644 178.207 49.7038 177.546 50.3655C176.885 51.0272 176.361 51.8958 176.01 52.9123C175.367 55.0865 175.138 57.5121 175.342 59.9976C175.546 62.4831 176.177 64.9604 177.186 67.2337C177.5 68.0182 183.817 83.2021 184.309 92.4462C190.712 77.2339 190.554 61.3701 186.892 53.5167C186.334 52.1467 185.506 50.9691 184.513 50.134C183.52 49.299 182.407 48.8444 181.317 48.8281C180.811 48.8289 180.316 48.9125 179.843 49.0771Z" fill="#455A64"/>
<path d="M183.135 97.207C183.016 97.2792 182.876 97.2769 182.743 97.2005C182.607 97.0775 182.499 96.8828 182.441 96.6577C182.383 96.4325 182.381 96.1945 182.435 95.9941C186.081 82.6462 183.551 62.6087 181.973 57.235C181.905 57.0128 181.892 56.771 181.937 56.5617C181.981 56.3523 182.08 56.1919 182.211 56.1151C182.277 56.0806 182.349 56.0686 182.422 56.08C182.495 56.0914 182.569 56.1258 182.638 56.1813C182.707 56.2367 182.77 56.312 182.824 56.4026C182.878 56.4932 182.921 56.5973 182.951 56.7086C184.596 62.2771 187.244 83.0528 183.47 96.8637C183.395 97.0449 183.276 97.1668 183.135 97.207Z" fill="#455A64"/>
<path d="M234.072 82.4376C225.604 80.2861 217.34 75.8957 209.876 69.5814C203.931 53.3011 202.204 46.207 202.354 33.3389C202.532 30.2508 203.286 27.3609 204.561 24.8853C205.086 24.0057 205.888 23.4473 206.814 23.3163C207.74 23.1853 208.726 23.4908 209.585 24.1747C210.728 25.5474 211.492 27.3111 211.736 29.1435L215.358 45.3479C214.896 39.2978 215.69 33.4398 217.667 28.3288C218.403 26.4453 219.725 24.4131 221.517 25.1124C223.309 25.8118 224.281 29.3408 224.261 31.9462C224.272 38.7109 223.368 45.2592 221.587 51.3283C225.768 47.0016 230.583 43.6268 235.856 41.3273C236.351 41.0049 236.918 40.8419 237.513 40.8513C238.109 40.8607 238.715 41.0421 239.286 41.3813C241.109 42.9102 240.371 46.1754 239.253 48.0529C236.69 52.4073 233.366 55.9511 229.472 58.4798C235.374 56.7113 241.737 56.7034 248.079 58.4565C248.574 58.5254 249.069 58.7147 249.533 59.0136C249.997 59.3124 250.422 59.7146 250.782 60.1966C252.033 62.2693 250.47 64.6925 248.845 65.7329C244.474 68.4521 239.502 69.8047 234.3 69.6891C237.598 70.8069 245.395 74.4037 245.555 77.7621C245.716 81.1204 239.57 83.9453 234.072 82.4376Z" fill="#BA68C8"/>
<path opacity="0.15" d="M234.072 82.4376C225.604 80.2861 217.34 75.8957 209.876 69.5814C203.931 53.3011 202.204 46.207 202.354 33.3389C202.532 30.2508 203.286 27.3609 204.561 24.8853C205.086 24.0057 205.888 23.4473 206.814 23.3163C207.74 23.1853 208.726 23.4908 209.585 24.1747C210.728 25.5474 211.492 27.3111 211.736 29.1435L215.358 45.3479C214.896 39.2978 215.69 33.4398 217.667 28.3288C218.403 26.4453 219.725 24.4131 221.517 25.1124C223.309 25.8118 224.281 29.3408 224.261 31.9462C224.272 38.7109 223.368 45.2592 221.587 51.3283C225.768 47.0016 230.583 43.6268 235.856 41.3273C236.351 41.0049 236.918 40.8419 237.513 40.8513C238.109 40.8607 238.715 41.0421 239.286 41.3813C241.109 42.9102 240.371 46.1754 239.253 48.0529C236.69 52.4073 233.366 55.9511 229.472 58.4798C235.374 56.7113 241.737 56.7034 248.079 58.4565C248.574 58.5254 249.069 58.7147 249.533 59.0136C249.997 59.3124 250.422 59.7146 250.782 60.1966C252.033 62.2693 250.47 64.6925 248.845 65.7329C244.474 68.4521 239.502 69.8047 234.3 69.6891C237.598 70.8069 245.395 74.4037 245.555 77.7621C245.716 81.1204 239.57 83.9453 234.072 82.4376Z" fill="black"/>
<path d="M10.9258 156.835C-1.1638 150.049 -10.8447 140.143 -16.697 128.569C-21.5682 119.469 -24.6091 109.787 -25.6686 100.006C-25.8587 98.1633 -25.9186 96.3218 -25.8481 94.4928C-25.6818 93.3854 -25.6593 92.2534 -25.781 91.1188C-25.7718 90.6552 -26.8301 90.0905 -27.2721 90.5131C-29.3364 92.5625 -28.8943 96.5007 -28.6879 99.2039C-28.2967 103.845 -27.421 108.481 -26.0724 113.05C-23.2027 124.085 -17.3021 134.528 -8.92652 143.394C-3.29574 149.017 3.33851 153.763 10.6544 157.403C10.9718 157.433 10.9516 156.992 10.6651 156.862L10.9258 156.835Z" fill="#455A64"/>
<path d="M-12.1275 141.981C-16.654 152.731 -17.2935 164.816 -13.9571 176.553C-8.50032 196.725 -0.347891 205.891 8.68828 206.769C11.1518 207.103 13.5997 206.728 15.6922 205.697C17.7847 204.666 19.4179 203.03 20.365 201.015C20.365 201.015 29.8396 205.29 33.7626 201.753C37.6855 198.216 36.2715 188.809 36.2715 188.809C36.2715 188.809 41.8207 190.859 44.0698 190.13C46.3189 189.401 51.2178 172.719 42.9943 162.881C34.7708 153.042 7.04515 137.288 -12.1275 141.981Z" fill="#BA68C8"/>
<path opacity="0.25" d="M-12.1275 141.981C-16.654 152.731 -17.2935 164.816 -13.9571 176.553C-8.50032 196.725 -0.347891 205.891 8.68828 206.769C11.1518 207.103 13.5997 206.728 15.6922 205.697C17.7847 204.666 19.4179 203.03 20.365 201.015C20.365 201.015 29.8396 205.29 33.7626 201.753C37.6855 198.216 36.2715 188.809 36.2715 188.809C36.2715 188.809 41.8207 190.859 44.0698 190.13C46.3189 189.401 51.2178 172.719 42.9943 162.881C34.7708 153.042 7.04515 137.288 -12.1275 141.981Z" fill="black"/>
<path d="M-7.54009 140.499C3.54753 138.771 15.1506 139.569 26.3162 142.826C45.6519 148.242 52.3014 154.065 53.377 163.053C54.4526 172.042 47.7701 173.768 40.0121 166.506C40.0121 166.506 39.3556 171.259 36.2309 172.106C34.6221 172.409 32.9263 172.351 31.2777 171.936C29.6291 171.521 28.0731 170.761 26.7329 169.716C25.4341 168.334 12.4219 145.675 -7.54009 140.499Z" fill="#BA68C8"/>
<path opacity="0.15" d="M-7.54009 140.499C3.54753 138.771 15.1506 139.569 26.3162 142.826C45.6519 148.242 52.3014 154.065 53.377 163.053C54.4526 172.042 47.7701 173.768 40.0121 166.506C40.0121 166.506 39.3556 171.259 36.2309 172.106C34.6221 172.409 32.9263 172.351 31.2777 171.936C29.6291 171.521 28.0731 170.761 26.7329 169.716C25.4341 168.334 12.4219 145.675 -7.54009 140.499Z" fill="black"/>
<path d="M-12.9794 148.586C-18.7085 155.327 -22.6179 163.22 -24.4407 171.726C-26.54 184.452 -24.014 195.44 -15.7738 192.776C-15.7738 192.776 -15.6473 198.086 -10.8788 199.386C-6.11023 200.686 4.34333 191.226 4.12427 180.377C3.90521 169.528 -12.9794 148.586 -12.9794 148.586Z" fill="#BA68C8"/>
<path opacity="0.15" d="M-12.9794 148.586C-18.7085 155.327 -22.6179 163.22 -24.4407 171.726C-26.54 184.452 -24.014 195.44 -15.7738 192.776C-15.7738 192.776 -15.6473 198.086 -10.8788 199.386C-6.11023 200.686 4.34333 191.226 4.12427 180.377C3.90521 169.528 -12.9794 148.586 -12.9794 148.586Z" fill="black"/>
<path d="M-8.79467 140.706C2.29756 140.7 16.8133 148.623 23.6995 155.089C31.9952 162.923 36.5186 175.166 32.8312 182.484C29.1438 189.802 19.1831 190.995 19.1831 190.995C19.1831 190.995 17.1374 197.855 7.08276 196.601C0.173456 195.753 -8.15695 180.909 -11.9127 168.278C-15.6685 155.646 -13.2203 145.411 -8.79467 140.706Z" fill="#BA68C8"/>
<path d="M-16.423 135.093C-13.2316 136.296 -9.71588 136.31 -0.947103 135.975C7.82167 135.641 15.669 136.105 16.3428 141.204C17.0167 146.304 2.56818 143.361 2.56818 143.361C2.56818 143.361 10.1938 152.752 5.92714 156.172C0.348597 160.708 -8.1618 148.689 -8.1618 148.689C-8.1618 148.689 -8.70992 160.379 -13.8684 160.077C-19.0268 159.774 -20.0249 154.389 -18.3209 148.455C-16.6168 142.522 -15.1586 137.988 -16.423 135.093Z" fill="#455A64"/>
<path d="M68.6537 285.017C69.7154 285.538 71.1193 285.183 71.7901 284.236L82.9475 268.493C99.4217 245.249 131.66 236.491 156.338 248.609C181.709 261.068 189.686 290.575 173.738 313.077L162.58 328.819C161.91 329.766 162.215 330.96 163.277 331.482C164.338 332.003 165.742 331.648 166.413 330.701L177.57 314.959C194.822 290.618 186.239 258.649 158.795 245.172C131.972 232.001 96.9824 241.401 79.115 266.611L67.9576 282.354C67.2868 283.301 67.592 284.495 68.6537 285.017Z" stroke="black"/>
<rect width="23" height="51" rx="10" transform="matrix(-0.848536 -0.529138 -0.529138 0.848536 178.824 304.285)" fill="#455A64"/>
<rect width="23" height="51" rx="10" transform="matrix(-0.848007 -0.529985 -0.529985 0.848007 111.531 268.24)" fill="#455A64"/>
</svg>
