<svg width="374" height="520" viewBox="0 0 374 520" fill="none" xmlns="http://www.w3.org/2000/svg">
<path d="M225.776 486.545C225.743 486.704 225.77 486.871 225.852 487.011C225.935 487.152 226.067 487.257 226.222 487.305C255.398 496.113 286.514 482.98 305.467 453.856C305.559 453.709 305.591 453.532 305.557 453.361C305.523 453.19 305.425 453.039 305.283 452.939C305.132 452.849 304.953 452.821 304.782 452.86C304.611 452.899 304.462 453.002 304.366 453.148C285.727 481.774 255.215 494.671 226.615 486.047C226.445 485.997 226.262 486.016 226.105 486.1C225.949 486.183 225.831 486.324 225.776 486.493V486.545Z" fill="#455A64"/>
<path d="M283.84 452.572C283.814 452.921 283.814 453.271 283.84 453.62C283.908 456.046 284.332 458.448 285.099 460.75C286.725 465.109 286.936 469.87 285.702 474.355C285.676 474.459 285.679 474.568 285.712 474.67C285.744 474.772 285.804 474.863 285.885 474.932C285.975 474.991 286.079 475.022 286.186 475.022C286.294 475.022 286.398 474.991 286.488 474.932C291.967 471.446 299.962 460.882 296.423 452.31C294.169 446.857 290.63 446.883 289.188 447.067C287.853 447.354 286.633 448.031 285.681 449.01C284.73 449.99 284.089 451.229 283.84 452.572ZM287.222 472.573C287.822 468.511 287.426 464.364 286.069 460.488C285.331 458.279 284.916 455.975 284.836 453.647C284.884 452.369 285.352 451.142 286.167 450.156C286.982 449.171 288.099 448.481 289.345 448.194C291.836 447.748 294.064 449.4 295.453 452.729C298.677 460.593 291.573 469.663 287.065 473.228L287.222 472.573Z" fill="#455A64"/>
<path d="M285.598 474.408C285.561 474.476 285.542 474.553 285.542 474.631C285.542 474.708 285.561 474.785 285.598 474.854C285.696 474.95 285.828 475.003 285.965 475.003C286.102 475.003 286.234 474.95 286.332 474.854C290.867 470.738 293.278 459.99 291.077 453.542C291.034 453.41 290.942 453.3 290.819 453.236C290.696 453.172 290.553 453.16 290.421 453.201C290.287 453.249 290.177 453.346 290.114 453.473C290.05 453.6 290.038 453.747 290.08 453.882C292.361 460.541 289.53 470.554 285.624 474.067C285.584 474.176 285.575 474.294 285.598 474.408Z" fill="#455A64"/>
<path d="M289.449 470.895C289.399 471.049 289.399 471.214 289.449 471.367C289.546 471.483 289.679 471.562 289.827 471.59C289.975 471.619 290.129 471.596 290.262 471.524C293.565 469.427 303.369 472.311 309.136 474.749C310.831 475.517 312.682 475.881 314.543 475.813C316.403 475.745 318.222 475.246 319.857 474.355C320.88 473.684 321.717 472.765 322.29 471.683C322.863 470.602 323.153 469.393 323.134 468.169C323.145 466.956 322.794 465.767 322.126 464.754C321.459 463.74 320.504 462.949 319.385 462.481C313.435 459.545 301.036 461.38 289.58 470.554C289.497 470.649 289.45 470.77 289.449 470.895ZM321.876 469.506C321.74 470.299 321.436 471.053 320.984 471.718C320.532 472.383 319.942 472.942 319.254 473.359C317.785 474.154 316.151 474.596 314.481 474.651C312.811 474.705 311.152 474.371 309.634 473.674C309.109 473.464 298.965 469.191 292.752 469.637C303.054 462.349 313.723 460.96 318.966 463.529C319.881 463.904 320.664 464.543 321.215 465.365C321.766 466.186 322.06 467.154 322.059 468.143C322.053 468.603 321.991 469.061 321.876 469.506Z" fill="#455A64"/>
<path d="M289.449 470.895C289.398 471.03 289.398 471.179 289.449 471.315C289.53 471.448 289.661 471.545 289.812 471.584C289.964 471.623 290.125 471.602 290.261 471.524C299.331 466.282 312.858 466.989 316.475 468.143C316.625 468.193 316.788 468.183 316.93 468.114C317.072 468.046 317.182 467.924 317.235 467.776C317.259 467.702 317.268 467.624 317.261 467.546C317.255 467.469 317.232 467.393 317.195 467.325C317.159 467.256 317.108 467.196 317.048 467.147C316.987 467.099 316.917 467.063 316.842 467.042C313.094 465.836 299.069 465.076 289.685 470.502C289.561 470.6 289.477 470.74 289.449 470.895Z" fill="#455A64"/>
<path d="M298.65 431.942C299.99 438.741 302.819 445.16 306.933 450.737C317.681 454.118 322.373 454.879 330.919 453.542C332.971 453.104 334.898 452.208 336.555 450.92C337.144 450.403 337.523 449.688 337.62 448.91C337.717 448.132 337.524 447.345 337.079 446.7C336.18 445.884 335.017 445.419 333.802 445.389L323.081 443.921C327.093 443.733 330.991 442.524 334.405 440.409C335.664 439.622 337.027 438.338 336.581 436.922C336.135 435.507 333.802 435.035 332.072 435.297C327.581 435.926 323.223 437.289 319.175 439.334C322.092 435.469 324.383 431.17 325.964 426.594C326.184 426.154 326.298 425.67 326.298 425.178C326.298 424.687 326.184 424.202 325.964 423.763C324.968 422.4 322.793 423.317 321.534 424.418C318.616 426.948 316.229 430.03 314.509 433.488C315.745 428.441 315.816 423.179 314.719 418.101C314.678 417.698 314.558 417.307 314.364 416.951C314.17 416.596 313.908 416.282 313.591 416.03C312.228 415.191 310.603 416.711 309.895 418.153C308.044 422.023 307.094 426.262 307.117 430.552C306.409 427.931 304.102 421.823 301.874 422.006C299.646 422.19 297.706 427.538 298.65 431.942Z" fill="#BA68C8"/>
<path opacity="0.15" d="M298.65 431.942C299.99 438.741 302.819 445.16 306.933 450.737C317.681 454.118 322.373 454.879 330.919 453.542C332.971 453.104 334.898 452.208 336.555 450.92C337.144 450.403 337.523 449.688 337.62 448.91C337.717 448.132 337.524 447.345 337.079 446.7C336.18 445.884 335.017 445.419 333.802 445.389L323.081 443.921C327.093 443.733 330.991 442.524 334.405 440.409C335.664 439.622 337.027 438.338 336.581 436.922C336.135 435.507 333.802 435.035 332.072 435.297C327.581 435.926 323.223 437.289 319.175 439.334C322.092 435.469 324.383 431.17 325.964 426.594C326.184 426.154 326.298 425.67 326.298 425.178C326.298 424.687 326.184 424.202 325.964 423.763C324.968 422.4 322.793 423.317 321.534 424.418C318.616 426.948 316.229 430.03 314.509 433.488C315.745 428.441 315.816 423.179 314.719 418.101C314.678 417.698 314.558 417.307 314.364 416.951C314.17 416.596 313.908 416.282 313.591 416.03C312.228 415.191 310.603 416.711 309.895 418.153C308.044 422.023 307.094 426.262 307.117 430.552C306.409 427.931 304.102 421.823 301.874 422.006C299.646 422.19 297.706 427.538 298.65 431.942Z" fill="black"/>
<path d="M109.152 410.7C100.766 425.684 97.5895 443.642 100.089 461.942C101.748 476.463 105.949 490.86 112.483 504.415C113.725 506.965 115.114 509.448 116.642 511.851C117.708 513.245 118.629 514.743 119.388 516.314C119.766 516.928 119.008 518.2 118.171 517.854C114.2 516.137 111.587 510.672 109.683 506.968C106.455 500.591 103.783 493.982 101.702 487.23C96.2346 471.114 94.685 454.298 97.199 438.366C99.1566 428.106 102.95 418.521 108.394 410.076C108.731 409.88 109.057 410.477 108.834 410.792L109.152 410.7Z" fill="#455A64"/>
<path d="M105.605 440.39C91.4755 428.116 80.9141 412.031 75.3897 394.371C65.5649 364.164 67.8866 347.521 77.9843 341.68C80.6603 339.959 83.8922 339.208 87.2312 339.533C90.5701 339.857 93.8506 341.24 96.617 343.49C96.617 343.49 104.485 332.809 112.045 335.595C119.605 338.382 125.54 351.887 125.54 351.887C125.54 351.887 130.516 346.248 133.798 346.082C137.079 345.915 156.462 366.054 154.601 383.648C152.74 401.242 132.344 436.903 105.605 440.39Z" fill="#BA68C8"/>
<path opacity="0.25" d="M105.605 440.39C91.4755 428.116 80.9141 412.031 75.3897 394.371C65.5649 364.164 67.8866 347.521 77.9843 341.68C80.6603 339.959 83.8922 339.208 87.2312 339.533C90.5701 339.857 93.8506 341.24 96.617 343.49C96.617 343.49 104.485 332.809 112.045 335.595C119.605 338.382 125.54 351.887 125.54 351.887C125.54 351.887 130.516 346.248 133.798 346.082C137.079 345.915 156.462 366.054 154.601 383.648C152.74 401.242 132.344 436.903 105.605 440.39Z" fill="black"/>
<path d="M108.481 440.108C123.969 436.529 137.972 429.091 149.338 418.404C169.212 400.218 172.694 388.35 166.445 375.027C160.196 361.703 150.281 362.889 146.616 377.399C146.616 377.399 141.762 371.02 137.092 371.518C134.8 371.963 132.704 372.967 130.97 374.451C129.236 375.935 127.911 377.858 127.1 380.068C126.628 382.734 129.351 421.921 108.481 440.108Z" fill="#BA68C8"/>
<path opacity="0.15" d="M108.481 440.108C123.969 436.529 137.972 429.091 149.338 418.404C169.212 400.218 172.694 388.35 166.445 375.027C160.196 361.703 150.281 362.889 146.616 377.399C146.616 377.399 141.762 371.02 137.092 371.518C134.8 371.963 132.704 372.967 130.97 374.451C129.236 375.935 127.911 377.858 127.1 380.068C126.628 382.734 129.351 421.921 108.481 440.108Z" fill="black"/>
<path d="M95.5209 434.333C83.8003 428.162 73.212 419.581 64.4793 409.175C52.1179 393.304 46.3044 377.498 57.631 377.041C57.631 377.041 53.596 369.933 57.9151 365.897C62.2343 361.861 81.3861 369.351 89.6747 383.855C97.9633 398.36 95.5209 434.333 95.5209 434.333Z" fill="#BA68C8"/>
<path opacity="0.15" d="M95.5209 434.333C83.8003 428.162 73.212 419.581 64.4793 409.175C52.1179 393.304 46.3044 377.498 57.631 377.041C57.631 377.041 53.596 369.933 57.9151 365.897C62.2343 361.861 81.3861 369.351 89.6747 383.855C97.9633 398.36 95.5209 434.333 95.5209 434.333Z" fill="black"/>
<path d="M109.159 440.578C122.279 434.942 133.062 416.852 135.996 404.612C139.494 389.807 134.981 370.964 124.726 362.955C114.472 354.945 101.733 358.402 101.733 358.402C101.733 358.402 93.7887 350.175 82.9102 356.986C75.4232 361.647 77.53 385.94 83.2634 404.916C88.9968 423.892 100.136 436.474 109.159 440.578Z" fill="#BA68C8"/>
<path d="M99.2329 453.548C102.165 450.202 106.476 448.325 117.536 444.156C128.596 439.987 137.863 435.201 134.482 427.802C131.101 420.404 115.762 432.099 115.762 432.099C115.762 432.099 117.387 415.102 109.317 412.632C98.7119 409.312 98.1683 430.407 98.1683 430.407C98.1683 430.407 87.8439 414.551 81.75 417.694C75.6562 420.836 78.8742 428.8 85.8681 436.095C92.8619 443.39 98.3982 448.882 99.2329 453.548Z" fill="#455A64"/>
<path d="M196.292 191.62C196.464 191.667 196.654 191.623 196.824 191.498C196.993 191.373 197.131 191.174 197.21 190.942C211.687 147.301 202.022 101.163 172.593 73.4391C172.444 73.3042 172.252 73.2591 172.056 73.313C171.86 73.3669 171.676 73.5158 171.542 73.7291C171.418 73.9551 171.357 74.2228 171.374 74.4768C171.39 74.7307 171.481 74.9513 171.629 75.0927C200.552 102.356 210.051 147.6 195.871 190.378C195.789 190.633 195.78 190.905 195.848 191.137C195.916 191.369 196.054 191.543 196.234 191.621L196.292 191.62Z" fill="#455A64"/>
<path d="M161.676 105.769C162.114 105.803 162.558 105.796 163.005 105.749C166.09 105.597 169.21 104.894 172.265 103.663C178.08 101.059 184.15 100.641 189.61 102.466C189.737 102.504 189.875 102.497 190.01 102.445C190.145 102.393 190.271 102.298 190.374 102.171C190.464 102.031 190.523 101.868 190.542 101.702C190.561 101.536 190.541 101.375 190.482 101.237C187.053 92.8181 175.11 80.6377 163.612 86.2845C156.298 89.8816 155.693 95.3626 155.666 97.5923C155.789 99.6547 156.426 101.532 157.495 102.987C158.565 104.442 160.02 105.41 161.676 105.769ZM187.626 100.146C182.587 99.2947 177.262 99.9878 172.107 102.165C169.175 103.351 166.181 104.038 163.217 104.206C161.607 104.156 160.137 103.455 159.035 102.212C157.934 100.969 157.261 99.2518 157.122 97.327C157.006 93.4782 159.5 89.995 163.969 87.7788C174.513 82.6328 184.724 93.4616 188.428 100.377L187.626 100.146Z" fill="#455A64"/>
<path d="M190.249 102.878C190.331 102.936 190.426 102.965 190.526 102.964C190.626 102.962 190.728 102.93 190.823 102.87C190.965 102.711 191.059 102.5 191.084 102.28C191.11 102.06 191.065 101.851 190.959 101.696C186.498 94.5197 173.102 90.8662 164.389 94.511C164.211 94.5809 164.053 94.731 163.948 94.9286C163.843 95.1262 163.8 95.3552 163.829 95.5657C163.866 95.7788 163.971 95.9531 164.123 96.0522C164.275 96.1514 164.461 96.1678 164.644 96.0979C173.641 92.3233 186.014 96.6618 189.815 102.843C189.948 102.905 190.099 102.917 190.249 102.878Z" fill="#455A64"/>
<path d="M184.448 97.4898C184.609 97.5616 184.791 97.5587 184.968 97.4814C185.111 97.3354 185.219 97.135 185.274 96.914C185.329 96.6931 185.328 96.465 185.27 96.2684C183.481 91.3869 188.212 76.7353 191.812 68.1036C192.928 65.5646 193.623 62.8018 193.842 60.0324C194.061 57.2631 193.799 54.5628 193.076 52.1439C192.498 50.632 191.617 49.4019 190.515 48.568C189.414 47.7341 188.127 47.3235 186.775 47.3743C185.439 47.3797 184.073 47.9233 182.85 48.9355C181.628 49.9478 180.604 51.383 179.911 53.058C175.732 61.9719 175.792 80.4043 184.093 97.3007C184.184 97.4228 184.31 97.4899 184.448 97.4898ZM188.049 49.2243C188.902 49.4116 189.685 49.851 190.347 50.5127C191.008 51.1744 191.532 52.043 191.882 53.0595C192.526 55.2337 192.755 57.6593 192.551 60.1448C192.346 62.6304 191.715 65.1076 190.706 67.381C190.392 68.1655 184.076 83.3493 183.584 92.5934C177.181 77.3811 177.338 61.5173 181 53.6639C181.558 52.2939 182.387 51.1163 183.38 50.2813C184.373 49.4462 185.485 48.9916 186.576 48.9753C187.082 48.9761 187.577 49.0598 188.049 49.2243Z" fill="#455A64"/>
<path d="M184.758 97.3542C184.877 97.4264 185.016 97.4241 185.15 97.3477C185.286 97.2247 185.394 97.03 185.452 96.8049C185.509 96.5797 185.511 96.3417 185.458 96.1413C181.812 82.7934 184.342 62.7559 185.92 57.3822C185.987 57.16 186 56.9183 185.956 56.7089C185.911 56.4995 185.813 56.3392 185.682 56.2623C185.616 56.2278 185.544 56.2158 185.471 56.2272C185.397 56.2386 185.324 56.273 185.255 56.3285C185.186 56.3839 185.122 56.4592 185.068 56.5498C185.014 56.6405 184.971 56.7445 184.941 56.8558C183.297 62.4243 180.649 83.2001 184.423 97.0109C184.498 97.1922 184.617 97.314 184.758 97.3542Z" fill="#455A64"/>
<path d="M133.82 82.5848C142.289 80.4334 150.552 76.0429 158.016 69.7286C163.961 53.4483 165.689 46.3542 165.538 33.4861C165.361 30.398 164.606 27.5082 163.331 25.0325C162.806 24.1529 162.005 23.5945 161.079 23.4635C160.153 23.3325 159.166 23.638 158.308 24.3219C157.165 25.6946 156.401 27.4583 156.157 29.2908L152.535 45.4951C152.997 39.445 152.202 33.587 150.226 28.476C149.489 26.5925 148.167 24.5603 146.376 25.2597C144.584 25.959 143.611 29.488 143.631 32.0934C143.621 38.8581 144.524 45.4064 146.305 51.4756C142.124 47.1488 137.309 43.774 132.037 41.4745C131.542 41.1521 130.974 40.9892 130.379 40.9985C129.784 41.0079 129.177 41.1893 128.607 41.5285C126.784 43.0574 127.522 46.3226 128.639 48.2001C131.202 52.5545 134.527 56.0984 138.421 58.627C132.518 56.8586 126.155 56.8506 119.813 58.6037C119.318 58.6726 118.824 58.862 118.36 59.1608C117.896 59.4596 117.471 59.8618 117.11 60.3438C115.86 62.4165 117.422 64.8397 119.047 65.8801C123.418 68.5993 128.391 69.9519 133.592 69.8363C130.295 70.9541 122.498 74.5509 122.337 77.9093C122.176 81.2676 128.322 84.0925 133.82 82.5848Z" fill="#BA68C8"/>
<path opacity="0.15" d="M133.82 82.5848C142.289 80.4334 150.552 76.0429 158.016 69.7286C163.961 53.4483 165.689 46.3542 165.538 33.4861C165.361 30.398 164.606 27.5082 163.331 25.0325C162.806 24.1529 162.005 23.5945 161.079 23.4635C160.153 23.3325 159.166 23.638 158.308 24.3219C157.165 25.6946 156.401 27.4583 156.157 29.2908L152.535 45.4951C152.997 39.445 152.202 33.587 150.226 28.476C149.489 26.5925 148.167 24.5603 146.376 25.2597C144.584 25.959 143.611 29.488 143.631 32.0934C143.621 38.8581 144.524 45.4064 146.305 51.4756C142.124 47.1488 137.309 43.774 132.037 41.4745C131.542 41.1521 130.974 40.9892 130.379 40.9985C129.784 41.0079 129.177 41.1893 128.607 41.5285C126.784 43.0574 127.522 46.3226 128.639 48.2001C131.202 52.5545 134.527 56.0984 138.421 58.627C132.518 56.8586 126.155 56.8506 119.813 58.6037C119.318 58.6726 118.824 58.862 118.36 59.1608C117.896 59.4596 117.471 59.8618 117.11 60.3438C115.86 62.4165 117.422 64.8397 119.047 65.8801C123.418 68.5993 128.391 69.9519 133.592 69.8363C130.295 70.9541 122.498 74.5509 122.337 77.9093C122.176 81.2676 128.322 84.0925 133.82 82.5848Z" fill="black"/>
<path d="M356.967 156.982C369.056 150.196 378.737 140.29 384.59 128.717C389.461 119.616 392.502 109.935 393.561 100.153C393.751 98.3105 393.811 96.4691 393.741 94.6401C393.574 93.5327 393.552 92.4007 393.674 91.2661C393.664 90.8025 394.723 90.2378 395.165 90.6604C397.229 92.7098 396.787 96.648 396.58 99.3512C396.189 103.992 395.314 108.628 393.965 113.198C391.095 124.233 385.195 134.675 376.819 143.542C371.188 149.164 364.554 153.91 357.238 157.55C356.921 157.58 356.941 157.14 357.227 157.009L356.967 156.982Z" fill="#455A64"/>
<path d="M380.02 142.128C384.547 152.879 385.186 164.963 381.85 176.701C376.393 196.872 368.24 206.038 359.204 206.916C356.741 207.25 354.293 206.876 352.2 205.845C350.108 204.813 348.475 203.177 347.528 201.162C347.528 201.162 338.053 205.437 334.13 201.9C330.207 198.363 331.621 188.956 331.621 188.956C331.621 188.956 326.072 191.006 323.823 190.277C321.574 189.548 316.675 172.867 324.898 163.028C333.122 153.189 360.847 137.436 380.02 142.128Z" fill="#BA68C8"/>
<path opacity="0.25" d="M380.02 142.128C384.547 152.879 385.186 164.963 381.85 176.701C376.393 196.872 368.24 206.038 359.204 206.916C356.741 207.25 354.293 206.876 352.2 205.845C350.108 204.813 348.475 203.177 347.528 201.162C347.528 201.162 338.053 205.437 334.13 201.9C330.207 198.363 331.621 188.956 331.621 188.956C331.621 188.956 326.072 191.006 323.823 190.277C321.574 189.548 316.675 172.867 324.898 163.028C333.122 153.189 360.847 137.436 380.02 142.128Z" fill="black"/>
<path d="M375.433 140.646C364.345 138.918 352.742 139.716 341.576 142.974C322.241 148.389 315.591 154.212 314.516 163.201C313.44 172.189 320.122 173.915 327.88 166.653C327.88 166.653 328.537 171.406 331.662 172.253C333.27 172.556 334.966 172.498 336.615 172.084C338.263 171.669 339.819 170.909 341.16 169.863C342.459 168.481 355.471 145.822 375.433 140.646Z" fill="#BA68C8"/>
<path opacity="0.15" d="M375.433 140.646C364.345 138.918 352.742 139.716 341.576 142.974C322.241 148.389 315.591 154.212 314.516 163.201C313.44 172.189 320.122 173.915 327.88 166.653C327.88 166.653 328.537 171.406 331.662 172.253C333.27 172.556 334.966 172.498 336.615 172.084C338.263 171.669 339.819 170.909 341.16 169.863C342.459 168.481 355.471 145.822 375.433 140.646Z" fill="black"/>
<path d="M380.872 148.733C386.601 155.474 390.511 163.368 392.333 171.874C394.433 184.599 391.907 195.587 383.666 192.923C383.666 192.923 383.54 198.233 378.771 199.533C374.003 200.834 363.549 191.374 363.768 180.524C363.987 169.675 380.872 148.733 380.872 148.733Z" fill="#BA68C8"/>
<path opacity="0.15" d="M380.872 148.733C386.601 155.474 390.511 163.368 392.333 171.874C394.433 184.599 391.907 195.587 383.666 192.923C383.666 192.923 383.54 198.233 378.771 199.533C374.003 200.834 363.549 191.374 363.768 180.524C363.987 169.675 380.872 148.733 380.872 148.733Z" fill="black"/>
<path d="M376.687 140.853C365.595 140.847 351.079 148.77 344.193 155.236C335.897 163.07 331.374 175.314 335.061 182.631C338.749 189.949 348.709 191.142 348.709 191.142C348.709 191.142 350.755 198.002 360.81 196.748C367.719 195.901 376.05 181.056 379.805 168.425C383.561 155.794 381.113 145.559 376.687 140.853Z" fill="#BA68C8"/>
<path d="M384.316 135.24C381.124 136.443 377.608 136.457 368.84 136.123C360.071 135.788 352.224 136.253 351.55 141.352C350.876 146.451 365.324 143.509 365.324 143.509C365.324 143.509 357.699 152.899 361.965 156.319C367.544 160.856 376.054 148.836 376.054 148.836C376.054 148.836 376.603 160.526 381.761 160.224C386.919 159.921 387.918 154.536 386.213 148.603C384.509 142.669 383.051 138.135 384.316 135.24Z" fill="#455A64"/>
<path d="M275.997 279.58C274.91 280.046 273.526 279.618 272.905 278.639L262.572 262.342C247.317 238.281 215.572 227.875 190.303 238.707C164.325 249.843 154.839 278.9 169.607 302.193L179.94 318.489C180.561 319.469 180.195 320.647 179.108 321.113C178.02 321.579 176.637 321.151 176.015 320.172L165.683 303.875C149.708 278.679 159.925 247.194 188.026 235.148C215.491 223.375 249.951 234.564 266.497 260.66L276.829 276.956C277.45 277.936 277.084 279.114 275.997 279.58Z" stroke="black"/>
<rect x="169.107" y="297.285" width="23" height="51" rx="10" transform="rotate(-31.9472 169.107 297.285)" fill="#455A64"/>
<rect x="236.4" y="261.24" width="23" height="51" rx="10" transform="rotate(-32.0045 236.4 261.24)" fill="#455A64"/>
</svg>
