<svg width="442" height="560" viewBox="0 0 442 560" fill="none" xmlns="http://www.w3.org/2000/svg">
<path d="M356.56 242.208C355.868 242.839 355.359 243.663 355.097 244.574C354.836 245.486 354.833 246.445 355.089 247.329C355.345 248.214 355.849 248.985 356.537 249.545C357.225 250.105 358.067 250.43 358.955 250.477C359.843 250.524 360.739 250.291 361.528 249.81C362.318 249.328 362.966 248.618 363.391 247.769C363.816 246.92 363.999 245.971 363.917 245.041C363.835 244.112 363.491 243.243 362.928 242.545C362.556 242.077 362.095 241.696 361.572 241.425C361.049 241.155 360.474 240.999 359.881 240.968C359.289 240.936 358.69 241.03 358.12 241.243C357.549 241.456 357.019 241.784 356.56 242.208Z" fill="#BA68C8"/>
<path d="M342.183 260.288C341.491 260.92 340.982 261.743 340.72 262.655C340.459 263.566 340.456 264.525 340.712 265.41C340.968 266.295 341.472 267.066 342.16 267.626C342.848 268.186 343.69 268.51 344.578 268.557C345.466 268.604 346.362 268.372 347.151 267.89C347.941 267.408 348.589 266.698 349.014 265.849C349.44 265.001 349.622 264.052 349.54 263.122C349.458 262.192 349.114 261.323 348.551 260.625C348.179 260.157 347.718 259.777 347.195 259.506C346.672 259.235 346.097 259.079 345.504 259.048C344.912 259.017 344.313 259.11 343.743 259.323C343.172 259.536 342.642 259.864 342.183 260.288Z" fill="#BA68C8"/>
<path d="M339.98 237.066C339.387 237.586 338.947 238.274 338.715 239.039C338.484 239.805 338.473 240.614 338.683 241.362C338.893 242.111 339.314 242.764 339.893 243.238C340.473 243.711 341.182 243.984 341.932 244.021C342.681 244.057 343.436 243.856 344.098 243.443C344.76 243.029 345.3 242.423 345.647 241.702C345.995 240.981 346.135 240.178 346.048 239.397C345.962 238.616 345.653 237.892 345.163 237.319C344.531 236.581 343.64 236.142 342.674 236.095C341.709 236.048 340.744 236.396 339.98 237.066Z" fill="#BA68C8"/>
<path d="M324.008 241C323.424 241.519 322.991 242.202 322.765 242.962C322.54 243.721 322.532 244.522 322.742 245.262C322.952 246.003 323.372 246.648 323.946 247.116C324.52 247.584 325.223 247.854 325.966 247.89C326.708 247.926 327.455 247.727 328.111 247.319C328.767 246.911 329.303 246.312 329.65 245.599C329.996 244.886 330.137 244.092 330.056 243.317C329.974 242.543 329.672 241.824 329.19 241.253C328.566 240.503 327.673 240.056 326.704 240.008C325.735 239.961 324.767 240.317 324.008 241Z" fill="#BA68C8"/>
<path d="M322.769 225.638C322.176 226.158 321.735 226.846 321.504 227.611C321.273 228.377 321.262 229.186 321.471 229.934C321.681 230.683 322.103 231.336 322.682 231.81C323.261 232.283 323.971 232.556 324.721 232.592C325.47 232.629 326.224 232.428 326.886 232.015C327.549 231.601 328.088 230.995 328.436 230.274C328.784 229.553 328.923 228.75 328.837 227.969C328.751 227.188 328.442 226.464 327.951 225.891C327.323 225.147 326.431 224.704 325.464 224.657C324.497 224.61 323.531 224.962 322.769 225.638Z" fill="#BA68C8"/>
<path d="M386.344 393.704C397.525 360.499 394.911 324.905 381.744 294.181C378.21 285.907 373.907 278.063 368.896 270.764C364.02 263.064 357.963 256.325 350.96 250.808C350.96 250.808 350.813 250.78 350.926 250.967C355.457 257.342 360.685 262.969 365.101 269.405C369.492 275.736 373.405 282.442 376.806 289.464C383.792 303.863 388.19 319.639 389.786 336.019C391.351 352.875 389.608 370.077 384.667 386.545C379.725 403.013 371.693 418.391 361.074 431.71C355.031 439.119 348.127 445.683 340.547 451.23C332.83 456.584 324.494 460.779 315.791 463.689C314.149 464.312 314.565 467.366 316.259 467.332C324.666 467.092 333.026 462.437 340.11 457.538C347.429 452.44 354.167 446.417 360.167 439.608C371.797 426.326 380.727 410.668 386.344 393.704Z" fill="#37474F"/>
<path d="M347.919 545.344C328.232 552.542 285.631 547.41 263.081 526.117C237.658 502.12 240.044 474.254 255.11 470.593C276.548 465.267 279.026 500.321 304.049 517.828C333.799 538.676 350.357 533.855 350.357 533.855L347.919 545.344Z" fill="#BA68C8"/>
<path opacity="0.2" d="M347.919 545.344C328.232 552.542 285.631 547.41 263.081 526.117C237.658 502.12 240.044 474.254 255.11 470.593C276.548 465.267 279.026 500.321 304.049 517.828C333.799 538.676 350.357 533.855 350.357 533.855L347.919 545.344Z" fill="white"/>
<path d="M319.992 540.592C286.105 534.014 260.42 505.256 256.452 483.259C256.397 482.921 256.47 482.569 256.656 482.277C256.841 481.985 257.125 481.775 257.448 481.69C257.607 481.652 257.771 481.647 257.93 481.676C258.089 481.705 258.24 481.766 258.374 481.857C258.508 481.948 258.622 482.067 258.71 482.206C258.798 482.346 258.858 482.503 258.886 482.669C263.625 508.927 301.137 544.008 343.22 538.836C343.55 538.794 343.876 538.889 344.13 539.101C344.383 539.312 344.543 539.623 344.574 539.965C344.593 540.31 344.483 540.654 344.267 540.925C344.051 541.196 343.746 541.373 343.417 541.419C335.569 542.377 327.672 542.098 319.992 540.592Z" fill="white"/>
<path d="M323.537 481.922C323.534 482.093 323.47 482.26 323.359 482.391C323.247 482.522 323.096 482.606 322.934 482.628C292.693 486.419 265.521 467.116 253.735 433.467C253.679 433.298 253.688 433.108 253.759 432.938C253.831 432.767 253.96 432.628 254.12 432.55C254.286 432.485 254.466 432.488 254.623 432.56C254.779 432.632 254.9 432.766 254.961 432.935C266.555 466.01 293.196 484.958 322.837 481.252C323.013 481.232 323.186 481.285 323.319 481.4C323.452 481.515 323.535 481.683 323.549 481.868L323.537 481.922Z" fill="#455A64"/>
<path d="M274.272 436.226C274.22 436.584 274.143 436.939 274.042 437.288C273.444 439.731 272.515 442.088 271.285 444.282C268.791 448.405 267.545 453.187 267.724 457.949C267.725 458.059 267.698 458.168 267.645 458.266C267.592 458.363 267.515 458.444 267.424 458.5C267.326 458.544 267.22 458.557 267.119 458.537C267.018 458.518 266.926 458.468 266.854 458.393C262.447 453.883 257.22 441.758 262.447 433.712C265.775 428.594 269.112 429.253 270.433 429.696C271.63 430.226 272.634 431.129 273.317 432.291C274 433.453 274.333 434.822 274.272 436.226ZM266.68 455.873C267.007 451.653 268.293 447.524 270.427 443.843C271.61 441.738 272.508 439.479 273.095 437.136C273.331 435.834 273.159 434.508 272.606 433.364C272.053 432.221 271.15 431.323 270.036 430.81C267.783 429.913 265.315 431.187 263.271 434.31C258.497 441.696 263.211 452.149 266.684 456.564L266.68 455.873Z" fill="#455A64"/>
<path d="M267.916 457.989C267.935 458.065 267.937 458.146 267.92 458.224C267.903 458.302 267.868 458.376 267.819 458.439C267.707 458.518 267.573 458.549 267.445 458.525C267.317 458.5 267.206 458.423 267.135 458.308C263.802 453.348 263.887 442.075 267.339 435.961C267.407 435.835 267.517 435.741 267.645 435.698C267.773 435.656 267.909 435.669 268.024 435.734C268.138 435.806 268.219 435.924 268.251 436.063C268.283 436.203 268.262 436.353 268.193 436.482C264.623 442.794 265.088 453.401 267.966 457.641C267.979 457.758 267.962 457.878 267.916 457.989Z" fill="#455A64"/>
<path d="M264.929 453.531C264.943 453.7 264.905 453.871 264.822 454.021C264.703 454.124 264.555 454.181 264.405 454.184C264.255 454.186 264.112 454.134 263.999 454.036C261.272 451.253 251.12 452.45 244.981 453.924C243.165 454.411 241.289 454.45 239.501 454.038C237.714 453.627 236.063 452.775 234.68 451.551C233.84 450.667 233.236 449.559 232.925 448.331C232.614 447.104 232.606 445.796 232.901 444.529C233.164 443.267 233.773 442.097 234.648 441.168C235.524 440.239 236.627 439.592 237.817 439.311C244.247 437.354 255.848 441.53 264.879 453.154C264.938 453.267 264.956 453.401 264.929 453.531ZM233.819 446.147C233.771 446.995 233.895 447.834 234.183 448.607C234.472 449.38 234.917 450.069 235.489 450.628C236.734 451.722 238.218 452.48 239.823 452.843C241.429 453.206 243.113 453.163 244.741 452.717C245.297 452.596 256.092 450.019 262.012 451.62C253.673 442.167 243.648 438.77 237.987 440.476C237.015 440.698 236.112 441.217 235.393 441.969C234.674 442.721 234.171 443.672 233.948 444.699C233.85 445.177 233.807 445.664 233.819 446.147Z" fill="#455A64"/>
<path d="M265.039 453.664C265.058 453.816 265.024 453.974 264.944 454.108C264.834 454.235 264.685 454.313 264.529 454.326C264.372 454.339 264.22 454.286 264.105 454.179C256.459 446.92 243.121 445.138 239.335 445.684C239.178 445.71 239.021 445.668 238.898 445.569C238.776 445.47 238.696 445.32 238.678 445.153C238.671 445.07 238.68 444.985 238.705 444.904C238.729 444.823 238.768 444.748 238.819 444.682C238.871 444.616 238.933 444.561 239.003 444.521C239.074 444.481 239.15 444.456 239.228 444.448C243.153 443.871 256.988 445.69 264.899 453.202C264.997 453.33 265.047 453.494 265.039 453.664Z" fill="#455A64"/>
<path d="M263.745 412.399C260.94 419.104 256.793 425.151 251.601 430.106C240.536 431.622 235.866 431.553 227.967 428.646C226.097 427.829 224.449 426.566 223.147 424.952C222.697 424.317 222.493 423.518 222.574 422.706C222.655 421.894 223.016 421.125 223.587 420.546C224.632 419.874 225.851 419.609 227.023 419.798L237.634 420.232C233.828 419.316 230.359 417.378 227.557 414.601C226.526 413.571 225.505 412.013 226.249 410.647C226.992 409.282 229.336 409.22 230.937 409.8C235.104 411.252 238.979 413.431 242.406 416.25C240.471 411.776 239.234 406.971 238.739 402.011C238.627 401.522 238.626 401.007 238.736 400.505C238.845 400.003 239.063 399.528 239.372 399.119C240.632 397.906 242.514 399.236 243.475 400.587C245.708 403.697 247.31 407.277 248.187 411.119C248.129 405.741 249.236 400.353 251.423 395.363C251.552 394.958 251.755 394.581 252.02 394.253C252.285 393.924 252.607 393.652 252.967 393.45C254.462 392.839 255.681 394.685 256.038 396.286C256.949 400.573 256.913 405.075 255.933 409.453C257.198 406.903 260.775 401.08 262.871 401.669C264.968 402.258 265.634 408.071 263.745 412.399Z" fill="#BA68C8"/>
<path opacity="0.15" d="M263.745 412.399C260.94 419.104 256.793 425.151 251.601 430.106C240.536 431.622 235.866 431.553 227.967 428.646C226.097 427.829 224.449 426.566 223.147 424.952C222.697 424.317 222.493 423.518 222.574 422.706C222.655 421.894 223.016 421.125 223.587 420.546C224.632 419.874 225.851 419.609 227.023 419.798L237.634 420.232C233.828 419.316 230.359 417.378 227.557 414.601C226.526 413.571 225.505 412.013 226.249 410.647C226.992 409.282 229.336 409.22 230.937 409.8C235.104 411.252 238.979 413.431 242.406 416.25C240.471 411.776 239.234 406.971 238.739 402.011C238.627 401.522 238.626 401.007 238.736 400.505C238.845 400.003 239.063 399.528 239.372 399.119C240.632 397.906 242.514 399.236 243.475 400.587C245.708 403.697 247.31 407.277 248.187 411.119C248.129 405.741 249.236 400.353 251.423 395.363C251.552 394.958 251.755 394.581 252.02 394.253C252.285 393.924 252.607 393.652 252.967 393.45C254.462 392.839 255.681 394.685 256.038 396.286C256.949 400.573 256.913 405.075 255.933 409.453C257.198 406.903 260.775 401.08 262.871 401.669C264.968 402.258 265.634 408.071 263.745 412.399Z" fill="black"/>
<path d="M316.619 353.167C325.867 360.963 332.346 371.829 335.105 384.17C337.512 393.891 338.186 404.094 337.092 414.272C336.878 416.189 336.549 418.096 336.108 419.981C335.732 421.115 335.477 422.284 335.349 423.464C335.245 423.943 336.061 424.595 336.538 424.187C338.782 422.202 339.209 418.104 339.587 415.296C340.204 410.474 340.393 405.626 340.152 400.816C339.91 389.225 336.874 378.05 331.33 368.344C327.532 362.168 322.669 356.833 316.976 352.597C316.702 352.546 316.629 353.002 316.854 353.156L316.619 353.167Z" fill="#455A64"/>
<path d="M327.873 370.146C334.308 359.195 337.448 346.585 336.855 334.07C336.093 312.581 330.525 302.434 322.395 300.904C320.199 300.388 317.867 300.615 315.724 301.554C313.58 302.492 311.732 304.095 310.435 306.141C310.435 306.141 302.618 301.025 298.261 304.464C293.905 307.903 293.22 317.848 293.22 317.848C293.22 317.848 288.546 315.327 286.322 315.939C284.099 316.55 276.068 333.686 281.559 344.543C287.049 355.399 309.238 373.766 327.873 370.146Z" fill="#BA68C8"/>
<path opacity="0.25" d="M327.873 370.146C334.308 359.195 337.448 346.585 336.855 334.07C336.093 312.581 330.525 302.434 322.395 300.904C320.199 300.388 317.867 300.615 315.724 301.554C313.58 302.492 311.732 304.095 310.435 306.141C310.435 306.141 302.618 301.025 298.261 304.464C293.905 307.903 293.22 317.848 293.22 317.848C293.22 317.848 288.546 315.327 286.322 315.939C284.099 316.55 276.068 333.686 281.559 344.543C287.049 355.399 309.238 373.766 327.873 370.146Z" fill="black"/>
<path d="M325.592 371.08C314.56 372.167 303.583 370.483 293.561 366.166C276.158 358.936 271.036 352.16 271.959 342.351C272.883 332.542 279.681 331.145 285.555 339.557C285.555 339.557 287.221 334.457 290.409 333.761C292.021 333.546 293.638 333.729 295.132 334.295C296.626 334.86 297.956 335.793 299.016 337.02C299.964 338.609 307.535 364.064 325.592 371.08Z" fill="#BA68C8"/>
<path opacity="0.15" d="M325.592 371.08C314.56 372.167 303.583 370.483 293.561 366.166C276.158 358.936 271.036 352.16 271.959 342.351C272.883 332.542 279.681 331.145 285.555 339.557C285.555 339.557 287.221 334.457 290.409 333.761C292.021 333.546 293.638 333.729 295.132 334.295C296.626 334.86 297.956 335.793 299.016 337.02C299.964 338.609 307.535 364.064 325.592 371.08Z" fill="black"/>
<path d="M331.996 364.15C338.365 357.567 343.39 349.681 346.728 341.03C351.176 328.048 351.247 316.56 343.537 318.779C343.537 318.779 344.523 313.298 340.647 311.652C336.772 310.007 325.737 319.09 323.69 330.287C321.643 341.484 331.996 364.15 331.996 364.15Z" fill="#BA68C8"/>
<path opacity="0.15" d="M331.996 364.15C338.365 357.567 343.39 349.681 346.728 341.03C351.176 328.048 351.247 316.56 343.537 318.779C343.537 318.779 344.523 313.298 340.647 311.652C336.772 310.007 325.737 319.09 323.69 330.287C321.643 341.484 331.996 364.15 331.996 364.15Z" fill="black"/>
<path d="M325.272 371.235C315.162 370.5 303.597 361.266 298.68 354.061C292.766 345.335 291.216 332.262 296.115 324.875C301.013 317.489 310.341 316.91 310.341 316.91C310.341 316.91 313.647 309.891 322.547 311.872C328.666 313.218 333.139 329.258 333.907 342.685C334.676 356.111 330.294 366.623 325.272 371.235Z" fill="#BA68C8"/>
<path d="M334.183 377.859C331.437 376.363 328.132 376.105 319.81 375.855C311.488 375.605 304.204 374.57 304.66 369.118C305.117 363.666 318.082 367.782 318.082 367.782C318.082 367.782 312.916 357.301 317.662 353.97C323.881 349.545 329.318 362.875 329.318 362.875C329.318 362.875 332.334 350.519 337.123 351.196C341.912 351.873 341.699 357.651 338.826 363.824C335.954 369.996 333.612 374.702 334.183 377.859Z" fill="#455A64"/>
<path d="M347.501 545.829L369.491 537.777C369.491 537.777 404.391 494.754 371.145 449.442C339.929 406.847 297.224 400.715 297.224 400.715C297.224 400.715 274.219 456.05 285.983 496.984C298.372 540.556 347.501 545.829 347.501 545.829Z" fill="#BA68C8"/>
<path opacity="0.5" d="M347.501 545.829L369.491 537.777C369.491 537.777 404.391 494.754 371.145 449.442C339.929 406.847 297.224 400.715 297.224 400.715C297.224 400.715 274.219 456.05 285.983 496.984C298.372 540.556 347.501 545.829 347.501 545.829Z" fill="white"/>
<path d="M358.173 542.919C357.892 542.864 357.642 542.708 357.465 542.477C357.289 542.246 357.198 541.956 357.206 541.656C360.057 468.978 323.262 428.15 307.311 413.965C307.189 413.861 307.089 413.732 307.018 413.584C306.947 413.437 306.906 413.275 306.897 413.108C306.889 412.941 306.912 412.773 306.967 412.614C307.022 412.454 307.107 412.307 307.217 412.181C307.432 411.923 307.732 411.759 308.054 411.723C308.375 411.687 308.692 411.783 308.939 411.99C325.153 426.419 362.572 467.891 359.673 541.664C359.648 542.002 359.5 542.322 359.26 542.558C359.019 542.793 358.704 542.927 358.38 542.932L358.173 542.919Z" fill="white"/>
<path d="M349.304 478.028C349.001 477.973 348.734 477.799 348.554 477.539C341.719 467.666 314.892 461.652 299.054 466.415C298.897 466.466 298.734 466.484 298.572 466.466C298.411 466.449 298.256 466.397 298.117 466.314C297.977 466.231 297.856 466.118 297.761 465.982C297.666 465.847 297.598 465.691 297.562 465.524C297.483 465.188 297.534 464.827 297.703 464.52C297.871 464.212 298.145 463.983 298.465 463.882C315.534 458.708 343.163 465.22 350.572 475.917C350.744 476.206 350.8 476.559 350.729 476.901C350.657 477.243 350.464 477.546 350.189 477.747C350.065 477.855 349.923 477.935 349.771 477.983C349.618 478.032 349.46 478.047 349.304 478.028Z" fill="white"/>
<path d="M260.419 356.169C259.995 354.775 259.086 353.613 257.866 352.904C257.169 352.509 256.393 352.276 255.59 352.221C254.787 352.166 253.975 352.29 253.209 352.585C251.866 353.329 250.787 354.515 250.147 355.95C249.506 357.385 249.342 358.986 249.681 360.492C249.076 359.085 248.032 357.946 246.711 357.254C245.391 356.562 243.87 356.357 242.39 356.672C241.641 356.978 240.955 357.44 240.376 358.029C239.796 358.618 239.336 359.321 239.023 360.094C238.455 361.459 238.387 362.976 238.83 364.351C240.238 368.779 246.767 370.846 248.843 371.635C250.47 372.212 252.131 372.69 253.818 373.068C255.012 371.642 256.109 370.132 257.101 368.549C258.23 366.468 261.878 360.607 260.419 356.169Z" fill="#BA68C8"/>
<path d="M172.624 38.3065C172.776 39.0534 172.705 39.8318 172.419 40.5436C172.134 41.2553 171.647 41.8685 171.02 42.3056C170.393 42.7427 169.655 42.9841 168.897 42.9994C168.14 43.0148 167.398 42.8033 166.765 42.3917C166.132 41.9802 165.637 41.3869 165.341 40.6869C165.046 39.9869 164.964 39.2116 165.105 38.4587C165.247 37.7059 165.605 37.0094 166.136 36.4572C166.667 35.9049 167.345 35.5216 168.087 35.3557C168.581 35.2422 169.091 35.2287 169.588 35.316C170.084 35.4033 170.557 35.5896 170.98 35.8642C171.402 36.1388 171.765 36.4962 172.047 36.9155C172.329 37.3347 172.525 37.8076 172.624 38.3065Z" fill="#BA68C8"/>
<path d="M172.944 57.3669C173.096 58.1137 173.025 58.8922 172.74 59.6039C172.454 60.3157 171.967 60.9288 171.34 61.3659C170.714 61.803 169.975 62.0445 169.218 62.0598C168.46 62.0751 167.718 61.8636 167.085 61.4521C166.453 61.0405 165.957 60.4472 165.662 59.7473C165.366 59.0473 165.284 58.2719 165.425 57.5191C165.567 56.7663 165.926 56.0697 166.456 55.5175C166.987 54.9652 167.666 54.5819 168.407 54.416C168.901 54.3025 169.411 54.289 169.908 54.3763C170.404 54.4636 170.878 54.6499 171.3 54.9245C171.722 55.1991 172.085 55.5565 172.367 55.9758C172.65 56.395 172.846 56.868 172.944 57.3669Z" fill="#BA68C8"/>
<path d="M186.121 43.3778C186.262 44.0045 186.213 44.662 185.981 45.2656C185.75 45.8691 185.345 46.391 184.819 46.764C184.294 47.1371 183.672 47.3441 183.033 47.3585C182.395 47.3729 181.769 47.1941 181.237 46.8449C180.704 46.4957 180.29 45.9922 180.047 45.3994C179.804 44.8065 179.743 44.1515 179.872 43.5187C180.002 42.8858 180.315 42.3041 180.773 41.8486C181.231 41.393 181.811 41.0845 182.44 40.9628C183.249 40.806 184.084 40.9694 184.769 41.4192C185.455 41.869 185.939 42.5705 186.121 43.3778Z" fill="#BA68C8"/>
<path d="M194.643 54.0435C194.779 54.6652 194.727 55.3161 194.495 55.9127C194.262 56.5093 193.859 57.0244 193.337 57.3921C192.816 57.7598 192.199 57.9633 191.567 57.9765C190.934 57.9897 190.315 57.812 189.788 57.4662C189.261 57.1204 188.85 56.6222 188.608 56.0355C188.366 55.4489 188.305 54.8004 188.431 54.1733C188.557 53.5461 188.865 52.9689 189.316 52.5155C189.767 52.0621 190.34 51.7533 190.962 51.6286C191.773 51.4602 192.613 51.6189 193.301 52.0704C193.99 52.522 194.471 53.2304 194.643 54.0435Z" fill="#BA68C8"/>
<path d="M203.225 44.6792C203.366 45.306 203.317 45.9635 203.085 46.567C202.853 47.1705 202.448 47.6924 201.923 48.0655C201.397 48.4385 200.775 48.6456 200.137 48.66C199.498 48.6744 198.873 48.4954 198.34 48.1463C197.808 47.7971 197.394 47.2936 197.151 46.7008C196.907 46.108 196.847 45.453 196.976 44.8201C197.105 44.1873 197.419 43.6056 197.877 43.15C198.334 42.6945 198.915 42.386 199.543 42.2643C200.354 42.1017 201.191 42.2628 201.878 42.7135C202.565 43.1641 203.048 43.8691 203.225 44.6792Z" fill="#BA68C8"/>
<path d="M74.6475 121.527C83.957 94.5296 104.266 72.982 129.516 59.9064C136.308 56.3786 143.421 53.5173 150.752 51.3636C158.196 48.8851 165.977 47.6215 173.793 47.622C173.793 47.622 173.912 47.6785 173.735 47.7413C167.223 49.5438 160.605 50.5124 154.143 52.4122C147.752 54.2569 141.505 56.5848 135.457 59.3754C123.046 65.0909 111.753 73.0007 102.129 82.7178C92.2797 92.7566 84.5915 104.693 79.5473 117.776C74.503 130.859 72.2119 144.807 72.8179 158.741C73.2521 166.561 74.7322 174.275 77.219 181.676C79.9034 189.024 83.6261 195.939 88.2753 202.215C89.1137 203.446 87.2353 205.198 86.0546 204.319C80.2302 199.909 76.729 192.685 74.2572 185.95C71.7221 178.97 70.0781 171.688 69.3638 164.276C68.0226 149.853 69.825 135.271 74.6475 121.527Z" fill="#37474F"/>
<path d="M24.343 240.011C33.9611 254.442 65.1805 272.394 91.0415 269.987C120.193 267.28 132.592 248.227 124.303 238.368C112.567 224.265 93.2853 245.501 67.6643 244.246C37.187 242.778 28.4779 231.431 28.4779 231.431L24.343 240.011Z" fill="#BA68C8"/>
<path opacity="0.2" d="M24.343 240.011C33.9611 254.442 65.1805 272.394 91.0415 269.987C120.193 267.28 132.592 248.227 124.303 238.368C112.567 224.265 93.2853 245.501 67.6643 244.246C37.187 242.778 28.4779 231.431 28.4779 231.431L24.343 240.011Z" fill="white"/>
<path d="M45.6196 250.855C71.6502 263.538 103.282 257.939 116.957 245.841C117.163 245.652 117.29 245.39 117.312 245.111C117.334 244.831 117.249 244.555 117.074 244.341C116.986 244.237 116.879 244.152 116.758 244.091C116.637 244.03 116.505 243.994 116.369 243.986C116.234 243.978 116.098 243.997 115.969 244.042C115.841 244.087 115.722 244.158 115.619 244.25C99.294 258.69 56.5606 262.439 30.9128 238.152C30.7128 237.962 30.4459 237.86 30.1699 237.869C29.894 237.878 29.6313 237.997 29.4391 238.201C29.2537 238.412 29.1552 238.687 29.1643 238.968C29.1734 239.249 29.2894 239.514 29.488 239.708C34.2738 244.233 39.712 247.99 45.6196 250.855Z" fill="white"/>
<path d="M72.4947 211.03C72.4112 211.14 72.3705 211.277 72.3806 211.415C72.3906 211.552 72.4507 211.68 72.5491 211.774C91.1345 229.11 119.214 230.351 144.063 214.931C144.186 214.852 144.275 214.728 144.312 214.585C144.349 214.442 144.331 214.291 144.262 214.162C144.182 214.039 144.058 213.952 143.916 213.92C143.774 213.888 143.625 213.913 143.499 213.99C119.068 229.142 91.5259 227.94 73.3045 210.953C73.1952 210.854 73.0516 210.802 72.904 210.809C72.7563 210.815 72.6164 210.881 72.5139 210.99L72.4947 211.03Z" fill="#455A64"/>
<path d="M128.339 206.391C128.191 206.647 128.061 206.913 127.952 207.188C127.108 209.054 126.541 211.031 126.268 213.055C125.885 216.951 124.286 220.643 121.701 223.605C121.643 223.674 121.606 223.758 121.592 223.847C121.579 223.936 121.591 224.027 121.626 224.109C121.672 224.186 121.74 224.247 121.82 224.286C121.901 224.324 121.991 224.338 122.08 224.326C127.494 223.65 137.416 218.503 137.914 210.72C138.228 205.768 135.553 204.514 134.399 204.135C133.287 203.873 132.119 203.947 131.04 204.349C129.962 204.75 129.022 205.461 128.339 206.391ZM123.504 222.798C125.455 219.929 126.688 216.637 127.096 213.205C127.355 211.262 127.893 209.362 128.693 207.566C129.201 206.613 130.006 205.849 130.983 205.394C131.961 204.939 133.057 204.817 134.102 205.047C136.142 205.605 137.211 207.661 137.029 210.689C136.555 217.822 127.856 222.154 123.144 223.239L123.504 222.798Z" fill="#455A64"/>
<path d="M121.589 223.573C121.536 223.612 121.493 223.663 121.464 223.722C121.435 223.781 121.421 223.846 121.424 223.911C121.462 224.019 121.542 224.107 121.646 224.156C121.75 224.205 121.869 224.212 121.979 224.174C126.93 222.68 132.729 215.394 133.45 209.714C133.467 209.599 133.437 209.483 133.368 209.39C133.299 209.298 133.196 209.237 133.081 209.221C132.962 209.209 132.842 209.243 132.747 209.317C132.652 209.391 132.589 209.497 132.571 209.615C131.832 215.483 125.987 222.061 121.735 223.324C121.664 223.392 121.614 223.478 121.589 223.573Z" fill="#455A64"/>
<path d="M125.736 222.381C125.642 222.481 125.581 222.607 125.563 222.743C125.592 222.867 125.663 222.976 125.764 223.051C125.864 223.127 125.987 223.165 126.112 223.158C129.35 222.751 135.622 228.521 139.039 232.483C140.025 233.688 141.275 234.639 142.691 235.263C144.107 235.886 145.65 236.164 147.198 236.076C148.209 235.933 149.172 235.533 149.996 234.912C150.821 234.292 151.481 233.471 151.915 232.527C152.368 231.601 152.541 230.563 152.414 229.544C152.286 228.525 151.863 227.573 151.198 226.807C147.826 222.397 137.884 219.299 125.958 222.168C125.862 222.21 125.783 222.286 125.736 222.381ZM150.484 233.094C150.093 233.652 149.589 234.119 149.007 234.464C148.425 234.81 147.779 235.024 147.112 235.094C145.723 235.169 144.339 234.914 143.071 234.35C141.803 233.785 140.685 232.926 139.806 231.841C139.491 231.49 133.473 224.532 128.666 222.617C139.038 220.775 147.522 223.586 150.5 227.458C151.047 228.078 151.398 228.852 151.509 229.681C151.619 230.511 151.484 231.359 151.121 232.116C150.948 232.466 150.734 232.795 150.484 233.094Z" fill="#455A64"/>
<path d="M125.766 222.352C125.679 222.438 125.625 222.553 125.613 222.676C125.625 222.808 125.687 222.93 125.786 223.016C125.885 223.101 126.013 223.144 126.142 223.134C134.826 222.4 144.659 227.879 146.937 230.088C147.03 230.181 147.155 230.233 147.286 230.232C147.418 230.231 147.544 230.177 147.638 230.082C147.683 230.034 147.718 229.977 147.741 229.915C147.764 229.852 147.775 229.786 147.773 229.72C147.771 229.654 147.755 229.589 147.728 229.529C147.7 229.469 147.661 229.416 147.613 229.373C145.257 227.076 135.071 221.375 126.086 222.135C125.958 222.166 125.844 222.243 125.766 222.352Z" fill="#455A64"/>
<path d="M147.039 196.326C145.542 201.992 145.303 207.906 146.337 213.643C153.153 220.105 156.393 222.381 163.293 224.452C164.993 224.86 166.767 224.874 168.484 224.492C169.116 224.311 169.663 223.903 170.022 223.345C170.381 222.787 170.526 222.118 170.429 221.465C170.055 220.518 169.354 219.743 168.454 219.282L160.954 214.287C164.032 215.595 167.4 216.083 170.738 215.705C171.971 215.56 173.466 215.074 173.652 213.835C173.839 212.595 172.263 211.392 170.869 210.966C167.269 209.821 163.5 209.285 159.712 209.38C163.321 207.489 166.62 205.041 169.49 202.126C169.816 201.871 170.08 201.543 170.26 201.168C170.441 200.794 170.534 200.383 170.531 199.969C170.285 198.57 168.316 198.483 166.968 198.867C163.849 199.739 160.924 201.225 158.363 203.238C161.146 199.839 163.135 195.856 164.18 191.589C164.298 191.267 164.351 190.926 164.337 190.585C164.322 190.244 164.241 189.91 164.097 189.603C163.383 188.471 161.605 189.042 160.544 189.885C157.732 192.165 155.46 195.052 153.899 198.329C154.333 196.075 154.849 190.587 153.111 189.921C151.372 189.256 147.951 192.629 147.039 196.326Z" fill="#BA68C8"/>
<path opacity="0.15" d="M147.039 196.326C145.542 201.992 145.303 207.906 146.337 213.643C153.153 220.105 156.393 222.381 163.293 224.452C164.993 224.86 166.767 224.874 168.484 224.492C169.116 224.311 169.663 223.903 170.022 223.345C170.381 222.787 170.526 222.118 170.429 221.465C170.055 220.518 169.354 219.743 168.454 219.282L160.954 214.287C164.032 215.595 167.4 216.083 170.738 215.705C171.971 215.56 173.466 215.074 173.652 213.835C173.839 212.595 172.263 211.392 170.869 210.966C167.269 209.821 163.5 209.285 159.712 209.38C163.321 207.489 166.62 205.041 169.49 202.126C169.816 201.871 170.08 201.543 170.26 201.168C170.441 200.794 170.534 200.383 170.531 199.969C170.285 198.57 168.316 198.483 166.968 198.867C163.849 199.739 160.924 201.225 158.363 203.238C161.146 199.839 163.135 195.856 164.18 191.589C164.298 191.267 164.351 190.926 164.337 190.585C164.322 190.244 164.241 189.91 164.097 189.603C163.383 188.471 161.605 189.042 160.544 189.885C157.732 192.165 155.46 195.052 153.899 198.329C154.333 196.075 154.849 190.587 153.111 189.921C151.372 189.256 147.951 192.629 147.039 196.326Z" fill="black"/>
<path d="M143.457 131.045C133.002 131.404 122.894 135.114 114.616 141.632C107.933 146.65 102.208 152.844 97.727 159.907C96.8889 161.242 96.1355 162.627 95.4714 164.055C95.1493 164.97 94.7246 165.845 94.2055 166.665C94.0316 167.023 93.1277 167.032 93.0057 166.532C92.4654 164.138 94.2796 161.3 95.4622 159.313C97.5163 155.918 99.8819 152.719 102.528 149.761C108.667 142.462 116.537 136.829 125.397 133.392C131.222 131.341 137.356 130.361 143.502 130.502C143.719 130.606 143.535 130.935 143.299 130.92L143.457 131.045Z" fill="#455A64"/>
<path d="M125.974 135.806C127.144 125.619 131.429 116.013 138.233 108.325C149.741 94.9968 158.757 91.2939 165.132 94.3637C166.907 95.1273 168.395 96.4322 169.39 98.0973C170.385 99.7623 170.837 101.705 170.684 103.655C170.684 103.655 178.676 104.281 179.916 108.642C181.156 113.003 176.544 119.688 176.544 119.688C176.544 119.688 181.048 120.405 182.265 121.902C183.482 123.398 180.248 138.324 170.922 142.518C161.596 146.711 136.944 147.386 125.974 135.806Z" fill="#BA68C8"/>
<path opacity="0.25" d="M125.974 135.806C127.144 125.619 131.429 116.013 138.233 108.325C149.741 94.9968 158.757 91.2939 165.132 94.3637C166.907 95.1273 168.395 96.4322 169.39 98.0973C170.385 99.7623 170.837 101.705 170.684 103.655C170.684 103.655 178.676 104.281 179.916 108.642C181.156 113.003 176.544 119.688 176.544 119.688C176.544 119.688 181.048 120.405 182.265 121.902C183.482 123.398 180.248 138.324 170.922 142.518C161.596 146.711 136.944 147.386 125.974 135.806Z" fill="black"/>
<path d="M127.281 137.839C134.221 143.981 142.518 148.345 151.489 150.57C166.934 154.604 173.817 152.852 178.121 146.193C182.425 139.534 178.514 135.29 170.298 137.704C170.298 137.704 171.732 133.655 169.918 131.639C168.932 130.706 167.743 130.022 166.444 129.641C165.146 129.26 163.775 129.192 162.438 129.443C160.997 129.98 143.062 142.332 127.281 137.839Z" fill="#BA68C8"/>
<path opacity="0.15" d="M127.281 137.839C134.221 143.981 142.518 148.345 151.489 150.57C166.934 154.604 173.817 152.852 178.121 146.193C182.425 139.534 178.514 135.29 170.298 137.704C170.298 137.704 171.732 133.655 169.918 131.639C168.932 130.706 167.743 130.022 166.444 129.641C165.146 129.26 163.775 129.192 162.438 129.443C160.997 129.98 143.062 142.332 127.281 137.839Z" fill="black"/>
<path d="M126.889 129.809C125.836 122.395 126.394 114.821 128.525 107.603C132.116 97.053 137.994 89.6577 142.237 94.9493C142.237 94.9493 144.377 90.9433 147.934 91.8346C151.491 92.7259 154.515 104.084 150.168 112.284C145.821 120.485 126.889 129.809 126.889 129.809Z" fill="#BA68C8"/>
<path opacity="0.15" d="M126.889 129.809C125.836 122.395 126.394 114.821 128.525 107.603C132.116 97.053 137.994 89.6577 142.237 94.9493C142.237 94.9493 144.377 90.9433 147.934 91.8346C151.491 92.7259 154.515 104.084 150.168 112.284C145.821 120.485 126.889 129.809 126.889 129.809Z" fill="black"/>
<path d="M127.325 137.839C134.677 142.407 147.385 142.273 154.468 140.123C163.018 137.498 170.783 129.922 171.187 122.765C171.591 115.608 165.452 110.59 165.452 110.59C165.452 110.59 166.766 104.461 159.612 101.291C154.701 99.1011 143.399 107.115 135.991 115.305C128.584 123.495 126.223 132.391 127.325 137.839Z" fill="#BA68C8"/>
<path d="M118.356 137.809C120.991 138.22 123.381 139.695 129.195 143.663C135.009 147.63 140.511 150.585 142.968 146.892C145.424 143.199 134.474 139.387 134.474 139.387C134.474 139.387 143.327 135.285 141.775 130.814C139.772 124.917 129.289 130.696 129.289 130.696C129.289 130.696 133.501 121.345 129.885 119.401C126.269 117.456 123.481 121.235 122.309 126.584C121.138 131.933 120.349 136.086 118.356 137.809Z" fill="#455A64"/>
<path d="M24.5335 240.048L13.7004 223.864C13.7004 223.864 11.8764 178.699 57.4653 166.147C100.297 154.327 132.396 171.738 132.396 171.738C132.396 171.738 119.891 218.882 91.1058 239.361C60.5566 261.226 24.5335 240.048 24.5335 240.048Z" fill="#BA68C8"/>
<path opacity="0.5" d="M24.5335 240.048L13.7004 223.864C13.7004 223.864 11.8764 178.699 57.4653 166.147C100.297 154.327 132.396 171.738 132.396 171.738C132.396 171.738 119.891 218.882 91.1058 239.361C60.5566 261.226 24.5335 240.048 24.5335 240.048Z" fill="white"/>
<path d="M18.5946 232.876C18.8142 232.981 19.0643 233.006 19.3018 232.945C19.5394 232.885 19.7498 232.744 19.8968 232.546C54.9895 184.264 100.863 176.38 118.959 175.227C119.096 175.221 119.229 175.188 119.353 175.128C119.476 175.069 119.587 174.985 119.678 174.882C119.769 174.779 119.838 174.658 119.882 174.528C119.926 174.398 119.943 174.26 119.933 174.124C119.917 173.85 119.797 173.593 119.596 173.41C119.395 173.226 119.13 173.128 118.857 173.138C100.457 174.316 53.8291 182.304 18.2116 231.315C18.0565 231.546 17.9945 231.826 18.0383 232.098C18.0821 232.371 18.2283 232.615 18.4469 232.78L18.5946 232.876Z" fill="white"/>
<path d="M57.9959 195.429C58.225 195.545 58.4895 195.568 58.7368 195.494C68.147 192.652 89.0009 202.228 97.2293 213.146C97.3088 213.257 97.4096 213.35 97.5256 213.419C97.6417 213.489 97.7705 213.533 97.9044 213.55C98.0383 213.567 98.1744 213.556 98.3047 213.518C98.435 213.479 98.5567 213.414 98.6625 213.327C98.8804 213.153 99.024 212.899 99.0622 212.621C99.1003 212.342 99.0301 212.06 98.8666 211.836C90.0185 200.043 68.3848 190.382 58.187 193.46C57.9302 193.557 57.7192 193.752 57.599 194.004C57.4788 194.256 57.4589 194.545 57.5436 194.81C57.5734 194.94 57.6289 195.062 57.7067 195.168C57.7845 195.275 57.8829 195.363 57.9959 195.429Z" fill="white"/>
<path d="M177.996 161.358C178.989 160.674 180.193 160.38 181.377 160.533C182.05 160.627 182.693 160.865 183.264 161.231C183.835 161.597 184.321 162.082 184.689 162.655C185.221 163.804 185.35 165.106 185.056 166.349C184.762 167.592 184.062 168.704 183.07 169.504C184.192 168.901 185.476 168.69 186.72 168.904C187.964 169.119 189.096 169.747 189.939 170.688C190.29 171.26 190.52 171.899 190.613 172.568C190.707 173.236 190.662 173.918 190.483 174.572C190.175 175.733 189.453 176.744 188.456 177.407C185.259 179.552 179.795 177.62 177.991 177.091C176.598 176.649 175.232 176.127 173.899 175.528C173.814 174.014 173.837 172.494 173.968 170.981C174.259 169.078 174.761 163.485 177.996 161.358Z" fill="#BA68C8"/>
<g clip-path="url(#clip0_513_1082)">
<path d="M219.517 215.695C209.225 207.268 248.013 183.58 239.183 177.518C210.879 158.073 236.166 108.928 242.302 93.9238C242.936 92.3477 237.318 87.2101 239.296 83.6815C240.593 81.3805 243.84 80.4913 245.093 80.591C250.393 81.0344 332.646 127.694 332.646 127.694C332.481 129.06 334.939 136.938 327.228 137.8C323.652 138.191 319.538 136.061 319.085 137.194C316.619 143.481 287.314 184.54 249.977 185.727C240.748 186.026 246.303 203.331 228.071 216.708C224.553 219.285 219.709 215.851 219.517 215.695V215.695Z" stroke="black" stroke-width="2" stroke-miterlimit="10"/>
<path d="M253.189 173.83C256.603 171.521 280.88 172.828 287.581 156.885" stroke="black" stroke-width="2" stroke-miterlimit="10"/>
</g>
<path d="M132.346 410.701C140.781 425.7 171.293 384.4 159.264 373.248C138.483 354.011 105.844 290.709 87.5069 294.917C73.8156 298.043 70.6372 310.908 70.6861 314.214C71.3218 348.661 112.689 375.773 132.346 410.701Z" stroke="black" stroke-width="2" stroke-miterlimit="10"/>
<path d="M152.733 402.765C152.733 407.634 164.297 410.7 162.024 418.485C154.298 444.937 94.1293 407.634 76.2816 425.188C69.9494 431.41 67.8468 447.942 77.4062 448.634C149.066 453.804 139.849 436.671 162.024 443.794C166.522 445.237 177.426 455.457 174.933 460.296C169.994 469.975 148.014 467.931 137.942 464.685" stroke="black" stroke-width="2" stroke-miterlimit="10"/>
<path d="M146.746 409.258C146.746 409.258 90.8808 343.551 75.1602 315.116" stroke="black" stroke-width="2" stroke-miterlimit="10"/>
<path d="M153.667 399.669C153.667 399.669 99.2683 338.321 80.2227 310.066" stroke="black" stroke-width="2" stroke-miterlimit="10"/>
<path d="M160.365 389.029C160.365 389.029 116.944 327.981 86.9453 304.566" stroke="black" stroke-width="2" stroke-miterlimit="10"/>
<defs>
<clipPath id="clip0_513_1082">
<rect width="108.561" height="134.796" fill="white" transform="matrix(0.883239 0.468924 -0.515189 0.857077 242.055 76.7159)"/>
</clipPath>
</defs>
</svg>
