<svg width="395" height="571" viewBox="0 0 395 571" fill="none" xmlns="http://www.w3.org/2000/svg">
<path d="M313.663 269.634C313.109 270.351 312.779 271.216 312.716 272.121C312.653 273.025 312.859 273.928 313.309 274.715C313.759 275.502 314.432 276.139 315.243 276.544C316.054 276.949 316.967 277.105 317.866 276.991C318.766 276.878 319.611 276.501 320.296 275.907C320.982 275.313 321.476 274.53 321.716 273.656C321.956 272.782 321.932 271.856 321.647 270.996C321.361 270.135 320.827 269.378 320.112 268.821C319.637 268.447 319.092 268.17 318.51 268.008C317.927 267.846 317.318 267.802 316.718 267.878C316.117 267.953 315.538 268.147 315.014 268.449C314.49 268.75 314.031 269.153 313.663 269.634Z" fill="#BA68C8"/>
<path d="M303.152 289.74C302.597 290.457 302.268 291.323 302.204 292.227C302.141 293.131 302.348 294.034 302.797 294.821C303.247 295.608 303.92 296.245 304.731 296.65C305.542 297.055 306.455 297.211 307.354 297.097C308.254 296.984 309.1 296.607 309.785 296.013C310.47 295.419 310.964 294.636 311.204 293.762C311.444 292.888 311.42 291.962 311.135 291.101C310.849 290.241 310.315 289.484 309.6 288.927C309.125 288.553 308.581 288.276 307.998 288.114C307.415 287.952 306.806 287.908 306.206 287.984C305.606 288.059 305.027 288.253 304.502 288.555C303.978 288.856 303.519 289.259 303.152 289.74Z" fill="#BA68C8"/>
<path d="M296.392 267.93C295.912 268.525 295.621 269.25 295.557 270.011C295.492 270.773 295.657 271.537 296.031 272.204C296.404 272.871 296.969 273.41 297.652 273.754C298.335 274.097 299.106 274.227 299.864 274.129C300.622 274.03 301.333 273.707 301.905 273.201C302.478 272.694 302.886 272.028 303.077 271.288C303.267 270.547 303.232 269.767 302.975 269.047C302.718 268.327 302.251 267.701 301.635 267.248C300.841 266.666 299.853 266.411 298.877 266.538C297.9 266.665 297.01 267.164 296.392 267.93Z" fill="#BA68C8"/>
<path d="M281.499 274.798C281.028 275.39 280.744 276.11 280.684 276.864C280.624 277.619 280.791 278.375 281.163 279.034C281.535 279.693 282.095 280.226 282.772 280.565C283.449 280.904 284.212 281.032 284.963 280.935C285.714 280.837 286.418 280.518 286.986 280.017C287.554 279.517 287.96 278.858 288.151 278.125C288.342 277.393 288.31 276.62 288.059 275.906C287.808 275.191 287.35 274.568 286.742 274.116C285.953 273.521 284.962 273.259 283.982 273.386C283.001 273.513 282.11 274.02 281.499 274.798Z" fill="#BA68C8"/>
<path d="M277.228 260.328C276.748 260.923 276.457 261.648 276.392 262.409C276.328 263.171 276.493 263.935 276.867 264.602C277.24 265.269 277.805 265.808 278.488 266.152C279.171 266.495 279.941 266.625 280.7 266.527C281.458 266.428 282.169 266.105 282.741 265.599C283.314 265.092 283.722 264.426 283.913 263.686C284.103 262.945 284.068 262.165 283.811 261.445C283.554 260.725 283.087 260.099 282.471 259.646C281.679 259.057 280.69 258.799 279.711 258.926C278.733 259.053 277.843 259.556 277.228 260.328Z" fill="#BA68C8"/>
<path d="M374.98 409.065C379.122 375.433 368.584 342.036 348.294 315.193C342.842 307.962 336.696 301.28 329.944 295.245C323.242 288.804 315.54 283.493 307.138 279.516C307.138 279.516 306.981 279.516 307.138 279.674C313.194 284.916 319.8 289.32 325.75 294.642C331.653 299.868 337.148 305.538 342.186 311.602C352.532 324.035 360.526 338.247 365.779 353.544C371.104 369.3 373.113 385.988 371.679 402.558C370.244 419.128 365.397 435.222 357.443 449.828C352.878 457.977 347.244 465.479 340.692 472.136C333.956 478.634 326.33 484.142 318.043 488.493C316.497 489.385 317.598 492.216 319.328 491.875C327.9 490.119 335.449 484.168 341.636 478.218C348.019 472.036 353.603 465.079 358.255 457.509C367.256 442.755 372.961 426.23 374.98 409.065Z" fill="#37474F"/>
<path d="M366.38 561.604C348.424 571.958 305.223 574.894 278.459 558.983C248.287 541.052 244.8 514.419 258.93 508.232C279.009 499.32 288.813 531.825 317.229 543.726C351.019 557.908 366.38 550.358 366.38 550.358V561.604Z" fill="#BA68C8"/>
<path opacity="0.2" d="M366.38 561.604C348.424 571.958 305.223 574.894 278.459 558.983C248.287 541.052 244.8 514.419 258.93 508.232C279.009 499.32 288.813 531.825 317.229 543.726C351.019 557.908 366.38 550.358 366.38 550.358V561.604Z" fill="white"/>
<path d="M337.672 562.154C302.834 562.154 271.456 539.872 262.936 519.976C262.812 519.669 262.81 519.327 262.932 519.019C263.054 518.711 263.291 518.462 263.592 518.325C263.741 518.26 263.902 518.226 264.065 518.224C264.228 518.222 264.39 518.252 264.541 518.313C264.692 518.374 264.83 518.464 264.946 518.579C265.062 518.693 265.154 518.83 265.217 518.98C275.388 542.73 319.768 568.786 360.242 556.282C360.559 556.183 360.901 556.213 361.196 556.365C361.49 556.517 361.713 556.78 361.815 557.095C361.906 557.415 361.869 557.757 361.713 558.051C361.556 558.344 361.292 558.565 360.976 558.668C353.427 560.994 345.571 562.169 337.672 562.154Z" fill="white"/>
<path d="M329.833 505.558C329.867 505.718 329.839 505.884 329.757 506.025C329.675 506.165 329.543 506.27 329.387 506.319C300.211 515.127 269.095 501.993 250.143 472.87C250.051 472.722 250.018 472.545 250.052 472.375C250.086 472.204 250.184 472.053 250.326 471.952C250.477 471.863 250.656 471.834 250.827 471.873C250.998 471.912 251.147 472.016 251.244 472.162C269.882 500.788 300.395 513.685 328.994 505.06C329.164 505.011 329.347 505.03 329.504 505.113C329.661 505.196 329.779 505.337 329.833 505.506V505.558Z" fill="#455A64"/>
<path d="M271.769 471.585C271.795 471.934 271.795 472.285 271.769 472.634C271.701 475.059 271.277 477.462 270.511 479.764C268.884 484.123 268.673 488.883 269.908 493.369C269.934 493.473 269.93 493.581 269.898 493.683C269.865 493.785 269.805 493.876 269.724 493.946C269.635 494.004 269.53 494.036 269.423 494.036C269.316 494.036 269.211 494.004 269.121 493.946C263.643 490.459 255.648 479.895 259.186 471.323C261.441 465.871 264.98 465.897 266.421 466.08C267.756 466.368 268.977 467.044 269.928 468.024C270.88 469.003 271.52 470.242 271.769 471.585ZM268.387 491.586C267.787 487.524 268.183 483.377 269.541 479.502C270.279 477.292 270.694 474.988 270.773 472.66C270.725 471.382 270.257 470.155 269.442 469.17C268.627 468.184 267.51 467.495 266.264 467.208C263.774 466.762 261.546 468.413 260.156 471.743C256.932 479.607 264.036 488.677 268.545 492.242L268.387 491.586Z" fill="#455A64"/>
<path d="M270.012 493.421C270.048 493.49 270.067 493.566 270.067 493.644C270.067 493.722 270.048 493.798 270.012 493.867C269.914 493.963 269.782 494.017 269.645 494.017C269.507 494.017 269.376 493.963 269.278 493.867C264.743 489.751 262.331 479.004 264.533 472.555C264.575 472.423 264.668 472.313 264.79 472.25C264.913 472.186 265.056 472.173 265.188 472.214C265.322 472.262 265.432 472.359 265.496 472.486C265.559 472.614 265.571 472.76 265.529 472.896C263.248 479.554 266.079 489.568 269.985 493.08C270.025 493.189 270.034 493.307 270.012 493.421Z" fill="#455A64"/>
<path d="M266.16 489.909C266.21 490.062 266.21 490.227 266.16 490.381C266.064 490.496 265.93 490.575 265.782 490.604C265.634 490.632 265.481 490.609 265.348 490.538C262.045 488.441 252.241 491.324 246.474 493.762C244.778 494.53 242.927 494.895 241.067 494.827C239.206 494.758 237.387 494.259 235.752 493.369C234.729 492.697 233.892 491.778 233.319 490.697C232.746 489.615 232.456 488.406 232.476 487.182C232.465 485.969 232.815 484.78 233.483 483.767C234.151 482.754 235.105 481.963 236.224 481.494C242.175 478.558 254.574 480.393 266.029 489.568C266.112 489.662 266.159 489.783 266.16 489.909ZM233.734 488.519C233.869 489.312 234.173 490.066 234.625 490.731C235.078 491.396 235.668 491.956 236.355 492.373C237.825 493.167 239.459 493.61 241.128 493.664C242.798 493.719 244.457 493.384 245.976 492.687C246.5 492.478 256.645 488.205 262.857 488.65C252.555 481.363 241.886 479.974 236.644 482.543C235.728 482.917 234.945 483.556 234.394 484.378C233.843 485.2 233.549 486.167 233.55 487.156C233.556 487.616 233.618 488.074 233.734 488.519Z" fill="#455A64"/>
<path d="M266.161 489.909C266.211 490.044 266.211 490.193 266.161 490.328C266.079 490.462 265.949 490.558 265.797 490.598C265.645 490.637 265.484 490.615 265.348 490.538C256.278 485.295 242.752 486.003 239.134 487.156C238.985 487.207 238.821 487.197 238.679 487.128C238.537 487.059 238.427 486.938 238.374 486.789C238.35 486.715 238.341 486.637 238.348 486.56C238.355 486.482 238.377 486.407 238.414 486.338C238.451 486.27 238.501 486.209 238.562 486.161C238.622 486.112 238.692 486.076 238.767 486.055C242.516 484.849 256.54 484.089 265.925 489.515C266.048 489.614 266.132 489.753 266.161 489.909Z" fill="#455A64"/>
<path d="M256.96 450.955C255.62 457.755 252.791 464.173 248.676 469.75C237.929 473.132 233.236 473.892 224.691 472.555C222.638 472.117 220.712 471.221 219.055 469.934C218.465 469.417 218.086 468.701 217.989 467.923C217.893 467.145 218.085 466.359 218.53 465.713C219.43 464.897 220.593 464.432 221.807 464.403L232.528 462.935C228.516 462.747 224.618 461.538 221.204 459.422C219.946 458.636 218.583 457.351 219.028 455.936C219.474 454.52 221.807 454.048 223.537 454.31C228.029 454.939 232.386 456.303 236.434 458.347C233.518 454.482 231.227 450.183 229.645 445.607C229.426 445.168 229.312 444.683 229.312 444.192C229.312 443.701 229.426 443.216 229.645 442.776C230.641 441.413 232.817 442.331 234.075 443.432C236.993 445.961 239.381 449.044 241.1 452.502C239.865 447.455 239.793 442.193 240.891 437.114C240.931 436.711 241.052 436.321 241.245 435.965C241.439 435.609 241.702 435.296 242.018 435.043C243.381 434.204 245.006 435.725 245.714 437.167C247.565 441.037 248.515 445.276 248.493 449.566C249.201 446.944 251.507 440.836 253.736 441.02C255.964 441.203 257.904 446.551 256.96 450.955Z" fill="#BA68C8"/>
<path opacity="0.15" d="M256.96 450.955C255.62 457.755 252.791 464.173 248.676 469.75C237.929 473.132 233.236 473.892 224.691 472.555C222.638 472.117 220.712 471.221 219.055 469.934C218.465 469.417 218.086 468.701 217.989 467.923C217.893 467.145 218.085 466.359 218.53 465.713C219.43 464.897 220.593 464.432 221.807 464.403L232.528 462.935C228.516 462.747 224.618 461.538 221.204 459.422C219.946 458.636 218.583 457.351 219.028 455.936C219.474 454.52 221.807 454.048 223.537 454.31C228.029 454.939 232.386 456.303 236.434 458.347C233.518 454.482 231.227 450.183 229.645 445.607C229.426 445.168 229.312 444.683 229.312 444.192C229.312 443.701 229.426 443.216 229.645 442.776C230.641 441.413 232.817 442.331 234.075 443.432C236.993 445.961 239.381 449.044 241.1 452.502C239.865 447.455 239.793 442.193 240.891 437.114C240.931 436.711 241.052 436.321 241.245 435.965C241.439 435.609 241.702 435.296 242.018 435.043C243.381 434.204 245.006 435.725 245.714 437.167C247.565 441.037 248.515 445.276 248.493 449.566C249.201 446.944 251.507 440.836 253.736 441.02C255.964 441.203 257.904 446.551 256.96 450.955Z" fill="black"/>
<path d="M295.576 383.848C306.662 389.578 315.619 398.71 321.135 409.904C325.716 418.681 328.648 428.223 329.785 438.058C329.991 439.912 330.078 441.777 330.047 443.641C329.917 444.782 329.917 445.934 330.047 447.075C330.047 447.547 331.017 448.019 331.411 447.547C333.246 445.267 332.774 441.308 332.538 438.582C332.099 433.905 331.222 429.28 329.916 424.767C327.115 413.833 321.576 403.793 313.821 395.591C308.614 390.421 302.512 386.238 295.812 383.245C295.524 383.245 295.55 383.69 295.812 383.795L295.576 383.848Z" fill="#455A64"/>
<path d="M312.248 397.453C316.304 385.998 316.689 373.564 313.349 361.88C307.871 341.774 300.059 333.202 291.566 333.202C289.249 333.105 286.959 333.732 285.014 334.996C283.069 336.259 281.566 338.097 280.713 340.254C280.713 340.254 271.748 336.82 268.131 340.831C264.513 344.841 266.007 354.331 266.007 354.331C266.007 354.331 260.764 352.784 258.667 353.754C256.57 354.724 252.271 372.287 260.162 381.541C268.052 390.794 294.344 404.163 312.248 397.453Z" fill="#BA68C8"/>
<path opacity="0.25" d="M312.248 397.453C316.304 385.998 316.689 373.564 313.349 361.88C307.871 341.774 300.059 333.202 291.566 333.202C289.249 333.105 286.959 333.732 285.014 334.996C283.069 336.259 281.566 338.097 280.713 340.254C280.713 340.254 271.748 336.82 268.131 340.831C264.513 344.841 266.007 354.331 266.007 354.331C266.007 354.331 260.764 352.784 258.667 353.754C256.57 354.724 252.271 372.287 260.162 381.541C268.052 390.794 294.344 404.163 312.248 397.453Z" fill="black"/>
<path d="M309.678 398.999C298.958 401.944 287.692 402.303 276.806 400.048C257.958 396.378 251.404 390.978 250.199 381.698C248.993 372.418 255.441 369.928 263.096 376.717C263.096 376.717 263.646 371.684 266.661 370.478C268.215 369.996 269.861 369.883 271.467 370.147C273.073 370.41 274.596 371.045 275.914 371.999C277.199 373.31 290.227 395.644 309.678 398.999Z" fill="#BA68C8"/>
<path opacity="0.15" d="M309.678 398.999C298.958 401.944 287.692 402.303 276.806 400.048C257.958 396.378 251.404 390.978 250.199 381.698C248.993 372.418 255.441 369.928 263.096 376.717C263.096 376.717 263.646 371.684 266.661 370.478C268.215 369.996 269.861 369.883 271.467 370.147C273.073 370.41 274.596 371.045 275.914 371.999C277.199 373.31 290.227 395.644 309.678 398.999Z" fill="black"/>
<path d="M314.42 390.873C319.435 383.49 322.797 375.112 324.277 366.311C325.928 353.204 323.464 342.299 316.124 345.785C316.124 345.785 315.914 340.411 311.615 339.546C307.316 338.681 298.115 349.272 298.508 360.255C298.902 371.239 314.42 390.873 314.42 390.873Z" fill="#BA68C8"/>
<path opacity="0.15" d="M314.42 390.873C319.435 383.49 322.797 375.112 324.277 366.311C325.928 353.204 323.464 342.299 316.124 345.785C316.124 345.785 315.914 340.411 311.615 339.546C307.316 338.681 298.115 349.272 298.508 360.255C298.902 371.239 314.42 390.873 314.42 390.873Z" fill="black"/>
<path d="M309.675 398.999C299.347 400.1 285.689 393.442 279.162 387.517C271.298 380.335 266.868 368.276 270.171 360.439C273.474 352.601 282.727 350.399 282.727 350.399C282.727 350.399 284.51 343.19 293.894 343.478C300.343 343.662 308.364 358.001 312.087 370.531C315.809 383.061 313.712 393.756 309.675 398.999Z" fill="#BA68C8"/>
<path d="M319.301 403.77C316.234 402.853 312.878 403.194 304.516 404.426C296.154 405.658 288.657 405.972 287.923 400.782C287.189 395.592 301.03 397.164 301.03 397.164C301.03 397.164 293.585 388.252 297.596 384.293C302.838 379.051 311.174 390.585 311.174 390.585C311.174 390.585 311.489 378.474 316.417 378.264C321.345 378.054 322.394 383.507 320.874 389.798C319.353 396.09 318.042 400.913 319.301 403.77Z" fill="#455A64"/>
<path d="M366.376 561.604L386.561 549.939C386.561 549.939 412.198 502.754 369.522 465.897C329.441 431.242 285.637 433.261 285.637 433.261C285.637 433.261 274.444 489.935 294.812 526.582C316.36 565.615 366.376 561.604 366.376 561.604Z" fill="#BA68C8"/>
<path opacity="0.5" d="M366.376 561.604L386.561 549.939C386.561 549.939 412.198 502.754 369.522 465.897C329.441 431.242 285.637 433.261 285.637 433.261C285.637 433.261 274.444 489.935 294.812 526.582C316.36 565.615 366.376 561.604 366.376 561.604Z" fill="white"/>
<path d="M376.471 557.017C376.179 557.016 375.896 556.913 375.671 556.727C375.446 556.54 375.293 556.281 375.239 555.994C362.682 486.449 317.306 454.442 298.38 443.904C298.236 443.827 298.109 443.722 298.007 443.595C297.905 443.469 297.829 443.322 297.785 443.166C297.741 443.009 297.729 442.845 297.75 442.683C297.771 442.522 297.825 442.366 297.908 442.226C298.068 441.941 298.333 441.73 298.646 441.637C298.959 441.545 299.296 441.577 299.585 441.728C318.826 452.449 364.963 484.955 377.703 555.549C377.749 555.874 377.669 556.205 377.479 556.473C377.289 556.741 377.003 556.926 376.68 556.99L376.471 557.017Z" fill="white"/>
<path d="M353.717 496.829C353.408 496.834 353.108 496.721 352.878 496.515C344.123 488.651 316.493 487.969 301.892 495.23C301.748 495.306 301.59 495.352 301.428 495.365C301.266 495.379 301.103 495.359 300.949 495.307C300.795 495.256 300.652 495.174 300.531 495.066C300.409 494.958 300.31 494.827 300.241 494.68C300.094 494.384 300.069 494.042 300.172 493.728C300.275 493.414 300.497 493.154 300.791 493.002C316.519 485.138 345.04 486.134 354.529 494.654C354.758 494.889 354.887 495.204 354.887 495.532C354.887 495.86 354.758 496.175 354.529 496.41C354.43 496.532 354.306 496.632 354.166 496.704C354.027 496.776 353.874 496.819 353.717 496.829Z" fill="white"/>
<path d="M242.176 397.61C241.46 396.369 240.312 395.436 238.952 394.988C238.175 394.742 237.355 394.664 236.546 394.759C235.737 394.853 234.958 395.119 234.259 395.539C233.083 396.489 232.261 397.808 231.928 399.283C231.595 400.758 231.77 402.302 232.424 403.665C231.527 402.445 230.249 401.558 228.791 401.145C227.334 400.732 225.781 400.816 224.377 401.385C223.698 401.812 223.114 402.374 222.663 403.037C222.212 403.701 221.903 404.45 221.755 405.238C221.48 406.633 221.732 408.081 222.463 409.301C224.796 413.233 231.717 413.993 233.945 414.36C235.682 414.608 237.433 414.757 239.187 414.806C240.072 413.238 240.843 411.609 241.494 409.93C242.176 407.755 244.561 401.542 242.176 397.61Z" fill="#BA68C8"/>
<path d="M179.284 40.0419C179.448 40.8167 179.378 41.6229 179.084 42.3586C178.79 43.0944 178.284 43.7267 177.632 44.1758C176.979 44.6248 176.208 44.8704 175.416 44.8816C174.625 44.8928 173.847 44.6692 173.183 44.2388C172.519 43.8084 171.997 43.1906 171.684 42.4634C171.371 41.7363 171.28 40.9324 171.423 40.1532C171.567 39.374 171.937 38.6545 172.489 38.0855C173.04 37.5166 173.748 37.1236 174.522 36.9563C175.038 36.8417 175.571 36.8308 176.091 36.9244C176.611 37.0179 177.107 37.2139 177.55 37.5011C177.993 37.7882 178.375 38.1607 178.672 38.5969C178.97 39.0331 179.178 39.5243 179.284 40.0419Z" fill="#BA68C8"/>
<path d="M179.735 59.7939C179.899 60.5687 179.829 61.3749 179.535 62.1106C179.241 62.8464 178.736 63.4787 178.083 63.9277C177.43 64.3767 176.659 64.6224 175.867 64.6336C175.076 64.6448 174.299 64.4211 173.634 63.9907C172.97 63.5603 172.448 62.9426 172.135 62.2154C171.822 61.4883 171.731 60.6844 171.875 59.9052C172.018 59.126 172.389 58.4065 172.94 57.8375C173.491 57.2685 174.199 56.8755 174.973 56.7082C175.489 56.5936 176.022 56.5828 176.542 56.6763C177.062 56.7698 177.558 56.9659 178.001 57.253C178.444 57.5402 178.826 57.9127 179.123 58.3489C179.421 58.7851 179.629 59.2763 179.735 59.7939Z" fill="#BA68C8"/>
<path d="M193.428 45.3799C193.58 46.0302 193.533 46.7112 193.294 47.3352C193.055 47.9591 192.635 48.4974 192.088 48.8807C191.541 49.264 190.892 49.4747 190.224 49.4857C189.556 49.4967 188.901 49.3074 188.342 48.9423C187.784 48.5772 187.347 48.053 187.089 47.4372C186.832 46.8214 186.764 46.1423 186.895 45.4873C187.027 44.8324 187.351 44.2316 187.827 43.7624C188.303 43.2932 188.908 42.9771 189.564 42.8548C190.41 42.6973 191.283 42.8719 192.003 43.3421C192.723 43.8124 193.233 44.5423 193.428 45.3799Z" fill="#BA68C8"/>
<path d="M202.404 56.4843C202.55 57.1293 202.5 57.8034 202.26 58.4202C202.021 59.0369 201.602 59.5682 201.059 59.946C200.516 60.3238 199.873 60.5309 199.212 60.5406C198.55 60.5504 197.902 60.3625 197.348 60.0009C196.795 59.6393 196.363 59.1206 196.106 58.5111C195.85 57.9017 195.781 57.2295 195.909 56.5804C196.037 55.9313 196.356 55.3351 196.825 54.8681C197.294 54.4011 197.891 54.0846 198.54 53.9592C199.387 53.7898 200.266 53.9594 200.989 54.4315C201.711 54.9037 202.22 55.6408 202.404 56.4843Z" fill="#BA68C8"/>
<path d="M211.319 46.8342C211.47 47.4845 211.424 48.1655 211.185 48.7895C210.946 49.4134 210.526 49.9517 209.979 50.335C209.431 50.7182 208.782 50.929 208.115 50.94C207.447 50.9509 206.792 50.7616 206.233 50.3965C205.674 50.0314 205.238 49.5072 204.98 48.8915C204.722 48.2757 204.655 47.5966 204.786 46.9416C204.918 46.2867 205.242 45.6859 205.718 45.2167C206.194 44.7475 206.799 44.4314 207.455 44.3091C208.301 44.1457 209.178 44.3178 209.899 44.789C210.62 45.2602 211.129 45.9936 211.319 46.8342Z" fill="#BA68C8"/>
<path d="M77.3497 125.668C86.9182 97.7518 108.021 75.5499 134.343 62.1572C141.423 58.5436 148.842 55.6227 156.495 53.4364C164.263 50.9141 172.391 49.6529 180.564 49.7017C180.564 49.7017 180.688 49.7609 180.504 49.8249C173.706 51.6524 166.792 52.6153 160.047 54.5439C153.376 56.4159 146.858 58.7894 140.552 61.6436C127.61 67.4892 115.85 75.6156 105.846 85.6248C95.6097 95.9661 87.644 108.287 82.4499 121.812C77.2559 135.338 74.9458 149.776 75.6649 164.218C76.1668 172.324 77.7618 180.326 80.4074 188.01C83.2593 195.64 87.1941 202.829 92.0939 209.361C92.9782 210.642 91.0247 212.446 89.7849 211.527C83.6678 206.922 79.9625 199.414 77.3368 192.421C74.6432 185.172 72.8796 177.617 72.0871 169.931C70.5964 154.979 72.3915 139.88 77.3497 125.668Z" fill="#37474F"/>
<path d="M25.4755 248.129C35.6207 263.142 68.3742 281.936 95.3999 279.603C125.864 276.978 138.712 257.312 129.984 247.045C117.627 232.359 97.5959 254.244 70.7986 252.786C38.9222 251.076 29.7463 239.264 29.7463 239.264L25.4755 248.129Z" fill="#BA68C8"/>
<path opacity="0.2" d="M25.4755 248.129C35.6207 263.142 68.3742 281.936 95.3999 279.603C125.864 276.978 138.712 257.312 129.984 247.045C117.627 232.359 97.5959 254.244 70.7986 252.786C38.9222 251.076 29.7463 239.264 29.7463 239.264L25.4755 248.129Z" fill="white"/>
<path d="M47.79 259.497C75.0857 272.8 108.126 267.194 122.351 254.742C122.565 254.548 122.696 254.278 122.717 253.988C122.738 253.699 122.648 253.412 122.464 253.188C122.371 253.08 122.258 252.992 122.131 252.928C122.004 252.864 121.866 252.826 121.725 252.817C121.583 252.807 121.441 252.826 121.307 252.872C121.172 252.918 121.048 252.99 120.942 253.085C103.961 267.947 59.3011 271.568 32.3346 246.244C32.1243 246.045 31.8446 245.938 31.5561 245.945C31.2676 245.953 30.9937 246.075 30.7939 246.285C30.6014 246.503 30.5001 246.787 30.5114 247.078C30.5226 247.369 30.6455 247.645 30.8543 247.847C35.8862 252.565 41.5955 256.493 47.79 259.497Z" fill="white"/>
<path d="M75.6457 218.397C75.559 218.511 75.5174 218.652 75.5287 218.795C75.5401 218.937 75.6037 219.071 75.7072 219.168C95.2466 237.247 124.615 238.705 150.502 222.882C150.63 222.8 150.722 222.672 150.76 222.524C150.798 222.376 150.778 222.22 150.705 222.086C150.621 221.958 150.491 221.867 150.342 221.833C150.194 221.799 150.038 221.824 149.906 221.903C124.455 237.452 95.6486 236.036 76.4919 218.323C76.3771 218.219 76.2266 218.164 76.0723 218.17C75.918 218.176 75.7721 218.243 75.6655 218.356L75.6457 218.397Z" fill="#455A64"/>
<path d="M134.008 213.935C133.854 214.199 133.721 214.474 133.608 214.758C132.737 216.687 132.156 218.732 131.883 220.828C131.506 224.862 129.858 228.677 127.173 231.731C127.113 231.803 127.074 231.889 127.061 231.981C127.047 232.073 127.06 232.167 127.098 232.253C127.146 232.333 127.217 232.397 127.301 232.437C127.386 232.477 127.481 232.493 127.574 232.48C133.23 231.813 143.573 226.542 144.046 218.48C144.344 213.35 141.539 212.035 140.331 211.634C139.166 211.356 137.945 211.426 136.82 211.835C135.695 212.245 134.716 212.975 134.008 213.935ZM129.053 230.906C131.076 227.945 132.344 224.542 132.75 220.988C133.009 218.976 133.56 217.011 134.385 215.155C134.91 214.17 135.747 213.384 136.767 212.918C137.786 212.453 138.931 212.333 140.025 212.578C142.162 213.169 143.292 215.306 143.12 218.443C142.668 225.831 133.599 230.266 128.679 231.361L129.053 230.906Z" fill="#455A64"/>
<path d="M127.057 231.697C127.002 231.737 126.957 231.79 126.928 231.851C126.898 231.912 126.884 231.979 126.887 232.046C126.928 232.159 127.012 232.25 127.12 232.302C127.229 232.353 127.354 232.361 127.468 232.323C132.636 230.804 138.655 223.291 139.374 217.41C139.391 217.291 139.36 217.17 139.287 217.074C139.214 216.978 139.105 216.914 138.985 216.897C138.861 216.884 138.736 216.919 138.637 216.994C138.538 217.07 138.473 217.18 138.454 217.302C137.717 223.377 131.646 230.158 127.208 231.44C127.135 231.51 127.082 231.599 127.057 231.697Z" fill="#455A64"/>
<path d="M131.384 230.488C131.286 230.59 131.224 230.721 131.205 230.861C131.237 230.99 131.312 231.103 131.417 231.182C131.522 231.261 131.651 231.301 131.783 231.296C135.165 230.894 141.759 236.911 145.356 241.038C146.395 242.292 147.707 243.285 149.192 243.94C150.676 244.595 152.291 244.893 153.909 244.811C154.965 244.669 155.969 244.26 156.828 243.622C157.686 242.984 158.371 242.138 158.819 241.162C159.287 240.206 159.462 239.131 159.322 238.075C159.183 237.018 158.734 236.029 158.034 235.231C154.481 230.64 144.068 227.37 131.615 230.268C131.515 230.311 131.432 230.389 131.384 230.488ZM157.327 241.741C156.921 242.317 156.397 242.798 155.791 243.152C155.185 243.506 154.51 243.725 153.814 243.793C152.361 243.862 150.913 243.589 149.583 242.997C148.254 242.404 147.08 241.507 146.154 240.377C145.822 240.011 139.487 232.764 134.449 230.75C145.283 228.906 154.172 231.871 157.309 235.901C157.884 236.547 158.256 237.351 158.377 238.211C158.498 239.072 158.362 239.949 157.987 240.732C157.808 241.094 157.586 241.433 157.327 241.741Z" fill="#455A64"/>
<path d="M131.416 230.458C131.325 230.547 131.269 230.665 131.258 230.792C131.271 230.93 131.337 231.057 131.441 231.146C131.544 231.235 131.678 231.28 131.814 231.27C140.889 230.563 151.204 236.302 153.599 238.604C153.697 238.702 153.829 238.756 153.966 238.756C154.103 238.755 154.235 238.7 154.333 238.603C154.379 238.553 154.416 238.494 154.44 238.43C154.464 238.365 154.474 238.297 154.471 238.228C154.469 238.159 154.452 238.092 154.423 238.03C154.394 237.968 154.353 237.913 154.302 237.868C151.824 235.473 141.139 229.502 131.749 230.235C131.615 230.266 131.497 230.345 131.416 230.458Z" fill="#455A64"/>
<path d="M153.501 203.622C151.971 209.483 151.757 215.609 152.874 221.56C160.04 228.299 163.441 230.677 170.669 232.865C172.449 233.299 174.305 233.324 176.097 232.939C176.757 232.756 177.327 232.336 177.698 231.76C178.07 231.184 178.217 230.492 178.113 229.815C177.715 228.831 176.978 228.024 176.034 227.54L168.161 222.319C171.387 223.692 174.912 224.219 178.4 223.848C179.689 223.706 181.248 223.212 181.436 221.928C181.623 220.645 179.968 219.388 178.508 218.939C174.737 217.73 170.793 217.151 166.832 217.226C170.594 215.289 174.029 212.773 177.012 209.77C177.351 209.508 177.625 209.169 177.811 208.782C177.998 208.396 178.093 207.971 178.087 207.542C177.822 206.091 175.762 205.988 174.355 206.377C171.099 207.262 168.05 208.784 165.384 210.854C168.273 207.349 170.329 203.234 171.395 198.819C171.516 198.486 171.57 198.133 171.553 197.78C171.536 197.426 171.448 197.08 171.296 196.761C170.543 195.584 168.687 196.164 167.583 197.031C164.657 199.376 162.299 202.353 160.687 205.739C161.126 203.407 161.633 197.723 159.811 197.023C157.989 196.322 154.432 199.796 153.501 203.622Z" fill="#BA68C8"/>
<path opacity="0.15" d="M153.501 203.622C151.971 209.483 151.757 215.609 152.874 221.56C160.04 228.299 163.441 230.677 170.669 232.865C172.449 233.299 174.305 233.324 176.097 232.939C176.757 232.756 177.327 232.336 177.698 231.76C178.07 231.184 178.217 230.492 178.113 229.815C177.715 228.831 176.978 228.024 176.034 227.54L168.161 222.319C171.387 223.692 174.912 224.219 178.4 223.848C179.689 223.706 181.248 223.212 181.436 221.928C181.623 220.645 179.968 219.388 178.508 218.939C174.737 217.73 170.793 217.151 166.832 217.226C170.594 215.289 174.029 212.773 177.012 209.77C177.351 209.508 177.625 209.169 177.811 208.782C177.998 208.396 178.093 207.971 178.087 207.542C177.822 206.091 175.762 205.988 174.355 206.377C171.099 207.262 168.05 208.784 165.384 210.854C168.273 207.349 170.329 203.234 171.395 198.819C171.516 198.486 171.57 198.133 171.553 197.78C171.536 197.426 171.448 197.08 171.296 196.761C170.543 195.584 168.687 196.164 167.583 197.031C164.657 199.376 162.299 202.353 160.687 205.739C161.126 203.407 161.633 197.723 159.811 197.023C157.989 196.322 154.432 199.796 153.501 203.622Z" fill="black"/>
<path d="M149.354 135.956C138.424 136.263 127.878 140.046 119.263 146.748C112.305 151.906 106.358 158.289 101.715 165.58C100.847 166.958 100.068 168.389 99.3823 169.865C99.051 170.81 98.6123 171.714 98.0746 172.561C97.895 172.931 96.9499 172.935 96.8192 172.416C96.2396 169.931 98.1192 167.002 99.3435 164.951C101.47 161.445 103.924 158.146 106.673 155.096C113.047 147.572 121.242 141.783 130.484 138.277C136.563 136.187 142.971 135.21 149.398 135.393C149.625 135.502 149.435 135.842 149.188 135.826L149.354 135.956Z" fill="#455A64"/>
<path d="M131.102 140.781C132.263 130.233 136.684 120.306 143.751 112.381C155.703 98.6421 165.107 94.861 171.792 98.0813C173.652 98.8835 175.217 100.245 176.267 101.976C177.317 103.708 177.802 105.723 177.654 107.743C177.654 107.743 186.014 108.441 187.337 112.968C188.661 117.494 183.879 124.392 183.879 124.392C183.879 124.392 188.593 125.164 189.875 126.722C191.157 128.28 187.867 143.726 178.141 148.013C168.416 152.301 142.643 152.849 131.102 140.781Z" fill="#BA68C8"/>
<path opacity="0.25" d="M131.102 140.781C132.263 130.233 136.684 120.306 143.751 112.381C155.703 98.6421 165.107 94.861 171.792 98.0813C173.652 98.8835 175.217 100.245 176.267 101.976C177.317 103.708 177.802 105.723 177.654 107.743C177.654 107.743 186.014 108.441 187.337 112.968C188.661 117.494 183.879 124.392 183.879 124.392C183.879 124.392 188.593 125.164 189.875 126.722C191.157 128.28 187.867 143.726 178.141 148.013C168.416 152.301 142.643 152.849 131.102 140.781Z" fill="black"/>
<path d="M132.48 142.896C139.774 149.303 148.476 153.876 157.87 156.238C174.045 160.513 181.23 158.74 185.69 151.867C190.149 144.993 186.034 140.571 177.458 143.022C177.458 143.022 178.932 138.835 177.024 136.735C175.987 135.762 174.739 135.046 173.379 134.643C172.019 134.24 170.585 134.162 169.189 134.414C167.685 134.961 149.009 147.649 132.48 142.896Z" fill="#BA68C8"/>
<path opacity="0.15" d="M132.48 142.896C139.774 149.303 148.476 153.876 157.87 156.238C174.045 160.513 181.23 158.74 185.69 151.867C190.149 144.993 186.034 140.571 177.458 143.022C177.458 143.022 178.932 138.835 177.024 136.735C175.987 135.762 174.739 135.046 173.379 134.643C172.019 134.24 170.585 134.162 169.189 134.414C167.685 134.961 149.009 147.649 132.48 142.896Z" fill="black"/>
<path d="M132.022 134.573C130.875 126.884 131.412 119.039 133.596 111.573C137.286 100.664 143.387 93.0372 147.855 98.5465C147.855 98.5465 150.069 94.4087 153.793 95.3543C157.518 96.2999 160.75 108.087 156.255 116.558C151.759 125.029 132.022 134.573 132.022 134.573Z" fill="#BA68C8"/>
<path opacity="0.15" d="M132.022 134.573C130.875 126.884 131.412 119.039 133.596 111.573C137.286 100.664 143.387 93.0372 147.855 98.5465C147.855 98.5465 150.069 94.4087 153.793 95.3543C157.518 96.2999 160.75 108.087 156.255 116.558C151.759 125.029 132.022 134.573 132.022 134.573Z" fill="black"/>
<path d="M132.528 142.896C140.244 147.675 153.531 147.615 160.923 145.431C169.847 142.763 177.92 134.962 178.299 127.548C178.677 120.134 172.227 114.897 172.227 114.897C172.227 114.897 173.564 108.554 166.063 105.225C160.915 102.926 149.147 111.16 141.452 119.6C133.757 128.041 131.342 137.244 132.528 142.896Z" fill="#BA68C8"/>
<path d="M123.149 142.81C125.907 143.252 128.414 144.795 134.518 148.942C140.621 153.089 146.393 156.185 148.939 152.374C151.485 148.562 140.012 144.545 140.012 144.545C140.012 144.545 149.243 140.349 147.593 135.706C145.463 129.584 134.537 135.506 134.537 135.506C134.537 135.506 138.884 125.844 135.091 123.806C131.298 121.769 128.406 125.668 127.214 131.203C126.022 136.738 125.222 141.037 123.149 142.81Z" fill="#455A64"/>
<path d="M25.6767 248.169L14.2503 231.332C14.2503 231.332 12.0661 184.522 59.6573 171.797C104.37 159.814 138.04 178.053 138.04 178.053C138.04 178.053 125.254 226.826 95.2812 247.868C63.4728 270.336 25.6767 248.169 25.6767 248.169Z" fill="#BA68C8"/>
<path opacity="0.5" d="M25.6767 248.169L14.2503 231.332C14.2503 231.332 12.0661 184.522 59.6573 171.797C104.37 159.814 138.04 178.053 138.04 178.053C138.04 178.053 125.254 226.826 95.2812 247.868C63.4728 270.336 25.6767 248.169 25.6767 248.169Z" fill="white"/>
<path d="M19.4226 240.701C19.6529 240.811 19.9145 240.838 20.1625 240.777C20.4106 240.716 20.6296 240.571 20.7821 240.366C57.1793 190.555 105.097 182.668 124.011 181.586C124.154 181.58 124.293 181.546 124.422 181.485C124.551 181.425 124.666 181.339 124.761 181.232C124.855 181.126 124.927 181.002 124.972 180.867C125.017 180.732 125.034 180.59 125.022 180.448C125.005 180.164 124.877 179.898 124.666 179.706C124.455 179.514 124.177 179.412 123.892 179.42C104.66 180.527 55.9539 188.516 19.0125 239.081C18.8518 239.319 18.7887 239.609 18.8361 239.892C18.8836 240.174 19.038 240.428 19.2676 240.601L19.4226 240.701Z" fill="white"/>
<path d="M60.3915 202.142C60.6317 202.264 60.9083 202.289 61.1665 202.214C70.9885 199.327 92.8522 209.379 101.523 220.743C101.607 220.858 101.713 220.955 101.834 221.027C101.956 221.1 102.091 221.147 102.231 221.165C102.371 221.184 102.514 221.173 102.65 221.134C102.786 221.095 102.912 221.029 103.023 220.939C103.249 220.76 103.398 220.498 103.436 220.209C103.474 219.921 103.399 219.628 103.227 219.396C93.9029 207.121 71.2231 196.977 60.5792 200.103C60.3112 200.202 60.0918 200.403 59.9677 200.663C59.8436 200.924 59.8245 201.223 59.9147 201.497C59.9466 201.632 60.0054 201.759 60.0874 201.87C60.1694 201.981 60.2729 202.073 60.3915 202.142Z" fill="white"/>
<path d="M185.655 167.579C186.69 166.876 187.947 166.579 189.186 166.746C189.889 166.847 190.563 167.098 191.162 167.48C191.762 167.863 192.273 168.369 192.662 168.964C193.225 170.159 193.368 171.508 193.068 172.795C192.768 174.081 192.043 175.229 191.011 176.051C192.18 175.433 193.521 175.223 194.823 175.453C196.125 175.683 197.313 176.34 198.2 177.321C198.571 177.915 198.815 178.579 198.917 179.273C199.019 179.966 198.976 180.672 198.792 181.348C198.478 182.55 197.729 183.592 196.69 184.273C193.361 186.477 187.636 184.441 185.746 183.881C184.287 183.415 182.855 182.866 181.458 182.237C181.36 180.667 181.375 179.093 181.502 177.525C181.795 175.555 182.285 169.763 185.655 167.579Z" fill="#BA68C8"/>
<g clip-path="url(#clip0_453_698)">
<path d="M236.796 240.874C226.504 232.447 265.293 208.758 256.462 202.696C228.158 183.252 253.446 134.107 259.582 119.102C260.215 117.526 254.597 112.389 256.575 108.86C257.873 106.559 261.119 105.67 262.372 105.769C267.672 106.213 349.925 152.872 349.925 152.872C349.76 154.239 352.218 162.116 344.507 162.978C340.932 163.37 336.817 161.239 336.365 162.372C333.899 168.659 304.594 209.718 267.256 210.905C258.028 211.204 263.582 228.509 245.351 241.887C241.832 244.463 236.988 241.029 236.796 240.874V240.874Z" stroke="black" stroke-width="2" stroke-miterlimit="10"/>
<path d="M270.468 199.008C273.882 196.7 298.16 198.007 304.86 182.063" stroke="black" stroke-width="2" stroke-miterlimit="10"/>
</g>
<path d="M149.625 435.879C158.06 450.878 188.572 409.578 176.544 398.426C155.762 379.189 123.123 315.887 104.786 320.095C91.0948 323.221 87.9165 336.086 87.9654 339.392C88.6011 373.839 129.968 400.951 149.625 435.879Z" stroke="black" stroke-width="2" stroke-miterlimit="10"/>
<path d="M170.012 427.943C170.012 432.812 181.577 435.878 179.303 443.663C171.577 470.114 111.409 432.812 93.5609 450.366C87.2287 456.588 85.1261 473.12 94.6855 473.812C166.345 478.982 157.128 461.848 179.303 468.972C183.802 470.415 194.706 480.635 192.212 485.474C187.273 495.153 165.294 493.109 155.221 489.863" stroke="black" stroke-width="2" stroke-miterlimit="10"/>
<path d="M164.026 434.436C164.026 434.436 108.16 368.729 92.4395 340.294" stroke="black" stroke-width="2" stroke-miterlimit="10"/>
<path d="M170.946 424.847C170.946 424.847 116.548 363.499 97.502 335.244" stroke="black" stroke-width="2" stroke-miterlimit="10"/>
<path d="M177.644 414.207C177.644 414.207 134.223 353.159 104.225 329.743" stroke="black" stroke-width="2" stroke-miterlimit="10"/>
<defs>
<clipPath id="clip0_453_698">
<rect width="108.561" height="134.796" fill="white" transform="matrix(0.883239 0.468924 -0.515189 0.857077 259.334 101.894)"/>
</clipPath>
</defs>
</svg>
