<svg width="310" height="576" viewBox="0 0 310 576" fill="none" xmlns="http://www.w3.org/2000/svg">
<path d="M219.533 417.226C221.532 402.601 234.388 399.25 242.98 394.255C251.572 389.26 260.675 384.563 267.039 376.966C265.8 382.85 264.303 388.739 261.596 394.149C258.889 399.559 254.843 404.492 249.531 407.438C240.241 412.55 228.226 411.123 219.555 417.224" fill="#6F564F"/>
<path d="M259.985 415.599C254.443 416.83 248.819 417.605 243.171 417.914C232.37 418.803 220.508 420.171 211.608 426.475C215.968 430.243 224.731 431.67 230.569 431.104C236.407 430.539 242.023 428.388 247.534 426.282C252.836 424.427 257.982 422.136 262.916 419.432C267.867 416.705 272.072 412.799 275.138 408.081C270.761 411.771 265.554 414.355 259.985 415.599Z" fill="#6F564F"/>
<path d="M212.363 396.309C212.456 389.506 211.155 382.79 208.538 376.566C205.921 370.343 202.043 364.74 197.137 360.094C201.796 367.254 197.763 377.454 197.932 386.05C198.231 400.665 202.626 414.644 209.658 427.337C208.686 417.009 212.168 406.676 212.363 396.309Z" fill="#6F564F"/>
<path d="M172.518 358.383C171.742 374.677 171.097 391.662 177.856 406.341C183.161 417.854 194.449 425.838 200.281 437.09L201.018 436.316C197.49 407.966 189.101 381.522 172.518 358.383Z" fill="#6F564F"/>
<path d="M243.816 441.585C231.135 436.648 217.45 433.599 203.742 434.665L201.416 437.058C209.409 444.585 220.044 453.361 230.505 456.914C246.148 462.218 263.738 457.319 280.08 460.113C268.281 453.347 256.476 446.546 243.816 441.585Z" fill="#6F564F"/>
<path d="M226.416 463.452C215.375 455.596 202.379 449.464 188.888 447.209L187.354 450.066C193.264 459.323 200.659 469.259 209.89 475.223C223.695 484.138 241.826 483.56 256.913 490.189C247.205 480.762 237.451 471.294 226.416 463.452Z" fill="#6F564F"/>
<path d="M184.873 450.998C175.9 441.205 167.004 431.282 159.614 420.265C152.224 409.247 146.36 397.015 143.998 383.9C165.273 400.763 179.752 424.58 184.952 451.265" fill="#6F564F"/>
<path d="M164.3 468.416C170.697 477.267 178.382 487.466 187.838 492.981C202.789 501.739 221.063 502.733 238.569 503.509C220.881 496.924 208.685 480.372 191.196 473.239C182.588 469.731 174.587 468.646 165.268 467.653" fill="#6F564F"/>
<path d="M255.659 389.971C255.659 389.971 255.516 390.106 255.225 390.363L253.913 391.439L248.844 395.571C248.299 396.025 247.714 396.496 247.101 397.008C246.463 397.527 245.764 397.965 245.02 398.312C243.326 399.137 241.59 399.871 239.82 400.51C237.787 401.188 235.803 402.014 233.886 402.981C231.761 404.111 229.757 405.458 227.908 406.997C225.864 408.675 224.008 410.566 222.376 412.637C220.598 414.769 218.765 416.98 216.877 419.268C215.019 421.596 212.88 423.834 210.785 426.217L207.555 429.81L204.11 433.383C194.035 443.879 183.226 453.665 171.767 462.663C160.298 471.659 148.226 479.866 135.639 487.225C125.335 493.179 114.715 498.566 103.829 503.359C99.143 505.302 94.9508 507.186 91.1573 508.536C87.3637 509.886 84.1568 511.234 81.4434 512.075L75.2433 514.122L73.6259 514.641C73.2684 514.755 73.0799 514.797 73.0799 514.797C73.0799 514.797 73.2527 514.717 73.6181 514.585L75.2106 514.024L81.3833 511.892C84.0772 511.021 87.2854 509.695 91.0568 508.273C94.8281 506.85 99.0217 504.989 103.694 503.029C114.536 498.203 125.118 492.802 135.394 486.852C147.949 479.483 159.997 471.282 171.452 462.305C182.895 453.324 193.696 443.564 203.773 433.1C204.944 431.905 206.094 430.711 207.223 429.541C208.351 428.371 209.392 427.134 210.458 425.96C212.536 423.592 214.694 421.361 216.552 419.033C218.41 416.705 220.301 414.549 222.07 412.431C223.733 410.346 225.619 408.441 227.693 406.753C229.584 405.228 231.624 403.897 233.78 402.779C235.714 401.815 237.714 400.992 239.764 400.317C241.525 399.696 243.253 398.98 244.941 398.174C246.32 397.409 247.609 396.492 248.783 395.44L253.905 391.383L255.246 390.339C255.493 390.086 255.659 389.971 255.659 389.971Z" fill="#B16668"/>
<path d="M261.426 455.467C261.223 455.417 261.027 455.338 260.846 455.234L259.221 454.439C257.817 453.733 255.771 452.736 253.228 451.562C239.965 445.39 225.975 440.846 211.552 438.024C208.79 437.475 206.551 437.114 204.983 436.825L203.188 436.51C202.977 436.487 202.77 436.437 202.572 436.362C202.787 436.352 203.002 436.365 203.213 436.399L205.016 436.618C206.583 436.808 208.848 437.158 211.633 437.651C226.143 440.288 240.187 444.852 253.402 451.225C255.934 452.45 257.951 453.49 259.328 454.262L260.904 455.148C261.092 455.229 261.268 455.337 261.426 455.467Z" fill="#B16668"/>
<path d="M236.804 481.177C236.618 481.11 236.444 481.018 236.284 480.904L234.85 480.05C233.607 479.304 231.83 478.194 229.636 476.797C225.254 474.017 219.259 470.095 212.716 465.638C206.173 461.182 200.343 457.021 196.155 453.961C194.061 452.43 192.387 451.176 191.249 450.31L189.931 449.284C189.772 449.171 189.625 449.043 189.49 448.902C189.67 448.977 189.837 449.077 189.988 449.199L191.374 450.142L196.398 453.667C200.639 456.651 206.502 460.76 213.018 465.205C219.533 469.65 225.514 473.632 229.842 476.488L234.966 479.879L236.342 480.819C236.511 480.917 236.666 481.038 236.804 481.177Z" fill="#B16668"/>
<path d="M157.414 405.334C157.561 405.435 157.693 405.556 157.807 405.693L158.858 406.816C159.767 407.796 161.026 409.258 162.532 411.096C170.418 420.712 176.926 431.372 181.88 442.786C182.831 444.971 183.552 446.766 184.004 448.015L184.521 449.461C184.59 449.628 184.641 449.803 184.673 449.982C184.572 449.835 184.489 449.676 184.425 449.509L183.817 448.102C183.292 446.824 182.54 445.102 181.554 442.924C178.986 437.287 176.086 431.81 172.866 426.523C169.628 421.244 166.08 416.162 162.241 411.302C160.769 409.434 159.543 407.943 158.691 406.931L157.721 405.744C157.605 405.618 157.502 405.481 157.414 405.334Z" fill="#B16668"/>
<path d="M180.089 381.236C180.228 381.185 185.108 393.452 191.004 408.638C196.9 423.824 201.571 436.179 201.432 436.231C201.292 436.282 196.408 424.024 190.516 408.829C184.624 393.634 179.94 381.284 180.089 381.236Z" fill="#B16668"/>
<path d="M205.73 384.433C205.83 384.988 205.881 385.552 205.882 386.118C205.957 387.284 206.048 388.839 206.149 390.716C206.384 394.591 206.751 399.951 207.301 405.851C207.851 411.751 208.517 417.081 209.022 420.923L209.623 425.484C209.721 426.038 209.776 426.599 209.788 427.164C209.628 426.624 209.508 426.073 209.43 425.514C209.223 424.455 208.96 422.907 208.674 420.966C208.072 417.127 207.361 411.801 206.802 405.898C206.243 399.994 205.929 394.612 205.794 390.725C205.733 388.778 205.695 387.202 205.695 386.108C205.667 385.55 205.679 384.991 205.73 384.433Z" fill="#B16668"/>
<path d="M243.789 420.391C243.395 420.563 242.982 420.688 242.56 420.761C241.782 420.978 240.65 421.27 239.248 421.593C236.454 422.266 232.557 423.112 228.236 423.898C223.915 424.683 219.979 425.268 217.126 425.627C215.697 425.812 214.542 425.933 213.747 426.014C213.332 426.074 212.914 426.095 212.498 426.077C212.883 425.937 213.283 425.843 213.689 425.798L217.05 425.254C219.888 424.803 223.803 424.167 228.124 423.382C232.445 422.596 236.3 421.797 239.145 421.231L242.48 420.548C242.911 420.454 243.35 420.401 243.789 420.391Z" fill="#B16668"/>
<path d="M207.613 488.696C207.554 488.838 197.833 484.291 185.906 478.56C173.979 472.829 164.368 468.073 164.436 467.936C164.504 467.798 174.216 472.341 186.148 478.085C198.08 483.829 207.736 488.558 207.613 488.696Z" fill="#B16668"/>
<path d="M168.226 464.465C158.64 459.329 147.536 453.057 140.839 444.567C130.267 431.084 127 413.383 124.021 396.46C132.784 412.878 150.763 422.709 160.031 438.846C164.6 446.803 166.674 454.458 168.819 463.404" fill="#6F564F"/>
<path d="M142.9 424.733C143.02 424.652 148.894 433.416 156.02 444.313C163.146 455.211 168.832 464.115 168.712 464.195C168.591 464.276 162.712 455.5 155.586 444.602C148.461 433.704 142.78 424.814 142.9 424.733Z" fill="#B16668"/>
<path d="M185.413 157.24C185.163 154.094 185.859 150.959 187.415 148.229C188.971 145.5 191.317 143.299 194.156 141.905C196.995 140.511 200.2 139.985 203.367 140.396C206.533 140.806 209.52 142.132 211.948 144.209C214.377 146.285 216.138 149.018 217.012 152.062C217.885 155.106 217.83 158.324 216.853 161.311C215.877 164.298 214.024 166.92 211.527 168.844C209.03 170.769 206.001 171.911 202.824 172.126C200.705 172.282 198.57 172.018 196.544 171.352C194.517 170.685 192.639 169.629 191.019 168.243C189.398 166.858 188.068 165.172 187.106 163.283C186.144 161.394 185.568 159.34 185.413 157.24Z" fill="#B16668"/>
<path d="M195.576 78.7704C195.325 75.6245 196.022 72.4891 197.578 69.7597C199.134 67.0304 201.479 64.8298 204.318 63.4355C207.157 62.0412 210.362 61.5158 213.529 61.9258C216.696 62.3359 219.682 63.6629 222.11 65.7393C224.539 67.8156 226.301 70.5482 227.174 73.5921C228.047 76.636 227.992 79.8546 227.016 82.8416C226.039 85.8286 224.186 88.4501 221.689 90.375C219.192 92.2998 216.163 93.4418 212.986 93.6567C210.867 93.8123 208.733 93.549 206.706 92.8824C204.679 92.2157 202.801 91.1591 201.181 89.7738C199.56 88.3885 198.23 86.7023 197.268 84.8133C196.306 82.9243 195.731 80.87 195.576 78.7704Z" fill="#B16668"/>
<path d="M132.39 129.422C132.123 126.774 132.662 124.118 133.94 121.798C135.217 119.477 137.174 117.598 139.557 116.402C141.94 115.206 144.642 114.749 147.312 115.088C149.983 115.428 152.501 116.549 154.542 118.308C156.583 120.067 158.053 122.382 158.763 124.955C159.473 127.529 159.39 130.243 158.525 132.747C157.66 135.251 156.053 137.432 153.911 139.007C151.768 140.582 149.189 141.48 146.504 141.585C143.047 141.72 139.65 140.532 137.022 138.267C134.393 136.001 132.734 132.834 132.39 129.422Z" fill="#B16668"/>
<path d="M103.408 81.1577C103.161 78.5333 103.711 75.9068 104.987 73.6149C106.264 71.323 108.209 69.4701 110.574 68.2935C112.938 67.117 115.614 66.6706 118.259 67.0114C120.904 67.3522 123.396 68.4647 125.417 70.2064C127.438 71.948 128.896 74.2395 129.603 76.7871C130.311 79.3346 130.236 82.0221 129.388 84.5053C128.539 86.9885 126.957 89.1541 124.843 90.7246C122.729 92.2951 120.18 93.1991 117.523 93.3205C114.054 93.5021 110.632 92.3297 107.993 90.0554C105.354 87.7811 103.707 84.5863 103.408 81.1577Z" fill="#B16668"/>
<path d="M62.0886 115.138C61.8213 112.49 62.3612 109.834 63.6386 107.513C64.9161 105.193 66.8725 103.313 69.256 102.118C71.6394 100.922 74.3406 100.464 77.0114 100.804C79.6823 101.144 82.2003 102.265 84.2412 104.024C86.282 105.782 87.7522 108.098 88.4621 110.671C89.1721 113.245 89.0894 115.958 88.2246 118.463C87.3598 120.967 85.7525 123.148 83.61 124.723C81.4674 126.298 78.8878 127.196 76.2034 127.301C72.7402 127.459 69.3314 126.279 66.6974 124.009C64.0634 121.739 62.4108 118.558 62.0886 115.138Z" fill="#B16668"/>
<path d="M59.7772 265.239C-19.0147 282.725 6.87836 300.863 19.6799 315.315C32.8525 330.193 60.6073 355.926 89.8689 349.857C121.564 343.284 132.055 310.822 132.598 294.644C133.429 269.67 153.258 244.5 59.7772 265.239ZM72.8374 286.576C39.2809 293.536 10.8173 294.904 9.26358 289.627C7.70982 284.35 33.6569 274.435 67.2012 267.478C100.745 260.521 129.221 259.15 130.775 264.427C132.329 269.704 106.382 279.619 72.8252 286.579L72.8374 286.576Z" stroke="#1D1D1B" stroke-miterlimit="10"/>
<path d="M133.844 286.615C133.267 276.003 154.041 279.913 152.371 298.998C151.009 314.633 126.874 320.26 127.675 317.128C128.698 313.141 152.008 310.034 147.506 294.728C143.005 279.421 133.982 289.313 133.844 286.615Z" stroke="#1D1D1B" stroke-miterlimit="10"/>
<path d="M98.0702 322.524C102.259 311.055 95.2889 298.082 91.6719 294.991C90.5121 294 89.2561 306.285 80.991 317.208C73.459 327.159 77.2437 339.151 81.9639 340.623C86.6841 342.095 93.8938 333.989 98.0822 322.521L98.0702 322.524Z" stroke="#1D1D1B" stroke-miterlimit="10"/>
<path d="M104.981 332.148C106.771 327.241 103.789 321.681 102.239 320.362C101.744 319.94 101.207 325.203 97.6657 329.881C94.4346 334.141 96.0536 339.276 98.0761 339.906C100.099 340.535 103.182 337.069 104.981 332.148Z" stroke="#1D1D1B" stroke-miterlimit="10"/>
<path d="M65.0225 333.328C64.0581 328.184 67.8531 323.257 69.5765 322.227C70.1252 321.897 69.823 327.167 72.5357 332.402C75.0115 337.174 72.608 341.926 70.5327 342.187C68.4574 342.448 65.99 338.481 65.0106 333.33L65.0225 333.328Z" stroke="#1D1D1B" stroke-miterlimit="10"/>
<path d="M98.4519 338.827C97.5326 335.713 102.992 329.681 102.072 326.567" stroke="#1D1D1B" stroke-miterlimit="10"/>
<path d="M82.5725 338.689C82.0926 329.638 94.7789 314.404 92.3375 306.135" stroke="#1D1D1B" stroke-miterlimit="10"/>
<path d="M70.2896 340.519C69.4417 337.579 67.7582 331.744 68.6194 328.504" stroke="#1D1D1B" stroke-miterlimit="10"/>
</svg>
