<svg width="311" height="576" viewBox="0 0 311 576" fill="none" xmlns="http://www.w3.org/2000/svg">
<path d="M112.791 157.24C113.061 154.094 112.312 150.959 110.642 148.229C108.971 145.5 106.452 143.299 103.403 141.905C100.354 140.511 96.9121 139.985 93.5115 140.396C90.1109 140.806 86.9041 142.132 84.2962 144.209C81.6883 146.285 79.7963 149.018 78.8588 152.062C77.9212 155.106 77.9804 158.324 79.0287 161.311C80.077 164.298 82.0675 166.92 84.7489 168.844C87.4303 170.769 90.6824 171.911 94.0944 172.126C96.3697 172.282 98.6623 172.018 100.839 171.352C103.015 170.685 105.032 169.629 106.772 168.243C108.512 166.858 109.94 165.172 110.974 163.283C112.007 161.394 112.625 159.34 112.791 157.24Z" fill="#B16668"/>
<path d="M101.879 78.7704C102.148 75.6245 101.4 72.4891 99.7292 69.7597C98.0583 67.0304 95.5395 64.8298 92.4907 63.4355C89.4419 62.0412 85.9998 61.5158 82.5992 61.9258C79.1986 62.3359 75.992 63.6629 73.3841 65.7393C70.7762 67.8156 68.884 70.5482 67.9465 73.5921C67.009 76.636 67.0681 79.8546 68.1164 82.8416C69.1648 85.8286 71.1554 88.4501 73.8368 90.375C76.5182 92.2998 79.7702 93.4418 83.1823 93.6567C85.4576 93.8123 87.7502 93.549 89.9266 92.8824C92.1031 92.2157 94.12 91.1591 95.8599 89.7738C97.5999 88.3885 99.0281 86.7023 100.061 84.8133C101.095 82.9243 101.713 80.87 101.879 78.7704Z" fill="#B16668"/>
<path d="M169.733 129.422C170.02 126.774 169.44 124.118 168.068 121.798C166.697 119.477 164.596 117.598 162.036 116.402C159.477 115.206 156.576 114.749 153.708 115.088C150.84 115.428 148.136 116.549 145.944 118.308C143.752 120.067 142.174 122.382 141.411 124.955C140.649 127.529 140.738 130.243 141.667 132.747C142.595 135.251 144.321 137.432 146.622 139.007C148.923 140.582 151.693 141.48 154.576 141.585C158.289 141.72 161.936 140.532 164.759 138.267C167.582 136.001 169.363 132.834 169.733 129.422Z" fill="#B16668"/>
<path d="M200.855 81.1577C201.121 78.5333 200.53 75.9068 199.159 73.6149C197.788 71.323 195.699 69.4701 193.16 68.2935C190.621 67.117 187.747 66.6706 184.907 67.0114C182.067 67.3522 179.39 68.4647 177.22 70.2064C175.049 71.948 173.484 74.2395 172.724 76.7871C171.965 79.3347 172.046 82.0221 172.956 84.5053C173.867 86.9885 175.566 89.1541 177.836 90.7246C180.107 92.2951 182.844 93.1991 185.698 93.3205C189.423 93.5021 193.097 92.3297 195.931 90.0554C198.766 87.7811 200.534 84.5863 200.855 81.1577Z" fill="#B16668"/>
<path d="M245.228 115.138C245.515 112.49 244.935 109.834 243.563 107.513C242.192 105.193 240.091 103.313 237.531 102.118C234.972 100.922 232.071 100.464 229.203 100.804C226.335 101.144 223.631 102.265 221.439 104.024C219.247 105.782 217.668 108.098 216.906 110.671C216.144 113.245 216.232 115.958 217.161 118.463C218.09 120.967 219.816 123.148 222.117 124.723C224.417 126.298 227.188 127.196 230.07 127.301C233.789 127.459 237.45 126.279 240.279 124.009C243.107 121.739 244.882 118.558 245.228 115.138Z" fill="#B16668"/>
<g clip-path="url(#clip0_606_2288)">
<path d="M276.34 372.829L207.656 365.081C201.762 364.416 197.577 359.529 198.306 354.161L211.326 258.268C212.523 249.452 224.976 242.185 232.18 235.618L287.183 241.823C292.65 248.208 302.546 259.607 301.349 268.423L288.329 364.316C287.6 369.683 282.234 373.494 276.34 372.829Z" stroke="#1D1D1B" stroke-miterlimit="10"/>
<path d="M259.693 238.722C262.326 219.328 176.25 237.365 178.881 217.99" stroke="#1D1D1B" stroke-miterlimit="10"/>
<path d="M193.357 193.567L171.373 191.088L167.833 217.162L189.817 219.642L193.357 193.567Z" stroke="#1D1D1B" stroke-miterlimit="10"/>
<path d="M210.692 356.553L215.893 353.639" stroke="#1D1D1B" stroke-miterlimit="10"/>
<path d="M223.189 353.149L230.825 357.073" stroke="#1D1D1B" stroke-miterlimit="10"/>
<path d="M231.437 358.833L235.035 355.5" stroke="#1D1D1B" stroke-miterlimit="10"/>
<path d="M230.92 352.828L234.856 353.272" stroke="#1D1D1B" stroke-miterlimit="10"/>
<path d="M223.799 347.529L230.897 348.33" stroke="#1D1D1B" stroke-miterlimit="10"/>
<path d="M219.12 356.409L219.705 352.1" stroke="#1D1D1B" stroke-miterlimit="10"/>
<path d="M219.58 347.71L217.865 346.184" stroke="#1D1D1B" stroke-miterlimit="10"/>
<path d="M260.229 350.425L255.965 346.444" stroke="#1D1D1B" stroke-miterlimit="10"/>
<path d="M249.022 344.328L240.543 346.454" stroke="#1D1D1B" stroke-miterlimit="10"/>
<path d="M239.085 349.154L236.463 345.139" stroke="#1D1D1B" stroke-miterlimit="10"/>
<path d="M241.585 342.315L237.67 341.874" stroke="#1D1D1B" stroke-miterlimit="10"/>
<path d="M249.933 338.742L242.812 337.939" stroke="#1D1D1B" stroke-miterlimit="10"/>
<path d="M252.072 348.411L252.66 344.082" stroke="#1D1D1B" stroke-miterlimit="10"/>
<path d="M253.977 339.854L256.045 338.775" stroke="#1D1D1B" stroke-miterlimit="10"/>
<path d="M230.941 343.183L226.68 339.182" stroke="#1D1D1B" stroke-miterlimit="10"/>
<path d="M219.735 337.086L211.277 339.215" stroke="#1D1D1B" stroke-miterlimit="10"/>
<path d="M209.797 341.912L207.176 337.897" stroke="#1D1D1B" stroke-miterlimit="10"/>
<path d="M212.323 335.057L208.387 334.613" stroke="#1D1D1B" stroke-miterlimit="10"/>
<path d="M220.645 331.5L213.547 330.699" stroke="#1D1D1B" stroke-miterlimit="10"/>
<path d="M222.805 341.172L223.393 336.842" stroke="#1D1D1B" stroke-miterlimit="10"/>
<path d="M224.688 332.613L226.756 331.533" stroke="#1D1D1B" stroke-miterlimit="10"/>
<path d="M278.416 365.425L274.133 361.421" stroke="#1D1D1B" stroke-miterlimit="10"/>
<path d="M267.209 359.328L258.733 361.435" stroke="#1D1D1B" stroke-miterlimit="10"/>
<path d="M257.25 364.151L254.652 360.119" stroke="#1D1D1B" stroke-miterlimit="10"/>
<path d="M259.776 357.296L255.861 356.854" stroke="#1D1D1B" stroke-miterlimit="10"/>
<path d="M268.12 353.742L261 352.939" stroke="#1D1D1B" stroke-miterlimit="10"/>
<path d="M270.262 363.391L270.848 359.082" stroke="#1D1D1B" stroke-miterlimit="10"/>
<path d="M272.141 354.852L274.231 353.775" stroke="#1D1D1B" stroke-miterlimit="10"/>
<path d="M266.111 330.105L265.77 335.675" stroke="#1D1D1B" stroke-miterlimit="10"/>
<path d="M268.744 341.759L276.16 346.016" stroke="#1D1D1B" stroke-miterlimit="10"/>
<path d="M279.351 345.183L277.846 349.668" stroke="#1D1D1B" stroke-miterlimit="10"/>
<path d="M272.119 348.107L274.406 351.05" stroke="#1D1D1B" stroke-miterlimit="10"/>
<path d="M263.598 344.918L267.746 350.239" stroke="#1D1D1B" stroke-miterlimit="10"/>
<path d="M269.987 336.947L266.084 339.47" stroke="#1D1D1B" stroke-miterlimit="10"/>
<path d="M261.775 341.45L259.508 340.777" stroke="#1D1D1B" stroke-miterlimit="10"/>
<path d="M234.34 349.036L238.881 352.751" stroke="#1D1D1B" stroke-miterlimit="10"/>
<path d="M245.967 354.445L254.252 351.82" stroke="#1D1D1B" stroke-miterlimit="10"/>
<path d="M255.645 350.246L258.529 354.092" stroke="#1D1D1B" stroke-miterlimit="10"/>
<path d="M253.507 356.012L257.476 356.221" stroke="#1D1D1B" stroke-miterlimit="10"/>
<path d="M245.443 360.075L252.601 360.445" stroke="#1D1D1B" stroke-miterlimit="10"/>
<path d="M242.609 350.546L242.347 354.892" stroke="#1D1D1B" stroke-miterlimit="10"/>
<path d="M241.346 359.195L239.348 360.402" stroke="#1D1D1B" stroke-miterlimit="10"/>
<path d="M241.884 334.015L234.227 330.088" stroke="#1D1D1B" stroke-miterlimit="10"/>
<path d="M233.516 327.124L229.918 330.458" stroke="#1D1D1B" stroke-miterlimit="10"/>
<path d="M234.13 334.334L230.193 333.89" stroke="#1D1D1B" stroke-miterlimit="10"/>
<path d="M241.251 339.632L234.152 338.832" stroke="#1D1D1B" stroke-miterlimit="10"/>
</g>
<path d="M97.1509 417.226C95.0039 402.601 81.1981 399.25 71.9715 394.255C62.7448 389.26 52.9696 384.563 46.1345 376.966C47.4659 382.85 49.0735 388.739 51.9804 394.149C54.8873 399.559 59.2317 404.493 64.936 407.438C74.913 412.55 87.8155 411.124 97.1272 417.224" fill="#6F564F"/>
<path d="M53.7105 415.599C59.6621 416.831 65.7019 417.605 71.7669 417.915C83.3661 418.803 96.1041 420.171 105.661 426.475C100.979 430.243 91.5686 431.67 85.2998 431.105C79.0309 430.539 73 428.389 67.0813 426.282C61.3874 424.428 55.8617 422.136 50.5635 419.433C45.2463 416.705 40.7306 412.8 37.4377 408.081C42.1385 411.772 47.7297 414.355 53.7105 415.599Z" fill="#6F564F"/>
<path d="M104.85 396.31C104.75 389.506 106.148 382.79 108.958 376.567C111.768 370.343 115.932 364.74 121.201 360.094C116.198 367.254 120.528 377.454 120.347 386.051C120.026 400.665 115.307 414.644 107.755 427.338C108.798 417.009 105.059 406.677 104.85 396.31Z" fill="#6F564F"/>
<path d="M147.639 358.383C148.472 374.677 149.164 391.662 141.906 406.342C136.209 417.855 124.087 425.838 117.824 437.091L117.032 436.316C120.821 407.967 129.831 381.522 147.639 358.383Z" fill="#6F564F"/>
<path d="M71.0724 441.585C84.6901 436.648 99.3866 433.599 114.108 434.665L116.605 437.058C108.022 444.585 96.6014 453.361 85.3673 456.914C68.5685 462.218 49.6784 457.319 32.13 460.113C44.8001 453.347 57.4772 446.546 71.0724 441.585Z" fill="#6F564F"/>
<path d="M89.7603 463.452C101.616 455.596 115.573 449.464 130.06 447.209L131.707 450.066C125.361 459.323 117.419 469.259 107.507 475.223C92.682 484.138 73.2109 483.56 57.0102 490.189C67.4347 480.762 77.9101 471.294 89.7603 463.452Z" fill="#6F564F"/>
<path d="M134.371 450.998C144.007 441.205 153.56 431.282 161.496 420.265C169.432 409.247 175.729 397.015 178.266 383.9C155.419 400.763 139.871 424.58 134.286 451.265" fill="#6F564F"/>
<path d="M156.464 468.416C149.594 477.267 141.341 487.466 131.187 492.981C115.131 501.739 95.5072 502.733 76.7073 503.509C95.703 496.924 108.8 480.372 127.58 473.239C136.824 469.731 145.416 468.646 155.424 467.653" fill="#6F564F"/>
<path d="M58.355 389.971C58.355 389.971 58.5085 390.106 58.821 390.363L60.2303 391.439L65.6733 395.571C66.2593 396.025 66.8872 396.496 67.5457 397.008C68.2301 397.527 68.9809 397.965 69.7801 398.312C71.599 399.137 73.4631 399.871 75.364 400.51C77.5478 401.188 79.6779 402.014 81.7367 402.981C84.0186 404.111 86.1704 405.458 88.1562 406.997C90.3517 408.675 92.3443 410.566 94.0972 412.637C96.0069 414.769 97.9752 416.98 100.002 419.268C101.998 421.596 104.295 423.834 106.545 426.217L110.013 429.81L113.713 433.383C124.532 443.879 136.139 453.665 148.444 462.663C160.761 471.659 173.725 479.866 187.242 487.225C198.308 493.179 209.712 498.566 221.402 503.359C226.434 505.302 230.936 507.186 235.01 508.536C239.084 509.886 242.528 511.234 245.441 512.075L252.1 514.122L253.836 514.641C254.22 514.755 254.423 514.797 254.423 514.797C254.423 514.797 254.237 514.717 253.845 514.585L252.135 514.024L245.506 511.892C242.613 511.021 239.168 509.695 235.118 508.273C231.068 506.85 226.565 504.989 221.547 503.029C209.904 498.203 198.54 492.802 187.505 486.852C174.022 479.483 161.084 471.282 148.783 462.305C136.495 453.324 124.896 443.564 114.075 433.1C112.817 431.905 111.582 430.711 110.37 429.541C109.158 428.371 108.041 427.134 106.896 425.96C104.664 423.592 102.347 421.361 100.351 419.033C98.3559 416.705 96.3252 414.549 94.4258 412.431C92.6397 410.346 90.6146 408.441 88.387 406.753C86.3568 405.228 84.1662 403.897 81.8501 402.779C79.7733 401.815 77.6255 400.992 75.4244 400.317C73.5331 399.696 71.6774 398.98 69.8655 398.174C68.3844 397.409 66.9997 396.492 65.7391 395.44L60.2387 391.383L58.7987 390.339C58.5337 390.086 58.355 389.971 58.355 389.971Z" fill="#B16668"/>
<path d="M52.1627 455.467C52.3816 455.417 52.5912 455.338 52.7859 455.234L54.5311 454.439C56.0388 453.733 58.2362 452.736 60.9663 451.562C75.2094 445.39 90.2329 440.846 105.722 438.024C108.688 437.475 111.092 437.114 112.776 436.825L114.703 436.51C114.931 436.487 115.153 436.437 115.365 436.362C115.134 436.352 114.903 436.365 114.677 436.399L112.741 436.618C111.058 436.808 108.626 437.158 105.635 437.651C90.0529 440.288 74.9712 444.852 60.7798 451.225C58.061 452.45 55.8948 453.49 54.4166 454.262L52.7237 455.148C52.5214 455.229 52.3326 455.337 52.1627 455.467Z" fill="#B16668"/>
<path d="M78.6034 481.177C78.8023 481.11 78.9898 481.019 79.1609 480.905L80.7008 480.05C82.036 479.304 83.9444 478.194 86.3002 476.797C91.0061 474.018 97.444 470.095 104.471 465.639C111.497 461.182 117.758 457.021 122.255 453.961C124.504 452.431 126.301 451.177 127.523 450.31L128.939 449.284C129.11 449.171 129.268 449.043 129.412 448.902C129.219 448.977 129.039 449.077 128.877 449.199L127.389 450.142L121.994 453.667C117.439 456.651 111.144 460.76 104.147 465.205C97.1495 469.651 90.7271 473.633 86.0789 476.489L80.5768 479.879L79.0989 480.819C78.9174 480.918 78.7508 481.038 78.6034 481.177Z" fill="#B16668"/>
<path d="M163.859 405.334C163.701 405.435 163.559 405.556 163.438 405.693L162.309 406.816C161.333 407.796 159.981 409.258 158.364 411.096C149.895 420.712 142.906 431.372 137.586 442.786C136.565 444.971 135.79 446.766 135.305 448.015L134.75 449.461C134.676 449.628 134.621 449.803 134.587 449.982C134.695 449.835 134.784 449.676 134.853 449.509L135.506 448.102C136.069 446.824 136.878 445.102 137.936 442.924C140.694 437.287 143.808 431.81 147.265 426.523C150.743 421.244 154.553 416.162 158.676 411.302C160.257 409.434 161.573 407.943 162.488 406.931L163.53 405.744C163.655 405.618 163.765 405.481 163.859 405.334Z" fill="#B16668"/>
<path d="M139.509 381.236C139.359 381.185 134.119 393.452 127.787 408.638C121.456 423.824 116.439 436.179 116.589 436.231C116.739 436.282 121.983 424.024 128.311 408.829C134.638 393.634 139.669 381.284 139.509 381.236Z" fill="#B16668"/>
<path d="M111.973 384.433C111.866 384.988 111.812 385.552 111.81 386.118C111.729 387.284 111.632 388.839 111.524 390.716C111.27 394.591 110.877 399.951 110.286 405.851C109.696 411.751 108.98 417.081 108.438 420.923L107.792 425.484C107.687 426.038 107.628 426.599 107.616 427.164C107.787 426.624 107.916 426.073 108 425.514C108.222 424.455 108.504 422.907 108.812 420.966C109.459 417.127 110.221 411.801 110.822 405.898C111.422 399.994 111.76 394.612 111.904 390.725C111.97 388.778 112.011 387.202 112.011 386.108C112.041 385.55 112.028 384.991 111.973 384.433Z" fill="#B16668"/>
<path d="M71.1016 420.391C71.5251 420.563 71.9685 420.688 72.4219 420.761C73.2577 420.978 74.4728 421.27 75.9788 421.593C78.9793 422.266 83.1642 423.112 87.8044 423.898C92.4447 424.683 96.6706 425.268 99.7349 425.627C101.269 425.812 102.51 425.933 103.364 426.014C103.809 426.074 104.258 426.095 104.704 426.077C104.291 425.937 103.862 425.843 103.426 425.798L99.8168 425.254C96.7682 424.803 92.5648 424.167 87.9245 423.382C83.2843 422.596 79.1443 421.797 76.0888 421.231L72.508 420.548C72.0445 420.454 71.5735 420.401 71.1016 420.391Z" fill="#B16668"/>
<path d="M109.952 488.696C110.015 488.838 120.454 484.291 133.262 478.56C146.07 472.829 156.392 468.073 156.319 467.936C156.245 467.798 145.816 472.341 133.002 478.085C120.189 483.829 109.82 488.558 109.952 488.696Z" fill="#B16668"/>
<path d="M152.248 464.465C162.543 459.329 174.467 453.057 181.659 444.567C193.012 431.084 196.521 413.383 199.719 396.46C190.309 412.878 171.002 422.709 161.049 438.846C156.143 446.803 153.915 454.458 151.612 463.404" fill="#6F564F"/>
<path d="M179.444 424.733C179.314 424.652 173.006 433.416 165.354 444.313C157.702 455.211 151.596 464.115 151.725 464.195C151.854 464.276 158.168 455.5 165.82 444.602C173.472 433.704 179.573 424.814 179.444 424.733Z" fill="#B16668"/>
<defs>
<clipPath id="clip0_606_2288">
<rect width="140.404" height="169.921" fill="white" transform="matrix(0.993698 0.112089 -0.134547 0.990907 170.863 190.493)"/>
</clipPath>
</defs>
</svg>
