<svg width="440" height="557" viewBox="0 0 440 557" fill="none" xmlns="http://www.w3.org/2000/svg">
<path d="M210.735 220.341C247.331 265.822 253.154 210.835 265.896 205.3C274.295 201.658 271.863 207.017 276.702 210.097C279.492 211.846 302.385 186.37 307.12 178.677C310.654 172.887 314.62 162.229 308.102 156.181C300.427 149.032 338.033 133.585 310.644 99.5479C288.419 71.9275 270.352 105.622 263.719 104.628C255.939 103.466 259.824 96.1847 253.567 98.5485C241.833 102.947 225.442 128.753 222.263 136.45C219.896 142.14 228.371 144.88 226.101 151.067C217.453 174.68 175.291 176.336 210.734 220.383L210.735 220.341Z" stroke="black" stroke-width="2" stroke-miterlimit="10"/>
<path d="M223.476 174.735C215.051 186.399 200.97 198.316 214.618 215.446C224.211 227.496 234.795 221.569 237.986 217.709C259.109 192.158 305.2 137.634 307.219 125.247C309.794 109.324 302.353 99.9082 290.801 100.991C281.107 101.914 244.292 145.873 223.493 174.714L223.476 174.735Z" stroke="black" stroke-width="2" stroke-miterlimit="10"/>
<path d="M354.82 239.869C354.128 240.501 353.619 241.324 353.357 242.236C353.095 243.147 353.092 244.106 353.349 244.991C353.605 245.876 354.109 246.647 354.797 247.207C355.485 247.767 356.326 248.091 357.215 248.138C358.103 248.185 358.999 247.953 359.788 247.471C360.578 246.989 361.226 246.279 361.651 245.43C362.076 244.582 362.259 243.633 362.177 242.703C362.094 241.773 361.75 240.904 361.188 240.206C360.816 239.738 360.355 239.358 359.831 239.087C359.308 238.816 358.734 238.66 358.141 238.629C357.548 238.598 356.95 238.691 356.379 238.904C355.809 239.117 355.279 239.445 354.82 239.869Z" fill="#BA68C8"/>
<path d="M340.443 257.949C339.751 258.581 339.242 259.405 338.98 260.316C338.718 261.228 338.715 262.186 338.972 263.071C339.228 263.956 339.732 264.727 340.42 265.287C341.108 265.847 341.949 266.171 342.838 266.218C343.726 266.265 344.622 266.033 345.411 265.551C346.201 265.069 346.849 264.359 347.274 263.511C347.699 262.662 347.882 261.713 347.8 260.783C347.717 259.853 347.373 258.985 346.811 258.287C346.439 257.818 345.978 257.438 345.454 257.167C344.931 256.896 344.357 256.741 343.764 256.709C343.171 256.678 342.573 256.772 342.002 256.984C341.432 257.197 340.902 257.525 340.443 257.949Z" fill="#BA68C8"/>
<path d="M338.24 234.727C337.647 235.248 337.206 235.935 336.975 236.701C336.744 237.466 336.732 238.276 336.942 239.024C337.152 239.772 337.574 240.425 338.153 240.899C338.732 241.373 339.442 241.645 340.192 241.682C340.941 241.719 341.695 241.517 342.358 241.104C343.02 240.691 343.559 240.085 343.907 239.364C344.255 238.642 344.394 237.84 344.308 237.058C344.222 236.277 343.913 235.553 343.423 234.98C342.791 234.242 341.899 233.804 340.934 233.757C339.969 233.71 339.004 234.057 338.24 234.727Z" fill="#BA68C8"/>
<path d="M322.268 238.662C321.683 239.181 321.251 239.864 321.025 240.623C320.8 241.382 320.792 242.184 321.002 242.924C321.212 243.664 321.631 244.309 322.206 244.778C322.78 245.246 323.483 245.515 324.225 245.551C324.967 245.588 325.714 245.389 326.371 244.981C327.027 244.573 327.563 243.974 327.909 243.261C328.256 242.548 328.397 241.753 328.315 240.979C328.234 240.204 327.932 239.486 327.45 238.914C326.825 238.164 325.933 237.717 324.964 237.67C323.995 237.623 323.027 237.979 322.268 238.662Z" fill="#BA68C8"/>
<path d="M321.029 223.3C320.436 223.82 319.995 224.507 319.764 225.273C319.533 226.038 319.521 226.848 319.731 227.596C319.941 228.344 320.363 228.997 320.942 229.471C321.521 229.945 322.231 230.217 322.98 230.254C323.73 230.29 324.484 230.089 325.146 229.676C325.808 229.263 326.348 228.657 326.696 227.936C327.043 227.214 327.183 226.412 327.097 225.63C327.01 224.849 326.702 224.125 326.211 223.552C325.583 222.808 324.691 222.365 323.724 222.318C322.757 222.271 321.79 222.623 321.029 223.3Z" fill="#BA68C8"/>
<path d="M384.604 391.366C395.785 358.16 393.171 322.566 380.004 291.843C376.47 283.568 372.167 275.725 367.156 268.425C362.28 260.725 356.222 253.986 349.22 248.47C349.22 248.47 349.072 248.442 349.186 248.628C353.716 255.004 358.945 260.63 363.36 267.066C367.752 273.397 371.665 280.103 375.065 287.125C382.052 301.525 386.45 317.3 388.046 333.68C389.611 350.536 387.868 367.739 382.926 384.207C377.985 400.675 369.953 416.052 359.334 429.372C353.29 436.78 346.387 443.345 338.807 448.892C331.089 454.246 322.754 458.44 314.051 461.35C312.409 461.973 312.825 465.028 314.519 464.993C322.926 464.754 331.286 460.098 338.37 455.199C345.689 450.102 352.427 444.078 358.427 437.27C370.057 423.988 378.986 408.329 384.604 391.366Z" fill="#37474F"/>
<path d="M346.179 543.005C326.492 550.204 283.89 545.072 261.34 523.778C235.918 499.781 238.304 471.916 253.37 468.255C274.808 462.929 277.285 497.982 302.309 515.489C332.058 536.338 348.617 531.516 348.617 531.516L346.179 543.005Z" fill="#BA68C8"/>
<path opacity="0.2" d="M346.179 543.005C326.492 550.204 283.89 545.072 261.34 523.778C235.918 499.781 238.304 471.916 253.37 468.255C274.808 462.929 277.285 497.982 302.309 515.489C332.058 536.338 348.617 531.516 348.617 531.516L346.179 543.005Z" fill="white"/>
<path d="M318.252 538.253C284.365 531.676 258.68 502.918 254.712 480.92C254.657 480.582 254.73 480.231 254.916 479.938C255.101 479.646 255.385 479.436 255.707 479.352C255.867 479.314 256.031 479.309 256.19 479.338C256.349 479.366 256.5 479.428 256.634 479.519C256.767 479.61 256.882 479.728 256.969 479.868C257.057 480.007 257.118 480.164 257.146 480.33C261.885 506.588 299.397 541.669 341.48 536.497C341.809 536.455 342.136 536.55 342.39 536.762C342.643 536.973 342.803 537.284 342.834 537.627C342.853 537.972 342.743 538.316 342.527 538.587C342.311 538.858 342.006 539.035 341.676 539.08C333.829 540.038 325.932 539.76 318.252 538.253Z" fill="white"/>
<path d="M321.797 479.583C321.794 479.755 321.73 479.922 321.618 480.052C321.507 480.183 321.356 480.268 321.194 480.29C290.953 484.08 263.781 464.778 251.995 431.129C251.939 430.959 251.947 430.77 252.019 430.599C252.09 430.428 252.22 430.29 252.38 430.211C252.546 430.146 252.726 430.15 252.882 430.221C253.039 430.293 253.16 430.427 253.221 430.597C264.814 463.672 291.455 482.619 321.097 478.914C321.273 478.893 321.446 478.947 321.579 479.061C321.712 479.176 321.794 479.344 321.809 479.529L321.797 479.583Z" fill="#455A64"/>
<path d="M272.532 433.887C272.48 434.245 272.402 434.6 272.301 434.949C271.704 437.393 270.775 439.749 269.545 441.943C267.05 446.066 265.804 450.848 265.984 455.611C265.985 455.72 265.958 455.83 265.905 455.927C265.852 456.024 265.775 456.106 265.683 456.162C265.586 456.205 265.48 456.218 265.379 456.199C265.278 456.18 265.186 456.129 265.114 456.054C260.707 451.545 255.48 439.42 260.707 431.373C264.035 426.255 267.371 426.914 268.693 427.358C269.89 427.888 270.894 428.79 271.577 429.952C272.26 431.114 272.592 432.483 272.532 433.887ZM264.94 453.534C265.267 449.314 266.552 445.186 268.687 441.505C269.869 439.399 270.768 437.14 271.355 434.797C271.591 433.495 271.419 432.169 270.866 431.026C270.313 429.882 269.41 428.984 268.296 428.471C266.042 427.575 263.575 428.849 261.531 431.971C256.756 439.357 261.47 449.81 264.944 454.226L264.94 453.534Z" fill="#455A64"/>
<path d="M266.176 455.651C266.195 455.726 266.196 455.807 266.18 455.885C266.163 455.964 266.128 456.038 266.079 456.1C265.967 456.18 265.832 456.211 265.705 456.186C265.577 456.162 265.466 456.084 265.395 455.97C262.062 451.01 262.147 439.736 265.599 433.622C265.667 433.497 265.777 433.402 265.905 433.36C266.033 433.317 266.169 433.33 266.283 433.395C266.398 433.467 266.479 433.585 266.511 433.724C266.542 433.864 266.522 434.014 266.453 434.143C262.883 440.455 263.348 451.062 266.225 455.302C266.239 455.419 266.222 455.54 266.176 455.651Z" fill="#455A64"/>
<path d="M263.189 451.193C263.203 451.361 263.165 451.533 263.082 451.683C262.962 451.785 262.815 451.842 262.665 451.845C262.515 451.848 262.372 451.795 262.259 451.697C259.532 448.915 249.38 450.112 243.241 451.586C241.424 452.072 239.549 452.112 237.761 451.7C235.974 451.288 234.323 450.437 232.94 449.213C232.1 448.328 231.496 447.221 231.185 445.993C230.874 444.765 230.866 443.457 231.161 442.19C231.424 440.929 232.032 439.759 232.908 438.829C233.784 437.9 234.887 437.254 236.077 436.972C242.506 435.015 254.108 439.192 263.139 450.815C263.198 450.928 263.216 451.062 263.189 451.193ZM232.078 443.809C232.031 444.656 232.155 445.495 232.443 446.268C232.731 447.041 233.177 447.73 233.749 448.289C234.994 449.383 236.477 450.142 238.083 450.504C239.689 450.867 241.372 450.824 243.001 450.379C243.556 450.257 254.352 447.68 260.272 449.281C251.933 439.829 241.907 436.431 236.247 438.138C235.275 438.359 234.372 438.879 233.653 439.631C232.933 440.383 232.431 441.333 232.208 442.36C232.11 442.839 232.067 443.325 232.078 443.809Z" fill="#455A64"/>
<path d="M263.299 451.325C263.317 451.478 263.284 451.636 263.204 451.77C263.094 451.896 262.945 451.974 262.789 451.987C262.632 452.001 262.48 451.948 262.365 451.84C254.719 444.581 241.381 442.8 237.595 443.346C237.438 443.371 237.281 443.33 237.158 443.23C237.035 443.131 236.956 442.982 236.938 442.814C236.931 442.731 236.94 442.647 236.964 442.566C236.989 442.485 237.028 442.409 237.079 442.343C237.13 442.278 237.193 442.223 237.263 442.183C237.333 442.142 237.41 442.117 237.487 442.109C241.413 441.532 255.247 443.352 263.159 450.864C263.257 450.991 263.306 451.155 263.299 451.325Z" fill="#455A64"/>
<path d="M262.004 410.061C259.2 416.765 255.053 422.812 249.86 427.767C238.796 429.284 234.125 429.214 226.227 426.307C224.356 425.49 222.709 424.227 221.407 422.613C220.957 421.979 220.753 421.18 220.834 420.367C220.915 419.555 221.275 418.786 221.847 418.207C222.892 417.536 224.111 417.27 225.282 417.459L235.894 417.893C232.088 416.978 228.619 415.04 225.817 412.263C224.785 411.232 223.765 409.674 224.509 408.309C225.252 406.943 227.595 406.882 229.196 407.461C233.364 408.914 237.239 411.093 240.665 413.911C238.731 409.437 237.494 404.632 236.999 399.672C236.887 399.184 236.886 398.668 236.995 398.166C237.105 397.664 237.323 397.19 237.631 396.78C238.891 395.567 240.773 396.897 241.734 398.249C243.968 401.359 245.57 404.939 246.447 408.781C246.389 403.402 247.495 398.014 249.683 393.024C249.812 392.62 250.015 392.242 250.28 391.914C250.545 391.586 250.867 391.313 251.227 391.112C252.722 390.501 253.941 392.347 254.298 393.947C255.209 398.235 255.173 402.736 254.193 407.115C255.458 404.564 259.035 398.741 261.131 399.33C263.227 399.92 263.893 405.732 262.004 410.061Z" fill="#BA68C8"/>
<path opacity="0.15" d="M262.004 410.061C259.2 416.765 255.053 422.812 249.86 427.767C238.796 429.284 234.125 429.214 226.227 426.307C224.356 425.49 222.709 424.227 221.407 422.613C220.957 421.979 220.753 421.18 220.834 420.367C220.915 419.555 221.275 418.786 221.847 418.207C222.892 417.536 224.111 417.27 225.282 417.459L235.894 417.893C232.088 416.978 228.619 415.04 225.817 412.263C224.785 411.232 223.765 409.674 224.509 408.309C225.252 406.943 227.595 406.882 229.196 407.461C233.364 408.914 237.239 411.093 240.665 413.911C238.731 409.437 237.494 404.632 236.999 399.672C236.887 399.184 236.886 398.668 236.995 398.166C237.105 397.664 237.323 397.19 237.631 396.78C238.891 395.567 240.773 396.897 241.734 398.249C243.968 401.359 245.57 404.939 246.447 408.781C246.389 403.402 247.495 398.014 249.683 393.024C249.812 392.62 250.015 392.242 250.28 391.914C250.545 391.586 250.867 391.313 251.227 391.112C252.722 390.501 253.941 392.347 254.298 393.947C255.209 398.235 255.173 402.736 254.193 407.115C255.458 404.564 259.035 398.741 261.131 399.33C263.227 399.92 263.893 405.732 262.004 410.061Z" fill="black"/>
<path d="M314.879 350.828C324.127 358.625 330.606 369.49 333.365 381.831C335.772 391.552 336.446 401.755 335.352 411.933C335.138 413.85 334.809 415.757 334.368 417.643C333.991 418.777 333.737 419.945 333.609 421.126C333.505 421.604 334.321 422.256 334.798 421.848C337.042 419.864 337.468 415.765 337.847 412.958C338.464 408.136 338.653 403.288 338.411 398.477C338.169 386.887 335.133 375.712 329.589 366.005C325.792 359.829 320.929 354.494 315.235 350.259C314.962 350.207 314.888 350.664 315.114 350.817L314.879 350.828Z" fill="#455A64"/>
<path d="M326.132 367.807C332.567 356.857 335.707 344.247 335.115 331.731C334.352 310.242 328.785 300.095 320.655 298.566C318.458 298.05 316.127 298.276 313.983 299.215C311.84 300.153 309.992 301.757 308.695 303.803C308.695 303.803 300.878 298.687 296.521 302.125C292.164 305.564 291.48 315.51 291.48 315.51C291.48 315.51 286.806 312.989 284.582 313.6C282.358 314.212 274.328 331.348 279.819 342.204C285.309 353.061 307.498 371.427 326.132 367.807Z" fill="#BA68C8"/>
<path opacity="0.25" d="M326.132 367.807C332.567 356.857 335.707 344.247 335.115 331.731C334.352 310.242 328.785 300.095 320.655 298.566C318.458 298.05 316.127 298.276 313.983 299.215C311.84 300.153 309.992 301.757 308.695 303.803C308.695 303.803 300.878 298.687 296.521 302.125C292.164 305.564 291.48 315.51 291.48 315.51C291.48 315.51 286.806 312.989 284.582 313.6C282.358 314.212 274.328 331.348 279.819 342.204C285.309 353.061 307.498 371.427 326.132 367.807Z" fill="black"/>
<path d="M323.852 368.741C312.82 369.828 301.842 368.144 291.821 363.828C274.418 356.597 269.295 349.821 270.219 340.012C271.143 330.203 277.941 328.807 283.815 337.219C283.815 337.219 285.481 332.118 288.669 331.422C290.281 331.208 291.898 331.39 293.392 331.956C294.886 332.522 296.216 333.455 297.276 334.681C298.223 336.27 305.794 361.726 323.852 368.741Z" fill="#BA68C8"/>
<path opacity="0.15" d="M323.852 368.741C312.82 369.828 301.842 368.144 291.821 363.828C274.418 356.597 269.295 349.821 270.219 340.012C271.143 330.203 277.941 328.807 283.815 337.219C283.815 337.219 285.481 332.118 288.669 331.422C290.281 331.208 291.898 331.39 293.392 331.956C294.886 332.522 296.216 333.455 297.276 334.681C298.223 336.27 305.794 361.726 323.852 368.741Z" fill="black"/>
<path d="M330.256 361.811C336.625 355.229 341.649 347.343 344.987 338.691C349.436 325.709 349.507 314.221 341.797 316.44C341.797 316.44 342.782 310.959 338.907 309.314C335.031 307.669 323.997 316.751 321.95 327.949C319.903 339.146 330.256 361.811 330.256 361.811Z" fill="#BA68C8"/>
<path opacity="0.15" d="M330.256 361.811C336.625 355.229 341.649 347.343 344.987 338.691C349.436 325.709 349.507 314.221 341.797 316.44C341.797 316.44 342.782 310.959 338.907 309.314C335.031 307.669 323.997 316.751 321.95 327.949C319.903 339.146 330.256 361.811 330.256 361.811Z" fill="black"/>
<path d="M323.532 368.897C313.421 368.161 301.857 358.927 296.94 351.722C291.026 342.996 289.476 329.923 294.374 322.537C299.273 315.15 308.601 314.572 308.601 314.572C308.601 314.572 311.907 307.553 320.807 309.533C326.926 310.879 331.398 326.92 332.167 340.346C332.936 353.772 328.554 364.285 323.532 368.897Z" fill="#BA68C8"/>
<path d="M332.442 375.52C329.697 374.025 326.392 373.767 318.07 373.516C309.748 373.266 302.464 372.232 302.92 366.78C303.377 361.327 316.342 365.444 316.342 365.444C316.342 365.444 311.176 354.962 315.922 351.631C322.141 347.207 327.578 360.536 327.578 360.536C327.578 360.536 330.594 348.181 335.383 348.858C340.171 349.534 339.959 355.312 337.086 361.485C334.214 367.658 331.872 372.364 332.442 375.52Z" fill="#455A64"/>
<path d="M345.761 543.49L367.751 535.439C367.751 535.439 402.651 492.415 369.405 447.104C338.189 404.508 295.484 398.376 295.484 398.376C295.484 398.376 272.479 453.711 284.243 494.646C296.632 538.217 345.761 543.49 345.761 543.49Z" fill="#BA68C8"/>
<path opacity="0.5" d="M345.761 543.49L367.751 535.439C367.751 535.439 402.651 492.415 369.405 447.104C338.189 404.508 295.484 398.376 295.484 398.376C295.484 398.376 272.479 453.711 284.243 494.646C296.632 538.217 345.761 543.49 345.761 543.49Z" fill="white"/>
<path d="M356.432 540.581C356.151 540.525 355.901 540.369 355.725 540.138C355.549 539.908 355.457 539.617 355.466 539.317C358.316 466.639 321.522 425.812 305.571 411.627C305.449 411.523 305.349 411.393 305.278 411.246C305.207 411.098 305.166 410.936 305.157 410.77C305.148 410.603 305.172 410.435 305.227 410.275C305.282 410.116 305.367 409.968 305.477 409.842C305.692 409.584 305.992 409.42 306.313 409.384C306.635 409.349 306.952 409.444 307.198 409.651C323.413 424.08 360.832 465.553 357.933 539.326C357.908 539.663 357.76 539.983 357.519 540.219C357.279 540.455 356.964 540.589 356.64 540.593L356.432 540.581Z" fill="white"/>
<path d="M347.564 475.69C347.261 475.634 346.993 475.46 346.814 475.201C339.979 465.327 313.152 459.314 297.314 464.076C297.157 464.127 296.993 464.145 296.832 464.128C296.671 464.11 296.516 464.059 296.377 463.975C296.237 463.892 296.116 463.779 296.021 463.644C295.925 463.508 295.858 463.352 295.822 463.186C295.743 462.849 295.793 462.488 295.962 462.181C296.131 461.874 296.405 461.645 296.725 461.543C313.794 456.369 341.423 462.881 348.831 473.579C349.004 473.867 349.06 474.22 348.989 474.562C348.917 474.904 348.723 475.208 348.449 475.409C348.325 475.516 348.183 475.596 348.03 475.645C347.878 475.693 347.72 475.708 347.564 475.69Z" fill="white"/>
<path d="M258.679 353.83C258.255 352.436 257.346 351.274 256.126 350.565C255.428 350.17 254.652 349.937 253.849 349.882C253.046 349.827 252.235 349.951 251.469 350.247C250.126 350.991 249.047 352.176 248.407 353.612C247.766 355.047 247.602 356.647 247.941 358.154C247.336 356.747 246.291 355.608 244.971 354.916C243.651 354.224 242.13 354.019 240.649 354.333C239.901 354.64 239.215 355.102 238.636 355.691C238.056 356.279 237.596 356.982 237.282 357.755C236.715 359.12 236.646 360.637 237.09 362.012C238.498 366.441 245.027 368.507 247.103 369.296C248.73 369.873 250.391 370.352 252.077 370.73C253.271 369.303 254.369 367.793 255.361 366.211C256.49 364.129 260.137 358.268 258.679 353.83Z" fill="#BA68C8"/>
<path d="M170.131 38.9399C170.286 39.6934 170.22 40.4773 169.941 41.1928C169.662 41.9083 169.182 42.5232 168.563 42.9598C167.943 43.3965 167.212 43.6353 166.46 43.6462C165.709 43.657 164.972 43.4395 164.341 43.0209C163.711 42.6024 163.216 42.0015 162.919 41.2944C162.621 40.5873 162.535 39.8055 162.671 39.0478C162.807 38.2901 163.159 37.5904 163.682 37.0371C164.206 36.4839 164.877 36.1017 165.611 35.9391C166.101 35.8276 166.607 35.8171 167.1 35.9081C167.594 35.9991 168.064 36.1897 168.485 36.469C168.905 36.7482 169.268 37.1105 169.55 37.5347C169.833 37.9589 170.03 38.4365 170.131 38.9399Z" fill="#BA68C8"/>
<path d="M170.56 58.1481C170.716 58.9016 170.65 59.6855 170.37 60.401C170.091 61.1165 169.612 61.7313 168.992 62.1679C168.373 62.6046 167.641 62.8435 166.89 62.8543C166.139 62.8652 165.401 62.6476 164.771 62.2291C164.141 61.8105 163.646 61.2097 163.348 60.5026C163.051 59.7955 162.965 59.0137 163.101 58.256C163.237 57.4983 163.589 56.7986 164.112 56.2453C164.635 55.692 165.307 55.3099 166.041 55.1472C166.531 55.0358 167.037 55.0253 167.53 55.1162C168.023 55.2072 168.494 55.3979 168.915 55.6771C169.335 55.9564 169.697 56.3186 169.98 56.7428C170.262 57.167 170.46 57.6447 170.56 58.1481Z" fill="#BA68C8"/>
<path d="M183.552 44.1311C183.696 44.7635 183.652 45.4257 183.425 46.0325C183.198 46.6392 182.8 47.1627 182.281 47.5354C181.761 47.9081 181.145 48.113 180.512 48.1236C179.878 48.1343 179.256 47.9502 178.726 47.5952C178.196 47.2401 177.782 46.7303 177.537 46.1314C177.292 45.5326 177.228 44.8722 177.353 44.2353C177.478 43.5984 177.786 43.0141 178.237 42.5579C178.688 42.1016 179.263 41.7943 179.886 41.6754C180.688 41.5223 181.517 41.692 182.2 42.1494C182.883 42.6067 183.367 43.3165 183.552 44.1311Z" fill="#BA68C8"/>
<path d="M192.069 54.9296C192.207 55.5569 192.16 56.2124 191.932 56.8122C191.705 57.4119 191.308 57.9286 190.793 58.296C190.277 58.6633 189.667 58.8646 189.039 58.8741C188.412 58.8836 187.796 58.7008 187.271 58.3492C186.746 57.9975 186.336 57.493 186.092 56.9004C185.849 56.3078 185.784 55.654 185.905 55.0228C186.027 54.3916 186.329 53.8118 186.774 53.3577C187.219 52.9036 187.786 52.5958 188.402 52.4739C189.206 52.3092 190.04 52.4742 190.726 52.9333C191.411 53.3925 191.894 54.1093 192.069 54.9296Z" fill="#BA68C8"/>
<path d="M200.531 45.5448C200.675 46.1773 200.63 46.8395 200.404 47.4463C200.177 48.053 199.778 48.5764 199.259 48.949C198.74 49.3216 198.124 49.5264 197.49 49.537C196.857 49.5475 196.235 49.3633 195.705 49.0082C195.175 48.653 194.761 48.1431 194.516 47.5442C194.271 46.9454 194.207 46.2849 194.332 45.648C194.457 45.0111 194.765 44.4269 195.216 43.9707C195.668 43.5145 196.242 43.2072 196.865 43.0885C197.668 42.9297 198.499 43.0972 199.183 43.5556C199.868 44.014 200.351 44.7274 200.531 45.5448Z" fill="#BA68C8"/>
<path d="M170.131 38.9399C170.286 39.6934 170.22 40.4773 169.941 41.1928C169.662 41.9083 169.182 42.5232 168.563 42.9598C167.943 43.3965 167.212 43.6353 166.46 43.6462C165.709 43.657 164.972 43.4395 164.341 43.0209C163.711 42.6024 163.216 42.0015 162.919 41.2944C162.621 40.5873 162.535 39.8055 162.671 39.0478C162.807 38.2901 163.159 37.5904 163.682 37.0371C164.206 36.4839 164.877 36.1017 165.611 35.9391C166.101 35.8276 166.607 35.8171 167.1 35.9081C167.594 35.9991 168.064 36.1897 168.485 36.469C168.905 36.7482 169.268 37.1105 169.55 37.5347C169.833 37.9589 170.03 38.4365 170.131 38.9399Z" fill="#BA68C8"/>
<path d="M170.56 58.1481C170.716 58.9016 170.65 59.6855 170.37 60.401C170.091 61.1165 169.612 61.7313 168.992 62.1679C168.373 62.6046 167.641 62.8435 166.89 62.8543C166.139 62.8652 165.401 62.6476 164.771 62.2291C164.141 61.8105 163.646 61.2097 163.348 60.5026C163.051 59.7955 162.965 59.0137 163.101 58.256C163.237 57.4983 163.589 56.7986 164.112 56.2453C164.635 55.692 165.307 55.3099 166.041 55.1472C166.531 55.0358 167.037 55.0253 167.53 55.1162C168.023 55.2072 168.494 55.3979 168.915 55.6771C169.335 55.9564 169.697 56.3186 169.98 56.7428C170.262 57.167 170.46 57.6447 170.56 58.1481Z" fill="#BA68C8"/>
<path d="M183.552 44.1311C183.696 44.7635 183.652 45.4257 183.425 46.0325C183.198 46.6392 182.8 47.1627 182.281 47.5354C181.761 47.9081 181.145 48.113 180.512 48.1236C179.878 48.1343 179.256 47.9502 178.726 47.5952C178.196 47.2401 177.782 46.7303 177.537 46.1314C177.292 45.5326 177.228 44.8722 177.353 44.2353C177.478 43.5984 177.786 43.0141 178.237 42.5579C178.688 42.1016 179.263 41.7943 179.886 41.6754C180.688 41.5223 181.517 41.692 182.2 42.1494C182.883 42.6067 183.367 43.3165 183.552 44.1311Z" fill="#BA68C8"/>
<path d="M192.069 54.9296C192.207 55.5569 192.16 56.2124 191.932 56.8122C191.705 57.4119 191.308 57.9286 190.793 58.296C190.277 58.6633 189.667 58.8646 189.039 58.8741C188.412 58.8836 187.796 58.7008 187.271 58.3492C186.746 57.9975 186.336 57.493 186.092 56.9004C185.849 56.3078 185.784 55.654 185.905 55.0228C186.027 54.3916 186.329 53.8118 186.774 53.3577C187.219 52.9036 187.786 52.5958 188.402 52.4739C189.206 52.3092 190.04 52.4742 190.726 52.9333C191.411 53.3925 191.894 54.1093 192.069 54.9296Z" fill="#BA68C8"/>
<path d="M200.531 45.5448C200.675 46.1773 200.63 46.8395 200.404 47.4463C200.177 48.053 199.778 48.5764 199.259 48.949C198.74 49.3216 198.124 49.5264 197.49 49.537C196.857 49.5475 196.235 49.3633 195.705 49.0082C195.175 48.653 194.761 48.1431 194.516 47.5442C194.271 46.9454 194.207 46.2849 194.332 45.648C194.457 45.0111 194.765 44.4269 195.216 43.9707C195.668 43.5145 196.242 43.2072 196.865 43.0885C197.668 42.9297 198.499 43.0972 199.183 43.5556C199.868 44.014 200.351 44.7274 200.531 45.5448Z" fill="#BA68C8"/>
<path d="M73.3968 122.208C82.4764 95.0597 102.503 73.4697 127.481 60.4466C134.2 56.9327 141.241 54.0926 148.503 51.9667C155.875 49.5141 163.588 48.2879 171.344 48.3357C171.344 48.3357 171.462 48.3933 171.287 48.4556C164.836 50.2325 158.275 51.1685 151.874 53.0438C145.543 54.864 139.358 57.1719 133.373 59.9474C121.092 65.6316 109.931 73.5338 100.439 83.2672C90.7245 93.3234 83.1655 105.305 78.2368 118.458C73.3082 131.611 71.1164 145.651 71.7993 159.697C72.2759 167.579 73.7897 175.36 76.3007 182.834C79.0073 190.254 82.7417 197.245 87.3918 203.597C88.231 204.843 86.3773 206.597 85.2006 205.703C79.3954 201.225 75.8789 193.924 73.3868 187.123C70.8304 180.073 69.1565 172.726 68.4042 165.252C66.989 150.711 68.6921 136.028 73.3968 122.208Z" fill="#37474F"/>
<path d="M24.1743 241.297C33.8022 255.896 64.8845 274.174 90.5308 271.905C119.44 269.354 131.632 250.23 123.349 240.246C111.622 225.964 92.614 247.245 67.1844 245.827C36.9349 244.163 28.227 232.676 28.227 232.676L24.1743 241.297Z" fill="#BA68C8"/>
<path opacity="0.2" d="M24.1743 241.297C33.8022 255.896 64.8845 274.174 90.5308 271.905C119.44 269.354 131.632 250.23 123.349 240.246C111.622 225.964 92.614 247.245 67.1844 245.827C36.9349 244.163 28.227 232.676 28.227 232.676L24.1743 241.297Z" fill="white"/>
<path d="M45.3523 252.352C71.2551 265.289 102.609 259.839 116.107 247.731C116.31 247.542 116.435 247.279 116.455 246.998C116.475 246.716 116.389 246.438 116.215 246.22C116.127 246.115 116.019 246.029 115.899 245.967C115.778 245.905 115.647 245.868 115.513 245.858C115.379 245.849 115.244 245.867 115.116 245.912C114.989 245.957 114.871 246.027 114.77 246.119C98.6561 260.572 56.2762 264.091 30.6854 239.464C30.4858 239.271 30.2203 239.166 29.9466 239.174C29.6728 239.181 29.4129 239.3 29.2233 239.504C29.0406 239.715 28.9445 239.992 28.9552 240.275C28.9659 240.558 29.0825 240.826 29.2807 241.022C34.0558 245.611 39.4739 249.43 45.3523 252.352Z" fill="white"/>
<path d="M71.7829 212.384C71.7007 212.494 71.6612 212.632 71.672 212.77C71.6828 212.909 71.7431 213.039 71.8413 213.134C90.384 230.715 118.253 232.134 142.818 216.748C142.94 216.668 143.028 216.544 143.064 216.4C143.1 216.256 143.081 216.104 143.012 215.974C142.932 215.849 142.808 215.761 142.667 215.728C142.526 215.694 142.378 215.719 142.254 215.795C118.101 230.915 90.7655 229.537 72.586 212.311C72.4771 212.21 72.3342 212.157 72.1878 212.163C72.0413 212.169 71.9029 212.234 71.8018 212.343L71.7829 212.384Z" fill="#455A64"/>
<path d="M127.166 208.046C127.02 208.303 126.894 208.57 126.787 208.846C125.96 210.722 125.409 212.711 125.15 214.749C124.792 218.672 123.228 222.382 120.68 225.352C120.623 225.421 120.586 225.505 120.574 225.595C120.561 225.685 120.573 225.776 120.609 225.859C120.655 225.937 120.722 225.999 120.802 226.038C120.883 226.077 120.972 226.092 121.061 226.08C126.429 225.431 136.244 220.306 136.692 212.466C136.975 207.477 134.313 206.198 133.166 205.809C132.061 205.538 130.902 205.606 129.834 206.004C128.767 206.402 127.838 207.113 127.166 208.046ZM122.464 224.55C124.384 221.67 125.588 218.36 125.972 214.905C126.218 212.948 126.741 211.037 127.524 209.232C128.022 208.274 128.816 207.51 129.784 207.057C130.751 206.604 131.838 206.488 132.876 206.727C134.904 207.301 135.977 209.379 135.813 212.43C135.385 219.614 126.779 223.927 122.109 224.992L122.464 224.55Z" fill="#455A64"/>
<path d="M120.568 225.319C120.516 225.358 120.473 225.409 120.445 225.468C120.417 225.527 120.404 225.593 120.406 225.658C120.445 225.767 120.525 225.857 120.628 225.907C120.731 225.957 120.85 225.964 120.958 225.927C125.862 224.451 131.574 217.145 132.256 211.425C132.272 211.31 132.243 211.192 132.173 211.099C132.104 211.005 132.001 210.943 131.887 210.926C131.769 210.913 131.651 210.947 131.557 211.021C131.463 211.094 131.401 211.202 131.383 211.321C130.684 217.228 124.923 223.822 120.711 225.069C120.642 225.137 120.592 225.224 120.568 225.319Z" fill="#455A64"/>
<path d="M124.677 224.143C124.584 224.242 124.525 224.369 124.507 224.506C124.537 224.631 124.608 224.741 124.708 224.818C124.808 224.895 124.931 224.934 125.055 224.928C128.265 224.537 134.522 230.389 137.936 234.402C138.922 235.622 140.168 236.588 141.576 237.225C142.984 237.861 144.517 238.151 146.053 238.072C147.055 237.934 148.008 237.536 148.822 236.916C149.637 236.296 150.287 235.473 150.712 234.523C151.156 233.594 151.322 232.548 151.189 231.521C151.057 230.494 150.631 229.532 149.967 228.756C146.595 224.292 136.713 221.111 124.896 223.929C124.801 223.971 124.723 224.046 124.677 224.143ZM149.296 235.086C148.911 235.646 148.414 236.114 147.838 236.459C147.263 236.803 146.623 237.015 145.962 237.081C144.583 237.149 143.209 236.884 141.948 236.307C140.686 235.731 139.572 234.858 138.693 233.759C138.378 233.404 132.367 226.356 127.585 224.398C137.866 222.605 146.301 225.488 149.278 229.408C149.825 230.036 150.178 230.818 150.292 231.654C150.407 232.491 150.278 233.344 149.922 234.105C149.752 234.457 149.542 234.787 149.296 235.086Z" fill="#455A64"/>
<path d="M124.703 224.114C124.618 224.2 124.564 224.315 124.553 224.438C124.566 224.572 124.628 224.696 124.727 224.782C124.825 224.869 124.953 224.913 125.081 224.903C133.693 224.216 143.482 229.797 145.755 232.036C145.848 232.131 145.973 232.184 146.103 232.183C146.233 232.183 146.358 232.13 146.451 232.034C146.495 231.986 146.53 231.929 146.552 231.866C146.575 231.804 146.585 231.737 146.582 231.67C146.58 231.604 146.564 231.538 146.536 231.478C146.509 231.418 146.47 231.364 146.421 231.32C144.07 228.991 133.93 223.185 125.019 223.897C124.892 223.927 124.78 224.004 124.703 224.114Z" fill="#455A64"/>
<path d="M145.662 198.016C144.211 203.716 144.008 209.673 145.067 215.46C151.869 222.014 155.096 224.326 161.955 226.455C163.644 226.876 165.405 226.901 167.106 226.526C167.732 226.348 168.273 225.94 168.626 225.38C168.978 224.82 169.118 224.147 169.019 223.489C168.642 222.532 167.941 221.747 167.046 221.277L159.574 216.198C162.636 217.534 165.981 218.046 169.291 217.686C170.514 217.548 171.994 217.067 172.172 215.819C172.35 214.571 170.779 213.349 169.393 212.912C165.815 211.737 162.072 211.174 158.314 211.246C161.883 209.362 165.143 206.916 167.973 203.996C168.295 203.74 168.555 203.412 168.732 203.035C168.909 202.659 168.999 202.246 168.994 201.829C168.742 200.418 166.787 200.318 165.451 200.696C162.362 201.557 159.469 203.036 156.939 205.049C159.681 201.641 161.631 197.639 162.643 193.346C162.758 193.023 162.809 192.679 162.793 192.335C162.776 191.992 162.693 191.655 162.548 191.345C161.834 190.2 160.073 190.764 159.025 191.607C156.248 193.887 154.011 196.782 152.481 200.075C152.898 197.807 153.379 192.28 151.65 191.599C149.921 190.917 146.545 194.296 145.662 198.016Z" fill="#BA68C8"/>
<path opacity="0.15" d="M145.662 198.016C144.211 203.716 144.008 209.673 145.067 215.46C151.869 222.014 155.096 224.326 161.955 226.455C163.644 226.876 165.405 226.901 167.106 226.526C167.732 226.348 168.273 225.94 168.626 225.38C168.978 224.82 169.118 224.147 169.019 223.489C168.642 222.532 167.941 221.747 167.046 221.277L159.574 216.198C162.636 217.534 165.981 218.046 169.291 217.686C170.514 217.548 171.994 217.067 172.172 215.819C172.35 214.571 170.779 213.349 169.393 212.912C165.815 211.737 162.072 211.174 158.314 211.246C161.883 209.362 165.143 206.916 167.973 203.996C168.295 203.74 168.555 203.412 168.732 203.035C168.909 202.659 168.999 202.246 168.994 201.829C168.742 200.418 166.787 200.318 165.451 200.696C162.362 201.557 159.469 203.036 156.939 205.049C159.681 201.641 161.631 197.639 162.643 193.346C162.758 193.023 162.809 192.679 162.793 192.335C162.776 191.992 162.693 191.655 162.548 191.345C161.834 190.2 160.073 190.764 159.025 191.607C156.248 193.887 154.011 196.782 152.481 200.075C152.898 197.807 153.379 192.28 151.65 191.599C149.921 190.917 146.545 194.296 145.662 198.016Z" fill="black"/>
<path d="M141.729 132.215C131.357 132.513 121.349 136.191 113.173 142.708C106.571 147.724 100.927 153.931 96.5217 161.021C95.6979 162.361 94.9584 163.752 94.3078 165.188C93.9936 166.107 93.5772 166.986 93.067 167.809C92.8965 168.17 91.9996 168.173 91.8757 167.668C91.3255 165.252 93.1091 162.404 94.2709 160.409C96.2892 157 98.6178 153.791 101.226 150.826C107.275 143.509 115.051 137.88 123.822 134.471C129.59 132.439 135.671 131.489 141.771 131.668C141.987 131.774 141.806 132.104 141.572 132.088L141.729 132.215Z" fill="#455A64"/>
<path d="M124.409 136.904C125.51 126.647 129.706 116.993 136.412 109.287C147.753 95.9269 156.678 92.2503 163.021 95.3821C164.787 96.1623 166.271 97.4862 167.268 99.17C168.265 100.854 168.725 102.814 168.584 104.778C168.584 104.778 176.518 105.457 177.774 109.859C179.03 114.261 174.492 120.969 174.492 120.969C174.492 120.969 178.966 121.719 180.182 123.235C181.399 124.75 178.278 139.77 169.048 143.939C159.819 148.108 135.362 148.64 124.409 136.904Z" fill="#BA68C8"/>
<path opacity="0.25" d="M124.409 136.904C125.51 126.647 129.706 116.993 136.412 109.287C147.753 95.9269 156.678 92.2503 163.021 95.3821C164.787 96.1623 166.271 97.4862 167.268 99.17C168.265 100.854 168.725 102.814 168.584 104.778C168.584 104.778 176.518 105.457 177.774 109.859C179.03 114.261 174.492 120.969 174.492 120.969C174.492 120.969 178.966 121.719 180.182 123.235C181.399 124.75 178.278 139.77 169.048 143.939C159.819 148.108 135.362 148.64 124.409 136.904Z" fill="black"/>
<path d="M125.72 138.961C132.643 145.192 140.9 149.639 149.815 151.936C165.164 156.094 171.983 154.371 176.215 147.687C180.447 141.003 176.541 136.702 168.403 139.085C168.403 139.085 169.802 135.014 167.991 132.972C167.007 132.026 165.822 131.329 164.532 130.937C163.242 130.546 161.88 130.469 160.556 130.714C159.129 131.246 141.406 143.584 125.72 138.961Z" fill="#BA68C8"/>
<path opacity="0.15" d="M125.72 138.961C132.643 145.192 140.9 149.639 149.815 151.936C165.164 156.094 171.983 154.371 176.215 147.687C180.447 141.003 176.541 136.702 168.403 139.085C168.403 139.085 169.802 135.014 167.991 132.972C167.007 132.026 165.822 131.329 164.532 130.937C163.242 130.546 161.88 130.469 160.556 130.714C159.129 131.246 141.406 143.584 125.72 138.961Z" fill="black"/>
<path d="M125.281 130.868C124.192 123.391 124.701 115.762 126.774 108.502C130.275 97.8928 136.064 90.4764 140.305 95.8343C140.305 95.8343 142.405 91.8105 145.94 92.7301C149.475 93.6498 152.542 105.113 148.277 113.35C144.011 121.588 125.281 130.868 125.281 130.868Z" fill="#BA68C8"/>
<path opacity="0.15" d="M125.281 130.868C124.192 123.391 124.701 115.762 126.774 108.502C130.275 97.8928 136.064 90.4764 140.305 95.8343C140.305 95.8343 142.405 91.8105 145.94 92.7301C149.475 93.6498 152.542 105.113 148.277 113.35C144.011 121.588 125.281 130.868 125.281 130.868Z" fill="black"/>
<path d="M125.766 138.961C133.087 143.609 145.696 143.551 152.712 141.427C161.18 138.834 168.841 131.247 169.2 124.038C169.559 116.828 163.438 111.735 163.438 111.735C163.438 111.735 164.706 105.566 157.588 102.329C152.703 100.093 141.535 108.099 134.233 116.307C126.931 124.516 124.64 133.465 125.766 138.961Z" fill="#BA68C8"/>
<path d="M116.864 138.879C119.481 139.308 121.86 140.809 127.652 144.842C133.444 148.875 138.922 151.886 141.338 148.179C143.753 144.473 132.866 140.566 132.866 140.566C132.866 140.566 141.626 136.486 140.06 131.971C138.038 126.017 127.67 131.776 127.67 131.776C127.67 131.776 131.795 122.38 128.196 120.399C124.596 118.417 121.852 122.208 120.72 127.591C119.589 132.974 118.83 137.154 116.864 138.879Z" fill="#455A64"/>
<path d="M24.3679 241.336L13.524 224.962C13.524 224.962 11.45 179.441 56.6124 167.067C99.0427 155.416 130.995 173.154 130.995 173.154C130.995 173.154 118.863 220.584 90.4206 241.045C60.2359 262.893 24.3679 241.336 24.3679 241.336Z" fill="#BA68C8"/>
<path opacity="0.5" d="M24.3679 241.336L13.524 224.962C13.524 224.962 11.45 179.441 56.6124 167.067C99.0427 155.416 130.995 173.154 130.995 173.154C130.995 173.154 118.863 220.584 90.4206 241.045C60.2359 262.893 24.3679 241.336 24.3679 241.336Z" fill="white"/>
<path d="M18.4312 234.073C18.6497 234.18 18.898 234.206 19.1334 234.147C19.3688 234.088 19.5767 233.947 19.7214 233.748C54.26 185.309 99.7326 177.641 117.682 176.589C117.817 176.584 117.95 176.551 118.072 176.492C118.194 176.432 118.303 176.349 118.393 176.245C118.482 176.142 118.551 176.021 118.593 175.89C118.636 175.759 118.652 175.621 118.641 175.483C118.624 175.207 118.503 174.948 118.303 174.761C118.103 174.575 117.839 174.475 117.568 174.483C99.3177 175.559 53.0971 183.326 18.042 232.498C17.8895 232.729 17.8296 233.011 17.8747 233.286C17.9197 233.561 18.0662 233.808 18.2841 233.976L18.4312 234.073Z" fill="white"/>
<path d="M57.3081 196.577C57.536 196.696 57.7985 196.72 58.0435 196.647C67.3641 193.84 88.112 203.616 96.3403 214.666C96.4199 214.778 96.5204 214.872 96.636 214.943C96.7515 215.014 96.8796 215.059 97.0125 215.077C97.1455 215.095 97.2805 215.085 97.4096 215.047C97.5386 215.009 97.659 214.944 97.7634 214.857C97.9786 214.683 98.1196 214.428 98.1559 214.148C98.1921 213.867 98.1208 213.583 97.9572 213.356C89.1089 201.42 67.5867 191.555 57.4862 194.594C57.2319 194.69 57.0237 194.886 56.9059 195.139C56.7881 195.392 56.77 195.683 56.8556 195.95C56.8859 196.081 56.9417 196.204 57.0195 196.312C57.0973 196.42 57.1955 196.51 57.3081 196.577Z" fill="white"/>
<path d="M176.181 162.966C177.162 162.282 178.355 161.994 179.531 162.155C180.199 162.254 180.838 162.498 181.407 162.87C181.976 163.242 182.461 163.734 182.83 164.313C183.364 165.475 183.5 166.787 183.215 168.038C182.931 169.289 182.243 170.405 181.263 171.205C182.372 170.604 183.645 170.399 184.881 170.623C186.116 170.846 187.244 171.486 188.085 172.44C188.437 173.018 188.669 173.664 188.766 174.338C188.862 175.012 188.822 175.699 188.648 176.356C188.349 177.525 187.638 178.539 186.653 179.201C183.494 181.343 178.061 179.363 176.267 178.819C174.883 178.365 173.524 177.831 172.198 177.219C172.105 175.693 172.119 174.162 172.24 172.638C172.517 170.722 172.983 165.09 176.181 162.966Z" fill="#BA68C8"/>
<path d="M205.513 312.463C208.324 310.091 214.533 328.362 214.533 328.362C214.533 328.362 169.167 404.053 165.459 450.066C164.835 457.669 144.022 461.037 141.433 455.424C123.784 417.142 41.2175 380.132 41.2175 380.132C41.2175 380.132 35.9228 350.679 40.5982 354.063C69.5326 374.986 166.613 345.447 205.521 312.492L205.513 312.463Z" stroke="black" stroke-width="2" stroke-miterlimit="10"/>
</svg>
