<svg width="317" height="628" viewBox="0 0 317 628" fill="none" xmlns="http://www.w3.org/2000/svg">
<path d="M171.08 173.506C170.811 170.054 171.559 166.614 173.23 163.62C174.901 160.625 177.42 158.21 180.468 156.681C183.517 155.151 186.959 154.575 190.36 155.025C193.76 155.474 196.967 156.93 199.575 159.208C202.183 161.486 204.075 164.485 205.012 167.824C205.95 171.164 205.891 174.695 204.842 177.972C203.794 181.25 201.804 184.126 199.122 186.237C196.441 188.349 193.189 189.602 189.777 189.838C187.501 190.009 185.209 189.72 183.032 188.988C180.856 188.257 178.839 187.098 177.099 185.578C175.359 184.058 173.931 182.208 172.898 180.135C171.864 178.063 171.246 175.809 171.08 173.506Z" fill="#B16668"/>
<path d="M181.992 87.4126C181.723 83.9611 182.471 80.521 184.142 77.5265C185.813 74.532 188.332 72.1176 191.38 70.5879C194.429 69.0581 197.871 68.4817 201.272 68.9315C204.672 69.3814 207.879 70.8374 210.487 73.1155C213.095 75.3935 214.987 78.3916 215.925 81.7312C216.862 85.0708 216.803 88.6021 215.755 91.8793C214.706 95.1565 212.716 98.0327 210.034 100.145C207.353 102.256 204.101 103.509 200.689 103.745C198.414 103.916 196.121 103.627 193.944 102.896C191.768 102.164 189.751 101.005 188.011 99.4849C186.271 97.9651 184.843 96.1151 183.81 94.0426C182.776 91.97 182.159 89.7162 181.992 87.4126Z" fill="#B16668"/>
<path d="M114.138 142.985C113.851 140.08 114.431 137.166 115.803 134.62C117.175 132.074 119.275 130.012 121.835 128.7C124.394 127.388 127.295 126.886 130.163 127.259C133.031 127.631 135.735 128.862 137.927 130.791C140.119 132.721 141.697 135.261 142.46 138.084C143.222 140.908 143.133 143.885 142.205 146.633C141.276 149.381 139.55 151.773 137.249 153.501C134.948 155.229 132.178 156.215 129.295 156.33C125.582 156.478 121.935 155.174 119.112 152.689C116.289 150.204 114.508 146.728 114.138 142.985Z" fill="#B16668"/>
<path d="M83.0158 90.0317C82.7503 87.1525 83.341 84.2708 84.7121 81.7562C86.0831 79.2417 88.1721 77.2087 90.7113 75.9178C93.2504 74.627 96.1241 74.1372 98.964 74.5111C101.804 74.885 104.481 76.1056 106.651 78.0165C108.822 79.9274 110.387 82.4415 111.147 85.2366C111.906 88.0316 111.826 90.9802 110.915 93.7046C110.004 96.429 108.305 98.8051 106.035 100.528C103.765 102.251 101.027 103.243 98.1733 103.376C94.4483 103.575 90.7739 102.289 87.9396 99.7939C85.1053 97.2987 83.3374 93.7935 83.0158 90.0317Z" fill="#B16668"/>
<path d="M38.6432 127.314C38.3561 124.408 38.9358 121.494 40.3077 118.948C41.6795 116.402 43.7804 114.34 46.34 113.028C48.8995 111.716 51.8003 111.214 54.6684 111.587C57.5365 111.96 60.2406 113.19 62.4322 115.12C64.6239 117.049 66.2026 119.589 66.965 122.413C67.7274 125.236 67.6387 128.213 66.71 130.961C65.7813 133.709 64.0552 136.101 61.7544 137.829C59.4536 139.558 56.6834 140.543 53.8007 140.658C50.0816 140.832 46.4209 139.536 43.5924 137.046C40.7638 134.556 38.9891 131.066 38.6432 127.314Z" fill="#B16668"/>
<path d="M207.649 460.177C210.762 443.936 224.069 439.545 233.166 433.571C242.263 427.596 251.856 421.923 258.884 413.198C257.189 419.756 255.232 426.333 252.083 432.447C248.933 438.561 244.458 444.222 238.845 447.759C229.029 453.899 216.931 452.975 207.672 460.174" fill="#6F564F"/>
<path d="M250.931 455.972C245.012 457.669 239.041 458.854 233.081 459.517C221.661 461.119 209.089 463.319 199.254 470.923C203.55 474.931 212.651 476.054 218.83 475.092C225.009 474.13 231.076 471.394 237.029 468.712C242.744 466.326 248.327 463.456 253.718 460.133C259.131 456.782 263.848 452.144 267.431 446.653C262.549 451.058 256.879 454.26 250.931 455.972Z" fill="#6F564F"/>
<path d="M199.374 435.341C199.975 427.802 199.143 420.437 196.929 413.688C194.714 406.939 191.162 400.945 186.486 396.067C190.722 403.742 185.835 415.256 185.367 424.765C184.585 440.931 188.042 456.171 194.294 469.844C194.069 458.46 198.402 446.83 199.374 435.341Z" fill="#6F564F"/>
<path d="M160.707 394.19C158.674 412.428 156.725 431.432 162.634 447.454C167.272 460.019 178.387 468.315 183.593 480.561L184.416 479.655C182.89 448.19 176.176 419.12 160.707 394.19Z" fill="#6F564F"/>
<path d="M234.54 484.529C221.162 479.439 206.545 476.634 191.577 478.682L188.862 481.638C196.944 490.054 207.796 499.79 218.873 503.376C235.437 508.728 254.924 501.935 272.445 504.287C260.171 496.989 247.892 489.649 234.54 484.529Z" fill="#6F564F"/>
<path d="M215.652 508.731C204.307 500.135 190.705 493.677 176.262 491.805L174.374 495.25C180.048 505.788 187.278 517.038 196.811 523.516C211.069 533.196 230.766 531.474 246.593 538.395C236.817 527.876 226.992 517.312 215.652 508.731Z" fill="#6F564F"/>
<path d="M167.541 495.798C158.831 485.222 150.212 474.495 143.264 462.445C136.316 450.396 131.069 436.887 129.582 422.186C150.72 440.074 164.163 466.205 167.604 496.095" fill="#6F564F"/>
<path d="M149.543 515.443C155.783 525.496 163.315 537.063 173.138 543.012C188.666 552.463 208.413 552.581 227.346 552.484C208.675 545.75 196.753 526.963 178.343 519.571C169.281 515.937 160.686 515.12 150.654 514.488" fill="#6F564F"/>
<path d="M246.515 423.274C246.515 423.274 246.359 423.432 246.042 423.732L244.62 424.995L239.127 429.844C238.535 430.376 237.902 430.929 237.236 431.53C236.546 432.138 235.798 432.661 235.011 433.086C233.217 434.092 231.386 434.998 229.528 435.801C227.397 436.663 225.306 437.685 223.273 438.859C221.015 440.226 218.865 441.825 216.859 443.63C214.643 445.598 212.604 447.792 210.78 450.173C208.802 452.631 206.762 455.177 204.661 457.812C202.587 460.49 200.232 463.084 197.911 465.836L194.339 469.989L190.55 474.131C179.462 486.298 167.676 497.717 155.284 508.301C142.882 518.882 129.921 528.623 116.497 537.452C105.512 544.603 94.2473 551.143 82.7551 557.04C77.8164 559.446 73.3876 561.759 69.4064 563.459C65.4252 565.16 62.0441 566.826 59.2058 567.904L52.7108 570.507L51.0176 571.17C50.6434 571.315 50.4473 571.372 50.4473 571.372C50.4473 571.372 50.6302 571.274 51.0137 571.108L52.6847 570.4L59.158 567.705C61.9785 566.595 65.3593 564.953 69.3232 563.173C73.2871 561.394 77.7156 559.105 82.6409 556.682C94.0914 550.751 105.319 544.198 116.275 537.052C129.666 528.214 142.602 518.48 154.988 507.921C167.363 497.357 179.138 485.967 190.226 473.837C191.513 472.449 192.778 471.065 194.02 469.709C195.262 468.352 196.418 466.926 197.596 465.569C199.898 462.835 202.271 460.248 204.346 457.57C206.42 454.892 208.515 452.403 210.482 449.962C212.339 447.563 214.41 445.353 216.657 443.371C218.705 441.581 220.891 439.996 223.18 438.642C225.23 437.469 227.338 436.45 229.485 435.592C231.332 434.807 233.153 433.922 234.939 432.938C236.407 432.016 237.795 430.931 239.074 429.703L244.616 424.933L246.065 423.705C246.336 423.411 246.515 423.274 246.515 423.274Z" fill="#B16668"/>
<path d="M252.597 500.162C252.378 500.113 252.17 500.029 251.979 499.914L250.258 499.045C248.773 498.271 246.607 497.183 243.909 495.909C229.842 489.205 214.845 484.518 199.232 481.946C196.244 481.443 193.815 481.137 192.116 480.879L190.17 480.603C189.94 480.588 189.716 480.54 189.506 480.459C189.743 480.436 189.977 480.438 190.206 480.467L192.168 480.627C193.874 480.765 196.333 481.055 199.352 481.489C215.074 483.832 230.129 488.539 244.127 495.49C246.809 496.827 248.94 497.97 250.39 498.825L252.049 499.806C252.25 499.893 252.434 500.013 252.597 500.162Z" fill="#B16668"/>
<path d="M225.292 528.914C225.096 528.846 224.914 528.747 224.749 528.622L223.259 527.695C221.966 526.885 220.123 525.675 217.849 524.152C213.307 521.12 207.102 516.83 200.344 511.941C193.586 507.053 187.579 502.472 183.27 499.097C181.116 497.409 179.396 496.024 178.228 495.065L176.876 493.93C176.713 493.805 176.563 493.662 176.428 493.504C176.617 493.582 176.791 493.69 176.946 493.825L178.377 494.86L183.557 498.735C187.931 502.017 193.977 506.535 200.706 511.412C207.436 516.289 213.62 520.65 218.098 523.775L223.398 527.486L224.819 528.517C224.995 528.624 225.154 528.757 225.292 528.914Z" fill="#B16668"/>
<path d="M142.984 445.702C143.132 445.808 143.262 445.938 143.371 446.087L144.393 447.298C145.276 448.356 146.493 449.94 147.94 451.935C155.518 462.373 161.565 474.068 165.916 486.704C166.751 489.123 167.374 491.113 167.755 492.5L168.189 494.108C168.249 494.293 168.29 494.487 168.31 494.688C168.215 494.527 168.139 494.352 168.085 494.167L167.551 492.609C167.096 491.192 166.434 489.287 165.561 486.878C163.285 480.645 160.646 474.612 157.656 468.81C154.645 463.019 151.293 457.468 147.617 452.184C146.208 450.154 145.03 448.535 144.208 447.438L143.276 446.15C143.164 446.013 143.066 445.864 142.984 445.702Z" fill="#B16668"/>
<path d="M167.798 419.263C167.947 419.198 172.097 432.65 177.083 449.312C182.07 465.973 185.996 479.536 185.847 479.601C185.698 479.666 181.543 466.224 176.562 449.552C171.58 432.88 167.639 419.325 167.798 419.263Z" fill="#B16668"/>
<path d="M194.598 422.771C194.657 423.377 194.667 423.996 194.627 424.62C194.617 425.901 194.594 427.61 194.557 429.674C194.51 433.932 194.485 439.821 194.607 446.294C194.729 452.768 195.011 458.607 195.238 462.816L195.511 467.811C195.57 468.416 195.584 469.032 195.554 469.653C195.432 469.067 195.351 468.465 195.313 467.854C195.182 466.698 195.03 465.005 194.882 462.882C194.555 458.683 194.229 452.85 194.098 446.373C193.967 439.896 194.046 433.981 194.197 429.703C194.279 427.56 194.357 425.825 194.438 424.619C194.45 424.006 194.504 423.388 194.598 422.771Z" fill="#B16668"/>
<path d="M233.768 461.233C233.337 461.451 232.889 461.616 232.436 461.723C231.595 462.014 230.373 462.408 228.862 462.854C225.848 463.775 221.653 464.956 217.013 466.091C212.372 467.227 208.156 468.112 205.104 468.68C203.576 468.97 202.342 469.172 201.493 469.309C201.049 469.4 200.605 469.447 200.165 469.45C200.584 469.269 201.015 469.14 201.448 469.067L205.052 468.26C208.096 467.588 212.294 466.646 216.934 465.511C221.574 464.376 225.722 463.252 228.781 462.448L232.368 461.485C232.832 461.354 233.301 461.27 233.768 461.233Z" fill="#B16668"/>
<path d="M194.648 537.16C194.571 537.335 184.243 532.364 171.584 526.079C158.924 519.794 148.734 514.561 148.82 514.39C148.906 514.218 159.225 519.185 171.889 525.486C184.553 531.786 194.794 536.984 194.648 537.16Z" fill="#B16668"/>
<path d="M149.635 510.583C139.9 505.297 128.649 498.806 122.224 489.557C112.087 474.863 109.992 454.982 108.143 435.966C116.142 454.088 134.385 464.228 142.94 482.002C147.157 490.766 148.763 499.327 150.342 509.347" fill="#6F564F"/>
<path d="M127.16 466.986C127.293 466.888 132.828 476.495 139.523 488.451C146.217 500.408 151.543 510.184 151.41 510.282C151.277 510.381 145.737 500.76 139.042 488.803C132.348 476.846 127.027 467.085 127.16 466.986Z" fill="#B16668"/>
<path d="M42.9939 315.084L41.5687 315.184L42.0243 313.869L76.8174 213.439L64.1281 210.27C61.9221 215.397 56.6234 219.329 50.4104 222.898C47.3008 224.685 43.8929 226.417 40.4288 228.179C40.1941 228.298 39.9591 228.417 39.724 228.537C36.0068 230.428 32.2352 232.362 28.6403 234.467C21.4351 238.685 15.0732 243.515 11.3907 249.858C7.73754 256.151 6.63366 264.09 10.2747 274.704C10.7754 276.162 11.2953 277.08 11.7485 277.609C12.2201 278.16 12.4971 278.158 12.5037 278.158C12.507 278.158 12.5073 278.158 12.5081 278.157C12.5096 278.157 12.5199 278.152 12.5387 278.138C12.579 278.107 12.6543 278.032 12.7363 277.878C12.9037 277.565 13.0342 277.043 13.003 276.363L13.0029 276.363C12.899 274.071 13.5758 270.659 15.0187 266.917C16.4689 263.155 18.7236 258.981 21.8508 255.163C28.1263 247.502 37.9482 241.259 51.7072 242.776L52.8609 242.904L52.4858 243.988L23.7891 326.901L23.7851 326.912L23.7809 326.924C22.0169 331.647 22.6281 337.233 25.4577 342.772C28.2831 348.304 33.2902 353.719 40.1655 358.032L39.5689 358.845L40.1656 358.032C48.2614 363.112 57.3314 365.655 65.4211 365.689C73.5299 365.722 80.5033 363.244 84.6444 358.461C88.7609 353.707 89.4643 347.376 87.0501 340.855C84.6352 334.332 79.1219 327.723 71.023 322.642C61.9799 316.972 51.7332 314.471 42.9939 315.084Z" stroke="black" stroke-width="2"/>
</svg>
