<svg width="335" height="559" viewBox="0 0 335 559" fill="none" xmlns="http://www.w3.org/2000/svg">
<path d="M14.2846 342.737C15.202 343.905 15.7532 345.312 15.8689 346.779C15.9845 348.246 15.6593 349.708 14.9343 350.98C14.2093 352.252 13.1171 353.276 11.7954 353.925C10.4738 354.573 8.98206 354.816 7.50859 354.623C6.03512 354.43 4.64597 353.809 3.51655 352.839C2.38712 351.869 1.56806 350.594 1.16279 349.174C0.757514 347.754 0.784201 346.253 1.23947 344.861C1.69474 343.469 2.55818 342.248 3.72077 341.352C4.49286 340.749 5.38042 340.307 6.33181 340.05C7.2832 339.794 8.27943 339.728 9.2625 339.857C10.2456 339.986 11.1958 340.307 12.058 340.801C12.9202 341.296 13.6771 341.953 14.2846 342.737Z" fill="#B16668"/>
<path d="M30.8705 376.082C31.7879 377.251 32.3392 378.658 32.4548 380.125C32.5705 381.592 32.2452 383.054 31.5202 384.326C30.7952 385.597 29.703 386.622 28.3814 387.27C27.0597 387.919 25.568 388.162 24.0945 387.969C22.6211 387.775 21.2319 387.155 20.1025 386.185C18.9731 385.215 18.154 383.94 17.7487 382.52C17.3435 381.1 17.3701 379.599 17.8254 378.207C18.2807 376.815 19.1441 375.593 20.3067 374.697C21.0788 374.095 21.9664 373.653 22.9178 373.396C23.8691 373.139 24.8654 373.074 25.8484 373.203C26.8315 373.332 27.7818 373.652 28.644 374.147C29.5061 374.641 30.263 375.299 30.8705 376.082Z" fill="#B16668"/>
<path d="M41.8841 340.089C42.678 341.059 43.1642 342.237 43.28 343.473C43.3958 344.709 43.1359 345.945 42.5339 347.023C41.9319 348.1 41.0153 348.97 39.9022 349.519C38.7891 350.068 37.5305 350.272 36.2887 350.105C35.0469 349.937 33.8786 349.405 32.9346 348.578C31.9905 347.751 31.3139 346.666 30.9918 345.464C30.6698 344.262 30.7171 342.997 31.1277 341.832C31.5383 340.667 32.2933 339.656 33.2955 338.929C34.5864 337.993 36.1993 337.591 37.7989 337.807C39.3984 338.023 40.8616 338.841 41.8841 340.089Z" fill="#B16668"/>
<path d="M65.5993 351.598C66.3792 352.564 66.8538 353.733 66.9624 354.958C67.0709 356.182 66.8085 357.405 66.2087 358.47C65.6089 359.536 64.699 360.394 63.5957 360.936C62.4924 361.479 61.2459 361.679 60.0161 361.513C58.7862 361.347 57.6289 360.822 56.6926 360.004C55.7563 359.186 55.0836 358.114 54.7607 356.924C54.4378 355.735 54.4794 354.482 54.8803 353.326C55.2811 352.171 56.0229 351.165 57.0105 350.438C58.2936 349.481 59.912 349.066 61.518 349.283C63.124 349.5 64.5894 350.331 65.5993 351.598Z" fill="#B16668"/>
<path d="M72.5776 327.725C73.3715 328.695 73.8576 329.874 73.9734 331.109C74.0892 332.345 73.8294 333.582 73.2273 334.659C72.6253 335.737 71.7087 336.606 70.5956 337.155C69.4825 337.705 68.2239 337.909 66.982 337.741C65.7402 337.573 64.5719 337.041 63.6278 336.214C62.6838 335.387 62.0071 334.303 61.6851 333.1C61.363 331.898 61.4104 330.633 61.821 329.468C62.2316 328.303 62.9866 327.293 63.9888 326.566C65.2759 325.619 66.8915 325.21 68.4943 325.427C70.097 325.643 71.5613 326.468 72.5776 327.725Z" fill="#B16668"/>
<path d="M129.952 190.434C129.704 190.509 129.436 190.487 129.2 190.371C128.964 190.256 128.777 190.056 128.676 189.811C110.233 143.731 126.34 91.6832 169.701 57.2586C169.921 57.0902 170.198 57.015 170.474 57.0482C170.75 57.0814 171.005 57.2206 171.186 57.4373C171.352 57.6694 171.424 57.9559 171.388 58.2375C171.352 58.519 171.211 58.7738 170.993 58.9491C128.375 92.8004 112.551 143.842 130.615 189.013C130.719 189.282 130.717 189.58 130.609 189.844C130.501 190.109 130.295 190.318 130.035 190.427L129.952 190.434Z" fill="#455A64"/>
<path d="M175.737 92.212C175.18 92.2997 174.617 92.3454 174.053 92.3486C170.146 92.5534 166.222 92.173 162.406 91.2195C155.154 89.1272 147.475 89.4023 140.46 92.0057C140.298 92.0615 140.123 92.07 139.954 92.0303C139.785 91.9905 139.63 91.9041 139.506 91.7807C139.398 91.6418 139.331 91.4745 139.315 91.2994C139.298 91.1242 139.332 90.9488 139.413 90.7946C144.166 81.3796 159.9 66.9265 174.215 71.5979C183.321 74.5748 183.825 80.3664 183.753 82.7484C183.497 84.9695 182.6 87.0532 181.173 88.7372C179.747 90.4212 177.855 91.6303 175.737 92.212ZM143.089 89.2868C149.521 87.7762 156.243 87.8834 162.677 89.5989C166.34 90.518 170.105 90.8965 173.857 90.7228C175.902 90.4778 177.8 89.5531 179.257 88.0918C180.714 86.6304 181.65 84.7137 181.918 82.638C182.25 78.5068 179.253 75.0776 173.691 73.2389C160.562 68.9898 147.09 81.7905 142.06 89.6294L143.089 89.2868Z" fill="#455A64"/>
<path d="M140.326 92.2226C140.221 92.2921 140.101 92.3338 139.976 92.3439C139.851 92.3541 139.725 92.3325 139.609 92.281C139.439 92.1322 139.332 91.9221 139.311 91.696C139.29 91.4699 139.356 91.2458 139.496 91.0717C145.415 83.0601 162.331 77.677 173.045 80.4592C173.264 80.5114 173.455 80.6495 173.576 80.8433C173.698 81.0372 173.74 81.2712 173.695 81.4942C173.639 81.7209 173.499 81.9151 173.304 82.0364C173.11 82.1577 172.876 82.1966 172.651 82.1451C161.588 79.2609 145.917 85.2387 140.87 92.1347C140.701 92.2149 140.513 92.2453 140.326 92.2226Z" fill="#455A64"/>
<path d="M145.611 85.5664C145.376 85.6671 145.113 85.6884 144.862 85.6272C144.664 85.4857 144.519 85.2796 144.451 85.0438C144.383 84.808 144.396 84.5568 144.489 84.3327C147.313 78.7186 141.242 63.228 136.494 54.2115C135.016 51.567 134.155 48.6194 133.98 45.6006C133.804 42.5819 134.318 39.5742 135.482 36.8144C136.392 35.0723 137.722 33.5997 139.351 32.5335C140.98 31.4673 142.854 30.842 144.799 30.7158C146.722 30.542 148.663 30.9563 150.372 31.9059C152.082 32.8555 153.483 34.2975 154.397 36.0478C159.963 45.297 158.943 65.5943 146.132 85.3104C145.995 85.457 145.81 85.5479 145.611 85.5664ZM142.869 32.9239C141.632 33.2448 140.482 33.8339 139.496 34.6513C138.51 35.4688 137.711 36.4954 137.155 37.6615C136.118 40.1413 135.666 42.8421 135.834 45.5505C136.002 48.2589 136.786 50.9007 138.123 53.2672C138.536 54.0885 146.863 69.9513 147.104 80.0604C157.096 62.4535 157.673 45.0129 152.797 36.8615C152.063 35.4286 150.929 34.2439 149.541 33.4585C148.153 32.6731 146.574 32.3224 145.004 32.4513C144.275 32.5204 143.558 32.6791 142.869 32.9239Z" fill="#455A64"/>
<path d="M145.586 85.5178C145.382 85.6163 145.149 85.6354 144.929 85.5717C144.708 85.457 144.537 85.2586 144.452 85.0187C144.368 84.7788 144.378 84.5161 144.479 84.2862C151.326 68.9647 148.184 47.2106 145.833 41.5165C145.731 41.2815 145.723 41.0164 145.809 40.778C145.895 40.5396 146.069 40.3471 146.293 40.2417C146.406 40.1933 146.527 40.1689 146.649 40.1701C146.771 40.1712 146.893 40.1979 147.006 40.2484C147.119 40.2989 147.221 40.3722 147.306 40.464C147.392 40.5558 147.458 40.6641 147.502 40.7824C149.955 46.6815 153.254 69.2332 146.167 85.0863C146.031 85.2983 145.825 85.4515 145.586 85.5178Z" fill="#455A64"/>
<path d="M207.079 65.4256C195.995 64.129 185.292 60.3649 175.737 54.4036C168.674 37.3849 166.736 29.8621 167.56 15.8091C167.945 12.4192 169.082 9.17392 170.886 6.31594C171.623 5.29151 172.709 4.58316 173.939 4.32549C175.169 4.06781 176.456 4.27876 177.557 4.91826C179.001 6.27365 179.924 8.10249 180.158 10.0707L184.156 27.2945C183.839 20.7535 185.174 14.2661 188.033 8.44694C189.098 6.3015 190.943 3.92131 193.276 4.46194C195.609 5.00256 196.723 8.73081 196.569 11.5748C196.255 18.9512 194.743 26.2049 192.096 33.0448C197.83 27.8077 204.354 23.5302 211.432 20.3689C212.101 19.9559 212.859 19.7078 213.645 19.6442C214.431 19.5807 215.224 19.7033 215.961 20.0025C218.295 21.4441 217.162 25.0966 215.594 27.2828C211.996 32.3494 207.432 36.6266 202.165 39.867C210.049 37.2067 218.455 36.4093 226.749 37.5352C227.399 37.5489 228.043 37.6942 228.642 37.9626C229.24 38.231 229.782 38.617 230.235 39.098C231.787 41.2034 229.605 44.0399 227.407 45.376C221.501 48.8835 214.865 50.975 207.999 51.4936C212.302 52.304 222.427 55.2603 222.477 58.9031C222.526 62.5458 214.27 66.3885 207.079 65.4256Z" fill="#82655D"/>
<path opacity="0.15" d="M207.079 65.4256C195.995 64.129 185.292 60.3649 175.737 54.4036C168.674 37.3849 166.736 29.8621 167.56 15.8091C167.945 12.4192 169.082 9.17392 170.886 6.31594C171.623 5.29151 172.709 4.58316 173.939 4.32549C175.169 4.06781 176.456 4.27876 177.557 4.91826C179.001 6.27365 179.924 8.10249 180.158 10.0707L184.156 27.2945C183.839 20.7535 185.174 14.2661 188.033 8.44694C189.098 6.3015 190.943 3.92131 193.276 4.46194C195.609 5.00256 196.723 8.73081 196.569 11.5748C196.255 18.9512 194.743 26.2049 192.096 33.0448C197.83 27.8077 204.354 23.5302 211.432 20.3689C212.101 19.9559 212.859 19.7078 213.645 19.6442C214.431 19.5807 215.224 19.7033 215.961 20.0025C218.295 21.4441 217.162 25.0966 215.594 27.2828C211.996 32.3494 207.432 36.6266 202.165 39.867C210.049 37.2067 218.455 36.4093 226.749 37.5352C227.399 37.5489 228.043 37.6942 228.642 37.9626C229.24 38.231 229.782 38.617 230.235 39.098C231.787 41.2034 229.605 44.0399 227.407 45.376C221.501 48.8835 214.865 50.975 207.999 51.4936C212.302 52.304 222.427 55.2603 222.477 58.9031C222.526 62.5458 214.27 66.3885 207.079 65.4256Z" fill="black"/>
<path d="M191.707 459.985C172.84 452.818 157.495 440.069 147.92 423.61C139.98 410.745 134.809 396.445 132.667 381.42C132.278 378.586 132.088 375.718 132.099 372.831C132.294 371.048 132.268 369.268 132.022 367.524C132.011 366.795 130.361 366.214 129.707 367.003C126.656 370.807 127.543 376.852 128.003 381.029C128.849 388.19 130.436 395.204 132.743 401.978C137.724 418.449 147.312 433.122 160.604 444.615C169.522 451.812 179.93 457.347 191.322 460.953C191.809 460.909 191.755 460.224 191.31 460.102L191.707 459.985Z" fill="#455A64"/>
<path d="M161.647 452.435C155.009 470.167 154.598 488.807 160.472 505.764C170.128 534.984 183.507 546.614 197.874 545.331C201.796 545.126 205.657 543.843 208.922 541.661C212.188 539.479 214.695 536.505 216.096 533.153C216.096 533.153 231.327 536.93 237.369 530.39C243.41 523.849 240.7 509.893 240.7 509.893C240.7 509.893 249.598 511.412 253.127 509.646C256.655 507.879 263.588 480.981 250.063 468.344C236.537 455.707 191.804 439.7 161.647 452.435Z" fill="#AE7864"/>
<path opacity="0.25" d="M161.647 452.435C155.009 470.167 154.598 488.807 160.472 505.764C170.128 534.984 183.507 546.614 197.874 545.331C201.796 545.126 205.657 543.843 208.922 541.661C212.188 539.479 214.695 536.505 216.096 533.153C216.096 533.153 231.327 536.93 237.369 530.39C243.41 523.849 240.7 509.893 240.7 509.893C240.7 509.893 249.598 511.412 253.127 509.646C256.655 507.879 263.588 480.981 250.063 468.344C236.537 455.707 191.804 439.7 161.647 452.435Z" fill="black"/>
<path d="M166.275 448.84C184.251 443.296 203.186 441.209 221.522 442.751C253.265 445.099 264.367 451.553 266.538 464.069C268.709 476.585 257.907 480.903 244.933 472.705C244.933 472.705 244.086 479.664 239.037 481.739C236.431 482.618 233.666 483.007 230.962 482.874C228.258 482.74 225.688 482.089 223.456 480.971C221.277 479.361 199.027 450.673 166.275 448.84Z" fill="#AE7864"/>
<path opacity="0.15" d="M166.275 448.84C184.251 443.296 203.186 441.209 221.522 442.751C253.265 445.099 264.367 451.553 266.538 464.069C268.709 476.585 257.907 480.903 244.933 472.705C244.933 472.705 244.086 479.664 239.037 481.739C236.431 482.618 233.666 483.007 230.962 482.874C228.258 482.74 225.688 482.089 223.456 480.971C221.277 479.361 199.027 450.673 166.275 448.84Z" fill="black"/>
<path d="M158.984 457.52C150.693 469.771 145.214 483.319 142.921 497.24C140.44 517.887 144.853 534.482 157.16 527.941C157.16 527.941 157.639 536.272 164.915 536.964C172.191 537.657 187.474 519.778 186.554 502.746C185.634 485.714 158.984 457.52 158.984 457.52Z" fill="#AE7864"/>
<path opacity="0.15" d="M158.984 457.52C150.693 469.771 145.214 483.319 142.921 497.24C140.44 517.887 144.853 534.482 157.16 527.941C157.16 527.941 157.639 536.272 164.915 536.964C172.191 537.657 187.474 519.778 186.554 502.746C185.634 485.714 158.984 457.52 158.984 457.52Z" fill="black"/>
<path d="M166.198 447.692C183.653 444.463 206.898 452.44 218.062 460.392C231.514 470.039 239.253 487.566 233.821 499.897C228.388 512.228 212.774 516.956 212.774 516.956C212.774 516.956 209.902 528.107 194.016 529.095C183.1 529.797 169.238 509.372 162.688 491.025C156.138 472.678 159.472 456.218 166.198 447.692Z" fill="#AE7864"/>
<path d="M150.626 437.846C155.819 438.719 161.477 437.729 175.569 434.707C189.662 431.685 202.311 430.119 203.64 437.521C204.97 444.923 181.581 444.698 181.581 444.698C181.581 444.698 194.303 456.492 187.602 462.815C178.845 471.178 164.573 455.722 164.573 455.722C164.573 455.722 164.254 473.294 155.939 474.328C147.625 475.362 145.76 467.627 148.216 458.298C150.672 448.968 152.8 441.794 150.626 437.846Z" fill="#455A64"/>
<path d="M251.617 186.128C275.858 210.765 305.752 286.155 276.516 314.922C247.28 343.688 167.826 342.897 137.67 328.726C90.961 306.781 91.0502 246.931 140.267 215.781C175.239 193.637 227.423 161.498 251.638 186.108L251.617 186.128Z" stroke="black" stroke-width="2" stroke-miterlimit="10"/>
<path d="M251.791 286.506C255.246 283.106 253.432 275.659 247.739 269.873C242.046 264.087 234.63 262.153 231.175 265.553C227.719 268.953 229.533 276.399 235.226 282.185C240.919 287.971 248.335 289.906 251.791 286.506Z" stroke="black" stroke-width="2" stroke-miterlimit="10"/>
<path d="M257.185 240.001C261.181 236.07 262.575 231.007 260.298 228.693C258.022 226.379 252.936 227.69 248.94 231.622C244.944 235.554 243.551 240.617 245.827 242.931C248.104 245.245 253.189 243.933 257.185 240.001Z" stroke="black" stroke-width="2" stroke-miterlimit="10"/>
<path d="M173.722 305.622C176.176 303.208 174.379 297.403 169.709 292.657C165.04 287.911 159.265 286.021 156.812 288.435C154.358 290.849 156.155 296.653 160.825 301.399C165.494 306.145 171.269 308.036 173.722 305.622Z" stroke="black" stroke-width="2" stroke-miterlimit="10"/>
<path d="M203.428 334.142C206.341 331.275 205.748 325.947 202.102 322.241C198.455 318.535 193.137 317.855 190.223 320.723C187.31 323.59 187.903 328.918 191.549 332.624C195.195 336.33 200.514 337.01 203.428 334.142Z" stroke="black" stroke-width="2" stroke-miterlimit="10"/>
<path d="M191.014 222.661C193.893 219.828 193.926 215.192 191.087 212.307C188.248 209.422 183.612 209.379 180.733 212.212C177.854 215.045 177.821 219.681 180.66 222.566C183.499 225.452 188.135 225.494 191.014 222.661Z" stroke="black" stroke-width="2" stroke-miterlimit="10"/>
<path d="M130.34 270.403C135.705 265.124 138.852 259.621 137.368 258.113C135.884 256.605 130.331 259.662 124.966 264.942C119.6 270.221 116.453 275.724 117.937 277.232C119.421 278.74 124.974 275.683 130.34 270.403Z" stroke="black" stroke-width="2" stroke-miterlimit="10"/>
<path d="M251.033 200.68C252.311 199.421 250.123 195.124 246.144 191.08C242.166 187.037 237.904 184.779 236.626 186.037C235.347 187.296 237.536 191.593 241.514 195.637C245.492 199.68 249.754 201.938 251.033 200.68Z" stroke="black" stroke-width="2" stroke-miterlimit="10"/>
<path d="M189.552 261.418C189.204 258.294 187.256 255.549 185.202 255.286C183.147 255.024 181.764 257.343 182.112 260.467C182.46 263.591 184.408 266.336 186.462 266.598C188.517 266.861 189.9 264.542 189.552 261.418Z" stroke="black" stroke-width="2" stroke-miterlimit="10"/>
<path d="M214.076 191.51C215.366 190.24 214.426 187.193 211.975 184.702C209.525 182.212 206.493 181.222 205.203 182.492C203.913 183.761 204.853 186.809 207.304 189.299C209.754 191.789 212.786 192.779 214.076 191.51Z" stroke="black" stroke-width="2" stroke-miterlimit="10"/>
<path d="M124.953 304.788C126.243 303.519 125.303 300.471 122.852 297.981C120.402 295.49 117.37 294.501 116.08 295.77C114.79 297.039 115.73 300.087 118.181 302.577C120.631 305.068 123.663 306.057 124.953 304.788Z" stroke="black" stroke-width="2" stroke-miterlimit="10"/>
<path d="M274.817 302.032C273.822 298.895 271.426 296.495 269.466 296.67C267.506 296.845 266.723 299.53 267.718 302.667C268.713 305.803 271.109 308.204 273.069 308.028C275.029 307.853 275.812 305.168 274.817 302.032Z" stroke="black" stroke-width="2" stroke-miterlimit="10"/>
<path d="M150.482 239.67C153.396 236.803 152.803 231.474 149.156 227.768C145.51 224.063 140.192 223.383 137.278 226.25C134.364 229.117 134.958 234.446 138.604 238.151C142.25 241.857 147.568 242.537 150.482 239.67Z" stroke="black" stroke-width="2" stroke-miterlimit="10"/>
<path d="M228.076 249.06C230.529 246.646 228.733 240.842 224.063 236.096C219.393 231.35 213.618 229.459 211.165 231.873C208.712 234.287 210.508 240.092 215.178 244.838C219.848 249.584 225.622 251.474 228.076 249.06Z" stroke="black" stroke-width="2" stroke-miterlimit="10"/>
<path d="M210.361 298.235C214.357 294.303 215.751 289.24 213.474 286.926C211.197 284.612 206.112 285.924 202.116 289.855C198.12 293.787 196.727 298.85 199.003 301.164C201.28 303.478 206.365 302.167 210.361 298.235Z" stroke="black" stroke-width="2" stroke-miterlimit="10"/>
</svg>
