<svg width="212" height="243" viewBox="0 0 212 243" fill="none" xmlns="http://www.w3.org/2000/svg">
<path d="M126.955 81.9357C130.897 76.5377 136.309 72.4135 142.559 70.0443C148.81 67.675 155.641 67.1585 162.257 68.5548C180.666 71.7577 197.133 83.4001 197.524 85.6415C197.915 87.883 181.939 99.164 160.153 98.1313C153.817 98.1134 147.536 96.6459 141.785 93.8401C136.034 91.0343 130.963 86.9635 126.955 81.9357Z" fill="#DDB3E3"/>
<path d="M87.1217 105.35C93.1263 102.41 99.8743 101.259 106.585 102.032C113.296 102.804 119.695 105.468 125.041 109.716C140.056 120.973 149.578 138.707 148.926 140.771C148.274 142.836 128.789 145.493 109.894 134.541C104.183 131.683 99.1648 127.57 95.2192 122.512C91.2737 117.455 88.5046 111.586 87.1217 105.35Z" fill="#DDB3E3"/>
<path d="M59.3744 83.7612C57.4124 77.2172 57.3112 70.2906 59.0826 63.7761C60.8539 57.2617 64.426 51.4235 69.3889 46.9316C82.6708 34.1503 99.3947 27.7368 101.52 28.7191C103.646 29.7014 103.418 51.7624 92.4174 67.9713C80.3684 85.4019 64.7003 83.1593 59.3744 83.7612Z" fill="#DDB3E3"/>
<path d="M-72.2143 170.952C-62.0533 157.568 -49.6275 146.117 -35.4897 137.108C-22.779 128.242 -9.34119 120.467 4.68705 113.86C33.9327 100.044 64.9648 90.2718 96.9607 84.8034C117.235 81.3313 138.879 78.2648 159.619 81.8678C160.044 81.9817 160.288 82.9916 159.697 83.0975C140.68 83.4553 121.788 85.7229 103.3 89.8667C86.6211 92.7544 70.2126 96.9238 54.217 102.339C26.9822 111.605 1.05833 124.246 -22.969 139.977C-38.4538 150.823 -53.2795 162.583 -67.3709 175.198C-67.9147 175.833 -68.6914 176.219 -69.53 176.27C-70.3687 176.321 -71.2007 176.034 -71.843 175.471C-72.4853 174.907 -72.8852 174.115 -72.9548 173.267C-73.0244 172.42 -72.7581 171.587 -72.2143 170.952Z" fill="#37474F"/>
<path d="M50.6599 96.1787C53.695 88.2865 57.5996 80.7781 62.3017 73.7913C66.5537 66.9525 72.086 61.026 78.5996 56.3319C79.5637 55.7637 79.1327 57.2259 78.5649 57.8627C74.1154 63.4595 69.9954 69.3168 66.2254 75.4055C62.298 81.9444 59.2786 89.0075 57.249 96.4031C56.9525 97.3935 56.3633 98.2637 55.5588 98.8996C54.7543 99.5355 53.772 99.9074 52.7409 99.9663C52.3317 99.9009 51.941 99.741 51.5996 99.4993C51.2583 99.2576 50.9756 98.9406 50.7738 98.5734C50.5721 98.2062 50.4569 97.7987 50.4371 97.3831C50.4173 96.9676 50.4935 96.5553 50.6599 96.1787Z" fill="#37474F"/>
<path d="M53.5707 95.5974C65.3455 95.8156 77.0177 98.3299 87.9402 103.001C93.031 104.847 97.9853 107.072 102.761 109.657C108.444 112.684 113.664 116.537 118.25 121.089C118.25 121.089 119.206 122.69 118.618 122.495C113.285 119.174 107.789 116.132 102.153 113.381C97.0676 110.9 91.7876 108.862 86.3726 107.29C75.5443 103.765 64.3835 101.468 53.1008 100.442C50.5938 99.995 51.5566 95.5816 53.5707 95.5974Z" fill="#37474F"/>
<path d="M22.0631 127.808C27.2845 123.729 33.5796 121.244 40.2223 120.64C46.8649 120.037 53.5844 121.338 59.6055 124.396C76.6483 132.395 89.5568 147.7 89.3512 149.926C89.1457 152.151 70.7023 158.805 49.9005 152.117C43.7812 150.407 38.0965 147.33 33.2745 143.119C28.4525 138.908 24.6191 133.673 22.0631 127.808Z" fill="#DDB3E3"/>
<path d="M-12.7757 125.277C-1.23689 123.036 10.6727 123.057 22.3053 125.338C27.639 126.085 32.9162 127.247 38.0894 128.813C44.2328 130.537 50.106 133.169 55.5144 136.623C55.5144 136.623 56.4454 138.183 56.2592 137.871C50.3778 135.696 44.386 133.854 38.3126 132.356C32.7023 130.995 26.9924 130.144 21.2528 129.814C10.0107 128.549 -1.30821 128.548 -12.4938 129.81C-14.7028 130.268 -14.7566 125.721 -12.7757 125.277Z" fill="#37474F"/>
</svg>
