<svg width="346" height="559" viewBox="0 0 346 559" fill="none" xmlns="http://www.w3.org/2000/svg">
<path d="M14.2846 342.737C15.202 343.905 15.7532 345.312 15.8689 346.779C15.9845 348.246 15.6593 349.708 14.9343 350.98C14.2093 352.252 13.1171 353.276 11.7954 353.925C10.4738 354.573 8.98206 354.816 7.50859 354.623C6.03512 354.43 4.64597 353.809 3.51655 352.839C2.38712 351.869 1.56806 350.594 1.16279 349.174C0.757514 347.754 0.784201 346.253 1.23947 344.861C1.69474 343.469 2.55818 342.248 3.72077 341.352C4.49286 340.749 5.38042 340.307 6.33181 340.05C7.2832 339.794 8.27943 339.728 9.2625 339.857C10.2456 339.986 11.1958 340.307 12.058 340.801C12.9202 341.296 13.6771 341.953 14.2846 342.737Z" fill="#B16668"/>
<path d="M30.8705 376.082C31.7879 377.251 32.3392 378.658 32.4548 380.125C32.5705 381.592 32.2452 383.054 31.5202 384.326C30.7952 385.597 29.703 386.622 28.3814 387.27C27.0597 387.919 25.568 388.162 24.0945 387.969C22.6211 387.775 21.2319 387.155 20.1025 386.185C18.9731 385.215 18.154 383.94 17.7487 382.52C17.3435 381.1 17.3701 379.599 17.8254 378.207C18.2807 376.815 19.1441 375.593 20.3067 374.697C21.0788 374.095 21.9664 373.653 22.9178 373.396C23.8691 373.139 24.8654 373.074 25.8484 373.203C26.8315 373.332 27.7818 373.652 28.644 374.147C29.5061 374.641 30.263 375.299 30.8705 376.082Z" fill="#B16668"/>
<path d="M41.8841 340.089C42.678 341.059 43.1642 342.237 43.28 343.473C43.3958 344.709 43.1359 345.945 42.5339 347.023C41.9319 348.1 41.0153 348.97 39.9022 349.519C38.7891 350.068 37.5305 350.272 36.2887 350.105C35.0469 349.937 33.8786 349.405 32.9346 348.578C31.9905 347.751 31.3139 346.666 30.9918 345.464C30.6698 344.262 30.7171 342.997 31.1277 341.832C31.5383 340.667 32.2933 339.656 33.2955 338.929C34.5864 337.993 36.1993 337.591 37.7989 337.807C39.3984 338.023 40.8616 338.841 41.8841 340.089Z" fill="#B16668"/>
<path d="M65.5993 351.598C66.3792 352.564 66.8538 353.733 66.9624 354.958C67.0709 356.182 66.8085 357.405 66.2087 358.47C65.6089 359.536 64.699 360.394 63.5957 360.936C62.4924 361.479 61.2459 361.679 60.0161 361.513C58.7862 361.347 57.6289 360.822 56.6926 360.004C55.7563 359.186 55.0836 358.114 54.7607 356.924C54.4378 355.735 54.4794 354.482 54.8803 353.326C55.2811 352.171 56.0229 351.165 57.0105 350.438C58.2936 349.481 59.912 349.066 61.518 349.283C63.124 349.5 64.5894 350.331 65.5993 351.598Z" fill="#B16668"/>
<path d="M72.5776 327.725C73.3715 328.695 73.8576 329.874 73.9734 331.109C74.0892 332.345 73.8294 333.582 73.2273 334.659C72.6253 335.737 71.7087 336.606 70.5956 337.155C69.4825 337.705 68.2239 337.909 66.982 337.741C65.7402 337.573 64.5719 337.041 63.6278 336.214C62.6838 335.387 62.0071 334.303 61.6851 333.1C61.363 331.898 61.4104 330.633 61.821 329.468C62.2316 328.303 62.9866 327.293 63.9888 326.566C65.2759 325.619 66.8915 325.21 68.4943 325.427C70.097 325.643 71.5613 326.468 72.5776 327.725Z" fill="#B16668"/>
<path d="M129.467 190.413C129.217 190.488 128.946 190.467 128.709 190.353C128.472 190.239 128.285 190.04 128.184 189.795C109.809 143.855 126.315 91.8161 170.223 57.2646C170.446 57.0956 170.725 57.0193 171.003 57.0514C171.282 57.0834 171.538 57.2214 171.72 57.437C171.886 57.6681 171.957 57.954 171.92 58.2353C171.882 58.5166 171.738 58.7716 171.518 58.9475C128.362 92.9235 112.147 143.957 130.143 188.99C130.247 189.259 130.244 189.557 130.133 189.821C130.023 190.085 129.814 190.295 129.551 190.406L129.467 190.413Z" fill="#455A64"/>
<path d="M175.715 92.0862C175.157 92.1756 174.593 92.2232 174.027 92.2287C170.112 92.448 166.183 92.086 162.364 91.1543C155.108 89.1054 147.413 89.4097 140.372 92.0239C140.209 92.08 140.033 92.0891 139.865 92.0503C139.696 92.0116 139.541 91.9264 139.417 91.8043C139.309 91.6667 139.244 91.5009 139.228 91.327C139.212 91.1531 139.247 90.9787 139.328 90.8252C144.138 81.4545 159.973 67.0354 174.292 71.6174C183.401 74.5375 183.878 80.2879 183.794 82.6541C183.526 84.8612 182.617 86.9345 181.179 88.6129C179.742 90.2914 177.841 91.4999 175.715 92.0862ZM143.019 89.3127C149.471 87.7864 156.205 87.8656 162.643 89.5436C166.309 90.4416 170.079 90.8024 173.839 90.6147C175.889 90.3631 177.796 89.437 179.263 87.9796C180.73 86.5222 181.676 84.6146 181.956 82.5518C182.308 78.4472 179.322 75.0533 173.759 73.2495C160.625 69.0821 147.065 81.8508 141.987 89.6572L143.019 89.3127Z" fill="#455A64"/>
<path d="M140.277 92.2205C140.172 92.2897 140.051 92.3315 139.926 92.342C139.801 92.3526 139.675 92.3318 139.559 92.2812C139.39 92.1346 139.284 91.9271 139.264 91.7034C139.244 91.4797 139.311 91.2576 139.451 91.0848C145.417 83.1315 162.377 77.7358 173.088 80.4466C173.307 80.4974 173.497 80.6333 173.618 80.8247C173.739 81.0161 173.781 81.2475 173.734 81.4685C173.676 81.693 173.535 81.8858 173.34 82.0066C173.145 82.1275 172.91 82.1669 172.685 82.1168C161.625 79.3064 145.908 85.2858 140.822 92.1314C140.652 92.2115 140.464 92.2423 140.277 92.2205Z" fill="#455A64"/>
<path d="M145.462 85.5357C145.223 85.6372 144.959 85.6596 144.706 85.5994C144.506 85.4589 144.36 85.2537 144.293 85.0185C144.225 84.7833 144.24 84.5324 144.335 84.3081C147.213 78.6899 141.163 63.244 136.416 54.2583C134.937 51.6232 134.084 48.6829 133.922 45.6688C133.759 42.6546 134.293 39.6488 135.482 36.8878C136.408 35.1443 137.759 33.6682 139.408 32.5968C141.057 31.5253 142.951 30.8933 144.915 30.7594C146.857 30.578 148.813 30.984 150.534 31.9254C152.254 32.8669 153.661 34.3013 154.575 36.0457C160.147 45.2604 159.016 65.5355 145.988 85.2779C145.85 85.4249 145.663 85.5164 145.462 85.5357ZM142.957 32.9724C141.706 33.2979 140.542 33.891 139.543 34.7113C138.544 35.5317 137.733 36.5602 137.165 37.7271C136.107 40.2079 135.637 42.907 135.793 45.6112C135.949 48.3154 136.727 50.9506 138.065 53.3087C138.478 54.1271 146.803 69.9358 146.996 80.0307C157.168 62.4063 157.837 44.9859 152.956 36.8648C152.222 35.4367 151.084 34.2582 149.687 33.4794C148.291 32.7006 146.698 32.3568 145.114 32.4919C144.377 32.5638 143.653 32.7252 142.957 32.9724Z" fill="#455A64"/>
<path d="M145.451 85.5135C145.243 85.6127 145.005 85.6328 144.782 85.57C144.557 85.4562 144.384 85.2586 144.3 85.0191C144.215 84.7796 144.226 84.5169 144.33 84.2868C151.378 68.9438 148.29 47.2104 145.927 41.5277C145.824 41.2932 145.817 41.0282 145.906 40.7896C145.995 40.551 146.173 40.3578 146.402 40.2515C146.516 40.2027 146.64 40.1779 146.764 40.1785C146.889 40.1792 147.012 40.2053 147.127 40.2554C147.242 40.3054 147.345 40.3784 147.432 40.4698C147.518 40.5612 147.585 40.6692 147.629 40.7873C150.096 46.6743 153.339 69.2045 146.044 85.0798C145.905 85.2923 145.695 85.4462 145.451 85.5135Z" fill="#455A64"/>
<path d="M206.96 65.292C195.834 64.0446 185.104 60.3364 175.537 54.4335C168.528 37.4992 166.618 30.0089 167.515 15.9987C167.918 12.6183 169.076 9.37903 170.902 6.52307C171.647 5.49901 172.741 4.78857 173.977 4.52673C175.214 4.2649 176.506 4.46992 177.609 5.10285C179.052 6.44793 179.97 8.26702 180.195 10.2278L184.126 27.379C183.84 20.8607 185.212 14.3891 188.112 8.57738C189.192 6.43464 191.056 4.05475 193.397 4.58411C195.737 5.11348 196.837 8.82499 196.669 11.6603C196.317 19.0138 194.764 26.2499 192.071 33.0781C197.855 27.8349 204.429 23.5449 211.552 20.3651C212.227 19.9508 212.989 19.7004 213.778 19.6339C214.568 19.5673 215.364 19.6863 216.102 19.9816C218.439 21.4089 217.283 25.0541 215.698 27.2394C212.06 32.3041 207.455 36.5858 202.15 39.837C210.08 37.1534 218.527 36.3244 226.851 37.4129C227.504 37.4239 228.15 37.5661 228.749 37.8312C229.349 38.0963 229.892 38.4788 230.344 38.9564C231.892 41.0486 229.687 43.8847 227.473 45.2254C221.524 48.7453 214.85 50.857 207.952 51.4019C212.269 52.1921 222.423 55.0976 222.455 58.7282C222.487 62.3588 214.176 66.2224 206.96 65.292Z" fill="#82655D"/>
<path opacity="0.15" d="M206.96 65.292C195.834 64.0446 185.104 60.3364 175.537 54.4335C168.528 37.4992 166.618 30.0089 167.515 15.9987C167.918 12.6183 169.076 9.37903 170.902 6.52307C171.647 5.49901 172.741 4.78857 173.977 4.52673C175.214 4.2649 176.506 4.46992 177.609 5.10285C179.052 6.44793 179.97 8.26702 180.195 10.2278L184.126 27.379C183.84 20.8607 185.212 14.3891 188.112 8.57738C189.192 6.43464 191.056 4.05475 193.397 4.58411C195.737 5.11348 196.837 8.82499 196.669 11.6603C196.317 19.0138 194.764 26.2499 192.071 33.0781C197.855 27.8349 204.429 23.5449 211.552 20.3651C212.227 19.9508 212.989 19.7004 213.778 19.6339C214.568 19.5673 215.364 19.6863 216.102 19.9816C218.439 21.4089 217.283 25.0541 215.698 27.2394C212.06 32.3041 207.455 36.5858 202.15 39.837C210.08 37.1534 218.527 36.3244 226.851 37.4129C227.504 37.4239 228.15 37.5661 228.749 37.8312C229.349 38.0963 229.892 38.4788 230.344 38.9564C231.892 41.0486 229.687 43.8847 227.473 45.2254C221.524 48.7453 214.85 50.857 207.952 51.4019C212.269 52.1921 222.423 55.0976 222.455 58.7282C222.487 62.3588 214.176 66.2224 206.96 65.292Z" fill="black"/>
<path d="M191.707 459.566C172.849 452.562 157.507 439.976 147.932 423.653C139.991 410.898 134.818 396.693 132.67 381.746C132.28 378.927 132.089 376.071 132.098 373.196C132.293 371.419 132.266 369.646 132.019 367.912C132.008 367.186 130.359 366.619 129.706 367.409C126.659 371.219 127.547 377.233 128.008 381.389C128.857 388.514 130.446 395.488 132.755 402.218C137.739 418.585 147.328 433.13 160.617 444.481C169.532 451.584 179.936 457.023 191.322 460.533C191.809 460.486 191.755 459.804 191.309 459.686L191.707 459.566Z" fill="#455A64"/>
<path d="M161.646 453.034C155.018 470.697 154.615 489.218 160.494 506.022C170.159 534.984 183.539 546.444 197.899 545.068C201.819 544.836 205.679 543.535 208.942 541.344C212.205 539.153 214.71 536.181 216.109 532.841C216.109 532.841 231.336 536.486 237.373 529.946C243.409 523.406 240.693 509.56 240.693 509.56C240.693 509.56 249.589 511.006 253.116 509.227C256.642 507.447 263.561 480.676 250.035 468.217C236.509 455.758 191.785 440.171 161.646 453.034Z" fill="#AE7864"/>
<path opacity="0.25" d="M161.646 453.034C155.018 470.697 154.615 489.218 160.494 506.022C170.159 534.984 183.539 546.444 197.899 545.068C201.819 544.836 205.679 543.535 208.942 541.344C212.205 539.153 214.71 536.181 216.109 532.841C216.109 532.841 231.336 536.486 237.373 529.946C243.409 523.406 240.693 509.56 240.693 509.56C240.693 509.56 249.589 511.006 253.116 509.227C256.642 507.447 263.561 480.676 250.035 468.217C236.509 455.758 191.785 440.171 161.646 453.034Z" fill="black"/>
<path d="M166.276 449.37C184.248 443.776 203.178 441.587 221.512 442.982C253.252 445.081 264.354 451.373 266.531 463.707C268.708 476.041 257.909 480.376 244.933 472.376C244.933 472.376 244.089 479.249 239.042 481.331C236.436 482.217 233.672 482.619 230.969 482.506C228.265 482.393 225.695 481.768 223.463 480.68C221.283 479.107 199.024 450.953 166.276 449.37Z" fill="#AE7864"/>
<path opacity="0.15" d="M166.276 449.37C184.248 443.776 203.178 441.587 221.512 442.982C253.252 445.081 264.354 451.373 266.531 463.707C268.708 476.041 257.909 480.376 244.933 472.376C244.933 472.376 244.089 479.249 239.042 481.331C236.436 482.217 233.672 482.619 230.969 482.506C228.265 482.393 225.695 481.768 223.463 480.68C221.283 479.107 199.024 450.953 166.276 449.37Z" fill="black"/>
<path d="M158.971 457.702C150.691 469.967 145.222 483.506 142.937 497.392C140.466 517.981 144.883 534.484 157.178 527.879C157.178 527.879 157.661 536.176 164.932 536.814C172.203 537.452 187.467 519.53 186.54 502.567C185.614 485.603 158.971 457.702 158.971 457.702Z" fill="#AE7864"/>
<path opacity="0.15" d="M158.971 457.702C150.691 469.967 145.222 483.506 142.937 497.392C140.466 517.981 144.883 534.484 157.178 527.879C157.178 527.879 157.661 536.176 164.932 536.814C172.203 537.452 187.467 519.53 186.54 502.567C185.614 485.603 158.971 457.702 158.971 457.702Z" fill="black"/>
<path d="M166.195 448.139C183.641 444.806 206.879 452.573 218.042 460.399C231.492 469.895 239.235 487.266 233.81 499.563C228.386 511.861 212.78 516.671 212.78 516.671C212.78 516.671 209.914 527.777 194.035 528.872C183.124 529.647 169.26 509.439 162.705 491.245C156.149 473.051 159.475 456.663 166.195 448.139Z" fill="#AE7864"/>
<path d="M150.626 438.157C155.818 438.986 161.473 437.965 175.561 434.872C189.649 431.779 202.294 430.138 203.626 437.465C204.959 444.792 181.576 444.732 181.576 444.732C181.576 444.732 194.299 456.332 187.603 462.644C178.852 470.994 164.577 455.776 164.577 455.776C164.577 455.776 164.266 473.193 155.954 474.276C147.642 475.358 145.774 467.706 148.225 458.443C150.677 449.179 152.801 442.055 150.626 438.157Z" fill="#455A64"/>
<path d="M311.873 226.801C313.128 223.755 307.482 213.914 308.385 203.798C310.704 178.341 321.728 164.159 322.072 156.205C322.229 152.159 309.362 150.551 309.362 150.551C303.599 163.642 295.084 198.856 295.084 198.856L237.632 178.437C237.632 178.437 261.694 139.819 259.32 129.628C259.32 129.628 250.582 123.715 247.105 126.485C240.249 131.977 242.766 151.445 223.672 172.742C212.112 185.625 212.049 179.424 208.132 188.209C196.359 214.511 181.988 283.049 160.398 299.864C150.515 307.573 193.542 306.637 183.243 370.257C182.521 374.728 206.96 385.163 208.575 382.463C243.541 322.847 280.48 356.63 276.575 342.105C268.712 312.864 298.933 258.001 311.851 226.751L311.873 226.801Z" stroke="black" stroke-width="2" stroke-miterlimit="10"/>
</svg>
