<svg width="196" height="346" viewBox="0 0 196 346" fill="none" xmlns="http://www.w3.org/2000/svg">
<path d="M106.38 11.9385C105.763 12.7357 105.397 13.6978 105.327 14.7031C105.257 15.7085 105.486 16.7121 105.986 17.5872C106.486 18.4623 107.234 19.1697 108.135 19.62C109.037 20.0703 110.052 20.2435 111.052 20.1175C112.052 19.9915 112.992 19.5719 113.753 18.912C114.515 18.2521 115.064 17.3813 115.331 16.4095C115.598 15.4378 115.572 14.4087 115.254 13.4521C114.937 12.4956 114.343 11.6545 113.548 11.0351C113.02 10.6188 112.415 10.3117 111.767 10.1316C111.119 9.95147 110.442 9.90201 109.775 9.98608C109.108 10.0701 108.464 10.286 107.881 10.6212C107.298 10.9564 106.788 11.4042 106.38 11.9385Z" fill="#BA68C8"/>
<path d="M94.6942 34.2891C94.0778 35.0864 93.7113 36.0484 93.6413 37.0538C93.5712 38.0592 93.8005 39.0627 94.3004 39.9378C94.8003 40.8129 95.5482 41.5203 96.4498 41.9707C97.3514 42.421 98.3662 42.594 99.3661 42.468C100.366 42.342 101.306 41.9226 102.068 41.2627C102.83 40.6028 103.379 39.7319 103.646 38.7602C103.913 37.7884 103.886 36.7593 103.569 35.8027C103.251 34.8462 102.658 34.0051 101.863 33.3857C101.335 32.9694 100.729 32.6623 100.081 32.4822C99.4337 32.3021 98.7565 32.2526 98.0894 32.3367C97.4223 32.4207 96.7786 32.6366 96.1957 32.9718C95.6128 33.307 95.1024 33.7548 94.6942 34.2891Z" fill="#BA68C8"/>
<path d="M87.1763 10.0444C86.6425 10.7056 86.3191 11.5116 86.2475 12.3583C86.176 13.2051 86.3597 14.0539 86.7749 14.7953C87.1901 15.5367 87.8178 16.1369 88.5772 16.5183C89.3366 16.8998 90.1927 17.0451 91.0354 16.9356C91.8781 16.826 92.6687 16.4666 93.3053 15.9036C93.9419 15.3407 94.3953 14.6001 94.6072 13.7771C94.819 12.9542 94.7796 12.0866 94.4939 11.2863C94.2082 10.4859 93.6895 9.78951 93.0044 9.28668C92.122 8.63901 91.0239 8.35632 89.9385 8.49743C88.853 8.63854 87.8637 9.19262 87.1763 10.0444Z" fill="#BA68C8"/>
<path d="M70.625 17.6793C70.1008 18.3376 69.7851 19.1376 69.7184 19.9765C69.6517 20.8155 69.837 21.6552 70.2507 22.3881C70.6643 23.121 71.2874 23.7137 72.04 24.0903C72.7927 24.4668 73.6406 24.61 74.4752 24.5015C75.3098 24.393 76.0929 24.0377 76.7243 23.4813C77.3557 22.9248 77.8065 22.1926 78.019 21.3782C78.2315 20.5639 78.1959 19.7047 77.917 18.9107C77.638 18.1167 77.1283 17.424 76.4531 16.9216C75.5759 16.2595 74.4741 15.9681 73.3843 16.1097C72.2945 16.2514 71.3037 16.815 70.625 17.6793Z" fill="#BA68C8"/>
<path d="M65.8735 1.59342C65.3398 2.25468 65.0163 3.06061 64.9448 3.90738C64.8733 4.75415 65.0569 5.6029 65.4721 6.34434C65.8874 7.08577 66.5151 7.68591 67.2744 8.06736C68.0338 8.44881 68.89 8.59408 69.7327 8.48453C70.5754 8.37498 71.366 8.0156 72.0026 7.45267C72.6392 6.88975 73.0926 6.14913 73.3044 5.32617C73.5163 4.50322 73.4768 3.63566 73.1912 2.83533C72.9055 2.035 72.3867 1.33855 71.7017 0.835731C70.8218 0.180955 69.7219 -0.106117 68.6343 0.0352697C67.5467 0.176656 66.5567 0.73545 65.8735 1.59342Z" fill="#BA68C8"/>
<path d="M174.537 166.938C179.141 129.55 167.426 92.4249 144.872 62.5848C138.811 54.5456 131.979 47.1182 124.473 40.4087C117.022 33.2493 108.46 27.3446 99.1207 22.9243C99.1207 22.9243 98.9458 22.9243 99.1207 23.0992C105.852 28.9273 113.196 33.823 119.811 39.7385C126.373 45.5483 132.481 51.8514 138.082 58.5926C149.582 72.413 158.47 88.2125 164.308 105.218C170.229 122.733 172.462 141.284 170.867 159.703C169.272 178.123 163.884 196.014 155.042 212.251C149.967 221.31 143.705 229.65 136.421 237.05C128.932 244.274 120.455 250.396 111.243 255.234C109.524 256.225 110.748 259.372 112.671 258.993C122.2 257.04 130.593 250.426 137.47 243.811C144.566 236.939 150.773 229.205 155.945 220.79C165.95 204.388 172.292 186.018 174.537 166.938Z" fill="#37474F"/>
<path d="M164.982 336.507C145.021 348.017 96.9969 351.281 67.2443 333.593C33.7034 313.661 29.8277 284.054 45.5345 277.176C67.8563 267.269 78.7549 303.403 110.343 316.633C147.906 332.398 164.982 324.005 164.982 324.005V336.507Z" fill="#BA68C8"/>
<path opacity="0.2" d="M164.982 336.507C145.021 348.017 96.9969 351.281 67.2443 333.593C33.7034 313.661 29.8277 284.054 45.5345 277.176C67.8563 267.269 78.7549 303.403 110.343 316.633C147.906 332.398 164.982 324.005 164.982 324.005V336.507Z" fill="white"/>
<path d="M133.072 337.119C94.3439 337.119 59.4625 312.35 49.9918 290.232C49.8532 289.891 49.8517 289.51 49.9874 289.168C50.1231 288.826 50.3857 288.549 50.7203 288.396C50.8866 288.324 51.0655 288.286 51.2467 288.284C51.4279 288.282 51.6077 288.315 51.7758 288.383C51.9438 288.451 52.0967 288.551 52.2257 288.679C52.3546 288.806 52.4571 288.957 52.527 289.125C63.8336 315.526 113.169 344.492 158.162 330.592C158.514 330.482 158.895 330.515 159.222 330.684C159.549 330.853 159.797 331.145 159.91 331.495C160.011 331.851 159.971 332.231 159.797 332.557C159.623 332.883 159.329 333.129 158.978 333.244C150.586 335.829 141.853 337.136 133.072 337.119Z" fill="white"/>
<path d="M124.359 274.204C124.396 274.382 124.366 274.566 124.275 274.723C124.183 274.879 124.037 274.995 123.864 275.049C91.4303 284.841 56.8403 270.241 35.7716 237.866C35.6691 237.702 35.633 237.505 35.671 237.315C35.7089 237.126 35.8179 236.958 35.9756 236.846C36.143 236.746 36.3423 236.715 36.5323 236.758C36.7222 236.802 36.8881 236.917 36.9955 237.079C57.7146 268.901 91.6343 283.238 123.427 273.651C123.616 273.596 123.819 273.617 123.994 273.709C124.168 273.802 124.299 273.958 124.359 274.146V274.204Z" fill="#455A64"/>
<path d="M59.8145 236.438C59.8432 236.826 59.8432 237.215 59.8145 237.603C59.7389 240.3 59.2676 242.97 58.4157 245.53C56.6077 250.375 56.3732 255.667 57.7455 260.654C57.7742 260.769 57.7703 260.89 57.7343 261.003C57.6983 261.116 57.6315 261.217 57.5415 261.295C57.4419 261.36 57.3254 261.394 57.2064 261.394C57.0873 261.394 56.9709 261.36 56.8712 261.295C50.7808 257.419 41.8929 245.675 45.8269 236.146C48.333 230.085 52.267 230.114 53.8698 230.318C55.3539 230.638 56.7103 231.389 57.7681 232.478C58.826 233.567 59.538 234.945 59.8145 236.438ZM56.0553 258.672C55.3883 254.156 55.8283 249.546 57.3375 245.238C58.1578 242.782 58.6191 240.22 58.7071 237.632C58.6537 236.212 58.1339 234.848 57.2279 233.753C56.3219 232.657 55.0803 231.89 53.6949 231.571C50.9265 231.076 48.4496 232.912 46.9051 236.612C43.3208 245.355 51.218 255.437 56.2302 259.4L56.0553 258.672Z" fill="#455A64"/>
<path d="M57.8619 260.712C57.9027 260.788 57.9241 260.873 57.9241 260.96C57.9241 261.046 57.9027 261.131 57.8619 261.207C57.753 261.314 57.6065 261.374 57.454 261.374C57.3014 261.374 57.1549 261.314 57.046 261.207C52.0047 256.632 49.3237 244.685 51.7715 237.516C51.8184 237.37 51.9213 237.248 52.0577 237.177C52.1942 237.106 52.3532 237.091 52.5 237.137C52.6487 237.19 52.7711 237.299 52.8417 237.44C52.9123 237.581 52.9256 237.744 52.8789 237.895C50.3436 245.297 53.4908 256.428 57.8328 260.333C57.8773 260.454 57.8874 260.585 57.8619 260.712Z" fill="#455A64"/>
<path d="M53.5757 256.807C53.6313 256.978 53.6313 257.161 53.5757 257.332C53.4682 257.46 53.3197 257.548 53.1551 257.58C52.9905 257.612 52.82 257.586 52.6723 257.507C49.0006 255.175 38.102 258.381 31.691 261.091C29.806 261.945 27.7485 262.35 25.6804 262.274C23.6122 262.198 21.5899 261.644 19.7725 260.654C18.635 259.907 17.7045 258.885 17.0677 257.683C16.4309 256.481 16.1083 255.137 16.1299 253.777C16.1179 252.428 16.5078 251.106 17.25 249.98C17.9921 248.854 19.0529 247.974 20.297 247.453C26.912 244.189 40.6955 246.229 53.43 256.428C53.5224 256.533 53.5741 256.668 53.5757 256.807ZM17.5287 255.263C17.679 256.144 18.017 256.982 18.5198 257.721C19.0226 258.461 19.6784 259.083 20.4428 259.546C22.0762 260.43 23.8928 260.921 25.7488 260.982C27.6049 261.043 29.4497 260.671 31.1374 259.896C31.7202 259.663 42.9976 254.913 49.904 255.408C38.4517 247.307 26.5914 245.763 20.7633 248.619C19.7456 249.035 18.875 249.746 18.2626 250.659C17.6502 251.573 17.3237 252.648 17.3247 253.747C17.3314 254.259 17.3999 254.768 17.5287 255.263Z" fill="#455A64"/>
<path d="M53.5788 256.807C53.6346 256.957 53.6346 257.123 53.5788 257.273C53.488 257.422 53.343 257.529 53.1743 257.573C53.0057 257.616 52.8268 257.593 52.6754 257.506C42.5928 251.678 27.5562 252.465 23.5348 253.747C23.3686 253.803 23.1869 253.792 23.0289 253.716C22.8709 253.64 22.7491 253.504 22.6897 253.339C22.6629 253.257 22.6531 253.17 22.6607 253.084C22.6684 252.998 22.6934 252.914 22.7342 252.838C22.775 252.762 22.8309 252.695 22.8983 252.641C22.9658 252.586 23.0435 252.547 23.1268 252.523C27.2939 251.183 42.8842 250.338 53.3165 256.37C53.4538 256.479 53.5469 256.635 53.5788 256.807Z" fill="#455A64"/>
<path d="M43.3488 213.504C41.8591 221.063 38.7144 228.198 34.1403 234.398C22.1927 238.157 16.9765 239.002 7.47663 237.516C5.19526 237.029 3.05346 236.033 1.21139 234.602C0.556022 234.027 0.134574 233.232 0.0271263 232.367C-0.0803212 231.502 0.133717 230.628 0.628576 229.91C1.62853 229.003 2.92144 228.486 4.27116 228.453L16.1897 226.821C11.7294 226.613 7.39636 225.269 3.60092 222.917C2.20217 222.042 0.686858 220.615 1.18225 219.041C1.67764 217.467 4.27116 216.943 6.19445 217.234C11.1874 217.933 16.0313 219.449 20.5317 221.722C17.2895 217.426 14.7426 212.646 12.9842 207.559C12.7405 207.071 12.6136 206.532 12.6136 205.986C12.6136 205.44 12.7405 204.901 12.9842 204.412C14.0916 202.897 16.5102 203.917 17.909 205.141C21.1527 207.953 23.8071 211.38 25.7187 215.223C24.3449 209.613 24.2652 203.764 25.4856 198.118C25.5306 197.67 25.6647 197.236 25.8799 196.84C26.0951 196.445 26.387 196.097 26.7386 195.816C28.2539 194.883 30.0606 196.573 30.8474 198.176C32.9053 202.478 33.9614 207.191 33.9364 211.96C34.7232 209.046 37.2875 202.256 39.7645 202.46C42.2414 202.664 44.3979 208.609 43.3488 213.504Z" fill="#BA68C8"/>
<path opacity="0.15" d="M43.3488 213.504C41.8591 221.063 38.7144 228.198 34.1403 234.398C22.1927 238.157 16.9765 239.002 7.47663 237.516C5.19526 237.029 3.05346 236.033 1.21139 234.602C0.556022 234.027 0.134574 233.232 0.0271263 232.367C-0.0803212 231.502 0.133717 230.628 0.628576 229.91C1.62853 229.003 2.92144 228.486 4.27116 228.453L16.1897 226.821C11.7294 226.613 7.39636 225.269 3.60092 222.917C2.20217 222.042 0.686858 220.615 1.18225 219.041C1.67764 217.467 4.27116 216.943 6.19445 217.234C11.1874 217.933 16.0313 219.449 20.5317 221.722C17.2895 217.426 14.7426 212.646 12.9842 207.559C12.7405 207.071 12.6136 206.532 12.6136 205.986C12.6136 205.44 12.7405 204.901 12.9842 204.412C14.0916 202.897 16.5102 203.917 17.909 205.141C21.1527 207.953 23.8071 211.38 25.7187 215.223C24.3449 209.613 24.2652 203.764 25.4856 198.118C25.5306 197.67 25.6647 197.236 25.8799 196.84C26.0951 196.445 26.387 196.097 26.7386 195.816C28.2539 194.883 30.0606 196.573 30.8474 198.176C32.9053 202.478 33.9614 207.191 33.9364 211.96C34.7232 209.046 37.2875 202.256 39.7645 202.46C42.2414 202.664 44.3979 208.609 43.3488 213.504Z" fill="black"/>
<path d="M124.359 274.204C124.396 274.382 124.366 274.566 124.275 274.723C124.183 274.879 124.037 274.995 123.864 275.049C91.4303 284.841 56.8403 270.241 35.7716 237.866C35.6691 237.702 35.633 237.505 35.671 237.315C35.7089 237.126 35.8179 236.958 35.9756 236.846C36.143 236.746 36.3423 236.715 36.5323 236.758C36.7222 236.802 36.8881 236.917 36.9955 237.079C57.7146 268.901 91.6343 283.238 123.427 273.651C123.616 273.596 123.819 273.617 123.994 273.709C124.168 273.802 124.299 273.958 124.359 274.146V274.204Z" fill="#455A64"/>
<path d="M59.8145 236.438C59.8432 236.826 59.8432 237.215 59.8145 237.603C59.7389 240.3 59.2676 242.97 58.4157 245.53C56.6077 250.375 56.3732 255.667 57.7455 260.654C57.7742 260.769 57.7703 260.89 57.7343 261.003C57.6983 261.116 57.6315 261.217 57.5415 261.295C57.4419 261.36 57.3254 261.394 57.2064 261.394C57.0873 261.394 56.9709 261.36 56.8712 261.295C50.7808 257.419 41.8929 245.675 45.8269 236.146C48.333 230.085 52.267 230.114 53.8698 230.318C55.3539 230.638 56.7103 231.389 57.7681 232.478C58.826 233.567 59.538 234.945 59.8145 236.438ZM56.0553 258.672C55.3883 254.156 55.8283 249.546 57.3375 245.238C58.1578 242.782 58.6191 240.22 58.7071 237.632C58.6537 236.212 58.1339 234.848 57.2279 233.753C56.3219 232.657 55.0803 231.89 53.6949 231.571C50.9265 231.076 48.4496 232.912 46.9051 236.612C43.3208 245.355 51.218 255.437 56.2302 259.4L56.0553 258.672Z" fill="#455A64"/>
<path d="M57.8619 260.712C57.9027 260.788 57.9241 260.873 57.9241 260.96C57.9241 261.046 57.9027 261.131 57.8619 261.207C57.753 261.314 57.6065 261.374 57.454 261.374C57.3014 261.374 57.1549 261.314 57.046 261.207C52.0047 256.632 49.3237 244.685 51.7715 237.516C51.8184 237.37 51.9213 237.248 52.0577 237.177C52.1942 237.106 52.3532 237.091 52.5 237.137C52.6487 237.19 52.7711 237.299 52.8417 237.44C52.9123 237.581 52.9256 237.744 52.8789 237.895C50.3436 245.297 53.4908 256.428 57.8328 260.333C57.8773 260.454 57.8874 260.585 57.8619 260.712Z" fill="#455A64"/>
<path d="M53.5757 256.807C53.6313 256.978 53.6313 257.161 53.5757 257.332C53.4682 257.46 53.3197 257.548 53.1551 257.58C52.9905 257.612 52.82 257.586 52.6723 257.507C49.0006 255.175 38.102 258.381 31.691 261.091C29.806 261.945 27.7485 262.35 25.6804 262.274C23.6122 262.198 21.5899 261.644 19.7725 260.654C18.635 259.907 17.7045 258.885 17.0677 257.683C16.4309 256.481 16.1083 255.137 16.1299 253.777C16.1179 252.428 16.5078 251.106 17.25 249.98C17.9921 248.854 19.0529 247.974 20.297 247.453C26.912 244.189 40.6955 246.229 53.43 256.428C53.5224 256.533 53.5741 256.668 53.5757 256.807ZM17.5287 255.263C17.679 256.144 18.017 256.982 18.5198 257.721C19.0226 258.461 19.6784 259.083 20.4428 259.546C22.0762 260.43 23.8928 260.921 25.7488 260.982C27.6049 261.043 29.4497 260.671 31.1374 259.896C31.7202 259.663 42.9976 254.913 49.904 255.408C38.4517 247.307 26.5914 245.763 20.7633 248.619C19.7456 249.035 18.875 249.746 18.2626 250.659C17.6502 251.573 17.3237 252.648 17.3247 253.747C17.3314 254.259 17.3999 254.768 17.5287 255.263Z" fill="#455A64"/>
<path d="M53.5788 256.807C53.6346 256.957 53.6346 257.123 53.5788 257.273C53.488 257.422 53.343 257.529 53.1743 257.573C53.0057 257.616 52.8268 257.593 52.6754 257.506C42.5928 251.678 27.5562 252.465 23.5348 253.747C23.3686 253.803 23.1869 253.792 23.0289 253.716C22.8709 253.64 22.7491 253.504 22.6897 253.339C22.6629 253.257 22.6531 253.17 22.6607 253.084C22.6684 252.998 22.6934 252.914 22.7342 252.838C22.775 252.762 22.8309 252.695 22.8983 252.641C22.9658 252.586 23.0435 252.547 23.1268 252.523C27.2939 251.183 42.8842 250.338 53.3165 256.37C53.4538 256.479 53.5469 256.635 53.5788 256.807Z" fill="#455A64"/>
<path d="M43.3488 213.504C41.8591 221.063 38.7144 228.198 34.1403 234.398C22.1927 238.157 16.9765 239.002 7.47663 237.516C5.19526 237.029 3.05346 236.033 1.21139 234.602C0.556022 234.027 0.134574 233.232 0.0271263 232.367C-0.0803212 231.502 0.133717 230.628 0.628576 229.91C1.62853 229.003 2.92144 228.486 4.27116 228.453L16.1897 226.821C11.7294 226.613 7.39636 225.269 3.60092 222.917C2.20217 222.042 0.686858 220.615 1.18225 219.041C1.67764 217.467 4.27116 216.943 6.19445 217.234C11.1874 217.933 16.0313 219.449 20.5317 221.722C17.2895 217.426 14.7426 212.646 12.9842 207.559C12.7405 207.071 12.6136 206.532 12.6136 205.986C12.6136 205.44 12.7405 204.901 12.9842 204.412C14.0916 202.897 16.5102 203.917 17.909 205.141C21.1527 207.953 23.8071 211.38 25.7187 215.223C24.3449 209.613 24.2652 203.764 25.4856 198.118C25.5306 197.67 25.6647 197.236 25.8799 196.84C26.0951 196.445 26.387 196.097 26.7386 195.816C28.2539 194.883 30.0606 196.573 30.8474 198.176C32.9053 202.478 33.9614 207.191 33.9364 211.96C34.7232 209.046 37.2875 202.256 39.7645 202.46C42.2414 202.664 44.3979 208.609 43.3488 213.504Z" fill="#BA68C8"/>
<path opacity="0.15" d="M43.3488 213.504C41.8591 221.063 38.7144 228.198 34.1403 234.398C22.1927 238.157 16.9765 239.002 7.47663 237.516C5.19526 237.029 3.05346 236.033 1.21139 234.602C0.556022 234.027 0.134574 233.232 0.0271263 232.367C-0.0803212 231.502 0.133717 230.628 0.628576 229.91C1.62853 229.003 2.92144 228.486 4.27116 228.453L16.1897 226.821C11.7294 226.613 7.39636 225.269 3.60092 222.917C2.20217 222.042 0.686858 220.615 1.18225 219.041C1.67764 217.467 4.27116 216.943 6.19445 217.234C11.1874 217.933 16.0313 219.449 20.5317 221.722C17.2895 217.426 14.7426 212.646 12.9842 207.559C12.7405 207.071 12.6136 206.532 12.6136 205.986C12.6136 205.44 12.7405 204.901 12.9842 204.412C14.0916 202.897 16.5102 203.917 17.909 205.141C21.1527 207.953 23.8071 211.38 25.7187 215.223C24.3449 209.613 24.2652 203.764 25.4856 198.118C25.5306 197.67 25.6647 197.236 25.8799 196.84C26.0951 196.445 26.387 196.097 26.7386 195.816C28.2539 194.883 30.0606 196.573 30.8474 198.176C32.9053 202.478 33.9614 207.191 33.9364 211.96C34.7232 209.046 37.2875 202.256 39.7645 202.46C42.2414 202.664 44.3979 208.609 43.3488 213.504Z" fill="black"/>
<path d="M86.2715 138.905C98.5947 145.275 108.552 155.427 114.684 167.87C119.777 177.627 123.036 188.235 124.3 199.168C124.529 201.228 124.626 203.301 124.591 205.374C124.446 206.643 124.446 207.924 124.591 209.192C124.591 209.716 125.67 210.241 126.107 209.716C128.147 207.181 127.622 202.781 127.36 199.75C126.872 194.551 125.897 189.409 124.446 184.393C121.332 172.238 115.174 161.077 106.553 151.96C100.765 146.212 93.9816 141.562 86.5338 138.234C86.2132 138.234 86.2423 138.73 86.5338 138.846L86.2715 138.905Z" fill="#455A64"/>
<path d="M104.806 154.028C109.314 141.295 109.742 127.473 106.03 114.485C99.9393 92.1336 91.2554 82.6046 81.8138 82.6046C79.2379 82.4967 76.6922 83.1935 74.5303 84.5982C72.3684 86.0029 70.6975 88.0459 69.7496 90.4435C69.7496 90.4435 59.7834 86.6261 55.762 91.0846C51.7406 95.5431 53.4016 106.092 53.4016 106.092C53.4016 106.092 47.5735 104.373 45.2423 105.451C42.911 106.529 38.1319 126.053 46.9033 136.34C55.6746 146.627 84.9027 161.488 104.806 154.028Z" fill="#BA68C8"/>
<path opacity="0.25" d="M104.806 154.028C109.314 141.295 109.742 127.473 106.03 114.485C99.9393 92.1336 91.2554 82.6046 81.8138 82.6046C79.2379 82.4967 76.6922 83.1935 74.5303 84.5982C72.3684 86.0029 70.6975 88.0459 69.7496 90.4435C69.7496 90.4435 59.7834 86.6261 55.762 91.0846C51.7406 95.5431 53.4016 106.092 53.4016 106.092C53.4016 106.092 47.5735 104.373 45.2423 105.451C42.911 106.529 38.1319 126.053 46.9033 136.34C55.6746 146.627 84.9027 161.488 104.806 154.028Z" fill="black"/>
<path d="M101.95 155.748C90.0331 159.021 77.5093 159.421 65.4078 156.913C44.4557 152.834 37.1705 146.831 35.83 136.515C34.4896 126.199 41.6582 123.431 50.1672 130.978C50.1672 130.978 50.7792 125.383 54.1304 124.043C55.8585 123.507 57.6877 123.38 59.4732 123.674C61.2586 123.967 62.9512 124.672 64.417 125.733C65.8449 127.19 80.3278 152.018 101.95 155.748Z" fill="#BA68C8"/>
<path opacity="0.15" d="M101.95 155.748C90.0331 159.021 77.5093 159.421 65.4078 156.913C44.4557 152.834 37.1705 146.831 35.83 136.515C34.4896 126.199 41.6582 123.431 50.1672 130.978C50.1672 130.978 50.7792 125.383 54.1304 124.043C55.8585 123.507 57.6877 123.38 59.4732 123.674C61.2586 123.967 62.9512 124.672 64.417 125.733C65.8449 127.19 80.3278 152.018 101.95 155.748Z" fill="black"/>
<path d="M107.225 146.714C112.8 138.507 116.537 129.193 118.182 119.409C120.018 104.839 117.279 92.7164 109.12 96.5921C109.12 96.5921 108.886 90.6183 104.107 89.6567C99.3283 88.6951 89.0999 100.468 89.537 112.678C89.9741 124.888 107.225 146.714 107.225 146.714Z" fill="#BA68C8"/>
<path opacity="0.15" d="M107.225 146.714C112.8 138.507 116.537 129.193 118.182 119.409C120.018 104.839 117.279 92.7164 109.12 96.5921C109.12 96.5921 108.886 90.6183 104.107 89.6567C99.3283 88.6951 89.0999 100.468 89.537 112.678C89.9741 124.888 107.225 146.714 107.225 146.714Z" fill="black"/>
<path d="M101.951 155.748C90.4696 156.972 75.2873 149.57 68.0313 142.984C59.2891 135 54.3643 121.595 58.0361 112.882C61.7078 104.169 71.9944 101.721 71.9944 101.721C71.9944 101.721 73.976 93.7074 84.4084 94.0279C91.577 94.2319 100.494 110.172 104.632 124.101C108.77 138.03 106.439 149.92 101.951 155.748Z" fill="#BA68C8"/>
<path d="M112.645 161.051C109.236 160.031 105.506 160.41 96.2098 161.78C86.9139 163.149 78.5797 163.499 77.7638 157.729C76.9478 151.959 92.3341 153.708 92.3341 153.708C92.3341 153.708 84.0581 143.8 88.5167 139.4C94.3448 133.572 103.612 146.394 103.612 146.394C103.612 146.394 103.961 132.931 109.44 132.697C114.918 132.464 116.084 138.526 114.394 145.519C112.703 152.513 111.246 157.875 112.645 161.051Z" fill="#455A64"/>
<path d="M164.983 336.507L187.421 323.54C187.421 323.54 215.921 271.086 168.48 230.115C123.924 191.591 75.2298 193.834 75.2298 193.834C75.2298 193.834 62.7867 256.837 85.429 297.575C109.383 340.966 164.983 336.507 164.983 336.507Z" fill="#BA68C8"/>
<path opacity="0.5" d="M164.983 336.507L187.421 323.54C187.421 323.54 215.921 271.086 168.48 230.115C123.924 191.591 75.2298 193.834 75.2298 193.834C75.2298 193.834 62.7867 256.837 85.429 297.575C109.383 340.966 164.983 336.507 164.983 336.507Z" fill="white"/>
<path d="M176.202 331.407C175.878 331.406 175.563 331.292 175.314 331.085C175.064 330.878 174.894 330.59 174.833 330.271C160.874 252.961 110.432 217.38 89.3924 205.665C89.2326 205.58 89.0916 205.464 88.9781 205.323C88.8645 205.182 88.7807 205.019 88.7317 204.845C88.6827 204.671 88.6695 204.488 88.6929 204.309C88.7163 204.129 88.7758 203.956 88.8679 203.8C89.0461 203.484 89.3403 203.25 89.6884 203.146C90.0364 203.043 90.411 203.079 90.7329 203.247C112.122 215.165 163.41 251.3 177.572 329.776C177.624 330.137 177.535 330.505 177.323 330.803C177.112 331.102 176.794 331.307 176.436 331.378L176.202 331.407Z" fill="white"/>
<path d="M150.907 264.501C150.564 264.505 150.231 264.38 149.975 264.151C140.242 255.409 109.527 254.651 93.2961 262.723C93.1361 262.807 92.9608 262.858 92.7806 262.873C92.6005 262.888 92.4192 262.866 92.2476 262.809C92.0761 262.751 91.918 262.66 91.7827 262.54C91.6473 262.42 91.5377 262.274 91.4603 262.111C91.297 261.782 91.2697 261.402 91.3842 261.053C91.4987 260.704 91.7458 260.414 92.0722 260.246C109.557 251.504 141.262 252.611 151.811 262.082C152.065 262.343 152.208 262.693 152.208 263.058C152.208 263.423 152.065 263.773 151.811 264.034C151.7 264.169 151.562 264.281 151.407 264.361C151.252 264.441 151.082 264.489 150.907 264.501Z" fill="white"/>
<path d="M26.9152 154.203C26.1198 152.824 24.8436 151.786 23.3309 151.289C22.4678 151.015 21.5563 150.928 20.657 151.034C19.7576 151.139 18.891 151.435 18.1148 151.901C16.8067 152.957 15.8936 154.423 15.5233 156.063C15.1531 157.703 15.3475 159.419 16.0749 160.935C15.0775 159.578 13.6565 158.592 12.0365 158.133C10.4164 157.674 8.68962 157.768 7.12873 158.4C6.37404 158.874 5.72562 159.5 5.22415 160.237C4.72268 160.974 4.379 161.807 4.21467 162.683C3.90838 164.234 4.18875 165.844 5.00146 167.2C7.59498 171.571 15.2881 172.416 17.7651 172.824C19.6968 173.1 21.6427 173.265 23.5932 173.32C24.5765 171.576 25.4335 169.765 26.1576 167.899C26.9152 165.481 29.567 158.574 26.9152 154.203Z" fill="#BA68C8"/>
</svg>
