<svg width="215" height="392" viewBox="0 0 215 392" fill="none" xmlns="http://www.w3.org/2000/svg">
<path d="M101.934 35.0133C102.581 35.814 102.958 36.7334 103.019 37.6553C103.08 38.5772 102.822 39.4604 102.277 40.1933C101.731 40.9261 100.924 41.4758 99.9568 41.7729C98.9893 42.07 97.9048 42.1012 96.8405 41.8626C95.7761 41.624 94.7794 41.1262 93.9764 40.4322C93.1733 39.7382 92.5999 38.879 92.3284 37.9631C92.057 37.0472 92.0997 36.1158 92.4512 35.2863C92.8027 34.4568 93.4473 33.7665 94.3034 33.3026C94.8721 32.99 95.522 32.7862 96.2152 32.703C96.9084 32.6199 97.6311 32.659 98.3412 32.8182C99.0513 32.9774 99.7347 33.2535 100.352 33.6303C100.968 34.0071 101.506 34.4772 101.934 35.0133Z" fill="#BA68C8"/>
<path d="M114.005 58.4635C114.651 59.2643 115.028 60.1837 115.089 61.1056C115.15 62.0275 114.892 62.9106 114.347 63.6435C113.802 64.3763 112.995 64.926 112.027 65.2231C111.06 65.5202 109.975 65.5514 108.911 65.3128C107.846 65.0742 106.85 64.5765 106.047 63.8825C105.244 63.1884 104.67 62.3292 104.399 61.4134C104.127 60.4975 104.17 59.566 104.522 58.7365C104.873 57.907 105.518 57.2167 106.374 56.7528C106.942 56.4402 107.592 56.2364 108.285 56.1532C108.979 56.0701 109.701 56.1092 110.411 56.2684C111.122 56.4276 111.805 56.7036 112.422 57.0805C113.039 57.4573 113.577 57.9275 114.005 58.4635Z" fill="#BA68C8"/>
<path d="M122.011 33.0154C122.571 33.6822 122.905 34.4543 122.969 35.2323C123.034 36.0102 122.826 36.7583 122.374 37.3801C121.921 38.0019 121.243 38.4691 120.428 38.7212C119.613 38.9734 118.698 38.9991 117.801 38.795C116.904 38.5908 116.066 38.1662 115.395 37.5759C114.724 36.9856 114.251 36.2567 114.037 35.4829C113.822 34.7092 113.876 33.9262 114.192 33.2347C114.507 32.5433 115.07 31.9752 115.807 31.6036C116.757 31.1249 117.932 31.0045 119.087 31.2674C120.242 31.5304 121.29 32.1564 122.011 33.0154Z" fill="#BA68C8"/>
<path d="M139.265 41.1021C139.815 41.7652 140.14 42.5311 140.2 43.3015C140.259 44.0718 140.05 44.8116 139.599 45.426C139.148 46.0404 138.475 46.5014 137.668 46.75C136.86 46.9986 135.954 47.0233 135.066 46.8212C134.177 46.619 133.347 46.199 132.682 45.6152C132.016 45.0313 131.545 44.3102 131.33 43.5441C131.115 42.778 131.164 42.0019 131.473 41.3153C131.781 40.6286 132.334 40.0627 133.061 39.6902C134.005 39.1977 135.184 39.0698 136.344 39.3338C137.504 39.5978 138.553 40.2327 139.265 41.1021Z" fill="#BA68C8"/>
<path d="M144.341 24.319C144.901 24.9859 145.235 25.7582 145.299 26.5363C145.364 27.3143 145.156 28.0625 144.703 28.6844C144.251 29.3064 143.573 29.7736 142.758 30.0258C141.943 30.278 141.028 30.3037 140.131 30.0995C139.234 29.8954 138.396 29.4707 137.725 28.8803C137.054 28.29 136.581 27.5609 136.366 26.787C136.152 26.0132 136.206 25.23 136.521 24.5385C136.837 23.847 137.4 23.2787 138.137 22.9071C139.084 22.4215 140.261 22.2973 141.419 22.5608C142.576 22.8243 143.624 23.4548 144.341 24.319Z" fill="#BA68C8"/>
<path d="M29.258 190.016C25.155 152.235 38.0898 116.754 62.2083 89.8775C68.6893 82.6346 75.9646 76.0969 83.9302 70.3579C91.8466 64.1642 100.9 59.3579 110.737 56.126C110.737 56.126 110.92 56.1479 110.734 56.3C103.594 61.2588 95.8322 65.2132 88.8122 70.2735C81.8494 75.2352 75.3512 80.7444 69.3746 86.753C57.1031 99.0693 47.5235 113.682 41.1048 129.875C34.5913 146.565 31.9092 164.746 33.2272 183.276C34.5451 201.805 39.8346 220.282 48.7631 237.545C53.892 247.194 60.2748 256.276 67.7421 264.55C75.4264 272.674 84.1643 279.826 93.6936 285.791C95.4705 286.991 94.1329 289.97 92.1314 289.353C82.2165 286.22 73.5765 278.588 66.519 271.146C59.2376 263.422 52.9014 254.95 47.6585 245.929C37.519 228.357 31.2422 209.284 29.258 190.016Z" fill="#37474F"/>
<path d="M37.3978 367.49C58.5301 379.383 109.501 384.984 141.184 369.887C176.901 352.875 181.173 325.19 164.533 317.885C140.886 307.378 129.123 340.843 95.5146 351.643C55.5501 364.518 37.4642 355.714 37.4642 355.714L37.3978 367.49Z" fill="#BA68C8"/>
<path opacity="0.2" d="M37.3978 367.49C58.5301 379.383 109.501 384.984 141.184 369.887C176.901 352.875 181.173 325.19 164.533 317.885C140.886 307.378 129.123 340.843 95.5146 351.643C55.5501 364.518 37.4642 355.714 37.4642 355.714L37.3978 367.49Z" fill="white"/>
<path d="M71.4096 369.684C112.446 371.695 149.528 350.65 159.672 330.733C159.821 330.426 159.824 330.074 159.682 329.751C159.54 329.429 159.263 329.16 158.909 329.001C158.733 328.926 158.544 328.882 158.352 328.87C158.16 328.859 157.969 328.881 157.791 328.935C157.612 328.988 157.45 329.073 157.313 329.184C157.175 329.295 157.066 329.429 156.991 329.58C144.881 353.354 92.4628 377.52 44.856 362.359C44.484 362.239 44.0802 362.25 43.7325 362.389C43.3847 362.528 43.1211 362.784 42.999 363.102C42.8902 363.424 42.9314 363.778 43.1141 364.088C43.2968 364.398 43.6066 364.64 43.9784 364.763C52.8576 367.585 62.1051 369.244 71.4096 369.684Z" fill="white"/>
<path d="M80.5378 299.327C80.4964 299.464 80.5263 299.614 80.6217 299.748C80.7171 299.883 80.8713 299.992 81.054 300.054C115.354 311.473 152.211 303.756 174.92 280.399C175.03 280.281 175.071 280.128 175.033 279.973C174.995 279.818 174.881 279.673 174.715 279.566C174.538 279.468 174.327 279.421 174.125 279.434C173.923 279.447 173.746 279.52 173.63 279.637C151.298 302.593 115.155 310.176 81.5332 298.992C81.333 298.927 81.1171 298.921 80.9313 298.975C80.7456 299.029 80.6047 299.139 80.5385 299.281L80.5378 299.327Z" fill="#455A64"/>
<path d="M149.01 268.963C148.973 269.337 148.966 269.716 148.99 270.098C149.025 272.732 149.48 275.392 150.341 277.99C152.179 282.933 152.339 288.116 150.798 292.8C150.765 292.909 150.767 293.027 150.803 293.142C150.84 293.257 150.909 293.363 151.003 293.45C151.108 293.526 151.231 293.574 151.357 293.589C151.484 293.604 151.608 293.584 151.715 293.533C158.247 290.518 167.881 280.19 163.865 270.421C161.307 264.207 157.13 263.745 155.425 263.744C153.843 263.87 152.391 264.433 151.249 265.362C150.108 266.291 149.329 267.543 149.01 268.963ZM152.625 291.081C153.41 286.767 153.021 282.223 151.491 277.84C150.662 275.347 150.215 272.795 150.165 270.264C150.246 268.887 150.821 267.624 151.801 266.67C152.782 265.716 154.113 265.124 155.589 264.986C158.537 264.848 161.135 266.945 162.713 270.741C166.371 279.7 157.816 288.534 152.428 291.769L152.625 291.081Z" fill="#455A64"/>
<path d="M150.793 293.649C150.749 293.72 150.725 293.802 150.724 293.889C150.722 293.975 150.742 294.063 150.783 294.145C150.894 294.265 151.045 294.342 151.204 294.361C151.362 294.38 151.516 294.338 151.631 294.244C156.957 290.281 159.973 278.651 157.568 271.177C157.522 271.025 157.417 270.89 157.277 270.803C157.136 270.715 156.972 270.681 156.818 270.709C156.663 270.744 156.533 270.838 156.457 270.97C156.381 271.103 156.364 271.265 156.41 271.421C158.901 279.139 155.417 289.895 150.83 293.273C150.782 293.389 150.769 293.519 150.793 293.649Z" fill="#455A64"/>
<path d="M155.132 287.857C155.072 287.984 155.07 288.127 155.127 288.266C155.239 288.378 155.396 288.463 155.57 288.506C155.744 288.549 155.925 288.548 156.083 288.503C160.001 287.09 171.521 290.801 178.288 293.627C180.278 294.503 182.455 295.047 184.648 295.217C186.842 295.387 188.992 295.178 190.929 294.607C192.144 294.151 193.141 293.456 193.829 292.588C194.518 291.72 194.874 290.707 194.866 289.643C194.893 288.591 194.494 287.517 193.72 286.555C192.945 285.594 191.83 284.79 190.517 284.245C183.539 280.964 168.903 281.028 155.291 287.577C155.192 287.649 155.136 287.748 155.132 287.857ZM193.367 290.648C193.198 291.319 192.83 291.936 192.289 292.457C191.748 292.978 191.046 293.391 190.231 293.668C188.489 294.177 186.558 294.359 184.59 294.201C182.621 294.042 180.669 293.548 178.888 292.756C178.273 292.509 166.368 287.551 159.04 287.172C171.27 282.118 183.861 282.228 190.01 285.103C191.084 285.541 191.999 286.192 192.639 286.973C193.278 287.754 193.613 288.629 193.6 289.488C193.587 289.886 193.509 290.276 193.367 290.648Z" fill="#455A64"/>
<path d="M155.288 288.178C155.228 288.261 155.227 288.358 155.284 288.451C155.379 288.546 155.53 288.622 155.708 288.663C155.885 288.704 156.074 288.706 156.234 288.669C166.91 286.179 182.749 288.008 186.975 289.124C187.15 289.172 187.342 289.182 187.509 289.152C187.676 289.121 187.805 289.053 187.869 288.962C187.898 288.917 187.91 288.867 187.902 288.816C187.895 288.765 187.869 288.713 187.827 288.665C187.785 288.617 187.726 288.572 187.656 288.535C187.585 288.497 187.503 288.467 187.416 288.445C183.036 287.282 166.614 285.368 155.568 287.946C155.423 287.998 155.323 288.08 155.288 288.178Z" fill="#455A64"/>
<path d="M165.966 243.278C167.453 250.317 170.712 257.174 175.508 263.357C188.204 268.227 193.757 269.631 203.913 269.443C206.353 269.28 208.652 268.638 210.636 267.564C211.343 267.123 211.804 266.453 211.93 265.681C212.056 264.91 211.84 264.09 211.322 263.379C210.267 262.434 208.895 261.807 207.455 261.612L194.762 258.676C199.523 259.032 204.164 258.341 208.245 256.671C209.749 256.049 211.385 254.939 210.878 253.451C210.371 251.963 207.611 251.17 205.555 251.199C200.219 251.223 195.03 252.007 190.198 253.519C193.715 250.018 196.497 245.993 198.442 241.593C198.709 241.179 198.851 240.706 198.859 240.211C198.866 239.715 198.738 239.211 198.485 238.738C197.324 237.228 194.729 237.858 193.221 238.797C189.722 240.952 186.844 243.737 184.752 246.991C186.294 242.069 186.458 236.772 185.232 231.501C185.19 231.089 185.053 230.679 184.829 230.294C184.605 229.909 184.298 229.557 183.927 229.259C182.323 228.228 180.372 229.541 179.511 230.899C177.257 234.55 176.067 238.697 176.029 243.026C175.229 240.286 172.585 233.813 169.94 233.696C167.294 233.578 164.913 238.708 165.966 243.278Z" fill="#BA68C8"/>
<path opacity="0.15" d="M165.966 243.278C167.453 250.317 170.712 257.174 175.508 263.357C188.204 268.227 193.757 269.631 203.913 269.443C206.353 269.28 208.652 268.638 210.636 267.564C211.343 267.123 211.804 266.453 211.93 265.681C212.056 264.91 211.84 264.09 211.322 263.379C210.267 262.434 208.895 261.807 207.455 261.612L194.762 258.676C199.523 259.032 204.164 258.341 208.245 256.671C209.749 256.049 211.385 254.939 210.878 253.451C210.371 251.963 207.611 251.17 205.555 251.199C200.219 251.223 195.03 252.007 190.198 253.519C193.715 250.018 196.497 245.993 198.442 241.593C198.709 241.179 198.851 240.706 198.859 240.211C198.866 239.715 198.738 239.211 198.485 238.738C197.324 237.228 194.729 237.858 193.221 238.797C189.722 240.952 186.844 243.737 184.752 246.991C186.294 242.069 186.458 236.772 185.232 231.501C185.19 231.089 185.053 230.679 184.829 230.294C184.605 229.909 184.298 229.557 183.927 229.259C182.323 228.228 180.372 229.541 179.511 230.899C177.257 234.55 176.067 238.697 176.029 243.026C175.229 240.286 172.585 233.813 169.94 233.696C167.294 233.578 164.913 238.708 165.966 243.278Z" fill="black"/>
<path d="M122.755 172.568C109.522 177.099 98.7489 185.559 92.0145 196.707C86.43 205.411 82.785 215.166 81.2607 225.489C80.9837 227.436 80.8463 229.411 80.8493 231.404C80.9836 232.639 80.9628 233.867 80.7873 235.065C80.7787 235.568 79.6215 235.933 79.1644 235.374C77.0324 232.681 77.6627 228.529 77.9914 225.656C78.5952 220.732 79.7182 215.926 81.3456 211.302C84.8608 200.044 91.6022 190.129 100.935 182.49C107.196 177.72 114.497 174.129 122.486 171.891C122.828 171.932 122.789 172.404 122.476 172.478L122.755 172.568Z" fill="#455A64"/>
<path d="M101.621 174.7C96.9897 162.451 96.7297 149.719 100.877 138.273C107.697 118.54 117.103 110.896 127.182 112.088C129.933 112.314 132.641 113.274 134.929 114.836C137.217 116.397 138.971 118.482 139.949 120.801C139.949 120.801 150.642 118.557 154.872 123.155C159.101 127.752 157.178 137.218 157.178 137.218C157.178 137.218 163.424 136.377 165.898 137.66C168.371 138.944 173.195 157.456 163.685 165.784C154.175 174.113 122.762 184.056 101.621 174.7Z" fill="#BA68C8"/>
<path opacity="0.25" d="M101.621 174.7C96.9897 162.451 96.7297 149.719 100.877 138.273C107.697 118.54 117.103 110.896 127.182 112.088C129.933 112.314 132.641 113.274 134.929 114.836C137.217 116.397 138.971 118.482 139.949 120.801C139.949 120.801 150.642 118.557 154.872 123.155C159.101 127.752 157.178 137.218 157.178 137.218C157.178 137.218 163.424 136.377 165.898 137.66C168.371 138.944 173.195 157.456 163.685 165.784C154.175 174.113 122.762 184.056 101.621 174.7Z" fill="black"/>
<path d="M104.883 177.421C117.503 181.477 130.801 183.268 143.685 182.649C165.988 181.788 173.796 177.765 175.34 169.541C176.885 161.317 169.302 158.229 160.176 163.364C160.176 163.364 159.591 158.747 156.047 157.265C154.218 156.627 152.276 156.31 150.376 156.339C148.476 156.369 146.67 156.743 145.101 157.433C143.567 158.45 127.894 176.924 104.883 177.421Z" fill="#BA68C8"/>
<path opacity="0.15" d="M104.883 177.421C117.503 181.477 130.801 183.268 143.685 182.649C165.988 181.788 173.796 177.765 175.34 169.541C176.885 161.317 169.302 158.229 160.176 163.364C160.176 163.364 159.591 158.747 156.047 157.265C154.218 156.627 152.276 156.31 150.376 156.339C148.476 156.369 146.67 156.743 145.101 157.433C143.567 158.45 127.894 176.924 104.883 177.421Z" fill="black"/>
<path d="M99.7046 172.435C93.9158 163.778 90.0987 154.286 88.5141 144.607C86.8074 130.271 89.924 118.89 98.5345 123.686C98.5345 123.686 98.8829 117.934 103.981 117.616C109.078 117.297 119.756 130.001 119.085 141.761C118.415 153.521 99.7046 172.435 99.7046 172.435Z" fill="#BA68C8"/>
<path opacity="0.15" d="M99.7046 172.435C93.9158 163.778 90.0987 154.286 88.5141 144.607C86.8074 130.271 89.924 118.89 98.5345 123.686C98.5345 123.686 98.8829 117.934 103.981 117.616C109.078 117.297 119.756 130.001 119.085 141.761C118.415 153.521 99.7046 172.435 99.7046 172.435Z" fill="black"/>
<path d="M104.812 178.513C117.052 181.109 133.37 176.157 141.214 170.957C150.665 164.646 156.12 152.813 152.328 144.248C148.536 135.684 137.59 132.103 137.59 132.103C137.59 132.103 135.592 124.403 124.45 123.376C116.793 122.656 107.038 136.339 102.415 148.759C97.7926 161.18 100.107 172.527 104.812 178.513Z" fill="#BA68C8"/>
<path d="M93.8763 185.858C97.5236 185.382 101.494 186.175 111.384 188.523C121.275 190.872 130.153 192.206 131.098 187.239C132.043 182.272 115.62 181.911 115.62 181.911C115.62 181.911 124.57 174.23 119.875 169.816C113.739 163.979 103.695 174.098 103.695 174.098C103.695 174.098 103.498 162.231 97.6617 161.351C91.8255 160.471 90.5043 165.651 92.2148 172.001C93.9253 178.352 95.4085 183.241 93.8763 185.858Z" fill="#455A64"/>
<path d="M37.6513 367.614L13.7743 353.597C13.7743 353.597 -16.2918 300.21 34.6863 262.217C82.5646 226.491 134.568 231.3 134.568 231.3C134.568 231.3 147.405 294.264 122.921 333.346C97.0169 374.981 37.6513 367.614 37.6513 367.614Z" fill="#BA68C8"/>
<path opacity="0.5" d="M37.6513 367.614L13.7743 353.597C13.7743 353.597 -16.2918 300.21 34.6863 262.217C82.5646 226.491 134.568 231.3 134.568 231.3C134.568 231.3 147.405 294.264 122.921 333.346C97.0169 374.981 37.6513 367.614 37.6513 367.614Z" fill="white"/>
<path d="M25.6039 362.702C25.951 362.718 26.2879 362.621 26.5567 362.427C26.8255 362.233 27.0095 361.954 27.0772 361.639C42.6206 285.167 96.8308 252.295 119.417 241.706C119.588 241.629 119.74 241.52 119.862 241.385C119.985 241.25 120.076 241.093 120.13 240.921C120.183 240.75 120.199 240.568 120.175 240.388C120.152 240.207 120.09 240.031 119.992 239.871C119.804 239.545 119.492 239.296 119.121 239.174C118.749 239.053 118.349 239.069 118.003 239.219C95.0418 249.993 39.9238 283.374 24.1529 361C24.0947 361.358 24.1869 361.73 24.4105 362.039C24.6342 362.348 24.9722 362.57 25.3549 362.66L25.6039 362.702Z" fill="white"/>
<path d="M53.4196 295.437C53.7812 295.457 54.1318 295.374 54.4019 295.205C64.6734 288.775 96.9921 289.594 114.042 296.693C114.21 296.766 114.394 296.815 114.583 296.835C114.773 296.854 114.964 296.846 115.144 296.808C115.325 296.771 115.492 296.707 115.635 296.619C115.777 296.531 115.893 296.421 115.975 296.296C116.148 296.045 116.178 295.747 116.059 295.467C115.94 295.187 115.681 294.948 115.338 294.8C96.9726 287.117 63.6101 286.527 52.4776 293.493C52.2089 293.686 52.0578 293.955 52.0565 294.242C52.0552 294.529 52.2039 294.811 52.4708 295.029C52.5869 295.14 52.731 295.234 52.8941 295.304C53.0573 295.374 53.2361 295.42 53.4196 295.437Z" fill="white"/>
<path d="M183.748 183.432C184.605 182.125 185.974 181.178 187.591 180.773C188.513 180.551 189.486 180.514 190.445 180.666C191.404 180.817 192.326 181.152 193.151 181.649C194.54 182.752 195.504 184.235 195.889 185.858C196.273 187.482 196.054 189.15 195.268 190.594C196.341 189.32 197.863 188.432 199.595 188.069C201.326 187.706 203.168 187.89 204.829 188.591C205.631 189.096 206.318 189.742 206.848 190.49C207.379 191.238 207.74 192.07 207.909 192.936C208.226 194.47 207.916 196.029 207.04 197.312C204.244 201.449 196.032 201.865 193.387 202.132C191.324 202.298 189.247 202.356 187.166 202.306C186.128 200.548 185.226 198.731 184.466 196.868C183.673 194.462 180.89 187.566 183.748 183.432Z" fill="#BA68C8"/>
</svg>
