<svg width="220" height="229" viewBox="0 0 220 229" fill="none" xmlns="http://www.w3.org/2000/svg">
<path d="M81.5275 170.858C81.8226 167.448 81.1063 164.059 79.469 161.118C77.8316 158.177 75.3466 155.817 72.3278 154.335C69.309 152.853 65.8919 152.317 62.5076 152.792C59.1234 153.268 55.9237 154.736 53.313 157.009C50.7022 159.283 48.7974 162.261 47.8388 165.566C46.8802 168.872 46.9108 172.358 47.927 175.584C48.9431 178.81 50.899 181.63 53.5479 183.69C56.1968 185.75 59.4199 186.957 62.8101 187.157C65.0707 187.305 67.3521 186.998 69.5217 186.256C71.6913 185.513 73.7056 184.35 75.4475 182.833C77.1893 181.316 78.6239 179.476 79.6677 177.42C80.7115 175.364 81.3437 173.134 81.5275 170.858Z" fill="#BA68C8"/>
<path d="M71.3652 85.9626C71.6603 82.5525 70.9441 79.1632 69.3067 76.2224C67.6693 73.2817 65.1845 70.9216 62.1657 69.4398C59.1469 67.9581 55.7296 67.4212 52.3453 67.8972C48.9611 68.3732 45.7616 69.8406 43.1509 72.1141C40.5401 74.3876 38.6352 77.3652 37.6765 80.6711C36.7179 83.977 36.7486 87.4628 37.7647 90.6885C38.7808 93.9142 40.7369 96.7352 43.3858 98.7951C46.0347 100.855 49.2577 102.062 52.6479 102.262C54.9086 102.41 57.19 102.103 59.3596 101.36C61.5292 100.618 63.5435 99.4545 65.2853 97.9377C67.0271 96.4209 68.4618 94.5811 69.5056 92.5252C70.5494 90.4694 71.1814 88.2384 71.3652 85.9626Z" fill="#BA68C8"/>
<path d="M138.379 140.193C138.687 137.322 138.134 134.451 136.791 131.95C135.447 129.449 133.375 127.433 130.841 126.162C128.307 124.89 125.427 124.422 122.573 124.817C119.719 125.211 117.021 126.451 114.826 128.377C112.632 130.302 111.043 132.825 110.262 135.62C109.482 138.414 109.547 141.353 110.448 144.057C111.349 146.761 113.046 149.107 115.32 150.791C117.593 152.476 120.339 153.423 123.204 153.51C126.894 153.621 130.531 152.3 133.357 149.82C136.183 147.34 137.982 143.892 138.379 140.193Z" fill="#BA68C8"/>
<path d="M169.74 87.6221C170.027 84.777 169.463 81.9375 168.12 79.4678C166.777 76.9981 164.716 75.0105 162.202 73.7599C159.688 72.5092 156.835 72.0526 154.009 72.4483C151.183 72.844 148.512 74.0742 146.339 75.981C144.166 77.8879 142.59 80.3847 141.812 83.1513C141.035 85.9179 141.092 88.8281 141.976 91.5094C142.859 94.1906 144.53 96.5205 146.773 98.2004C149.016 99.8804 151.729 100.834 154.565 100.939C158.267 101.101 161.93 99.7962 164.768 97.3062C167.605 94.8162 169.391 91.3391 169.74 87.6221Z" fill="#BA68C8"/>
<path d="M213.558 124.014C213.867 121.143 213.313 118.272 211.97 115.771C210.626 113.27 208.554 111.254 206.02 109.983C203.486 108.711 200.606 108.243 197.752 108.638C194.897 109.032 192.199 110.273 190.005 112.198C187.811 114.123 186.221 116.646 185.441 119.441C184.66 122.235 184.725 125.174 185.626 127.878C186.528 130.582 188.225 132.928 190.498 134.613C192.772 136.297 195.518 137.244 198.383 137.331C202.079 137.467 205.729 136.154 208.56 133.669C211.392 131.184 213.184 127.722 213.558 124.014Z" fill="#BA68C8"/>
</svg>
