<svg width="220" height="232" viewBox="0 0 220 232" fill="none" xmlns="http://www.w3.org/2000/svg">
<path d="M81.5667 172.912C81.8359 169.461 81.0879 166.021 79.4169 163.026C77.7459 160.032 75.227 157.617 72.1782 156.087C69.1294 154.557 65.6875 153.981 62.2869 154.431C58.8863 154.881 55.6795 156.337 53.0716 158.615C50.4637 160.893 48.5717 163.891 47.6342 167.231C46.6966 170.57 46.7558 174.102 47.8041 177.379C48.8524 180.656 50.8429 183.532 53.5243 185.644C56.2057 187.756 59.4577 189.009 62.8698 189.245C65.1451 189.415 67.4377 189.126 69.6141 188.395C71.7906 187.664 73.8075 186.504 75.5475 184.984C77.2874 183.464 78.7156 181.614 79.749 179.542C80.7823 177.469 81.4002 175.216 81.5667 172.912Z" fill="#B16668"/>
<path d="M70.6544 86.8191C70.9236 83.3676 70.1756 79.9275 68.5046 76.933C66.8337 73.9385 64.3148 71.5241 61.266 69.9943C58.2173 68.4646 54.7752 67.8882 51.3746 68.338C47.974 68.7879 44.7674 70.2439 42.1595 72.5219C39.5516 74.8 37.6594 77.7981 36.7219 81.1377C35.7844 84.4773 35.8435 88.0086 36.8918 91.2858C37.9402 94.563 39.9308 97.4392 42.6122 99.5511C45.2936 101.663 48.5456 102.916 51.9577 103.152C54.233 103.322 56.5255 103.033 58.702 102.302C60.8785 101.571 62.8954 100.411 64.6353 98.8914C66.3753 97.3716 67.8035 95.5216 68.8369 93.449C69.8702 91.3765 70.488 89.1227 70.6544 86.8191Z" fill="#B16668"/>
<path d="M138.508 142.392C138.795 139.486 138.216 136.573 136.844 134.026C135.472 131.48 133.371 129.419 130.812 128.107C128.252 126.795 125.351 126.293 122.483 126.665C119.615 127.038 116.911 128.268 114.719 130.198C112.528 132.127 110.949 134.667 110.187 137.491C109.424 140.314 109.513 143.292 110.442 146.039C111.371 148.787 113.097 151.179 115.397 152.908C117.698 154.636 120.468 155.621 123.351 155.736C127.064 155.885 130.711 154.581 133.534 152.095C136.357 149.61 138.138 146.135 138.508 142.392Z" fill="#B16668"/>
<path d="M169.631 89.4383C169.896 86.559 169.305 83.6773 167.934 81.1628C166.563 78.6482 164.474 76.6152 161.935 75.3244C159.396 74.0335 156.522 73.5438 153.682 73.9177C150.843 74.2915 148.166 75.5122 145.995 77.423C143.825 79.3339 142.259 81.848 141.5 84.6431C140.74 87.4382 140.821 90.3867 141.732 93.1111C142.643 95.8355 144.342 98.2116 146.612 99.9347C148.882 101.658 151.619 102.65 154.473 102.783C158.198 102.982 161.873 101.696 164.707 99.2005C167.541 96.7052 169.309 93.2 169.631 89.4383Z" fill="#B16668"/>
<path d="M214.003 126.72C214.29 123.814 213.711 120.901 212.339 118.355C210.967 115.808 208.866 113.747 206.307 112.435C203.747 111.123 200.846 110.621 197.978 110.993C195.11 111.366 192.406 112.597 190.214 114.526C188.023 116.455 186.444 118.996 185.681 121.819C184.919 124.643 185.008 127.62 185.937 130.368C186.865 133.115 188.591 135.508 190.892 137.236C193.193 138.964 195.963 139.949 198.846 140.065C202.565 140.238 206.226 138.943 209.054 136.453C211.883 133.963 213.657 130.472 214.003 126.72Z" fill="#B16668"/>
</svg>
