<svg width="299" height="559" viewBox="0 0 299 559" fill="none" xmlns="http://www.w3.org/2000/svg">
<path d="M14.2846 342.969C15.202 344.138 15.7532 345.544 15.8689 347.012C15.9845 348.479 15.6593 349.94 14.9343 351.212C14.2093 352.484 13.1171 353.509 11.7954 354.157C10.4738 354.805 8.98206 355.048 7.50859 354.855C6.03512 354.662 4.64597 354.041 3.51655 353.072C2.38712 352.102 1.56806 350.826 1.16279 349.407C0.757514 347.987 0.784201 346.486 1.23947 345.094C1.69474 343.701 2.55818 342.48 3.72077 341.584C4.49286 340.982 5.38042 340.539 6.33181 340.283C7.2832 340.026 8.27943 339.96 9.2625 340.089C10.2456 340.218 11.1958 340.539 12.058 341.034C12.9202 341.528 13.6771 342.186 14.2846 342.969Z" fill="#B16668"/>
<path d="M30.8705 376.315C31.7879 377.484 32.3392 378.89 32.4548 380.357C32.5705 381.825 32.2452 383.286 31.5202 384.558C30.7952 385.83 29.703 386.855 28.3814 387.503C27.0597 388.151 25.568 388.394 24.0945 388.201C22.6211 388.008 21.2319 387.387 20.1025 386.417C18.9731 385.448 18.154 384.172 17.7487 382.752C17.3435 381.332 17.3701 379.831 17.8254 378.439C18.2807 377.047 19.1441 375.826 20.3067 374.93C21.0788 374.327 21.9664 373.885 22.9178 373.629C23.8691 373.372 24.8654 373.306 25.8484 373.435C26.8315 373.564 27.7818 373.885 28.644 374.379C29.5061 374.874 30.263 375.532 30.8705 376.315Z" fill="#B16668"/>
<path d="M41.8841 340.322C42.678 341.291 43.1642 342.47 43.28 343.706C43.3958 344.941 43.1359 346.178 42.5339 347.255C41.9319 348.333 41.0153 349.202 39.9022 349.752C38.7891 350.301 37.5305 350.505 36.2887 350.337C35.0469 350.169 33.8786 349.638 32.9346 348.811C31.9905 347.983 31.3139 346.899 30.9918 345.697C30.6698 344.494 30.7171 343.229 31.1277 342.064C31.5383 340.9 32.2933 339.889 33.2955 339.162C34.5864 338.225 36.1993 337.823 37.7989 338.039C39.3984 338.255 40.8616 339.073 41.8841 340.322Z" fill="#B16668"/>
<path d="M65.5993 351.831C66.3792 352.796 66.8538 353.966 66.9624 355.19C67.0709 356.415 66.8085 357.638 66.2087 358.703C65.6089 359.768 64.699 360.627 63.5957 361.169C62.4924 361.711 61.2459 361.912 60.0161 361.746C58.7862 361.58 57.6289 361.054 56.6926 360.236C55.7563 359.419 55.0836 358.347 54.7607 357.157C54.4378 355.967 54.4794 354.714 54.8803 353.558C55.2811 352.403 56.0229 351.397 57.0105 350.671C58.2936 349.713 59.912 349.299 61.518 349.516C63.124 349.732 64.5894 350.564 65.5993 351.831Z" fill="#B16668"/>
<path d="M72.5776 327.958C73.3715 328.927 73.8576 330.106 73.9734 331.342C74.0892 332.578 73.8294 333.814 73.2273 334.892C72.6253 335.969 71.7087 336.839 70.5956 337.388C69.4825 337.937 68.2239 338.141 66.982 337.973C65.7402 337.806 64.5719 337.274 63.6278 336.447C62.6838 335.62 62.0071 334.535 61.6851 333.333C61.363 332.13 61.4104 330.865 61.821 329.701C62.2316 328.536 62.9866 327.525 63.9888 326.798C65.2759 325.851 66.8915 325.443 68.4943 325.659C70.097 325.876 71.5613 326.7 72.5776 327.958Z" fill="#B16668"/>
<path d="M129.25 190.634C128.998 190.71 128.727 190.689 128.489 190.576C128.251 190.462 128.063 190.264 127.963 190.02C109.619 144.152 126.302 92.1171 170.454 57.5001C170.678 57.3308 170.959 57.254 171.238 57.2855C171.518 57.3169 171.775 57.4543 171.957 57.6693C172.123 57.8999 172.194 58.1854 172.155 58.4666C172.117 58.7477 171.972 59.0029 171.751 59.1791C128.355 93.2194 111.965 144.248 129.931 189.211C130.035 189.479 130.031 189.777 129.919 190.041C129.808 190.306 129.598 190.516 129.334 190.627L129.25 190.634Z" fill="#455A64"/>
<path d="M175.707 92.2546C175.148 92.3448 174.583 92.3934 174.017 92.4001C170.098 92.6267 166.166 92.274 162.346 91.3535C155.088 89.3268 147.386 89.6459 140.334 92.2656C140.17 92.3218 139.995 92.3313 139.826 92.293C139.657 92.2547 139.502 92.1701 139.378 92.0487C139.271 91.9119 139.206 91.7467 139.19 91.5734C139.175 91.4002 139.21 91.2263 139.292 91.0732C144.126 81.7251 160.006 67.3233 174.327 71.8598C183.437 74.7508 183.902 80.4803 183.812 82.8385C183.54 85.0385 182.625 87.1065 181.183 88.782C179.741 90.4576 177.835 91.6658 175.707 92.2546ZM142.989 89.5583C149.449 88.0239 156.19 88.089 162.629 89.7478C166.296 90.6352 170.069 90.9869 173.832 90.792C175.885 90.537 177.795 89.6102 179.266 88.1548C180.738 86.6995 181.689 84.7966 181.973 82.7404C182.335 78.6493 179.354 75.2733 173.79 73.4873C160.654 69.3616 147.055 82.114 141.955 89.9037L142.989 89.5583Z" fill="#455A64"/>
<path d="M140.255 92.4519C140.149 92.5209 140.029 92.5627 139.904 92.5735C139.778 92.5843 139.652 92.5638 139.536 92.5138C139.367 92.3682 139.262 92.1621 139.242 91.9396C139.223 91.7172 139.29 91.4961 139.431 91.3239C145.417 83.4004 162.397 77.9983 173.107 80.6726C173.325 80.7226 173.515 80.8574 173.636 81.0476C173.756 81.2377 173.797 81.4678 173.75 81.6877C173.692 81.9111 173.55 82.1032 173.355 82.2238C173.159 82.3444 172.925 82.3842 172.7 82.3348C161.64 79.5621 145.904 85.5423 140.8 92.3621C140.63 92.4421 140.441 92.4732 140.255 92.4519Z" fill="#455A64"/>
<path d="M145.397 85.7522C145.158 85.8542 144.892 85.8771 144.638 85.8175C144.438 85.6775 144.292 85.4727 144.225 85.2378C144.158 85.0029 144.173 84.7521 144.269 84.5278C147.171 78.9074 141.13 63.4846 136.384 54.515C134.905 51.8847 134.054 48.9482 133.898 45.9364C133.742 42.9246 134.285 39.9198 135.484 37.1582C136.418 35.4139 137.777 33.9361 139.435 32.8619C141.094 31.7878 142.997 31.1523 144.969 31.0144C146.919 30.8291 148.882 31.2307 150.608 32.168C152.333 33.1052 153.743 34.5357 154.657 36.277C160.231 45.4739 159.051 65.7375 145.927 85.4936C145.787 85.6407 145.599 85.7325 145.397 85.7522ZM142.998 33.23C141.742 33.5579 140.572 34.1529 139.567 34.9748C138.561 35.7966 137.745 36.8261 137.172 37.9934C136.104 40.4747 135.626 43.1729 135.777 45.875C135.928 48.577 136.703 51.2089 138.042 53.5625C138.454 54.3796 146.779 70.1602 146.95 80.2479C157.202 62.6143 157.912 45.2044 153.03 37.0989C152.296 35.6734 151.156 34.498 149.755 33.7226C148.354 32.9472 146.756 32.607 145.164 32.7453C144.425 32.8187 143.698 32.9814 142.998 33.23Z" fill="#455A64"/>
<path d="M145.39 85.7436C145.18 85.8432 144.941 85.8638 144.716 85.8015C144.49 85.6882 144.316 85.491 144.231 85.2517C144.147 85.0124 144.158 84.7498 144.264 84.5195C151.399 69.1651 148.336 47.4426 145.967 41.7661C145.864 41.5319 145.857 41.2669 145.947 41.0282C146.037 40.7894 146.217 40.5959 146.448 40.4892C146.564 40.4401 146.688 40.4151 146.813 40.4155C146.939 40.4159 147.063 40.4418 147.179 40.4916C147.294 40.5414 147.398 40.614 147.485 40.7052C147.572 40.7964 147.64 40.9043 147.684 41.0223C150.156 46.903 153.375 69.4216 145.989 85.3088C145.848 85.5215 145.636 85.6759 145.39 85.7436Z" fill="#455A64"/>
<path d="M206.906 65.4562C195.763 64.234 185.02 60.5543 175.449 54.6812C168.463 37.79 166.566 30.3162 167.495 16.3278C167.906 12.9523 169.074 9.71606 170.91 6.86113C171.658 5.83725 172.756 5.12574 173.995 4.86179C175.235 4.59784 176.529 4.79983 177.632 5.42941C179.075 6.76924 179.991 8.58335 180.212 10.5404L184.113 27.6545C183.84 21.1478 185.229 14.6843 188.148 8.87632C189.234 6.73496 191.108 4.35522 193.451 4.87884C195.795 5.40246 196.889 9.10544 196.715 11.9363C196.346 19.2782 194.773 26.5053 192.06 33.3276C197.867 28.0812 204.463 23.7848 211.607 20.5956C212.283 20.1806 213.047 19.9291 213.839 19.861C214.63 19.7929 215.427 19.9101 216.166 20.2033C218.504 21.6233 217.338 25.2648 215.745 27.4498C212.089 32.5135 207.466 36.7974 202.144 40.0542C210.095 37.3586 218.56 36.5136 226.897 37.5829C227.551 37.5926 228.198 37.7333 228.798 37.9966C229.399 38.26 229.941 38.6408 230.393 39.1166C231.94 41.2021 229.724 44.038 227.503 45.381C221.535 48.9073 214.844 51.0293 207.931 51.5875C212.255 52.3674 222.422 55.247 222.446 58.8714C222.469 62.4958 214.135 66.3702 206.906 65.4562Z" fill="#82655D"/>
<path opacity="0.15" d="M206.906 65.4562C195.763 64.234 185.02 60.5543 175.449 54.6812C168.463 37.79 166.566 30.3162 167.495 16.3278C167.906 12.9523 169.074 9.71606 170.91 6.86113C171.658 5.83725 172.756 5.12574 173.995 4.86179C175.235 4.59784 176.529 4.79983 177.632 5.42941C179.075 6.76924 179.991 8.58335 180.212 10.5404L184.113 27.6545C183.84 21.1478 185.229 14.6843 188.148 8.87632C189.234 6.73496 191.108 4.35522 193.451 4.87884C195.795 5.40246 196.889 9.10544 196.715 11.9363C196.346 19.2782 194.773 26.5053 192.06 33.3276C197.867 28.0812 204.463 23.7848 211.607 20.5956C212.283 20.1806 213.047 19.9291 213.839 19.861C214.63 19.7929 215.427 19.9101 216.166 20.2033C218.504 21.6233 217.338 25.2648 215.745 27.4498C212.089 32.5135 207.466 36.7974 202.144 40.0542C210.095 37.3586 218.56 36.5136 226.897 37.5829C227.551 37.5926 228.198 37.7333 228.798 37.9966C229.399 38.26 229.941 38.6408 230.393 39.1166C231.94 41.2021 229.724 44.038 227.503 45.381C221.535 48.9073 214.844 51.0293 207.931 51.5875C212.255 52.3674 222.422 55.247 222.446 58.8714C222.469 62.4958 214.135 66.3702 206.906 65.4562Z" fill="black"/>
<path d="M191.707 459.589C172.853 452.667 157.513 440.161 147.937 423.906C139.996 411.205 134.821 397.049 132.671 382.14C132.281 379.328 132.089 376.479 132.098 373.611C132.292 371.837 132.265 370.067 132.018 368.338C132.007 367.613 130.358 367.053 129.705 367.844C126.66 371.657 127.549 377.655 128.011 381.801C128.861 388.908 130.451 395.862 132.76 402.57C137.746 418.885 147.335 433.365 160.622 444.645C169.537 451.702 179.938 457.093 191.322 460.555C191.809 460.506 191.755 459.826 191.309 459.709L191.707 459.589Z" fill="#455A64"/>
<path d="M161.646 453.569C155.022 471.197 154.623 489.658 160.504 506.386C170.173 535.217 183.553 546.591 197.911 545.168C201.83 544.924 205.689 543.613 208.951 541.418C212.213 539.222 214.717 536.251 216.115 532.917C216.115 532.917 231.34 536.496 237.374 529.956C243.409 523.416 240.691 509.626 240.691 509.626C240.691 509.626 249.585 511.036 253.111 509.249C256.636 507.463 263.549 480.756 250.022 468.387C236.496 456.017 191.777 440.64 161.646 453.569Z" fill="#AE7864"/>
<path opacity="0.25" d="M161.646 453.569C155.022 471.197 154.623 489.658 160.504 506.386C170.173 535.217 183.553 546.591 197.911 545.168C201.83 544.924 205.689 543.613 208.951 541.418C212.213 539.222 214.717 536.251 216.115 532.917C216.115 532.917 231.34 536.496 237.374 529.956C243.409 523.416 240.691 509.626 240.691 509.626C240.691 509.626 249.585 511.036 253.111 509.249C256.636 507.463 263.549 480.756 250.022 468.387C236.496 456.017 191.777 440.64 161.646 453.569Z" fill="black"/>
<path d="M166.277 449.873C184.246 444.253 203.175 442.012 221.508 443.332C253.246 445.303 264.349 451.512 266.528 463.754C268.707 475.995 257.91 480.339 244.933 472.44C244.933 472.44 244.091 479.268 239.044 481.354C236.439 482.243 233.675 482.652 230.971 482.55C228.268 482.447 225.698 481.836 223.466 480.763C221.286 479.209 199.023 451.328 166.277 449.873Z" fill="#AE7864"/>
<path opacity="0.15" d="M166.277 449.873C184.246 444.253 203.175 442.012 221.508 443.332C253.246 445.303 264.349 451.512 266.528 463.754C268.707 475.995 257.91 480.339 244.933 472.44C244.933 472.44 244.091 479.268 239.044 481.354C236.439 482.243 233.675 482.652 230.971 482.55C228.268 482.447 225.698 481.836 223.466 480.763C221.286 479.209 199.023 451.328 166.277 449.873Z" fill="black"/>
<path d="M158.965 458.025C150.69 470.298 145.225 483.83 142.944 497.699C140.478 518.26 144.897 534.717 157.186 528.08C157.186 528.08 157.67 536.36 164.939 536.971C172.208 537.582 187.464 519.638 186.534 502.709C185.605 485.781 158.965 458.025 158.965 458.025Z" fill="#AE7864"/>
<path opacity="0.15" d="M158.965 458.025C150.69 470.298 145.225 483.83 142.944 497.699C140.478 518.26 144.897 534.717 157.186 528.08C157.186 528.08 157.67 536.36 164.939 536.971C172.208 537.582 187.464 519.638 186.534 502.709C185.605 485.781 158.965 458.025 158.965 458.025Z" fill="black"/>
<path d="M166.193 448.596C183.635 445.21 206.871 452.871 218.033 460.635C231.482 470.055 239.227 487.347 233.806 499.628C228.385 511.908 212.783 516.76 212.783 516.76C212.783 516.76 209.92 527.844 194.044 528.992C183.136 529.803 169.27 509.704 162.712 491.587C156.155 473.47 159.476 457.118 166.193 448.596Z" fill="#AE7864"/>
<path d="M150.626 438.545C155.817 439.352 161.472 438.316 175.558 435.186C189.643 432.057 202.286 430.379 203.62 437.667C204.954 444.956 181.573 444.98 181.573 444.98C181.573 444.98 194.298 456.482 187.604 462.789C178.855 471.132 164.579 456.034 164.579 456.034C164.579 456.034 164.271 473.373 155.96 474.48C147.649 475.588 145.78 467.977 148.229 458.747C150.679 449.517 152.801 442.417 150.626 438.545Z" fill="#455A64"/>
<path d="M152.444 326.125C193.456 377.699 199.994 315.346 214.277 309.07C223.692 304.941 220.965 311.017 226.388 314.511C229.515 316.493 255.181 287.605 260.489 278.882C264.452 272.317 268.9 260.232 261.594 253.373C252.993 245.265 295.149 227.751 264.456 189.153C239.549 157.833 219.29 196.04 211.856 194.913C203.136 193.595 207.492 185.339 200.478 188.019C187.324 193.006 168.947 222.269 165.382 230.997C162.727 237.449 172.227 240.556 169.681 247.572C159.984 274.348 112.724 276.224 152.443 326.172L152.444 326.125Z" stroke="black" stroke-width="2" stroke-miterlimit="10"/>
<path d="M166.74 274.41C157.294 287.637 141.51 301.149 156.804 320.575C167.554 334.239 179.417 327.518 182.994 323.142C206.674 294.169 258.345 232.341 260.61 218.295C263.499 200.238 255.162 189.562 242.214 190.789C231.348 191.835 190.076 241.682 166.759 274.386L166.74 274.41Z" stroke="black" stroke-width="2" stroke-miterlimit="10"/>
<ellipse cx="201.326" cy="212.614" rx="7.13286" ry="5.55942" stroke="black"/>
<ellipse cx="184.207" cy="227.902" rx="7.13286" ry="5.55942" stroke="black"/>
<ellipse cx="235.561" cy="277.937" rx="7.13286" ry="5.55942" stroke="black"/>
<ellipse cx="249.828" cy="262.648" rx="7.13286" ry="5.55942" stroke="black"/>
</svg>
