<svg width="314" height="559" viewBox="0 0 314 559" fill="none" xmlns="http://www.w3.org/2000/svg">
<path d="M14.2846 342.737C15.202 343.905 15.7532 345.312 15.8689 346.779C15.9845 348.246 15.6593 349.708 14.9343 350.98C14.2093 352.252 13.1171 353.276 11.7954 353.925C10.4738 354.573 8.98206 354.816 7.50859 354.623C6.03512 354.43 4.64597 353.809 3.51655 352.839C2.38712 351.869 1.56806 350.594 1.16279 349.174C0.757514 347.754 0.784201 346.253 1.23947 344.861C1.69474 343.469 2.55818 342.248 3.72077 341.352C4.49286 340.749 5.38042 340.307 6.33181 340.05C7.2832 339.794 8.27943 339.728 9.2625 339.857C10.2456 339.986 11.1958 340.307 12.058 340.801C12.9202 341.296 13.6771 341.953 14.2846 342.737Z" fill="#B16668"/>
<path d="M30.8705 376.082C31.7879 377.251 32.3392 378.658 32.4548 380.125C32.5705 381.592 32.2452 383.054 31.5202 384.326C30.7952 385.597 29.703 386.622 28.3814 387.27C27.0597 387.919 25.568 388.162 24.0945 387.969C22.6211 387.775 21.2319 387.155 20.1025 386.185C18.9731 385.215 18.154 383.94 17.7487 382.52C17.3435 381.1 17.3701 379.599 17.8254 378.207C18.2807 376.815 19.1441 375.593 20.3067 374.697C21.0788 374.095 21.9664 373.653 22.9178 373.396C23.8691 373.139 24.8654 373.074 25.8484 373.203C26.8315 373.332 27.7818 373.652 28.644 374.147C29.5061 374.641 30.263 375.299 30.8705 376.082Z" fill="#B16668"/>
<path d="M41.8841 340.089C42.678 341.059 43.1642 342.237 43.28 343.473C43.3958 344.709 43.1359 345.945 42.5339 347.023C41.9319 348.1 41.0153 348.97 39.9022 349.519C38.7891 350.068 37.5305 350.272 36.2887 350.105C35.0469 349.937 33.8786 349.405 32.9346 348.578C31.9905 347.751 31.3139 346.666 30.9918 345.464C30.6698 344.262 30.7171 342.997 31.1277 341.832C31.5383 340.667 32.2933 339.656 33.2955 338.929C34.5864 337.993 36.1993 337.591 37.7989 337.807C39.3984 338.023 40.8616 338.841 41.8841 340.089Z" fill="#B16668"/>
<path d="M65.5993 351.598C66.3792 352.564 66.8538 353.733 66.9624 354.958C67.0709 356.182 66.8085 357.405 66.2087 358.47C65.6089 359.536 64.699 360.394 63.5957 360.936C62.4924 361.479 61.2459 361.679 60.0161 361.513C58.7862 361.347 57.6289 360.822 56.6926 360.004C55.7563 359.186 55.0836 358.114 54.7607 356.924C54.4378 355.735 54.4794 354.482 54.8803 353.326C55.2811 352.171 56.0229 351.165 57.0105 350.438C58.2936 349.481 59.912 349.066 61.518 349.283C63.124 349.5 64.5894 350.331 65.5993 351.598Z" fill="#B16668"/>
<path d="M72.5776 327.725C73.3715 328.695 73.8576 329.874 73.9734 331.109C74.0892 332.345 73.8294 333.582 73.2273 334.659C72.6253 335.737 71.7087 336.606 70.5956 337.155C69.4825 337.705 68.2239 337.909 66.982 337.741C65.7402 337.573 64.5719 337.041 63.6278 336.214C62.6838 335.387 62.0071 334.303 61.6851 333.1C61.363 331.898 61.4104 330.633 61.821 329.468C62.2316 328.303 62.9866 327.293 63.9888 326.566C65.2759 325.619 66.8915 325.21 68.4943 325.427C70.097 325.643 71.5613 326.468 72.5776 327.725Z" fill="#B16668"/>
<path d="M130.113 190.441C129.865 190.516 129.598 190.493 129.363 190.377C129.127 190.262 128.941 190.062 128.84 189.816C110.374 143.691 126.35 91.6403 169.53 57.2566C169.75 57.0885 170.025 57.0136 170.3 57.0472C170.576 57.0808 170.83 57.2204 171.012 57.4373C171.177 57.6698 171.249 57.9566 171.214 58.2382C171.179 58.5198 171.038 58.7746 170.822 58.9496C128.381 92.7607 112.685 143.805 130.771 189.02C130.876 189.289 130.874 189.588 130.767 189.852C130.659 190.116 130.454 190.325 130.196 190.435L130.113 190.441Z" fill="#455A64"/>
<path d="M175.745 92.2528C175.189 92.34 174.627 92.385 174.062 92.3875C170.159 92.5877 166.237 92.2012 162.421 91.2406C155.17 89.1343 147.496 89.3999 140.491 91.9998C140.329 92.0555 140.154 92.0638 139.985 92.0238C139.816 91.9837 139.661 91.8969 139.537 91.7731C139.428 91.6337 139.362 91.466 139.345 91.2904C139.328 91.1149 139.362 90.9391 139.442 90.7847C144.177 81.3552 159.877 66.8911 174.19 71.5916C183.295 74.5869 183.809 80.3918 183.741 82.779C183.489 85.0046 182.595 87.0917 181.173 88.7775C179.75 90.4634 177.861 91.6726 175.745 92.2528ZM143.113 89.2784C149.539 87.773 156.257 87.8891 162.69 89.6169C166.352 90.5428 170.115 90.927 173.864 90.7578C175.907 90.515 177.803 89.5908 179.257 88.1281C180.71 86.6655 181.642 84.7458 181.907 82.6659C182.231 78.5261 179.231 75.0855 173.67 73.2355C160.542 68.9598 147.1 81.7709 142.086 89.6204L143.113 89.2784Z" fill="#455A64"/>
<path d="M140.343 92.2233C140.239 92.2928 140.119 92.3345 139.994 92.3446C139.869 92.3546 139.743 92.3328 139.627 92.281C139.457 92.1314 139.35 91.9205 139.328 91.6936C139.307 91.4667 139.372 91.2419 139.511 91.0675C145.416 83.0367 162.317 77.6578 173.032 80.4633C173.25 80.516 173.442 80.6547 173.564 80.8494C173.685 81.0441 173.728 81.279 173.683 81.5027C173.627 81.73 173.488 81.9247 173.293 82.0461C173.099 82.1676 172.865 82.2063 172.641 82.1544C161.576 79.246 145.921 85.2233 140.887 92.1358C140.718 92.2161 140.53 92.2463 140.343 92.2233Z" fill="#455A64"/>
<path d="M145.661 85.5763C145.427 85.6768 145.165 85.6977 144.915 85.6361C144.717 85.4943 144.572 85.288 144.503 85.052C144.435 84.816 144.448 84.5647 144.54 84.3406C147.347 78.7278 141.269 63.2229 136.52 54.1964C135.043 51.5489 134.18 48.5989 134 45.5787C133.82 42.5584 134.328 39.5502 135.483 36.7907C136.387 35.049 137.712 33.5776 139.334 32.513C140.956 31.4485 142.823 30.8254 144.762 30.7017C146.679 30.5303 148.614 30.9473 150.32 31.8996C152.026 32.8519 153.425 34.2962 154.339 36.0485C159.904 45.3088 158.92 65.6132 146.18 85.3209C146.044 85.4674 145.86 85.558 145.661 85.5763ZM142.842 32.9082C141.609 33.2276 140.463 33.8155 139.481 34.632C138.5 35.4485 137.705 36.4744 137.152 37.6404C136.123 40.1199 135.676 42.8212 135.848 45.5309C136.02 48.2407 136.806 50.8846 138.143 53.2539C138.556 54.076 146.884 69.9563 147.141 80.0699C157.074 62.4688 157.62 45.0216 152.746 36.8604C152.011 35.426 150.879 34.2393 149.494 33.4518C148.109 32.6642 146.534 32.3113 144.969 32.4382C144.243 32.5064 143.528 32.6642 142.842 32.9082Z" fill="#455A64"/>
<path d="M145.63 85.5192C145.427 85.6174 145.196 85.6363 144.977 85.5723C144.757 85.4573 144.587 85.2587 144.502 85.0186C144.418 84.7785 144.427 84.5158 144.527 84.2861C151.311 68.9716 148.15 47.2107 145.804 41.5129C145.702 41.2777 145.693 41.0125 145.778 40.7742C145.864 40.5359 146.036 40.3436 146.259 40.2384C146.371 40.1902 146.491 40.166 146.613 40.1673C146.735 40.1686 146.855 40.1954 146.968 40.2461C147.08 40.2967 147.182 40.3702 147.267 40.4621C147.352 40.554 147.418 40.6624 147.462 40.7808C149.91 46.6838 153.228 69.2426 146.207 85.0884C146.072 85.3002 145.868 85.4532 145.63 85.5192Z" fill="#455A64"/>
<path d="M207.121 65.4687C196.05 64.1562 185.356 60.3741 175.805 54.394C168.724 37.348 166.777 29.8147 167.577 15.748C167.955 12.355 169.085 9.10781 170.883 6.24917C171.616 5.22463 172.7 4.51696 173.927 4.26062C175.155 4.00429 176.442 4.21714 177.542 4.85876C178.986 6.21748 179.911 8.04945 180.148 10.0201L184.168 27.2673C183.841 20.719 185.163 14.2265 188.009 8.4049C189.068 6.25859 190.907 3.87831 193.237 4.42256C195.568 4.96681 196.686 8.70046 196.538 11.5472C196.236 18.9311 194.738 26.1904 192.106 33.0341C197.823 27.7989 204.331 23.5255 211.393 20.3701C212.061 19.9575 212.817 19.7102 213.602 19.6476C214.387 19.585 215.179 19.7088 215.915 20.0093C218.248 21.4554 217.123 25.1103 215.561 27.2967C211.977 32.364 207.426 36.6397 202.172 39.8766C210.04 37.2239 218.433 36.4367 226.717 37.5746C227.366 37.5892 228.009 37.7355 228.608 38.0049C229.206 38.2744 229.747 38.6615 230.201 39.1436C231.753 41.2533 229.579 44.0899 227.387 45.4246C221.495 48.928 214.872 51.0131 208.017 51.5232C212.314 52.3401 222.43 55.3128 222.486 58.9595C222.541 62.6061 214.302 66.442 207.121 65.4687Z" fill="#82655D"/>
<path opacity="0.15" d="M207.121 65.4687C196.05 64.1562 185.356 60.3741 175.805 54.394C168.724 37.348 166.777 29.8147 167.577 15.748C167.955 12.355 169.085 9.10781 170.883 6.24917C171.616 5.22463 172.7 4.51696 173.927 4.26062C175.155 4.00429 176.442 4.21714 177.542 4.85876C178.986 6.21748 179.911 8.04945 180.148 10.0201L184.168 27.2673C183.841 20.719 185.163 14.2265 188.009 8.4049C189.068 6.25859 190.907 3.87831 193.237 4.42256C195.568 4.96681 196.686 8.70046 196.538 11.5472C196.236 18.9311 194.738 26.1904 192.106 33.0341C197.823 27.7989 204.331 23.5255 211.393 20.3701C212.061 19.9575 212.817 19.7102 213.602 19.6476C214.387 19.585 215.179 19.7088 215.915 20.0093C218.248 21.4554 217.123 25.1103 215.561 27.2967C211.977 32.364 207.426 36.6397 202.172 39.8766C210.04 37.2239 218.433 36.4367 226.717 37.5746C227.366 37.5892 228.009 37.7355 228.608 38.0049C229.206 38.2744 229.747 38.6615 230.201 39.1436C231.753 41.2533 229.579 44.0899 227.387 45.4246C221.495 48.928 214.872 51.0131 208.017 51.5232C212.314 52.3401 222.43 55.3128 222.486 58.9595C222.541 62.6061 214.302 66.442 207.121 65.4687Z" fill="black"/>
<path d="M191.709 460.12C172.84 452.9 157.492 440.099 147.919 423.597C139.978 410.697 134.809 396.366 132.668 381.316C132.279 378.478 132.09 375.605 132.101 372.714C132.297 370.929 132.271 369.146 132.025 367.4C132.014 366.67 130.364 366.084 129.709 366.873C126.658 370.675 127.543 376.73 128.003 380.913C128.848 388.086 130.434 395.113 132.741 401.902C137.72 418.405 147.308 433.12 160.602 444.658C169.521 451.885 179.93 457.451 191.324 461.088C191.811 461.045 191.757 460.359 191.312 460.236L191.709 460.12Z" fill="#455A64"/>
<path d="M161.65 452.24C155.008 469.994 154.594 488.673 160.466 505.679C170.119 534.983 183.498 546.669 197.867 545.415C201.789 545.219 205.652 543.942 208.918 541.762C212.184 539.583 214.692 536.609 216.093 533.253C216.093 533.253 231.326 537.073 237.369 530.532C243.413 523.991 240.704 509.999 240.704 509.999C240.704 509.999 249.603 511.542 253.132 509.78C256.662 508.018 263.6 481.079 250.074 468.384C236.548 455.69 191.812 439.547 161.65 452.24Z" fill="#AE7864"/>
<path opacity="0.25" d="M161.65 452.24C155.008 469.994 154.594 488.673 160.466 505.679C170.119 534.983 183.498 546.669 197.867 545.415C201.789 545.219 205.652 543.942 208.918 541.762C212.184 539.583 214.692 536.609 216.093 533.253C216.093 533.253 231.326 537.073 237.369 530.532C243.413 523.991 240.704 509.999 240.704 509.999C240.704 509.999 249.603 511.542 253.132 509.78C256.662 508.018 263.6 481.079 250.074 468.384C236.548 455.69 191.812 439.547 161.65 452.24Z" fill="black"/>
<path d="M166.276 448.665C184.255 443.137 203.19 441.084 221.527 442.674C253.272 445.104 264.373 451.612 266.542 464.187C268.712 476.763 257.908 481.075 244.935 472.812C244.935 472.812 244.087 479.8 239.037 481.873C236.431 482.75 233.666 483.134 230.962 482.994C228.257 482.854 225.688 482.194 223.456 481.066C221.276 479.444 199.029 450.579 166.276 448.665Z" fill="#AE7864"/>
<path opacity="0.15" d="M166.276 448.665C184.255 443.137 203.19 441.084 221.527 442.674C253.272 445.104 264.373 451.612 266.542 464.187C268.712 476.763 257.908 481.075 244.935 472.812C244.935 472.812 244.087 479.8 239.037 481.873C236.431 482.75 233.666 483.134 230.962 482.994C228.257 482.854 225.688 482.194 223.456 481.066C221.276 479.444 199.029 450.579 166.276 448.665Z" fill="black"/>
<path d="M158.991 457.462C150.696 469.708 145.213 483.26 142.918 497.192C140.433 517.858 144.845 534.482 157.155 527.961C157.155 527.961 157.634 536.303 164.911 537.013C172.189 537.723 187.478 519.858 186.56 502.804C185.643 485.749 158.991 457.462 158.991 457.462Z" fill="#AE7864"/>
<path opacity="0.15" d="M158.991 457.462C150.696 469.708 145.213 483.26 142.918 497.192C140.433 517.858 144.845 534.482 157.155 527.961C157.155 527.961 157.634 536.303 164.911 537.013C172.189 537.723 187.478 519.858 186.56 502.804C185.643 485.749 158.991 457.462 158.991 457.462Z" fill="black"/>
<path d="M166.201 447.547C183.66 444.351 206.906 452.396 218.071 460.388C231.523 470.084 239.261 487.662 233.826 500.004C228.391 512.346 212.774 517.047 212.774 517.047C212.774 517.047 209.9 528.212 194.011 529.166C183.093 529.844 169.233 509.35 162.684 490.953C156.136 472.557 159.473 456.073 166.201 447.547Z" fill="#AE7864"/>
<path d="M150.628 437.745C155.821 438.633 161.48 437.652 175.574 434.654C189.668 431.655 202.318 430.113 203.647 437.54C204.976 444.966 181.585 444.687 181.585 444.687C181.585 444.687 194.306 456.545 187.604 462.87C178.844 471.238 164.574 455.705 164.574 455.705C164.574 455.705 164.252 473.328 155.937 474.345C147.621 475.363 145.757 467.602 148.215 458.251C150.673 448.9 152.802 441.71 150.628 437.745Z" fill="#455A64"/>
<path d="M157.529 346.394C142.986 334.655 114.744 304.166 130.203 301.008C186.377 289.534 223.662 222.74 239.007 174.156C244.416 157.03 263.267 167.799 277.051 177.673C293.388 189.376 319.784 223.416 303.758 230.145C243.344 255.514 236.692 298.948 195.957 357.091C186.48 370.618 171.103 357.35 157.529 346.394Z" stroke="black" stroke-width="2" stroke-miterlimit="10"/>
</svg>
