<svg width="307" height="559" viewBox="0 0 307 559" fill="none" xmlns="http://www.w3.org/2000/svg">
<path d="M14.2846 342.76C15.202 343.929 15.7532 345.335 15.8689 346.803C15.9845 348.27 15.6593 349.731 14.9343 351.003C14.2093 352.275 13.1171 353.3 11.7954 353.948C10.4738 354.596 8.98206 354.839 7.50859 354.646C6.03512 354.453 4.64597 353.832 3.51655 352.863C2.38712 351.893 1.56806 350.617 1.16279 349.198C0.757514 347.778 0.784201 346.277 1.23947 344.885C1.69474 343.492 2.55818 342.271 3.72077 341.375C4.49286 340.773 5.38042 340.33 6.33181 340.074C7.2832 339.817 8.27943 339.751 9.2625 339.88C10.2456 340.009 11.1958 340.33 12.058 340.825C12.9202 341.319 13.6771 341.977 14.2846 342.76Z" fill="#B16668"/>
<path d="M30.8705 376.106C31.7879 377.275 32.3392 378.681 32.4548 380.148C32.5705 381.616 32.2452 383.077 31.5202 384.349C30.7952 385.621 29.703 386.646 28.3814 387.294C27.0597 387.942 25.568 388.185 24.0945 387.992C22.6211 387.799 21.2319 387.178 20.1025 386.208C18.9731 385.239 18.154 383.963 17.7487 382.543C17.3435 381.123 17.3701 379.622 17.8254 378.23C18.2807 376.838 19.1441 375.617 20.3067 374.721C21.0788 374.118 21.9664 373.676 22.9178 373.42C23.8691 373.163 24.8654 373.097 25.8484 373.226C26.8315 373.355 27.7818 373.676 28.644 374.17C29.5061 374.665 30.263 375.323 30.8705 376.106Z" fill="#B16668"/>
<path d="M41.8841 340.113C42.678 341.082 43.1642 342.261 43.28 343.497C43.3958 344.732 43.1359 345.969 42.5339 347.046C41.9319 348.124 41.0153 348.993 39.9022 349.543C38.7891 350.092 37.5305 350.296 36.2887 350.128C35.0469 349.96 33.8786 349.429 32.9346 348.602C31.9905 347.774 31.3139 346.69 30.9918 345.488C30.6698 344.285 30.7171 343.02 31.1277 341.855C31.5383 340.691 32.2933 339.68 33.2955 338.953C34.5864 338.016 36.1993 337.614 37.7989 337.83C39.3984 338.046 40.8616 338.864 41.8841 340.113Z" fill="#B16668"/>
<path d="M65.5993 351.622C66.3792 352.587 66.8538 353.757 66.9624 354.981C67.0709 356.206 66.8085 357.429 66.2087 358.494C65.6089 359.559 64.699 360.418 63.5957 360.96C62.4924 361.502 61.2459 361.703 60.0161 361.537C58.7862 361.371 57.6289 360.845 56.6926 360.027C55.7563 359.21 55.0836 358.138 54.7607 356.948C54.4378 355.758 54.4794 354.505 54.8803 353.349C55.2811 352.194 56.0229 351.188 57.0105 350.462C58.2936 349.504 59.912 349.09 61.518 349.307C63.124 349.523 64.5894 350.355 65.5993 351.622Z" fill="#B16668"/>
<path d="M72.5776 327.749C73.3715 328.718 73.8576 329.897 73.9734 331.133C74.0892 332.369 73.8294 333.605 73.2273 334.683C72.6253 335.76 71.7087 336.63 70.5956 337.179C69.4825 337.728 68.2239 337.932 66.982 337.764C65.7402 337.597 64.5719 337.065 63.6278 336.238C62.6838 335.411 62.0071 334.326 61.6851 333.124C61.363 331.921 61.4104 330.656 61.821 329.492C62.2316 328.327 62.9866 327.316 63.9888 326.589C65.2759 325.642 66.8915 325.234 68.4943 325.45C70.097 325.667 71.5613 326.491 72.5776 327.749Z" fill="#B16668"/>
<path d="M130.125 190.465C129.878 190.539 129.611 190.516 129.376 190.401C129.141 190.285 128.954 190.085 128.853 189.839C110.384 143.71 126.348 91.6592 169.511 57.2794C169.73 57.1113 170.006 57.0364 170.281 57.07C170.556 57.1036 170.811 57.2433 170.992 57.4603C171.158 57.6927 171.23 57.9796 171.195 58.2612C171.159 58.5428 171.019 58.7976 170.802 58.9726C128.379 92.7799 112.695 143.824 130.784 189.043C130.889 189.313 130.887 189.611 130.78 189.876C130.672 190.14 130.467 190.349 130.208 190.458L130.125 190.465Z" fill="#455A64"/>
<path d="M175.743 92.2801C175.187 92.3672 174.625 92.4122 174.061 92.4146C170.157 92.6143 166.235 92.2274 162.42 91.2661C155.169 89.1584 147.496 89.4231 140.491 92.0227C140.329 92.0784 140.154 92.0866 139.985 92.0466C139.817 92.0065 139.662 91.9197 139.537 91.7958C139.429 91.6564 139.362 91.4886 139.345 91.313C139.329 91.1374 139.362 90.9616 139.442 90.8072C144.176 81.3764 159.872 66.9112 174.185 71.6144C183.29 74.6115 183.805 80.4177 183.737 82.8053C183.486 85.0313 182.592 87.1188 181.17 88.8048C179.747 90.4908 177.859 91.7 175.743 92.2801ZM143.113 89.301C149.538 87.7961 156.255 87.9131 162.688 89.642C166.35 90.5685 170.113 90.9534 173.862 90.7846C175.905 90.542 177.8 89.6178 179.254 88.155C180.707 86.6922 181.639 84.7723 181.903 82.692C182.227 78.5514 179.226 75.1097 173.665 73.2586C160.537 68.9804 147.098 81.7925 142.086 89.643L143.113 89.301Z" fill="#455A64"/>
<path d="M140.343 92.2468C140.238 92.3163 140.118 92.358 139.993 92.3681C139.868 92.3781 139.742 92.3562 139.626 92.3044C139.456 92.1547 139.349 91.9438 139.327 91.7168C139.306 91.4899 139.372 91.265 139.511 91.0905C145.413 83.058 162.314 77.6794 173.028 80.4871C173.247 80.5398 173.438 80.6787 173.56 80.8735C173.682 81.0682 173.725 81.3031 173.679 81.5269C173.624 81.7543 173.484 81.949 173.29 82.0705C173.096 82.1919 172.862 82.2307 172.637 82.1787C161.573 79.268 145.919 85.2453 140.886 92.1593C140.718 92.2396 140.529 92.2699 140.343 92.2468Z" fill="#455A64"/>
<path d="M145.665 85.6007C145.431 85.7011 145.169 85.722 144.919 85.6604C144.721 85.5186 144.576 85.3122 144.508 85.0762C144.439 84.8402 144.452 84.5889 144.545 84.3648C147.349 78.7522 141.27 63.2459 136.522 54.2184C135.044 51.5706 134.181 48.6204 134.001 45.6C133.821 42.5796 134.328 39.5713 135.483 36.8119C136.386 35.0703 137.71 33.5989 139.331 32.5345C140.953 31.4702 142.819 30.8473 144.757 30.7238C146.674 30.5527 148.609 30.9699 150.314 31.9225C152.02 32.875 153.419 34.3195 154.333 36.072C159.897 45.3334 158.917 65.6385 146.184 85.3453C146.048 85.4918 145.864 85.5824 145.665 85.6007ZM142.838 32.9301C141.606 33.2494 140.46 33.8372 139.479 34.6536C138.498 35.47 137.704 36.4959 137.151 37.6618C136.122 40.1413 135.676 42.8426 135.849 45.5525C136.021 48.2624 136.807 50.9065 138.144 53.276C138.557 54.0982 146.885 69.9802 147.143 80.0943C157.071 62.4936 157.614 45.0458 152.74 36.8838C152.005 35.4492 150.874 34.2623 149.489 33.4746C148.104 32.6868 146.529 32.3337 144.965 32.4605C144.239 32.5285 143.525 32.6862 142.838 32.9301Z" fill="#455A64"/>
<path d="M145.632 85.5428C145.429 85.641 145.197 85.6598 144.979 85.5958C144.758 85.4807 144.588 85.2821 144.504 85.042C144.42 84.8019 144.429 84.5392 144.529 84.3095C151.306 68.9956 148.144 47.2342 145.798 41.536C145.696 41.3008 145.687 41.0356 145.772 40.7973C145.858 40.559 146.03 40.3667 146.253 40.2616C146.364 40.2133 146.485 40.1891 146.606 40.1905C146.728 40.1918 146.848 40.2186 146.961 40.2693C147.073 40.32 147.175 40.3935 147.26 40.4854C147.345 40.5773 147.411 40.6857 147.455 40.8041C149.903 46.7074 153.222 69.2669 146.208 85.1121C146.073 85.3239 145.869 85.4768 145.632 85.5428Z" fill="#455A64"/>
<path d="M207.122 65.4962C196.053 64.1822 185.36 60.3984 175.809 54.4165C168.727 37.368 166.778 29.8337 167.576 15.7657C167.954 12.3724 169.083 9.125 170.88 6.2663C171.613 5.24175 172.696 4.53414 173.924 4.27793C175.151 4.02172 176.437 4.23476 177.538 4.87658C178.982 6.23561 179.907 8.06788 180.144 10.0387L184.166 27.2882C183.838 20.7392 185.159 14.2462 188.004 8.42437C189.063 6.27797 190.9 3.89768 193.231 4.44227C195.561 4.98687 196.68 8.72103 196.532 11.5681C196.231 18.9526 194.735 26.2125 192.104 33.0565C197.819 27.8216 204.326 23.5485 211.387 20.3937C212.055 19.9811 212.811 19.7339 213.595 19.6713C214.38 19.6088 215.172 19.7327 215.908 20.0334C218.241 21.4799 217.116 25.1351 215.555 27.3215C211.972 32.3889 207.423 36.6644 202.17 39.901C210.036 37.2489 218.428 36.4627 226.711 37.6017C227.361 37.6164 228.003 37.7628 228.602 38.0324C229.2 38.3019 229.741 38.6891 230.195 39.1714C231.748 41.2814 229.574 44.1181 227.382 45.4526C221.491 48.9556 214.87 51.0401 208.016 51.5495C212.313 52.3669 222.428 55.3412 222.484 58.9882C222.539 62.6353 214.303 66.4705 207.122 65.4962Z" fill="#82655D"/>
<path opacity="0.15" d="M207.122 65.4962C196.053 64.1822 185.36 60.3984 175.809 54.4165C168.727 37.368 166.778 29.8337 167.576 15.7657C167.954 12.3724 169.083 9.125 170.88 6.2663C171.613 5.24175 172.696 4.53414 173.924 4.27793C175.151 4.02172 176.437 4.23476 177.538 4.87658C178.982 6.23561 179.907 8.06788 180.144 10.0387L184.166 27.2882C183.838 20.7392 185.159 14.2462 188.004 8.42437C189.063 6.27797 190.9 3.89768 193.231 4.44227C195.561 4.98687 196.68 8.72103 196.532 11.5681C196.231 18.9526 194.735 26.2125 192.104 33.0565C197.819 27.8216 204.326 23.5485 211.387 20.3937C212.055 19.9811 212.811 19.7339 213.595 19.6713C214.38 19.6088 215.172 19.7327 215.908 20.0334C218.241 21.4799 217.116 25.1351 215.555 27.3215C211.972 32.3889 207.423 36.6644 202.17 39.901C210.036 37.2489 218.428 36.4627 226.711 37.6017C227.361 37.6164 228.003 37.7628 228.602 38.0324C229.2 38.3019 229.741 38.6891 230.195 39.1714C231.748 41.2814 229.574 44.1181 227.382 45.4526C221.491 48.9556 214.87 51.0401 208.016 51.5495C212.313 52.3669 222.428 55.3412 222.484 58.9882C222.539 62.6353 214.303 66.4705 207.122 65.4962Z" fill="black"/>
<path d="M191.707 460.156C172.837 452.931 157.49 440.126 147.916 423.619C139.975 410.715 134.806 396.381 132.666 381.329C132.277 378.491 132.088 375.617 132.099 372.726C132.295 370.941 132.269 369.158 132.023 367.412C132.012 366.681 130.362 366.095 129.708 366.884C126.656 370.685 127.541 376.741 128.001 380.926C128.846 388.099 130.432 395.127 132.739 401.918C137.718 418.425 147.306 433.143 160.599 444.686C169.518 451.915 179.928 457.485 191.322 461.124C191.809 461.081 191.755 460.395 191.31 460.272L191.707 460.156Z" fill="#455A64"/>
<path d="M161.648 452.245C155.006 470.001 154.592 488.684 160.464 505.694C170.116 535.006 183.495 546.697 197.865 545.446C201.787 545.25 205.649 543.974 208.915 541.795C212.181 539.616 214.689 536.641 216.091 533.285C216.091 533.285 231.324 537.109 237.367 530.568C243.411 524.028 240.702 510.033 240.702 510.033C240.702 510.033 249.601 511.577 253.131 509.816C256.66 508.054 263.598 481.111 250.073 468.411C236.547 455.711 191.81 439.556 161.648 452.245Z" fill="#AE7864"/>
<path opacity="0.25" d="M161.648 452.245C155.006 470.001 154.592 488.684 160.464 505.694C170.116 535.006 183.495 546.697 197.865 545.446C201.787 545.25 205.649 543.974 208.915 541.795C212.181 539.616 214.689 536.641 216.091 533.285C216.091 533.285 231.324 537.109 237.367 530.568C243.411 524.028 240.702 510.033 240.702 510.033C240.702 510.033 249.601 511.577 253.131 509.816C256.66 508.054 263.598 481.111 250.073 468.411C236.547 455.711 191.81 439.556 161.648 452.245Z" fill="black"/>
<path d="M166.274 448.671C184.253 443.145 203.188 441.095 221.525 442.69C253.27 445.127 264.371 451.64 266.541 464.222C268.71 476.803 257.906 481.115 244.933 472.845C244.933 472.845 244.085 479.836 239.035 481.909C236.428 482.786 233.664 483.169 230.959 483.028C228.255 482.888 225.685 482.227 223.454 481.098C221.274 479.475 199.028 450.594 166.274 448.671Z" fill="#AE7864"/>
<path opacity="0.15" d="M166.274 448.671C184.253 443.145 203.188 441.095 221.525 442.69C253.27 445.127 264.371 451.64 266.541 464.222C268.71 476.803 257.906 481.115 244.933 472.845C244.933 472.845 244.085 479.836 239.035 481.909C236.428 482.786 233.664 483.169 230.959 483.028C228.255 482.888 225.685 482.227 223.454 481.098C221.274 479.475 199.028 450.594 166.274 448.671Z" fill="black"/>
<path d="M158.989 457.478C150.694 469.725 145.211 483.277 142.916 497.21C140.43 517.877 144.842 534.504 157.153 527.985C157.153 527.985 157.631 536.328 164.909 537.039C172.187 537.751 187.476 519.887 186.559 502.831C185.642 485.775 158.989 457.478 158.989 457.478Z" fill="#AE7864"/>
<path opacity="0.15" d="M158.989 457.478C150.694 469.725 145.211 483.277 142.916 497.21C140.43 517.877 144.842 534.504 157.153 527.985C157.153 527.985 157.631 536.328 164.909 537.039C172.187 537.751 187.476 519.887 186.559 502.831C185.642 485.775 158.989 457.478 158.989 457.478Z" fill="black"/>
<path d="M166.199 447.557C183.658 444.365 206.905 452.416 218.07 460.412C231.522 470.112 239.259 487.695 233.824 500.038C228.389 512.381 212.771 517.079 212.771 517.079C212.771 517.079 209.897 528.246 194.008 529.197C183.09 529.873 169.23 509.372 162.682 490.97C156.133 472.569 159.471 456.083 166.199 447.557Z" fill="#AE7864"/>
<path d="M150.626 437.759C155.82 438.648 161.478 437.668 175.572 434.672C189.667 431.675 202.317 430.136 203.646 437.565C204.974 444.994 181.583 444.71 181.583 444.71C181.583 444.71 194.304 456.573 187.602 462.899C178.842 471.267 164.572 455.727 164.572 455.727C164.572 455.727 164.25 473.354 155.934 474.37C147.619 475.387 145.755 467.623 148.213 458.27C150.67 448.917 152.8 441.725 150.626 437.759Z" fill="#455A64"/>
<path d="M158.927 297.199C157.791 304.42 138.874 308.714 140.462 320.816C145.858 361.936 244.611 321.377 267.232 351.785C275.259 362.565 231 381.512 260.082 386.277" stroke="black" stroke-width="2" stroke-miterlimit="10"/>
<path d="M187.049 316.099C170.884 336.345 134.746 267.372 155.406 253.737C191.093 230.223 254.878 144.05 281.414 154.826C301.232 162.848 302.994 182.776 302.148 187.684C293.14 238.791 224.717 268.958 187.049 316.099Z" stroke="black" stroke-width="2" stroke-miterlimit="10"/>
<path d="M164.958 307.615C205.099 279.469 265.224 220.228 295.469 181.777" stroke="black" stroke-width="2" stroke-miterlimit="10"/>
<path d="M159.481 290.122C186.274 268.65 238.222 218.572 288.676 172.726" stroke="black" stroke-width="2" stroke-miterlimit="10"/>
<path d="M152.18 278.038C197.381 230.559 230.477 196.065 278.291 163.985" stroke="black" stroke-width="2" stroke-miterlimit="10"/>
</svg>
