<svg width="349" height="251" viewBox="0 0 349 251" fill="none" xmlns="http://www.w3.org/2000/svg">
<path d="M339.22 9.83113C345.628 6.97788 348.079 43.175 348.079 43.175C348.079 43.175 226.032 156.858 196.23 238.147C191.284 251.574 150.903 247.043 148.882 235.574C135.12 157.361 0 48.3221 0 48.3221C0 48.3221 4.81651 -7.62406 11.8263 0.879749C55.2179 53.4691 250.459 49.6088 339.22 9.88708V9.83113Z" fill="#8B4E96"/>
<path d="M196.409 245.047C192.797 251.45 154.453 253.779 149.281 241.555C144.108 229.331 148.131 225.256 133.188 197.897C118.244 170.538 143.762 146.843 161.925 154.822C174.178 160.204 166.619 176.929 176.293 186.255C188.912 198.421 234.917 174.613 219.399 197.897C203.88 221.181 200.021 238.644 196.409 245.047Z" fill="#C95353"/>
</svg>
