<svg width="143" height="144" viewBox="0 0 143 144" fill="none" xmlns="http://www.w3.org/2000/svg">
<path d="M40.1213 120.547C31.0905 113.153 65.1255 92.3677 57.377 87.0486C32.5414 69.9869 54.7302 26.8644 60.1143 13.6987C60.6701 12.3157 55.7404 7.80769 57.4763 4.71145C58.6148 2.69246 61.4633 1.91222 62.5629 1.99969C67.2133 2.3888 139.387 43.3301 139.387 43.3301C139.242 44.5295 141.399 51.4415 134.632 52.1978C131.495 52.5413 127.885 50.6718 127.488 51.6662C125.324 57.1824 99.6103 93.2102 66.8485 94.2515C58.7508 94.5137 63.6248 109.699 47.6272 121.436C44.5401 123.697 40.2896 120.684 40.1213 120.547V120.547Z" stroke="#1D1D1B" stroke-width="2" stroke-miterlimit="10"/>
<path d="M69.6701 83.8126C72.666 81.7871 93.9683 82.934 99.8478 68.9441" stroke="#1D1D1B" stroke-width="2" stroke-miterlimit="10"/>
</svg>
