<svg width="420" height="533" viewBox="0 0 420 533" fill="none" xmlns="http://www.w3.org/2000/svg">
<path d="M128.113 394.077C104.681 374.821 193.121 320.562 173.014 306.713C108.566 262.291 166.304 149.83 180.321 115.498C181.768 111.891 168.978 100.15 173.495 92.0752C176.457 86.8096 183.856 84.7694 186.711 84.995C198.786 85.9992 386.1 192.568 386.1 192.568C385.72 195.695 391.303 213.709 373.73 215.695C365.582 216.597 356.212 211.732 355.178 214.325C349.544 228.71 282.671 322.684 197.591 325.469C176.562 326.171 189.177 365.744 147.602 396.377C139.579 402.277 128.55 394.433 128.113 394.077Z" fill="#8B4E96"/>
<path d="M233.833 227.563C206.089 206.437 166.13 125.343 150.565 189.389C134.999 253.435 140.877 288.94 183.576 316.515C226.274 344.091 282.216 293.019 296.891 283.234C324.425 264.874 260.163 247.612 233.833 227.563Z" fill="#C95353"/>
<path d="M233.833 227.563C206.089 206.437 166.13 125.343 150.565 189.389C134.999 253.435 140.877 288.94 183.576 316.515C226.274 344.091 282.216 293.019 296.891 283.234C324.425 264.874 260.163 247.612 233.833 227.563Z" fill="#8B4E96" fill-opacity="0.2"/>
</svg>
