<svg width="473" height="600" viewBox="0 0 473 600" fill="none" xmlns="http://www.w3.org/2000/svg">
<path d="M144.758 443.109C118.416 421.462 217.84 360.465 195.235 344.896C122.783 294.956 187.691 168.528 203.45 129.932C205.076 125.877 190.698 112.678 195.776 103.6C199.105 97.6807 207.424 95.3872 210.634 95.6408C224.208 96.7697 434.785 216.574 434.785 216.574C434.359 220.089 440.635 240.34 420.879 242.573C411.72 243.588 401.186 238.118 400.023 241.033C393.69 257.204 318.511 362.849 222.864 365.981C199.223 366.77 213.406 411.258 166.668 445.696C157.648 452.328 145.249 443.509 144.758 443.109Z" fill="#8B4E96"/>
<path d="M231.162 335.412C239.913 329.47 302.093 332.778 319.298 291.768" stroke="white" stroke-miterlimit="10"/>
<path d="M263.611 255.915C232.421 232.165 187.5 141 170.001 213C152.502 285 159.11 324.914 207.112 355.915C255.114 386.915 318.003 329.5 334.5 318.5C365.454 297.86 293.211 278.454 263.611 255.915Z" fill="#C95353"/>
<path d="M263.611 255.915C232.421 232.165 187.5 141 170.001 213C152.502 285 159.11 324.914 207.112 355.915C255.114 386.915 318.003 329.5 334.5 318.5C365.454 297.86 293.211 278.454 263.611 255.915Z" fill="#8B4E96" fill-opacity="0.2"/>
</svg>
