<svg width="369" height="468" viewBox="0 0 369 468" fill="none" xmlns="http://www.w3.org/2000/svg">
<path d="M112.492 346.024C91.9173 329.116 169.573 281.474 151.918 269.314C95.328 230.308 146.026 131.56 158.334 101.414C159.604 98.2475 148.374 87.9383 152.34 80.8478C154.941 76.2243 161.438 74.4329 163.945 74.631C174.548 75.5127 339.021 169.087 339.021 169.087C338.687 171.833 343.59 187.65 328.159 189.394C321.005 190.186 312.777 185.914 311.869 188.191C306.922 200.821 248.204 283.337 173.498 285.783C155.033 286.399 166.11 321.147 129.605 348.045C122.56 353.225 112.875 346.337 112.492 346.024Z" fill="#8B4E96"/>
<path d="M179.978 261.907C186.814 257.265 235.38 259.849 248.818 227.818" stroke="white" stroke-miterlimit="10"/>
<path d="M205.322 199.815C180.96 181.265 145.874 110.059 132.207 166.296C118.539 222.532 123.7 253.707 161.192 277.921C198.685 302.134 247.805 257.289 260.69 248.697C284.867 232.576 228.441 217.419 205.322 199.815Z" fill="#C95353"/>
<path d="M205.322 199.815C180.96 181.265 145.874 110.059 132.207 166.296C118.539 222.532 123.7 253.707 161.192 277.921C198.685 302.134 247.805 257.289 260.69 248.697C284.867 232.576 228.441 217.419 205.322 199.815Z" fill="#8B4E96" fill-opacity="0.2"/>
</svg>
