<svg width="407" height="407" viewBox="0 0 407 407" fill="none" xmlns="http://www.w3.org/2000/svg">
<path d="M328.451 117.34C353.272 163.665 364.648 286.446 309.719 315.877C254.79 345.309 139.258 310.105 101.339 276.51C42.601 224.482 68.309 137.22 153.395 112.874C213.859 95.5598 303.695 71.0435 328.49 117.319L328.451 117.34Z" fill="#8B4E96" stroke="#FAFAFA" stroke-miterlimit="10"/>
<path d="M285.805 263.805C292.296 260.327 292.833 248.689 287.005 237.811C281.176 226.933 271.189 220.934 264.697 224.412C258.206 227.89 257.668 239.528 263.497 250.406C269.326 261.285 279.313 267.284 285.805 263.805Z" stroke="#FAFAFA" stroke-miterlimit="10"/>
<path d="M313.575 198.288C321.084 194.264 325.28 187.476 322.949 183.124C320.617 178.773 312.641 178.507 305.132 182.53C297.624 186.553 293.427 193.342 295.759 197.693C298.09 202.045 306.067 202.311 313.575 198.288Z" stroke="#FAFAFA" stroke-miterlimit="10"/>
<path d="M163.766 258.272C168.375 255.803 168.235 246.567 163.454 237.644C158.674 228.721 151.061 223.49 146.453 225.959C141.844 228.429 141.983 237.664 146.764 246.587C151.545 255.51 159.157 260.742 163.766 258.272Z" fill="#C95353"/>
<path d="M194.887 312.582C200.361 309.649 201.773 301.623 198.039 294.655C194.306 287.688 186.842 284.417 181.367 287.351C175.893 290.284 174.482 298.31 178.215 305.278C181.948 312.245 189.412 315.516 194.887 312.582Z" stroke="#FAFAFA" stroke-miterlimit="10"/>
<path d="M224.488 144.679C229.897 141.781 231.926 135.033 229.019 129.608C226.112 124.182 219.37 122.134 213.961 125.032C208.551 127.931 206.523 134.678 209.43 140.104C212.336 145.529 219.078 147.578 224.488 144.679Z" stroke="#FAFAFA" stroke-miterlimit="10"/>
<path d="M115.564 188.343C125.648 182.941 132.59 176.261 131.07 173.425C129.55 170.588 120.144 172.668 110.06 178.071C99.9769 183.474 93.0348 190.153 94.5547 192.99C96.0746 195.826 105.481 193.746 115.564 188.343Z" fill="#C95353"/>
<path d="M321.427 138.302C323.829 137.015 322.475 129.81 318.402 122.209C314.329 114.608 309.081 109.489 306.679 110.776C304.277 112.063 305.632 119.268 309.704 126.869C313.777 134.47 319.026 139.589 321.427 138.302Z" stroke="#FAFAFA" stroke-miterlimit="10"/>
<path d="M205.764 200.575C206.591 195.871 204.925 191.034 202.043 189.771C199.16 188.508 196.153 191.298 195.326 196.002C194.499 200.706 196.165 205.543 199.047 206.806C201.929 208.069 204.936 205.279 205.764 200.575Z" stroke="#FAFAFA" stroke-miterlimit="10"/>
<path d="M271.453 109.114C273.876 107.815 273.807 102.967 271.299 98.2855C268.79 93.6038 264.792 90.8611 262.369 92.1596C259.945 93.4581 260.014 98.3061 262.523 102.988C265.031 107.67 269.029 110.412 271.453 109.114Z" stroke="#FAFAFA" stroke-miterlimit="10"/>
<path d="M92.9938 236.187C95.4172 234.888 95.3483 230.04 92.8397 225.358C90.3312 220.677 86.333 217.934 83.9096 219.232C81.4861 220.531 81.5551 225.379 84.0636 230.061C86.5721 234.742 90.5703 237.485 92.9938 236.187Z" stroke="#FAFAFA" stroke-miterlimit="10"/>
<path d="M312.741 296.299C312.631 291.297 310.165 286.769 307.233 286.185C304.3 285.601 302.012 289.182 302.122 294.184C302.231 299.185 304.698 303.714 307.63 304.298C310.562 304.882 312.851 301.3 312.741 296.299Z" fill="#C95353"/>
<path d="M158.096 152.139C163.57 149.206 164.982 141.18 161.248 134.212C157.515 127.244 150.051 123.974 144.576 126.907C139.102 129.84 137.691 137.867 141.424 144.834C145.157 151.802 152.621 155.072 158.096 152.139Z" stroke="#FAFAFA" stroke-miterlimit="10"/>
<path d="M267.243 199.042C271.852 196.573 271.712 187.337 266.931 178.414C262.15 169.491 254.538 164.26 249.929 166.729C245.32 169.199 245.46 178.434 250.241 187.357C255.022 196.28 262.634 201.512 267.243 199.042Z" fill="#C95353"/>
<path d="M220.366 263.181C227.875 259.158 232.071 252.369 229.74 248.017C227.408 243.666 219.432 243.4 211.923 247.423C204.415 251.446 200.218 258.235 202.55 262.586C204.881 266.938 212.858 267.204 220.366 263.181Z" stroke="#FAFAFA" stroke-miterlimit="10"/>
<path d="M122.184 126.398C80.354 151.246 60.3384 194.683 72.7508 229.912C79.1411 248.049 86.6666 280.614 129.34 268.784C145.844 264.209 94.4684 225.551 181.757 209.209C220.906 201.88 226.398 158.807 210.488 126.398C193.803 92.4111 158.562 104.788 122.184 126.398Z" fill="#C95353"/>
</svg>
