<svg width="118" height="108" viewBox="0 0 118 108" fill="none" xmlns="http://www.w3.org/2000/svg">
<path d="M116.982 38.0033C116.982 59.6414 97.2357 106.411 71.5788 106.411C45.9218 106.411 10.8403 71.1708 3.61167 51.6057C-7.58808 21.3031 18.7094 -5.36592 54.3217 2.34365C79.6309 7.81721 117 16.3886 117 38.0033H116.982Z" stroke="#1D1D1B" stroke-width="2" stroke-miterlimit="10"/>
<path d="M73.0233 82.8635C76.0554 82.8635 78.5134 78.7444 78.5134 73.6632C78.5134 68.5821 76.0554 64.463 73.0233 64.463C69.9912 64.463 67.5332 68.5821 67.5332 73.6632C67.5332 78.7444 69.9912 82.8635 73.0233 82.8635Z" stroke="#1D1D1B" stroke-width="2" stroke-miterlimit="10"/>
<path d="M95.8424 64.4864C99.3495 64.4864 102.193 62.8388 102.193 60.8063C102.193 58.7739 99.3495 57.1262 95.8424 57.1262C92.3353 57.1262 89.4922 58.7739 89.4922 60.8063C89.4922 62.8388 92.3353 64.4864 95.8424 64.4864Z" stroke="#1D1D1B" stroke-width="2" stroke-miterlimit="10"/>
<path d="M29.814 57.1263C31.9667 57.1263 33.7119 53.7476 33.7119 49.5797C33.7119 45.4119 31.9667 42.0332 29.814 42.0332C27.6612 42.0332 25.916 45.4119 25.916 49.5797C25.916 53.7476 27.6612 57.1263 29.814 57.1263Z" stroke="#1D1D1B" stroke-width="2" stroke-miterlimit="10"/>
<path d="M30.546 82.8868C33.103 82.8868 35.1759 80.2485 35.1759 76.994C35.1759 73.7395 33.103 71.1012 30.546 71.1012C27.9889 71.1012 25.916 73.7395 25.916 76.994C25.916 80.2485 27.9889 82.8868 30.546 82.8868Z" stroke="#1D1D1B" stroke-width="2" stroke-miterlimit="10"/>
<path d="M73.9383 27.7089C76.4651 27.7089 78.5134 25.6546 78.5134 23.1205C78.5134 20.5863 76.4651 18.532 73.9383 18.532C71.4116 18.532 69.3633 20.5863 69.3633 23.1205C69.3633 25.6546 71.4116 27.7089 73.9383 27.7089Z" stroke="#1D1D1B" stroke-width="2" stroke-miterlimit="10"/>
<path d="M25.9185 22.3748C30.6284 22.3748 34.4465 21.3007 34.4465 19.9757C34.4465 18.6508 30.6284 17.5767 25.9185 17.5767C21.2087 17.5767 17.3906 18.6508 17.3906 19.9757C17.3906 21.3007 21.2087 22.3748 25.9185 22.3748Z" stroke="#1D1D1B" stroke-width="2" stroke-miterlimit="10"/>
<path d="M110.354 44.2456C111.475 44.2456 112.385 41.3674 112.385 37.8171C112.385 34.2667 111.475 31.3885 110.354 31.3885C109.232 31.3885 108.322 34.2667 108.322 37.8171C108.322 41.3674 109.232 44.2456 110.354 44.2456Z" stroke="#1D1D1B" stroke-width="2" stroke-miterlimit="10"/>
<path d="M56.2703 44.3538C57.4853 42.8075 57.8213 40.7281 57.0209 39.7094C56.2204 38.6906 54.5867 39.1183 53.3717 40.6646C52.1568 42.2109 51.8208 44.2903 52.6212 45.3091C53.4216 46.3278 55.0554 45.9002 56.2703 44.3538Z" stroke="#1D1D1B" stroke-width="2" stroke-miterlimit="10"/>
<path d="M97.8953 23.9352C99.0273 23.9352 99.945 22.1624 99.945 19.9756C99.945 17.7888 99.0273 16.016 97.8953 16.016C96.7634 16.016 95.8457 17.7888 95.8457 19.9756C95.8457 22.1624 96.7634 23.9352 97.8953 23.9352Z" stroke="#1D1D1B" stroke-width="2" stroke-miterlimit="10"/>
<path d="M8.42267 35.3484C9.55465 35.3484 10.4723 33.5756 10.4723 31.3888C10.4723 29.202 9.55465 27.4292 8.42267 27.4292C7.2907 27.4292 6.37305 29.202 6.37305 31.3888C6.37305 33.5756 7.2907 35.3484 8.42267 35.3484Z" stroke="#1D1D1B" stroke-width="2" stroke-miterlimit="10"/>
<path d="M76.485 99.8937C77.4178 98.0572 77.4033 95.9343 76.4527 95.1522C75.502 94.37 73.9752 95.2248 73.0424 97.0613C72.1097 98.8978 72.1242 101.021 73.0748 101.803C74.0255 102.585 75.5523 101.73 76.485 99.8937Z" stroke="#1D1D1B" stroke-width="2" stroke-miterlimit="10"/>
<path d="M48.3936 17.5066C50.9507 17.5066 53.0236 14.8683 53.0236 11.6138C53.0236 8.35925 50.9507 5.72095 48.3936 5.72095C45.8366 5.72095 43.7637 8.35925 43.7637 11.6138C43.7637 14.8683 45.8366 17.5066 48.3936 17.5066Z" stroke="#1D1D1B" stroke-width="2" stroke-miterlimit="10"/>
<path d="M78.8843 55.7521C81.0371 55.7521 82.7822 52.3734 82.7822 48.2056C82.7822 44.0378 81.0371 40.6591 78.8843 40.6591C76.7315 40.6591 74.9863 44.0378 74.9863 48.2056C74.9863 52.3734 76.7315 55.7521 78.8843 55.7521Z" stroke="#1D1D1B" stroke-width="2" stroke-miterlimit="10"/>
<path d="M49.399 69.9133C52.9061 69.9133 55.7492 68.2657 55.7492 66.2332C55.7492 64.2007 52.9061 62.5531 49.399 62.5531C45.8919 62.5531 43.0488 64.2007 43.0488 66.2332C43.0488 68.2657 45.8919 69.9133 49.399 69.9133Z" stroke="#1D1D1B" stroke-width="2" stroke-miterlimit="10"/>
</svg>
