<svg width="459" height="458" viewBox="0 0 459 458" fill="none" xmlns="http://www.w3.org/2000/svg">
<path d="M370.344 132.307C398.332 184.54 411.159 322.982 349.224 356.167C287.288 389.353 157.021 349.659 114.265 311.779C48.0351 253.115 77.022 154.723 172.961 127.271C241.137 107.749 342.431 80.1054 370.389 132.283L370.344 132.307Z" fill="#8B4E96" stroke="#FAFAFA" stroke-miterlimit="10"/>
<path d="M322.26 297.454C329.579 293.532 330.185 280.409 323.613 268.143C317.041 255.878 305.779 249.113 298.46 253.035C291.141 256.957 290.535 270.08 297.107 282.345C303.679 294.611 314.94 301.375 322.26 297.454Z" stroke="#FAFAFA" stroke-miterlimit="10"/>
<path d="M353.572 223.579C362.038 219.043 366.77 211.388 364.141 206.482C361.512 201.576 352.518 201.276 344.052 205.812C335.586 210.348 330.854 218.003 333.483 222.909C336.111 227.815 345.106 228.115 353.572 223.579Z" stroke="#FAFAFA" stroke-miterlimit="10"/>
<path d="M184.656 291.214C189.853 288.43 189.695 278.017 184.305 267.955C178.914 257.894 170.331 251.996 165.134 254.78C159.937 257.565 160.095 267.978 165.486 278.039C170.876 288.1 179.459 293.999 184.656 291.214Z" fill="#C95353"/>
<path d="M219.745 352.452C225.917 349.145 227.509 340.095 223.299 332.238C219.09 324.382 210.674 320.694 204.501 324.002C198.328 327.309 196.737 336.359 200.946 344.215C205.156 352.072 213.572 355.759 219.745 352.452Z" stroke="#FAFAFA" stroke-miterlimit="10"/>
<path d="M253.121 163.133C259.22 159.865 261.508 152.256 258.23 146.139C254.952 140.022 247.351 137.712 241.251 140.98C235.152 144.248 232.864 151.857 236.142 157.974C239.42 164.091 247.021 166.401 253.121 163.133Z" stroke="#FAFAFA" stroke-miterlimit="10"/>
<path d="M130.306 212.366C141.675 206.274 149.503 198.743 147.789 195.545C146.075 192.346 135.469 194.692 124.1 200.784C112.73 206.876 104.903 214.407 106.617 217.605C108.33 220.804 118.936 218.458 130.306 212.366Z" fill="#C95353"/>
<path d="M362.426 155.942C365.134 154.491 363.607 146.367 359.015 137.797C354.422 129.226 348.504 123.455 345.796 124.906C343.088 126.357 344.615 134.481 349.207 143.052C353.8 151.622 359.718 157.394 362.426 155.942Z" stroke="#FAFAFA" stroke-miterlimit="10"/>
<path d="M232.009 226.158C232.941 220.854 231.063 215.4 227.813 213.976C224.563 212.552 221.173 215.698 220.24 221.002C219.307 226.306 221.185 231.76 224.435 233.184C227.685 234.608 231.076 231.463 232.009 226.158Z" stroke="#FAFAFA" stroke-miterlimit="10"/>
<path d="M306.077 123.031C308.81 121.567 308.732 116.101 305.904 110.822C303.075 105.543 298.567 102.45 295.834 103.914C293.102 105.379 293.18 110.845 296.008 116.124C298.837 121.403 303.345 124.495 306.077 123.031Z" stroke="#FAFAFA" stroke-miterlimit="10"/>
<path d="M104.857 266.312C107.589 264.848 107.511 259.381 104.683 254.102C101.854 248.824 97.3463 245.731 94.6138 247.195C91.8812 248.659 91.959 254.126 94.7875 259.405C97.616 264.684 102.124 267.776 104.857 266.312Z" stroke="#FAFAFA" stroke-miterlimit="10"/>
<path d="M352.631 334.091C352.507 328.452 349.726 323.346 346.42 322.687C343.113 322.029 340.533 326.067 340.657 331.707C340.781 337.347 343.561 342.452 346.868 343.111C350.174 343.769 352.754 339.731 352.631 334.091Z" fill="#C95353"/>
<path d="M178.262 171.544C184.435 168.237 186.026 159.187 181.817 151.331C177.608 143.474 169.191 139.787 163.018 143.094C156.846 146.401 155.254 155.451 159.464 163.308C163.673 171.164 172.09 174.852 178.262 171.544Z" stroke="#FAFAFA" stroke-miterlimit="10"/>
<path d="M301.33 224.43C306.527 221.645 306.369 211.232 300.978 201.171C295.588 191.11 287.005 185.211 281.808 187.995C276.611 190.78 276.769 201.193 282.159 211.254C287.55 221.315 296.133 227.214 301.33 224.43Z" fill="#C95353"/>
<path d="M248.474 296.749C256.94 292.213 261.672 284.558 259.043 279.652C256.415 274.746 247.42 274.446 238.954 278.982C230.488 283.518 225.756 291.173 228.385 296.079C231.014 300.985 240.008 301.285 248.474 296.749Z" stroke="#FAFAFA" stroke-miterlimit="10"/>
<path d="M137.77 142.52C90.6046 170.538 68.0361 219.515 82.0317 259.237C89.2371 279.688 97.7224 316.406 145.839 303.067C164.447 297.908 106.519 254.32 204.942 235.894C249.084 227.63 255.276 179.062 237.337 142.52C218.524 104.198 178.788 118.153 137.77 142.52Z" fill="#C95353"/>
</svg>
