<svg width="232" height="339" viewBox="0 0 232 339" fill="none" xmlns="http://www.w3.org/2000/svg">
<path d="M197.413 124.385C198.67 120.653 191.161 109.357 191.442 97.2184C192.208 66.6682 204.243 48.8826 204.028 39.3672C203.898 34.5283 188.422 33.6217 188.422 33.6217C182.577 49.6917 175.187 92.3679 175.187 92.3679L105.047 72.5275C105.047 72.5275 130.714 24.5672 127.081 12.5968C127.081 12.5968 116.193 6.23034 112.262 9.80792C104.516 16.8983 109.049 39.9247 87.9463 66.8311C75.1684 83.1085 74.6065 75.7163 70.6244 86.5031C58.6479 118.805 46.8933 201.695 22.4601 223.451C11.2767 233.425 62.5309 228.925 55.2469 305.628C54.7362 311.018 84.7102 321.545 86.425 318.197C123.449 244.332 170.17 281.728 164.37 264.707C152.692 230.444 184.429 162.621 197.382 124.326L197.413 124.385Z" fill="#8B4E96"/>
<path d="M79.97 283.771C73.8213 287.39 57.8542 278.954 56.6095 288.003C55.7792 294.039 55.5884 297.732 54.0954 303.713C52.6211 309.62 84.5007 322.982 86.8805 317.338C90.7743 308.103 90.7311 309.981 92.7422 305.874C96.429 298.345 88.1919 278.932 79.97 283.771Z" fill="#C95353"/>
</svg>
