<svg width="267" height="389" viewBox="0 0 267 389" fill="none" xmlns="http://www.w3.org/2000/svg">
<path d="M226.715 142.848C228.158 138.562 219.535 125.589 219.859 111.649C220.738 76.5642 234.559 56.1385 234.313 45.2108C234.163 39.6536 216.389 38.6124 216.389 38.6124C209.677 57.0677 201.19 106.079 201.19 106.079L120.639 83.2933C120.639 83.2933 150.116 28.2139 145.943 14.4666C145.943 14.4666 133.439 7.15516 128.925 11.2638C120.029 19.4067 125.235 45.851 101 76.7513C86.3252 95.4449 85.68 86.9554 81.1068 99.3433C67.3524 136.44 53.853 231.634 25.793 256.619C12.9496 268.074 71.8118 262.906 63.4467 350.995C62.8601 357.185 97.2834 369.275 99.2527 365.43C141.772 280.599 195.429 323.547 188.767 303.999C175.356 264.65 211.804 186.76 226.68 142.781L226.715 142.848Z" fill="#8B4E96"/>
<path d="M91.8394 325.894C84.778 330.049 66.4409 320.361 65.0115 330.753C64.0579 337.686 63.8387 341.927 62.1241 348.796C60.431 355.579 97.0427 370.925 99.7758 364.442C104.247 353.837 104.198 355.994 106.508 351.277C110.742 342.631 101.282 320.336 91.8394 325.894Z" fill="#C95353"/>
</svg>
