<svg width="62" height="120" viewBox="0 0 62 120" fill="none" xmlns="http://www.w3.org/2000/svg">
<path d="M56.2267 34.5641C56.2797 33.0625 52.2472 29.7519 51.0091 25.2834C47.9139 14.0308 50.4078 6.21552 49.2758 2.76015C48.6921 1.00533 42.8555 2.36215 42.8555 2.36215C42.4664 8.87489 44.4473 25.2834 44.4473 25.2834L16.2548 25.6814C16.2548 25.6814 20.4642 5.34716 17.7935 1.36714C17.7935 1.36714 13.0535 0.227414 11.9923 1.96415C9.90529 5.40143 14.1324 13.3253 9.28626 25.4643C6.35027 32.8092 5.32445 30.168 5.04146 34.546C4.17481 47.6619 8.98559 79.2487 2.3354 89.8681C-0.706706 94.7346 17.7935 87.4982 23.5771 116.335C23.9839 118.361 36.2584 118.94 36.5237 117.529C42.0773 86.4851 63.5313 95.0602 59.4987 89.4701C51.3805 78.2176 55.643 49.9595 56.209 34.546L56.2267 34.5641Z" stroke="#1D1D1B" stroke-width="2" stroke-miterlimit="10"/>
</svg>
