<svg width="63" height="155" viewBox="0 0 63 155" fill="none" xmlns="http://www.w3.org/2000/svg">
<path d="M57.8123 44.5615C57.8677 42.6127 53.6616 38.316 52.3702 32.5165C49.1418 17.9122 51.743 7.76903 50.5623 3.28443C49.9535 1.00691 43.8658 2.76788 43.8658 2.76788C43.4599 11.2205 45.5261 32.5165 45.5261 32.5165L16.1202 33.0331C16.1202 33.0331 20.5108 6.64201 17.7252 1.4765C17.7252 1.4765 12.7812 -0.00270988 11.6743 2.25133C9.49746 6.71245 13.9065 16.9965 8.85178 32.7513C5.78944 42.284 4.71947 38.856 4.42431 44.538C3.52036 61.5607 8.53817 102.556 1.60179 116.339C-1.57124 122.655 17.7252 113.263 23.7576 150.689C24.1819 153.319 36.9847 154.07 37.2614 152.239C43.0541 111.948 65.4313 123.077 61.2252 115.822C52.7576 101.218 57.2035 64.5426 57.7939 44.538L57.8123 44.5615Z" stroke="#1D1D1B" stroke-width="2" stroke-miterlimit="10"/>
</svg>
