<svg width="354" height="382" viewBox="0 0 354 382" fill="none" xmlns="http://www.w3.org/2000/svg">
<path d="M111.925 152.772C111.925 159.633 127.527 164.419 124.454 175.387C114.012 212.653 32.6888 160.099 8.56611 184.831C0.00750582 193.597 36.3479 217.862 10.0862 217.862" stroke="black" stroke-width="2" stroke-miterlimit="10"/>
<path d="M84.3398 164.419C95.7403 185.551 136.98 127.365 120.722 111.653C92.634 84.5506 48.5192 -4.63466 23.7356 1.29408C5.23049 5.69829 0.934657 23.8233 1.00075 28.4816C1.85991 77.0126 57.7718 115.211 84.3398 164.419Z" stroke="black" stroke-width="2" stroke-miterlimit="10"/>
<path d="M102.327 156.664C71.7087 125.458 28.1483 63.3667 7.40039 24.3597" stroke="black" stroke-width="2" stroke-miterlimit="10"/>
<path d="M112.146 144.65C91.5824 120.771 52.8773 66.675 14.9004 16.7123" stroke="black" stroke-width="2" stroke-miterlimit="10"/>
<path d="M118.325 134.428C85.9548 83.6967 62.217 46.8016 25.5312 9.90637" stroke="black" stroke-width="2" stroke-miterlimit="10"/>
<path d="M157.018 303.439C218.332 381.862 222.329 295.375 241.699 288.692C254.467 284.297 251.169 292.415 259.004 298.119C263.519 301.364 296.885 264.654 303.56 253.207C308.538 244.585 313.742 228.295 303.01 217.591C290.372 204.943 347.624 186.632 301.736 127.94C264.5 80.3138 239.426 130.898 228.984 128.215C216.737 125.071 222.126 114.138 212.58 116.856C194.677 121.9 171.49 160.217 167.241 171.93C164.074 180.587 177.553 186.353 174.583 195.817C163.275 231.933 97.6385 227.553 157.021 303.505L157.018 303.439Z" stroke="black" stroke-width="2" stroke-miterlimit="10"/>
<path d="M172.684 233.019C160.619 250.167 139.753 266.775 162.632 296.286C178.714 317.043 194.678 309.378 199.299 303.772C229.891 266.654 296.756 187.613 298.761 168.251C301.304 143.357 288.824 127.147 270.901 126.947C255.861 126.802 202.49 190.584 172.709 232.989L172.684 233.019Z" stroke="black" stroke-width="2" stroke-miterlimit="10"/>
<path d="M192.941 266.81L192.759 266.653L193.187 265.725C193.485 265.117 193.385 264.599 192.887 264.171L182.509 255.258L181.244 256.859C180.877 257.323 180.736 257.76 180.82 258.169C180.892 258.568 181.045 259.058 181.279 259.638L182.017 261.411L181.869 261.599L178.975 258.956L187.563 248.092L190.59 250.565L190.441 250.754L188.631 250.337C188.049 250.196 187.564 250.127 187.175 250.129C186.773 250.122 186.389 250.35 186.022 250.815L184.757 252.415L195.134 261.328C195.632 261.756 196.139 261.759 196.655 261.338L197.447 260.722L197.629 260.879L192.941 266.81ZM199.71 258.246L199.528 258.09L199.679 257.745C199.804 257.431 199.829 257.168 199.753 256.955C199.686 256.73 199.538 256.518 199.307 256.32L193.609 251.425C193.342 251.196 193.108 251.079 192.907 251.076C192.704 251.049 192.479 251.14 192.232 251.349L191.936 251.569L191.754 251.413L193.258 247.267L193.589 247.236L195.288 248.411L195.434 248.536C195.233 248.068 195.102 247.577 195.041 247.061C194.978 246.522 194.989 246.005 195.075 245.509C195.171 245.002 195.353 244.578 195.621 244.239C195.998 243.762 196.413 243.508 196.866 243.476C197.32 243.443 197.74 243.594 198.129 243.928C198.542 244.282 198.764 244.684 198.796 245.133C198.826 245.559 198.707 245.942 198.439 246.281C198.023 246.808 197.401 247.053 196.573 247.017L196.507 247.024C196.238 247.003 196.033 247.069 195.892 247.222C195.738 247.364 195.692 247.578 195.753 247.862C195.763 248.081 195.812 248.302 195.901 248.526C195.987 248.726 196.097 248.947 196.232 249.19L201.311 253.552C201.797 253.969 202.274 254.01 202.743 253.675L203.383 253.213L203.565 253.37L199.71 258.246ZM210.085 245.701C209.331 246.654 208.488 247.321 207.556 247.701C206.612 248.07 205.635 248.147 204.623 247.932C203.621 247.704 202.647 247.183 201.7 246.37C200.754 245.557 200.093 244.652 199.719 243.657C199.354 242.648 199.262 241.631 199.441 240.605C199.63 239.566 200.077 238.601 200.782 237.71C201.486 236.819 202.304 236.183 203.236 235.804C204.156 235.413 205.121 235.315 206.13 235.507C207.149 235.687 208.138 236.189 209.097 237.012C210.056 237.836 210.734 238.745 211.13 239.738C211.524 240.709 211.638 241.713 211.471 242.749C211.301 243.763 210.839 244.747 210.085 245.701ZM209.721 245.388C210.069 244.948 210.225 244.493 210.191 244.021C210.156 243.549 209.874 242.99 209.344 242.346C208.825 241.688 208 240.875 206.871 239.906C205.73 238.926 204.801 238.233 204.083 237.826C203.374 237.408 202.795 237.226 202.343 237.281C201.892 237.336 201.493 237.583 201.146 238.023C200.799 238.462 200.637 238.924 200.662 239.409C200.696 239.881 200.973 240.445 201.493 241.103C202.023 241.747 202.858 242.559 203.999 243.539C205.128 244.509 206.046 245.203 206.755 245.622C207.473 246.028 208.058 246.203 208.509 246.148C208.97 246.081 209.374 245.827 209.721 245.388ZM218.199 243.75L218.017 243.594L218.123 243.305C218.368 242.736 218.261 242.254 217.799 241.858L207.895 233.351C207.628 233.122 207.388 233 207.175 232.986C206.972 232.959 206.747 233.05 206.5 233.26L206.237 233.476L206.055 233.32L207.529 229.212L207.86 229.18L208.559 229.496C208.643 228.873 208.817 228.253 209.081 227.636C209.354 227.007 209.704 226.423 210.13 225.883C210.984 224.803 212.059 224.294 213.356 224.354C214.651 224.392 216.039 225.046 217.52 226.318C218.976 227.569 219.846 228.906 220.127 230.328C220.419 231.738 220.064 233.076 219.062 234.344C218.278 235.336 217.479 236.051 216.664 236.489L219.814 239.194C220.299 239.611 220.781 239.645 221.26 239.298L221.633 239.018L221.816 239.175L218.199 243.75ZM217.82 234.794C218.316 234.167 218.392 233.4 218.049 232.494C217.715 231.575 216.814 230.485 215.345 229.224C213.877 227.962 212.712 227.257 211.852 227.108C210.979 226.949 210.28 227.202 209.754 227.867C209.387 228.332 209.126 228.971 208.971 229.786L216.308 236.088C216.879 235.778 217.383 235.347 217.82 234.794ZM229.821 220.733C229.146 221.587 228.355 222.214 227.447 222.614C226.537 222.992 225.579 223.096 224.572 222.926C223.562 222.734 222.56 222.21 221.565 221.355C220.582 220.511 219.918 219.572 219.573 218.539C219.226 217.482 219.164 216.427 219.385 215.374C219.604 214.297 220.066 213.314 220.77 212.423C221.346 211.694 221.947 211.178 222.574 210.874C223.202 210.57 223.808 210.448 224.393 210.508C224.965 210.557 225.452 210.753 225.852 211.097C226.192 211.389 226.375 211.725 226.4 212.106C226.414 212.475 226.286 212.83 226.019 213.169C225.731 213.533 225.37 213.718 224.937 213.725C224.503 213.732 224.065 213.577 223.623 213.261C223.346 213.044 223.126 212.845 222.964 212.663C222.79 212.471 222.596 212.304 222.381 212.163C222.135 212.036 221.937 212.003 221.787 212.063C221.635 212.101 221.485 212.214 221.336 212.403C220.731 213.168 220.581 214.041 220.887 215.02C221.203 215.987 222.065 217.075 223.473 218.284C224.699 219.337 225.823 219.913 226.845 220.011C227.866 220.087 228.763 219.635 229.537 218.656C230.003 218.066 230.277 217.5 230.358 216.959C230.44 216.418 230.408 215.801 230.263 215.107L230.558 215.044C231.026 215.973 231.196 216.931 231.069 217.917C230.941 218.903 230.525 219.842 229.821 220.733ZM232.936 216.212L232.754 216.056L232.859 215.767C233.071 215.19 232.946 214.704 232.485 214.308L222.762 205.957C222.508 205.739 222.285 205.621 222.094 205.605C221.903 205.588 221.678 205.679 221.419 205.878L221.123 206.098L220.941 205.942L222.777 201.956L223.179 201.795L225.687 204.075L227.963 206.03C227.958 205.288 228.033 204.562 228.187 203.852C228.339 203.118 228.658 202.444 229.144 201.829C229.789 201.013 230.524 200.559 231.35 200.468C232.186 200.364 233.072 200.714 234.006 201.516L239.141 205.926C239.383 206.134 239.617 206.251 239.842 206.276C240.067 206.3 240.316 206.218 240.587 206.03L240.76 205.926L240.943 206.083L237.46 210.488L237.278 210.332L237.402 210.059C237.613 209.482 237.483 208.99 237.009 208.584L231.292 203.674C230.807 203.257 230.404 203.058 230.083 203.077C229.771 203.084 229.447 203.301 229.11 203.728C228.892 204.004 228.708 204.352 228.559 204.772C228.399 205.182 228.312 205.666 228.299 206.224L234.635 211.665C235.108 212.072 235.59 212.107 236.081 211.769L236.236 211.65L236.418 211.806L232.936 216.212ZM236.229 192.865C236.874 192.049 237.589 191.493 238.373 191.197C239.145 190.891 239.929 190.827 240.725 191.005C241.52 191.16 242.269 191.54 242.973 192.145C243.106 192.26 243.241 192.386 243.377 192.523C243.5 192.651 243.602 192.78 243.681 192.911L239.246 198.522C240.567 199.636 241.702 200.21 242.652 200.246C243.599 200.259 244.44 199.801 245.175 198.872C245.671 198.245 245.975 197.653 246.089 197.097C246.202 196.541 246.205 195.932 246.096 195.27L246.409 195.223C246.769 196.185 246.879 197.154 246.739 198.13C246.61 199.093 246.188 200.027 245.473 200.931C244.769 201.822 243.962 202.456 243.052 202.834C242.13 203.201 241.169 203.282 240.17 203.077C239.17 202.872 238.191 202.358 237.232 201.534C236.237 200.679 235.572 199.729 235.237 198.683C234.891 197.626 234.813 196.59 235.004 195.575C235.206 194.546 235.614 193.643 236.229 192.865ZM236.549 193.234C236.261 193.598 236.122 194.006 236.132 194.457C236.14 194.885 236.358 195.409 236.785 196.029C237.21 196.626 237.909 197.353 238.882 198.21L241.427 194.99C240.203 193.728 239.211 192.96 238.45 192.686C237.688 192.411 237.055 192.594 236.549 193.234ZM249.067 195.804L248.885 195.648L249.036 195.303C249.161 194.989 249.186 194.726 249.11 194.513C249.043 194.287 248.895 194.075 248.664 193.877L242.966 188.983C242.699 188.754 242.465 188.637 242.264 188.633C242.061 188.606 241.836 188.698 241.589 188.907L241.293 189.127L241.111 188.971L242.615 184.825L242.946 184.793L244.645 185.969L244.791 186.094C244.59 185.626 244.459 185.134 244.398 184.618C244.335 184.079 244.347 183.562 244.432 183.067C244.528 182.559 244.71 182.136 244.978 181.797C245.355 181.32 245.77 181.065 246.223 181.033C246.677 181.001 247.098 181.152 247.486 181.485C247.899 181.84 248.121 182.242 248.153 182.691C248.183 183.117 248.064 183.499 247.796 183.838C247.38 184.366 246.758 184.611 245.93 184.575L245.864 184.581C245.595 184.561 245.39 184.627 245.249 184.78C245.095 184.922 245.049 185.135 245.11 185.419C245.12 185.639 245.169 185.86 245.258 186.083C245.344 186.284 245.454 186.505 245.589 186.747L250.668 191.11C251.154 191.527 251.631 191.568 252.1 191.233L252.74 190.771L252.922 190.927L249.067 195.804ZM248.83 170.117C249.198 169.652 249.631 169.413 250.131 169.4C250.618 169.376 251.093 169.562 251.554 169.958C251.93 170.282 252.439 170.888 253.082 171.777C253.712 172.655 254.422 173.613 255.212 174.65L256.811 176.687L256.529 177.045L254.304 175.798C253.211 175.196 252.191 174.657 251.243 174.18C250.283 173.693 249.603 173.277 249.202 172.933C248.741 172.537 248.475 172.087 248.404 171.584C248.321 171.07 248.463 170.581 248.83 170.117ZM261.338 180.859C260.971 181.324 260.512 181.583 259.961 181.636C259.409 181.689 258.915 181.528 258.478 181.153C258.053 180.788 257.813 180.318 257.758 179.744C257.69 179.159 257.84 178.634 258.207 178.17C258.564 177.718 259.024 177.471 259.588 177.428C260.14 177.375 260.628 177.531 261.053 177.895C261.49 178.271 261.736 178.746 261.791 179.32C261.847 179.894 261.696 180.408 261.338 180.859Z" fill="#C95353"/>
</svg>
