<svg width="134" height="169" viewBox="0 0 134 169" fill="none" xmlns="http://www.w3.org/2000/svg">
<path d="M25.8599 135.863C55.9868 174.715 60.7704 127.729 71.2563 122.997C78.1677 119.883 76.1674 124.462 80.1505 127.093C82.4465 128.587 101.284 106.813 105.179 100.239C108.087 95.2901 111.35 86.1826 105.984 81.0163C99.6661 74.909 130.614 61.7015 108.067 32.6245C89.7712 9.02948 74.9067 37.8246 69.4479 36.9773C63.0445 35.9857 66.2412 29.7635 61.0916 31.7848C51.4347 35.546 37.9492 57.6005 35.3337 64.1783C33.3866 69.041 40.3625 71.3795 38.4952 76.6672C31.382 96.8454 -3.31812 98.2705 25.8596 135.898L25.8599 135.863Z" stroke="#1D1D1B" stroke-width="2" stroke-miterlimit="10"/>
<path d="M36.3354 96.8892C29.4026 106.857 17.8152 117.042 29.0512 131.675C36.9493 141.968 45.6595 136.901 48.285 133.603C65.6669 111.767 103.595 65.1703 105.255 54.5863C107.371 40.9808 101.246 32.9382 91.7375 33.8661C83.7584 34.6569 53.4637 72.2245 36.3494 96.8716L36.3354 96.8892Z" stroke="#1D1D1B" stroke-width="2" stroke-miterlimit="10"/>
<ellipse cx="60.2641" cy="45.7924" rx="5.23677" ry="4.18942" fill="black"/>
<ellipse cx="47.6938" cy="57.3142" rx="5.23677" ry="4.18942" fill="black"/>
<ellipse cx="85.1196" cy="104.558" rx="5.23677" ry="4.18942" fill="black"/>
<ellipse cx="95.5922" cy="93.0371" rx="5.23677" ry="4.18942" fill="black"/>
</svg>
