<svg width="302" height="397" viewBox="0 0 302 397" fill="none" xmlns="http://www.w3.org/2000/svg">
<path d="M60.2548 316.159C127.739 403.202 138.482 297.918 161.979 287.309C177.467 280.329 172.983 290.59 181.906 296.484C187.05 299.829 229.27 251.032 238.001 236.299C244.519 225.209 251.835 204.801 239.814 193.227C225.661 179.545 295.012 149.937 244.507 84.7937C203.523 31.932 170.202 96.4604 157.971 94.5643C143.624 92.3454 139.25 82.9333 139.25 82.9333C139.25 82.9333 78.7094 115.434 81.5191 155.53C82.321 166.973 92.7834 171.663 88.5966 183.512C72.648 228.729 -5.10387 231.938 60.2542 316.238L60.2548 316.159Z" fill="#8B4E96"/>
<path d="M83.7482 228.825C68.2107 251.162 42.2444 273.988 67.4105 306.769C85.1005 329.827 104.618 318.471 110.502 311.08C149.456 262.147 234.455 157.725 238.18 134.01C242.929 103.524 229.209 85.5067 207.906 87.5901C190.028 89.3656 122.136 173.553 83.7797 228.785L83.7482 228.825Z" fill="#8B4E96" stroke="#FAFAFA" stroke-miterlimit="10"/>
<path d="M129.745 183.3C142.175 204.769 106.508 204.456 101.168 220.128C97.7654 230.116 105.251 260.702 135.868 246.345C154.952 237.397 129.745 221.017 176.012 212.013C196.762 207.975 196.012 181.181 187.579 163.325C178.735 144.598 118.18 163.325 129.745 183.3Z" fill="#C95353"/>
<ellipse cx="137.373" cy="114.314" rx="11.7345" ry="9.38763" fill="#FAFAFA"/>
<ellipse cx="109.207" cy="140.135" rx="11.7345" ry="9.38763" fill="#FAFAFA"/>
<ellipse cx="193.072" cy="245.998" rx="11.7345" ry="9.38763" fill="#FAFAFA"/>
<ellipse cx="216.531" cy="220.181" rx="11.7345" ry="9.38763" fill="#FAFAFA"/>
</svg>
