<svg width="334" height="365" viewBox="0 0 334 365" fill="none" xmlns="http://www.w3.org/2000/svg">
<path d="M71.8569 293.905C141.246 378.06 152.235 276.384 176.376 266.166C192.289 259.443 187.685 269.349 196.858 275.053C202.145 278.29 245.508 231.211 254.473 216.992C261.165 206.289 268.674 186.586 256.315 175.392C241.765 162.16 313.018 133.649 261.087 70.6665C218.947 19.5583 184.736 81.8425 172.167 79.9959C157.422 77.8348 164.779 64.3761 152.923 68.7386C130.69 76.8559 99.6511 124.555 93.6323 138.785C89.1516 149.304 105.215 154.382 100.918 165.821C84.5509 209.474 4.65369 212.477 71.8562 293.981L71.8569 293.905Z" fill="#8B4E96"/>
<path d="M95.9553 209.591C79.9962 231.154 53.3187 253.176 79.2001 284.88C97.393 307.18 117.448 296.232 123.492 289.098C163.506 241.869 250.819 141.084 254.636 118.175C259.503 88.7264 245.393 71.3011 223.498 73.2875C205.125 74.9807 135.384 156.237 95.9876 209.553L95.9553 209.591Z" fill="#8B4E96" stroke="#FAFAFA" stroke-width="2" stroke-miterlimit="10"/>
<path d="M145.696 165.257C158.314 187.049 122.11 186.732 116.689 202.64C113.235 212.778 120.833 243.825 151.912 229.252C171.283 220.168 145.696 203.543 192.66 194.403C213.722 190.304 212.96 163.107 204.401 144.982C195.424 125.973 133.957 144.982 145.696 165.257Z" fill="#C95353"/>
</svg>
