<svg width="134" height="173" viewBox="0 0 134 173" fill="none" xmlns="http://www.w3.org/2000/svg">
<path d="M25.5711 135.275C55.8674 172.012 60.7067 127.57 71.2614 123.09C78.2182 120.143 76.2027 124.475 80.2096 126.962C82.5193 128.374 101.488 107.773 105.411 101.553C108.34 96.872 111.629 88.2568 106.231 83.3721C99.8768 77.5979 131.028 65.0953 108.354 37.6011C89.9551 15.2904 74.981 42.5307 69.4882 41.7311C63.0449 40.7954 66.2651 34.9092 61.0819 36.8228C51.3619 40.3835 37.7792 61.2478 35.1436 67.4702C33.1816 72.07 40.2004 74.2795 38.3184 79.2814C31.1493 98.3689 -3.77091 99.7286 25.5708 135.308L25.5711 135.275Z" stroke="black" stroke-width="2" stroke-miterlimit="10"/>
<path d="M36.1433 98.4074C29.1629 107.837 17.4992 117.473 28.7958 131.309C36.7365 141.04 45.5026 136.245 48.1459 133.125C65.6456 112.468 103.83 68.3868 105.506 58.3765C107.643 45.5085 101.484 37.9043 91.9175 38.7851C83.8892 39.5356 53.3894 75.0751 36.1574 98.3908L36.1433 98.4074Z" stroke="black" stroke-width="2" stroke-miterlimit="10"/>
</svg>
