<svg width="336" height="442" viewBox="0 0 336 442" fill="none" xmlns="http://www.w3.org/2000/svg">
<path d="M67.3875 351.96C142.358 448.659 154.293 331.696 180.397 319.91C197.603 312.155 192.621 323.555 202.535 330.103C208.249 333.819 255.153 279.608 264.853 263.241C272.093 250.921 280.221 228.248 266.866 215.39C251.143 200.191 328.189 167.298 272.08 94.9278C226.55 36.2018 189.532 107.889 175.945 105.782C160.006 103.317 155.147 92.861 155.147 92.861C155.147 92.861 87.8894 128.968 91.0109 173.511C91.9017 186.223 103.525 191.434 98.8735 204.598C81.1556 254.831 -5.2219 258.396 67.3868 352.048L67.3875 351.96Z" fill="#8B4E96"/>
<path d="M93.4876 254.937C76.2264 279.753 47.3795 305.111 75.3375 341.529C94.9899 367.145 116.673 354.529 123.209 346.318C166.485 291.956 260.913 175.95 265.051 149.604C270.327 115.736 255.085 95.72 231.419 98.0346C211.558 100.007 136.134 193.534 93.5226 254.893L93.4876 254.937Z" fill="#8B4E96" stroke="#FAFAFA" stroke-miterlimit="10"/>
<path d="M144.587 204.362C158.396 228.213 118.772 227.865 112.84 245.276C109.06 256.372 117.375 290.352 151.39 274.402C172.591 264.46 144.587 246.264 195.987 236.261C219.039 231.775 218.205 202.009 208.837 182.171C199.012 161.367 131.738 182.171 144.587 204.362Z" fill="#C95353"/>
<ellipse cx="153.062" cy="127.723" rx="13.0363" ry="10.4291" fill="#FAFAFA"/>
<ellipse cx="121.771" cy="156.409" rx="13.0363" ry="10.4291" fill="#FAFAFA"/>
<ellipse cx="214.939" cy="274.016" rx="13.0363" ry="10.4291" fill="#FAFAFA"/>
<ellipse cx="241.001" cy="245.334" rx="13.0363" ry="10.4291" fill="#FAFAFA"/>
</svg>
