<svg width="285" height="345" viewBox="0 0 285 345" fill="none" xmlns="http://www.w3.org/2000/svg">
<path d="M51.6973 286.655C29.9234 270.432 -12.3579 228.295 10.7858 223.931C94.8875 208.073 150.71 115.763 173.682 48.6182C181.78 24.9496 210.003 39.8326 230.641 53.4795C255.1 69.6535 294.619 116.697 270.626 125.997C180.177 161.056 170.217 221.084 109.23 301.438C95.0409 320.133 72.0191 301.797 51.6973 286.655Z" fill="#8B4E96"/>
<path d="M126.144 163.222C138.028 182.807 103.93 182.522 98.8245 196.819C95.5712 205.93 102.727 233.832 131.998 220.735C150.243 212.572 126.144 197.63 170.376 189.416C190.214 185.732 189.496 161.29 181.434 145C172.979 127.917 115.087 145 126.144 163.222Z" fill="#C95353"/>
</svg>
