<svg width="298" height="378" viewBox="0 0 298 378" fill="none" xmlns="http://www.w3.org/2000/svg">
<path d="M54.0569 314.113C31.2898 296.336 -12.9202 250.163 11.2793 245.381C99.2172 228.004 157.586 126.851 181.606 53.2752C190.074 27.3395 219.584 43.648 241.163 58.6021C266.738 76.3253 308.06 127.875 282.971 138.066C188.397 176.484 177.983 242.261 114.214 330.312C99.3776 350.798 75.3056 330.705 54.0569 314.113Z" fill="#8B4E96"/>
<path d="M131.9 178.856C144.326 200.317 108.672 200.005 103.334 215.671C99.9324 225.655 107.415 256.23 138.021 241.878C157.098 232.933 131.9 216.56 178.149 207.56C198.892 203.523 198.141 176.739 189.712 158.889C180.871 140.17 120.339 158.889 131.9 178.856Z" fill="#C95353"/>
</svg>
