<svg width="82" height="133" viewBox="0 0 82 133" fill="none" xmlns="http://www.w3.org/2000/svg">
<path d="M47.7824 88.9981C54.182 100.378 77.3318 69.0435 68.2055 60.5827C52.4383 45.9872 27.6747 -2.04082 13.7625 1.15193C3.37476 3.52368 0.96332 13.2844 1.00042 15.793C1.48271 41.9279 32.8686 62.4983 47.7824 88.9981Z" stroke="black" stroke-width="2" stroke-miterlimit="10"/>
<path d="M63.25 82.9773C63.25 86.6718 72.024 88.9979 70.2989 94.9045C64.4372 114.973 18.7867 86.6718 5.24556 99.9901C0.441224 104.711 -1.15404 117.254 6.09884 117.778C60.4676 121.701 53.4744 108.702 70.2989 114.107C73.712 115.201 81.9851 122.955 80.093 126.627C76.346 133.97 59.67 132.419 52.0275 129.956" stroke="black" stroke-width="2" stroke-miterlimit="10"/>
<path d="M58.7076 87.9034C58.7076 87.9034 16.3219 38.0509 4.39453 16.4771" stroke="black" stroke-width="2" stroke-miterlimit="10"/>
<path d="M63.9572 80.6285C63.9572 80.6285 22.6845 34.0827 8.23438 12.6456" stroke="black" stroke-width="2" stroke-miterlimit="10"/>
<path d="M69.0383 72.5556C69.0383 72.5556 36.0943 26.2379 13.334 8.47253" stroke="black" stroke-width="2" stroke-miterlimit="10"/>
</svg>
