<svg width="349" height="380" viewBox="0 0 349 380" fill="none" xmlns="http://www.w3.org/2000/svg">
<path d="M66.7202 197.238C61.5851 205.333 36.7048 200.884 32.2751 216.224C17.2248 268.347 156.594 269.784 167.754 317.789C171.72 334.811 108.857 335.091 141.16 355.582" stroke="#F9FAF9" stroke-width="2" stroke-miterlimit="10"/>
<path d="M89.8307 234.584C59.99 250.625 52.8165 149.786 84.5749 143.931C139.412 133.865 260.432 63.0434 286.479 89.3768C305.945 109.012 297.662 133.752 294.094 139.198C256.711 195.796 159.344 197.246 89.8307 234.584Z" fill="#8B4E96"/>
<path d="M67.9789 213.28C130.538 199.927 233.143 159.483 289.266 128.788" stroke="#F9FAF9" stroke-width="2" stroke-miterlimit="10"/>
<path d="M70.4218 189.554C113.59 177.421 201.691 143.786 285.803 114.459" stroke="#F9FAF9" stroke-width="2" stroke-miterlimit="10"/>
<path d="M67.9155 171.319C146.606 137.388 204.083 112.868 277.865 98.6909" stroke="#F9FAF9" stroke-width="2" stroke-miterlimit="10"/>
<path d="M216.75 146.575C210.229 128.624 90.2021 147.919 179.056 109.326C267.91 70.7336 289.184 77.9133 297.977 108.877C306.769 139.841 278.231 169.934 216.75 189.656C200.73 194.795 222.494 162.388 216.75 146.575Z" fill="#C95353"/>
</svg>
