<svg width="748" height="433" viewBox="0 0 748 433" fill="none" xmlns="http://www.w3.org/2000/svg">
<g clip-path="url(#clip0_286_2409)">
<path d="M629.495 93.4448C630.113 88.226 640.739 74.2301 648.037 63.5553C657.236 50.2473 654.074 36.0142 644.566 31.4122C647.656 17.8907 637.126 9.63555 623.814 5.00979C610.502 0.384027 596.025 -1.7035 578.981 6.50426C568.451 11.5807 563.364 25.2683 571.066 34.2114C564.362 35.3738 561.771 52.0028 575.321 55.1578L629.495 93.4448Z" fill="#263238"/>
<path d="M590.463 20.4289C584.924 21.9709 577.603 26.7389 573.99 51.125C570.733 72.9728 575.392 80.5401 580.241 84.0746C583.641 86.4468 588.87 87.4194 594.504 88.1311L592.84 103.337C592.84 103.337 575.131 108.484 572.801 120.63C591.036 120.343 609.195 118.213 626.999 114.273L631.326 77.5511C631.326 77.5511 632.704 81.3466 638.457 80.4215C640.435 80.0381 642.309 79.2409 643.956 78.0823C645.602 76.9238 646.984 75.4302 648.011 73.6999C649.037 71.9697 649.684 70.0421 649.91 68.0441C650.136 66.0461 649.935 64.0231 649.32 62.1082C646.587 55.8931 639.527 54.5884 633.917 60.1868C630.636 63.4604 624.693 60.3765 628.045 51.9078C622.625 46.8788 621.27 36.8207 621.77 28.9214C611.548 20.4289 600.685 17.5823 590.463 20.4289Z" fill="#9E6767"/>
<path d="M599.186 68.3234C599.234 69.0545 599.126 69.7874 598.871 70.4743C598.616 71.1613 598.219 71.7869 597.705 72.3105C597.192 72.8341 596.574 73.244 595.891 73.5134C595.208 73.7828 594.476 73.9058 593.743 73.8743C592.195 73.8701 590.703 73.2928 589.557 72.2542C588.411 71.2156 587.692 69.7896 587.538 68.2522L599.186 68.3234Z" fill="#874C4C"/>
<path d="M591.985 73.5896C592.078 72.9784 592.295 72.3927 592.624 71.8686C592.952 71.3444 593.385 70.8929 593.895 70.5418C594.405 70.1907 594.981 69.9474 595.589 69.827C596.197 69.7066 596.823 69.7116 597.428 69.8416C597.952 69.9232 598.458 70.0916 598.926 70.3398C598.552 71.4028 597.847 72.319 596.915 72.9547C595.983 73.5905 594.872 73.9127 593.744 73.8743C593.146 73.8664 592.554 73.7705 591.985 73.5896Z" fill="#F28F8F"/>
<path d="M601.255 49.1561C601.191 49.9741 601.44 50.7858 601.952 51.4282C602.463 52.0706 603.199 52.4962 604.012 52.6195C604.394 52.7052 604.79 52.7108 605.175 52.6358C605.559 52.5608 605.924 52.407 606.246 52.1839C606.568 51.9609 606.839 51.6736 607.044 51.3403C607.249 51.0069 607.382 50.6347 607.435 50.2473C607.493 49.4277 607.243 48.6159 606.733 47.9709C606.223 47.3258 605.49 46.8941 604.678 46.7602C604.294 46.6782 603.897 46.6762 603.513 46.7541C603.128 46.8321 602.764 46.9884 602.443 47.2132C602.121 47.4381 601.85 47.7267 601.645 48.061C601.441 48.3953 601.308 48.7681 601.255 49.1561Z" fill="#263238"/>
<path d="M579.076 45.1707C579.013 45.9888 579.262 46.8005 579.774 47.4428C580.285 48.0852 581.021 48.5108 581.834 48.6342C582.218 48.7199 582.615 48.7256 583.001 48.6508C583.387 48.576 583.753 48.4224 584.077 48.1997C584.4 47.9769 584.674 47.6898 584.882 47.3564C585.089 47.0229 585.225 46.6503 585.281 46.262C585.339 45.4424 585.089 44.6305 584.579 43.9855C584.069 43.3405 583.336 42.9087 582.523 42.7749C582.138 42.6928 581.74 42.6906 581.354 42.7684C580.968 42.8461 580.602 43.0021 580.279 43.2267C579.956 43.4513 579.683 43.7398 579.476 44.0742C579.269 44.4086 579.133 44.7818 579.076 45.1707Z" fill="#263238"/>
<path d="M594.053 45.3369L590.321 62.1083L581.383 58.5025L594.053 45.3369Z" fill="#874C4C"/>
<path d="M594.647 88.2023C603.918 88.5582 619.06 89.1038 624.266 78.2866C624.266 78.2866 623.695 85.6878 619.06 89.1038C612.19 94.1565 594.195 92.2113 594.195 92.2113L594.647 88.2023Z" fill="#874C4C"/>
<path d="M607.65 39.0507L613.664 45.503C614.461 44.7068 614.908 43.6275 614.908 42.5022C614.908 41.3769 614.461 40.2976 613.664 39.5014C612.914 38.6652 611.869 38.1512 610.748 38.0671C609.626 37.9831 608.516 38.3356 607.65 39.0507Z" fill="#263238"/>
<path d="M579.789 38.1492L587.729 35.018C587.258 33.9731 586.406 33.1462 585.346 32.7056C584.287 32.265 583.098 32.2436 582.023 32.6458C581.502 32.8445 581.027 33.1483 580.628 33.5382C580.229 33.9281 579.916 34.3958 579.706 34.9122C579.496 35.4285 579.395 35.9824 579.41 36.5394C579.424 37.0963 579.553 37.6443 579.789 38.1492Z" fill="#263238"/>
<path d="M628.711 100.3C627.808 108.034 629.543 110.311 633.133 113.276C637.88 117.185 642.823 120.85 647.942 124.26C650.489 142.696 647.83 161.477 640.264 178.488C627.618 207.31 616.089 214.474 607.935 230.32C599.782 246.166 588.134 275.984 567.025 291.19C548.008 276.744 498.279 202.47 498.279 202.47L528.445 178.606L534.126 161.74C532.294 157.574 531.386 153.062 531.464 148.513C531.542 143.964 532.604 139.486 534.577 135.385C540.449 123.904 555.686 120.417 562.556 117.831C571.589 114.439 574.085 100.751 574.085 100.751C574.085 100.751 584.378 95.5087 587.587 97.098C588.203 97.3838 588.876 97.5286 589.555 97.5219C590.235 97.5153 590.904 97.3572 591.515 97.0594C592.125 96.7617 592.661 96.3316 593.084 95.8006C593.507 95.2697 593.805 94.6513 593.958 93.9905L628.711 100.3Z" fill="#9E6767"/>
<path d="M616.848 161.171L622.506 149.594L614.115 157.019L616.848 161.171Z" fill="#874C4C"/>
<path d="M618.156 164.919C619.511 176.044 626.761 185.557 635.414 188.641C632.633 193.967 629.537 199.123 626.143 204.083C604.464 204.202 560.416 194.832 534.125 161.811C520.576 136.856 538.309 125.232 550.765 121.27C560.654 118.139 562.27 130.759 555.519 156.521C577.412 118.898 616.706 153.058 618.156 164.919Z" fill="#37474F"/>
<path d="M594.932 256.39C587.967 269.224 579.005 282.484 567.024 291.19C548.007 276.744 498.278 202.47 498.278 202.47L514.538 189.613C514.538 189.613 570.471 216.917 594.932 256.39Z" fill="#37474F"/>
<path d="M265.227 368.381C266.772 363.257 269.981 364.941 280.726 358.892C282.937 357.682 285.219 356.378 287.524 355.073C296.058 350.186 304.711 344.825 309.608 339.915C315.86 333.676 323.68 325.682 325.772 323.167C327.864 320.653 330.645 316.905 333.854 312.611C337.064 308.317 350.993 287.205 373.956 259.925C380.018 252.808 382.704 250.436 405.001 237.745C431.958 222.349 476.148 202.494 476.148 202.494L550.6 230.533C539.427 265.831 521.1 279.638 489.983 286.161C455.159 293.467 403.361 296.124 403.361 296.124C399.043 302.339 393.883 307.928 388.029 312.73C378.449 320.701 368.206 327.843 357.412 334.079C351.184 338.207 347.119 341.196 344.884 342.88C341.801 344.907 339.536 347.957 338.49 351.491C337.444 355.88 337.872 362.522 334.163 366.412C330.455 370.302 327.84 370.136 322.278 370.184C316.715 370.231 315.028 369.686 309.941 373.671C304.497 377.941 301.05 385.532 284.363 383.373C272.121 382.068 263.658 373.576 265.227 368.381Z" fill="#9E6767"/>
<path d="M421.118 294.986C421.784 285.924 423.971 247.376 426.633 226.192C450.713 213.928 476.244 202.47 476.244 202.47L550.6 230.533C539.427 265.832 521.1 279.638 489.983 286.161C468.019 290.811 439.327 293.562 421.118 294.986Z" fill="#874C4C"/>
<path d="M403.361 296.172C405.502 291.826 407.022 287.203 407.877 282.437C408.033 287.011 407.513 291.583 406.332 296.006L403.361 296.172Z" fill="#874C4C"/>
<path d="M574.941 281.986C557.992 307.677 525.877 306.823 505.553 294.986C490.458 286.161 476.814 259.925 466.378 236.511C451.949 204.06 443.701 172.605 446.339 160.317C448.146 151.872 453.328 149.761 460.388 148.1C471.204 145.585 482.139 150.069 502.962 171.181C510.103 178.417 516.825 186.052 523.096 194.049C531.273 204.297 539.213 215.399 550.599 230.581C558.083 234.721 564.895 239.968 570.805 246.142C575.262 250.824 578.084 256.817 578.851 263.229C579.618 269.641 578.288 276.129 575.06 281.725L574.941 281.986Z" fill="#9E6767"/>
<path d="M559.134 271.691C560.679 263.625 560.37 241.469 550.6 230.676C553.285 232.044 555.853 233.631 558.278 235.42C563.103 245.241 564.458 257.41 559.134 271.691Z" fill="#874C4C"/>
<path d="M398.821 341.836C407.915 336.057 414.997 327.614 419.098 317.664C422.402 309.859 424.018 305.494 424.589 300.086C425.159 294.677 425.991 287.751 427.441 269.841C428.891 251.931 428.986 226.951 431.863 197.75C435.856 157.091 448.716 150.994 460.388 148.147C460.388 148.147 477.575 158.253 481.972 178.179C485.799 195.473 481.402 215.85 475.316 238.694C471.489 253.117 465.309 267.16 462.147 276.198C458.985 285.236 454.398 298.259 453.209 302.909C451.823 307.575 451.323 312.458 451.735 317.308C452.401 321.578 455.23 327.319 453.352 332.134C451.474 336.95 449.049 337.732 443.986 339.867C438.923 342.002 437.306 342.097 434.216 347.482C430.888 353.27 430.722 361.715 414.843 365.463C406.523 367.385 396.016 364.846 388.338 360.197C387.012 359.57 385.913 358.55 385.19 357.276C384.467 356.002 384.155 354.537 384.297 353.08C384.748 349.309 391.594 346.77 398.821 341.836Z" fill="#9E6767"/>
<path d="M480.212 203.917C481.448 208.828 483.564 213.549 479.285 238.433C478.168 245.004 476.908 251.385 475.862 256.39C474.555 253.852 473.271 251.314 472.035 248.728C475.791 236.25 481.448 214.901 480.212 203.917Z" fill="#874C4C"/>
<path d="M189.105 101.594C193.616 96.1516 199.646 91.5428 206.625 88.2038C213.603 84.8648 221.299 82.9061 228.984 82.5131C236.655 82.3594 243.692 84.6321 248.589 88.8445C253.485 93.0569 255.852 98.8743 255.183 105.051C259.439 101.338 265.093 98.8797 271.004 98.1733C276.914 97.4668 282.639 98.5648 287.022 101.246C291.405 103.926 294.118 107.99 294.614 112.614C295.109 117.239 293.35 122.08 289.691 126.159C293.446 122.497 298.285 119.627 303.649 117.881C309.014 116.136 314.686 115.584 320.012 116.291C325.262 117.204 329.879 119.334 333.331 122.434C336.783 125.534 338.93 129.479 339.522 133.813C339.453 128.358 341.323 122.79 344.917 117.748C348.512 112.706 353.686 108.393 359.847 105.303C366.008 102.214 372.906 100.473 379.751 100.28C386.596 100.087 393.111 101.45 398.55 104.212C397.325 101.093 396.941 97.7205 397.419 94.2979C397.898 90.8753 399.231 87.4731 401.336 84.2956C403.442 81.1181 406.277 78.2311 409.672 75.808C413.067 73.3849 416.951 71.4758 421.092 70.1954C425.232 68.9151 429.542 68.2899 433.764 68.3575C437.986 68.425 442.032 69.1839 445.659 70.5886C449.286 71.9932 452.419 74.0146 454.87 76.5312C457.32 79.0479 459.038 82.0077 459.92 85.233C468.048 74.9786 484.647 72.0432 497.972 72.9762C507.998 73.2099 517.213 76.0943 524.216 81.1908C527.618 83.7942 529.812 87.2733 530.512 91.1727C531.212 95.0722 530.385 99.2103 528.139 103.046C534.231 99.8382 541.143 98.0432 547.993 97.8899C554.843 97.7366 561.32 99.2319 566.596 102.185C571.873 105.138 575.708 109.414 577.613 114.468C579.518 119.521 579.406 125.122 577.292 130.556C587.279 127.919 597.383 125.778 607.54 124.145C612.638 123.4 617.68 123.971 621.919 125.774C626.158 127.577 629.368 130.516 631.071 134.154C631.541 138.174 630.186 142.39 627.246 146.059C624.306 149.729 619.969 152.616 615 154.211C605.009 157.06 594.63 158.055 584.706 157.116C584.436 162.045 582.071 166.979 578.002 171.104C573.932 175.23 568.401 178.3 562.32 179.809C550.074 182.573 537.561 182.402 526.412 179.317C522.459 184.227 517.053 188.362 510.766 191.283C504.479 194.205 497.543 195.806 490.692 195.917C483.841 196.028 477.329 194.645 471.844 191.914C466.359 189.183 462.104 185.206 459.528 180.402C459.316 185.969 456.831 191.574 452.45 196.365C448.069 201.155 442.032 204.869 435.256 206.943C428.479 209.016 421.334 209.337 414.905 207.854C408.476 206.372 403.115 203.168 399.635 198.73C400.422 205.818 398.436 213.223 393.943 219.957C389.451 226.691 382.664 232.434 374.489 236.421C370.326 238.153 365.87 239.214 361.407 239.536C356.943 239.859 352.57 239.435 348.564 238.292C344.558 237.15 341.009 235.313 338.141 232.9C335.273 230.486 333.15 227.548 331.906 224.274C330.922 227.64 328.909 230.865 326.057 233.643C323.205 236.422 319.608 238.664 315.604 240.158C310.863 242.58 305.673 244.245 300.362 245.047C295.052 245.849 289.739 245.77 284.762 244.815C279.889 243.312 275.825 240.683 273.027 237.223C270.23 233.763 268.81 229.61 268.927 225.232C266.846 229.903 263.491 234.265 259.129 237.975C254.767 241.685 249.516 244.641 243.79 246.61C236.427 249.397 228.391 250.006 221.249 248.319C213.829 246.624 204.609 239.594 207.317 233.324C201.391 235.572 195.012 236.507 188.914 236.021C182.815 235.535 177.246 233.649 172.846 230.578C168.446 227.507 165.395 223.378 164.044 218.664C162.693 213.951 163.097 208.846 165.209 203.936C158.956 205.876 152.347 206.139 146.451 204.684C140.556 203.229 135.721 200.14 132.73 195.918C129.739 191.696 128.768 186.589 129.974 181.425C131.179 176.26 134.491 171.342 139.373 167.466C135.839 168.274 132.231 168.477 128.796 168.059C125.361 167.642 122.181 166.614 119.477 165.048C116.772 163.481 114.607 161.413 113.131 158.986C111.655 156.559 110.902 153.83 110.926 150.989C111.648 145.161 114.919 139.45 120.156 134.875C125.392 130.3 132.254 127.159 139.517 126.012C135.246 116.998 135.55 106.573 140.37 96.7533C143.754 92.3067 148.624 88.616 154.332 86.1724C160.04 83.7288 166.315 82.6481 172.322 83.0741C177.617 83.8673 182.167 86.1359 185.22 89.5042C188.272 92.8724 189.643 97.138 189.105 101.594Z" fill="#E4BFDD"/>
<path d="M12.957 153.17H735.042V206.44C735.042 306.143 659.379 387.097 566.193 387.097H182.312C88.8728 387.097 13.0203 305.94 13.0203 205.966V153.238L12.957 153.17Z" fill="#BA68C8"/>
<path d="M732.816 119.879H15.1817C8.54348 119.879 3.16211 125.249 3.16211 131.874V141.217C3.16211 147.842 8.54348 153.212 15.1817 153.212H732.816C739.455 153.212 744.836 147.842 744.836 141.217V131.874C744.836 125.249 739.455 119.879 732.816 119.879Z" fill="#BA68C8"/>
<path d="M114.817 36.3101C114.817 22.8002 99.8875 6.44946 76.3544 6.44946C58.4515 6.44946 42.1934 19.2649 42.1934 36.3101V119.453H65.6633V42.6862C65.6633 35.6787 71.2935 29.8708 78.3155 29.8708C82.7438 29.8708 90.5882 32.0172 91.284 40.5398V52.9133C91.284 55.5016 93.3716 57.5849 95.9654 57.5849H110.073C112.666 57.5849 114.754 55.5016 114.754 52.9133V36.2469L114.817 36.3101Z" fill="#E4BFDD"/>
<path d="M198.828 387.059L161.314 385.628V424.496H198.828V387.059Z" fill="#BA68C8"/>
<line x1="12.3672" y1="152.171" x2="735.041" y2="152.171" stroke="#E4BFDD" stroke-width="2"/>
<path d="M586.684 385.334L549.17 387.059V424.496H586.684V385.334Z" fill="#BA68C8"/>
</g>
<defs>
<clipPath id="clip0_286_2409">
<rect width="748" height="432" fill="white" transform="translate(0 0.941895)"/>
</clipPath>
</defs>
</svg>
