<svg width="503" height="500" viewBox="0 0 503 500" fill="none" xmlns="http://www.w3.org/2000/svg">
<path d="M79.4822 200.322C82.8993 184.04 70.5164 176.007 63.2752 167.705C56.034 159.403 48.1286 151.23 44.2402 140.925C43.3297 147.631 42.687 154.433 43.5225 161.138C44.3581 167.844 46.7361 174.518 51.3315 179.509C59.2582 188.175 72.5838 190.821 79.4822 200.322Z" fill="#9E58AA"/>
<path d="M37.4258 184.726C42.8224 187.941 48.4762 190.704 54.329 192.985C65.4051 197.644 77.4345 203.15 84.4829 212.93C78.4628 215.415 68.6615 214.001 62.695 211.302C56.7285 208.603 51.6189 204.479 46.6272 200.344C41.7256 196.548 37.1533 192.344 32.9589 187.779C28.8991 183.098 25.5892 177.613 24.3145 171.55C27.5309 176.957 32.0352 181.483 37.4258 184.726Z" fill="#9E58AA"/>
<path d="M94.4357 180.998C96.9119 173.718 100.836 167.014 105.973 161.29C111.109 155.567 117.351 150.942 124.322 147.695C116.652 153.683 117.081 165.959 113.61 175.064C107.761 190.532 97.7885 203.9 85.5234 214.987C90.4937 204.339 90.708 192.117 94.4357 180.998Z" fill="#9E58AA"/>
<path d="M150.899 154.744C145.543 172.322 139.844 190.596 127.129 203.857C117.156 214.248 102.181 218.854 91.7799 228.784L91.2871 227.713C105.673 198.801 124.547 173.543 150.899 154.744Z" fill="#9E58AA"/>
<path d="M45.0112 218.458C60.1899 217.633 75.7113 219.132 89.7546 224.938L91.3185 228.227C80.1032 233.347 65.6101 238.939 53.3343 239.014C34.9099 239.206 18.2316 228.066 0 225.399C14.8573 222.346 29.8539 219.272 45.0112 218.458Z" fill="#9E58AA"/>
<path d="M55.2091 248.033C69.7558 243.609 85.7057 241.606 100.734 243.898L101.281 247.412C91.6401 255.06 80.1462 262.933 68.2133 266.007C50.3673 270.603 31.5145 263.79 13.1758 265.558C26.8977 259.023 40.6731 252.425 55.2091 248.033Z" fill="#9E58AA"/>
<path d="M102.867 249.211C116.032 241.938 129.164 234.504 141.119 225.377C153.073 216.251 163.871 205.336 171.315 192.267C142.486 202.797 118.223 223.037 102.695 249.511" fill="#9E58AA"/>
<path d="M118.762 275.338C108.736 282.397 96.8566 290.42 84.8593 292.969C65.8779 297.008 46.2966 291.791 27.5938 286.617C48.6425 285.792 67.6346 272.692 88.6513 271.203C99.0203 270.474 107.836 272.081 118.002 274.234" fill="#9E58AA"/>
<path d="M51.0312 160.153C51.1616 160.322 51.2832 160.497 51.3955 160.678L52.4666 162.253C53.3771 163.667 54.684 165.723 56.3765 168.348L57.7047 170.49C58.1753 171.276 58.748 171.997 59.4079 172.632C60.8896 174.08 62.4525 175.443 64.089 176.714C66.0003 178.117 67.8048 179.66 69.4878 181.33C71.3545 183.261 73.0133 185.383 74.4366 187.661C75.9908 190.177 77.2625 192.857 78.2286 195.652L81.5814 204.607C82.6526 207.724 84.1094 210.831 85.4377 214.087L87.5051 219.025L89.8188 224.006C96.5553 238.655 104.327 252.806 113.074 266.35C121.837 279.854 131.518 292.738 142.05 304.913C150.708 314.82 159.902 324.247 169.59 333.149C173.8 336.856 177.517 340.337 181.019 343.111C184.522 345.886 187.382 348.467 189.921 350.31L195.663 354.712L197.141 355.88C197.473 356.137 197.644 356.287 197.644 356.287C197.644 356.287 197.451 356.169 197.109 355.923L195.588 354.852L189.782 350.567C187.222 348.735 184.297 346.228 180.816 343.433C177.335 340.637 173.564 337.22 169.322 333.524C159.581 324.649 150.344 315.237 141.653 305.331C131.081 293.133 121.373 280.212 112.603 266.661C103.848 253.106 96.0758 238.941 89.3475 224.274L87.0445 219.218C86.3482 217.547 85.6626 215.887 84.9771 214.269C83.6595 211.056 82.2349 207.842 81.1422 204.757C80.0496 201.672 78.882 198.662 77.8216 195.781C76.8692 193.013 75.6156 190.358 74.0831 187.865C72.6816 185.601 71.0482 183.491 69.2093 181.566C67.5425 179.872 65.7523 178.303 63.8533 176.874C62.2258 175.578 60.6669 174.198 59.183 172.739C58.5302 172.094 57.955 171.375 57.4691 170.597C57.0085 169.858 56.5693 169.151 56.1622 168.455L52.3488 162.317C51.931 161.621 51.6097 161.085 51.374 160.71L51.0312 160.153Z" fill="#DDB3E3"/>
<path d="M21.3379 226.823C21.5616 226.751 21.7909 226.697 22.0234 226.663L24.0051 226.288C25.7297 225.967 28.2899 225.57 31.3428 225.217C47.5735 223.138 64.0071 223.203 80.2209 225.41C83.3273 225.838 85.8232 226.256 87.5478 226.588L89.5295 226.984C89.7632 227.018 89.9929 227.076 90.2151 227.156C89.9777 227.163 89.7402 227.142 89.5081 227.091L87.5157 226.716C85.7804 226.449 83.2309 226.095 80.1674 225.72C63.9751 223.732 47.6046 223.663 31.3963 225.517C28.2792 225.87 25.7726 226.202 24.0373 226.459L22.0449 226.727C21.8135 226.785 21.5764 226.818 21.3379 226.823Z" fill="#DDB3E3"/>
<path d="M37.6406 263.019C37.843 262.934 38.0505 262.863 38.2619 262.805L40.0615 262.301L46.7136 260.512C52.3159 259.013 60.0712 256.913 68.5979 254.503C77.1245 252.093 84.8156 249.8 90.3858 248.14L96.9843 246.169L98.7838 245.655C98.9884 245.584 99.2005 245.538 99.4158 245.516C99.2282 245.625 99.0263 245.708 98.816 245.762L97.0485 246.383C95.506 246.898 93.2672 247.637 90.5036 248.526C84.9656 250.283 77.2852 252.628 68.7478 255.049C60.2105 257.47 52.4444 259.505 46.81 260.909C43.9928 261.616 41.7004 262.162 40.1151 262.526L38.294 262.933C38.081 262.991 37.8613 263.02 37.6406 263.019Z" fill="#DDB3E3"/>
<path d="M149.205 210.402C149.058 210.543 148.892 210.662 148.712 210.756L147.234 211.677C145.949 212.459 144.095 213.616 141.878 215.083C135.997 218.906 130.339 223.062 124.932 227.531C119.543 232.023 114.417 236.823 109.582 241.906C107.729 243.855 106.25 245.462 105.243 246.587L104.076 247.862C103.943 248.017 103.796 248.161 103.637 248.29C103.637 248.29 103.744 248.108 103.99 247.787L105.061 246.437C106.015 245.269 107.45 243.62 109.271 241.638C118.807 231.265 129.695 222.221 141.642 214.751C143.935 213.316 145.809 212.213 147.138 211.484L148.669 210.659C148.84 210.557 149.019 210.471 149.205 210.402Z" fill="#DDB3E3"/>
<path d="M134.379 176.467C134.497 176.564 124.878 188.068 112.902 202.176C100.926 216.283 91.1248 227.616 91.0069 227.52C90.8891 227.423 100.498 215.908 112.431 201.811C124.364 187.715 134.261 176.371 134.379 176.467Z" fill="#DDB3E3"/>
<path d="M106.186 170.64C106.029 171.26 105.828 171.869 105.586 172.461C105.168 173.629 104.515 175.289 103.722 177.346C102.105 181.448 99.7373 187.072 96.8986 193.178C94.06 199.283 91.2856 204.725 89.1968 208.613C88.1257 210.552 87.2794 212.116 86.6688 213.187C86.3587 213.76 86.0003 214.304 85.5977 214.816C85.8326 214.219 86.1081 213.639 86.4225 213.08L88.7898 208.431C90.7929 204.5 93.503 199.048 96.3416 192.942C99.1803 186.836 101.59 181.255 103.304 177.196C104.129 175.225 104.815 173.607 105.329 172.386C105.572 171.784 105.859 171.201 106.186 170.64Z" fill="#DDB3E3"/>
<path d="M52.6914 195.706C53.1224 195.87 53.5352 196.078 53.9233 196.327L57.1368 198.201C59.8898 199.787 63.7139 201.961 67.9665 204.275C72.2191 206.589 76.1182 208.56 78.9461 210.059L82.3418 211.784C82.7612 211.974 83.1596 212.208 83.5308 212.48C83.0865 212.361 82.6558 212.196 82.2454 211.988C81.4313 211.634 80.253 211.099 78.8176 210.413C75.9468 209.053 72.0049 207.082 67.7416 204.768C63.4782 202.454 59.6862 200.215 57.0297 198.544C55.68 197.698 54.5981 197.012 53.8162 196.52C53.4145 196.287 53.0377 196.015 52.6914 195.706Z" fill="#DDB3E3"/>
<path d="M65.5996 281.604C65.5996 281.454 77.3826 279.826 92.0472 277.973C106.712 276.119 118.559 274.759 118.58 274.898C118.602 275.037 106.797 276.676 92.1221 278.53C77.4469 280.383 65.6103 281.754 65.5996 281.604Z" fill="#DDB3E3"/>
<path d="M136.222 298.55C126.774 306.37 115.548 315.303 103.765 318.838C85.1581 324.355 65.202 320.702 46.1777 317.007C67.098 314.532 84.9975 299.953 105.843 296.847C116.115 295.315 125.028 296.215 135.332 297.565" fill="#9E58AA"/>
<path d="M83.7441 308.962C83.7441 308.812 95.3986 306.263 109.838 303.274C124.278 300.285 136.007 297.918 136.039 298.122C136.072 298.325 124.396 300.821 109.945 303.82C95.495 306.82 83.7763 309.123 83.7441 308.962Z" fill="#DDB3E3"/>
<path d="M133.674 245.398C125.855 252.243 120.167 260.073 114.521 268.803L115.196 269.789C127.279 267.646 141.526 264.765 151.788 258.006C168.027 247.39 178.139 229.812 187.651 212.898C172.215 227.295 149.528 231.515 133.674 245.398Z" fill="#9E58AA"/>
<path d="M157.326 236.357C157.422 236.475 148.071 243.93 136.448 253.003C124.826 262.076 115.314 269.339 115.218 269.21C115.121 269.082 124.473 261.637 136.106 252.564C147.739 243.491 157.176 236.282 157.326 236.357Z" fill="#DDB3E3"/>
<path d="M159.905 281.743C153.296 289.777 148.958 298.432 144.812 307.955L145.637 308.823C157.206 304.752 170.789 299.578 179.83 291.298C194.13 278.176 201.253 259.163 207.895 240.952C194.997 257.631 173.295 265.483 159.905 281.743Z" fill="#9E58AA"/>
<path d="M181.726 269.039C181.844 269.146 173.821 278.015 163.827 288.856C153.833 299.696 145.617 308.405 145.52 308.298C145.424 308.191 153.415 299.321 163.42 288.481C173.425 277.641 181.619 268.942 181.726 269.039Z" fill="#DDB3E3"/>
<path d="M472.852 79.2679L486.359 82.053L472.67 83.7454L469.885 97.2531L468.181 83.5633L454.674 80.7783L468.364 79.0858L471.159 65.5674L472.852 79.2679Z" fill="#DDB3E3"/>
<path d="M212.833 54.7913L226.49 56.773L212.918 59.2688L210.937 72.9264L208.441 59.3545L194.783 57.3728L208.355 54.877L210.348 41.2194L212.833 54.7913Z" fill="#DDB3E3"/>
<path d="M423.493 219.925L428.024 220.911L423.439 221.425L422.55 225.956L421.939 221.35L417.408 220.364L421.982 219.85L422.871 215.33L423.493 219.925Z" fill="#DDB3E3"/>
<path d="M62.8997 75.9365L70.5479 77.5861L62.8247 78.4645L61.3357 86.0913L60.2967 78.3359L52.6484 76.6863L60.3717 75.8079L61.8713 68.1811L62.8997 75.9365Z" fill="#DDB3E3"/>
<path d="M38.4123 467.562L46.0606 469.211L38.3374 470.09L36.8377 477.716L35.7986 469.961L28.1504 468.311L35.8843 467.433L37.3733 459.806L38.4123 467.562Z" fill="#DDB3E3"/>
<path d="M413.498 61.8611L416.712 62.2467L413.498 62.9216C413.086 63.0099 412.712 63.2246 412.428 63.5356C412.144 63.8467 411.964 64.2386 411.913 64.6569L411.527 67.8704L410.852 64.6569C410.765 64.2465 410.551 63.8735 410.243 63.5895C409.934 63.3054 409.544 63.1245 409.128 63.0715L405.914 62.6859L409.128 62.0111C409.54 61.9227 409.914 61.7081 410.198 61.397C410.482 61.086 410.662 60.694 410.713 60.2757L411.099 57.0622L411.773 60.2757C411.861 60.6862 412.074 61.0592 412.383 61.3432C412.692 61.6272 413.082 61.8082 413.498 61.8611Z" fill="#DDB3E3"/>
<path d="M181.967 284.299C181.703 283.353 180.451 282.837 178.733 282.663C178.816 282.602 178.906 282.574 178.917 282.514C179.274 280.751 176.983 271.861 176.334 269.682C175.854 268.069 163.964 270.869 164.043 272.321C164.162 274.479 165.589 282.914 166.746 284.906C166.789 284.983 166.876 285.045 166.994 285.093C165.602 285.918 164.749 286.9 164.899 287.963C166.157 296.895 169.683 312.314 170.388 313.903C171.606 316.64 187.124 314.948 187.379 310.324C187.469 308.682 182.574 286.479 181.965 284.301L181.967 284.299Z" fill="#D16565"/>
<path d="M178.998 282.5L166.998 285C166.497 285 164.498 283.5 163.999 271.999C163.908 269.922 175.607 268.607 176.499 269.499C177.39 270.392 179.498 281.5 178.998 282.5Z" fill="#9A4A4D"/>
<path d="M414.966 311.616C413.263 295.561 425.779 288.672 433.43 281.141C441.082 273.609 449.342 266.262 454.002 256.543C454.234 263.115 454.199 269.759 452.781 276.207C451.363 282.656 448.429 288.945 443.661 293.45C435.313 301.286 422.437 302.882 414.989 311.608" fill="#DDB3E3"/>
<path d="M456.822 299.457C451.354 302.202 445.682 304.483 439.865 306.276C428.817 310.021 416.786 314.549 409.129 323.554C414.658 326.427 424.179 325.671 430.127 323.557C436.076 321.442 441.383 317.702 446.591 314.035C451.647 310.69 456.425 306.921 460.876 302.77C465.338 298.588 468.716 293.349 470.695 287.541C467.081 292.596 462.314 296.691 456.822 299.457Z" fill="#DDB3E3"/>
<path d="M402.03 291.243C400.364 283.991 397.269 277.194 392.931 271.26C388.592 265.326 383.1 260.377 376.785 256.712C383.494 263.113 381.935 274.993 384.336 284.081C388.434 299.529 396.633 313.242 407.247 324.906C403.56 314.185 404.512 302.307 402.03 291.243Z" fill="#DDB3E3"/>
<path d="M350.678 261.283C354.094 278.792 357.826 297.002 368.684 310.845C377.203 321.701 391.05 327.258 400.053 337.7L400.621 336.686C389.588 307.486 373.978 281.567 350.678 261.283Z" fill="#DDB3E3"/>
<path d="M446.878 331.277C432.347 329.329 417.251 329.661 403.192 334.39L401.377 337.554C411.674 343.495 425.056 350.077 436.91 351.129C454.634 352.693 471.765 342.854 489.572 341.555C475.491 337.424 461.395 333.256 446.878 331.277Z" fill="#DDB3E3"/>
<path d="M434.506 359.079C420.936 353.588 405.766 350.447 391.079 351.572L390.212 355.021C398.778 363.35 409.073 372.014 420.262 375.961C436.996 381.858 455.805 376.497 473.288 379.621C460.707 372.105 448.066 364.558 434.506 359.079Z" fill="#DDB3E3"/>
<path d="M387.732 356.515C375.822 348.437 363.958 340.201 353.383 330.411C342.809 320.621 333.512 309.144 327.645 295.822C354.235 308.222 375.533 329.773 387.883 356.778" fill="#DDB3E3"/>
<path d="M371.037 380.532C380.007 388.302 390.672 397.174 401.981 400.583C419.872 406.014 439.235 402.29 457.74 398.534C437.547 396.139 420.528 381.668 400.403 378.635C390.498 377.146 381.853 378.083 371.853 379.463" fill="#DDB3E3"/>
<path d="M445.808 273.441C445.808 273.441 445.694 273.621 445.457 273.97L444.369 275.453L440.158 281.154C439.707 281.778 439.22 282.43 438.714 283.133C438.184 283.849 437.569 284.495 436.884 285.057C435.333 286.372 433.715 287.601 432.036 288.738C430.093 289.985 428.24 291.376 426.493 292.899C424.572 294.651 422.834 296.6 421.306 298.715C419.61 301.026 418.167 303.515 417.003 306.138C415.702 308.864 414.365 311.687 412.992 314.606C411.658 317.56 410.009 320.492 408.444 323.566L406.009 328.22L403.346 332.907C395.568 346.667 386.841 359.861 377.234 372.387C367.615 384.914 357.163 396.758 345.956 407.835C336.763 416.829 327.093 425.301 316.994 433.211C312.615 436.489 308.735 439.576 305.133 441.992C301.53 444.408 298.538 446.671 295.929 448.267L290 452.047L288.449 453.017C288.106 453.231 287.921 453.325 287.921 453.325C287.921 453.325 288.08 453.194 288.427 452.959L289.94 451.951L295.819 448.088C298.4 446.466 301.399 444.226 304.96 441.739C308.521 439.251 312.407 436.187 316.767 432.896C326.813 424.962 336.44 416.484 345.604 407.502C356.776 396.423 367.203 384.591 376.813 372.088C386.408 359.584 395.133 346.419 402.921 332.694C403.832 331.121 404.721 329.555 405.594 328.019C406.467 326.484 407.23 324.901 408.037 323.378C409.588 320.324 411.259 317.395 412.592 314.441C413.925 311.487 415.337 308.707 416.631 305.998C417.823 303.352 419.295 300.841 421.019 298.51C422.593 296.401 424.374 294.459 426.331 292.713C428.096 291.188 429.967 289.796 431.928 288.548C433.601 287.432 435.216 286.224 436.765 284.931C438.004 283.762 439.11 282.453 440.061 281.032L444.346 275.395L445.473 273.939C445.664 273.606 445.808 273.441 445.808 273.441Z" fill="#BA68C8"/>
<path d="M468.856 341.465C468.63 341.464 468.405 341.432 468.189 341.368L466.286 340.943C464.636 340.555 462.24 340.025 459.28 339.436C443.826 336.311 428.029 335.133 412.219 335.925C409.189 336.067 406.756 336.273 405.041 336.378L403.083 336.516C402.856 336.548 402.627 336.549 402.401 336.519C402.623 336.452 402.851 336.409 403.081 336.39L405.022 336.147C406.71 335.935 409.169 335.71 412.209 335.501C428.061 334.487 443.921 335.673 459.376 339.027C462.338 339.674 464.714 340.259 466.352 340.725L468.227 341.259C468.445 341.297 468.657 341.366 468.856 341.465Z" fill="#BA68C8"/>
<path d="M449.938 375.26C449.727 375.238 449.521 375.186 449.325 375.106L447.606 374.569C446.113 374.099 443.969 373.378 441.316 372.462C436.017 370.643 428.738 368.025 420.748 364.981C412.758 361.938 405.59 359.023 400.422 356.852C397.839 355.767 395.766 354.866 394.352 354.239L392.709 353.489C392.514 353.41 392.327 353.312 392.15 353.197C392.357 353.23 392.558 353.293 392.748 353.383L394.439 354.027L400.601 356.474C405.805 358.549 412.993 361.4 420.952 364.439C428.91 367.479 436.19 370.163 441.451 372.079L447.682 374.356L449.364 374.999C449.566 375.06 449.759 375.148 449.938 375.26Z" fill="#BA68C8"/>
<path d="M347.254 315.142C347.434 315.211 347.603 315.305 347.757 315.421L349.146 316.342C350.349 317.148 352.044 318.375 354.093 319.937C364.822 328.109 374.383 337.747 382.517 348.59C384.077 350.666 385.295 352.386 386.091 353.596L387.005 354.998C387.121 355.158 387.22 355.33 387.3 355.512C387.156 355.382 387.028 355.235 386.918 355.074L385.918 353.736C385.039 352.514 383.806 350.88 382.212 348.822C378.069 343.498 373.619 338.431 368.886 333.648C364.135 328.879 359.112 324.4 353.842 320.231C351.821 318.629 350.154 317.362 349.001 316.508L347.68 315.498C347.527 315.394 347.384 315.275 347.254 315.142Z" fill="#BA68C8"/>
<path d="M364.554 283.626C364.686 283.535 372.959 295.302 383.05 309.907C393.14 324.511 401.218 336.426 401.086 336.516C400.954 336.607 392.679 324.851 382.59 310.236C372.502 295.621 364.411 283.716 364.554 283.626Z" fill="#BA68C8"/>
<path d="M392.121 280.37C392.368 280.934 392.567 281.52 392.715 282.121C393.095 283.34 393.591 284.969 394.182 286.937C395.429 290.993 397.197 296.593 399.296 302.719C401.394 308.845 403.466 314.335 404.986 318.287L406.792 322.977C407.037 323.54 407.239 324.122 407.397 324.719C407.091 324.187 406.824 323.632 406.598 323.059C406.109 321.987 405.435 320.41 404.635 318.423C403.015 314.5 400.898 309.025 398.789 302.898C396.68 296.77 394.96 291.134 393.815 287.038C393.248 284.986 392.8 283.321 392.517 282.158C392.344 281.574 392.211 280.976 392.121 280.37Z" fill="#BA68C8"/>
<path d="M441.224 308.749C440.857 309.034 440.458 309.274 440.036 309.462C439.279 309.894 438.173 310.498 436.791 311.205C434.047 312.645 430.195 314.556 425.885 316.513C421.575 318.47 417.615 320.112 414.728 321.235C413.283 321.802 412.107 322.23 411.298 322.523C410.88 322.694 410.449 322.825 410.01 322.914C410.376 322.665 410.769 322.462 411.181 322.309L414.551 320.858C417.4 319.642 421.324 317.95 425.634 315.994C429.945 314.037 433.765 312.188 436.591 310.847L439.897 309.255C440.323 309.044 440.768 308.874 441.224 308.749Z" fill="#BA68C8"/>
<path d="M421.53 390.843C421.504 391.011 410.173 388.692 396.231 385.682C382.289 382.673 371.018 380.099 371.055 379.932C371.091 379.765 382.412 382.083 396.363 385.105C410.313 388.127 421.623 390.661 421.53 390.843Z" fill="#BA68C8"/>
<path d="M373.947 375.164C362.603 372.193 349.38 368.409 340.183 361.125C325.644 349.54 317.643 331.578 310.145 314.368C323.553 329.542 344.881 335.324 358.745 350.067C365.581 357.337 369.732 364.933 374.291 373.882" fill="#DDB3E3"/>
<path d="M337.246 339.549C337.351 339.432 345.758 347.22 356.027 356.952C366.295 366.684 374.542 374.669 374.438 374.787C374.333 374.904 365.917 367.103 355.648 357.371C345.38 347.64 337.142 339.666 337.246 339.549Z" fill="#BA68C8"/>
<path d="M398.074 197.591L407.425 198.705L398.213 200.644L397.088 209.995L395.149 200.783L385.809 199.658L395.021 197.719L396.135 188.379L398.074 197.591Z" fill="#DDB3E3"/>
<path d="M322.962 64.7318L332.314 65.8459L323.102 67.7847L321.977 77.1362L320.038 67.924L310.697 66.8099L319.909 64.8711L321.024 55.5197L322.962 64.7318Z" fill="#DDB3E3"/>
<path d="M118.215 487.003L127.513 488.46L118.236 490.056L116.78 499.354L115.184 490.078L105.875 488.621L115.151 487.025L116.608 477.716L118.215 487.003Z" fill="#DDB3E3"/>
<path d="M155.268 164.78L165.637 166.012L155.418 168.165L154.175 178.535L152.022 168.315L141.664 167.073L151.872 164.93L153.115 154.561L155.268 164.78Z" fill="#DDB3E3"/>
<path d="M57.8227 127.493L53.3023 128.264L52.5739 132.784L51.8134 128.264L47.293 127.535L51.8134 126.775L52.5311 122.255L53.3023 126.764L57.8227 127.493Z" fill="#DDB3E3"/>
<path d="M90.8676 451.108L86.3365 451.772L85.5117 456.282L84.8476 451.751L80.3379 450.926L84.8797 450.262L85.7045 445.752L86.3687 450.283L90.8676 451.108Z" fill="#DDB3E3"/>
<path d="M146.302 184.565L141.814 185.508L141.268 190.06L140.325 185.572L135.783 185.037L140.261 184.094L140.807 179.541L141.75 184.019L146.302 184.565Z" fill="#DDB3E3"/>
<path d="M454.258 392.654L449.727 393.328L448.913 397.838L448.238 393.307L443.729 392.493L448.26 391.818L449.074 387.308L449.749 391.839L454.258 392.654Z" fill="#DDB3E3"/>
<path d="M199.642 308.87C199.642 308.87 332.081 284.412 336.076 308.87C340.072 333.329 352.572 343.286 350.576 366.446C348.58 389.607 191.085 396.996 195.077 358.946C199.068 320.896 199.642 308.87 199.642 308.87Z" fill="#FFBDA7"/>
<path d="M199.564 319.564C201.785 317.765 330.284 301.764 333.785 304.264C337.285 306.765 332.285 337.765 318.285 348.264C304.284 358.764 197.286 349.048 197.286 340.265C197.286 331.5 196.785 329.265 196.785 326.765C196.785 324.264 195.822 322.594 199.564 319.564Z" fill="#F0997A"/>
<path d="M182 444.738C182 403.275 193.435 357.321 195.428 341.071C197.422 324.822 346 337.624 347.5 340.671C349 343.719 353.605 364.582 354.687 370.688C359.799 399.519 365.623 429.417 366.853 435.794C366.853 436.118 366.986 436.429 367.031 436.753V437.051C369.179 450.831 373.375 473.311 354.688 485.303C312.574 498.7 205.456 479.179 205.456 479.179C205.456 479.179 182 479.179 182 444.738Z" fill="#455A64"/>
<path d="M246.428 397.988L260.723 486.556C253.303 485.972 245.929 484.907 238.649 483.368L233.383 408.528C233.383 408.528 199.291 396.999 197.001 366C203.486 382.238 227.657 396.527 246.428 397.988Z" fill="#37474F"/>
<path d="M339.041 105.426C339.497 105.81 339.819 106.326 339.963 106.902C340.558 108.777 339.874 111.67 340.097 113.707C340.338 115.87 340.766 118.008 341.376 120.099C342.637 124.286 344.653 128.213 347.326 131.686C351.431 137.045 357.009 141.178 360.981 146.625C363.797 150.537 365.735 155.003 366.661 159.722C367.587 164.441 367.481 169.303 366.35 173.978C364.714 166.198 357.694 160.87 351.179 156.264C359.359 167.497 360.847 182.569 357.679 196.12C355.105 206.999 346.582 215.959 337.003 221.568C328.757 226.149 319.44 228.491 309.991 228.359C311.254 226.556 312.339 224.639 313.234 222.631C313.834 221.413 314.212 220.098 314.349 218.749C314.189 217.584 314.09 216.411 314.052 215.236C306.615 224.949 294.135 229.23 282.429 232.949C280.219 233.815 277.873 234.285 275.497 234.337C273.399 234.18 271.35 233.629 269.458 232.713C259.939 228.527 252.15 221.235 247.385 212.047C246.64 218.95 248.025 225.915 251.356 232.019C250.122 231.473 248.902 230.898 247.697 230.307C218.261 215.9 191.174 183.469 205.201 149.326C206.801 145.577 208.732 141.976 210.972 138.565C214.621 132.922 218.853 127.673 223.601 122.903C227.661 118.829 232.525 115.936 235.693 111.094C237.806 107.95 240.781 100.437 240.379 96.5839L243.979 96.8938L303.328 101.78L331.886 104.142C334.177 104.363 337.36 104.024 339.041 105.426Z" fill="#DE5C20"/>
<path d="M238.893 161.549C206.838 159.025 197.735 166.199 143.696 192.548C116.179 205.936 88.7353 248.966 88.7353 248.966C88.7353 248.966 99.8911 261.454 138.565 246.486C176.851 231.724 217.235 217.184 217.235 217.184L238.893 161.549Z" fill="#F0997A"/>
<path d="M189.343 133.738C189.343 133.738 190.831 133.738 192.437 131.288C194.044 128.838 194.609 126.963 196.305 124.247C198 121.531 201.57 117.028 204.486 118.032C208.65 119.508 205.973 125.413 203.786 130.447C201.541 135.167 200.18 140.254 199.77 145.459C198.908 153.031 196.632 157.475 190.236 162.124L189.343 133.738Z" fill="#F0997A"/>
<path d="M154.612 207.442C143.025 225.539 142.266 226.794 137.179 233.673C132.3 240.286 127.198 245.585 120.029 248.434C111.714 251.682 106.076 252.981 97.717 252.331C95.2689 252.276 92.8646 251.675 90.6814 250.575C85.401 247.489 85.4605 241.718 86.6802 235.385C89.1494 222.705 93.6861 212.859 101.064 204.386C104.559 200.401 106.389 198.747 117.292 189.507C126.216 181.993 124.045 184.001 136.376 172.723C147.561 162.508 157.854 152.308 162.525 145.621C167.195 138.934 169.471 133.901 170.155 129.384C171.212 122.387 170.155 122.136 175.54 115.774C179.288 111.641 181.951 105.441 184.256 101.913C186.633 98.38 189.503 95.1993 192.779 92.4655C196.186 89.3952 199.785 84.9815 201.422 85.0849C203.058 85.1882 204.679 87.8895 203.192 90.8713C203.192 90.8713 206.077 89.4985 208.74 87.919C211.402 86.3396 213.827 83.9335 216.281 84.4501C218.735 84.9668 218.185 88.8785 216.281 90.9156C214.377 92.9527 213.128 94.0155 213.128 94.0155C213.128 94.0155 214.838 95.9935 210.911 99.4034C209.291 100.761 207.501 101.907 205.586 102.813C203.296 105.766 202.388 107.33 199.458 109.279C197.437 111.84 195.138 114.172 192.601 116.231C192.318 118.859 192.928 122.416 191.114 126.328C189.299 130.24 188.139 130.86 190.578 137.709C192.214 142.329 193.241 143.496 194.118 149.238C194.496 151.535 194.349 153.887 193.687 156.12C193.025 158.354 191.866 160.411 190.295 162.139C186.458 165.726 180.984 169.8 174.767 177.358C169.784 183.322 169.204 184.68 154.612 207.442Z" fill="#FFBDA7"/>
<path d="M203.193 90.8712C202.305 92.0839 201.31 93.2152 200.218 94.2516C199.133 95.2849 197.987 96.2886 196.842 97.2038L196.678 97.3515L196.589 97.6319C196.354 98.3938 196.065 99.1386 195.726 99.8609C195.372 100.59 194.969 101.295 194.522 101.972C193.623 103.319 192.513 104.515 191.234 105.514L190.907 105.751V106.09C190.903 106.707 190.863 107.323 190.788 107.935C190.7 108.567 190.576 109.193 190.416 109.81C190.269 110.437 190.08 111.053 189.851 111.655C189.614 112.264 189.346 112.86 189.048 113.441C190.005 112.478 190.78 111.354 191.338 110.12C191.619 109.495 191.848 108.848 192.023 108.186C192.216 107.516 192.345 106.829 192.409 106.134L192.097 106.71C193.636 105.719 194.957 104.428 195.979 102.916C196.491 102.175 196.925 101.384 197.273 100.555C197.66 99.7306 197.944 98.8633 198.121 97.9714L197.868 98.3995C199.019 97.3406 200.069 96.1794 201.007 94.9306C201.944 93.6983 202.681 92.3288 203.193 90.8712Z" fill="#F0997A"/>
<path d="M213.145 94.0006C212.397 94.4543 211.605 94.8303 210.78 95.1225C209.976 95.4104 209.15 95.6326 208.31 95.7867H208.147L207.968 95.9934C206.792 97.3622 205.436 98.5685 203.937 99.5804C202.474 100.589 200.835 101.319 199.103 101.736L198.553 101.868L198.434 102.4C198.206 103.358 197.887 104.292 197.482 105.19C197.052 106.124 196.555 107.027 195.994 107.891C195.449 108.775 194.853 109.628 194.209 110.445C193.585 111.286 192.841 112.054 192.142 112.866C193.069 112.301 193.949 111.664 194.775 110.961C195.604 110.249 196.365 109.464 197.05 108.614C197.744 107.76 198.351 106.84 198.865 105.869C199.412 104.88 199.823 103.822 200.085 102.725L199.43 103.389C200.432 103.183 201.405 102.861 202.331 102.429C203.233 102.027 204.09 101.532 204.889 100.953C205.673 100.357 206.405 99.695 207.076 98.9752C207.744 98.261 208.342 97.4849 208.861 96.6577L208.533 96.8791C209.408 96.596 210.242 96.2042 211.017 95.7129C211.809 95.2506 212.526 94.6734 213.145 94.0006Z" fill="#F0997A"/>
<path d="M188.958 120.97C188.166 122.756 187.814 124.704 187.932 126.653C188.025 128.594 188.432 130.508 189.137 132.321C189.137 131.347 189.047 130.402 188.973 129.458C188.899 128.513 188.839 127.568 188.809 126.623C188.733 124.738 188.783 122.849 188.958 120.97Z" fill="#F0997A"/>
<path d="M191.872 139.274C192.263 142.702 191.893 146.174 190.787 149.444C190.205 151.021 189.41 152.51 188.422 153.873C187.366 155.289 186.218 156.635 184.986 157.903C186.669 157.14 188.185 156.057 189.448 154.714C190.762 153.364 191.775 151.754 192.423 149.991C193.062 148.259 193.342 146.418 193.248 144.577C193.153 142.735 192.685 140.932 191.872 139.274Z" fill="#F0997A"/>
<path d="M281.836 163.586C303.955 166.228 326.028 174.48 326.028 174.48C332.157 177.639 343.878 182.2 340.144 221.096C338.85 234.381 324.214 256.523 324.645 279.758C324.943 295.715 326.425 277.327 336.004 308.636C309.364 341.495 224.747 343.603 195.504 307.644C199.252 265.781 200.815 295.508 196.874 256.081C196.874 256.081 184.483 244.271 185.867 227.842C187.25 211.413 193.304 203.323 209.249 185.831C224.496 169.195 238.894 161.549 238.894 161.549C253.238 161.283 267.584 161.963 281.836 163.586Z" fill="#BA68C8"/>
<path d="M333.878 337.054C332.204 326.355 328.195 311 314.976 311C302.532 311 279.441 328.841 268.236 333.423C267.48 333.73 266.865 333.823 266.014 333.823C265.163 333.823 264.142 333.73 263.376 333.423C252.162 328.841 229.477 311 217.043 311C203.824 311 199.815 326.355 198.141 337.054C196.127 349.923 216.116 360.547 231.794 363.108C242.129 364.794 249.41 363.713 257.211 363.862C260.152 363.918 262.828 363.862 266.005 363.862C269.182 363.862 272.567 364.123 275.508 364.067C283.309 363.918 289.88 364.794 300.206 363.108C315.893 360.547 335.873 349.923 333.859 337.054H333.878Z" fill="#D16565"/>
<path d="M265.063 360.667C273.382 360.667 280.126 354.026 280.126 345.834C280.126 337.641 273.382 331 265.063 331C256.744 331 250 337.641 250 345.834C250 354.026 256.744 360.667 265.063 360.667Z" fill="#9A4A4D" stroke="#FAFAFA" stroke-miterlimit="10"/>
<path d="M265.063 355.564C270.52 355.564 274.944 351.208 274.944 345.833C274.944 340.459 270.52 336.103 265.063 336.103C259.606 336.103 255.182 340.459 255.182 345.833C255.182 351.208 259.606 355.564 265.063 355.564Z" fill="#9A4A4D" stroke="white" stroke-miterlimit="10"/>
<path d="M270.689 345.833H272.562" stroke="white" stroke-miterlimit="10"/>
<path opacity="0.1" d="M233.373 262.561C241.688 272.421 283.039 277.617 298.82 256.449C291.829 274.163 277.386 277.853 264.698 278.282C252.01 278.71 236.66 272.687 233.373 262.561Z" fill="black"/>
<path d="M297.645 154.448C302.658 150.212 310.288 147.54 322.098 138.108C338.46 124.822 355.73 81.114 332.079 71.15C334.34 36.018 284.481 22.5999 262.169 26.8659C237.061 31.7815 231.454 48.0928 226.991 57.6286C213.842 66.1312 225.4 82.9444 225.4 82.9444L297.645 154.448Z" fill="#DE5C20"/>
<path d="M294.015 39.7823C331.558 55.8722 324.344 97.883 324.344 97.883C320.18 95.8902 315.598 95.6541 310.184 99.0787C314.646 80.4203 307.388 52.4033 277.758 43.266C250.076 34.7487 229.609 49.7167 226.962 57.6288C231.662 37.199 264.311 26.9989 294.015 39.7823Z" fill="#BA68C8"/>
<path d="M320.076 17.8615C322.705 16.9461 325.528 16.7174 328.272 17.1973C328.548 17.2369 328.813 17.3319 329.051 17.4766C329.289 17.6212 329.494 17.8125 329.655 18.0387C329.797 18.4703 329.797 18.9355 329.655 19.3672C329.033 22.1125 327.865 24.7071 326.219 26.9988C322.335 32.7548 317.169 37.5477 311.122 41.0074C305.841 44.0482 298.107 47.5762 291.919 46.9119C291.51 46.8866 291.114 46.7542 290.773 46.5281C288.081 44.6091 293.406 36.5051 294.626 34.9404C301.086 26.7309 309.993 20.7541 320.076 17.8615ZM266.156 1.21069C266.248 0.949178 266.393 0.709271 266.582 0.506046C266.772 0.302821 267.001 0.140672 267.257 0.0297863C267.708 -0.0450842 268.171 0.0220256 268.581 0.221686C271.167 1.38071 273.494 3.04205 275.423 5.1077C280.313 10.0502 283.997 16.0391 286.192 22.6147C288.126 28.3569 290.045 36.5937 288.17 42.4687C288.059 42.8589 287.849 43.2145 287.561 43.502C285.106 45.7458 278.19 38.926 276.896 37.4351C270.095 29.5166 265.983 19.6714 265.145 9.29992C264.771 6.56208 265.12 3.7749 266.156 1.21069Z" fill="#BA68C8"/>
<path d="M286.771 46.9562C267.167 36.4756 246.135 30.1725 226.961 48.2552C207.788 66.3379 226.366 85.0405 226.366 85.0405L286.771 46.9562Z" fill="#DE5C20"/>
<path d="M238.222 58.0271C234.965 60.1527 225.965 67.371 222.842 102.459C220.388 129.856 226.025 140.351 237.835 146.743C242.03 149.016 250.33 150.891 258.421 150.876L257.098 163.689C257.098 163.689 242.223 180.856 242.342 202.88C291.74 182.214 303.878 172.132 303.878 172.132L306.198 124.586C307.581 127.538 315.554 132.365 323.229 124.763C332.243 115.803 331.961 103.787 325.55 98.6061C318.916 93.2329 310.155 96.51 305.99 104.186C298.136 106.385 293.005 98.9013 297.065 70.2347C281.12 59.3999 258.54 50.2183 238.222 58.0271Z" fill="#FFBDA7"/>
<path d="M258.422 150.891C282.593 150.02 296.292 140.986 299.803 131.967C299.803 131.967 298.018 143.318 289.688 148.529C279.588 154.832 257.768 157.238 257.768 157.238L258.422 150.891Z" fill="#F0997A"/>
<path d="M278.024 95.0339C277.917 95.9549 277.536 96.8235 276.931 97.5295C276.325 98.2355 275.522 98.7471 274.623 98.9994C273.724 99.2517 272.77 99.2334 271.882 98.9467C270.993 98.66 270.211 98.1178 269.633 97.3891C269.056 96.6603 268.71 95.7778 268.638 94.8534C268.567 93.929 268.774 93.0045 269.233 92.1971C269.692 91.3897 270.383 90.7358 271.217 90.3184C272.051 89.901 272.991 89.7389 273.918 89.8527C275.155 90.0005 276.281 90.6291 277.051 91.6005C277.821 92.572 278.171 93.8068 278.024 95.0339Z" fill="#263238"/>
<path d="M242.909 92.495C242.802 93.4154 242.422 94.2837 241.818 94.9897C241.213 95.6957 240.411 96.2077 239.513 96.4609C238.615 96.714 237.661 96.6968 236.773 96.4115C235.885 96.1262 235.102 95.5857 234.523 94.8584C233.945 94.131 233.597 93.2497 233.524 92.326C233.451 91.4023 233.656 90.4779 234.112 89.6699C234.569 88.8618 235.258 88.2066 236.09 87.7871C236.922 87.3677 237.862 87.2029 238.789 87.3137C239.402 87.3852 239.995 87.5759 240.535 87.875C241.074 88.1741 241.548 88.5757 241.931 89.0569C242.313 89.5381 242.597 90.0894 242.765 90.6793C242.932 91.2693 242.981 91.8863 242.909 92.495Z" fill="#263238"/>
<path d="M259.625 86.6938L253.318 117.486L238.637 108.969L259.625 86.6938Z" fill="#F0997A"/>
<path d="M230.667 82.5901L241.867 80.2578C241.743 79.5284 241.472 78.8316 241.068 78.2096C240.665 77.5876 240.139 77.0533 239.521 76.6392C238.904 76.2251 238.208 75.9398 237.476 75.8006C236.744 75.6614 235.991 75.6712 235.263 75.8294C233.768 76.1533 232.456 77.0367 231.6 78.2957C230.744 79.5548 230.41 81.0928 230.667 82.5901Z" fill="#263238"/>
<path d="M283.366 87.4614L273.355 81.6749C273.709 81.014 274.194 80.4312 274.781 79.9615C275.368 79.4918 276.044 79.1451 276.77 78.9423C277.496 78.7395 278.255 78.6848 279.003 78.7815C279.751 78.8782 280.471 79.1243 281.12 79.505C282.454 80.2893 283.433 81.5541 283.851 83.0361C284.269 84.5182 284.096 86.1032 283.366 87.4614Z" fill="#263238"/>
<path d="M254.758 135.185L254.684 135.109C254.571 135.042 254.442 135.011 254.312 135.02C253.282 135.095 252.247 135.095 251.216 135.02C250.322 134.908 249.45 134.659 248.628 134.283C247.925 133.803 247.188 133.378 246.423 133.012C246.375 132.998 246.324 132.996 246.274 133.006C246.225 133.015 246.178 133.036 246.138 133.067C246.098 133.097 246.064 133.137 246.041 133.182C246.017 133.228 246.004 133.278 246.002 133.33C246.076 134.13 247.24 134.74 247.884 135.083C248.659 135.493 249.497 135.76 250.361 135.871C251.282 135.992 252.215 135.992 253.136 135.871C253.603 135.819 254.067 135.734 254.523 135.617C254.733 135.477 254.857 135.325 254.758 135.185Z" fill="#AF6152"/>
<path d="M241.999 65.87C241.926 64.2982 243.15 62.9651 244.734 62.8923C246.318 62.8196 247.661 64.0348 247.734 65.6065C247.808 67.1783 246.583 68.5114 244.999 68.5841C243.416 68.6569 242.072 67.4417 241.999 65.87Z" fill="#F28F8F"/>
<path d="M237.612 67.8289C237.572 68.0718 237.624 68.3209 237.759 68.5275C237.894 68.7341 238.101 68.8834 238.341 68.9462C238.581 69.0089 238.836 68.9806 239.056 68.8668C239.276 68.753 239.445 68.5618 239.531 68.3307C239.579 68.2015 239.599 68.0637 239.59 67.9262C239.581 67.7888 239.543 67.6547 239.479 67.5326C239.415 67.4105 239.326 67.303 239.217 67.217C239.109 67.1311 238.983 67.0686 238.849 67.0334C238.715 66.9983 238.575 66.9915 238.438 67.0132C238.301 67.0349 238.17 67.0849 238.053 67.1597C237.937 67.2346 237.837 67.3328 237.761 67.448C237.685 67.5633 237.634 67.693 237.612 67.8289Z" fill="#F28F8F"/>
<path d="M243.354 64.8765C243.268 65.2092 243.318 65.5622 243.494 65.8582C243.669 66.1542 243.956 66.3691 244.291 66.4559C244.456 66.5025 244.629 66.5157 244.799 66.4946C244.969 66.4736 245.134 66.4187 245.282 66.3333C245.431 66.2479 245.56 66.1337 245.664 65.9976C245.767 65.8614 245.841 65.706 245.882 65.5407C245.969 65.2061 245.919 64.8512 245.743 64.5528C245.568 64.2544 245.281 64.0366 244.945 63.9465C244.61 63.8612 244.254 63.9111 243.956 64.0854C243.658 64.2597 243.441 64.5441 243.354 64.8765Z" fill="#FAFAFA"/>
<path d="M279.916 110.297C279.913 110.906 280.092 111.502 280.431 112.009C280.77 112.516 281.253 112.912 281.819 113.146C282.385 113.38 283.008 113.442 283.61 113.324C284.211 113.206 284.764 112.913 285.197 112.483C285.631 112.053 285.926 111.504 286.045 110.907C286.164 110.311 286.101 109.692 285.865 109.13C285.629 108.569 285.23 108.089 284.719 107.753C284.208 107.417 283.608 107.239 282.995 107.242C282.178 107.242 281.395 107.564 280.818 108.137C280.24 108.71 279.916 109.487 279.916 110.297Z" fill="#F28F8F"/>
<path d="M276.243 115.464C275.659 115.464 275.187 114.995 275.187 114.416C275.187 113.837 275.659 113.368 276.243 113.368C276.826 113.368 277.299 113.837 277.299 114.416C277.299 114.995 276.826 115.464 276.243 115.464Z" fill="#F28F8F"/>
<path d="M283.634 118.844C283.634 119.189 283.737 119.525 283.93 119.812C284.123 120.098 284.397 120.321 284.718 120.453C285.038 120.585 285.391 120.62 285.732 120.552C286.072 120.485 286.385 120.319 286.63 120.076C286.876 119.832 287.043 119.522 287.111 119.184C287.179 118.846 287.144 118.496 287.011 118.178C286.878 117.859 286.653 117.587 286.364 117.396C286.076 117.204 285.736 117.102 285.389 117.102C285.159 117.102 284.931 117.147 284.718 117.235C284.505 117.322 284.311 117.451 284.148 117.612C283.985 117.774 283.856 117.966 283.768 118.178C283.68 118.389 283.634 118.615 283.634 118.844Z" fill="#F28F8F"/>
<path d="M282.578 111.168C281.806 111.168 281.18 110.547 281.18 109.781C281.18 109.014 281.806 108.393 282.578 108.393C283.351 108.393 283.977 109.014 283.977 109.781C283.977 110.547 283.351 111.168 282.578 111.168Z" fill="#FAFAFA"/>
<path d="M281.67 296.748L299.52 224.536C299.52 224.536 313.412 179.41 325.951 174.45C348.352 181.624 352.844 195.116 354.585 208.918C356.176 221.406 353.633 234.529 344.396 267.225C335.471 298.933 329.268 316.13 324.494 328.027C318.544 342.789 305.514 344.014 282.845 342.789C260.177 341.564 245.927 339.556 214.423 335.408C199.266 333.401 191.323 330.079 178.724 326.212C173.931 324.89 169.37 322.843 165.203 320.145C161.338 317.734 158.122 314.426 155.833 310.506C155.513 309.74 155.076 309.029 154.539 308.395C153.945 307.826 153.308 307.303 152.635 306.83C151.321 305.986 150.139 304.957 149.124 303.775C148.245 302.376 147.512 300.892 146.938 299.346C146.658 298.643 146.335 297.958 145.971 297.294C145.535 296.634 145.037 296.016 144.483 295.449C142.96 294.105 141.686 292.507 140.72 290.726C140.503 290.224 140.419 289.676 140.476 289.133C140.533 288.59 140.73 288.071 141.047 287.626C141.047 287.626 138.935 286.002 138.251 285.397C137.29 284.561 136.423 283.626 135.663 282.607C135.488 282.426 135.356 282.21 135.276 281.972C135.196 281.735 135.171 281.482 135.202 281.234C135.296 280.957 135.466 280.712 135.693 280.525C139.099 277.263 143.725 278.606 147.592 280.097C157.707 283.965 163.24 288.482 173.786 291.227C179.513 292.704 180.97 293.028 182.978 292.394C183.797 291.892 183.276 290.652 182.398 289.013L178.189 274.326C184.704 276.879 193.599 280.732 198.656 286.223C203.713 291.715 208.443 295.08 219.168 298.638C230.562 302.357 281.67 296.748 281.67 296.748Z" fill="#FFBDA7"/>
<path d="M281.669 296.748C290.036 295.216 298.539 294.544 307.045 294.741C307.045 294.741 300.679 290.061 282.338 292.674L281.669 296.748Z" fill="#F0997A"/>
<path d="M141.302 288.098C143.37 289.84 145.586 291.375 147.803 292.895C150.019 294.416 152.265 295.848 154.511 297.324C155.627 298.062 156.712 298.8 157.902 299.567C159.092 300.335 160.252 300.926 161.457 301.531C163.867 302.756 166.321 303.893 168.895 304.882L165.384 302.859C164.209 302.21 163.034 301.546 161.874 300.852C160.714 300.158 159.568 299.494 158.453 298.77C157.337 298.047 156.251 297.294 155.121 296.497C152.875 295.021 150.584 293.545 148.279 292.202L141.302 288.098Z" fill="#F0997A"/>
<path d="M145.808 297.058C147.143 298.705 148.637 300.218 150.27 301.575C151.862 302.918 153.528 304.173 155.208 305.384C156.889 306.594 158.63 307.731 160.414 308.808C162.18 309.914 164.019 310.9 165.918 311.76C164.207 310.58 162.541 309.354 160.846 308.159L155.803 304.572L150.761 300.985C149.021 299.745 147.384 298.401 145.808 297.058Z" fill="#F0997A"/>
<path d="M258 339.378H260.629" stroke="white" stroke-miterlimit="10"/>
<path d="M259.312 338V340.868" stroke="white" stroke-miterlimit="10"/>
</svg>
