<svg width="183" height="350" viewBox="0 0 183 350" fill="none" xmlns="http://www.w3.org/2000/svg">
<path d="M181.954 22.0828C181.954 33.7099 172.355 43.1656 160.477 43.1656C148.599 43.1656 139 33.7099 139 22.0828C139 10.4557 148.599 1 160.477 1C172.355 1 181.954 10.4557 181.954 22.0828Z" stroke="#AE7864" stroke-width="2"/>
<path d="M136.815 57.0131C136.815 63.6198 131.288 69.0261 124.407 69.0261C117.527 69.0261 112 63.6198 112 57.0131C112 50.4064 117.527 45 124.407 45C131.288 45 136.815 50.4064 136.815 57.0131Z" stroke="#AE7864" stroke-width="2"/>
<circle cx="98.915" cy="69.915" r="4.91503" stroke="#AE7864" stroke-width="2"/>
<path d="M81.6661 205.43C80.5704 183.127 76.8448 168.229 73.0097 162.76C67.6735 171.209 56.3434 187.857 56.3434 187.857L46.9858 208.79C46.9858 208.79 50.1744 228.679 52.6508 236.4C44.9806 245.099 42.6248 249.72 39.1841 258.463C36.5763 265.086 34.4943 276.058 32.1385 285.649C30.4181 292.652 29.5635 293.413 28.2267 294.348C27.4597 294.913 26.5064 295.544 26.5064 295.544C26.5064 295.544 20.0524 298.099 20.3812 302.069C20.6113 304.928 22.6822 308.278 20.2935 313.758C17.4665 320.283 16.2392 322.034 19.121 326.666C21.5974 330.635 26.9885 334.832 32.6425 335.191C33.1554 335.057 33.611 334.762 33.9425 334.351C34.2739 333.94 34.4635 333.434 34.4834 332.908C34.4834 330.276 33.3876 329.276 32.5768 326.481C31.7659 323.686 32.5768 318.967 33.1466 315.792C33.7164 312.617 35.9188 308.713 37.6391 305.896C39.3594 303.08 41.4413 299.774 44.367 295.653C47.9062 290.672 73.9521 253.592 78.1268 245.784C82.3016 237.976 82.8276 228.712 81.6661 205.43Z" fill="#9A4A4D"/>
<path d="M68.4624 334.985C66.4196 332.626 64.753 329.971 63.5206 327.112C61.603 322.577 61.7345 316.412 61.9537 309.028C62.1728 301.645 63.2686 287.28 63.8164 275.623C65.1751 246.665 66.1394 243.381 65.1094 230.919C64.0794 218.457 61.7236 199.471 61.7236 199.471C61.7236 199.471 67.5639 196.937 72.177 186.194C74.478 180.833 75.8806 170.611 73.0097 162.76C73.0097 162.76 71.7058 168.273 56.3873 167.632C43.7534 167.294 36.3023 162.423 36.3023 162.423C35.3709 165.968 29.2896 171.546 24.2491 179.887C22.3097 183.149 18.9019 188.532 20.3483 199.46C21.3564 207.159 23.4054 210.976 27.1747 223.188C31.0975 235.878 38.5157 257.191 38.5157 257.191C36.8283 267.054 35.4586 269.772 38.9321 287.541C40.0278 293.359 42.2193 298.959 44.1369 304.57C45.7147 309.344 47.2817 314.128 46.5694 319.25C46.0983 322.599 43.4027 325.361 43.5561 328.841C43.7534 333.191 48.7171 334.963 51.1387 337.986C51.8827 338.946 52.5356 339.973 53.0891 341.053C53.8107 342.646 54.6956 344.162 55.7298 345.576C57.1105 347.262 58.8418 347.751 60.8798 348.382C63.704 349.095 66.6114 349.432 69.5252 349.382C72.2975 349.382 75.2122 349.382 77.6009 347.979C79.3212 346.979 78.9158 344.717 77.6009 343.434C75.004 340.857 71.9469 338.812 69.4376 336.127C69.1527 335.779 68.8021 335.387 68.4624 334.985Z" fill="#B16668"/>
<path d="M61.722 199.471C59.9457 192.108 56.1758 185.366 50.8193 179.974C45.7789 175.048 36.2788 168.806 30.0002 171.633C31.4609 169.421 33.0525 167.297 34.7667 165.272C41.6699 166.522 55.3667 174.482 64.8777 173.971C75.5393 173.417 72.9862 162.738 72.9862 162.738C74.5364 164.871 75.653 167.283 76.2734 169.839C76.2515 182.779 72.1863 194.534 61.722 199.471Z" fill="#DDB3E3"/>
<path d="M49.3414 141.284C48.5285 141.03 47.7341 140.721 46.9636 140.359C43.7531 139.196 40.8604 139.141 38.2854 136.553C36.9705 135.238 35.9514 133.585 34.3188 132.704C31.8643 131.366 28.84 132.128 26.0568 131.812C23.5602 131.443 21.2775 130.204 19.6171 128.318C17.9568 126.431 17.0274 124.019 16.9951 121.514C16.5509 121.802 16.2365 122.25 16.118 122.763C15.9995 123.276 16.086 123.814 16.3595 124.266C15.208 123.31 14.4623 121.958 14.2714 120.48C14.0804 119.003 14.4583 117.508 15.3295 116.295C16.5567 114.707 18.6825 113.663 19.066 111.695C19.4166 109.901 18.1237 108.226 17.7621 106.432C17.1046 103.17 19.4714 100.212 21.8492 97.9392C24.227 95.6665 26.9773 93.2851 27.3279 90.0228C27.3718 88.3432 27.2433 86.6636 26.9444 85.0098C26.4623 79.1595 31.7985 73.4832 37.2115 71.9608C38.4466 71.72 39.6441 71.3178 40.7727 70.7647C41.4788 70.2648 42.1454 69.7122 42.7669 69.1118C46.4267 65.9474 51.7739 65.3928 56.5514 66.2954C60.1783 66.9805 63.8491 68.579 65.4379 72.1783C66.0378 73.8822 66.5138 75.6265 66.8623 77.3979C66.9856 78.1815 67.2902 78.9261 67.7522 79.5732C68.2142 80.2204 68.821 80.7525 69.525 81.1277C71.3832 82.1256 72.9469 83.5874 74.0614 85.3687C74.6066 86.262 74.9102 87.28 74.9428 88.3239C74.9755 89.3679 74.736 90.4025 74.2477 91.3277C73.3163 92.8718 71.4864 93.981 71.3439 95.7752C71.3424 96.4273 71.5379 97.0649 71.9051 97.6057C72.2723 98.1465 72.7943 98.5657 73.4039 98.8091C74.6494 99.2589 76.0179 99.2395 77.25 98.7547C76.7636 99.9449 75.8989 100.945 74.7873 101.602C73.6757 102.26 72.3781 102.539 71.0919 102.398C72.0111 102.591 72.8648 103.015 73.571 103.63C74.2771 104.245 74.812 105.03 75.1243 105.91C75.4176 106.793 75.4539 107.739 75.2291 108.642C75.0042 109.544 74.5273 110.365 73.8532 111.01C73.1435 111.496 72.5055 112.078 71.9575 112.739C71.7302 113.209 71.6121 113.724 71.6121 114.245C71.6121 114.766 71.7302 115.281 71.9575 115.751C72.352 116.719 72.9437 117.589 73.3163 118.567C73.7836 119.912 73.8015 121.371 73.3672 122.726C72.9329 124.082 72.0697 125.262 70.9056 126.092C69.9304 126.745 70.2044 126.462 69.1086 126.875C67.6403 127.441 65.8981 127.756 65.0434 129.05C64.1887 130.344 64.7257 132.399 64.6599 134.128C64.8681 134.063 64.5065 133.258 64.5613 133.454C64.7916 134.453 64.6267 135.502 64.1007 136.384C63.5747 137.267 62.7277 137.915 61.7343 138.195C59.2141 138.804 56.7048 138.913 54.2065 139.391C52.8149 139.663 51.8835 140.968 50.5139 141.251C50.1303 141.348 49.7298 141.359 49.3414 141.284Z" fill="#263238"/>
<path d="M123.073 93.7091C122.203 93.6512 121.336 93.8559 120.585 94.2963C119.426 95.0636 118.327 95.9179 117.298 96.8518C115.611 98.1241 112.915 100.212 110.724 100.451C110.285 100.451 109.365 100.451 109.869 99.8422C110.575 99.0626 111.21 98.222 111.765 97.3302C112.045 96.8859 112.227 96.3881 112.301 95.8692C112.374 95.3503 112.337 94.8219 112.192 94.3181C112.098 94.0114 111.896 93.7488 111.622 93.5787C111.228 93.3721 111.009 93.5787 110.757 93.8288C110.49 94.0914 110.204 94.3349 109.902 94.5573L108.083 96.0036C104.566 98.8526 101.103 102.082 99.4376 106.378C99.1965 106.997 97.9036 111.815 97.016 114.544C96.3257 117.023 91.4058 132.639 91.4058 132.639C91.4058 132.639 79.3526 122.558 75.4518 119.416C71.2003 116.001 67.2775 114.49 61.2071 115.37L68.3733 134.868C68.3733 134.868 84.6012 146.634 87.0009 147.841C90.5402 149.624 97.268 152.886 100.599 148.417C104.675 142.98 105.114 134.639 105.968 128.528C106.922 121.645 107.064 118.404 107.864 116.24C108.664 114.076 110.548 113.641 111.798 112.978C113.551 112.184 115.185 111.152 116.652 109.912C117.986 108.888 119.176 107.692 120.191 106.356C120.757 105.761 121.186 105.053 121.451 104.279C121.43 103.604 121.452 102.928 121.517 102.256C121.714 101.495 122.284 100.843 122.404 100.081C122.422 99.4568 122.363 98.8324 122.229 98.2219C122.216 97.7792 122.299 97.3388 122.47 96.9301C122.642 96.5214 122.9 96.1536 123.226 95.8514C123.544 95.5286 123.784 95.1381 123.927 94.7096C124.169 93.981 123.654 93.7091 123.073 93.7091Z" fill="#B16668"/>
<path d="M91.4618 132.595C90.553 135.778 90.695 139.166 91.8672 142.262C88.6676 137.239 89.588 133.476 90.2674 131.584L91.4618 132.595Z" fill="#9A4A4D"/>
<path d="M108.642 102.615C108.026 105.154 106.701 107.468 104.818 109.292C106.162 108.931 107.329 108.101 108.105 106.954C108.492 106.307 108.74 105.587 108.832 104.841C108.925 104.094 108.86 103.336 108.642 102.615Z" fill="#9A4A4D"/>
<path d="M73.8182 130.997C67.5067 122.504 63.2443 117.208 61.3048 115.327C56.4287 115.773 44.2989 115.458 44.2989 115.458C44.2989 115.458 38.8202 116.175 34.2509 117.295C29.6817 118.415 29.0242 120.862 29.079 124.69C29.4682 131.643 30.432 138.554 31.9608 145.351C33.5496 152.528 36.4205 156.475 36.3438 162.369C50.5884 170.72 74.388 174.841 73.0621 162.445C73.9305 157.481 74.2975 152.443 74.1579 147.406C78.771 141.11 76.2508 134.237 73.8182 130.997Z" fill="#B16668"/>
<path d="M28.8957 95.0903C29.7503 93.47 32.0514 92.3065 33.8046 93.2199C35.5578 94.1334 35.8098 95.1012 36.5878 96.3082C37.3657 97.5152 39.9627 97.1999 40.1928 92.0781C40.401 87.3044 40.0832 83.3788 41.7268 80.7038C43.9183 77.1153 48.8711 77.8547 51.5885 79.1488C52.8377 76.8326 54.9305 75.7778 57.4069 76.8652C59.8833 77.9526 61.9761 81.3236 63.4992 90.2295C65.0442 99.3095 63.2363 105.453 61.242 107.117C59.4049 108.693 57.0923 109.619 54.6675 109.749L55.0949 112.696C55.3798 114.316 55.9824 115.719 59.4779 115.838C57.7466 118.013 47.5233 122.743 42.3843 121.841C37.2452 120.938 33.7169 117.371 35.9632 116.893C37.9465 116.48 39.8641 115.381 39.4258 112.543L37.815 102.3C37.6079 102.725 37.3006 103.094 36.9191 103.376C36.5376 103.658 36.0932 103.845 35.6235 103.92C34.7866 104.108 33.9142 104.07 33.0971 103.81C32.2799 103.55 31.548 103.077 30.9776 102.441C28.3149 99.8314 27.8657 97.0476 28.8957 95.0903Z" fill="#B16668"/>
<path d="M55.9713 115.808C55.9713 115.808 37.5145 116.281 32.8613 118.233C30.7301 119.122 27.9933 122.537 30.0874 134.853C31.4481 142.902 34.2726 159.814 34.2726 159.814C30.7282 167.627 30.0874 169.05 28.2813 177.42C28.2813 177.42 31.5267 177.933 53.3913 176.692C72.6233 175.596 77.7734 175.964 77.7734 175.964L74.4138 161.344C74.4138 161.344 73.8211 153.513 73.8453 148.73C73.8453 148.73 78.3798 144.834 78.5263 139.59C78.6834 134.102 77.2028 132.131 72.3325 125.86C69.5273 122.25 66.2812 119 62.6689 116.185L55.9713 115.808Z" fill="#BA68C8"/>
<path d="M49.4839 91.6864C49.3384 92.0339 49.074 92.3193 48.7372 92.4924C48.4005 92.6654 48.013 92.715 47.6431 92.6324C47.4698 92.6225 47.3008 92.5752 47.1478 92.4939C46.9949 92.4126 46.8616 92.2991 46.7573 92.1614C46.653 92.0238 46.5802 91.8652 46.5439 91.6968C46.5077 91.5284 46.5088 91.3541 46.5473 91.1862C46.6929 90.8387 46.9573 90.5533 47.294 90.3802C47.6307 90.2072 48.0182 90.1576 48.3882 90.2401C48.5614 90.2501 48.7304 90.2973 48.8834 90.3787C49.0364 90.46 49.1697 90.5735 49.274 90.7111C49.3783 90.8488 49.451 91.0074 49.4873 91.1758C49.5236 91.3442 49.5224 91.5185 49.4839 91.6864Z" fill="#263238"/>
<path d="M47.7637 90.2295C46.8213 90.3274 46.3502 91.6431 45.3969 91.2082C45.4768 91.3769 45.5908 91.5275 45.7319 91.6506C45.8729 91.7737 46.038 91.8667 46.2168 91.9238C46.3956 91.9809 46.5844 92.0009 46.7713 91.9826C46.9583 91.9642 47.1394 91.9079 47.3034 91.8171C47.7637 91.5344 47.7637 90.2295 47.7637 90.2295Z" fill="#263238"/>
<path d="M61.0213 86.9134L57.6573 85.5215C57.7383 85.3003 57.8637 85.0978 58.0258 84.9261C58.188 84.7544 58.3836 84.6171 58.6007 84.5225C58.8179 84.428 59.0521 84.3782 59.2892 84.376C59.5263 84.3739 59.7614 84.4196 59.9803 84.5102C60.4305 84.7028 60.7892 85.0592 60.9828 85.5062C61.1764 85.9531 61.1902 86.4567 61.0213 86.9134Z" fill="#263238"/>
<path d="M57.4718 90.5988C57.6854 90.9092 58.0025 91.1349 58.3672 91.2364C58.7319 91.3378 59.121 91.3084 59.466 91.1534C59.6357 91.1085 59.7935 91.0278 59.9287 90.9166C60.0639 90.8055 60.1733 90.6667 60.2493 90.5096C60.3253 90.3526 60.3661 90.1811 60.369 90.0069C60.3719 89.8327 60.3367 89.66 60.2659 89.5005C60.0504 89.1893 59.7314 88.9632 59.3648 88.8618C58.9982 88.7604 58.6074 88.7902 58.2607 88.9459C58.091 88.9904 57.9332 89.0711 57.7982 89.1824C57.6632 89.2938 57.5543 89.433 57.4791 89.5904C57.404 89.7478 57.3644 89.9196 57.3632 90.0938C57.3619 90.268 57.399 90.4403 57.4718 90.5988Z" fill="#263238"/>
<path d="M58.8059 88.8271C59.7483 88.7292 60.4824 89.9145 61.3262 89.2947C61.282 89.476 61.2011 89.6464 61.0882 89.7956C60.9754 89.9447 60.8331 90.0694 60.67 90.162C60.5068 90.2547 60.3264 90.3133 60.1396 90.3343C59.9529 90.3553 59.7638 90.3383 59.5839 90.2842C59.1237 90.1211 58.8059 88.8271 58.8059 88.8271Z" fill="#263238"/>
<path d="M48.1699 86.5324L44.6855 88.2722C44.5606 88.0516 44.4822 87.808 44.455 87.5564C44.4278 87.3047 44.4523 87.0502 44.5271 86.8083C44.6019 86.5663 44.7254 86.3419 44.8901 86.1487C45.0548 85.9555 45.2573 85.7975 45.4854 85.6842C45.9568 85.4554 46.499 85.4158 46.9991 85.5738C47.4992 85.7318 47.9186 86.0752 48.1699 86.5324Z" fill="#263238"/>
<path d="M48.948 99.7656L54.1309 100.853C54.0581 101.211 53.9108 101.55 53.6985 101.848C53.4861 102.146 53.2134 102.396 52.8977 102.584C52.5821 102.771 52.2304 102.891 51.8654 102.936C51.5004 102.98 51.1299 102.949 50.7779 102.843C50.4492 102.769 50.1392 102.629 49.867 102.431C49.5948 102.234 49.3659 101.984 49.1946 101.696C49.0233 101.408 48.9131 101.088 48.8707 100.756C48.8283 100.424 48.8546 100.087 48.948 99.7656Z" fill="#9A4A4D"/>
<path d="M52.2324 102.779C52.0918 102.103 51.7007 101.505 51.1365 101.102C50.5723 100.699 49.8763 100.521 49.1863 100.604C49.1007 100.619 49.0165 100.641 48.9343 100.669C48.9739 101.165 49.1749 101.634 49.507 102.007C49.839 102.38 50.2841 102.635 50.7751 102.735C51.2497 102.87 51.7505 102.884 52.2324 102.779Z" fill="#FFA8A7"/>
<path d="M52.3214 88.6309L54.4252 97.3519L58.8301 95.275L52.3214 88.6309Z" fill="#9A4A4D"/>
<path d="M54.71 109.749C51.6014 109.865 48.5002 109.373 45.5825 108.302C43.391 107.53 41.5063 105.149 40.564 102.941C40.6695 104.279 41.1005 105.572 41.8199 106.708C42.5394 107.845 43.526 108.791 44.6949 109.466C48.4972 111.728 55.0059 111.793 55.0059 111.793L54.71 109.749Z" fill="#9A4A4D"/>
<path d="M32.9944 101.669C33.0234 101.904 33.1217 102.126 33.2769 102.306C33.4322 102.487 33.6375 102.618 33.8673 102.683C34.0971 102.748 34.3412 102.745 34.569 102.673C34.7969 102.601 34.9984 102.465 35.1485 102.28C35.2985 102.096 35.3904 101.871 35.4127 101.635C35.4349 101.399 35.3866 101.161 35.2737 100.952C35.1608 100.743 34.9884 100.572 34.7779 100.459C34.5674 100.347 34.3281 100.299 34.0901 100.321C33.9286 100.337 33.772 100.385 33.6292 100.461C33.4865 100.538 33.3605 100.642 33.2586 100.768C33.1567 100.893 33.0808 101.037 33.0355 101.192C32.9901 101.347 32.9762 101.509 32.9944 101.669Z" fill="#FAFAFA"/>
<path d="M24.6451 196.134C23.5493 194.938 22.1249 193.883 21.6646 192.263C21.5302 191.849 21.4959 191.41 21.5645 190.982C21.633 190.553 21.8025 190.146 22.0591 189.794C22.1872 189.667 22.2878 189.515 22.355 189.348C22.3826 189.201 22.3826 189.05 22.355 188.902C22.1963 188.293 22.2385 187.649 22.4755 187.065C22.5903 186.824 22.7551 186.611 22.9591 186.439C23.1631 186.266 23.4016 186.139 23.6589 186.064C23.3572 185.161 23.3572 184.184 23.6589 183.281C24.0315 182.193 25.1272 181.378 25.8504 182.563C26.1878 183.151 26.4667 183.77 26.6832 184.411C27.24 186.009 27.6077 187.666 27.7789 189.348C27.9652 191.088 28.3816 196.036 25.6532 196.275C25.4011 196.286 24.7546 196.297 24.6451 196.134Z" fill="#9A4A4D"/>
<path d="M36.01 116.894C24.5156 119.134 25.721 121.45 19.4643 129.997C13.2076 138.544 4.67175 149.831 2.72133 153.985C0.299735 159.14 -0.204314 161.108 5.35111 166.599C8.211 169.427 12.1995 172.798 16.3085 176.604C19.5191 179.605 23.3761 182.791 26.477 185.89C26.8923 186.227 27.204 186.672 27.3764 187.176C27.5488 187.68 27.5751 188.221 27.4522 188.739C27.2276 189.424 27.041 190.121 26.8934 190.827C26.8998 191.756 26.9767 192.683 27.1235 193.6C27.191 194.059 27.1235 194.528 26.9292 194.951C26.7348 195.373 26.4219 195.731 26.0278 195.981C25.6056 196.141 25.1498 196.193 24.7019 196.134C25.4798 196.725 26.3446 197.194 27.266 197.525C28.1974 197.853 29.2195 197.819 30.1259 197.428C30.9805 197.014 31.6161 196.21 32.5255 195.938C33.0186 195.796 33.5446 195.818 34.0377 195.688C34.5532 195.558 35.0114 195.264 35.3416 194.85C35.8566 194.198 36.0758 193.274 36.8099 192.871C37.1605 192.686 37.5769 192.654 37.9056 192.502C38.2761 192.329 38.5986 192.07 38.845 191.746C39.0914 191.422 39.2541 191.043 39.3192 190.642C39.4613 189.844 39.4613 189.027 39.3192 188.228C38.9922 186.078 38.5496 183.948 37.9933 181.845C37.7638 181.137 37.4115 180.475 36.9524 179.888C36.4593 179.181 35.9881 178.452 35.4621 177.778C31.8462 173.222 20.4176 157.998 20.4176 157.998L36.536 140.469C36.536 140.469 42.8146 131.769 36.01 116.894Z" fill="#B16668"/>
<path d="M24.6455 196.134C26.4644 197.504 29.1709 198.483 31.0227 196.656C31.477 196.25 32.0157 195.95 32.6006 195.775C33.784 195.634 34.9345 195.449 35.4714 194.274C35.7169 193.701 36.0918 193.191 36.5672 192.784C37.1479 192.415 37.7834 192.469 38.1889 192.132C38.6228 191.795 38.9313 191.325 39.0654 190.795C39.449 188.054 38.3642 184.955 37.7944 182.247C37.389 180.54 36.0741 179.279 35.1427 177.822L33.017 175.005C28.886 169.568 24.3715 163.489 20.3611 157.998C24.5797 163.316 29.2038 169.307 33.3566 174.733L35.5481 177.539C36.5124 179.007 37.904 180.366 38.2875 182.128C38.671 183.889 39.0874 185.575 39.3832 187.326C39.6743 188.497 39.7191 189.714 39.5147 190.903C39.3561 191.521 38.9887 192.066 38.4737 192.447C37.9259 192.861 37.2356 192.806 36.8192 193.089C36.3931 193.46 36.056 193.92 35.833 194.437C35.5422 194.991 35.0764 195.434 34.5071 195.699C33.9331 195.874 33.3416 195.987 32.743 196.036C31.5925 196.286 30.8364 197.428 29.664 197.7C27.856 198.156 26.1028 197.167 24.7222 196.134H24.6455Z" fill="#9A4A4D"/>
<path d="M20.3723 157.998C17.1728 161.108 12.22 161.347 10.3901 161.26C12.216 162.014 14.2199 162.239 16.1691 161.908C18.1184 161.577 19.933 160.704 21.4023 159.39L20.3723 157.998Z" fill="#9A4A4D"/>
<path opacity="0.2" d="M61.6348 145.336C60.288 147.373 58.3796 148.983 56.1367 149.974C53.8938 150.965 51.4112 151.295 48.9846 150.926C46.6353 150.674 44.3938 149.815 42.4845 148.434C40.5752 147.052 39.0651 145.197 38.1054 143.055C38.1054 143.055 37.7204 152.214 48.8086 153.109C59.8967 154.004 61.6348 145.336 61.6348 145.336Z" fill="black"/>
</svg>
