<svg width="528" height="621" viewBox="0 0 528 621" fill="none" xmlns="http://www.w3.org/2000/svg">
<ellipse cx="261.879" cy="219.431" rx="261.879" ry="219.431" transform="matrix(-1 0 0 1 527.758 0)" fill="#BA68C8"/>
<ellipse cx="37.1321" cy="34.0392" rx="37.1321" ry="34.0392" transform="matrix(-0.945955 -0.324298 -0.324298 0.945955 92.3281 383.084)" fill="#BA68C8"/>
<ellipse cx="22.149" cy="20.0588" rx="22.149" ry="20.0588" transform="matrix(-0.945955 -0.324298 -0.324298 0.945955 80.4082 474.098)" fill="#BA68C8"/>
<ellipse cx="9.77161" cy="9.11765" rx="9.77161" ry="9.11765" transform="matrix(-0.945955 -0.324298 -0.324298 0.945955 81.1543 532.185)" fill="#BA68C8"/>
<path d="M200.151 559.117C200.239 559.084 200.319 559.034 200.387 558.968C200.456 558.903 200.51 558.824 200.548 558.736C210.629 533.317 237.913 521.102 249.568 515.904C251.45 515.065 252.936 514.392 253.915 513.871C258.324 511.519 261.11 507.516 261.346 503.144C261.428 501.127 260.989 499.125 260.073 497.339C259.157 495.553 257.797 494.048 256.132 492.976C247.462 486.735 228.6 494.323 213.304 510.248C191.878 532.567 192.473 554.122 192.485 554.338C192.487 554.451 192.517 554.561 192.571 554.658C192.625 554.756 192.702 554.838 192.795 554.898L199.557 559.105C199.632 559.153 199.717 559.183 199.805 559.194C199.925 559.21 200.048 559.183 200.151 559.117ZM214.283 511.151C229.145 495.683 247.202 488.159 255.413 494.031C256.896 494.98 258.108 496.314 258.926 497.899C259.743 499.484 260.138 501.263 260.07 503.055C259.845 505.119 259.105 507.088 257.92 508.771C256.735 510.455 255.146 511.795 253.308 512.663C252.367 513.172 250.831 513.82 249.035 514.659C237.344 519.882 210.121 532.033 199.619 557.49L193.835 553.881C193.86 551.021 194.789 531.461 214.283 511.151Z" fill="#DDB3E3"/>
<path d="M196 556.779H195.914C195.746 556.731 195.604 556.618 195.518 556.463C195.432 556.308 195.41 556.125 195.455 555.953C203.976 525.17 233.254 502.127 248.922 500.386C249.007 500.375 249.094 500.382 249.177 500.407C249.26 500.431 249.337 500.473 249.404 500.528C249.471 500.584 249.526 500.653 249.567 500.731C249.607 500.809 249.632 500.895 249.64 500.983C249.65 501.072 249.643 501.161 249.62 501.247C249.596 501.333 249.556 501.413 249.502 501.483C249.447 501.553 249.38 501.611 249.304 501.654C249.228 501.696 249.144 501.723 249.058 501.733C233.576 503.461 204.781 527.152 196.731 556.27C196.693 556.433 196.597 556.576 196.461 556.67C196.326 556.764 196.162 556.802 196 556.779Z" fill="#DDB3E3"/>
<path d="M193.079 554.936C192.986 554.921 192.898 554.886 192.819 554.834L188.298 551.746C188.209 551.684 188.135 551.601 188.083 551.504C188.031 551.406 188.003 551.297 188.001 551.187C188.001 550.869 187.865 518.942 205.935 481.613C215.137 462.549 232.29 446.598 246.719 443.561C253.654 442.099 259.636 443.497 264.491 447.742C267.241 450.131 268.603 452.826 268.553 455.749C268.405 463.833 257.605 472.564 246.161 481.817C238.161 488.299 229.887 494.984 225.045 501.657C224.995 501.729 224.931 501.79 224.857 501.836C224.783 501.883 224.701 501.913 224.615 501.926C224.53 501.939 224.443 501.935 224.359 501.912C224.275 501.89 224.197 501.851 224.128 501.796C224.058 501.744 223.998 501.677 223.953 501.6C223.907 501.523 223.877 501.438 223.865 501.349C223.852 501.261 223.857 501.17 223.879 501.083C223.9 500.996 223.939 500.915 223.992 500.843C228.946 494.031 237.281 487.282 245.344 480.749C256.49 471.713 267.092 463.159 267.228 455.724C267.228 453.182 266.101 450.919 263.637 448.771C259.104 444.819 253.506 443.51 246.991 444.882C232.922 447.844 216.165 463.553 207.124 482.223C190.206 517.137 189.364 547.234 189.326 550.856L193.55 553.741C193.694 553.842 193.795 553.997 193.829 554.173C193.864 554.348 193.83 554.531 193.735 554.682C193.658 554.78 193.556 554.856 193.441 554.9C193.326 554.945 193.201 554.957 193.079 554.936Z" fill="#DDB3E3"/>
<path d="M197.351 535.96C197.179 535.921 197.029 535.813 196.934 535.661C196.839 535.508 196.806 535.324 196.843 535.147C207.061 486.71 243.906 456.842 253.467 452.711C253.549 452.677 253.636 452.66 253.724 452.66C253.812 452.66 253.899 452.679 253.98 452.713C254.061 452.748 254.134 452.799 254.196 452.863C254.258 452.927 254.307 453.003 254.341 453.086C254.374 453.17 254.391 453.259 254.391 453.349C254.39 453.44 254.373 453.529 254.339 453.612C254.305 453.695 254.255 453.771 254.193 453.834C254.131 453.898 254.057 453.948 253.975 453.982C244.587 458.062 208.237 487.549 198.131 535.465C198.087 535.634 197.982 535.779 197.837 535.871C197.692 535.964 197.518 535.995 197.351 535.96Z" fill="#DDB3E3"/>
<path d="M441.215 552.735C439.555 532.653 441.103 524.201 439.109 492.846C438.874 484.801 438.49 476.184 437.871 468.533C435.79 442.795 431.802 434.026 431.381 429.069C431.381 429.069 431.381 398.184 429.115 341.829C428.037 315.329 420.445 307.386 414.253 293.38L338.394 294.244C334.382 329.336 334.617 394.422 335.261 430.238C335.595 448.477 343.757 539.11 343.93 541.359C344.525 549.316 343.93 552.468 340.871 555.849C334.543 562.941 325.341 569.728 317.34 575.93C318.578 579.056 328.189 578.828 332.945 576.387C339.166 572.985 345.088 569.034 350.643 564.58C357.182 559.496 365.567 555.429 365.579 547.841C365.612 547.383 365.683 546.928 365.79 546.481C365.864 542.046 375.401 483.543 376.07 468.38C376.639 455.34 374.831 433.25 374.831 433.25L381.606 388.322C381.606 388.322 385.903 411.695 391.291 433.911C395.687 451.997 403.416 475.853 408.37 498.121C413.188 523.769 420.036 541.995 421.337 554.844C421.721 557.92 425.473 588.03 426.96 594.918C428.446 601.807 443.184 601.82 444.001 589.936C444.534 582.005 441.524 556.509 441.215 552.735Z" fill="#C8856A"/>
<path d="M303.804 584.077C303.408 584.077 302.789 588.665 305.043 590.622C307.606 592.872 315.124 596.571 325.044 595.249C334.965 593.927 340.34 590.8 344.303 587.407C348.266 584.013 353.84 579.222 358.323 578.205C362.497 577.264 366.992 575.333 368.355 574.011C369.717 572.689 369.494 566.855 369.494 566.855L303.804 584.077Z" fill="#263238"/>
<path d="M365.976 544.321C365.976 544.321 366.719 544.321 366.979 545.706C367.289 547.32 367.623 552.061 368.28 554.603C369.196 558.276 369.815 565.813 369.27 568.813C368.725 571.812 361.926 573.896 357.591 575.587C352.483 577.872 347.739 580.936 343.522 584.674C338.865 588.602 329.056 592.542 322.591 592.643C312.683 592.796 306.317 590.101 304.336 586.441C301.859 581.954 303.803 579.362 315.148 573.985C317.29 572.969 324.833 568.406 327.409 566.754C330.132 565.015 332.713 563.051 335.125 560.882C336.334 559.774 337.488 558.603 338.58 557.374C339.714 556.282 340.683 555.023 341.454 553.637C341.578 553.319 341.664 552.964 341.776 552.646C342.097 551.766 342.345 550.861 342.519 549.939C342.705 548.973 342.816 547.562 343.757 546.99C345.042 546.449 346.447 546.278 347.82 546.494C349.29 546.598 350.751 546.811 352.191 547.13C353.863 547.511 355.796 547.664 356.786 549.265C357.446 550.557 357.77 552.001 357.728 553.459C357.728 554.133 357.728 554.819 357.728 555.493C357.728 555.785 357.604 556.306 358 556.179C358.396 556.052 358.805 555.048 358.941 554.705C359.251 553.955 359.461 553.141 359.796 552.392C360.176 551.523 360.65 550.7 361.208 549.939C361.739 549.251 362.341 548.625 363.004 548.07C363.678 547.691 364.328 547.267 364.948 546.799C365.522 546.096 365.88 545.233 365.976 544.321Z" fill="#37474F"/>
<path d="M313.315 574.926C327.619 575.917 332.128 584.929 332.734 590.508C329.482 591.765 326.061 592.502 322.591 592.694C312.683 592.847 305.908 590.152 303.939 586.492C301.623 582.272 303.184 578.853 313.315 574.926Z" fill="#FAFAFA"/>
<path d="M334.753 575.066C334.913 575.066 335.067 575.008 335.187 574.9C335.258 574.841 335.317 574.768 335.36 574.686C335.404 574.603 335.431 574.513 335.44 574.42C335.449 574.326 335.44 574.232 335.414 574.142C335.387 574.052 335.344 573.969 335.286 573.896C333.615 572.136 331.598 570.761 329.368 569.865C327.138 568.969 324.748 568.571 322.356 568.698C322.265 568.708 322.176 568.736 322.096 568.78C322.015 568.825 321.944 568.886 321.886 568.959C321.828 569.033 321.786 569.117 321.76 569.207C321.734 569.298 321.726 569.393 321.737 569.486C321.746 569.58 321.773 569.671 321.817 569.753C321.861 569.836 321.92 569.909 321.991 569.968C322.063 570.028 322.145 570.072 322.233 570.098C322.321 570.124 322.413 570.132 322.505 570.122C324.661 570.021 326.815 570.38 328.829 571.176C330.843 571.972 332.675 573.189 334.208 574.748C334.268 574.842 334.348 574.92 334.443 574.975C334.538 575.03 334.644 575.061 334.753 575.066Z" fill="#F0F0F0"/>
<path d="M340.895 571.393C341.056 571.395 341.213 571.341 341.341 571.24C341.412 571.181 341.471 571.108 341.514 571.026C341.558 570.943 341.585 570.853 341.594 570.759C341.603 570.666 341.594 570.572 341.568 570.482C341.542 570.392 341.498 570.309 341.44 570.236C339.771 568.473 337.753 567.098 335.523 566.201C333.293 565.305 330.902 564.908 328.51 565.038C328.415 565.041 328.321 565.064 328.234 565.105C328.147 565.147 328.07 565.207 328.007 565.281C327.944 565.355 327.897 565.442 327.868 565.536C327.84 565.629 327.83 565.728 327.84 565.826C327.851 565.923 327.881 566.018 327.928 566.103C327.976 566.188 328.04 566.262 328.117 566.321C328.194 566.379 328.282 566.421 328.375 566.443C328.468 566.465 328.565 566.467 328.659 566.449C330.82 566.353 332.977 566.72 334.992 567.528C337.007 568.335 338.837 569.565 340.363 571.138C340.429 571.218 340.51 571.281 340.602 571.325C340.694 571.369 340.794 571.392 340.895 571.393Z" fill="#F0F0F0"/>
<path d="M346.607 567.211C346.766 567.212 346.92 567.153 347.04 567.046C347.111 566.987 347.17 566.914 347.214 566.831C347.257 566.749 347.284 566.658 347.293 566.565C347.303 566.472 347.294 566.377 347.267 566.288C347.241 566.198 347.197 566.114 347.139 566.042C345.468 564.283 343.45 562.909 341.22 562.013C338.991 561.116 336.601 560.718 334.21 560.844C334.026 560.866 333.859 560.961 333.744 561.108C333.628 561.255 333.573 561.443 333.59 561.632C333.6 561.725 333.627 561.816 333.67 561.899C333.714 561.982 333.774 562.055 333.845 562.114C333.916 562.173 333.998 562.217 334.087 562.243C334.175 562.27 334.267 562.278 334.358 562.267C336.518 562.174 338.673 562.541 340.688 563.346C342.703 564.151 344.532 565.376 346.062 566.944C346.127 567.029 346.21 567.097 346.304 567.143C346.399 567.189 346.502 567.213 346.607 567.211Z" fill="#F0F0F0"/>
<path d="M352.191 563.03C352.35 563.029 352.504 562.971 352.625 562.864C352.766 562.747 352.857 562.578 352.878 562.392C352.899 562.207 352.848 562.02 352.736 561.873C349.987 558.34 343.794 556.014 338.605 556.599C338.514 556.608 338.426 556.636 338.346 556.681C338.266 556.726 338.196 556.787 338.139 556.861C338.082 556.934 338.041 557.019 338.016 557.109C337.992 557.199 337.986 557.294 337.998 557.387C338.007 557.48 338.035 557.571 338.078 557.654C338.122 557.737 338.181 557.81 338.253 557.869C338.324 557.928 338.406 557.972 338.494 557.998C338.583 558.025 338.675 558.033 338.766 558.022C343.435 557.501 349.207 559.623 351.634 562.75C351.701 562.836 351.785 562.906 351.882 562.955C351.978 563.003 352.084 563.029 352.191 563.03Z" fill="#F0F0F0"/>
<path d="M422.39 600.345C422.861 607.221 423.963 611.784 426.403 615.788C428.843 619.791 433.363 621.011 437.921 619.778C442.479 618.546 448.3 615.317 449.538 609.357C450.777 603.396 451.495 599.329 450.381 592.961L422.39 600.345Z" fill="#263238"/>
<path d="M440.967 550.282C442.85 550.409 443.444 559.649 444.683 568.889C445.921 578.79 448.906 582.869 450.045 590.978C451.284 600.256 449.872 604.425 446.751 610.043C443.63 615.661 432.409 621.342 426.749 613.36C422.142 606.853 421.869 599.583 422.167 590.292C422.313 582.448 422.023 574.602 421.3 566.792C420.841 559.839 419.256 552.811 420.891 552.048C421.027 553.065 421.163 554.362 421.3 555.366C421.381 556.62 421.601 557.861 421.956 559.064C422.154 559.585 422.575 560.119 422.736 559.28C422.823 558.703 422.823 558.116 422.736 557.539C422.427 554.997 423.69 554.768 424.371 554.552C427.236 553.944 430.13 553.49 433.041 553.192C434.477 553.078 439.444 552.798 440.1 553.624C440.524 554.452 440.749 555.371 440.757 556.306C440.942 557.704 441.264 558.721 441.301 558.289C441.376 557.285 441.165 554.679 441.128 554.057C441.091 553.434 440.992 552.633 440.979 552.023C440.967 551.413 441.079 550.866 440.967 550.282Z" fill="#37474F"/>
<path d="M450.714 596.354C451.11 601.322 449.933 606.288 447.358 610.513C444.224 616.169 432.099 621.837 426.439 613.856C423.628 609.89 422.823 605.162 422.389 600.345C425.659 594.105 445.388 591.143 450.714 596.354Z" fill="#FAFAFA"/>
<path d="M426.379 590.19H426.614C426.689 590.19 435.358 586.377 443.867 588.271C444.047 588.309 444.235 588.273 444.39 588.171C444.545 588.069 444.655 587.909 444.696 587.725C444.716 587.633 444.718 587.539 444.702 587.447C444.686 587.356 444.652 587.268 444.602 587.19C444.553 587.112 444.488 587.045 444.413 586.992C444.338 586.94 444.253 586.904 444.164 586.886C435.172 584.865 426.329 588.741 425.995 588.907C425.831 588.991 425.706 589.138 425.646 589.316C425.586 589.494 425.595 589.689 425.673 589.86C425.746 589.98 425.852 590.075 425.978 590.133C426.103 590.192 426.243 590.212 426.379 590.19Z" fill="#F0F0F0"/>
<path d="M443.358 581.293C443.491 581.278 443.617 581.224 443.722 581.139C443.827 581.054 443.907 580.94 443.952 580.81C444.007 580.63 443.991 580.435 443.908 580.266C443.825 580.098 443.681 579.969 443.506 579.908C435.022 577.086 425.709 581.573 425.362 581.764C425.28 581.806 425.208 581.866 425.149 581.938C425.09 582.01 425.046 582.094 425.019 582.184C424.992 582.275 424.984 582.369 424.994 582.463C425.004 582.557 425.032 582.647 425.077 582.73C425.166 582.894 425.314 583.017 425.49 583.072C425.666 583.126 425.855 583.108 426.019 583.022C426.093 583.022 435.183 578.624 443.073 581.255C443.163 581.292 443.261 581.305 443.358 581.293Z" fill="#F0F0F0"/>
<path d="M442.988 574.748C443.142 574.729 443.285 574.657 443.395 574.544C443.504 574.432 443.574 574.285 443.593 574.126C443.611 573.968 443.578 573.808 443.497 573.672C443.416 573.536 443.294 573.431 443.149 573.375C433.823 570.084 424.98 574.977 424.658 575.18C424.575 575.227 424.502 575.29 424.444 575.366C424.386 575.442 424.344 575.53 424.32 575.623C424.296 575.717 424.291 575.815 424.305 575.91C424.319 576.006 424.352 576.098 424.401 576.18C424.451 576.262 424.517 576.333 424.594 576.388C424.671 576.444 424.759 576.482 424.851 576.502C424.944 576.521 425.039 576.521 425.131 576.501C425.224 576.482 425.311 576.443 425.388 576.388C425.463 576.388 434.058 571.66 442.727 574.723C442.812 574.746 442.9 574.754 442.988 574.748Z" fill="#F0F0F0"/>
<path d="M442.454 568.393C442.584 568.379 442.708 568.327 442.811 568.244C442.914 568.161 442.992 568.05 443.036 567.923C443.096 567.744 443.085 567.548 443.007 567.377C442.928 567.206 442.787 567.074 442.615 567.008C433.871 563.792 424.359 568.8 424.037 569.028C423.88 569.124 423.767 569.279 423.72 569.459C423.674 569.64 423.699 569.832 423.789 569.994C423.885 570.159 424.04 570.279 424.221 570.327C424.402 570.374 424.594 570.346 424.755 570.249C424.83 570.249 434.057 565.355 442.181 568.355C442.268 568.387 442.361 568.4 442.454 568.393Z" fill="#EBEBEB"/>
<path d="M422.193 293.558C430.862 309.229 431.234 322.078 432.633 368.939C434.033 415.8 432.893 419.778 433.129 425.409C433.364 431.039 436.72 441.118 439.866 468.927C441.742 486.879 441.966 504.973 440.535 522.969C440.535 522.969 438.628 527.468 428.15 528.548C418.539 529.539 413.734 525.904 413.734 525.904C413.734 525.904 399.441 478.878 395.602 462.089C391.763 445.299 381.681 399.532 381.681 399.532L376.727 433.962C376.727 433.962 379.836 449.303 377.185 473.756C375.689 487.963 373.373 502.066 370.25 515.991C365.281 517.905 360.026 518.924 354.719 519.003C349.99 519.059 345.337 517.78 341.269 515.305C341.269 515.305 332.884 450.04 332.599 422.358C332.314 394.676 334.395 328.052 336.624 294.803L422.193 293.558Z" fill="#2E4C5B"/>
<path d="M392.754 433.81C392.754 433.81 396.829 427.658 406.972 426.285C417.116 424.913 422.478 430.492 422.478 430.492C422.478 430.492 403.591 428.675 392.754 433.81ZM423.717 434.572C410.638 437.368 404.656 436.898 398.65 435.754C398.6 435.754 417.438 433.098 423.63 434.572H423.717Z" fill="#C8856A"/>
<path d="M332.86 429.577L332.736 426.578C341.479 425.307 355.45 428.014 359.215 430.175C350.472 429.055 341.642 428.855 332.86 429.577ZM353.035 433.67C347.189 435.348 333.219 436.212 333.219 436.212L333.045 433.403C333.045 433.403 343.04 433.047 353.035 433.67Z" fill="#C8856A"/>
<path d="M438.751 524.989C438.304 525.343 437.832 525.662 437.339 525.942C439.494 482.157 433.4 464.084 429.648 447.371C429.288 445.769 428.942 444.244 428.632 442.795C425.796 429.73 426.787 421.913 426.576 400.396C426.576 393.914 426.452 387.216 426.316 380.06C426.143 371.735 425.796 363.131 425.078 354.641C410.116 352.988 406.698 337.965 402.388 318.99C401.806 316.448 401.15 313.715 400.53 310.957L401.856 310.627C402.524 313.385 403.094 316.079 403.713 318.672C408.036 337.737 411.144 351.501 424.941 353.204C423.096 333.86 418.972 315.151 409.51 301.705L410.612 300.891C424.681 320.896 427.146 352.137 427.716 380.06C427.852 387.178 427.914 393.876 427.976 400.396C428.186 421.837 427.195 429.628 429.994 442.503C430.316 443.952 430.651 445.477 431.01 447.079C434.713 463.716 440.782 481.649 438.751 524.989ZM372.516 350.701L381.742 399.531L376.788 433.962L376.293 400.917L370.1 367.986C369.915 371.265 369.729 374.633 369.543 378.065C367.97 406.382 367.066 428.116 368.552 434.852C372.738 453.306 371.698 464.987 369.791 486.212C369.593 488.36 369.394 490.609 369.196 492.973C368.168 504.959 366.831 509.814 366.051 517.529C365.617 517.643 365.146 517.77 364.639 517.885C365.419 510.182 366.794 505.086 367.834 492.846C368.045 490.482 368.243 488.233 368.428 486.085C370.299 465.012 371.327 453.408 367.19 435.169C365.617 428.23 366.496 407.78 368.144 377.976C368.441 372.574 368.738 367.338 368.998 362.343L367.685 356.407C361.134 354.882 350.594 349.9 348.575 340.711C358.805 351.311 372.516 350.701 372.516 350.701Z" fill="#263238"/>
<path d="M356.984 202.785C343.658 205.403 337.255 209.788 330.319 221.849C323.384 233.911 312.98 264.325 313.117 271.163H340.834L356.984 202.785Z" fill="#C8856A"/>
<path d="M339.201 260.322C333.293 258.695 328.934 257.538 325.837 257.614C328.314 255.924 339.461 257.881 339.461 257.881L339.201 260.322Z" fill="#AF6152"/>
<path d="M357.641 201.908C348.203 202.67 341.342 205.365 335.05 213.27C328.759 221.176 328.214 224.239 324.882 232.881C321.551 241.524 319.284 247.281 319.284 247.281C319.284 247.281 325.625 258.936 346.222 257.182L353.554 234.635L357.641 201.908Z" fill="#F9FAF9"/>
<path d="M406.773 199.264C406.773 199.264 418.712 202.492 430.626 206.89C430.626 206.89 443.693 212.317 436.559 251.73C434.751 261.669 431.085 276.133 430.081 288.423C429.512 295.401 429.958 312.228 430.862 326.552C430.862 326.552 409.683 340.889 370.794 336.44C340.265 332.932 335.311 319.155 335.311 319.155C335.311 319.155 336.55 283.873 339.089 260.563C342.742 227.098 349.269 208.377 357.666 201.819L375.005 199.912L406.773 199.264Z" fill="#F9FAF9"/>
<path d="M420.446 173.908C417.549 179.596 413.838 184.806 409.435 189.363C408.123 190.854 406.298 191.766 404.345 191.905L407.305 180.034L409.572 171.849C409.572 171.849 404.457 164.223 405.237 158.135C405.509 155.854 406.097 153.624 406.983 151.514L367.735 145.159C367.735 145.159 366.422 134.254 373.284 127.505C379.848 121.036 388.146 117.858 400.964 121.595C416.606 126.17 423.034 136.097 422.663 143.074C425.058 144.791 426.731 147.375 427.344 150.306C428.124 153.636 427.988 159.317 420.446 173.908Z" fill="#263238"/>
<path d="M416.57 184.889C416.169 185.071 415.755 185.22 415.331 185.334C414.21 185.691 413.026 185.79 411.863 185.626C410.888 185.344 409.995 184.82 409.262 184.101C408.402 183.392 407.673 182.531 407.107 181.559L406.686 204.043C396.109 217.286 360.267 213.651 375.043 200.408L374.609 192.286C372.885 191.842 371.195 191.264 369.556 190.558C366.94 189.565 364.667 187.801 363.024 185.488C361.38 183.175 360.439 180.416 360.317 177.556C359.945 168.24 365.902 149.505 369.593 139.427C370.161 137.908 371.048 136.536 372.191 135.409C373.334 134.282 374.705 133.428 376.207 132.906C383.279 131.14 388.096 137.19 396.134 142.82C399.453 145.159 408.185 147.904 410.773 147.281C408.722 149.082 407.332 151.548 406.835 154.271C406.435 156.263 406.38 158.311 406.674 160.321C407.108 162.1 407.377 163.917 407.479 165.748C407.363 166.587 407.496 167.442 407.863 168.201C408.217 168.597 408.69 168.86 409.206 168.947C409.722 169.035 410.252 168.942 410.711 168.684C411.615 168.152 412.447 167.503 413.188 166.752C414.235 165.812 415.526 165.207 416.904 165.011C418.215 164.969 419.509 165.334 420.614 166.06C421.719 166.786 422.585 167.838 423.096 169.078C424.074 171.613 424.101 174.43 423.171 176.984C422.666 178.7 421.818 180.289 420.682 181.65C419.545 183.011 418.145 184.115 416.57 184.889Z" fill="#C8856A"/>
<path d="M374.594 192.261C381.53 193.837 387.884 194.383 392.367 193.532C396.85 192.68 401.755 187.8 404.207 182.385C403.191 186.974 399.451 194.638 392.491 196.57C385.53 198.501 379.363 197.065 374.805 196.112L374.594 192.261Z" fill="#AF6152"/>
<path d="M392.665 149.302L397.087 154.221C397.723 153.584 398.096 152.721 398.129 151.81C398.161 150.899 397.85 150.01 397.26 149.328C396.967 149.005 396.612 148.747 396.218 148.57C395.824 148.393 395.398 148.3 394.968 148.298C394.538 148.295 394.112 148.383 393.716 148.556C393.32 148.729 392.962 148.983 392.665 149.302Z" fill="#263238"/>
<path d="M369.566 147.701L376.13 147.993C376.176 147.555 376.134 147.113 376.007 146.692C375.88 146.272 375.67 145.883 375.39 145.549C375.11 145.216 374.767 144.945 374.38 144.753C373.994 144.561 373.574 144.453 373.145 144.434C372.256 144.408 371.389 144.732 370.724 145.339C370.059 145.946 369.645 146.791 369.566 147.701Z" fill="#263238"/>
<path d="M393.421 159.483C393.262 159.993 392.958 160.444 392.549 160.779C392.14 161.113 391.644 161.316 391.124 161.361C390.603 161.407 390.08 161.294 389.622 161.035C389.164 160.777 388.79 160.386 388.548 159.91C388.306 159.435 388.207 158.897 388.262 158.363C388.318 157.83 388.525 157.325 388.86 156.912C389.194 156.5 389.639 156.198 390.14 156.045C390.641 155.892 391.175 155.894 391.675 156.051C392.01 156.158 392.32 156.332 392.589 156.562C392.858 156.793 393.08 157.076 393.242 157.395C393.405 157.714 393.504 158.062 393.535 158.42C393.565 158.779 393.527 159.14 393.421 159.483Z" fill="#263238"/>
<path d="M374.498 153.585C374.336 154.095 374.031 154.544 373.622 154.876C373.212 155.208 372.716 155.409 372.196 155.453C371.676 155.497 371.154 155.382 370.697 155.124C370.24 154.865 369.868 154.473 369.627 153.998C369.386 153.522 369.287 152.985 369.343 152.452C369.398 151.919 369.606 151.415 369.94 151.003C370.274 150.591 370.719 150.29 371.219 150.136C371.719 149.983 372.252 149.985 372.752 150.141C373.087 150.248 373.399 150.422 373.669 150.654C373.939 150.885 374.162 151.169 374.324 151.489C374.487 151.81 374.586 152.16 374.615 152.52C374.645 152.879 374.605 153.241 374.498 153.585Z" fill="#263238"/>
<path d="M383.488 152.975L377.692 169.498L369.134 163.651C373.079 159.034 377.984 155.385 383.488 152.975Z" fill="#AF6152"/>
<path d="M377.654 176.501L377.728 176.425C377.841 176.358 377.97 176.327 378.1 176.336C379.131 176.41 380.165 176.41 381.196 176.336C382.09 176.223 382.962 175.975 383.785 175.598C384.487 175.119 385.224 174.694 385.989 174.327C386.038 174.314 386.088 174.312 386.138 174.322C386.187 174.331 386.234 174.352 386.274 174.382C386.315 174.413 386.348 174.452 386.371 174.498C386.395 174.543 386.408 174.594 386.41 174.645C386.336 175.446 385.172 176.056 384.528 176.399C383.753 176.809 382.915 177.076 382.051 177.187C381.13 177.308 380.197 177.308 379.276 177.187C378.809 177.134 378.346 177.05 377.889 176.933C377.679 176.793 377.555 176.641 377.654 176.501Z" fill="#AF6152"/>
<path d="M411.863 297.676C410.513 297.676 409.176 297.676 407.838 297.752C404.38 297.835 400.92 297.733 397.472 297.447C395.317 297.256 393.174 296.977 391.044 296.583C389.104 296.308 387.187 295.883 385.31 295.312C381.594 293.952 377.965 292.401 374.361 290.851C370.757 289.3 366.063 289.059 362.298 288.728C353.443 287.978 345.541 288.004 336.748 286.631C331.606 285.846 326.6 284.305 321.886 282.055C318.85 280.522 316.258 278.2 314.368 275.319C312.015 271.506 313.266 268.964 316.548 266.664C319.359 264.669 327.546 260.487 339.237 260.309C344.823 261.809 351.362 264.058 357.555 266.13C363.363 268.087 367.772 269.689 373.655 271.214C376.218 271.767 378.856 271.845 381.445 271.443C383.923 271.087 386.04 270.299 388.418 269.905C391.438 269.175 394.512 268.703 397.608 268.494C402.884 268.494 408.284 270.235 411.863 270.731C415.442 271.227 415.207 273.273 412.507 274.785C411.096 275.377 409.564 275.599 408.049 275.434C406.352 275.434 404.655 275.307 402.958 275.434C402.562 275.434 401.782 275.434 401.571 275.828C401.361 276.222 401.906 276.768 402.277 276.946C404.395 277.95 406.748 277.671 409.015 277.658H416.446C417.436 277.658 418.44 277.658 419.43 277.658C420.83 277.747 422.267 277.963 423.047 279.297C423.303 279.691 423.429 280.159 423.406 280.632C423.406 281.026 423.183 281.356 423.617 281.649C423.972 281.83 424.36 281.934 424.756 281.954C425.174 282.046 425.565 282.239 425.895 282.518C426.225 282.797 426.486 283.153 426.654 283.556C426.823 283.959 426.895 284.398 426.864 284.836C426.833 285.274 426.701 285.697 426.477 286.072C426.107 286.605 425.619 287.04 425.053 287.343C424.765 287.477 424.504 287.667 424.285 287.902C424.133 288.123 424.016 288.367 423.939 288.626C423.667 289.289 423.242 289.873 422.7 290.329C421.689 291.092 420.503 291.573 419.257 291.728C418.217 291.918 417.164 292.045 416.111 292.16C414.687 292.325 413.263 292.554 411.826 292.744L409.981 292.96L409.052 293.062C408.753 293.063 408.457 293.11 408.172 293.202C408.346 293.38 409.064 293.304 409.324 293.316L410.649 293.405C411.492 293.469 412.334 293.558 413.126 293.698C413.704 293.783 414.264 293.963 414.786 294.231C415.241 294.432 415.614 294.79 415.84 295.242C416.066 295.694 416.131 296.213 416.024 296.71C415.931 296.893 415.795 297.051 415.629 297.168C415.463 297.285 415.271 297.359 415.071 297.383C414.703 297.463 414.331 297.518 413.956 297.549C413.362 297.676 412.606 297.676 411.863 297.676Z" fill="#C8856A"/>
<path d="M388.257 284.14C385.982 280.059 384.222 275.699 383.018 271.163C384.851 270.769 386.572 270.223 388.43 269.892C391.45 269.162 394.524 268.69 397.62 268.481C402.896 268.481 408.296 270.223 411.875 270.718C415.454 271.214 415.219 273.26 412.519 274.773C411.108 275.364 409.576 275.587 408.06 275.421C406.364 275.421 404.667 275.294 402.97 275.421C402.574 275.421 401.793 275.421 401.583 275.815C401.372 276.209 401.917 276.755 402.289 276.933C404.407 277.937 406.76 277.658 409.026 277.645H416.457C417.448 277.645 418.451 277.645 419.442 277.645C420.842 277.734 422.278 277.95 423.059 279.285C423.315 279.678 423.441 280.146 423.418 280.619C423.418 280.95 423.269 281.242 423.492 281.496C422.952 281.845 422.492 282.309 422.142 282.856L419.764 287.038C421.756 287.26 423.768 287.209 425.746 286.885C425.532 287.065 425.304 287.226 425.065 287.368C424.795 287.5 424.549 287.676 424.334 287.889C422.826 288.212 421.341 288.636 419.888 289.16C418.579 289.932 417.417 290.939 416.457 292.134H416.135C414.711 292.299 413.287 292.528 411.85 292.719L410.005 292.935L409.076 293.037C408.778 293.038 408.481 293.085 408.197 293.176C408.37 293.354 409.088 293.278 409.348 293.291L410.674 293.38C411.516 293.443 412.358 293.532 413.151 293.672C413.573 293.747 413.987 293.862 414.389 294.015C410.203 297.332 404.357 298.908 399.453 296.621C398.829 296.333 398.224 296.002 397.644 295.629C393.483 292.935 390.672 288.486 388.257 284.14Z" fill="#AF6152"/>
<path d="M404.42 296.24C409.374 295.795 413.795 295.388 420.929 283.631C426.465 274.531 429.375 268.545 434.825 255.81C440.274 243.075 444.324 234.203 443.816 226.094C443.408 219.473 441.76 212.292 430.441 207.805C423.629 212.254 414.241 224.811 409.894 236.161C405.547 247.51 397.856 268.71 397.856 268.71L404.42 296.24Z" fill="#C8856A"/>
<path d="M430.626 207.297C442.417 212.241 446.727 221.404 443.445 235.004C439.791 250.256 429.821 270.591 429.821 270.591C429.821 270.591 423.158 270.909 414.773 265.342C409.665 261.868 405.657 256.938 403.243 251.158C403.243 251.158 407.441 239.058 409.72 232.614C414.216 219.867 422.118 209.368 430.626 207.297Z" fill="#F9FAF9"/>
<path d="M416.371 271.201C416.024 257.5 409.943 249.162 405.299 238.906C400.654 228.649 398.103 222.472 396.394 216.257C394.685 210.042 393.806 201.005 394.635 196.404C395.331 192.893 396.305 189.446 397.546 186.097C398.388 183.809 397.484 183.555 395.366 183.657C393.248 183.758 390.969 184.788 389 188.74C387.031 192.693 386.523 195.095 385.594 194.905C384.665 194.714 380.058 189.198 377.371 186.605C374.683 184.012 373.655 183.936 369.494 183.415C366.178 182.909 362.802 182.987 359.511 183.644C357.802 184.19 355.288 186.669 354.26 187.457C352.824 188.601 355.251 190.698 357.976 189.706L360.651 188.728C359.598 189.567 359.672 190.723 359.511 192.159C359.457 193.128 359.752 194.082 360.341 194.841C360.341 194.841 359.35 195.146 358.979 196.964C358.756 198.055 358.799 199.185 359.103 200.255C358.795 200.217 358.484 200.275 358.209 200.422C357.935 200.57 357.711 200.8 357.567 201.082C356.96 202.098 356.155 203.738 359.722 207.068C363.289 210.398 365.915 212.635 368.986 215.24C371.038 216.845 372.828 218.776 374.287 220.96C376.157 223.756 376.764 228.471 377.916 236.059C380.566 252.886 381.074 257.068 383.885 267.35C386.015 275.167 388.517 283.263 396.803 292.02C404.11 299.747 408.965 295.299 411.826 289.757C414.601 283.971 416.15 277.647 416.371 271.201Z" fill="#C8856A"/>
<path d="M416.37 271.201C416.68 258.491 409.559 247.599 404.704 236.466C402.156 230.892 399.882 225.191 397.892 219.384C395.471 212.147 394.535 204.475 395.143 196.849C395.852 193.09 396.884 189.402 398.226 185.83C399.465 182.144 394.313 182.856 392.455 183.936C388.938 186.008 387.934 190.291 386.262 193.723C386.126 194.015 385.817 194.574 385.693 194.498C382.089 191.587 379.352 187.419 375.487 184.686C374.13 183.915 372.616 183.48 371.066 183.415C368.066 182.994 365.03 182.909 362.013 183.161C358.792 183.161 356.501 185.563 354.272 187.597C356.576 185.69 358.879 183.39 362.037 183.491C365.027 183.33 368.025 183.501 370.979 184C372.438 184.097 373.856 184.531 375.128 185.271C378.98 188.092 381.531 192.375 385.321 195.362C386.845 196.023 387.538 193.024 388.095 192.058C389.334 189.427 390.411 186.338 392.975 184.889C394.208 184.258 395.607 184.052 396.963 184.305C397.57 184.457 397.285 184.991 397.186 185.499C395.39 190.583 393.545 195.921 393.743 201.399C393.743 213.969 398.697 225.738 403.886 236.872C409.076 248.006 416.16 258.479 416.383 271.189L416.37 271.201Z" fill="#AF6152"/>
<path d="M371.375 190.355C368.229 188.563 363.944 186.288 360.6 188.829C362.338 188.244 364.217 188.271 365.938 188.906C367.536 189.376 369.765 189.986 371.375 190.355Z" fill="#AF6152"/>
<path d="M368.453 197.269C366.074 195.555 363.19 194.738 360.291 194.956C362.952 195.935 365.68 196.708 368.453 197.269Z" fill="#AF6152"/>
<path d="M366.162 203.967C363.89 202.572 361.512 201.365 359.053 200.357C360.911 202.414 363.441 203.699 366.162 203.967Z" fill="#AF6152"/>
<path d="M180.068 211.692C190.834 213.507 194.592 215.668 203.452 226.107C210.115 233.932 227.381 256.735 227.381 256.735C227.381 256.735 233.063 286.6 226.545 287.073C222.831 287.368 219.147 286.209 216.27 283.841C206.32 275.326 189.037 255.482 189.037 255.482L180.068 211.692Z" fill="#C8856A"/>
<path d="M226.346 255.355C222.624 259.168 217.922 276.797 217.922 276.797C216.304 272.336 216.051 267.495 217.195 262.89C218.483 258.687 220.539 254.759 223.259 251.307L226.346 255.355Z" fill="#AF6152"/>
<path d="M284.498 230.537C285.642 228.068 289.346 228.903 291.07 227.196C291.322 226.964 291.508 226.669 291.608 226.342C291.708 226.014 291.718 225.666 291.639 225.333C291.559 225 291.392 224.694 291.155 224.447C290.918 224.2 290.619 224.021 290.29 223.928C288.713 223.619 287.091 223.619 285.515 223.928C283.681 223.922 281.869 223.532 280.195 222.784C276.564 221.332 272.207 220.315 268.848 222.893C269.708 223.2 270.53 223.602 271.299 224.092C275.711 226.216 280.123 228.358 284.498 230.537Z" fill="#AF6152"/>
<path d="M298.641 229.03L297.315 229.665L295.609 230.5C295.333 230.628 295.066 230.773 294.81 230.936C294.683 230.936 294.156 231.499 294.047 231.463C292.296 230.872 290.444 230.637 288.601 230.773C286.295 231.154 285.823 231.608 282.628 229.339C280.485 227.813 277.871 225.036 275.039 223.729C272.206 222.421 269.32 221.677 266.342 224.437C263.365 227.196 261.876 229.066 258.699 231.699C253.42 236.047 247.924 240.125 242.232 243.917C233.154 250.326 225.493 254.248 219.901 263.652C217.65 267.447 213.419 281.335 216.27 283.841C220.318 287.381 229.832 289.923 239.363 281.172C243.726 277.206 247.825 272.961 251.636 268.463C255.503 264.015 257.083 261.71 262.62 255.246C268.158 248.783 271.299 245.479 274.548 243.572C277.326 241.938 281.048 242.211 283.626 242.32C286.903 242.581 290.199 242.186 293.321 241.158C296.535 240.323 298.586 239.342 300.783 238.725C302.964 237.783 305.015 236.562 306.883 235.094L310.514 232.897C310.925 232.696 311.285 232.404 311.567 232.044C311.694 231.808 311.422 231.281 311.331 231.009C311.216 230.759 311.049 230.536 310.841 230.355C311.308 230.303 311.767 230.187 312.203 230.01C312.589 229.874 312.983 229.759 313.383 229.665C313.673 229.665 314 229.411 314 229.103C313.989 228.918 313.912 228.744 313.782 228.612C313.278 228.03 312.605 227.618 311.858 227.432C310.839 227.296 309.808 227.296 308.789 227.432C308.64 227.468 308.485 227.468 308.336 227.432C308.158 227.347 307.993 227.237 307.845 227.105C307.302 226.773 306.65 226.669 306.03 226.815C304.94 227.099 303.867 227.445 302.816 227.85C302.163 228.05 301.491 228.14 300.837 228.322C300.086 228.494 299.351 228.731 298.641 229.03Z" fill="#C8856A"/>
<path d="M291.071 232.643C290.032 232.777 288.976 232.672 287.985 232.334C287.14 232.039 286.34 231.63 285.606 231.118C284.744 230.906 283.927 230.543 283.192 230.047C281.539 228.903 279.742 227.287 277.872 225.871C276.208 225.22 274.389 225.075 272.643 225.453C271.772 225.694 270.936 226.048 270.156 226.506C269.348 227.119 268.578 227.78 267.85 228.485C268.307 227.616 268.923 226.84 269.666 226.198C270.45 225.564 271.35 225.089 272.317 224.8C274.099 224.42 275.959 224.725 277.527 225.653C274.005 223.039 270.265 221.205 266.289 224.437C269.158 221.205 273.714 222.349 276.928 224.437C280.141 226.524 282.502 229.774 286.115 230.628C287.037 230.607 287.955 230.497 288.856 230.301C290.59 230.242 292.32 230.506 293.958 231.081L294.194 230.9C296.634 229.333 299.352 228.248 302.2 227.705C304.016 227.414 305.995 225.889 307.647 227.051C305.831 226.143 304.016 227.559 302.2 227.977C299.366 228.631 296.68 229.813 294.284 231.463C294.117 231.587 293.912 231.651 293.704 231.644C292.196 231.106 290.602 230.848 289.001 230.882C288.054 231.061 287.096 231.176 286.133 231.227L286.532 231.372L287.966 231.88C288.981 232.21 290.019 232.465 291.071 232.643ZM298.206 233.569C298.572 233.642 298.948 233.642 299.314 233.569C299.575 233.465 299.819 233.325 300.04 233.151C301.062 232.499 302.241 232.136 303.453 232.098C303.73 232.143 304.011 232.143 304.288 232.098C304.551 231.988 304.801 231.848 305.032 231.681C305.935 231.151 306.925 230.788 307.955 230.609C308.21 230.539 308.472 230.496 308.736 230.482C308.88 230.456 309.028 230.456 309.172 230.482C308.281 230.56 307.409 230.787 306.594 231.154C305.861 231.548 305.162 232.004 304.506 232.516H304.397H304.234C303.808 232.526 303.384 232.562 302.963 232.625C302.539 232.702 302.121 232.805 301.71 232.933C300.89 233.178 300.117 233.559 299.422 234.059L299.205 234.222H299.041C298.719 234.129 298.392 234.056 298.061 234.004C297.725 233.946 297.385 233.916 297.044 233.914H296.009L294.956 234.077C295.955 233.557 297.096 233.379 298.206 233.569ZM307.502 227.686C307.701 227.686 307.937 227.686 308.119 227.577C307.483 227.836 306.875 228.159 306.303 228.54C306.176 228.617 306.042 228.684 305.904 228.739L305.468 228.866C304.707 229.007 303.964 229.233 303.253 229.538C302.509 229.911 301.839 230.416 301.274 231.027L301.111 231.208H300.857C300.413 231.08 299.956 231.001 299.495 230.972C299.024 230.936 298.55 230.936 298.079 230.972C297.592 230.994 297.108 231.042 296.627 231.118C296.138 231.188 295.653 231.285 295.174 231.408C296.308 230.868 297.55 230.595 298.805 230.609C299.205 230.609 299.604 230.609 300.003 230.7C300.403 230.791 300.766 230.864 301.02 230.7L301.129 230.591C301.675 229.893 302.423 229.379 303.271 229.121C304.07 228.866 304.924 228.866 305.704 228.558C306.104 228.413 306.449 228.195 306.83 228.013C307.047 227.891 307.271 227.782 307.502 227.686Z" fill="#AF6152"/>
<path d="M171.155 538.234L168.777 514.378L198.352 511.527C198.352 511.527 197.008 530.354 197.099 538.978C197.099 543.045 199.949 550.724 199.949 550.724C199.949 550.724 188.239 556.661 182.23 554.138C176.22 551.614 172.299 542.046 172.462 540.303L171.155 538.234Z" fill="#C8856A"/>
<path d="M233.516 579.918C233.916 579.918 234.079 583.749 231.701 585.528C225.417 589.472 217.876 590.898 210.586 589.523C200.655 587.707 195.408 584.348 191.614 580.826C187.819 577.304 182.536 572.348 177.997 571.113C173.999 569.784 170.299 567.688 167.104 564.94C165.833 563.597 166.36 557.914 166.36 557.914L233.516 579.918Z" fill="#263238"/>
<path d="M170.937 536.037C170.937 536.037 170.392 536.291 170.047 537.598C169.702 538.905 169.048 543.68 168.231 546.222C166.924 550.683 166.312 555.318 166.416 559.966C166.797 562.907 174.568 566.865 178.852 568.753C183.862 571.247 188.465 574.485 192.505 578.357C196.99 582.424 206.63 586.944 213.166 587.271C220.864 587.634 229.705 585.655 231.902 582.26C234.607 578.03 236.695 573.074 225.566 567.228C223.46 566.12 216.125 561.255 213.62 559.512C206.866 554.773 202.182 550.525 199.404 542.645C199.189 541.689 198.658 540.832 197.897 540.213C197.212 539.873 196.437 539.759 195.682 539.886C191.862 540.095 188.063 540.593 184.317 541.375C182.738 542.01 180.523 542.718 180.432 544.661C180.44 545.333 180.55 546 180.759 546.64C180.868 547.057 180.94 547.584 180.577 547.802C180.214 548.019 179.815 547.802 179.524 547.438C178.472 546.243 177.513 544.968 176.656 543.626C175.824 542.413 174.908 541.26 173.914 540.176C173.282 539.76 172.675 539.305 172.099 538.815C171.399 538.053 170.988 537.07 170.937 536.037Z" fill="#455A64"/>
<path d="M192.541 578.266C190.64 576.521 188.653 574.873 186.586 573.328C186.586 573.328 199.549 582.115 205.195 578.775C208.826 576.614 207.337 573.655 207.319 572.747C207.301 571.839 220.028 566.066 223.441 565.848C224.349 566.411 225.111 566.901 225.602 567.137C234.334 571.149 235.26 575.743 233.426 581.353C231.248 584.766 223.278 587.961 213.31 587.417C206.793 587.053 197.025 582.333 192.541 578.266Z" fill="#37474F"/>
<path d="M206.52 570.024C213.473 573.219 210.369 574.363 208.335 574.526C206.302 574.69 194.773 567.155 187.802 561.055C180.539 554.701 175.093 546.422 172.37 544.08C171.371 543.208 170.282 542.155 169.338 541.157C169.61 539.632 169.846 538.234 170.028 537.526C170.373 536.218 170.917 535.964 170.917 535.964C171.127 536.949 171.508 537.889 172.043 538.742C172.62 539.232 173.226 539.687 173.858 540.104C174.852 541.188 175.768 542.34 176.6 543.553C177.457 544.895 178.416 546.17 179.468 547.366C185.314 555.463 199.584 566.901 206.52 570.024Z" fill="#37474F"/>
<path d="M207.919 573.473C207.758 573.463 207.605 573.399 207.484 573.292C207.419 573.227 207.367 573.151 207.332 573.067C207.297 572.983 207.279 572.893 207.279 572.801C207.279 572.71 207.297 572.62 207.332 572.536C207.367 572.452 207.419 572.375 207.484 572.311C209.644 570.006 219.484 564.795 224.677 565.648C224.768 565.661 224.855 565.693 224.934 565.74C225.013 565.788 225.081 565.851 225.136 565.925C225.19 566 225.228 566.084 225.249 566.174C225.27 566.263 225.273 566.356 225.258 566.447C225.245 566.538 225.213 566.625 225.166 566.703C225.118 566.781 225.055 566.848 224.98 566.901C224.905 566.954 224.82 566.99 224.731 567.009C224.641 567.028 224.549 567.028 224.459 567.01C219.593 566.229 210.225 571.422 208.519 573.237C208.444 573.321 208.352 573.386 208.247 573.427C208.143 573.468 208.031 573.484 207.919 573.473Z" fill="#263238"/>
<path d="M201.926 569.37C201.765 569.356 201.613 569.293 201.49 569.189C201.423 569.126 201.37 569.05 201.333 568.965C201.297 568.881 201.278 568.79 201.278 568.698C201.278 568.606 201.297 568.516 201.333 568.431C201.37 568.347 201.423 568.271 201.49 568.208C203.632 565.902 213.473 560.692 218.683 561.545C218.865 561.576 219.028 561.677 219.136 561.827C219.245 561.976 219.291 562.161 219.264 562.344C219.249 562.435 219.216 562.523 219.166 562.601C219.116 562.679 219.051 562.746 218.975 562.799C218.899 562.851 218.813 562.888 218.722 562.906C218.631 562.925 218.538 562.925 218.447 562.907C213.6 562.126 204.232 567.319 202.525 569.134C202.448 569.215 202.355 569.278 202.252 569.318C202.148 569.359 202.037 569.377 201.926 569.37Z" fill="#263238"/>
<path d="M195.936 565.467C195.775 565.453 195.623 565.389 195.5 565.285C195.433 565.222 195.379 565.146 195.343 565.062C195.306 564.978 195.287 564.887 195.287 564.795C195.287 564.703 195.306 564.612 195.343 564.528C195.379 564.444 195.433 564.368 195.5 564.305C197.642 561.999 207.482 556.77 212.693 557.642C212.875 557.673 213.037 557.774 213.146 557.923C213.254 558.072 213.3 558.258 213.274 558.441C213.259 558.532 213.225 558.619 213.176 558.697C213.126 558.775 213.061 558.843 212.985 558.895C212.909 558.948 212.823 558.984 212.732 559.003C212.641 559.022 212.548 559.022 212.457 559.003C207.591 558.223 198.241 563.415 196.535 565.231C196.458 565.311 196.365 565.374 196.261 565.415C196.158 565.456 196.047 565.473 195.936 565.467Z" fill="#263238"/>
<path d="M190.434 561.073C190.266 561.068 190.105 561.004 189.98 560.892C189.854 560.76 189.783 560.584 189.783 560.401C189.783 560.219 189.854 560.043 189.98 559.911C192.123 557.605 201.999 552.395 207.174 553.248C207.276 553.25 207.376 553.274 207.468 553.318C207.56 553.362 207.641 553.426 207.706 553.504C207.771 553.583 207.819 553.675 207.845 553.773C207.871 553.872 207.876 553.975 207.859 554.076C207.842 554.176 207.803 554.272 207.745 554.356C207.688 554.44 207.613 554.511 207.525 554.563C207.438 554.616 207.34 554.649 207.238 554.66C207.137 554.671 207.034 554.66 206.938 554.628C202.09 553.847 192.722 559.022 191.015 560.855C190.945 560.938 190.855 561.002 190.753 561.04C190.652 561.078 190.542 561.09 190.434 561.073Z" fill="#263238"/>
<path d="M185.024 556.698C184.868 556.688 184.72 556.623 184.607 556.516C184.542 556.452 184.49 556.376 184.455 556.291C184.42 556.207 184.402 556.117 184.402 556.026C184.402 555.935 184.42 555.845 184.455 555.76C184.49 555.676 184.542 555.6 184.607 555.536C187.566 552.268 197.806 548.038 202.998 548.891C203.178 548.918 203.341 549.015 203.45 549.161C203.558 549.308 203.605 549.491 203.579 549.672C203.543 549.855 203.439 550.017 203.287 550.126C203.135 550.234 202.947 550.279 202.762 550.252C198.096 549.49 188.238 553.557 185.66 556.462C185.582 556.551 185.483 556.619 185.372 556.661C185.261 556.702 185.141 556.715 185.024 556.698Z" fill="#263238"/>
<path d="M120.5 551.596L126.818 522.184L97.7698 518.045L97.6064 547.093C97.6064 547.093 95.4641 554.918 97.1344 557.569C98.8047 560.22 116.198 562.816 117.777 561.019C119.357 559.221 120.5 551.596 120.5 551.596Z" fill="#C8856A"/>
<path d="M118.086 597.856C117.378 604.446 116.053 608.749 113.238 612.38C110.424 616.011 105.359 616.647 100.33 614.958C95.301 613.27 88.8921 609.512 87.6213 603.611C86.5125 598.376 86.7247 592.948 88.2385 587.816L118.086 597.856Z" fill="#263238"/>
<path d="M97.6791 546.93C95.5731 546.93 96.1904 552.032 95.3008 560.91C94.3204 570.514 90.072 578.085 88.6015 585.801C86.9312 594.624 87.3124 598.673 90.653 604.483C93.9936 610.292 106.321 616.973 112.803 609.929C118.104 604.156 118.576 597.22 118.467 588.143C118.183 580.534 118.322 572.915 118.885 565.321C119.556 558.658 122.298 552.486 120.5 551.523C120.319 552.504 118.685 559.258 117.432 559.167C117.35 558.328 117.35 557.482 117.432 556.643C117.511 556.257 117.508 555.859 117.424 555.475C117.34 555.09 117.175 554.727 116.942 554.41C115.937 553.637 114.789 553.069 113.565 552.74C111.513 552.159 107.864 551.433 105.776 551.051C104.742 550.852 103.689 550.688 102.635 550.579C101.75 550.452 100.852 550.452 99.9667 550.579C99.7273 550.615 99.4988 550.704 99.2979 550.839C99.0969 550.974 98.9285 551.152 98.8047 551.36C98.6919 551.686 98.6426 552.032 98.6595 552.377C98.629 552.995 98.5129 553.606 98.3146 554.192C98.3146 554.446 98.0241 554.755 97.7154 554.664C97.6095 554.612 97.5228 554.528 97.4674 554.424C97.412 554.319 97.3908 554.2 97.4068 554.083C97.4976 553.103 97.6065 547.584 97.6791 546.93Z" fill="#455A64"/>
<path d="M89.1817 583.386C88.9275 584.657 87.3661 593.063 89.926 594.897C92.4859 596.73 94.5375 590.321 94.5375 590.321C94.5375 590.321 101.291 589.25 110.877 594.08C110.333 595.405 111.658 600.143 114.363 599.526C117.068 598.909 118.466 589.159 118.484 589.032C118.484 597.656 117.958 604.41 112.82 610.02C106.338 617.1 93.9928 610.419 90.6704 604.573C87.3479 598.727 86.9486 594.715 88.6189 585.891C88.7641 585.056 88.9638 584.167 89.1817 583.386Z" fill="#37474F"/>
<path d="M95.2812 590.993C95.0997 594.225 91.5412 592.809 91.5594 588.143C91.5775 583.477 93.8833 572.384 94.7184 564.868C95.2086 554.065 95.5717 546.93 97.6777 547.003C97.6777 547.112 97.6777 547.221 97.6777 547.33C97.6777 547.438 97.5325 553.484 97.5143 554.192C97.2057 560.783 97.242 573.6 96.3524 579.61C95.7598 583.378 95.4021 587.18 95.2812 590.993Z" fill="#37474F"/>
<path d="M109.698 593.862C110.752 590.202 111.57 586.479 112.149 582.714C113.093 576.814 116.506 564.977 118.195 558.604C118.757 557.551 120.464 551.596 120.464 551.596C121.916 551.995 120.464 557.66 119.883 560.329C119.302 562.998 118.412 565.775 117.614 569.624C115.508 577.141 115.417 588.361 113.982 592.7C112.548 597.039 108.935 596.966 109.698 593.862Z" fill="#37474F"/>
<path d="M111.059 594.37C110.963 594.35 110.87 594.313 110.787 594.261C105.864 591.631 100.277 590.501 94.7192 591.011C94.5165 591.038 94.3109 590.992 94.1383 590.883C93.9658 590.773 93.8372 590.607 93.7751 590.412C93.7535 590.323 93.752 590.23 93.7708 590.14C93.7896 590.05 93.8283 589.965 93.884 589.892C93.9396 589.819 94.0109 589.76 94.0926 589.718C94.1743 589.676 94.2642 589.652 94.356 589.65C100.305 589.065 106.292 590.273 111.549 593.117C111.635 593.157 111.712 593.215 111.775 593.286C111.837 593.358 111.883 593.442 111.911 593.533C111.938 593.624 111.946 593.72 111.934 593.814C111.922 593.908 111.889 593.999 111.84 594.079C111.75 594.197 111.629 594.286 111.491 594.338C111.353 594.389 111.203 594.4 111.059 594.37Z" fill="#263238"/>
<path d="M113.092 587.525L112.82 587.435C107.244 584.672 101.04 583.42 94.8282 583.804C94.6284 583.824 94.4279 583.773 94.2619 583.66C94.0958 583.547 93.9749 583.38 93.9204 583.186C93.9048 583.095 93.909 583.001 93.9325 582.911C93.956 582.822 93.9984 582.738 94.0568 582.666C94.1151 582.593 94.1882 582.535 94.2712 582.493C94.3541 582.451 94.4449 582.428 94.5377 582.424C101.105 581.975 107.671 583.305 113.546 586.273C113.633 586.309 113.711 586.364 113.776 586.433C113.84 586.501 113.889 586.583 113.92 586.672C113.951 586.761 113.963 586.856 113.955 586.949C113.946 587.043 113.919 587.134 113.873 587.217C113.789 587.341 113.67 587.437 113.53 587.492C113.391 587.547 113.239 587.559 113.092 587.525Z" fill="#263238"/>
<path d="M95.6076 577.195C95.4625 577.165 95.327 577.099 95.2131 577.004C95.0992 576.909 95.0102 576.788 94.9541 576.65C94.9269 576.562 94.9193 576.469 94.932 576.377C94.9446 576.285 94.9772 576.197 95.0273 576.119C95.0775 576.042 95.144 575.976 95.2223 575.926C95.3006 575.877 95.3888 575.845 95.4806 575.833C104.976 574.018 114.09 579.283 114.471 579.464C114.557 579.504 114.634 579.562 114.696 579.634C114.759 579.705 114.805 579.789 114.833 579.88C114.86 579.971 114.868 580.067 114.856 580.161C114.843 580.255 114.811 580.346 114.762 580.427C114.637 580.579 114.461 580.679 114.266 580.71C114.072 580.74 113.873 580.697 113.709 580.59C113.709 580.59 104.758 575.47 95.9345 577.141L95.6076 577.195Z" fill="#263238"/>
<path d="M96.3901 570.95C96.247 570.926 96.1126 570.865 96.001 570.772C95.8893 570.68 95.8043 570.559 95.7546 570.423C95.7241 570.336 95.7135 570.243 95.7236 570.151C95.7337 570.06 95.7642 569.971 95.813 569.893C95.8618 569.814 95.9276 569.748 96.0055 569.698C96.0833 569.649 96.1713 569.617 96.263 569.606C102.947 568.41 109.838 569.701 115.635 573.237C115.715 573.283 115.785 573.346 115.84 573.42C115.895 573.495 115.934 573.58 115.954 573.671C115.975 573.761 115.976 573.855 115.959 573.946C115.941 574.037 115.905 574.123 115.853 574.199C115.722 574.351 115.54 574.448 115.342 574.471C115.143 574.495 114.944 574.443 114.781 574.326C109.367 571.068 102.965 569.858 96.735 570.913L96.3901 570.95Z" fill="#263238"/>
<path d="M97.2981 563.96C97.1587 563.927 97.0287 563.863 96.9184 563.771C96.8082 563.68 96.7206 563.564 96.6626 563.433C96.6323 563.346 96.6213 563.254 96.6302 563.162C96.6392 563.07 96.668 562.982 96.7146 562.902C96.7612 562.823 96.8246 562.755 96.9002 562.702C96.9759 562.649 97.0621 562.614 97.1528 562.598C106.957 560.456 116.27 566.229 116.67 566.483C116.754 566.526 116.827 566.586 116.886 566.66C116.944 566.734 116.986 566.819 117.009 566.91C117.031 567.002 117.033 567.097 117.016 567.189C116.998 567.282 116.96 567.369 116.906 567.446C116.778 567.601 116.595 567.7 116.396 567.724C116.196 567.748 115.995 567.693 115.835 567.573C115.744 567.573 106.757 561.945 97.6793 563.942C97.5554 563.977 97.4249 563.983 97.2981 563.96Z" fill="#263238"/>
<path d="M115.326 292.428C111.531 310.239 106.121 320.261 105.286 365.431C104.451 410.602 104.578 423.274 104.396 428.721C104.215 434.167 101.056 443.917 98.2598 470.75C96.5854 490.068 96.1366 509.473 96.9163 528.847C96.9163 528.847 100.693 533.913 110.95 534.82C116.257 535.457 121.623 534.287 126.183 531.498C126.183 531.498 138.093 479.864 141.687 463.706C145.282 447.548 155.703 394.425 155.703 394.425L161.894 437.526C161.894 437.526 159.008 452.341 161.894 475.87C164.781 499.399 169.356 523.219 169.356 523.219C169.356 523.219 173.35 526.523 184.407 525.888C189.145 525.655 193.795 524.527 198.114 522.566C198.114 522.566 205.213 452.54 205.213 425.87C205.213 399.2 202.544 332.933 198.604 292.501L115.326 292.428Z" fill="#455A64"/>
<path d="M191.904 331.426C187.892 342.428 173.24 350.144 166.813 351.687L159.261 393.772L161.893 437.453L155.702 394.425L164.163 343.064C164.163 343.064 181.991 341.775 191.904 331.426ZM130.884 325.98C129.831 330.3 128.887 334.658 127.87 339.015C126.854 343.372 125.873 347.73 124.784 352.123C124.74 347.604 125.044 343.088 125.692 338.616C126.276 334.147 127.088 329.712 128.124 325.326C129.167 320.929 130.459 316.595 131.992 312.345C133.472 308.062 135.414 303.953 137.783 300.09C136.421 304.411 135.223 308.696 134.152 312.998C133.081 317.301 131.901 321.804 130.884 326.052V325.98ZM123.313 317.646C121.861 320.242 120.481 322.893 119.083 325.544L114.98 333.623C115.294 330.559 115.989 327.546 117.05 324.654C118.086 321.772 119.343 318.974 120.808 316.285C122.293 313.605 123.955 311.027 125.782 308.569C127.589 306.094 129.632 303.802 131.883 301.724C130.539 304.502 129.087 307.171 127.634 309.767C126.182 312.363 124.711 315.086 123.313 317.719V317.646ZM130.013 439.45C132.591 425.634 134.424 411.655 136.222 397.693C138.019 383.732 139.744 369.698 141.668 355.718C140.815 369.806 139.853 383.895 138.4 397.947C136.948 412 135.332 426.034 132.79 439.977C130.249 453.92 127.344 467.682 124.439 481.498C121.534 495.314 118.538 509.076 115.361 522.838C117.504 508.883 119.821 494.963 122.315 481.081C124.729 467.228 127.362 453.321 130.013 439.523V439.45ZM194.21 392.61L191.904 355.809C193.792 367.912 195.293 380.119 196.407 392.428C197.514 404.701 198.567 416.92 198.604 429.356C198.186 441.72 197.242 453.938 196.243 466.211C195.245 478.484 194.01 490.703 192.612 502.922C192.951 490.612 193.441 478.327 194.083 466.066L195.027 447.62C195.336 441.502 195.717 435.347 195.844 429.265C195.971 423.183 195.572 417.065 195.299 410.947C195.027 404.828 194.555 398.692 194.21 392.61Z" fill="#37474F"/>
<path d="M108.3 228.34C115.133 228.34 121.685 225.626 126.517 220.794C131.348 215.963 134.062 209.41 134.062 202.578V138.29H129.796C124.095 138.29 118.627 140.554 114.596 144.586C110.565 148.617 108.3 154.084 108.3 159.785V228.34Z" fill="#D8A85F"/>
<path d="M121.007 146.387C120.659 147.448 120.428 148.544 120.317 149.655C120.226 150.372 120.226 151.098 120.317 151.815C120.643 153.453 121.523 154.929 122.809 155.994C124.096 157.058 125.71 157.647 127.379 157.661C129.049 157.597 130.681 157.153 132.154 156.363C133.626 155.573 134.899 154.459 135.876 153.104C138.636 149.582 142.739 141.285 137.383 138.344C135.588 137.433 133.576 137.038 131.57 137.201C129.563 137.364 127.642 138.081 126.018 139.27C123.637 141.053 121.883 143.544 121.007 146.387Z" fill="#BA68C8"/>
<path opacity="0.25" d="M121.007 146.387C120.659 147.448 120.428 148.544 120.317 149.655C120.226 150.372 120.226 151.098 120.317 151.815C120.643 153.453 121.523 154.929 122.809 155.994C124.096 157.058 125.71 157.647 127.379 157.661C129.049 157.597 130.681 157.153 132.154 156.363C133.626 155.573 134.899 154.459 135.876 153.104C138.636 149.582 142.739 141.285 137.383 138.344C135.588 137.433 133.576 137.038 131.57 137.201C129.563 137.364 127.642 138.081 126.018 139.27C123.637 141.053 121.883 143.544 121.007 146.387Z" fill="black"/>
<path d="M107.882 322.348C110.66 308.314 114.363 290.141 114.563 283.405C115.017 269.262 111.64 258.55 110.442 250.617C107.864 233.351 109.77 218.082 113.782 214.687C113.782 214.687 125.493 211.982 129.342 211.292C132.373 210.747 134.788 210.384 138.728 209.477C145.462 207.768 152.455 207.319 159.352 208.151C161.168 208.333 165.87 209.585 171.19 210.366L180.14 211.746C180.14 211.746 183.935 214.088 189.672 224.346C194.047 232.171 196.335 233.659 198.132 251.325C200.601 275.78 200.547 308.187 201.473 321.223C183.735 332.043 130.649 335.656 107.882 322.348Z" fill="#D7AFDD"/>
<path d="M182.519 177.886L184.625 177.233C194.083 172.167 193.702 159.822 191.306 153.395C186.186 139.034 170.663 133.66 161.059 133.133C142.904 132.135 133.971 136.764 132.01 146.278C129.559 146.06 126.164 148.093 124.113 150.835C119.647 156.935 116.324 175.181 139.926 197.567L182.519 177.886Z" fill="#D8A85F"/>
<path d="M134.714 190.831C133.001 190.986 131.278 190.683 129.721 189.952C128.164 189.222 126.83 188.09 125.854 186.673C122.223 181.227 122.405 176.125 124.584 172.93C125.575 171.556 127.04 170.598 128.696 170.239C130.351 169.88 132.081 170.147 133.552 170.987C136.584 173.057 136.439 174.618 136.657 177.16C136.875 179.702 142.303 179.411 143.756 170.533C145.099 162.273 145.571 154.194 149.82 150.563C156.119 145.116 163.981 147.04 166.286 150.454C168.919 146.659 174.202 146.405 178.251 148.801C181.61 150.762 184.496 154.847 184.151 164.125C184.229 166.344 184.435 168.556 184.769 170.751C186.384 188.907 182.427 195.751 177.851 199.636C175.219 201.888 171.334 203.267 165.288 203.376L165.506 210.475C165.506 210.475 173.676 225.925 173.113 239.705C173.113 239.705 169.772 237.4 154.794 224.291C144.791 215.559 138.454 210.403 138.454 210.403L138.999 187.327C138.622 188.214 138.035 188.997 137.288 189.607C136.542 190.217 135.659 190.637 134.714 190.831Z" fill="#C8856A"/>
<path d="M181.465 163.398L175.456 161.365C175.567 160.965 175.759 160.592 176.02 160.27C176.28 159.947 176.605 159.681 176.972 159.489C177.34 159.297 177.743 159.182 178.157 159.152C178.57 159.122 178.986 159.177 179.378 159.313C180.181 159.599 180.845 160.181 181.234 160.941C181.622 161.7 181.705 162.58 181.465 163.398Z" fill="#263238"/>
<path d="M160.098 161.565L154.016 164.578C153.798 164.192 153.661 163.764 153.615 163.323C153.569 162.882 153.613 162.435 153.746 162.012C153.878 161.588 154.096 161.196 154.386 160.86C154.676 160.524 155.032 160.251 155.432 160.058C156.257 159.68 157.194 159.626 158.057 159.905C158.921 160.184 159.649 160.776 160.098 161.565Z" fill="#263238"/>
<path d="M156.356 169.39C156.356 169.903 156.509 170.405 156.794 170.832C157.079 171.259 157.485 171.592 157.959 171.788C158.433 171.985 158.955 172.036 159.459 171.936C159.963 171.836 160.425 171.588 160.788 171.225C161.152 170.862 161.399 170.4 161.499 169.896C161.599 169.392 161.548 168.87 161.351 168.396C161.155 167.922 160.822 167.516 160.395 167.231C159.968 166.946 159.466 166.793 158.953 166.793C158.264 166.793 157.604 167.067 157.117 167.554C156.63 168.041 156.356 168.701 156.356 169.39Z" fill="#263238"/>
<path d="M175.056 168.936C175.056 169.449 175.208 169.951 175.493 170.378C175.778 170.805 176.184 171.138 176.658 171.334C177.133 171.531 177.655 171.582 178.158 171.482C178.662 171.382 179.125 171.135 179.488 170.771C179.851 170.408 180.098 169.946 180.198 169.442C180.298 168.939 180.247 168.417 180.05 167.942C179.854 167.468 179.521 167.062 179.094 166.777C178.667 166.492 178.165 166.339 177.652 166.339C177.311 166.339 176.973 166.407 176.658 166.537C176.343 166.668 176.057 166.859 175.816 167.1C175.575 167.341 175.384 167.627 175.253 167.942C175.123 168.257 175.056 168.595 175.056 168.936Z" fill="#263238"/>
<path d="M151.275 151.652C149.858 153.467 148.824 156.427 149.041 162.908C148.881 166.734 147.916 170.483 146.209 173.91C144.63 177.196 142.996 179.157 139.492 179.774C137.364 180.095 135.19 179.87 133.174 179.121C131.939 178.558 128.453 176.089 128.871 172.494C129.588 173.271 130.46 173.89 131.431 174.31C132.167 174.612 132.944 174.802 133.736 174.873C134.929 174.866 136.101 174.561 137.145 173.983C138.189 173.406 139.071 172.575 139.71 171.568C142.052 168.082 141.906 163.38 142.614 159.386C143.54 154.303 144.43 150.018 149.005 147.494C154.452 144.517 165.109 144.953 166.289 150.49C164.131 148.682 161.351 147.792 158.545 148.009C155.738 148.226 153.129 149.534 151.275 151.652Z" fill="#D8A85F"/>
<path d="M165.978 166.339L166.65 182.225L175.455 179.538L165.978 166.339Z" fill="#AF6152"/>
<path d="M160.042 186.437C160.686 186.126 161.398 185.983 162.112 186.02C162.838 186.047 163.561 186.138 164.272 186.292C165.474 186.541 166.578 187.134 167.449 187.999C167.623 188.147 167.76 188.333 167.849 188.544C167.939 188.997 167.522 188.979 167.213 188.852L166.596 188.525C166.287 188.38 165.942 188.289 165.634 188.144C165.052 187.876 164.443 187.669 163.818 187.527C163.221 187.391 162.614 187.306 162.003 187.273H161.022C160.677 187.273 160.223 187.273 160.024 186.946C159.97 186.871 159.943 186.78 159.947 186.689C159.95 186.597 159.983 186.508 160.042 186.437Z" fill="#AF6152"/>
<path d="M165.29 203.395C159.774 203.592 154.303 202.34 149.422 199.763C145.119 197.549 143.976 193.681 141.87 189.633C141.87 189.633 142.596 198.057 147.825 202.178C155.196 207.988 165.381 207.007 165.381 207.007L165.29 203.395Z" fill="#AF6152"/>
<path d="M113.729 214.687C102.6 216.503 98.8598 219.988 94.2483 232.044C89.8003 243.699 79.5062 269.934 82.5563 287.545C84.3718 298.293 111.605 271.295 111.605 271.295L124.586 241.375C124.586 241.375 123.133 214.687 113.729 214.687Z" fill="#C8856A"/>
<path d="M121.264 223.111C123.059 229.051 124.15 235.181 124.514 241.375L111.514 271.295C111.514 271.295 107.611 275.181 102.673 279.429L84.2814 269.879C84.5356 265.304 95.0476 251.96 101.547 245.134C106.34 240.105 116.253 228.431 121.264 223.111Z" fill="#AF6152"/>
<path d="M116.834 229.447C119.63 225.937 121.704 221.908 122.934 217.592C124.187 212.563 128.144 207.933 129.506 206.027C130.868 204.121 133.754 201.325 135.988 198.656C138.221 195.987 138.856 195.225 142.051 194.698C146.445 193.954 149.894 193.264 151.619 193.772C153.344 194.281 153.271 195.424 151.783 196.949C150.294 198.474 147.153 198.765 146.173 199.146C145.192 199.527 143.05 200.363 143.05 200.363L138.983 206.354C141.776 206.825 144.531 207.499 147.226 208.369C148.045 209.145 148.653 210.118 148.99 211.196C149.326 212.273 149.382 213.419 149.15 214.524C149.825 214.964 150.339 215.609 150.617 216.365C150.895 217.12 150.922 217.946 150.693 218.718C150.693 218.718 152.237 220.733 151.165 222.349C149.979 224.022 148.602 225.551 147.062 226.906C145.748 227.473 144.336 227.781 142.905 227.813C141.444 230.046 139.699 232.079 137.712 233.859C135.352 235.675 133.791 235.493 131.194 239.161L116.834 229.447Z" fill="#C8856A"/>
<path d="M142.089 206.971C143.723 206.263 144.086 205.156 145.72 205.755C147.354 206.354 146.664 208.097 146.664 208.097L142.089 206.971Z" fill="#AF6152"/>
<path d="M149.096 214.687C148.081 213.821 146.958 213.088 145.756 212.509C144.612 211.964 142.27 211.129 142.27 211.129C143.909 211.274 145.518 211.66 147.045 212.273C147.832 212.568 148.587 212.946 149.296 213.398C149.305 213.779 149.256 214.158 149.151 214.524L149.096 214.687Z" fill="#AF6152"/>
<path d="M149.312 216.993C149.861 217.226 150.395 217.493 150.91 217.792C150.862 218.17 150.771 218.542 150.638 218.899C149.37 217.743 147.899 216.832 146.299 216.212C147.329 216.362 148.339 216.623 149.312 216.993Z" fill="#AF6152"/>
<path d="M142.289 228.758C143.233 226.84 144.358 225.016 145.648 223.311C146.067 222.842 146.649 222.549 147.275 222.492C147.902 222.435 148.527 222.617 149.025 223.002C149.46 223.656 147.209 223.565 146.574 223.856C144.906 225.263 143.461 226.916 142.289 228.758Z" fill="#AF6152"/>
<path d="M137.095 206.172C137.095 206.172 138.366 204.357 140.617 201.561C142.868 198.765 142.741 199.146 144.938 198.71C147.135 198.275 151.292 197.548 152.418 196.223C152.222 196.479 152.01 196.722 151.783 196.949C150.33 198.42 147.153 198.765 146.173 199.146C145.192 199.527 143.05 200.363 143.05 200.363L138.874 206.535L137.095 206.172Z" fill="#AF6152"/>
<path d="M116.834 229.448C109.463 238.344 89.6012 259.712 85.0079 268.227C81.8307 274.11 81.0319 287.781 84.2635 292.755C87.4952 297.73 96.7725 295.642 104.234 289.124C110.716 283.442 116.108 269.752 120.81 260.076C125.512 250.399 131.141 239.342 131.141 239.342L116.834 229.448Z" fill="#C8856A"/>
<path d="M121.209 222.258C121.794 220.986 122.274 219.669 122.644 218.318C122.971 216.941 123.427 215.598 124.005 214.306C125.233 211.77 126.737 209.377 128.49 207.171C130.146 204.899 131.967 202.751 133.936 200.744C134.88 199.709 135.752 198.638 136.678 197.549C137.529 196.384 138.703 195.494 140.055 194.989C141.421 194.617 142.81 194.332 144.212 194.135C145.592 193.899 146.99 193.663 148.388 193.5C149.101 193.445 149.817 193.445 150.53 193.5C151.279 193.503 152.008 193.738 152.618 194.172C152.786 194.299 152.916 194.469 152.996 194.664C153.076 194.858 153.102 195.071 153.072 195.279C153.015 195.66 152.865 196.022 152.636 196.332C152.229 196.94 151.696 197.453 151.075 197.839C149.816 198.521 148.455 198.994 147.044 199.237C145.714 199.581 144.42 200.049 143.177 200.635L139.292 206.318C141.707 206.79 144.103 207.262 146.463 207.97C146.784 208.065 147.094 208.193 147.389 208.351C147.67 208.544 147.915 208.783 148.116 209.059C148.487 209.622 148.78 210.233 148.987 210.875C149.433 212.075 149.54 213.375 149.296 214.633C149.935 215.105 150.447 215.729 150.784 216.448C150.959 216.83 151.045 217.245 151.039 217.665C151.04 218.062 150.966 218.457 150.821 218.827C151.206 219.303 151.465 219.869 151.573 220.472C151.681 221.075 151.634 221.696 151.438 222.276C150.801 223.311 150.052 224.273 149.205 225.145C148.787 225.58 148.37 226.016 147.934 226.434C147.53 226.9 147.027 227.272 146.463 227.523C145.315 227.847 144.133 228.036 142.941 228.086C142.201 229.166 141.408 230.208 140.563 231.209C139.701 232.286 138.707 233.25 137.604 234.077C136.478 234.894 135.189 235.402 134.081 236.219C132.985 237.055 132.029 238.06 131.249 239.197C132.015 238.05 132.959 237.033 134.045 236.183C135.153 235.348 136.423 234.803 137.531 233.986C138.613 233.146 139.589 232.177 140.436 231.1C141.289 230.047 142.106 228.921 142.869 227.795C144.055 227.739 145.231 227.544 146.373 227.214C146.903 226.976 147.375 226.622 147.752 226.18C148.17 225.762 148.588 225.326 148.987 224.891C149.815 224.043 150.546 223.105 151.166 222.095C151.341 221.546 151.375 220.962 151.263 220.397C151.152 219.832 150.9 219.304 150.53 218.863C150.674 218.511 150.748 218.135 150.748 217.755C150.737 217.367 150.651 216.985 150.494 216.63C150.185 215.903 149.682 215.275 149.041 214.814H148.951V214.705C149.196 213.489 149.082 212.227 148.624 211.074C148.206 209.912 147.607 208.696 146.318 208.46C143.874 207.773 141.395 207.215 138.893 206.79H138.602L138.766 206.535L142.814 200.544C144.092 199.924 145.43 199.437 146.808 199.092C148.175 198.851 149.497 198.404 150.73 197.766C151.297 197.402 151.785 196.926 152.164 196.368C152.564 195.842 152.745 195.134 152.164 194.753C150.95 194.13 149.557 193.95 148.224 194.244C146.845 194.39 145.465 194.626 144.067 194.862C142.685 195.051 141.315 195.318 139.964 195.66C138.668 196.149 137.544 197.007 136.732 198.13C135.824 199.183 134.917 200.272 133.954 201.307C131.985 203.301 130.165 205.437 128.508 207.697C126.756 209.878 125.252 212.247 124.023 214.76C123.431 216.031 122.963 217.356 122.625 218.718C122.243 220.079 121.738 221.404 121.119 222.676C119.847 225.183 118.352 227.571 116.652 229.811C118.405 227.442 119.931 224.913 121.209 222.258Z" fill="#AF6152"/>
</svg>
