<svg width="447" height="404" viewBox="0 0 447 404" fill="none" xmlns="http://www.w3.org/2000/svg">
<path d="M168.846 191.701C167.341 161.058 162.222 140.589 156.953 133.074C149.621 144.683 134.054 167.557 134.054 167.557L121.197 196.318C121.197 196.318 125.578 223.644 128.98 234.252C118.442 246.205 115.205 252.554 110.478 264.567C106.895 273.665 104.034 288.74 100.797 301.918C98.4337 311.54 97.2595 312.586 95.4227 313.871C94.3689 314.647 93.0591 315.514 93.0591 315.514C93.0591 315.514 84.1917 319.025 84.6433 324.478C84.9595 328.408 87.8049 333.009 84.5229 340.539C80.6387 349.504 78.9525 351.909 82.912 358.274C86.3144 363.727 93.7215 369.494 101.49 369.987C102.195 369.802 102.821 369.398 103.276 368.833C103.731 368.268 103.992 367.573 104.019 366.85C104.019 363.234 102.514 361.86 101.4 358.02C100.286 354.18 101.4 347.696 102.182 343.333C102.965 338.971 105.991 333.607 108.355 329.737C110.719 325.868 113.579 321.326 117.599 315.663C122.462 308.821 158.247 257.873 163.983 247.146C169.719 236.418 170.442 223.689 168.846 191.701Z" fill="#9A4A4D"/>
<path d="M150.705 369.704C147.899 366.463 145.609 362.815 143.916 358.887C141.281 352.656 141.462 344.185 141.763 334.04C142.064 323.896 143.569 304.159 144.322 288.143C146.189 248.356 147.514 243.844 146.098 226.722C144.683 209.6 141.446 183.514 141.446 183.514C141.446 183.514 149.471 180.033 155.809 165.271C158.971 157.906 160.898 143.861 156.953 133.074C156.953 133.074 155.162 140.649 134.115 139.768C116.756 139.304 106.519 132.611 106.519 132.611C105.239 137.482 96.8836 145.146 89.9583 156.606C87.2935 161.088 82.6114 168.483 84.5987 183.499C85.9838 194.077 88.799 199.321 93.978 216.099C99.3677 233.535 109.56 262.818 109.56 262.818C107.241 276.37 105.36 280.105 110.132 304.518C111.638 312.511 114.649 320.205 117.283 327.915C119.451 334.474 121.604 341.048 120.625 348.085C119.978 352.686 116.274 356.481 116.485 361.262C116.756 367.238 123.576 369.674 126.903 373.827C127.926 375.147 128.823 376.557 129.583 378.04C130.575 380.23 131.79 382.313 133.211 384.256C135.108 386.572 137.487 387.244 140.287 388.11C144.167 389.091 148.162 389.553 152.166 389.485C155.975 389.485 159.979 389.485 163.261 387.558C165.625 386.183 165.068 383.075 163.261 381.312C159.693 377.771 155.493 374.963 152.045 371.272C151.654 370.794 151.172 370.256 150.705 369.704Z" fill="#B16668"/>
<path d="M141.446 183.514C139.006 173.397 133.826 164.134 126.467 156.725C119.541 149.957 106.489 141.381 97.8621 145.266C99.869 142.226 102.056 139.308 104.411 136.526C113.896 138.244 132.714 149.18 145.782 148.478C160.431 147.716 156.923 133.044 156.923 133.044C159.053 135.974 160.587 139.288 161.439 142.801C161.409 160.58 155.824 176.731 141.446 183.514Z" fill="#8B4E96"/>
<path d="M124.436 103.566C123.319 103.217 122.228 102.793 121.169 102.297C116.758 100.698 112.783 100.623 109.246 97.0673C107.439 95.2595 106.039 92.9885 103.796 91.7783C100.423 89.9406 96.2681 90.9865 92.4441 90.5532C89.0139 90.0461 85.8775 88.344 83.5963 85.7517C81.315 83.1593 80.038 79.8459 79.9936 76.4044C79.3834 76.7998 78.9514 77.4146 78.7885 78.1196C78.6257 78.8246 78.7446 79.5647 79.1204 80.1844C77.5383 78.8712 76.5137 77.014 76.2514 74.9837C75.989 72.9535 76.5082 70.8998 77.7052 69.2329C79.3914 67.0516 82.3121 65.6173 82.839 62.9131C83.3208 60.4479 81.5443 58.147 81.0474 55.6818C80.1441 51.1996 83.396 47.1358 86.663 44.0132C89.9299 40.8906 93.7087 37.6186 94.1905 33.1364C94.2508 30.8288 94.0742 28.521 93.6636 26.2488C93.0012 18.2108 100.333 10.4118 107.77 8.32008C109.467 7.9892 111.112 7.43656 112.663 6.67661C113.633 5.98975 114.549 5.23056 115.403 4.40564C120.431 0.0579179 127.778 -0.704047 134.342 0.536023C139.325 1.47728 144.369 3.67355 146.552 8.61889C147.376 10.9599 148.03 13.3565 148.509 15.7904C148.678 16.867 149.097 17.89 149.732 18.7792C150.366 19.6683 151.2 20.3994 152.167 20.915C154.721 22.286 156.869 24.2945 158.4 26.7419C159.149 27.9693 159.566 29.3679 159.611 30.8022C159.656 32.2366 159.327 33.6581 158.656 34.9293C157.377 37.0509 154.862 38.5748 154.667 41.04C154.664 41.936 154.933 42.812 155.438 43.555C155.942 44.298 156.659 44.874 157.497 45.2084C159.208 45.8264 161.088 45.7998 162.781 45.1337C162.113 46.7689 160.925 48.1427 159.398 49.0462C157.87 49.9496 156.088 50.3333 154.32 50.1389C155.583 50.4043 156.756 50.9875 157.726 51.8327C158.697 52.6778 159.432 53.7563 159.861 54.9647C160.264 56.1773 160.314 57.4783 160.005 58.7179C159.696 59.9575 159.04 61.0854 158.114 61.9718C157.139 62.6399 156.263 63.4394 155.51 64.3474C155.197 64.9931 155.035 65.7003 155.035 66.4166C155.035 67.133 155.197 67.8401 155.51 68.4859C156.052 69.8156 156.865 71.0109 157.376 72.3555C158.019 74.2031 158.043 76.207 157.446 78.0696C156.85 79.9321 155.664 81.554 154.064 82.6944C152.724 83.5909 153.101 83.2024 151.595 83.7701C149.578 84.5471 147.184 84.9803 146.01 86.7583C144.836 88.5362 145.573 91.36 145.483 93.7355C145.769 93.6459 145.272 92.5403 145.347 92.8092C145.664 94.1821 145.437 95.6232 144.715 96.8352C143.992 98.0472 142.828 98.9378 141.463 99.3233C138.001 100.16 134.553 100.309 131.121 100.967C129.209 101.34 127.929 103.133 126.047 103.522C125.52 103.655 124.97 103.67 124.436 103.566Z" fill="#263238"/>
<path d="M225.74 38.2013C224.545 38.1216 223.354 38.4029 222.323 39.0081C220.729 40.0623 219.219 41.2361 217.806 42.5191C215.488 44.2672 211.784 47.1358 208.773 47.4645C208.171 47.4645 206.906 47.4645 207.599 46.6278C208.569 45.5567 209.441 44.4017 210.203 43.1765C210.588 42.566 210.839 41.8821 210.94 41.1691C211.041 40.4562 210.99 39.7301 210.791 39.038C210.662 38.6166 210.384 38.2557 210.008 38.022C209.466 37.7381 209.165 38.022 208.818 38.3656C208.451 38.7266 208.059 39.0611 207.644 39.3667L205.145 41.3538C200.312 45.2682 195.555 49.7056 193.266 55.6071C192.935 56.4587 191.159 63.0774 189.939 66.8275C188.991 70.234 182.231 91.6887 182.231 91.6887C182.231 91.6887 165.671 77.8387 160.311 73.5209C154.47 68.8295 149.08 66.7528 140.739 67.963L150.585 94.7515C150.585 94.7515 172.882 110.917 176.179 112.576C181.042 115.026 190.286 119.508 194.862 113.367C200.463 105.897 201.065 94.4377 202.239 86.0411C203.549 76.5837 203.745 72.1314 204.844 69.1582C205.943 66.1851 208.532 65.5874 210.249 64.6761C212.657 63.5848 214.902 62.1668 216.918 60.4628C218.751 59.0568 220.387 57.4137 221.781 55.5772C222.558 54.7606 223.148 53.7872 223.512 52.7236C223.482 51.7963 223.513 50.8681 223.602 49.9446C223.873 48.8988 224.656 48.0023 224.822 46.9565C224.846 46.0983 224.765 45.2404 224.581 44.4016C224.563 43.7934 224.676 43.1883 224.913 42.6268C225.149 42.0652 225.503 41.5599 225.951 41.1446C226.388 40.7012 226.718 40.1647 226.915 39.5758C227.246 38.5748 226.538 38.2013 225.74 38.2013Z" fill="#B16668"/>
<path d="M182.306 91.629C181.058 96.0018 181.253 100.656 182.863 104.911C178.467 98.0086 179.732 92.8392 180.665 90.2395L182.306 91.629Z" fill="#9A4A4D"/>
<path d="M205.913 50.4376C205.067 53.9255 203.246 57.1053 200.659 59.6112C202.505 59.1157 204.109 57.9749 205.175 56.3989C205.707 55.51 206.047 54.5212 206.174 53.4951C206.301 52.469 206.212 51.4278 205.913 50.4376Z" fill="#9A4A4D"/>
<path d="M158.068 89.4326C149.397 77.764 143.54 70.4879 140.875 67.9032C134.176 68.5158 117.51 68.0825 117.51 68.0825C117.51 68.0825 109.983 69.0686 103.705 70.6074C97.4266 72.1463 96.5233 75.508 96.5986 80.7671C97.1333 90.321 98.4575 99.8153 100.558 109.154C102.741 119.015 106.685 124.438 106.58 132.536C126.152 144.011 158.851 149.673 157.029 132.641C158.223 125.82 158.727 118.898 158.535 111.978C164.873 103.327 161.41 93.8849 158.068 89.4326Z" fill="#B16668"/>
<path d="M96.3437 40.0988C97.518 37.8727 100.68 36.274 103.088 37.529C105.497 38.784 105.843 40.1137 106.912 41.7721C107.981 43.4306 111.549 42.9973 111.865 35.9603C112.151 29.4013 111.715 24.0078 113.973 20.3324C116.984 15.402 123.789 16.4179 127.523 18.1959C129.239 15.0135 132.114 13.5643 135.517 15.0583C138.919 16.5524 141.795 21.184 143.887 33.4204C146.01 45.8958 143.526 54.3372 140.786 56.6231C138.262 58.7883 135.085 60.0601 131.753 60.2387L132.34 64.2877C132.732 66.5138 133.56 68.4411 138.362 68.6055C135.984 71.5936 121.937 78.0928 114.876 76.8527C107.816 75.6126 102.968 70.7121 106.054 70.0547C108.779 69.487 111.414 67.978 110.812 64.0785L108.599 50.0044C108.314 50.5884 107.892 51.0956 107.368 51.4832C106.843 51.8707 106.233 52.1271 105.588 52.2306C104.438 52.4891 103.239 52.437 102.116 52.0797C100.994 51.7223 99.9879 51.0727 99.2042 50.1987C95.5458 46.6129 94.9285 42.7881 96.3437 40.0988Z" fill="#B16668"/>
<path d="M133.545 68.5651C133.545 68.5651 108.186 69.2137 101.793 71.8961C98.8645 73.1183 95.1044 77.8099 97.9815 94.7321C99.8511 105.79 103.732 129.027 103.732 129.027C98.862 139.761 97.9815 141.716 95.5 153.216C95.5 153.216 99.9591 153.922 130 152.216C156.424 150.71 163.5 151.216 163.5 151.216L158.884 131.129C158.884 131.129 158.07 120.369 158.103 113.797C158.103 113.797 164.333 108.445 164.534 101.24C164.75 93.6998 162.716 90.9912 156.024 82.3754C152.17 77.415 147.71 72.9499 142.747 69.083L133.545 68.5651Z" fill="#DDB3E3"/>
<path d="M124.633 35.4224C124.433 35.8998 124.07 36.292 123.607 36.5297C123.144 36.7675 122.612 36.8356 122.104 36.7222C121.866 36.7085 121.633 36.6436 121.423 36.5318C121.213 36.4201 121.03 36.2642 120.887 36.075C120.743 35.8859 120.643 35.6681 120.594 35.4366C120.544 35.2052 120.545 34.9658 120.598 34.7351C120.798 34.2576 121.161 33.8655 121.624 33.6277C122.087 33.3899 122.619 33.3218 123.127 33.4352C123.365 33.4489 123.598 33.5138 123.808 33.6256C124.018 33.7374 124.201 33.8932 124.344 34.0824C124.488 34.2715 124.588 34.4894 124.638 34.7208C124.687 34.9522 124.686 35.1916 124.633 35.4224Z" fill="#263238"/>
<path d="M122.268 33.4204C120.973 33.5549 120.325 35.3627 119.016 34.7651C119.125 34.9969 119.282 35.2038 119.476 35.3729C119.67 35.5421 119.897 35.6699 120.142 35.7484C120.388 35.8268 120.647 35.8543 120.904 35.8291C121.161 35.8039 121.41 35.7265 121.635 35.6017C122.268 35.2133 122.268 33.4204 122.268 33.4204Z" fill="#263238"/>
<path d="M140.485 28.8635L135.863 26.9511C135.975 26.6472 136.147 26.3689 136.37 26.133C136.592 25.8971 136.861 25.7085 137.159 25.5786C137.458 25.4487 137.78 25.3802 138.105 25.3773C138.431 25.3744 138.754 25.4371 139.055 25.5616C139.673 25.8263 140.166 26.3159 140.432 26.93C140.698 27.5441 140.717 28.236 140.485 28.8635Z" fill="#263238"/>
<path d="M135.607 33.9283C135.901 34.3548 136.336 34.6649 136.837 34.8043C137.338 34.9436 137.873 34.9032 138.347 34.6903C138.58 34.6286 138.797 34.5177 138.983 34.365C139.169 34.2123 139.319 34.0215 139.423 33.8058C139.528 33.59 139.584 33.3544 139.588 33.115C139.592 32.8757 139.543 32.6384 139.446 32.4193C139.15 31.9917 138.712 31.681 138.208 31.5417C137.704 31.4024 137.167 31.4434 136.691 31.6573C136.458 31.7184 136.241 31.8293 136.055 31.9823C135.87 32.1352 135.72 32.3265 135.617 32.5428C135.514 32.7591 135.46 32.9951 135.458 33.2344C135.456 33.4738 135.507 33.7106 135.607 33.9283Z" fill="#263238"/>
<path d="M137.444 31.4931C138.738 31.3586 139.747 32.9871 140.906 32.1355C140.846 32.3846 140.734 32.6188 140.579 32.8237C140.424 33.0286 140.229 33.2 140.005 33.3273C139.781 33.4545 139.533 33.5351 139.276 33.564C139.019 33.5928 138.76 33.5694 138.513 33.4951C137.88 33.271 137.444 31.4931 137.444 31.4931Z" fill="#263238"/>
<path d="M122.826 28.3405L118.039 30.731C117.867 30.4278 117.759 30.0932 117.722 29.7475C117.685 29.4017 117.718 29.052 117.821 28.7196C117.924 28.3872 118.094 28.0789 118.32 27.8134C118.546 27.5479 118.824 27.3308 119.138 27.1752C119.785 26.8608 120.53 26.8065 121.218 27.0235C121.905 27.2406 122.481 27.7124 122.826 28.3405Z" fill="#263238"/>
<path d="M123.893 46.5233L131.014 48.0174C130.914 48.509 130.711 48.9744 130.42 49.3839C130.128 49.7933 129.753 50.1378 129.319 50.3952C128.886 50.6526 128.403 50.8173 127.901 50.8786C127.399 50.94 126.891 50.8967 126.407 50.7515C125.955 50.6495 125.529 50.4571 125.155 50.186C124.781 49.915 124.467 49.571 124.232 49.1751C123.996 48.7793 123.845 48.3399 123.786 47.8839C123.728 47.4279 123.764 46.9649 123.893 46.5233Z" fill="#9A4A4D"/>
<path d="M128.41 50.6618C128.217 49.7338 127.68 48.9116 126.904 48.3582C126.129 47.8048 125.173 47.5605 124.225 47.6737C124.107 47.6947 123.992 47.7247 123.879 47.7633C123.933 48.4446 124.209 49.0899 124.666 49.6019C125.122 50.1139 125.733 50.4649 126.408 50.6021C127.06 50.7868 127.748 50.8073 128.41 50.6618Z" fill="#FFA8A7"/>
<path d="M128.53 31.224L131.421 43.2064L137.473 40.3527L128.53 31.224Z" fill="#9A4A4D"/>
<path d="M131.812 60.2388C127.541 60.3981 123.28 59.7229 119.271 58.2517C116.26 57.1909 113.671 53.9189 112.376 50.886C112.521 52.7243 113.113 54.5003 114.102 56.0617C115.09 57.623 116.446 58.9231 118.052 59.8504C123.276 62.958 132.219 63.0476 132.219 63.0476L131.812 60.2388Z" fill="#9A4A4D"/>
<path d="M101.975 49.1378C102.015 49.4613 102.15 49.766 102.363 50.0138C102.576 50.2616 102.858 50.4415 103.174 50.5311C103.49 50.6207 103.825 50.616 104.138 50.5176C104.451 50.4191 104.728 50.2314 104.934 49.9777C105.141 49.724 105.267 49.4156 105.297 49.0912C105.328 48.7667 105.262 48.4405 105.107 48.1532C104.951 47.866 104.714 47.6304 104.425 47.4761C104.136 47.3217 103.807 47.2553 103.48 47.2852C103.258 47.3075 103.043 47.3733 102.847 47.4788C102.651 47.5842 102.478 47.7272 102.338 47.8996C102.198 48.0719 102.094 48.27 102.031 48.4826C101.969 48.6951 101.95 48.9179 101.975 49.1378Z" fill="#FAFAFA"/>
<path d="M90.5012 178.927C88.9957 177.283 87.0386 175.834 86.4063 173.608C86.2216 173.04 86.1744 172.437 86.2686 171.848C86.3628 171.259 86.5956 170.7 86.9483 170.217C87.1242 170.042 87.2625 169.833 87.3547 169.604C87.3927 169.402 87.3927 169.194 87.3547 168.991C87.1367 168.154 87.1948 167.269 87.5204 166.466C87.6781 166.136 87.9045 165.843 88.1848 165.606C88.4651 165.369 88.7928 165.194 89.1463 165.092C88.7317 163.85 88.7317 162.509 89.1463 161.267C89.6582 159.773 91.1637 158.653 92.1573 160.281C92.6208 161.089 93.004 161.939 93.3015 162.821C94.0665 165.016 94.5717 167.293 94.807 169.604C95.0629 171.994 95.635 178.792 91.8863 179.121C91.54 179.136 90.6518 179.151 90.5012 178.927Z" fill="#9A4A4D"/>
<path d="M106.114 70.0547C90.3208 73.1325 91.9769 76.3148 83.3804 88.0581C74.784 99.8014 63.0561 115.31 60.3763 121.017C57.0492 128.099 56.3566 130.803 63.9895 138.348C67.9189 142.233 73.3989 146.864 79.0446 152.094C83.4557 156.217 88.7551 160.595 93.0156 164.853C93.5862 165.315 94.0144 165.927 94.2513 166.619C94.4882 167.311 94.5243 168.056 94.3555 168.767C94.0468 169.709 93.7905 170.666 93.5877 171.636C93.5965 172.912 93.7022 174.185 93.9039 175.446C93.9966 176.077 93.9039 176.721 93.6369 177.302C93.3698 177.882 92.9398 178.374 92.3984 178.718C91.8183 178.937 91.192 179.009 90.5767 178.927C91.6455 179.739 92.8336 180.384 94.0996 180.839C95.3793 181.29 96.7836 181.242 98.029 180.705C99.2032 180.137 100.076 179.031 101.326 178.658C102.003 178.464 102.726 178.494 103.404 178.314C104.112 178.136 104.741 177.732 105.195 177.164C105.903 176.267 106.204 174.998 107.213 174.445C107.694 174.191 108.266 174.146 108.718 173.937C109.227 173.7 109.67 173.344 110.009 172.899C110.347 172.453 110.571 171.933 110.66 171.382C110.855 170.285 110.855 169.162 110.66 168.065C110.211 165.112 109.603 162.184 108.838 159.295C108.523 158.323 108.039 157.413 107.408 156.606C106.731 155.634 106.083 154.633 105.361 153.707C100.393 147.447 84.6902 126.53 84.6902 126.53L106.836 102.446C106.836 102.446 115.463 90.4934 106.114 70.0547Z" fill="#B16668"/>
<path d="M90.5008 178.927C92.9999 180.81 96.7186 182.154 99.2629 179.644C99.887 179.087 100.627 178.674 101.431 178.434C103.057 178.24 104.637 177.986 105.375 176.372C105.712 175.584 106.228 174.884 106.881 174.325C107.679 173.817 108.552 173.892 109.109 173.429C109.705 172.966 110.129 172.32 110.313 171.591C110.84 167.826 109.35 163.568 108.567 159.848C108.01 157.502 106.203 155.769 104.924 153.767L102.003 149.897C96.3271 142.427 90.1244 134.075 84.6143 126.53C90.4105 133.836 96.7637 142.069 102.47 149.524L105.481 153.379C106.805 155.396 108.717 157.263 109.244 159.683C109.771 162.104 110.343 164.42 110.75 166.825C111.15 168.434 111.211 170.107 110.931 171.741C110.713 172.589 110.208 173.338 109.5 173.862C108.748 174.43 107.799 174.355 107.227 174.744C106.641 175.253 106.178 175.886 105.872 176.596C105.472 177.356 104.832 177.965 104.05 178.329C103.262 178.57 102.449 178.725 101.627 178.793C100.046 179.136 99.0069 180.705 97.396 181.078C94.912 181.706 92.5031 180.346 90.6062 178.927H90.5008Z" fill="#9A4A4D"/>
<path d="M84.6297 126.53C80.2337 130.803 73.4288 131.132 70.9146 131.012C73.4233 132.048 76.1765 132.357 78.8547 131.902C81.5329 131.447 84.0261 130.247 86.0449 128.443L84.6297 126.53Z" fill="#9A4A4D"/>
<path opacity="0.2" d="M141.328 109.135C139.478 111.934 136.856 114.146 133.774 115.507C130.692 116.869 127.281 117.322 123.947 116.814C120.72 116.469 117.64 115.288 115.017 113.391C112.393 111.493 110.318 108.944 109 106C109 106 108.471 118.584 123.706 119.814C138.94 121.044 141.328 109.135 141.328 109.135Z" fill="black"/>
<path d="M380.098 268.648C396.885 290.296 399.539 264.13 405.378 261.498C409.226 259.766 408.113 262.315 410.332 263.782C411.611 264.615 422.098 252.495 424.266 248.835C425.884 246.08 427.699 241.008 424.71 238.129C421.19 234.726 438.423 227.381 425.86 211.179C415.665 198.032 407.393 214.064 404.352 213.59C400.786 213.036 399.697 210.695 399.697 210.695C399.697 210.695 384.654 218.761 385.359 228.727C385.56 231.572 388.161 232.74 387.122 235.684C383.165 246.919 363.84 247.701 380.098 268.667L380.098 268.648Z" fill="#8B4E96" stroke="#FAFAFA" stroke-miterlimit="10"/>
<path d="M385.919 246.947C382.06 252.497 375.608 258.166 381.869 266.321C386.271 272.057 391.122 269.238 392.583 267.401C402.261 255.244 423.377 229.302 424.3 223.407C425.476 215.829 422.062 211.347 416.766 211.86C412.322 212.298 395.455 233.214 385.927 246.937L385.919 246.947Z" fill="#8B4E96" stroke="#FAFAFA" stroke-miterlimit="10"/>
<ellipse cx="399.248" cy="218.501" rx="2.91621" ry="2.33297" fill="#FAFAFA"/>
<ellipse cx="392.248" cy="224.917" rx="2.91621" ry="2.33297" fill="#FAFAFA"/>
<ellipse cx="413.09" cy="251.225" rx="2.91621" ry="2.33297" fill="#FAFAFA"/>
<ellipse cx="418.92" cy="244.81" rx="2.91621" ry="2.33297" fill="#FAFAFA"/>
<path d="M198.998 62.5C198.998 63.9894 195.364 65.4761 196.059 67.8574C198.422 75.948 216.826 64.5384 222.285 69.9076C224.222 71.8108 215.998 77.0789 221.941 77.0789" stroke="#F9FAF9" stroke-width="0.5" stroke-miterlimit="10"/>
<path d="M205.138 65.4762C202.558 70.064 193.225 57.4316 196.904 54.0206C203.261 48.1365 213.244 28.7741 218.853 30.0612C223.041 31.0174 224.013 34.9524 223.998 35.9637C223.803 46.5 211.15 54.7929 205.138 65.4762Z" fill="#8B4E96"/>
<path d="M200.498 64.5C207.594 57.542 217.69 43.6975 222.498 35" stroke="#F9FAF9" stroke-width="0.5" stroke-miterlimit="10"/>
<path d="M198.844 61.1842C203.498 56 212.257 44.2556 220.852 33.4085" stroke="#F9FAF9" stroke-width="0.5" stroke-miterlimit="10"/>
<path d="M196.998 59C204.498 48 209.998 40 218.498 32" stroke="#F9FAF9" stroke-width="0.5" stroke-miterlimit="10"/>
<path d="M342.75 168.013C307.202 167.143 277.564 164.263 265.76 153.899C265.76 153.899 260.304 162.673 258.823 190.586C257.606 207.772 257.333 225.012 258.007 242.227C259.005 267.425 261.725 269.96 263.025 282.169C264.098 292.263 268.451 318.376 269.599 334.455C270.234 343.349 268.813 349.454 264.974 354.314C261.136 359.173 255.407 365.983 250.163 369.207C247.397 370.917 242.908 373.017 242.515 376.197C241.926 380.892 246.762 381.702 253.186 383.231C257.72 384.311 266.002 384.461 270.295 382.452C273.65 380.877 277.171 376.347 279.998 372.747C283.443 368.338 284.033 367.693 291.272 363.883C293.731 362.669 295.66 360.608 296.698 358.084C297.736 355.561 297.811 352.749 296.91 350.174C295.625 346.799 293.675 341.745 293.781 337.815C294.068 326.821 296.985 314.342 298.557 304.667C299.605 299.115 300.086 293.472 299.993 287.824C299.692 280.618 298.854 273.443 297.484 266.36L310.512 212.154C316.89 210.25 340.588 192.986 342.75 168.013Z" fill="#FFA8A7"/>
<path d="M297.03 211.555C288.294 207.79 279.377 199.15 274.48 188.321C283.745 196.496 295.096 202.675 300.824 202.225L310.512 212.154L297.484 266.36C297.484 266.36 302.501 213.909 297.03 211.555Z" fill="#F28F8F"/>
<path d="M338.427 378.087C339.679 369.687 339.74 361.155 338.608 352.739C335.419 334.905 329.54 319.951 323.116 298.848C316.693 277.744 312.129 259.401 309.212 246.352C306.295 233.303 301.866 207.715 301.866 207.715C301.866 207.715 287.599 200.725 278.742 188.216C275.72 183.941 267.483 175.437 265.76 153.884C265.76 153.884 277.11 164.818 306.824 163.123C333.152 161.623 338.956 153.269 338.956 153.269C338.956 153.269 338.956 156.134 345.303 166.423C347.077 169.042 348.462 171.901 349.414 174.912C352.466 183.27 354.332 192.008 354.961 200.875C355.913 211.989 355.596 223.718 354.961 242.002C354.22 262.116 354.568 269.615 354.568 269.615C358.891 278.194 360.614 288.259 359.707 310.412C359.223 322.906 358.286 338.685 359.707 344.729C360.009 345.959 362.865 349.409 364.724 351.104C367.838 353.953 368.17 357.478 367.052 361.978C365.934 366.478 361.656 368.742 362.019 378.042C362.382 387.341 362.442 391.061 358.014 395.53C353.586 400 345.711 403.165 336.265 401.695C329.268 400.6 333.605 394.525 333.605 394.525C335.77 389.222 337.386 383.714 338.427 378.087Z" fill="#FFA8A7"/>
<path d="M286.557 86.8691C277.837 87.4241 271.806 87.3041 260.26 98.7032C249.997 108.812 237.589 121.921 234.566 125.356C229.367 131.521 229.76 134.491 236.335 143.595C241.881 151.259 254.229 161.398 255.559 164.683C256.889 167.968 254.879 173.878 255.68 177.792C256.481 181.707 254.622 183.027 250.889 184.077C247.156 185.127 248.229 187.871 249.03 188.231C249.831 188.591 257.237 187.931 260.184 187.196C264.661 185.663 268.946 183.625 272.955 181.122C275.887 179.217 272.864 161.398 270.235 156.974C267.408 152.219 256.723 135.81 256.723 135.81L282.779 116.627L286.557 86.8691Z" fill="#FFA8A7"/>
<path d="M256.74 135.75C253.717 132.24 246.75 131.101 242.986 132.03C246.538 129.121 254.805 129.346 258.735 134.28L256.74 135.75Z" fill="#F28F8F"/>
<path d="M274.857 60.051C274.162 57.5312 271.321 57.2313 270.807 53.8565C270.293 50.4818 272.152 48.2619 274.978 46.8371C277.805 45.4122 278.424 42.6974 278.001 37.0428C277.578 31.3882 281.719 28.1485 286.389 27.5785C288.702 27.3085 291.377 27.5785 293.024 25.9736C293.688 25.1994 294.237 24.3359 294.656 23.4088C296.984 19.3742 301.17 17.7093 306.747 17.8743C309.404 17.9576 312.017 18.564 314.435 19.6583C316.853 20.7527 319.028 22.313 320.833 24.2488C323.856 23.8438 329.569 24.6387 332.592 27.4285C333.917 28.4106 335.029 29.647 335.862 31.0642C336.696 32.4813 337.233 34.0503 337.443 35.6779C337.882 39.0226 337.443 40.9125 338.955 42.7574C341.811 46.5221 345.484 46.5971 347.086 49.7468C349.338 54.2465 343.383 57.8762 346.24 63.2458C346.828 64.3013 347.171 65.4742 347.242 66.6783C347.313 67.8824 347.112 69.0871 346.652 70.2037C346.192 71.3203 345.486 72.3205 344.586 73.1306C343.685 73.9407 342.613 74.5402 341.449 74.8849C338.834 75.7998 336.642 74.4049 332.894 75.6798C329.146 76.9548 328.919 79.7745 324.143 81.5444C320.244 83.0443 317.01 80.0445 313.881 79.6546C309.619 79.0396 310.949 80.4795 306.808 77.6747C305.372 76.7148 304.556 75.0499 303.12 74.105C298.586 71.2402 297.075 72.6951 291.347 74.5549C289.835 75.0349 284.984 76.2648 281.764 72.5451C279.857 70.1017 278.916 67.0501 279.12 63.9657C278.092 66.9655 271.003 66.7705 270.414 61.8809C270.743 62.3223 271.212 62.6417 271.745 62.7883C272.278 62.9349 272.845 62.9002 273.357 62.6897C273.868 62.4793 274.293 62.1051 274.565 61.627C274.837 61.1488 274.94 60.594 274.857 60.051Z" fill="#AE7864"/>
<path d="M320.17 78.6795C320.306 75.8747 321.001 68.7652 321.001 68.7652C321.968 71.42 326.774 71.645 329.208 68.4653C332.23 64.4306 332.397 59.5559 330.447 56.4662C328.301 53.1214 322.981 52.9114 320.487 57.9661C316.95 58.521 315.756 53.1664 318.779 48.3218C319.142 36.6227 303 40.1474 300.053 29.5582C297.27 29.9928 294.625 31.0559 292.322 32.6656C290.018 34.2754 288.118 36.3887 286.768 38.8425C285.438 41.4073 285.257 43.0122 285.363 48.2768C285.363 50.3316 283.942 52.6715 283.458 55.3863C281.237 67.7753 284.788 72.8449 288.839 75.3647C291 76.7146 293.826 77.6296 299.056 78.0645C299.056 78.0645 298.965 80.4043 298.753 81.9342C298.27 85.504 294.068 85.9839 294.068 85.9839C294.068 85.9839 286.3 92.1934 297.665 94.5633C314.608 98.088 321.696 87.9488 322.512 85.369C319.928 84.769 319.928 83.3591 320.17 78.6795Z" fill="#FFA8A7"/>
<path d="M320.123 79.5197C320.123 82.6694 320.758 84.1393 325.307 85.6242C329.856 87.1091 336.295 88.399 339.499 89.8239C342.703 91.2488 347.705 99.9031 346.542 107.628C345.378 115.352 342.627 126.481 341.584 131.251C340.542 136.02 339.106 142.095 342.083 148.169C346.874 157.919 352.663 163.978 351.696 184.947C345.438 163.498 305.946 182.832 301.82 207.67C295.235 206.488 288.896 204.222 283.064 200.965C271.517 194.606 264.353 187.916 261.331 175.602C257.386 159.494 264.444 148.214 264.686 144.48C265.003 139.59 266.696 129.841 266.696 129.841C266.696 129.841 260.469 121.681 261.829 112.817C262.993 105.198 268.933 100.578 273.013 96.8883C277.342 93.2426 281.973 89.9662 286.858 87.0941C288.733 86.6892 290.63 86.3937 292.54 86.2092C296.183 85.8342 298.238 85.0692 298.707 81.9645L320.123 79.5197Z" fill="#FFA8A7"/>
<path d="M351.712 184.946C344.155 167.713 305.993 187.121 302.108 208.09C295.408 207.162 288.94 205.006 283.035 201.73C271.503 195.371 263.614 188.351 260.591 176.007C256.631 159.898 263.765 148.199 264.007 144.51C264.309 139.62 266.123 130.006 266.123 130.006C266.123 130.006 259.669 121.996 261.029 113.132C262.193 105.528 267.876 100.848 271.896 97.0982C276.778 92.5985 286.481 86.8989 286.481 86.8989L292.602 86.239H292.677C288.657 90.0787 280.042 96.3182 282.098 101.568C284.244 107.132 296.426 108.617 308.774 102.183C319.504 96.5882 324.28 91.6836 330.265 87.0639C331.988 87.5289 334.029 88.0539 335.812 88.5638C328.996 97.6381 327.953 123.346 330.054 129.631C331.943 135.24 335.132 140.985 340.361 141.63C340.968 143.749 341.773 145.808 342.764 147.779C347.54 157.544 352.603 163.963 351.712 184.946Z" fill="#8B4E96"/>
<path opacity="0.2" d="M288.068 130.126C289.919 132.925 292.541 135.137 295.622 136.498C298.704 137.86 302.115 138.313 305.449 137.805C308.677 137.46 311.757 136.279 314.38 134.382C317.003 132.484 319.078 129.935 320.397 126.991C320.397 126.991 320.926 139.575 305.691 140.805C290.456 142.035 288.068 130.126 288.068 130.126Z" fill="black"/>
<path d="M304.51 64.6106L298.178 66.1105C298.256 66.5301 298.42 66.9296 298.659 67.2845C298.897 67.6395 299.206 67.9426 299.567 68.1755C299.927 68.4083 300.332 68.5661 300.755 68.6391C301.179 68.7121 301.613 68.6989 302.032 68.6003C302.885 68.3834 303.62 67.8463 304.083 67.1021C304.545 66.3579 304.698 65.4647 304.51 64.6106Z" fill="#B16668"/>
<path d="M304.013 65.9906C303.188 65.9101 302.361 66.1156 301.672 66.5724C300.983 67.0291 300.475 67.7087 300.234 68.4954C300.809 68.711 301.437 68.7477 302.033 68.6004C302.637 68.4534 303.187 68.1404 303.62 67.6974C304.053 67.2544 304.352 66.6992 304.481 66.0956C304.329 66.0448 304.172 66.0096 304.013 65.9906Z" fill="#F28F8F"/>
<path d="M288.625 45.3522L293.295 43.5674C293.196 43.2572 293.033 42.9704 292.818 42.7249C292.603 42.4794 292.339 42.2802 292.043 42.1397C291.747 41.9992 291.425 41.9203 291.097 41.9079C290.769 41.8954 290.443 41.9498 290.137 42.0675C289.507 42.3161 288.998 42.7966 288.716 43.4086C288.434 44.0206 288.402 44.717 288.625 45.3522Z" fill="#263238"/>
<path d="M311.042 47.4522L306.629 44.9774C306.778 44.6846 306.986 44.425 307.239 44.214C307.492 44.003 307.786 43.8451 308.102 43.7498C308.418 43.6545 308.751 43.6237 309.08 43.6594C309.408 43.6951 309.726 43.7965 310.014 43.9574C310.605 44.2977 311.041 44.8503 311.232 45.5009C311.424 46.1514 311.356 46.8501 311.042 47.4522Z" fill="#263238"/>
<path d="M309.227 52.6866C308.959 53.2209 308.505 53.6412 307.95 53.87C307.394 54.0987 306.774 54.1206 306.204 53.9315C304.874 53.6015 303.922 52.5816 304.239 51.4267C304.39 50.8267 304.602 52.1916 306.718 52.6566C308.834 53.1215 309.378 52.1316 309.227 52.6866Z" fill="#263238"/>
<path d="M293.873 50.6317C293.7 51.213 293.318 51.7112 292.8 52.0319C292.282 52.3526 291.663 52.4734 291.061 52.3716C289.701 52.2666 288.583 51.4267 288.689 50.2417C288.689 49.6268 289.187 50.9317 291.349 51.0217C293.51 51.1117 293.993 50.0617 293.873 50.6317Z" fill="#263238"/>
<path d="M299.056 78.0947C307.021 77.8847 316.059 75.3199 319.006 71.1052C318.78 72.4004 318.252 73.6254 317.465 74.6826C316.678 75.7398 315.653 76.6 314.472 77.1948C309.659 79.6718 304.276 80.8559 298.859 80.6295L299.056 78.0947Z" fill="#F28F8F"/>
<path d="M326.489 67.1305C326.444 67.586 326.22 68.0054 325.864 68.2965C325.508 68.5877 325.051 68.7266 324.592 68.6829C324.133 68.6391 323.71 68.4162 323.417 68.0632C323.123 67.7102 322.983 67.256 323.028 66.8005C323.049 66.575 323.116 66.356 323.223 66.1559C323.33 65.9558 323.476 65.7786 323.652 65.6345C323.828 65.4903 324.031 65.382 324.249 65.3157C324.468 65.2495 324.697 65.2265 324.924 65.2481C325.152 65.2698 325.372 65.3357 325.574 65.442C325.775 65.5483 325.954 65.693 326.099 65.8678C326.244 66.0426 326.354 66.2441 326.42 66.4607C326.487 66.6774 326.51 66.905 326.489 67.1305Z" fill="#EBEBEB"/>
<path d="M290.41 59.4961L297.151 62.5409L299.282 49.1169L290.41 59.4961Z" fill="#F28F8F"/>
<path d="M352.437 192.641C353.949 191.066 355.747 189.641 356.352 187.541C356.531 186.999 356.578 186.423 356.488 185.86C356.399 185.297 356.176 184.762 355.838 184.301C355.666 184.131 355.532 183.927 355.445 183.701C355.406 183.508 355.406 183.31 355.445 183.116C355.647 182.315 355.594 181.472 355.294 180.702C355.145 180.392 354.935 180.115 354.675 179.888C354.415 179.661 354.111 179.489 353.782 179.382C354.183 178.194 354.183 176.91 353.782 175.722C353.314 174.342 351.863 173.232 350.911 174.777C350.468 175.55 350.104 176.363 349.823 177.207C349.099 179.31 348.628 181.489 348.417 183.701C348.19 185.996 347.631 192.506 351.228 192.821C351.44 192.836 352.241 192.851 352.437 192.641Z" fill="#F28F8F"/>
<path d="M335.782 88.5488C350.17 91.9086 351.802 92.4035 360.719 103.263C369.44 113.897 383.904 131.761 386.413 137.25C389.587 144.03 388.287 148.214 379.808 155.444C375.788 158.878 371.329 162.508 363.591 168.178C358.783 171.489 354.235 175.16 349.989 179.157C349.439 179.597 349.027 180.183 348.802 180.848C348.577 181.512 348.548 182.227 348.719 182.907C349.014 183.807 349.256 184.723 349.444 185.651C349.441 186.872 349.34 188.091 349.142 189.296C349.062 189.908 349.163 190.529 349.431 191.085C349.699 191.642 350.124 192.109 350.654 192.431C351.212 192.643 351.814 192.715 352.407 192.641C351.383 193.413 350.247 194.025 349.036 194.456C347.812 194.89 346.467 194.847 345.273 194.336C344.14 193.796 343.293 192.731 342.099 192.386C341.464 192.191 340.769 192.221 340.119 192.056C339.443 191.881 338.844 191.491 338.411 190.946C337.716 190.091 337.444 188.861 336.477 188.351C335.983 188.157 335.479 187.991 334.966 187.856C334.481 187.628 334.06 187.287 333.738 186.861C333.417 186.435 333.205 185.937 333.122 185.411C332.926 184.36 332.926 183.283 333.122 182.232C333.544 179.402 334.124 176.598 334.86 173.832C335.163 172.902 335.623 172.03 336.22 171.253C336.87 170.323 337.49 169.378 338.185 168.493C342.93 162.493 357.984 142.455 357.984 142.455L335.222 121.216C335.222 121.216 325.61 108.092 335.782 88.5488Z" fill="#FFA8A7"/>
<path d="M352.437 192.641C350.034 194.441 346.482 195.716 344.049 193.331C343.449 192.793 342.737 192.393 341.963 192.161C340.452 191.981 338.941 191.726 338.2 190.181C337.884 189.431 337.398 188.764 336.779 188.231C336.009 187.751 335.177 187.826 334.648 187.361C334.07 186.925 333.66 186.306 333.485 185.606C332.986 182.007 334.422 177.927 335.162 174.357C335.691 172.122 337.414 170.458 338.653 168.538L341.449 164.833C346.875 157.649 352.83 149.684 358.075 142.455C352.513 149.459 346.437 157.349 340.966 164.488L338.14 168.178C336.885 170.098 335.117 171.882 334.527 174.177C333.938 176.472 333.485 178.677 333.107 181.017C332.725 182.559 332.669 184.162 332.94 185.726C333.152 186.542 333.637 187.261 334.316 187.766C335.026 188.291 335.948 188.231 336.492 188.606C337.047 189.089 337.485 189.689 337.777 190.361C338.156 191.096 338.774 191.682 339.53 192.026C340.287 192.258 341.068 192.409 341.858 192.476C343.369 192.806 344.351 194.306 345.908 194.666C348.281 195.266 350.578 193.961 352.407 192.611L352.437 192.641Z" fill="#F28F8F"/>
<path d="M358.104 142.455C362.306 146.549 368.82 146.879 371.223 146.729C368.822 147.716 366.188 148.008 363.626 147.573C361.064 147.138 358.678 145.993 356.744 144.27L358.104 142.455Z" fill="#F28F8F"/>
<path d="M178.847 389.504C173.191 384.872 194.508 371.853 189.655 368.522C174.1 357.836 187.998 330.826 191.37 322.58C191.718 321.714 188.63 318.89 189.717 316.951C190.431 315.686 192.215 315.198 192.903 315.252C195.816 315.496 241.021 341.139 241.021 341.139C240.93 341.891 242.282 346.22 238.043 346.694C236.079 346.909 233.817 345.738 233.568 346.361C232.213 349.816 216.108 372.381 195.588 373.033C190.516 373.198 193.568 382.708 183.549 390.06C181.615 391.476 178.953 389.589 178.847 389.504Z" fill="#8B4E96" stroke="#FAFAFA" stroke-miterlimit="10"/>
<path d="M197.354 366.495C199.23 365.226 212.572 365.945 216.255 357.182" stroke="white" stroke-miterlimit="10"/>
<path d="M15.5463 226.049C32.8712 247.308 33.9924 223.874 39.4627 222.066C43.0685 220.877 42.1377 223.077 44.3514 224.624C45.6268 225.504 55.0473 215.562 56.9317 212.461C58.337 210.126 59.8053 205.712 56.7732 202.81C53.2026 199.381 69.3713 194.428 56.4053 178.518C45.8838 165.607 38.8063 179.309 35.857 178.58C32.3975 177.727 33.9186 174.765 31.2228 175.5C26.1666 176.864 19.621 187.243 18.422 190.416C17.5283 192.761 21.3358 194.326 20.498 196.89C17.3073 206.674 -1.23178 205.477 15.5472 226.067L15.5463 226.049Z" fill="#8B4E96"/>
<path d="M19.9638 206.971C16.557 211.616 10.6643 216.114 17.1297 224.115C21.6746 229.743 26.1835 227.669 27.4883 226.15C36.1266 216.095 55.0077 194.685 55.5722 189.438C56.2885 182.692 52.7616 178.297 47.6986 178.24C43.4501 178.198 28.3795 195.475 19.9708 206.963L19.9638 206.971Z" fill="#8B4E96" stroke="#FAFAFA" stroke-miterlimit="10"/>
<path d="M446.114 51.9029C446.114 62.3718 436.561 85 424.147 85C411.734 85 394.761 67.95 391.264 58.484C385.845 43.8231 398.568 30.92 415.798 34.6501C428.043 37.2983 446.123 41.4453 446.123 51.9029H446.114Z" fill="#8B4E96" stroke="#FAFAFA" stroke-miterlimit="10"/>
<path d="M424.848 73.6072C426.315 73.6072 427.504 71.6143 427.504 69.156C427.504 66.6976 426.315 64.7047 424.848 64.7047C423.381 64.7047 422.191 66.6976 422.191 69.156C422.191 71.6143 423.381 73.6072 424.848 73.6072Z" stroke="#FAFAFA" stroke-miterlimit="10"/>
<path d="M435.887 64.7159C437.584 64.7159 438.959 63.9188 438.959 62.9354C438.959 61.9521 437.584 61.1549 435.887 61.1549C434.19 61.1549 432.814 61.9521 432.814 62.9354C432.814 63.9188 434.19 64.7159 435.887 64.7159Z" stroke="#FAFAFA" stroke-miterlimit="10"/>
<path d="M403.941 61.155C404.982 61.155 405.826 59.5203 405.826 57.5038C405.826 55.4873 404.982 53.8527 403.941 53.8527C402.899 53.8527 402.055 55.4873 402.055 57.5038C402.055 59.5203 402.899 61.155 403.941 61.155Z" stroke="#FAFAFA" stroke-miterlimit="10"/>
<path d="M404.295 73.6184C405.532 73.6184 406.535 72.3419 406.535 70.7673C406.535 69.1927 405.532 67.9163 404.295 67.9163C403.058 67.9163 402.055 69.1927 402.055 70.7673C402.055 72.3419 403.058 73.6184 404.295 73.6184Z" stroke="#FAFAFA" stroke-miterlimit="10"/>
<path d="M425.288 46.9223C426.51 46.9223 427.501 45.9284 427.501 44.7023C427.501 43.4762 426.51 42.4823 425.288 42.4823C424.065 42.4823 423.074 43.4762 423.074 44.7023C423.074 45.9284 424.065 46.9223 425.288 46.9223Z" stroke="#FAFAFA" stroke-miterlimit="10"/>
<path d="M402.056 44.3414C404.334 44.3414 406.182 43.8218 406.182 43.1807C406.182 42.5397 404.334 42.02 402.056 42.02C399.777 42.02 397.93 42.5397 397.93 43.1807C397.93 43.8218 399.777 44.3414 402.056 44.3414Z" stroke="#FAFAFA" stroke-miterlimit="10"/>
<path d="M442.909 54.9231C443.451 54.9231 443.891 53.5306 443.891 51.8129C443.891 50.0951 443.451 48.7026 442.909 48.7026C442.366 48.7026 441.926 50.0951 441.926 51.8129C441.926 53.5306 442.366 54.9231 442.909 54.9231Z" stroke="#FAFAFA" stroke-miterlimit="10"/>
<path d="M416.742 54.9756C417.33 54.2274 417.493 53.2214 417.105 52.7285C416.718 52.2356 415.928 52.4425 415.34 53.1907C414.752 53.9388 414.589 54.9449 414.977 55.4377C415.364 55.9306 416.154 55.7237 416.742 54.9756Z" stroke="#FAFAFA" stroke-miterlimit="10"/>
<path d="M436.88 45.0965C437.428 45.0965 437.872 44.2388 437.872 43.1807C437.872 42.1227 437.428 41.265 436.88 41.265C436.333 41.265 435.889 42.1227 435.889 43.1807C435.889 44.2388 436.333 45.0965 436.88 45.0965Z" stroke="#FAFAFA" stroke-miterlimit="10"/>
<path d="M393.591 50.6184C394.139 50.6184 394.583 49.7607 394.583 48.7027C394.583 47.6447 394.139 46.787 393.591 46.787C393.044 46.787 392.6 47.6447 392.6 48.7027C392.6 49.7607 393.044 50.6184 393.591 50.6184Z" stroke="#FAFAFA" stroke-miterlimit="10"/>
<path d="M426.52 81.8467C426.971 80.9582 426.964 79.9311 426.504 79.5527C426.044 79.1743 425.306 79.5878 424.854 80.4764C424.403 81.3649 424.41 82.392 424.87 82.7704C425.33 83.1488 426.069 82.7353 426.52 81.8467Z" stroke="#FAFAFA" stroke-miterlimit="10"/>
<path d="M412.93 41.9863C414.167 41.9863 415.17 40.7098 415.17 39.1352C415.17 37.5606 414.167 36.2842 412.93 36.2842C411.692 36.2842 410.689 37.5606 410.689 39.1352C410.689 40.7098 411.692 41.9863 412.93 41.9863Z" stroke="#FAFAFA" stroke-miterlimit="10"/>
<path d="M427.681 60.4902C428.722 60.4902 429.567 58.8555 429.567 56.839C429.567 54.8225 428.722 53.1879 427.681 53.1879C426.639 53.1879 425.795 54.8225 425.795 56.839C425.795 58.8555 426.639 60.4902 427.681 60.4902Z" stroke="#FAFAFA" stroke-miterlimit="10"/>
<path d="M413.416 67.3416C415.113 67.3416 416.488 66.5445 416.488 65.5611C416.488 64.5778 415.113 63.7806 413.416 63.7806C411.719 63.7806 410.344 64.5778 410.344 65.5611C410.344 66.5445 411.719 67.3416 413.416 67.3416Z" stroke="#FAFAFA" stroke-miterlimit="10"/>
</svg>
