<svg width="175" height="349" viewBox="0 0 175 349" fill="none" xmlns="http://www.w3.org/2000/svg">
<path d="M173.954 22.0828C173.954 33.7099 164.355 43.1656 152.477 43.1656C140.599 43.1656 131 33.7099 131 22.0828C131 10.4557 140.599 1 152.477 1C164.355 1 173.954 10.4557 173.954 22.0828Z" stroke="#AE7864" stroke-width="2"/>
<path d="M128.815 57.0131C128.815 63.6198 123.288 69.0261 116.407 69.0261C109.527 69.0261 104 63.6198 104 57.0131C104 50.4064 109.527 45 116.407 45C123.288 45 128.815 50.4064 128.815 57.0131Z" stroke="#AE7864" stroke-width="2"/>
<circle cx="90.9268" cy="69.915" r="4.91503" stroke="#AE7864" stroke-width="2"/>
<path d="M31.3264 186.863C55.9379 186.26 76.4579 184.267 84.6304 177.091C84.6304 177.091 88.4079 183.166 89.4334 202.491C90.2763 214.39 90.4649 226.326 89.9985 238.245C89.3078 255.691 87.4243 257.446 86.5244 265.899C85.7814 272.888 82.7678 290.968 81.9725 302.1C81.533 308.258 82.5166 312.484 85.1745 315.849C87.8324 319.214 91.7983 323.928 95.4293 326.161C97.3442 327.345 100.452 328.798 100.724 331C101.132 334.25 97.7837 334.811 93.3365 335.87C90.1973 336.618 84.463 336.722 81.4912 335.33C79.1681 334.24 76.73 331.104 74.7732 328.612C72.3874 325.558 71.9793 325.112 66.967 322.474C65.2645 321.634 63.929 320.207 63.2105 318.46C62.492 316.712 62.4399 314.765 63.0639 312.983C63.9534 310.646 65.3033 307.147 65.23 304.426C65.0312 296.814 63.0116 288.174 61.9234 281.476C61.1977 277.632 60.8646 273.725 60.9293 269.814C61.1375 264.825 61.7181 259.858 62.6663 254.954L53.6463 217.424C49.2304 216.106 32.8228 204.153 31.3264 186.863Z" fill="#FFA8A7"/>
<path d="M62.9794 217.009C69.0276 214.402 75.2014 208.42 78.5918 200.923C72.1773 206.582 64.3188 210.861 60.3529 210.549L53.6454 217.424L62.6655 254.954C62.6655 254.954 59.1914 218.639 62.9794 217.009Z" fill="#F28F8F"/>
<path d="M34.3196 332.308C33.4526 326.493 33.4104 320.585 34.1941 314.758C36.402 302.411 40.4725 292.058 44.9197 277.447C49.367 262.836 52.5271 250.135 54.5467 241.101C56.5662 232.066 59.6322 214.35 59.6322 214.35C59.6322 214.35 69.5103 209.511 75.6422 200.85C77.735 197.891 83.438 192.003 84.6309 177.08C84.6309 177.08 76.7723 184.65 56.2 183.477C37.9716 182.438 33.9534 176.654 33.9534 176.654C33.9534 176.654 33.9534 178.638 29.5585 185.762C28.3304 187.575 27.3718 189.555 26.7123 191.639C24.5996 197.426 23.3072 203.475 22.8719 209.615C22.2127 217.31 22.4325 225.43 22.8719 238.089C23.3847 252.015 23.144 257.207 23.144 257.207C20.1513 263.147 18.9584 270.115 19.5862 285.453C19.9211 294.103 20.5699 305.028 19.5862 309.213C19.3769 310.064 17.3992 312.453 16.1122 313.626C13.9566 315.599 13.7263 318.04 14.5007 321.155C15.275 324.27 18.2364 325.839 17.9852 332.277C17.7341 338.715 17.6922 341.291 20.7582 344.385C23.8242 347.48 29.2759 349.671 35.816 348.653C40.6609 347.895 37.6577 343.69 37.6577 343.69C36.1586 340.018 35.0402 336.204 34.3196 332.308Z" fill="#FFA8A7"/>
<path d="M70.2304 130.682C76.2682 131.066 80.4433 130.983 88.4379 138.875C95.543 145.874 104.134 154.95 106.227 157.328C109.826 161.596 109.554 163.653 105.003 169.956C101.162 175.262 92.6131 182.282 91.6922 184.557C90.7714 186.831 92.1631 190.922 91.6085 193.633C91.0539 196.343 92.341 197.257 94.9256 197.984C97.5102 198.711 96.7673 200.611 96.2127 200.86C95.6581 201.11 90.5307 200.653 88.4902 200.144C85.3906 199.082 82.4238 197.671 79.6481 195.938C77.618 194.619 79.7109 182.282 81.5316 179.219C83.4884 175.927 90.8865 164.566 90.8865 164.566L72.8464 151.285L70.2304 130.682Z" fill="#FFA8A7"/>
<path d="M90.8742 164.525C92.967 162.095 97.7909 161.306 100.396 161.95C97.9374 159.935 92.2136 160.091 89.4929 163.507L90.8742 164.525Z" fill="#F28F8F"/>
<path d="M78.3337 112.114C78.8151 110.37 80.7823 110.162 81.1381 107.825C81.4939 105.489 80.2068 103.952 78.25 102.965C76.2932 101.979 75.8642 100.099 76.1572 96.1844C76.4502 92.2694 73.583 90.0264 70.3496 89.6318C68.7486 89.4448 66.8965 89.6318 65.7559 88.5206C65.2967 87.9846 64.9162 87.3867 64.6258 86.7449C63.0143 83.9514 60.1158 82.7987 56.2545 82.913C54.4154 82.9706 52.6061 83.3905 50.9319 84.1482C49.2577 84.9058 47.7519 85.9862 46.502 87.3264C44.4092 87.046 40.4538 87.5964 38.361 89.5279C37.4439 90.2079 36.6739 91.0639 36.0969 92.045C35.5199 93.0262 35.1475 94.1125 35.002 95.2394C34.6986 97.5551 35.002 98.8636 33.9556 100.141C31.9779 102.747 29.4351 102.799 28.3259 104.98C26.7668 108.095 30.8896 110.609 28.9119 114.326C28.5046 115.057 28.2675 115.869 28.218 116.703C28.1686 117.536 28.3082 118.37 28.6264 119.144C28.9446 119.917 29.4335 120.609 30.0569 121.17C30.6804 121.731 31.4226 122.146 32.229 122.385C34.0393 123.018 35.5566 122.052 38.1517 122.935C40.7468 123.818 40.9038 125.77 44.2104 126.995C46.9101 128.034 49.1494 125.957 51.3155 125.687C54.2664 125.261 53.3455 126.258 56.2127 124.316C57.2068 123.651 57.7718 122.499 58.7659 121.845C61.9051 119.861 62.9516 120.868 66.9174 122.156C67.9638 122.488 71.3228 123.34 73.5516 120.765C74.8723 119.073 75.5236 116.96 75.3829 114.825C76.0944 116.902 81.0021 116.767 81.4102 113.381C81.1823 113.687 80.8579 113.908 80.4887 114.009C80.1195 114.111 79.7267 114.087 79.3729 113.941C79.0191 113.795 78.7245 113.536 78.5362 113.205C78.3479 112.874 78.2766 112.49 78.3337 112.114Z" fill="#AE7864"/>
<path d="M46.9621 125.011C46.868 123.069 46.3866 118.147 46.3866 118.147C45.7169 119.985 42.3893 120.141 40.7046 117.939C38.6118 115.146 38.4967 111.771 39.8466 109.632C41.3325 107.316 45.0158 107.171 46.7424 110.67C49.191 111.054 50.0176 107.347 47.9248 103.993C47.6737 95.8931 58.8493 98.3334 60.8898 91.002C62.8166 91.3028 64.648 92.0389 66.2428 93.1534C67.8375 94.2679 69.153 95.731 70.0877 97.43C71.0086 99.2057 71.1341 100.317 71.0609 103.962C71.0609 105.385 72.0445 107.005 72.3794 108.884C73.9176 117.462 71.4585 120.972 68.6542 122.716C67.1578 123.651 65.201 124.284 61.5804 124.586C61.5804 124.586 61.6432 126.206 61.7897 127.265C62.1246 129.736 65.0336 130.069 65.0336 130.069C65.0336 130.069 70.4121 134.368 62.5431 136.009C50.8129 138.449 45.9053 131.429 45.3402 129.643C47.1296 129.227 47.1296 128.251 46.9621 125.011Z" fill="#FFA8A7"/>
<path d="M46.9942 125.594C46.9942 127.775 46.5548 128.792 43.4051 129.82C40.2554 130.848 35.7977 131.741 33.5793 132.728C31.3609 133.714 27.8973 139.706 28.7031 145.054C29.5088 150.402 31.4132 158.108 32.1353 161.41C32.8573 164.712 33.8514 168.918 31.7899 173.124C28.4728 179.874 24.4651 184.069 25.1348 198.587C29.4669 183.737 56.8095 197.122 59.6662 214.319C64.2253 213.501 68.6144 211.932 72.6521 209.677C80.6467 205.274 85.6067 200.643 87.6995 192.117C90.4306 180.964 85.5439 173.155 85.3764 170.569C85.1567 167.184 83.9847 160.434 83.9847 160.434C83.9847 160.434 88.2959 154.785 87.3541 148.647C86.5484 143.372 82.436 140.174 79.6107 137.619C76.6138 135.095 73.4074 132.826 70.0257 130.838C68.7274 130.558 67.4136 130.353 66.0912 130.225C63.5693 129.966 62.1462 129.436 61.8218 127.286L46.9942 125.594Z" fill="#FFA8A7"/>
<path d="M25.1222 198.587C30.3543 186.655 56.7761 200.092 59.4653 214.61C64.1043 213.968 68.5824 212.475 72.671 210.207C80.6551 205.804 86.1173 200.944 88.2101 192.398C90.9517 181.245 86.0127 173.145 85.8452 170.59C85.6359 167.205 84.3803 160.548 84.3803 160.548C84.3803 160.548 88.8484 155.003 87.9067 148.866C87.1009 143.601 83.1664 140.361 80.383 137.764C77.0031 134.649 70.2852 130.703 70.2852 130.703L66.0472 130.246H65.9949C68.7783 132.905 74.7429 137.225 73.3197 140.859C71.8338 144.712 63.3998 145.74 54.8507 141.285C47.4212 137.411 44.1145 134.016 39.9708 130.817C38.7779 131.139 37.3652 131.503 36.1305 131.856C40.8497 138.138 40.4545 146.555 39 150.906C37.692 154.79 35.1206 158.459 31.5 158.906C31.0796 160.373 32.0033 171.489 31.317 172.854C28.0103 179.614 24.5049 184.059 25.1222 198.587Z" fill="#BA68C8"/>
<path d="M25.5 186.906C26.6222 186.087 46.3193 197.195 61 197.906C66.4703 198.171 67 198.768 75 198.587C83 198.406 86.8561 197.906 88.2101 192.398C90.9517 181.245 86.0127 173.145 85.8452 170.59C85.6359 167.205 84.3803 160.548 84.3803 160.548C84.3803 160.548 88.8484 155.003 87.9067 148.866C87.1009 143.601 83.1664 140.361 80.383 137.764C77.0031 134.649 70.2852 130.703 70.2852 130.703L66.0472 130.246H65.9949C68.7783 132.905 74.7429 137.225 73.3197 140.859C71.8338 144.712 63.3998 145.74 54.8507 141.285C47.4212 137.411 44.1145 134.016 39.9708 130.817C38.7779 131.139 37.3652 131.503 36.1305 131.856C40.8497 138.138 40.4545 146.555 39 150.906C37.692 154.79 35.1206 158.459 31.5 158.906C31.0796 160.373 32.0033 171.489 31.317 172.854C28.0103 179.614 24.3778 187.725 25.5 186.906Z" fill="#DDB3E3"/>
<path opacity="0.2" d="M69.1855 160.631C67.9045 162.569 66.089 164.101 63.9554 165.043C61.8219 165.986 59.4602 166.3 57.1519 165.948C54.9171 165.709 52.7849 164.892 50.9686 163.578C49.1523 162.264 47.7158 160.499 46.8029 158.461C46.8029 158.461 46.4367 167.174 56.9844 168.025C67.5322 168.877 69.1855 160.631 69.1855 160.631Z" fill="black"/>
<path d="M57.8011 115.271L62.1855 116.31C62.1312 116.6 62.018 116.877 61.8526 117.123C61.6873 117.369 61.4734 117.578 61.2238 117.74C60.9743 117.901 60.6943 118.01 60.401 118.061C60.1076 118.111 59.8069 118.102 59.5172 118.034C58.9263 117.884 58.4172 117.512 58.0971 116.997C57.777 116.481 57.6709 115.863 57.8011 115.271Z" fill="#B16668"/>
<path d="M58.1457 116.227C58.7166 116.171 59.2893 116.313 59.7663 116.629C60.2433 116.946 60.5951 117.416 60.7617 117.961C60.3637 118.11 59.9294 118.136 59.5165 118.034C59.0983 117.932 58.7175 117.715 58.4177 117.408C58.1178 117.102 57.9112 116.717 57.8213 116.299C57.9267 116.264 58.0353 116.24 58.1457 116.227Z" fill="#F28F8F"/>
<path d="M68.7988 101.938L65.5654 100.702C65.6343 100.487 65.7468 100.289 65.896 100.119C66.0451 99.9486 66.2277 99.8108 66.4326 99.7135C66.6375 99.6162 66.8603 99.5616 67.0873 99.553C67.3143 99.5444 67.5406 99.582 67.7524 99.6635C68.1886 99.8356 68.5409 100.168 68.7359 100.592C68.9309 101.016 68.9534 101.498 68.7988 101.938Z" fill="#263238"/>
<path d="M53.2804 103.392L56.3359 101.678C56.2325 101.476 56.0889 101.296 55.9136 101.15C55.7383 101.004 55.535 100.894 55.3159 100.828C55.0969 100.762 54.8667 100.741 54.6391 100.766C54.4116 100.791 54.1915 100.861 53.992 100.972C53.5831 101.208 53.2811 101.59 53.1487 102.041C53.0162 102.491 53.0634 102.975 53.2804 103.392Z" fill="#263238"/>
<path d="M54.5376 107.015C54.723 107.385 55.037 107.676 55.4216 107.834C55.8061 107.993 56.2354 108.008 56.6304 107.877C57.5512 107.649 58.2105 106.942 57.9907 106.143C57.8861 105.727 57.7396 106.672 56.2746 106.994C54.8096 107.316 54.4329 106.631 54.5376 107.015Z" fill="#263238"/>
<path d="M65.1677 105.593C65.2873 105.995 65.5515 106.34 65.9102 106.562C66.2689 106.784 66.6973 106.868 67.1141 106.797C68.0558 106.725 68.8302 106.143 68.7569 105.323C68.7569 104.897 68.4116 105.8 66.9152 105.863C65.4189 105.925 65.084 105.198 65.1677 105.593Z" fill="#263238"/>
<path d="M61.5808 124.607C56.0662 124.461 49.8087 122.686 47.7682 119.768C47.9247 120.664 48.29 121.512 48.835 122.244C49.38 122.976 50.0896 123.572 50.9074 123.984C54.2398 125.699 57.9663 126.518 61.7168 126.362L61.5808 124.607Z" fill="#F28F8F"/>
<path d="M42.5865 117.016C42.617 117.331 42.7725 117.622 43.0188 117.823C43.2651 118.025 43.582 118.121 43.8997 118.091C44.2175 118.06 44.5101 117.906 44.7132 117.662C44.9163 117.417 45.0133 117.103 44.9828 116.787C44.9676 116.631 44.9217 116.48 44.8475 116.341C44.7733 116.202 44.6724 116.08 44.5504 115.98C44.4285 115.88 44.2879 115.805 44.1368 115.759C43.9856 115.713 43.8269 115.698 43.6695 115.713C43.5122 115.728 43.3594 115.773 43.2198 115.847C43.0802 115.92 42.9566 116.021 42.856 116.142C42.7555 116.263 42.6799 116.402 42.6336 116.552C42.5874 116.702 42.5714 116.86 42.5865 117.016Z" fill="#EBEBEB"/>
<path d="M67.5645 111.73L62.8975 113.838L61.4221 104.544L67.5645 111.73Z" fill="#F28F8F"/>
<path d="M24.6183 203.913C23.5719 202.822 22.3267 201.836 21.9081 200.382C21.7841 200.007 21.7518 199.608 21.8136 199.218C21.8755 198.828 22.0298 198.458 22.2639 198.139C22.3828 198.021 22.4755 197.88 22.5359 197.724C22.5627 197.59 22.5627 197.452 22.5359 197.319C22.3963 196.764 22.4328 196.18 22.6406 195.647C22.7435 195.432 22.8893 195.24 23.0692 195.083C23.2491 194.926 23.4593 194.807 23.687 194.733C23.4094 193.911 23.4094 193.021 23.687 192.199C24.0114 191.244 25.0159 190.475 25.6751 191.545C25.9815 192.08 26.2338 192.643 26.4286 193.227C26.9294 194.683 27.256 196.192 27.4017 197.724C27.5587 199.313 27.9459 203.819 25.4554 204.037C25.3089 204.048 24.7543 204.058 24.6183 203.913Z" fill="#F28F8F"/>
<path d="M36.1512 131.845C26.1894 134.171 25.0593 134.514 18.8855 142.032C12.8477 149.395 2.83363 161.763 1.09659 165.563C-1.10086 170.257 -0.200942 173.154 5.6694 178.16C8.45284 180.538 11.5397 183.051 16.8973 186.976C20.2265 189.269 23.3748 191.81 26.315 194.578C26.6957 194.882 26.9808 195.288 27.1365 195.748C27.2923 196.208 27.3122 196.703 27.194 197.174C26.9899 197.797 26.8222 198.432 26.6917 199.074C26.6938 199.92 26.7638 200.763 26.901 201.598C26.9562 202.021 26.8868 202.451 26.7012 202.836C26.5155 203.221 26.2215 203.545 25.8546 203.768C25.4682 203.915 25.0512 203.965 24.6407 203.913C25.3493 204.448 26.1363 204.872 26.9742 205.17C27.8221 205.47 28.7531 205.441 29.5798 205.087C30.3646 204.713 30.9506 203.976 31.7772 203.737C32.2167 203.602 32.6981 203.623 33.148 203.508C33.6161 203.387 34.0313 203.117 34.3305 202.74C34.8118 202.148 35.0002 201.296 35.6699 200.943C36.0115 200.809 36.3609 200.694 36.7163 200.601C37.0518 200.443 37.3435 200.206 37.5659 199.911C37.7884 199.616 37.935 199.272 37.9929 198.908C38.1285 198.18 38.1285 197.434 37.9929 196.707C37.7006 194.747 37.2989 192.806 36.7895 190.891C36.5793 190.247 36.2609 189.643 35.8478 189.105C35.3978 188.461 34.9688 187.807 34.4874 187.194C31.2017 183.04 20.7795 169.167 20.7795 169.167L36.5384 154.462C36.5384 154.462 43.1935 145.376 36.1512 131.845Z" fill="#FFA8A7"/>
<path d="M24.6188 203.914C26.2825 205.16 28.7416 206.042 30.4263 204.391C30.8415 204.019 31.3346 203.742 31.8704 203.581C32.9168 203.457 33.9632 203.28 34.4759 202.211C34.6944 201.691 35.031 201.229 35.4595 200.861C35.9932 200.528 36.5687 200.58 36.935 200.258C37.3351 199.956 37.6194 199.528 37.7407 199.043C38.086 196.551 37.0919 193.726 36.5792 191.255C36.2129 189.708 35.02 188.555 34.162 187.226L32.2261 184.661C28.4695 179.687 24.3467 174.172 20.7157 169.167C24.5664 174.017 28.773 179.479 32.561 184.422L34.5178 186.976C35.3863 188.306 36.6106 189.541 37.0187 191.13C37.4268 192.719 37.7407 194.246 38.0023 195.866C38.2664 196.933 38.3056 198.043 38.1174 199.126C37.9709 199.691 37.6351 200.189 37.1652 200.539C36.6734 200.902 36.0351 200.861 35.6584 201.12C35.2745 201.454 34.9706 201.87 34.7689 202.335C34.5062 202.844 34.0787 203.25 33.5551 203.488C33.0307 203.649 32.4904 203.753 31.9436 203.799C30.8972 204.028 30.217 205.066 29.1392 205.316C27.4964 205.731 25.9058 204.827 24.6397 203.893L24.6188 203.914Z" fill="#F28F8F"/>
<path d="M20.695 169.167C17.7859 172.002 13.2759 172.23 11.6121 172.127C13.2749 172.81 15.0983 173.012 16.8721 172.711C18.6458 172.409 20.2976 171.616 21.6367 170.424L20.695 169.167Z" fill="#F28F8F"/>
</svg>
