<svg width="455" height="470" viewBox="0 0 455 470" fill="none" xmlns="http://www.w3.org/2000/svg">
<path d="M106.113 376.365C105.917 376.415 105.737 376.519 105.592 376.664C105.448 376.809 105.344 376.991 105.291 377.191C104.829 378.963 104.886 380.971 104.569 382.772C103.927 385.776 103.756 388.865 104.064 391.924C104.569 394.183 107.6 396.353 113.244 397.829C117.686 399.149 121.857 401.28 125.557 404.118C128.993 407.188 136.282 409.668 141.176 409.713C146.95 409.713 152.854 408.089 154.167 403.808C154.716 402.022 151.829 399.261 144.409 395.821C144.409 395.821 139.675 393.238 137.538 391.924C133.351 389.437 129.377 386.593 125.658 383.421C124.46 382.329 116.305 372.822 114.543 374.342C113.666 375.112 112.988 376.092 112.57 377.194C112.152 378.296 112.007 379.487 112.147 380.661C111.758 380.882 111.267 380.513 111.108 380.085C111.026 379.641 110.973 379.192 110.949 378.741C110.828 378.259 110.585 377.818 110.246 377.46C109.907 377.103 109.483 376.843 109.015 376.704C108.095 376.327 107.093 376.209 106.113 376.365Z" fill="#37474F"/>
<path d="M27.6599 378.786C28.146 380.068 28.4145 381.426 28.4539 382.801C28.6996 383.931 28.8779 385.074 28.988 386.226C28.988 387.245 29.2622 388.455 30.2005 388.795C30.5774 388.893 30.9742 388.875 31.3414 388.744C31.7085 388.613 32.0297 388.374 32.2647 388.057C32.731 387.414 33.16 386.743 33.5494 386.049C34.0259 385.363 34.6438 384.791 35.3596 384.376C36.0754 383.96 36.8716 383.71 37.6922 383.643C39.3378 383.51 39.612 383.023 40.738 384.248C40.738 384.248 35.195 393.917 39.41 410.82C40.2772 413.179 41.7001 415.284 43.5528 416.946C44.5488 417.935 45.386 418.526 46.613 419.751C47.0937 420.115 47.4694 420.604 47.7007 421.168C47.9319 421.732 48.0099 422.349 47.9266 422.955C47.8778 424.03 47.4345 425.047 46.6851 425.804C44.9389 426.956 42.9689 427.706 40.9112 428.003C36.9342 428.72 32.8394 428.249 29.1179 426.645C27.107 425.686 25.3573 424.236 24.0223 422.423C21.1354 417.581 21.3952 412.916 21.2797 408.694C21.0199 399.379 19.4176 394.596 18.5948 389.946C17.5988 384.307 25.9277 377.974 27.6599 378.786Z" fill="#37474F"/>
<path d="M124.995 381.856C121.545 378.195 120.824 374.608 121.156 367.67C121.488 360.732 125.645 300.31 126.728 285.179C128.546 259.758 124.952 187.748 122.556 170.151L57.873 176.706C53.3116 189.076 50.0782 204.281 51.2907 227.99C52.2145 246.088 52.7342 295.187 52.7342 295.187C52.7342 295.187 44.8094 302.568 39.3242 316.932C34.4741 329.628 29.4651 373.235 29.4651 373.235C28.9978 375.132 28.3848 376.988 27.6319 378.786C26.225 380.617 25.435 382.865 25.3801 385.193C25.5305 392.712 26.4595 400.194 28.1515 407.513C28.5579 409.299 29.4178 410.944 30.6445 412.281C31.8712 413.619 33.4212 414.602 35.138 415.131C35.9668 415.449 36.8533 415.58 37.7363 415.514C38.1958 415.506 38.6366 415.327 38.9777 415.012C39.5984 414.348 38.9777 412.842 38.8623 412.06C38.6484 410.835 38.5134 409.597 38.4581 408.355C38.3426 405.919 38.357 402.937 38.4581 400.486C38.6641 395.009 39.4187 389.568 40.7099 384.248L41.9369 381.089C41.9369 381.089 69.4787 321.287 77.3601 306.687C83.6104 295.232 87.0604 251.181 91.1743 227.06L100.066 284.337C98.251 290.345 96.9328 296.497 96.1255 302.731C95.1439 313.419 103.343 355.033 105.811 369.84C106.273 372.585 106.36 375.382 106.071 378.151C106.981 384.573 111.744 386.462 116.695 389.961C119.164 391.718 129.961 398.139 136.442 399.335C141.711 400.324 147.572 397.77 144.367 395.807C137.785 392.028 128.445 385.517 124.995 381.856Z" fill="#9E6767"/>
<path d="M88.8628 245.365C89.4113 238.899 91.0569 230.027 91.0569 230.027L93.482 244.922L98.9817 283.628C97.8489 287.311 96.9235 291.057 96.2102 294.848C94.6656 302.436 95.4451 315.102 96.9752 323.324C98.5053 331.547 101.652 346.294 101.652 346.294C113.777 352.45 122.742 345.704 122.742 345.704C122.742 345.704 124.734 328.845 126.48 304.591C128.227 280.337 128.472 256.363 128.241 236.256C128.241 236.256 128.414 189.992 121.211 157.072C111.627 164.291 80.5195 163.626 68.6684 154.444C68.6684 154.444 65.2184 160.541 55.3594 178.388C47.6223 192.413 50.4082 214.615 50.6392 233.23C50.9856 261.928 51.7795 294.346 51.7795 294.346C48.1646 298.631 44.9418 303.246 42.1515 308.134C37.2003 316.666 34.934 335.444 34.934 335.444C34.934 335.444 40.3182 346.575 57.9577 346.693C57.9577 346.693 74.4712 314.437 78.6285 307.115C82.7857 299.793 88.3287 251.845 88.8628 245.365Z" fill="#37474F"/>
<path d="M91.0572 229.982L97.0044 204.518C97.0044 204.518 109.303 202.923 118.758 195.513C118.758 195.513 116.968 204.813 99.9924 207.883L93.2225 232.935L93.9442 248.199L91.0572 229.982Z" fill="#263238"/>
<path d="M221.361 103.322C217.955 105.743 207.23 110.216 207.215 107.471C207.518 106.378 211.127 104.872 212.065 102.835C212.37 102.268 212.485 101.614 212.391 100.974C212.297 100.334 212 99.7429 211.546 99.2923C208.048 100.857 204.671 102.687 201.441 104.769C196.461 108.135 196.764 112.15 192.304 113.124L153.113 121.288C153.113 121.288 123.796 91.6602 119.032 87.8958C116.615 86.0053 113.839 84.6498 110.882 83.9153C107.925 83.1808 104.851 83.0835 101.855 83.6295L115.222 115.472C115.222 115.472 130.046 128.374 137.711 135.578C144.683 142.118 149.533 144.435 158.151 141.867C166.35 139.372 184.018 134.308 195.855 129.821C203.765 127.547 209.438 128.344 216.872 125.008C224.768 121.406 228.276 119.649 229.373 110.6C230.47 101.551 225.952 100.075 221.361 103.322Z" fill="#9E6767"/>
<path d="M122.93 131.666C121.904 136.448 121.205 141.296 120.837 146.177C120.784 149.813 120.909 153.449 121.212 157.072C121.212 157.072 116.766 166.977 99.4441 166.431C82.1222 165.885 69.2463 159.906 68.6689 154.444C69.7244 149.958 70.0848 145.33 69.737 140.73L122.93 131.666Z" fill="#9E6767"/>
<path d="M63.2557 122.336C65.5509 127.326 69.0297 133.053 69.8525 143.904C93.9299 150.931 111.988 148.17 121.486 142.339C121.76 141.114 123.68 132.36 123.695 131.651C126.134 129.319 128.487 126.366 129.122 123.517C129.745 120.751 129.766 117.88 129.185 115.104C128.604 112.329 127.434 109.718 125.759 107.456C118.628 96.6646 105.651 86.5524 101.869 83.6147L77.6329 84.3086C72.8838 84.6481 65.9262 85.4305 65.9262 85.4305C60.9317 88.2944 59.878 96.1036 59.8347 102.156C59.7769 107.559 60.9317 117.346 63.2557 122.336Z" fill="#BA68C8"/>
<path opacity="0.1" d="M111.943 130.765C111.943 130.765 104.12 138.146 94.2894 135.489C91.5402 134.85 88.9986 133.497 86.9101 131.56C84.8215 129.623 83.2565 127.168 82.3662 124.432C82.3662 124.432 82.2796 135.681 94.6359 138.442C97.9442 139.223 101.41 138.899 104.525 137.517C107.64 136.135 110.24 133.769 111.943 130.765Z" fill="black"/>
<path d="M16.8468 155.595C19.0409 155.138 37.2 137.792 37.2 137.792C37.2 137.792 46.8425 106.216 48.849 99.248C51.837 88.8111 57.5099 86.4196 66.9937 85.2534C70.3137 88.8259 70.2127 103.086 67.2824 111.53C62.1869 125.052 56.9325 142.9 55.619 146.015C54.3054 149.13 52.0247 151.314 48.4015 153.854C38.2971 160.91 26.9657 168.763 23.2559 168.763" fill="#9E6767"/>
<path d="M23.7181 168.704C14.1767 170.358 9.67298 166.195 6.64165 157.957C3.61032 149.72 1.60386 138.56 0.867683 135.637C0.131504 132.714 0.86767 131.518 1.93585 131.105C2.35447 130.957 4.27433 131.105 5.11155 134.146C6.64165 139.815 7.49329 143.313 8.56147 143.003C9.62966 142.693 8.56148 138.575 7.34894 132.67C6.49728 128.787 5.90547 125.466 8.08514 125.008C10.2648 124.55 11.3908 126.735 12.5744 132.005C13.7581 137.275 14.3932 141.217 15.7934 141.025C16.9193 140.877 15.5624 135.312 15.0861 131.651C14.6097 127.99 14.1622 125.746 16.3852 125.407C18.3917 125.023 19.5176 127.813 20.1527 131.4C21.0103 136.276 22.1087 141.105 23.4439 145.867C24.4832 147.845 25.5658 142.25 26.6918 139.815C28.5394 135.814 31.9605 136.744 31.3398 140.154C30.58 144.335 30.227 148.583 30.286 152.835C30.4304 156.968 30.8345 167.243 23.7181 168.704Z" fill="#9E6767"/>
<path d="M19.75 151.314C19.75 151.314 14.5679 158.105 17.3105 164.482C16.2599 163.332 15.5283 161.915 15.1908 160.379C14.8534 158.843 14.9223 157.243 15.3907 155.743C15.7114 154.699 16.2759 153.75 17.0353 152.978C17.7948 152.206 18.7265 151.635 19.75 151.314Z" fill="#9A4A4D"/>
<path d="M30.4751 147.314C30.1765 149.334 29.9789 151.369 29.8832 153.411C29.8678 155.384 29.7522 157.355 29.5368 159.316C29.3415 161.261 28.824 163.158 28.0067 164.925C27.0857 166.683 25.533 168.006 23.6762 168.616C24.6987 168.521 25.6864 168.188 26.5632 167.641C27.4425 167.057 28.1944 166.293 28.7717 165.398C29.8267 163.596 30.4867 161.581 30.706 159.493C30.9079 157.446 30.9079 155.384 30.706 153.337C30.6339 152.318 30.706 151.329 30.5905 150.384C30.4751 149.44 30.5761 148.377 30.4751 147.314Z" fill="#9A4A4D"/>
<path d="M115.221 36.2132C112.622 24.2558 102.893 15.4132 87.5923 18.6461C72.2913 21.8791 64.9872 36.3608 67.9752 47.3735C70.9633 58.3861 75.1927 63.3757 75.1927 63.3757L115.221 36.2132Z" fill="#263238"/>
<path d="M68.552 44.7605C73.3299 41.5128 76.5345 47.8458 76.5345 47.8458C81.6589 50.9459 82.9003 34.5598 86.4513 31.7992C91.8499 27.6068 95.9783 27.5625 103.412 27.8282C109.663 28.0496 116.75 29.3044 116.822 49.2334C116.822 64.8667 111.626 72.3068 109.071 73.7978C106.516 75.2888 103.297 75.7612 98.2012 75.4512V84.1904C98.2012 84.1904 105.577 89.7558 102.387 98.0227C97.4358 97.5751 92.5737 96.3967 87.9524 94.524C77.6459 89.8887 75.6395 84.4709 75.6395 84.4709L75.0044 59.7294C74.6868 61.4418 71.9153 61.678 69.6634 58.2532C66.3867 53.234 67.2384 45.661 68.552 44.7605Z" fill="#9E6767"/>
<path d="M95.0968 46.0153C95.1722 46.624 95.0145 47.2389 94.6567 47.7314C94.2988 48.2239 93.7686 48.5559 93.177 48.6577C92.8922 48.7059 92.6009 48.6953 92.3202 48.6267C92.0395 48.558 91.775 48.4327 91.5423 48.258C91.3097 48.0834 91.1135 47.8629 90.9654 47.6095C90.8172 47.3562 90.7201 47.0752 90.6797 46.7829C90.6043 46.1742 90.7621 45.5592 91.1199 45.0667C91.4777 44.5742 92.0079 44.2423 92.5995 44.1405C92.8843 44.0923 93.1756 44.1028 93.4564 44.1715C93.7371 44.2401 94.0015 44.3655 94.2342 44.5401C94.4668 44.7148 94.663 44.9353 94.8112 45.1886C94.9593 45.4419 95.0564 45.723 95.0968 46.0153Z" fill="#263238"/>
<path d="M113.532 40.7156L108.596 38.5013C108.722 38.1668 108.913 37.862 109.158 37.6052C109.403 37.3483 109.696 37.1448 110.02 37.0069C110.343 36.869 110.691 36.7995 111.042 36.8026C111.392 36.8057 111.739 36.8814 112.06 37.0251C112.712 37.3409 113.225 37.8949 113.497 38.5779C113.77 39.261 113.782 40.0236 113.532 40.7156Z" fill="#263238"/>
<path d="M93.3809 39.5494L88.7328 42.3248C88.5403 42.0243 88.4097 41.6868 88.349 41.3329C88.2883 40.9791 88.2988 40.6163 88.3799 40.2667C88.4609 39.9171 88.6109 39.5881 88.8205 39.2998C89.0301 39.0115 89.2949 38.77 89.5989 38.5899C90.2326 38.2379 90.9721 38.1412 91.672 38.3187C92.372 38.4963 92.9815 38.9354 93.3809 39.5494Z" fill="#263238"/>
<path d="M94.8963 60.8218L102.475 63.0361C102.322 63.5761 102.061 64.0777 101.708 64.5087C101.355 64.9397 100.918 65.2907 100.425 65.5393C99.9315 65.788 99.3932 65.9288 98.844 65.9527C98.2948 65.9767 97.7467 65.8833 97.2347 65.6785C96.7667 65.5206 96.3342 65.2688 95.9624 64.938C95.5906 64.6072 95.287 64.2039 95.0693 63.7518C94.8516 63.2996 94.7242 62.8077 94.6945 62.3046C94.6648 61.8015 94.7334 61.2974 94.8963 60.8218Z" fill="#874C4C"/>
<path d="M99.3418 65.8409C99.1891 64.794 98.6613 63.8426 97.861 63.1715C97.0607 62.5004 96.045 62.1575 95.0113 62.2094H94.6216C94.6213 62.9754 94.8628 63.721 95.3101 64.3354C95.7575 64.9498 96.3867 65.4001 97.1044 65.6194C97.8202 65.8842 98.5896 65.9603 99.3418 65.8409Z" fill="#F28F8F"/>
<path d="M112.333 44.6866C112.409 45.2971 112.251 45.9139 111.894 46.4088C111.536 46.9037 111.006 47.2386 110.413 47.3438C110.124 47.3986 109.828 47.3931 109.541 47.3277C109.254 47.2623 108.984 47.1383 108.745 46.9632C108.506 46.7881 108.305 46.5655 108.152 46.3087C108 46.052 107.9 45.7664 107.858 45.469C107.782 44.8586 107.94 44.2418 108.297 43.7469C108.655 43.252 109.185 42.9171 109.778 42.8119C110.067 42.7571 110.363 42.7626 110.65 42.828C110.937 42.8934 111.207 43.0173 111.446 43.1924C111.685 43.3675 111.886 43.5902 112.039 43.8469C112.191 44.1037 112.291 44.3893 112.333 44.6866Z" fill="#263238"/>
<path d="M101.451 43.3286L102.244 57.6479L109.924 55.286L101.451 43.3286Z" fill="#874C4C"/>
<path d="M98.2012 75.4511C93.2356 74.8016 84.1271 72.2034 82.5393 68.07C82.5393 68.07 82.395 71.4506 86.278 74.344C89.5403 76.7502 98.2012 78.0936 98.2012 78.0936V75.4511Z" fill="#874C4C"/>
<path d="M91.2433 1.74331C79.9985 -4.54541 58.8225 6.92485 60.93 25.9977C63.0375 45.0705 108.175 15.0736 91.2433 1.74331Z" fill="#BA68C8"/>
<path opacity="0.55" d="M91.2433 1.74331C79.9985 -4.54541 58.8225 6.92485 60.93 25.9977C63.0375 45.0705 108.175 15.0736 91.2433 1.74331Z" fill="black"/>
<path d="M115.22 36.2132C112.521 30.0426 109.287 24.1967 96.5703 24.802C84.5171 25.3777 81.659 30.825 79.2484 34.8255C75.6648 40.6865 73.1054 47.1403 71.6845 53.8983C70.3565 61.8552 75.12 59.7294 75.12 59.7294L75.452 72.8235C74.124 63.9662 64.1784 51.1526 62.1864 45.8677C59.054 37.5565 57.8559 25.4663 67.3829 14.2322C76.448 3.60338 90.9551 -2.44913 101.507 2.28955C109.201 5.75867 116.202 26.0272 115.22 36.2132Z" fill="#BA68C8"/>
<path opacity="0.4" d="M115.22 36.2132C112.521 30.0426 109.287 24.1967 96.5703 24.802C84.5171 25.3777 81.659 30.825 79.2484 34.8255C75.6648 40.6865 73.1054 47.1403 71.6845 53.8983C70.3565 61.8552 75.12 59.7294 75.12 59.7294L75.452 72.8235C74.124 63.9662 64.1784 51.1526 62.1864 45.8677C59.054 37.5565 57.8559 25.4663 67.3829 14.2322C76.448 3.60338 90.9551 -2.44913 101.507 2.28955C109.201 5.75867 116.202 26.0272 115.22 36.2132Z" fill="black"/>
<path d="M69.1593 56.0536C69.2604 56.2455 69.3614 56.4374 69.4769 56.6146C72.3581 61.6342 74.3609 67.1294 75.3952 72.8531L75.0488 59.759C75.0488 59.759 70.2853 61.8847 71.6133 53.9279C73.0179 47.1626 75.5627 40.6987 79.1339 34.8255C81.5589 30.8397 84.4171 25.3777 96.4558 24.802C103.471 24.4624 107.6 26.101 110.342 28.6549L113.807 24.0343L115.25 22.1743C115.25 16.5203 113.705 9.40494 107.051 7.72204C105.312 7.32581 103.518 7.25082 101.753 7.50061C90.5519 8.84397 73.4032 11.0435 67.8747 26.042C62.3461 41.0404 64.8 48.0968 69.1593 56.0536Z" fill="#BA68C8"/>
<path opacity="0.3" d="M69.1593 56.0536C69.2604 56.2455 69.3614 56.4374 69.4769 56.6146C72.3581 61.6342 74.3609 67.1294 75.3952 72.8531L75.0488 59.759C75.0488 59.759 70.2853 61.8847 71.6133 53.9279C73.0179 47.1626 75.5627 40.6987 79.1339 34.8255C81.5589 30.8397 84.4171 25.3777 96.4558 24.802C103.471 24.4624 107.6 26.101 110.342 28.6549L113.807 24.0343L115.25 22.1743C115.25 16.5203 113.705 9.40494 107.051 7.72204C105.312 7.32581 103.518 7.25082 101.753 7.50061C90.5519 8.84397 73.4032 11.0435 67.8747 26.042C62.3461 41.0404 64.8 48.0968 69.1593 56.0536Z" fill="black"/>
<path d="M116.822 49.2334C116.785 45.2882 116.983 41.3444 117.414 37.4236C117.962 33.2312 118.857 30.3082 117.414 25.2448C114.917 15.9003 98.0999 8.60776 87.5335 16.6827C76.9672 24.7577 73.0986 34.2055 73.6471 46.3991C73.6471 46.3991 79.6521 30.943 91.5464 26.8834C100.395 23.931 109.287 24.5214 113.704 33.984C115.863 38.7589 116.929 43.9741 116.822 49.2334Z" fill="#BA68C8"/>
<path d="M101.753 24.5214C103.698 23.7865 105.696 23.209 107.729 22.7942C109.779 22.3706 111.908 22.6617 113.777 23.6209C114.7 24.1144 115.463 24.8703 115.976 25.7976C116.488 26.7248 116.727 27.7837 116.664 28.8467C116.345 29.8658 116.227 30.9397 116.318 32.0059C116.483 32.433 116.736 32.8189 117.06 33.1373C117.383 33.4557 117.77 33.6991 118.194 33.8511C119.031 34.1907 119.941 34.3235 120.792 34.6188C121.748 34.9153 122.608 35.4669 123.286 36.2168C123.963 36.9667 124.433 37.8878 124.647 38.8851C124.81 39.891 124.576 40.922 123.997 41.7522C123.418 42.5823 122.541 43.1438 121.558 43.3137C121.835 42.9355 122.031 42.5023 122.135 42.0418C122.239 41.5814 122.248 41.1038 122.161 40.6397C122.074 40.1756 121.893 39.7352 121.63 39.3467C121.367 38.9581 121.028 38.6299 120.634 38.3831C119.003 37.4679 117.011 38.147 115.163 38.0141C112.95 37.7098 110.91 36.6297 109.389 34.9583C107.772 33.3787 106.502 31.5335 104.784 29.9834C103.066 28.4334 101.248 27.9905 97.9565 27.7396C97.5379 27.7396 97.0615 25.5695 97.6822 25.4514C98.5339 25.2743 101.219 24.6985 101.753 24.5214Z" fill="#263238"/>
<path d="M68.1195 59.2127C66.8438 60.5162 66.0495 62.2317 65.872 64.067C65.6944 65.9022 66.1446 67.7436 67.1457 69.2775C68.1469 70.8114 69.6371 71.9428 71.3626 72.4791C73.088 73.0153 74.9418 72.9231 76.6082 72.2182C78.2746 71.5133 79.6505 70.2394 80.5014 68.6134C81.3524 66.9874 81.6257 65.11 81.2749 63.301C80.9241 61.492 79.9708 59.8634 78.5775 58.6926C77.1841 57.5219 75.437 56.8814 73.6337 56.8802" stroke="#37474F" stroke-width="1.06645" stroke-linecap="round" stroke-linejoin="round"/>
<path d="M203.999 124.555C203.999 126.734 198.682 128.909 199.7 132.392C203.157 144.228 230.079 127.537 238.065 135.392C240.898 138.176 228.868 145.882 237.562 145.882" stroke="#F9FAF9" stroke-width="0.5" stroke-miterlimit="10"/>
<path d="M212.98 128.909C209.206 135.62 195.553 117.141 200.936 112.151C210.234 103.543 224.839 75.2186 233.044 77.1016C239.17 78.5003 240.592 84.2567 240.57 85.7362C240.286 101.149 221.776 113.281 212.98 128.909Z" fill="#8B4E96"/>
<path d="M206.194 127.481C216.574 117.302 231.343 97.0494 238.377 84.3261" stroke="#F9FAF9" stroke-width="0.5" stroke-miterlimit="10"/>
<path d="M203.773 122.631C210.581 115.047 223.394 97.8662 235.967 81.9983" stroke="#F9FAF9" stroke-width="0.5" stroke-miterlimit="10"/>
<path d="M201.074 119.435C212.045 103.343 220.091 91.6404 232.525 79.9374" stroke="#F9FAF9" stroke-width="0.5" stroke-miterlimit="10"/>
<path d="M365.298 102.533C355.513 104.183 352.098 106.146 344.045 115.634C337.989 122.746 322.297 143.471 322.297 143.471C322.297 143.471 317.132 170.615 323.056 171.044C326.432 171.313 329.781 170.259 332.396 168.107C341.438 160.368 357.147 142.333 357.147 142.333L365.298 102.533Z" fill="#C8856A"/>
<path d="M323.238 142.217C326.621 145.682 330.895 161.705 330.895 161.705C332.365 157.651 332.595 153.25 331.555 149.065C330.384 145.245 328.516 141.676 326.043 138.538L323.238 142.217Z" fill="#AF6152"/>
<path d="M270.383 119.661C269.344 117.416 265.978 118.175 264.41 116.624C264.181 116.414 264.013 116.146 263.922 115.848C263.831 115.55 263.821 115.234 263.894 114.931C263.966 114.628 264.118 114.351 264.333 114.126C264.549 113.902 264.82 113.739 265.12 113.654C266.553 113.373 268.026 113.373 269.459 113.654C271.126 113.648 272.773 113.294 274.294 112.615C277.594 111.295 281.555 110.371 284.607 112.714C283.826 112.992 283.079 113.357 282.38 113.803C278.37 115.733 274.36 117.68 270.383 119.661Z" fill="#AF6152"/>
<path d="M257.53 118.291L258.735 118.869L260.286 119.628C260.536 119.743 260.779 119.876 261.012 120.024C261.127 120.024 261.606 120.535 261.705 120.502C263.297 119.965 264.98 119.752 266.655 119.875C268.751 120.222 269.18 120.634 272.084 118.572C274.031 117.185 276.407 114.661 278.981 113.473C281.555 112.285 284.179 111.608 286.885 114.116C289.591 116.624 290.944 118.324 293.832 120.717C298.63 124.669 303.625 128.375 308.798 131.822C317.049 137.647 324.012 141.211 329.095 149.758C331.141 153.207 334.985 165.83 332.395 168.107C328.715 171.325 320.069 173.635 311.406 165.682C307.441 162.077 303.715 158.219 300.251 154.131C296.736 150.088 295.301 147.993 290.268 142.118C285.235 136.244 282.38 133.241 279.427 131.508C276.902 130.023 273.52 130.271 271.176 130.37C268.198 130.607 265.203 130.248 262.365 129.314C259.444 128.555 257.58 127.664 255.583 127.102C253.6 126.246 251.737 125.137 250.039 123.802L246.738 121.806C246.365 121.623 246.038 121.358 245.781 121.03C245.666 120.816 245.913 120.337 245.996 120.09C246.101 119.862 246.253 119.66 246.441 119.496C246.017 119.448 245.6 119.342 245.204 119.182C244.852 119.058 244.494 118.953 244.131 118.869C243.867 118.869 243.57 118.638 243.57 118.357C243.58 118.189 243.651 118.031 243.768 117.911C244.227 117.382 244.838 117.008 245.517 116.839C246.443 116.715 247.381 116.715 248.306 116.839C248.442 116.872 248.583 116.872 248.719 116.839C248.88 116.761 249.03 116.661 249.164 116.542C249.658 116.24 250.251 116.145 250.814 116.278C251.805 116.536 252.78 116.85 253.735 117.218C254.329 117.4 254.939 117.482 255.533 117.647C256.216 117.804 256.884 118.019 257.53 118.291Z" fill="#C8856A"/>
<path d="M264.41 121.575C265.355 121.697 266.314 121.601 267.216 121.294C267.983 121.026 268.71 120.654 269.377 120.189C270.16 119.996 270.903 119.666 271.572 119.215C273.073 118.175 274.707 116.707 276.407 115.42C277.919 114.828 279.572 114.696 281.159 115.04C281.951 115.259 282.711 115.581 283.419 115.997C284.153 116.554 284.853 117.155 285.515 117.796C285.1 117.006 284.54 116.3 283.865 115.717C283.152 115.141 282.334 114.709 281.456 114.446C279.836 114.101 278.145 114.378 276.72 115.222C279.921 112.846 283.32 111.179 286.934 114.116C284.327 111.179 280.185 112.219 277.265 114.116C274.344 116.014 272.199 118.967 268.915 119.743C268.077 119.724 267.243 119.625 266.424 119.446C264.847 119.392 263.275 119.633 261.787 120.156L261.572 119.991C259.355 118.566 256.884 117.58 254.295 117.086C252.645 116.822 250.847 115.436 249.345 116.492C250.995 115.667 252.645 116.954 254.295 117.334C256.871 117.928 259.312 119.003 261.49 120.502C261.642 120.615 261.828 120.673 262.018 120.667C263.388 120.178 264.837 119.943 266.292 119.974C267.153 120.137 268.024 120.242 268.899 120.288L268.536 120.42L267.232 120.882C266.31 121.181 265.367 121.413 264.41 121.575ZM257.926 122.416C257.593 122.483 257.251 122.483 256.919 122.416C256.682 122.322 256.459 122.194 256.259 122.037C255.33 121.444 254.258 121.114 253.157 121.08C252.905 121.12 252.649 121.12 252.398 121.08C252.158 120.979 251.931 120.852 251.721 120.7C250.901 120.219 250.001 119.889 249.065 119.726C248.833 119.662 248.595 119.624 248.355 119.611C248.224 119.587 248.09 119.587 247.959 119.611C248.769 119.681 249.561 119.888 250.302 120.222C250.968 120.58 251.603 120.994 252.2 121.459H252.299H252.447C252.834 121.468 253.22 121.501 253.602 121.558C253.987 121.628 254.367 121.722 254.741 121.839C255.486 122.061 256.189 122.407 256.82 122.862L257.018 123.01H257.167C257.459 122.925 257.757 122.859 258.058 122.812C258.363 122.759 258.672 122.732 258.982 122.73H259.922L260.879 122.878C259.972 122.406 258.934 122.244 257.926 122.416ZM249.477 117.07C249.296 117.07 249.081 117.07 248.916 116.971C249.494 117.206 250.047 117.499 250.566 117.845C250.682 117.916 250.803 117.976 250.929 118.027L251.325 118.142C252.017 118.27 252.692 118.475 253.338 118.753C254.014 119.092 254.624 119.55 255.137 120.106L255.285 120.271H255.516C255.92 120.154 256.335 120.082 256.754 120.057C257.182 120.024 257.613 120.024 258.041 120.057C258.483 120.076 258.924 120.12 259.361 120.189C259.806 120.253 260.246 120.341 260.681 120.453C259.651 119.962 258.522 119.713 257.381 119.726C257.018 119.726 256.655 119.726 256.292 119.809C255.929 119.892 255.599 119.958 255.368 119.809L255.269 119.71C254.772 119.075 254.093 118.609 253.322 118.373C252.596 118.142 251.82 118.142 251.111 117.862C250.748 117.73 250.434 117.532 250.088 117.367C249.89 117.256 249.686 117.156 249.477 117.07Z" fill="#AF6152"/>
<path d="M373.399 399.318L375.561 377.636L348.681 375.045C348.681 375.045 349.902 392.157 349.819 399.995C349.819 403.691 347.229 410.671 347.229 410.671C347.229 410.671 357.872 416.067 363.333 413.773C368.795 411.479 372.359 402.783 372.211 401.199L373.399 399.318Z" fill="#C8856A"/>
<path d="M316.72 437.204C316.357 437.204 316.208 440.686 318.37 442.303C324.081 445.887 330.935 447.184 337.561 445.933C346.587 444.283 351.355 441.231 354.804 438.03C358.253 434.828 363.055 430.324 367.18 429.202C370.814 427.994 374.177 426.088 377.08 423.591C378.235 422.37 377.757 417.205 377.757 417.205L316.72 437.204Z" fill="#263238"/>
<path d="M373.597 397.322C373.597 397.322 374.092 397.553 374.406 398.741C374.719 399.929 375.313 404.269 376.056 406.579C377.244 410.633 377.8 414.846 377.706 419.07C377.359 421.743 370.297 425.34 366.403 427.056C361.85 429.324 357.666 432.267 353.994 435.785C349.918 439.482 341.156 443.59 335.216 443.887C328.22 444.217 320.184 442.419 318.187 439.333C315.728 435.488 313.831 430.984 323.946 425.67C325.86 424.664 332.526 420.242 334.804 418.657C340.942 414.351 345.199 410.49 347.724 403.328C347.92 402.458 348.402 401.68 349.093 401.117C349.716 400.808 350.421 400.704 351.106 400.82C354.579 401.01 358.032 401.463 361.436 402.173C362.872 402.751 364.885 403.394 364.967 405.16C364.96 405.771 364.86 406.377 364.67 406.958C364.571 407.338 364.505 407.816 364.835 408.014C365.165 408.212 365.528 408.014 365.792 407.684C366.748 406.597 367.62 405.439 368.399 404.219C369.155 403.117 369.988 402.069 370.891 401.084C371.466 400.705 372.017 400.292 372.541 399.846C373.177 399.154 373.551 398.261 373.597 397.322Z" fill="#455A64"/>
<path d="M353.961 435.703C355.689 434.117 357.495 432.619 359.373 431.215C359.373 431.215 347.592 439.201 342.46 436.165C339.16 434.201 340.513 431.512 340.529 430.687C340.546 429.862 328.979 424.614 325.877 424.416C325.052 424.928 324.358 425.373 323.913 425.588C315.976 429.235 315.134 433.409 316.801 438.508C318.781 441.61 326.025 444.514 335.084 444.019C341.008 443.689 349.885 439.399 353.961 435.703Z" fill="#37474F"/>
<path d="M341.255 428.211C334.935 431.116 337.757 432.155 339.605 432.304C341.453 432.452 351.931 425.604 358.267 420.06C364.868 414.285 369.818 406.76 372.293 404.632C373.201 403.84 374.191 402.883 375.049 401.975C374.801 400.589 374.587 399.318 374.422 398.675C374.108 397.487 373.613 397.256 373.613 397.256C373.423 398.151 373.077 399.005 372.59 399.78C372.066 400.226 371.515 400.639 370.94 401.018C370.037 402.003 369.204 403.051 368.448 404.153C367.669 405.373 366.797 406.531 365.841 407.618C360.528 414.978 347.558 425.373 341.255 428.211Z" fill="#37474F"/>
<path d="M339.984 431.347C340.131 431.337 340.27 431.279 340.38 431.182C340.439 431.123 340.486 431.054 340.518 430.977C340.55 430.901 340.566 430.819 340.566 430.736C340.566 430.653 340.55 430.571 340.518 430.495C340.486 430.418 340.439 430.349 340.38 430.291C338.417 428.195 329.473 423.459 324.754 424.235C324.671 424.247 324.591 424.275 324.52 424.318C324.448 424.362 324.386 424.419 324.337 424.486C324.288 424.554 324.252 424.631 324.233 424.712C324.214 424.794 324.212 424.878 324.226 424.961C324.238 425.043 324.266 425.122 324.31 425.193C324.353 425.264 324.41 425.325 324.478 425.373C324.546 425.421 324.623 425.455 324.705 425.472C324.786 425.489 324.87 425.489 324.952 425.472C329.374 424.763 337.889 429.482 339.44 431.132C339.507 431.208 339.591 431.268 339.686 431.305C339.781 431.342 339.883 431.356 339.984 431.347Z" fill="#263238"/>
<path d="M345.431 427.617C345.577 427.605 345.715 427.547 345.827 427.452C345.888 427.395 345.937 427.326 345.97 427.25C346.003 427.173 346.02 427.09 346.02 427.007C346.02 426.923 346.003 426.841 345.97 426.764C345.937 426.687 345.888 426.618 345.827 426.561C343.88 424.466 334.936 419.73 330.201 420.505C330.035 420.534 329.888 420.626 329.789 420.761C329.691 420.897 329.649 421.066 329.673 421.232C329.686 421.315 329.717 421.394 329.762 421.465C329.807 421.536 329.866 421.597 329.935 421.645C330.005 421.693 330.083 421.726 330.165 421.743C330.248 421.76 330.333 421.76 330.415 421.743C334.821 421.033 343.335 425.753 344.886 427.403C344.956 427.476 345.041 427.533 345.135 427.57C345.229 427.607 345.33 427.623 345.431 427.617Z" fill="#263238"/>
<path d="M350.874 424.07C351.02 424.057 351.159 423.999 351.27 423.905C351.331 423.848 351.38 423.779 351.413 423.702C351.446 423.625 351.463 423.543 351.463 423.459C351.463 423.376 351.446 423.293 351.413 423.216C351.38 423.14 351.331 423.071 351.27 423.014C349.323 420.918 340.38 416.166 335.644 416.958C335.479 416.986 335.331 417.078 335.232 417.214C335.134 417.349 335.092 417.518 335.116 417.684C335.13 417.767 335.16 417.846 335.205 417.917C335.25 417.988 335.309 418.049 335.379 418.097C335.448 418.145 335.526 418.178 335.609 418.195C335.691 418.212 335.776 418.212 335.858 418.195C340.281 417.486 348.779 422.205 350.33 423.855C350.399 423.929 350.484 423.986 350.578 424.023C350.672 424.06 350.773 424.076 350.874 424.07Z" fill="#263238"/>
<path d="M355.875 420.077C356.028 420.072 356.174 420.014 356.288 419.912C356.403 419.792 356.467 419.632 356.467 419.466C356.467 419.3 356.403 419.14 356.288 419.021C354.341 416.925 345.364 412.189 340.661 412.965C340.569 412.966 340.477 412.988 340.394 413.028C340.31 413.068 340.236 413.126 340.177 413.198C340.118 413.269 340.075 413.352 340.051 413.442C340.027 413.532 340.023 413.625 340.039 413.717C340.054 413.808 340.089 413.895 340.142 413.972C340.194 414.048 340.262 414.112 340.342 414.16C340.421 414.208 340.51 414.238 340.603 414.248C340.695 414.258 340.788 414.248 340.876 414.219C345.282 413.509 353.796 418.212 355.347 419.879C355.411 419.954 355.493 420.012 355.586 420.046C355.678 420.081 355.778 420.091 355.875 420.077Z" fill="#263238"/>
<path d="M360.792 416.1C360.934 416.091 361.068 416.032 361.172 415.935C361.231 415.876 361.277 415.807 361.309 415.731C361.341 415.654 361.358 415.572 361.358 415.489C361.358 415.406 361.341 415.324 361.309 415.248C361.277 415.171 361.231 415.102 361.172 415.044C358.482 412.074 349.176 408.229 344.456 409.004C344.292 409.029 344.145 409.117 344.046 409.25C343.947 409.383 343.905 409.55 343.928 409.714C343.96 409.881 344.056 410.028 344.194 410.127C344.332 410.225 344.503 410.266 344.671 410.242C348.912 409.549 357.872 413.245 360.215 415.885C360.285 415.966 360.375 416.029 360.476 416.066C360.577 416.104 360.686 416.115 360.792 416.1Z" fill="#263238"/>
<path d="M419.438 411.463L413.695 384.731L440.097 380.969L440.245 407.371C440.245 407.371 442.192 414.483 440.674 416.892C439.156 419.301 423.348 421.661 421.913 420.027C420.477 418.393 419.438 411.463 419.438 411.463Z" fill="#C8856A"/>
<path d="M421.631 453.507C422.274 459.497 423.479 463.408 426.037 466.708C428.594 470.008 433.198 470.586 437.769 469.051C442.34 467.517 448.164 464.101 449.319 458.738C450.327 453.981 450.134 449.047 448.758 444.382L421.631 453.507Z" fill="#263238"/>
<path d="M440.179 407.222C442.093 407.222 441.532 411.859 442.34 419.928C443.231 428.657 447.093 435.538 448.429 442.551C449.947 450.57 449.601 454.25 446.565 459.53C443.528 464.811 432.324 470.883 426.433 464.481C421.615 459.233 421.186 452.93 421.285 444.679C421.543 437.764 421.416 430.839 420.906 423.938C420.295 417.882 417.803 412.272 419.437 411.397C419.602 412.288 421.087 418.426 422.226 418.344C422.3 417.581 422.3 416.813 422.226 416.05C422.154 415.7 422.156 415.338 422.233 414.988C422.31 414.639 422.459 414.309 422.671 414.021C423.585 413.318 424.628 412.802 425.74 412.503C427.605 411.975 430.922 411.315 432.819 410.968C433.76 410.786 434.717 410.638 435.674 410.539C436.478 410.423 437.295 410.423 438.1 410.539C438.317 410.572 438.525 410.652 438.707 410.775C438.89 410.898 439.043 411.059 439.156 411.249C439.258 411.545 439.303 411.859 439.288 412.173C439.315 412.734 439.421 413.29 439.601 413.823C439.601 414.054 439.865 414.334 440.146 414.252C440.242 414.204 440.321 414.128 440.371 414.033C440.421 413.938 440.441 413.83 440.426 413.724C440.344 412.833 440.245 407.816 440.179 407.222Z" fill="#455A64"/>
<path d="M447.9 440.356C448.131 441.511 449.55 449.151 447.224 450.818C444.897 452.484 443.032 446.659 443.032 446.659C443.032 446.659 436.894 445.686 428.181 450.075C428.676 451.28 427.472 455.586 425.013 455.025C422.555 454.464 421.284 445.603 421.268 445.488C421.268 453.326 421.746 459.464 426.416 464.563C432.307 470.998 443.527 464.926 446.547 459.613C449.567 454.299 449.93 450.653 448.412 442.633C448.28 441.874 448.098 441.066 447.9 440.356Z" fill="#37474F"/>
<path d="M442.358 447.27C442.523 450.207 445.757 448.92 445.74 444.679C445.724 440.439 443.628 430.357 442.869 423.525C442.424 413.707 442.094 407.222 440.18 407.288C440.18 407.387 440.18 407.486 440.18 407.585C440.18 407.684 440.312 413.179 440.328 413.823C440.609 419.813 440.576 431.462 441.384 436.924C441.923 440.349 442.248 443.805 442.358 447.27Z" fill="#37474F"/>
<path d="M429.254 449.877C428.296 446.551 427.552 443.167 427.027 439.746C426.169 434.383 423.066 423.624 421.532 417.832C421.02 416.875 419.469 411.463 419.469 411.463C418.149 411.826 419.469 416.974 419.997 419.4C420.525 421.826 421.334 424.35 422.06 427.849C423.974 434.68 424.056 444.877 425.36 448.821C426.664 452.765 429.947 452.699 429.254 449.877Z" fill="#37474F"/>
<path d="M428.017 450.339C428.105 450.321 428.188 450.287 428.265 450.24C432.739 447.85 437.816 446.823 442.868 447.286C443.052 447.311 443.239 447.269 443.396 447.17C443.553 447.07 443.669 446.919 443.726 446.742C443.746 446.661 443.747 446.576 443.73 446.495C443.713 446.413 443.678 446.336 443.627 446.27C443.576 446.203 443.512 446.149 443.437 446.111C443.363 446.073 443.281 446.051 443.198 446.049C437.791 445.518 432.35 446.616 427.572 449.201C427.493 449.237 427.423 449.289 427.367 449.354C427.31 449.419 427.268 449.496 427.243 449.579C427.218 449.661 427.211 449.748 427.222 449.834C427.233 449.919 427.262 450.002 427.308 450.075C427.389 450.182 427.499 450.263 427.624 450.31C427.75 450.356 427.886 450.367 428.017 450.339Z" fill="#263238"/>
<path d="M426.171 444.118L426.418 444.036C431.487 441.525 437.125 440.387 442.77 440.736C442.952 440.754 443.134 440.708 443.285 440.605C443.436 440.503 443.546 440.35 443.596 440.175C443.61 440.092 443.606 440.006 443.585 439.925C443.563 439.843 443.525 439.767 443.472 439.701C443.419 439.636 443.352 439.582 443.277 439.544C443.201 439.507 443.119 439.485 443.035 439.482C437.066 439.074 431.098 440.282 425.758 442.98C425.679 443.013 425.608 443.063 425.55 443.125C425.491 443.188 425.446 443.262 425.418 443.343C425.39 443.424 425.38 443.509 425.387 443.595C425.394 443.68 425.42 443.763 425.461 443.838C425.537 443.951 425.646 444.038 425.773 444.088C425.899 444.138 426.038 444.148 426.171 444.118Z" fill="#263238"/>
<path d="M442.06 434.729C442.192 434.702 442.315 434.642 442.418 434.556C442.522 434.469 442.603 434.359 442.654 434.234C442.678 434.154 442.685 434.069 442.674 433.986C442.662 433.902 442.633 433.822 442.587 433.752C442.542 433.681 442.481 433.621 442.41 433.576C442.339 433.531 442.259 433.502 442.175 433.492C433.545 431.842 425.262 436.627 424.915 436.792C424.837 436.828 424.767 436.88 424.71 436.946C424.654 437.011 424.612 437.087 424.587 437.17C424.562 437.252 424.555 437.339 424.566 437.425C424.577 437.511 424.606 437.593 424.651 437.666C424.765 437.805 424.925 437.896 425.101 437.924C425.278 437.951 425.458 437.912 425.608 437.815C425.608 437.815 433.743 433.162 441.763 434.68L442.06 434.729Z" fill="#263238"/>
<path d="M441.349 429.053C441.479 429.032 441.601 428.976 441.703 428.892C441.804 428.808 441.881 428.698 441.927 428.575C441.954 428.495 441.964 428.411 441.955 428.328C441.946 428.244 441.918 428.164 441.874 428.093C441.829 428.021 441.769 427.961 441.699 427.916C441.628 427.871 441.548 427.842 441.465 427.832C435.39 426.745 429.127 427.918 423.858 431.132C423.785 431.174 423.722 431.231 423.672 431.299C423.622 431.367 423.586 431.444 423.568 431.526C423.549 431.608 423.548 431.693 423.564 431.776C423.58 431.859 423.612 431.937 423.66 432.007C423.779 432.144 423.944 432.232 424.124 432.254C424.305 432.275 424.486 432.228 424.634 432.122C429.554 429.161 435.373 428.06 441.036 429.02L441.349 429.053Z" fill="#263238"/>
<path d="M440.525 422.7C440.652 422.671 440.77 422.612 440.87 422.529C440.97 422.446 441.05 422.341 441.103 422.222C441.13 422.143 441.14 422.059 441.132 421.975C441.124 421.892 441.098 421.811 441.055 421.739C441.013 421.667 440.956 421.605 440.887 421.557C440.818 421.509 440.74 421.477 440.657 421.463C431.747 419.516 423.282 424.763 422.919 424.994C422.842 425.033 422.776 425.087 422.722 425.154C422.669 425.221 422.631 425.299 422.611 425.382C422.591 425.465 422.588 425.551 422.604 425.635C422.62 425.719 422.655 425.799 422.704 425.868C422.82 426.009 422.986 426.1 423.168 426.121C423.349 426.143 423.532 426.094 423.678 425.984C423.76 425.984 431.928 420.869 440.179 422.684C440.291 422.716 440.41 422.722 440.525 422.7Z" fill="#263238"/>
<path d="M424.139 175.912C427.588 192.1 432.505 201.208 433.264 242.263C434.023 283.317 433.908 294.834 434.073 299.785C434.238 304.735 437.109 313.596 439.65 337.984C441.172 355.542 441.58 373.178 440.871 390.787C440.871 390.787 437.439 395.391 428.116 396.216C423.293 396.795 418.416 395.731 414.272 393.196C414.272 393.196 403.447 346.268 400.18 331.582C396.913 316.896 387.441 268.615 387.441 268.615L381.815 307.788C381.815 307.788 384.438 321.252 381.815 342.638C379.191 364.023 375.033 385.672 375.033 385.672C375.033 385.672 371.402 388.675 361.353 388.098C357.047 387.886 352.82 386.861 348.895 385.078C348.895 385.078 342.443 321.434 342.443 297.194C342.443 272.954 344.869 212.726 348.45 175.978L424.139 175.912Z" fill="#455A64"/>
<path d="M354.54 211.356C358.187 221.356 371.503 228.369 377.344 229.771L384.209 268.02L381.816 307.722L387.443 268.614L379.753 221.933C379.753 221.933 363.55 220.762 354.54 211.356ZM410 206.406C410.957 210.333 411.815 214.293 412.739 218.254C413.663 222.214 414.554 226.174 415.544 230.167C415.584 226.06 415.308 221.956 414.719 217.891C414.188 213.829 413.45 209.798 412.508 205.812C411.56 201.816 410.386 197.877 408.993 194.014C407.647 190.121 405.882 186.387 403.729 182.876C404.967 186.803 406.056 190.697 407.029 194.608C408.003 198.519 409.076 202.611 410 206.472V206.406ZM416.881 198.832C418.201 201.192 419.455 203.601 420.725 206.01L424.454 213.353C424.169 210.568 423.537 207.83 422.573 205.201C421.631 202.582 420.489 200.039 419.158 197.595C417.808 195.159 416.298 192.816 414.636 190.582C412.995 188.333 411.138 186.25 409.092 184.361C410.313 186.885 411.633 189.311 412.953 191.671C414.273 194.03 415.61 196.505 416.881 198.898V198.832ZM410.792 309.537C408.449 296.98 406.782 284.274 405.148 271.585C403.515 258.895 401.947 246.14 400.198 233.434C400.974 246.239 401.848 259.044 403.168 271.816C404.488 284.587 405.957 297.343 408.267 310.015C410.577 322.688 413.217 335.196 415.857 347.753C418.498 360.31 421.22 372.818 424.108 385.326C422.161 372.642 420.054 359.991 417.788 347.373C415.593 334.783 413.201 322.143 410.792 309.603V309.537ZM352.444 266.964L354.54 233.517C352.824 244.518 351.46 255.612 350.448 266.799C349.441 277.954 348.484 289.059 348.451 300.362C348.831 311.599 349.689 322.704 350.596 333.859C351.504 345.014 352.626 356.119 353.896 367.224C353.588 356.036 353.143 344.871 352.56 333.727L351.702 316.962C351.421 311.401 351.075 305.808 350.959 300.28C350.844 294.752 351.207 289.191 351.454 283.63C351.702 278.07 352.131 272.492 352.444 266.964Z" fill="#37474F"/>
<path d="M430.526 117.664C424.316 117.664 418.361 115.197 413.969 110.806C409.578 106.415 407.111 100.459 407.111 94.2493V35.8195H410.989C416.171 35.8195 421.14 37.8779 424.804 41.5418C428.468 45.2057 430.526 50.1751 430.526 55.3566V117.664Z" fill="#D8A85F"/>
<path d="M418.976 43.1789C419.292 44.1433 419.502 45.1392 419.603 46.149C419.685 46.801 419.685 47.4607 419.603 48.1126C419.307 49.6013 418.507 50.9424 417.338 51.9102C416.169 52.878 414.702 53.4133 413.184 53.4259C411.667 53.3672 410.183 52.9637 408.845 52.2461C407.507 51.5284 406.35 50.5156 405.461 49.2842C402.953 46.083 399.224 38.5421 404.092 35.869C405.723 35.0412 407.552 34.6816 409.376 34.8302C411.199 34.9787 412.946 35.6296 414.421 36.7105C416.585 38.3311 418.179 40.5956 418.976 43.1789Z" fill="#BA68C8"/>
<path opacity="0.25" d="M418.976 43.1789C419.292 44.1433 419.502 45.1392 419.603 46.149C419.685 46.801 419.685 47.4607 419.603 48.1126C419.307 49.6013 418.507 50.9424 417.338 51.9102C416.169 52.878 414.702 53.4133 413.184 53.4259C411.667 53.3672 410.183 52.9637 408.845 52.2461C407.507 51.5284 406.35 50.5156 405.461 49.2842C402.953 46.083 399.224 38.5421 404.092 35.869C405.723 35.0412 407.552 34.6816 409.376 34.8302C411.199 34.9787 412.946 35.6296 414.421 36.7105C416.585 38.3311 418.179 40.5956 418.976 43.1789Z" fill="black"/>
<path d="M430.906 203.106C428.381 190.351 425.015 173.833 424.834 167.711C424.421 154.857 427.49 145.122 428.579 137.911C430.922 122.218 429.19 108.341 425.543 105.255C425.543 105.255 414.9 102.797 411.402 102.17C408.646 101.675 406.452 101.345 402.871 100.52C396.75 98.9667 390.395 98.5584 384.126 99.315C382.476 99.48 378.202 100.619 373.367 101.328L365.232 102.582C365.232 102.582 361.784 104.711 356.569 114.034C352.593 121.146 350.514 122.499 348.88 138.554C346.636 160.781 346.685 190.235 345.844 202.083C361.965 211.917 410.214 215.201 430.906 203.106Z" fill="#D7AFDD"/>
<path d="M363.071 71.808L361.157 71.2139C352.56 66.6102 352.906 55.3896 355.084 49.5482C359.738 36.496 373.846 31.6117 382.575 31.1332C399.076 30.2257 407.194 34.4334 408.976 43.0799C411.204 42.8819 414.29 44.73 416.154 47.2216C420.214 52.7659 423.233 69.3493 401.782 89.695L363.071 71.808Z" fill="#D8A85F"/>
<path d="M406.519 83.5731C408.076 83.7141 409.642 83.4385 411.057 82.7744C412.472 82.1104 413.685 81.0819 414.571 79.7944C417.872 74.8441 417.707 70.2074 415.727 67.3032C414.825 66.0547 413.494 65.1836 411.989 64.8576C410.484 64.5316 408.912 64.7738 407.575 65.5376C404.819 67.4187 404.951 68.8378 404.753 71.1479C404.555 73.4581 399.622 73.1941 398.302 65.1251C397.08 57.6172 396.651 50.2743 392.79 46.9741C387.064 42.0238 379.92 43.7729 377.824 46.8751C375.431 43.4264 370.629 43.1954 366.95 45.3735C363.897 47.1556 361.273 50.8683 361.587 59.3003C361.517 61.3171 361.33 63.3281 361.026 65.3231C359.557 81.824 363.155 88.0449 367.313 91.5761C369.705 93.6222 373.237 94.8763 378.731 94.9753L378.533 101.427C378.533 101.427 371.108 115.469 371.62 127.994C371.62 127.994 374.656 125.898 388.269 113.984C397.361 106.047 403.12 101.361 403.12 101.361L402.625 80.3885C402.968 81.1949 403.501 81.906 404.179 82.4607C404.858 83.0154 405.661 83.3972 406.519 83.5731Z" fill="#C8856A"/>
<path d="M364.028 58.6402L369.49 56.7921C369.389 56.4287 369.215 56.09 368.978 55.7967C368.741 55.5035 368.446 55.262 368.112 55.0872C367.778 54.9124 367.412 54.8081 367.035 54.7806C366.659 54.7531 366.282 54.8031 365.926 54.9275C365.195 55.187 364.592 55.7163 364.239 56.4066C363.886 57.0969 363.811 57.896 364.028 58.6402Z" fill="#263238"/>
<path d="M383.449 56.9736L388.977 59.7128C389.175 59.3613 389.299 58.973 389.341 58.5718C389.383 58.1706 389.343 57.765 389.222 57.38C389.102 56.995 388.904 56.6388 388.64 56.3334C388.376 56.0279 388.053 55.7797 387.69 55.6041C386.94 55.2611 386.088 55.2115 385.304 55.465C384.519 55.7184 383.857 56.2567 383.449 56.9736Z" fill="#263238"/>
<path d="M386.85 64.0855C386.85 64.5522 386.712 65.0084 386.452 65.3964C386.193 65.7844 385.825 66.0869 385.393 66.2655C384.962 66.4441 384.488 66.4908 384.03 66.3997C383.572 66.3087 383.152 66.084 382.822 65.754C382.492 65.424 382.267 65.0035 382.176 64.5458C382.085 64.0881 382.132 63.6136 382.31 63.1825C382.489 62.7513 382.792 62.3828 383.18 62.1235C383.568 61.8642 384.024 61.7258 384.49 61.7258C385.116 61.7258 385.716 61.9744 386.159 62.4169C386.602 62.8595 386.85 63.4596 386.85 64.0855Z" fill="#263238"/>
<path d="M369.854 63.673C369.854 64.1397 369.716 64.5959 369.456 64.9839C369.197 65.372 368.829 65.6744 368.397 65.853C367.966 66.0316 367.492 66.0783 367.034 65.9873C366.576 65.8962 366.156 65.6715 365.826 65.3415C365.496 65.0115 365.271 64.591 365.18 64.1333C365.089 63.6756 365.136 63.2012 365.314 62.77C365.493 62.3388 365.795 61.9703 366.183 61.711C366.572 61.4517 367.028 61.3134 367.494 61.3134C367.804 61.3134 368.111 61.3744 368.397 61.493C368.684 61.6115 368.944 61.7854 369.163 62.0045C369.382 62.2236 369.556 62.4837 369.674 62.77C369.793 63.0563 369.854 63.3631 369.854 63.673Z" fill="#263238"/>
<path d="M391.469 47.9641C392.756 49.6142 393.696 52.3039 393.498 58.1947C393.644 61.6718 394.521 65.0791 396.072 68.1943C397.508 71.1809 398.993 72.963 402.178 73.5241C404.111 73.8153 406.087 73.6109 407.92 72.93C409.042 72.4185 412.21 70.1744 411.831 66.9072C411.179 67.6133 410.386 68.1754 409.504 68.5573C408.835 68.8319 408.129 69.0043 407.408 69.0688C406.324 69.0633 405.259 68.7853 404.311 68.2606C403.362 67.7358 402.56 66.9811 401.98 66.0656C399.851 62.8975 399.983 58.6237 399.339 54.9935C398.498 50.3733 397.689 46.479 393.531 44.1854C388.581 41.4793 378.895 41.8753 377.822 46.9081C379.783 45.2652 382.31 44.4558 384.861 44.6532C387.412 44.8506 389.783 46.0391 391.469 47.9641Z" fill="#D8A85F"/>
<path d="M378.104 61.3134L377.493 75.7517L369.49 73.3095L378.104 61.3134Z" fill="#AF6152"/>
<path d="M383.499 79.5799C382.914 79.2971 382.267 79.1666 381.618 79.2004C380.958 79.2249 380.301 79.3077 379.655 79.4479C378.562 79.6743 377.559 80.2131 376.767 80.999C376.609 81.1336 376.485 81.303 376.404 81.494C376.322 81.9065 376.701 81.89 376.982 81.7745L377.543 81.4775C377.823 81.3455 378.137 81.263 378.417 81.131C378.946 80.8872 379.499 80.6992 380.067 80.5699C380.61 80.4467 381.162 80.3694 381.717 80.3389H382.608C382.922 80.3389 383.334 80.3389 383.516 80.0419C383.564 79.9738 383.589 79.8916 383.586 79.8081C383.583 79.7245 383.553 79.6443 383.499 79.5799Z" fill="#AF6152"/>
<path d="M378.729 94.9918C383.742 95.1712 388.715 94.0333 393.151 91.6916C397.062 89.6785 398.101 86.1638 400.015 82.4841C400.015 82.4841 399.355 90.1405 394.603 93.8862C387.904 99.1665 378.646 98.2755 378.646 98.2755L378.729 94.9918Z" fill="#AF6152"/>
<path d="M425.594 105.255C435.709 106.905 439.108 110.074 443.3 121.03C447.342 131.624 456.698 155.468 453.926 171.473C452.276 181.242 427.525 156.705 427.525 156.705L415.727 129.512C415.727 129.512 417.047 105.255 425.594 105.255Z" fill="#C8856A"/>
<path d="M418.745 112.912C417.113 118.31 416.122 123.882 415.791 129.512L427.606 156.705C427.606 156.705 431.153 160.236 435.642 164.098L452.357 155.418C452.126 151.26 442.572 139.132 436.665 132.927C432.308 128.357 423.299 117.746 418.745 112.912Z" fill="#AF6152"/>
<path d="M422.772 118.671C420.23 115.48 418.346 111.818 417.227 107.895C416.089 103.325 412.492 99.117 411.254 97.3844C410.017 95.6518 407.393 93.1106 405.363 90.685C403.334 88.2593 402.756 87.5663 399.852 87.0878C395.859 86.4112 392.724 85.7842 391.156 86.2462C389.588 86.7083 389.654 87.7478 391.008 89.1339C392.361 90.52 395.215 90.784 396.106 91.1305C396.997 91.477 398.944 92.2361 398.944 92.2361L402.641 97.6814C400.102 98.1096 397.599 98.7218 395.149 99.513C394.404 100.218 393.852 101.103 393.546 102.082C393.24 103.061 393.19 104.103 393.4 105.107C392.787 105.507 392.32 106.093 392.067 106.78C391.814 107.467 391.79 108.217 391.998 108.919C391.998 108.919 390.595 110.75 391.569 112.219C392.647 113.739 393.898 115.129 395.298 116.36C396.493 116.876 397.776 117.156 399.076 117.185C400.404 119.215 401.99 121.062 403.796 122.68C405.941 124.33 407.36 124.165 409.72 127.499L422.772 118.671Z" fill="#C8856A"/>
<path d="M399.819 98.2425C398.334 97.5989 398.004 96.5924 396.519 97.1369C395.034 97.6814 395.661 99.2655 395.661 99.2655L399.819 98.2425Z" fill="#AF6152"/>
<path d="M393.448 105.255C394.371 104.468 395.391 103.802 396.484 103.275C397.524 102.78 399.652 102.021 399.652 102.021C398.163 102.153 396.701 102.504 395.313 103.061C394.597 103.33 393.911 103.672 393.267 104.084C393.259 104.43 393.303 104.774 393.399 105.107L393.448 105.255Z" fill="#AF6152"/>
<path d="M393.251 107.351C392.752 107.563 392.267 107.805 391.799 108.077C391.842 108.421 391.925 108.759 392.046 109.084C393.199 108.033 394.536 107.205 395.99 106.641C395.054 106.777 394.135 107.015 393.251 107.351Z" fill="#AF6152"/>
<path d="M399.635 118.044C398.777 116.3 397.755 114.643 396.583 113.093C396.201 112.667 395.673 112.401 395.103 112.349C394.534 112.297 393.966 112.463 393.513 112.813C393.117 113.407 395.163 113.324 395.741 113.588C397.257 114.868 398.57 116.37 399.635 118.044Z" fill="#AF6152"/>
<path d="M404.356 97.5163C404.356 97.5163 403.201 95.8662 401.155 93.3251C399.109 90.7839 399.225 91.1305 397.228 90.7344C395.231 90.3384 391.453 89.6784 390.43 88.4738C390.607 88.7064 390.8 88.9269 391.007 89.1339C392.327 90.4704 395.215 90.7839 396.106 91.1305C396.997 91.477 398.944 92.236 398.944 92.236L402.739 97.8463L404.356 97.5163Z" fill="#AF6152"/>
<path d="M422.77 118.671C429.47 126.756 447.522 146.178 451.696 153.917C454.584 159.263 455.31 171.688 452.373 176.209C449.436 180.731 441.004 178.833 434.222 172.909C428.331 167.744 423.43 155.303 419.157 146.508C414.883 137.713 409.768 127.664 409.768 127.664L422.77 118.671Z" fill="#C8856A"/>
<path d="M418.794 112.136C418.262 110.98 417.826 109.783 417.491 108.555C417.193 107.304 416.778 106.083 416.253 104.909C415.137 102.604 413.77 100.429 412.177 98.4239C410.672 96.3588 409.017 94.4065 407.227 92.5826C406.369 91.642 405.577 90.6685 404.736 89.6784C403.962 88.6199 402.895 87.8111 401.666 87.3518C400.424 87.0144 399.162 86.7553 397.888 86.5763C396.634 86.3617 395.363 86.1472 394.092 85.9987C393.444 85.949 392.793 85.949 392.145 85.9987C391.465 86.0018 390.802 86.215 390.248 86.6093C390.095 86.725 389.977 86.8794 389.904 87.0564C389.832 87.2333 389.808 87.4265 389.835 87.6158C389.887 87.9624 390.023 88.291 390.231 88.5729C390.602 89.1249 391.085 89.5918 391.65 89.9424C392.794 90.5626 394.031 90.9918 395.313 91.213C396.522 91.5255 397.699 91.9509 398.828 92.4836L402.359 97.6484C400.165 98.0774 397.987 98.5064 395.842 99.15C395.55 99.237 395.268 99.3531 395 99.4965C394.745 99.6719 394.522 99.8896 394.34 100.14C394.003 100.652 393.736 101.207 393.548 101.79C393.142 102.881 393.045 104.063 393.267 105.206C392.686 105.635 392.221 106.202 391.914 106.856C391.756 107.203 391.677 107.58 391.683 107.961C391.682 108.323 391.749 108.681 391.881 109.018C391.531 109.45 391.296 109.965 391.198 110.513C391.099 111.061 391.142 111.625 391.32 112.153C391.899 113.093 392.58 113.968 393.35 114.76C393.729 115.156 394.109 115.552 394.505 115.931C394.873 116.355 395.329 116.693 395.842 116.921C396.885 117.216 397.959 117.388 399.043 117.433C399.715 118.415 400.437 119.362 401.204 120.271C401.987 121.25 402.891 122.126 403.894 122.878C404.917 123.621 406.089 124.083 407.095 124.825C408.091 125.585 408.96 126.499 409.669 127.532C408.973 126.489 408.115 125.565 407.128 124.792C406.122 124.033 404.967 123.538 403.96 122.796C402.976 122.032 402.09 121.151 401.32 120.172C400.544 119.215 399.802 118.192 399.109 117.169C398.03 117.118 396.961 116.941 395.924 116.641C395.442 116.424 395.013 116.103 394.67 115.7C394.29 115.321 393.911 114.925 393.548 114.529C392.795 113.758 392.131 112.906 391.568 111.988C391.408 111.489 391.378 110.958 391.479 110.445C391.58 109.931 391.809 109.452 392.145 109.051C392.015 108.731 391.948 108.389 391.947 108.044C391.957 107.691 392.036 107.344 392.178 107.021C392.459 106.361 392.916 105.79 393.498 105.371H393.581V105.272C393.358 104.166 393.461 103.02 393.878 101.972C394.257 100.916 394.802 99.81 395.973 99.5955C398.195 98.971 400.448 98.4643 402.722 98.0774H402.986L402.838 97.8464L399.158 92.4011C397.997 91.837 396.78 91.3946 395.528 91.081C394.286 90.8622 393.084 90.4561 391.964 89.8764C391.448 89.545 391.005 89.1128 390.66 88.6059C390.297 88.1274 390.132 87.4838 390.66 87.1373C391.764 86.5714 393.03 86.408 394.241 86.6753C395.495 86.8073 396.749 87.0218 398.02 87.2363C399.275 87.4083 400.52 87.6507 401.749 87.9623C402.927 88.4062 403.948 89.1866 404.686 90.2065C405.511 91.1635 406.336 92.1536 407.211 93.0941C409 94.907 410.655 96.8483 412.161 98.9025C413.753 100.885 415.12 103.037 416.237 105.321C416.775 106.477 417.2 107.681 417.507 108.919C417.855 110.156 418.313 111.36 418.877 112.516C420.033 114.795 421.391 116.965 422.936 119.001C421.343 116.848 419.956 114.549 418.794 112.136Z" fill="#AF6152"/>
</svg>
