<svg width="303" height="410" viewBox="0 0 303 410" fill="none" xmlns="http://www.w3.org/2000/svg">
<path d="M96.7233 359.442C96.795 359.415 96.8608 359.373 96.9165 359.319C96.9722 359.266 97.0168 359.201 97.0477 359.129C105.3 338.322 127.634 328.324 137.173 324.069C138.714 323.383 139.931 322.831 140.732 322.405C144.341 320.48 146.622 317.203 146.814 313.624C146.881 311.974 146.522 310.334 145.772 308.873C145.023 307.411 143.91 306.179 142.546 305.301C135.45 300.193 120.01 306.404 107.49 319.44C89.9512 337.708 90.4378 355.353 90.4479 355.53C90.4496 355.622 90.4737 355.712 90.518 355.792C90.5623 355.872 90.6253 355.939 90.7014 355.987L96.2366 359.431C96.2981 359.471 96.3674 359.495 96.4394 359.504C96.5382 359.517 96.6384 359.495 96.7233 359.442ZM108.291 320.178C120.456 307.517 135.237 301.358 141.958 306.165C143.172 306.941 144.164 308.034 144.833 309.331C145.503 310.628 145.826 312.084 145.77 313.551C145.586 315.24 144.98 316.852 144.01 318.23C143.04 319.608 141.74 320.706 140.235 321.416C139.464 321.832 138.207 322.363 136.737 323.05C127.167 327.325 104.884 337.271 96.2873 358.11L91.553 355.155C91.5732 352.814 92.3336 336.803 108.291 320.178Z" fill="#DDB3E3"/>
<path d="M93.3236 357.527H93.2527C93.1157 357.488 92.9993 357.395 92.929 357.268C92.8587 357.141 92.8402 356.991 92.8775 356.851C99.8524 331.653 123.818 312.791 136.643 311.366C136.713 311.357 136.784 311.363 136.852 311.383C136.919 311.403 136.983 311.437 137.037 311.483C137.092 311.528 137.138 311.585 137.171 311.649C137.204 311.713 137.224 311.783 137.231 311.855C137.239 311.927 137.233 312.001 137.214 312.071C137.194 312.141 137.162 312.207 137.117 312.264C137.073 312.321 137.018 312.369 136.956 312.404C136.893 312.439 136.825 312.461 136.754 312.469C124.082 313.884 100.511 333.276 93.9217 357.111C93.8903 357.244 93.8116 357.36 93.701 357.437C93.5904 357.514 93.4559 357.546 93.3236 357.527Z" fill="#DDB3E3"/>
<path d="M90.9338 356.019C90.8579 356.007 90.7854 355.978 90.7209 355.936L87.0206 353.408C86.947 353.357 86.8864 353.289 86.8441 353.209C86.8017 353.13 86.7788 353.041 86.7773 352.95C86.7773 352.69 86.6658 326.556 101.457 296C108.989 280.395 123.03 267.338 134.841 264.852C140.518 263.655 145.415 264.8 149.389 268.275C151.639 270.231 152.754 272.436 152.714 274.829C152.592 281.446 143.752 288.593 134.385 296.167C127.836 301.473 121.063 306.945 117.1 312.407C117.058 312.466 117.006 312.516 116.946 312.554C116.885 312.592 116.818 312.617 116.748 312.627C116.678 312.638 116.607 312.634 116.538 312.616C116.47 312.598 116.405 312.566 116.349 312.521C116.291 312.478 116.243 312.423 116.205 312.361C116.168 312.298 116.144 312.228 116.134 312.155C116.123 312.083 116.127 312.008 116.145 311.937C116.163 311.866 116.194 311.799 116.238 311.741C120.293 306.165 127.116 300.64 133.715 295.293C142.84 287.896 151.518 280.894 151.629 274.808C151.629 272.727 150.706 270.876 148.689 269.117C144.979 265.882 140.396 264.81 135.064 265.934C123.547 268.358 109.831 281.217 102.43 296.5C88.5818 325.078 87.8925 349.714 87.862 352.679L91.3191 355.041C91.4374 355.123 91.5196 355.25 91.548 355.394C91.5764 355.538 91.5488 355.688 91.4711 355.811C91.4077 355.891 91.3244 355.953 91.23 355.99C91.1356 356.026 91.0333 356.036 90.9338 356.019Z" fill="#DDB3E3"/>
<path d="M94.4309 340.486C94.2901 340.454 94.1674 340.366 94.0896 340.241C94.0118 340.116 93.985 339.965 94.0153 339.821C102.379 300.172 132.539 275.724 140.365 272.343C140.432 272.315 140.503 272.3 140.575 272.301C140.647 272.301 140.718 272.316 140.785 272.344C140.851 272.373 140.911 272.414 140.962 272.467C141.013 272.519 141.053 272.581 141.08 272.649C141.107 272.718 141.121 272.791 141.121 272.865C141.121 272.939 141.106 273.012 141.079 273.08C141.051 273.148 141.01 273.21 140.959 273.262C140.908 273.314 140.848 273.355 140.781 273.383C133.097 276.722 103.342 300.859 95.0696 340.081C95.0336 340.219 94.9475 340.338 94.8287 340.414C94.71 340.489 94.5677 340.515 94.4309 340.486Z" fill="#DDB3E3"/>
<path d="M294.048 354.218C292.69 337.78 293.957 330.861 292.325 305.196C292.132 298.61 291.818 291.557 291.311 285.294C289.608 264.226 286.344 257.048 285.999 252.99C285.999 252.99 285.999 227.709 284.144 181.58C283.262 159.888 277.047 153.386 271.978 141.921L209.884 142.629C206.599 171.353 206.792 224.63 207.319 253.947C207.593 268.877 214.274 343.065 214.416 344.906C214.902 351.419 214.416 353.999 211.912 356.767C206.731 362.572 199.199 368.127 192.65 373.204C193.663 375.764 201.53 375.576 205.423 373.579C210.516 370.794 215.363 367.56 219.91 363.914C225.263 359.752 232.126 356.423 232.137 350.212C232.163 349.837 232.221 349.464 232.309 349.099C232.37 345.468 240.176 297.58 240.723 285.169C241.19 274.495 239.709 256.413 239.709 256.413L245.255 219.636C245.255 219.636 248.773 238.769 253.183 256.954C256.782 271.758 263.108 291.286 267.163 309.513C271.106 330.508 276.713 345.427 277.777 355.945C278.091 358.462 281.163 383.109 282.38 388.747C283.596 394.386 295.66 394.396 296.329 384.669C296.765 378.177 294.302 357.308 294.048 354.218Z" fill="#C8856A"/>
<path d="M181.569 379.873C181.245 379.873 180.738 383.629 182.583 385.231C184.682 387.073 190.835 390.1 198.956 389.018C207.076 387.936 211.476 385.377 214.72 382.599C217.964 379.821 222.526 375.899 226.196 375.067C229.613 374.297 233.293 372.716 234.408 371.634C235.523 370.552 235.34 365.776 235.34 365.776L181.569 379.873Z" fill="#263238"/>
<path d="M232.458 347.331C232.458 347.331 233.067 347.331 233.28 348.465C233.533 349.786 233.807 353.666 234.344 355.747C235.094 358.754 235.601 364.923 235.155 367.378C234.709 369.834 229.143 371.54 225.595 372.924C221.413 374.794 217.531 377.302 214.079 380.362C210.267 383.577 202.238 386.802 196.946 386.885C188.835 387.01 183.625 384.804 182.002 381.808C179.975 378.136 181.567 376.013 190.853 371.613C192.607 370.78 198.781 367.045 200.889 365.693C203.118 364.27 205.231 362.662 207.205 360.886C208.195 359.98 209.139 359.021 210.034 358.015C210.962 357.122 211.755 356.091 212.386 354.956C212.487 354.696 212.558 354.405 212.649 354.145C212.912 353.425 213.115 352.684 213.257 351.929C213.409 351.138 213.501 349.983 214.271 349.515C215.323 349.072 216.473 348.932 217.596 349.11C218.8 349.195 219.996 349.368 221.175 349.63C222.544 349.942 224.125 350.067 224.936 351.378C225.476 352.435 225.741 353.617 225.707 354.811C225.707 355.362 225.707 355.924 225.707 356.475C225.707 356.715 225.605 357.141 225.93 357.037C226.254 356.933 226.589 356.111 226.7 355.83C226.954 355.217 227.126 354.551 227.4 353.937C227.711 353.226 228.099 352.552 228.555 351.929C228.99 351.366 229.483 350.854 230.025 350.4C230.578 350.089 231.11 349.742 231.617 349.359C232.087 348.783 232.38 348.077 232.458 347.331Z" fill="#37474F"/>
<path d="M189.35 372.382C201.059 373.194 204.749 380.57 205.246 385.137C202.584 386.166 199.784 386.769 196.943 386.927C188.833 387.051 183.288 384.846 181.676 381.85C179.78 378.396 181.057 375.597 189.35 372.382Z" fill="#FAFAFA"/>
<path d="M206.902 372.497C207.032 372.497 207.158 372.449 207.257 372.361C207.315 372.313 207.363 372.253 207.399 372.186C207.434 372.118 207.456 372.044 207.464 371.968C207.471 371.891 207.464 371.814 207.443 371.741C207.421 371.667 207.385 371.599 207.338 371.539C205.97 370.098 204.319 368.973 202.494 368.24C200.668 367.506 198.712 367.18 196.754 367.284C196.679 367.292 196.607 367.315 196.541 367.352C196.475 367.389 196.417 367.438 196.369 367.498C196.322 367.558 196.287 367.627 196.266 367.701C196.245 367.775 196.239 367.853 196.247 367.929C196.255 368.006 196.277 368.08 196.313 368.148C196.349 368.216 196.397 368.276 196.456 368.324C196.514 368.373 196.581 368.409 196.653 368.43C196.726 368.452 196.801 368.458 196.876 368.45C198.641 368.367 200.404 368.661 202.053 369.313C203.701 369.965 205.201 370.96 206.456 372.237C206.505 372.313 206.571 372.377 206.648 372.422C206.726 372.468 206.813 372.493 206.902 372.497Z" fill="#F0F0F0"/>
<path d="M211.929 369.49C212.061 369.492 212.189 369.448 212.294 369.365C212.352 369.317 212.4 369.257 212.436 369.19C212.471 369.122 212.493 369.048 212.501 368.972C212.509 368.895 212.501 368.818 212.48 368.745C212.458 368.671 212.423 368.603 212.375 368.544C211.009 367.101 209.357 365.975 207.532 365.241C205.706 364.507 203.749 364.182 201.791 364.288C201.713 364.291 201.636 364.31 201.565 364.344C201.494 364.378 201.431 364.427 201.379 364.488C201.328 364.548 201.289 364.619 201.266 364.696C201.242 364.773 201.234 364.854 201.243 364.934C201.251 365.013 201.276 365.091 201.315 365.16C201.354 365.23 201.406 365.291 201.469 365.339C201.532 365.387 201.604 365.421 201.68 365.439C201.757 365.457 201.836 365.458 201.913 365.443C203.682 365.365 205.448 365.666 207.097 366.327C208.747 366.988 210.244 367.994 211.493 369.282C211.547 369.347 211.614 369.399 211.689 369.435C211.764 369.471 211.846 369.49 211.929 369.49Z" fill="#F0F0F0"/>
<path d="M216.605 366.067C216.736 366.068 216.862 366.02 216.96 365.932C217.018 365.884 217.066 365.824 217.102 365.756C217.137 365.689 217.159 365.615 217.167 365.538C217.175 365.462 217.167 365.385 217.146 365.311C217.124 365.238 217.089 365.169 217.041 365.11C215.673 363.67 214.021 362.546 212.196 361.812C210.371 361.078 208.415 360.752 206.457 360.855C206.307 360.873 206.17 360.951 206.076 361.072C205.981 361.192 205.936 361.346 205.95 361.5C205.958 361.577 205.98 361.651 206.016 361.719C206.052 361.787 206.1 361.846 206.159 361.895C206.217 361.943 206.284 361.979 206.357 362.001C206.429 362.022 206.504 362.029 206.579 362.02C208.347 361.944 210.111 362.244 211.76 362.903C213.409 363.562 214.907 364.565 216.159 365.849C216.212 365.918 216.28 365.974 216.357 366.011C216.435 366.049 216.519 366.068 216.605 366.067Z" fill="#F0F0F0"/>
<path d="M221.172 362.644C221.302 362.644 221.428 362.596 221.527 362.509C221.643 362.413 221.717 362.274 221.735 362.123C221.752 361.971 221.71 361.818 221.618 361.698C219.368 358.806 214.299 356.902 210.051 357.38C209.977 357.388 209.905 357.411 209.839 357.448C209.774 357.485 209.716 357.535 209.67 357.595C209.623 357.655 209.589 357.724 209.569 357.798C209.55 357.872 209.544 357.949 209.554 358.025C209.562 358.102 209.584 358.176 209.62 358.244C209.656 358.312 209.704 358.372 209.763 358.42C209.821 358.468 209.888 358.504 209.961 358.526C210.033 358.547 210.108 358.554 210.183 358.545C214.005 358.119 218.729 359.856 220.716 362.416C220.771 362.486 220.84 362.544 220.919 362.583C220.998 362.623 221.084 362.644 221.172 362.644Z" fill="#F0F0F0"/>
<path d="M278.638 393.189C279.023 398.818 279.925 402.553 281.922 405.83C283.92 409.107 287.62 410.106 291.351 409.096C295.081 408.087 299.846 405.445 300.86 400.565C301.874 395.686 302.462 392.357 301.549 387.145L278.638 393.189Z" fill="#263238"/>
<path d="M293.844 352.21C295.385 352.314 295.871 359.877 296.885 367.441C297.899 375.545 300.342 378.885 301.275 385.522C302.289 393.117 301.133 396.529 298.578 401.128C296.023 405.726 286.839 410.376 282.206 403.843C278.434 398.516 278.211 392.565 278.455 384.96C278.574 378.54 278.337 372.117 277.745 365.724C277.37 360.033 276.072 354.28 277.41 353.656C277.522 354.488 277.633 355.549 277.745 356.371C277.811 357.398 277.991 358.414 278.282 359.399C278.444 359.825 278.789 360.262 278.921 359.575C278.992 359.103 278.992 358.622 278.921 358.15C278.667 356.069 279.702 355.882 280.259 355.705C282.604 355.208 284.973 354.836 287.356 354.592C288.532 354.499 292.597 354.27 293.134 354.946C293.481 355.623 293.666 356.376 293.671 357.141C293.824 358.285 294.087 359.118 294.118 358.764C294.178 357.942 294.006 355.809 293.976 355.3C293.945 354.79 293.864 354.134 293.854 353.635C293.844 353.136 293.935 352.688 293.844 352.21Z" fill="#37474F"/>
<path d="M301.823 389.923C302.147 393.989 301.184 398.054 299.076 401.513C296.511 406.142 286.586 410.782 281.953 404.249C279.652 401.003 278.993 397.133 278.638 393.19C281.314 388.082 297.464 385.658 301.823 389.923Z" fill="#FAFAFA"/>
<path d="M281.903 384.877H282.095C282.156 384.877 289.253 381.756 296.217 383.306C296.365 383.337 296.519 383.308 296.646 383.224C296.773 383.141 296.863 383.009 296.897 382.859C296.913 382.784 296.915 382.707 296.901 382.632C296.888 382.557 296.86 382.485 296.82 382.421C296.779 382.357 296.726 382.302 296.665 382.259C296.603 382.217 296.534 382.187 296.461 382.172C289.101 380.518 281.862 383.691 281.588 383.826C281.454 383.896 281.352 384.016 281.303 384.162C281.253 384.307 281.261 384.467 281.325 384.607C281.385 384.705 281.472 384.782 281.574 384.831C281.677 384.879 281.791 384.895 281.903 384.877Z" fill="#F0F0F0"/>
<path d="M295.801 377.595C295.91 377.582 296.014 377.538 296.1 377.468C296.186 377.398 296.251 377.305 296.288 377.199C296.333 377.052 296.32 376.892 296.252 376.754C296.184 376.616 296.066 376.51 295.923 376.461C288.979 374.151 281.355 377.823 281.071 377.979C281.004 378.014 280.945 378.063 280.896 378.122C280.848 378.181 280.812 378.25 280.79 378.324C280.768 378.398 280.761 378.475 280.77 378.552C280.778 378.629 280.801 378.703 280.838 378.77C280.911 378.905 281.032 379.005 281.176 379.05C281.32 379.095 281.475 379.08 281.608 379.009C281.669 379.009 289.11 375.41 295.568 377.563C295.642 377.594 295.722 377.604 295.801 377.595Z" fill="#F0F0F0"/>
<path d="M295.497 372.237C295.623 372.221 295.74 372.162 295.83 372.07C295.92 371.978 295.977 371.857 295.992 371.728C296.007 371.598 295.98 371.467 295.914 371.356C295.848 371.244 295.747 371.159 295.628 371.113C287.995 368.418 280.756 372.424 280.493 372.59C280.425 372.628 280.366 372.68 280.318 372.742C280.27 372.805 280.236 372.877 280.216 372.953C280.197 373.03 280.192 373.11 280.204 373.188C280.215 373.266 280.242 373.341 280.283 373.409C280.324 373.476 280.377 373.534 280.441 373.579C280.504 373.625 280.576 373.656 280.651 373.672C280.727 373.688 280.805 373.688 280.88 373.672C280.956 373.656 281.028 373.624 281.091 373.579C281.152 373.579 288.187 369.708 295.284 372.216C295.353 372.235 295.425 372.242 295.497 372.237Z" fill="#F0F0F0"/>
<path d="M295.06 367.035C295.167 367.023 295.268 366.981 295.353 366.913C295.437 366.845 295.501 366.754 295.537 366.65C295.586 366.503 295.577 366.343 295.513 366.203C295.449 366.063 295.333 365.955 295.192 365.901C288.035 363.269 280.249 367.368 279.985 367.555C279.857 367.633 279.764 367.76 279.726 367.908C279.688 368.055 279.708 368.213 279.783 368.345C279.861 368.481 279.988 368.578 280.136 368.617C280.284 368.656 280.442 368.633 280.573 368.554C280.634 368.554 288.187 364.548 294.837 367.003C294.909 367.03 294.985 367.04 295.06 367.035Z" fill="#EBEBEB"/>
<path d="M278.476 142.066C285.573 154.894 285.877 165.412 287.022 203.77C288.168 242.129 287.235 245.385 287.428 249.994C287.621 254.603 290.368 262.853 292.943 285.616C294.478 300.311 294.661 315.122 293.49 329.852C293.49 329.852 291.929 333.535 283.352 334.419C275.486 335.231 271.552 332.255 271.552 332.255C271.552 332.255 259.853 293.762 256.71 280.019C253.568 266.275 245.315 228.812 245.315 228.812L241.26 256.995C241.26 256.995 243.805 269.553 241.635 289.569C240.41 301.198 238.514 312.742 235.958 324.14C231.89 325.707 227.59 326.542 223.245 326.606C219.374 326.652 215.565 325.605 212.236 323.579C212.236 323.579 205.372 270.156 205.139 247.497C204.906 224.838 206.609 170.302 208.434 143.086L278.476 142.066Z" fill="#2E4C5B"/>
<path d="M254.378 256.871C254.378 256.871 257.713 251.835 266.016 250.712C274.319 249.588 278.709 254.155 278.709 254.155C278.709 254.155 263.249 252.668 254.378 256.871ZM279.723 257.495C269.017 259.784 264.121 259.399 259.204 258.463C259.163 258.463 274.583 256.288 279.652 257.495H279.723Z" fill="#C8856A"/>
<path d="M205.351 253.406L205.249 250.951C212.406 249.911 223.842 252.127 226.924 253.895C219.768 252.979 212.539 252.815 205.351 253.406ZM221.865 256.756C217.08 258.129 205.645 258.837 205.645 258.837L205.503 256.538C205.503 256.538 213.684 256.246 221.865 256.756Z" fill="#C8856A"/>
<path d="M292.029 331.506C291.664 331.796 291.277 332.057 290.874 332.286C292.638 296.446 287.65 281.652 284.578 267.971C284.284 266.66 284 265.412 283.747 264.226C281.425 253.531 282.236 247.133 282.064 229.519C282.064 224.214 281.962 218.731 281.851 212.874C281.709 206.059 281.425 199.016 280.837 192.066C268.591 190.714 265.793 178.417 262.265 162.884C261.788 160.803 261.251 158.567 260.744 156.309L261.829 156.039C262.376 158.296 262.842 160.502 263.349 162.624C266.887 178.229 269.432 189.497 280.726 190.891C279.215 175.056 275.839 159.742 268.094 148.735L268.996 148.069C280.513 164.445 282.53 190.017 282.996 212.874C283.108 218.7 283.159 224.182 283.209 229.519C283.382 247.07 282.571 253.448 284.862 263.987C285.125 265.173 285.399 266.421 285.693 267.732C288.724 281.35 293.692 296.03 292.029 331.506ZM237.812 188.841L245.365 228.812L241.31 256.995L240.904 229.946L235.835 202.99C235.683 205.674 235.531 208.431 235.379 211.24C234.092 234.419 233.351 252.21 234.568 257.724C237.995 272.83 237.143 282.391 235.582 299.765C235.42 301.523 235.257 303.364 235.095 305.299C234.254 315.11 233.159 319.084 232.52 325.399C232.165 325.493 231.78 325.597 231.364 325.691C232.003 319.386 233.128 315.214 233.98 305.195C234.152 303.26 234.315 301.419 234.467 299.661C235.997 282.411 236.839 272.913 233.453 257.984C232.165 252.303 232.885 235.564 234.233 211.167C234.477 206.746 234.72 202.46 234.933 198.371L233.858 193.512C228.495 192.264 219.868 188.186 218.216 180.664C226.59 189.341 237.812 188.841 237.812 188.841Z" fill="#263238"/>
<path d="M225.1 67.7637C214.191 69.9068 208.95 73.4961 203.273 83.3691C197.596 93.2422 189.08 118.138 189.191 123.735H211.88L225.1 67.7637Z" fill="#C8856A"/>
<path d="M210.543 114.861C205.707 113.529 202.139 112.583 199.604 112.645C201.632 111.261 210.756 112.864 210.756 112.864L210.543 114.861Z" fill="#AF6152"/>
<path d="M225.635 67.0461C217.91 67.6704 212.293 69.8759 207.143 76.347C201.993 82.818 201.547 85.3253 198.82 92.3998C196.093 99.4743 194.238 104.187 194.238 104.187C194.238 104.187 199.428 113.727 216.288 112.292L222.289 93.8355L225.635 67.0461Z" fill="#F9FAF9"/>
<path d="M265.855 64.8821C265.855 64.8821 275.628 67.5246 285.38 71.1243C285.38 71.1243 296.076 75.5666 290.236 107.828C288.756 115.964 285.755 127.803 284.934 137.864C284.468 143.575 284.833 157.35 285.573 169.074C285.573 169.074 268.237 180.81 236.404 177.168C211.415 174.297 207.36 163.02 207.36 163.02C207.36 163.02 208.373 134.139 210.452 115.059C213.442 87.666 218.785 72.3415 225.658 66.9732L239.851 65.4127L265.855 64.8821Z" fill="#F9FAF9"/>
<path d="M277.043 44.1269C274.673 48.7826 271.635 53.047 268.031 56.7777C266.957 57.9984 265.463 58.7442 263.864 58.8584L266.287 49.1414L268.142 42.4415C268.142 42.4415 263.955 36.1993 264.594 31.216C264.817 29.3486 265.298 27.5234 266.024 25.7957L233.897 20.5939C233.897 20.5939 232.822 11.6676 238.439 6.14324C243.812 0.847787 250.604 -1.75312 261.097 1.30555C273.901 5.05085 279.162 13.1761 278.858 18.8877C280.819 20.2928 282.188 22.4079 282.69 24.8074C283.329 27.5331 283.217 32.1835 277.043 44.1269Z" fill="#263238"/>
<path d="M273.871 53.1153C273.543 53.264 273.204 53.3858 272.857 53.4794C271.939 53.7713 270.97 53.8529 270.019 53.7187C269.22 53.4876 268.489 53.0589 267.89 52.4703C267.186 51.8898 266.588 51.1852 266.126 50.3895L265.781 68.7936C257.123 79.6342 227.784 76.6587 239.879 65.8181L239.524 59.1702C238.112 58.8064 236.73 58.3334 235.388 57.7553C233.246 56.9423 231.386 55.4987 230.041 53.6054C228.695 51.7121 227.925 49.4534 227.825 47.1124C227.521 39.4865 232.397 24.1516 235.418 15.9015C235.883 14.6584 236.609 13.5356 237.545 12.6132C238.48 11.6907 239.603 10.9912 240.832 10.5644C246.62 9.11834 250.564 14.0705 257.143 18.6793C259.86 20.5935 267.008 22.8407 269.126 22.3309C267.447 23.8048 266.309 25.8239 265.903 28.0529C265.575 29.6828 265.53 31.3593 265.771 33.0051C266.126 34.4614 266.346 35.9487 266.43 37.4474C266.335 38.1339 266.444 38.834 266.744 39.4553C267.034 39.7792 267.421 39.9942 267.843 40.0659C268.266 40.1375 268.7 40.0618 269.076 39.8507C269.815 39.4152 270.496 38.8837 271.103 38.2693C271.96 37.4996 273.017 37.0042 274.145 36.844C275.218 36.8092 276.277 37.1086 277.182 37.7028C278.086 38.297 278.795 39.1582 279.214 40.1732C280.014 42.248 280.036 44.5539 279.274 46.6442C278.861 48.0489 278.167 49.3498 277.237 50.464C276.307 51.5782 275.16 52.4811 273.871 53.1153Z" fill="#C8856A"/>
<path d="M239.51 59.1495C245.188 60.4396 250.388 60.8869 254.058 60.1899C257.728 59.4929 261.743 55.4979 263.75 51.0659C262.919 54.8216 259.857 61.095 254.16 62.6764C248.462 64.2577 243.413 63.0821 239.683 62.3018L239.51 59.1495Z" fill="#AF6152"/>
<path d="M254.303 23.9856L257.923 28.0118C258.444 27.4909 258.749 26.7841 258.775 26.0383C258.802 25.2924 258.547 24.5647 258.065 24.0064C257.824 23.7421 257.534 23.531 257.211 23.3861C256.889 23.2411 256.541 23.1653 256.188 23.1634C255.836 23.1614 255.487 23.2333 255.163 23.3747C254.839 23.5161 254.547 23.724 254.303 23.9856Z" fill="#263238"/>
<path d="M235.393 22.6747L240.766 22.914C240.804 22.5558 240.77 22.1934 240.666 21.8493C240.561 21.5053 240.389 21.1868 240.16 20.9137C239.931 20.6407 239.65 20.4187 239.334 20.2617C239.018 20.1047 238.674 20.016 238.323 20.001C237.595 19.9795 236.886 20.2443 236.341 20.7412C235.797 21.2382 235.458 21.9298 235.393 22.6747Z" fill="#263238"/>
<path d="M254.92 32.3187C254.789 32.7368 254.541 33.1059 254.207 33.3795C253.872 33.6531 253.466 33.8191 253.039 33.8565C252.613 33.8939 252.186 33.8011 251.81 33.5898C251.435 33.3785 251.13 33.0581 250.932 32.6688C250.733 32.2796 250.652 31.839 250.697 31.4023C250.743 30.9657 250.913 30.5526 251.186 30.2149C251.46 29.8773 251.825 29.6302 252.235 29.5047C252.645 29.3792 253.082 29.381 253.491 29.5098C253.765 29.5974 254.019 29.7397 254.239 29.9285C254.459 30.1172 254.641 30.3487 254.774 30.6097C254.907 30.8706 254.988 31.1559 255.013 31.4492C255.038 31.7425 255.007 32.038 254.92 32.3187Z" fill="#263238"/>
<path d="M239.431 27.4913C239.299 27.9082 239.049 28.2758 238.714 28.5478C238.379 28.8198 237.973 28.9841 237.547 29.0202C237.121 29.0562 236.694 28.9624 236.32 28.7505C235.946 28.5386 235.641 28.218 235.444 27.8289C235.247 27.4399 235.166 26.9997 235.211 26.5637C235.257 26.1277 235.427 25.7152 235.7 25.3779C235.973 25.0407 236.338 24.7938 236.747 24.6682C237.156 24.5426 237.593 24.5439 238.002 24.6719C238.277 24.7595 238.532 24.9021 238.753 25.0916C238.974 25.2811 239.156 25.5136 239.289 25.7758C239.422 26.0379 239.503 26.3245 239.527 26.6189C239.552 26.9134 239.519 27.2099 239.431 27.4913Z" fill="#263238"/>
<path d="M246.793 26.9919L242.048 40.5167L235.043 35.731C238.272 31.951 242.288 28.9643 246.793 26.9919Z" fill="#AF6152"/>
<path d="M242.016 46.2491L242.077 46.1867C242.169 46.1321 242.275 46.1067 242.381 46.1139C243.225 46.175 244.072 46.175 244.916 46.1139C245.647 46.022 246.361 45.8186 247.034 45.5105C247.61 45.1177 248.213 44.7699 248.839 44.4701C248.879 44.4591 248.92 44.4575 248.961 44.4653C249.001 44.473 249.039 44.4901 249.072 44.515C249.105 44.54 249.133 44.5723 249.152 44.6096C249.171 44.6468 249.182 44.6881 249.184 44.7302C249.123 45.3856 248.17 45.885 247.643 46.1659C247.009 46.5012 246.323 46.7195 245.615 46.8109C244.861 46.9097 244.098 46.9097 243.344 46.8109C242.962 46.7678 242.582 46.6983 242.209 46.6029C242.036 46.4884 241.935 46.3636 242.016 46.2491Z" fill="#AF6152"/>
<path d="M270.02 145.438C268.915 145.438 267.82 145.438 266.725 145.5C263.894 145.568 261.062 145.484 258.24 145.25C256.476 145.094 254.722 144.865 252.978 144.543C251.39 144.318 249.821 143.97 248.284 143.502C245.243 142.389 242.273 141.12 239.322 139.851C236.372 138.582 232.53 138.384 229.448 138.113C222.2 137.5 215.732 137.52 208.534 136.397C204.325 135.754 200.227 134.493 196.368 132.651C193.883 131.396 191.762 129.495 190.215 127.138C188.289 124.016 189.313 121.936 191.999 120.053C194.3 118.419 201.001 114.996 210.572 114.851C215.144 116.078 220.496 117.92 225.565 119.616C230.32 121.218 233.929 122.529 238.745 123.777C240.842 124.23 243.002 124.293 245.121 123.964C247.149 123.673 248.882 123.028 250.829 122.706C253.301 122.108 255.817 121.722 258.351 121.551C262.67 121.551 267.09 122.976 270.02 123.382C272.95 123.788 272.757 125.463 270.547 126.701C269.392 127.184 268.138 127.367 266.897 127.231C265.508 127.231 264.12 127.127 262.731 127.231C262.406 127.231 261.768 127.231 261.595 127.554C261.423 127.876 261.869 128.324 262.173 128.469C263.907 129.291 265.833 129.062 267.688 129.052H273.771C274.582 129.052 275.403 129.052 276.214 129.052C277.36 129.125 278.536 129.301 279.174 130.394C279.384 130.716 279.487 131.099 279.468 131.486C279.468 131.809 279.286 132.079 279.641 132.319C279.931 132.467 280.249 132.552 280.573 132.568C280.916 132.643 281.235 132.802 281.506 133.03C281.776 133.258 281.989 133.549 282.127 133.88C282.265 134.21 282.324 134.569 282.299 134.927C282.274 135.286 282.165 135.633 281.982 135.939C281.679 136.375 281.28 136.732 280.817 136.979C280.58 137.089 280.367 137.245 280.188 137.437C280.063 137.618 279.967 137.818 279.904 138.03C279.682 138.572 279.334 139.051 278.89 139.424C278.063 140.048 277.092 140.442 276.072 140.569C275.221 140.725 274.359 140.829 273.497 140.922C272.331 141.058 271.165 141.245 269.989 141.401L268.479 141.578L267.719 141.661C267.474 141.662 267.232 141.7 266.999 141.775C267.141 141.921 267.729 141.859 267.942 141.869L269.026 141.942C269.716 141.994 270.405 142.067 271.054 142.181C271.527 142.251 271.985 142.398 272.412 142.618C272.785 142.783 273.09 143.075 273.275 143.445C273.46 143.816 273.513 144.24 273.426 144.647C273.35 144.797 273.239 144.926 273.102 145.022C272.966 145.118 272.81 145.179 272.646 145.198C272.345 145.264 272.04 145.309 271.733 145.333C271.246 145.437 270.628 145.438 270.02 145.438Z" fill="#C8856A"/>
<path d="M250.698 134.358C248.836 131.018 247.395 127.448 246.409 123.735C247.91 123.413 249.319 122.966 250.839 122.695C253.312 122.098 255.828 121.711 258.362 121.54C262.68 121.54 267.101 122.966 270.03 123.371C272.96 123.777 272.768 125.452 270.558 126.69C269.402 127.174 268.149 127.356 266.908 127.221C265.519 127.221 264.13 127.117 262.741 127.221C262.417 127.221 261.778 127.221 261.606 127.543C261.433 127.866 261.88 128.313 262.184 128.459C263.917 129.281 265.843 129.052 267.699 129.041H273.781C274.592 129.041 275.414 129.041 276.225 129.041C277.37 129.114 278.546 129.291 279.185 130.383C279.395 130.706 279.498 131.089 279.479 131.476C279.479 131.746 279.357 131.986 279.54 132.194C279.098 132.479 278.721 132.859 278.435 133.307L276.488 136.73C278.119 136.912 279.765 136.87 281.385 136.605C281.21 136.752 281.023 136.884 280.827 137C280.607 137.108 280.405 137.252 280.229 137.427C278.995 137.691 277.779 138.038 276.59 138.467C275.518 139.099 274.567 139.923 273.781 140.901H273.518C272.352 141.037 271.186 141.224 270.01 141.38L268.5 141.557L267.739 141.64C267.495 141.641 267.252 141.68 267.019 141.755C267.161 141.9 267.749 141.838 267.962 141.848L269.047 141.921C269.736 141.973 270.426 142.046 271.075 142.16C271.42 142.222 271.76 142.316 272.088 142.441C268.662 145.157 263.877 146.447 259.862 144.574C259.351 144.339 258.857 144.067 258.382 143.762C254.976 141.557 252.674 137.916 250.698 134.358Z" fill="#AF6152"/>
<path d="M263.927 144.262C267.982 143.898 271.602 143.565 277.441 133.941C281.973 126.492 284.355 121.592 288.816 111.168C293.276 100.743 296.591 93.4816 296.176 86.8441C295.841 81.4238 294.493 75.5458 285.227 71.8733C279.651 75.5146 271.967 85.7934 268.408 95.0838C264.85 104.374 258.554 121.727 258.554 121.727L263.927 144.262Z" fill="#C8856A"/>
<path d="M285.38 71.4573C295.031 75.5043 298.559 83.0053 295.872 94.1372C292.882 106.622 284.721 123.267 284.721 123.267C284.721 123.267 279.266 123.527 272.403 118.971C268.222 116.127 264.941 112.091 262.965 107.36C262.965 107.36 266.401 97.4559 268.267 92.1813C271.947 81.7465 278.415 73.1531 285.38 71.4573Z" fill="#F9FAF9"/>
<path d="M273.711 123.767C273.427 112.552 268.449 105.727 264.648 97.3312C260.846 88.9355 258.758 83.8793 257.359 78.792C255.96 73.7046 255.24 66.3076 255.919 62.5415C256.489 59.6673 257.285 56.8455 258.301 54.1042C258.991 52.2315 258.251 52.0234 256.517 52.1067C254.784 52.1899 252.918 53.0326 251.306 56.2681C249.694 59.5036 249.279 61.4699 248.518 61.3139C247.758 61.1578 243.987 56.6426 241.787 54.5203C239.587 52.398 238.746 52.3355 235.339 51.909C232.625 51.4949 229.862 51.5582 227.168 52.0963C225.769 52.5436 223.711 54.5723 222.87 55.2173C221.694 56.1537 223.681 57.8703 225.911 57.0588L228.101 56.2577C227.239 56.9443 227.3 57.8911 227.168 59.0667C227.124 59.8593 227.365 60.6409 227.847 61.2618C227.847 61.2618 227.036 61.5115 226.732 62.9993C226.55 63.8924 226.585 64.8178 226.834 65.6938C226.582 65.662 226.327 65.7096 226.102 65.8305C225.878 65.9513 225.694 66.1395 225.576 66.37C225.08 67.2023 224.421 68.5444 227.34 71.2701C230.26 73.9959 232.409 75.8269 234.924 77.9597C236.604 79.2733 238.068 80.8537 239.263 82.6413C240.793 84.9301 241.29 88.7899 242.233 95.0008C244.402 108.775 244.818 112.198 247.119 120.615C248.863 127.013 250.911 133.64 257.693 140.808C263.674 147.133 267.649 143.492 269.99 138.956C272.262 134.22 273.53 129.043 273.711 123.767Z" fill="#C8856A"/>
<path d="M273.709 123.766C273.962 113.363 268.133 104.447 264.159 95.3333C262.073 90.7713 260.212 86.1046 258.583 81.3509C256.601 75.4274 255.835 69.1473 256.332 62.9052C256.913 59.828 257.758 56.8096 258.857 53.8853C259.87 50.8682 255.653 51.4508 254.132 52.3351C251.253 54.0309 250.432 57.537 249.064 60.3459C248.952 60.5852 248.699 61.043 248.597 60.9806C245.647 58.5981 243.407 55.1857 240.244 52.9489C239.133 52.3179 237.893 51.9617 236.624 51.9086C234.169 51.5638 231.684 51.4941 229.214 51.7005C226.578 51.7005 224.702 53.6668 222.878 55.3314C224.763 53.7708 226.649 51.8878 229.234 51.971C231.681 51.8391 234.135 51.9786 236.553 52.3872C237.748 52.4665 238.909 52.8222 239.95 53.4275C243.102 55.7371 245.191 59.2431 248.293 61.688C249.54 62.229 250.108 59.7737 250.564 58.9831C251.578 56.8295 252.46 54.3014 254.558 53.1154C255.567 52.5982 256.713 52.4303 257.823 52.6368C258.319 52.7617 258.086 53.1986 258.005 53.6148C256.535 57.7762 255.025 62.1458 255.187 66.6297C255.187 76.9189 259.242 86.5527 263.49 95.6663C267.737 104.78 273.536 113.352 273.719 123.756L273.709 123.766Z" fill="#AF6152"/>
<path d="M236.879 57.5892C234.304 56.1222 230.796 54.26 228.059 56.3407C229.482 55.8615 231.019 55.8835 232.428 56.4031C233.736 56.7881 235.561 57.2875 236.879 57.5892Z" fill="#AF6152"/>
<path d="M234.486 63.2483C232.539 61.8457 230.179 61.1768 227.805 61.3549C229.983 62.1567 232.216 62.7896 234.486 63.2483Z" fill="#AF6152"/>
<path d="M232.613 68.7312C230.753 67.5895 228.807 66.6015 226.794 65.7766C228.315 67.4603 230.386 68.5118 232.613 68.7312Z" fill="#AF6152"/>
<path d="M80.2759 75.054C89.0885 76.5401 92.1648 78.3086 99.4171 86.8537C104.871 93.2589 119.004 111.925 119.004 111.925C119.004 111.925 123.656 136.371 118.32 136.758C115.28 136.999 112.264 136.051 109.909 134.112C101.765 127.142 87.6173 110.899 87.6173 110.899L80.2759 75.054Z" fill="#C8856A"/>
<path d="M118.158 110.795C115.112 113.916 111.263 128.346 111.263 128.346C109.938 124.695 109.732 120.732 110.668 116.963C111.722 113.522 113.405 110.308 115.632 107.481L118.158 110.795Z" fill="#AF6152"/>
<path d="M165.756 90.4799C166.693 88.4587 169.724 89.1423 171.136 87.7454C171.342 87.5556 171.494 87.3142 171.576 87.0461C171.658 86.7781 171.667 86.493 171.601 86.2204C171.536 85.9478 171.4 85.6975 171.206 85.4954C171.011 85.2932 170.767 85.1465 170.497 85.0704C169.207 84.8176 167.879 84.8176 166.589 85.0704C165.088 85.065 163.605 84.7461 162.234 84.1341C159.262 82.9452 155.695 82.113 152.946 84.2233C153.649 84.4741 154.322 84.8031 154.952 85.2041C158.564 86.9429 162.175 88.6965 165.756 90.4799Z" fill="#AF6152"/>
<path d="M177.334 89.2465L176.249 89.7667L174.852 90.4503C174.626 90.5544 174.408 90.6736 174.198 90.8069C174.094 90.8069 173.663 91.2676 173.574 91.2379C172.14 90.7541 170.624 90.5621 169.115 90.6732C167.228 90.9853 166.842 91.3568 164.226 89.4992C162.473 88.2508 160.333 85.9771 158.014 84.9071C155.696 83.8371 153.333 83.2277 150.896 85.4866C148.458 87.7455 147.24 89.2762 144.639 91.4311C140.318 94.9905 135.819 98.3286 131.16 101.433C123.729 106.679 117.458 109.889 112.881 117.587C111.038 120.693 107.575 132.062 109.909 134.112C113.223 137.01 121.01 139.091 128.812 131.928C132.383 128.682 135.739 125.207 138.858 121.525C142.024 117.884 143.317 115.997 147.849 110.706C152.382 105.415 154.953 102.711 157.613 101.15C159.887 99.8128 162.933 100.036 165.044 100.125C167.726 100.338 170.424 100.015 172.979 99.1738C175.61 98.4902 177.289 97.6877 179.087 97.1824C180.873 96.4112 182.551 95.4121 184.081 94.2101L187.053 92.4119C187.389 92.2471 187.684 92.0083 187.915 91.7135C188.019 91.5203 187.796 91.0893 187.722 90.8664C187.627 90.6616 187.491 90.4792 187.32 90.3314C187.703 90.2884 188.078 90.1934 188.435 90.049C188.752 89.9373 189.074 89.843 189.401 89.7667C189.639 89.7667 189.906 89.5586 189.906 89.306C189.897 89.155 189.834 89.0124 189.728 88.9047C189.315 88.4281 188.765 88.0908 188.153 87.9387C187.319 87.8272 186.475 87.8272 185.641 87.9387C185.519 87.9684 185.392 87.9684 185.27 87.9387C185.124 87.8688 184.989 87.7788 184.868 87.6712C184.424 87.3991 183.89 87.3136 183.382 87.4335C182.49 87.6663 181.612 87.9491 180.752 88.2805C180.217 88.444 179.667 88.5183 179.132 88.6669C178.517 88.8078 177.915 89.0017 177.334 89.2465Z" fill="#C8856A"/>
<path d="M171.138 92.2038C170.288 92.314 169.424 92.2276 168.612 91.9511C167.921 91.7096 167.266 91.3746 166.665 90.9554C165.96 90.7821 165.291 90.4853 164.689 90.0786C163.336 89.1424 161.865 87.8197 160.334 86.6606C158.972 86.1279 157.484 86.009 156.054 86.3188C155.341 86.5159 154.657 86.8057 154.018 87.1807C153.357 87.6823 152.727 88.2232 152.131 88.8006C152.505 88.0889 153.009 87.4537 153.617 86.9281C154.259 86.4091 154.996 86.0204 155.787 85.7838C157.246 85.4732 158.768 85.7225 160.052 86.4822C157.169 84.3422 154.108 82.8412 150.853 85.4865C153.201 82.8412 156.931 83.7775 159.562 85.4865C162.192 87.1956 164.124 89.8557 167.081 90.5542C167.836 90.5373 168.588 90.4477 169.325 90.2867C170.745 90.2383 172.161 90.455 173.501 90.9257L173.695 90.7771C175.692 89.4942 177.917 88.6063 180.248 88.1615C181.735 87.9238 183.354 86.6754 184.707 87.6265C183.221 86.8835 181.735 88.0426 180.248 88.3845C177.928 88.9197 175.73 89.8877 173.769 91.2378C173.632 91.3395 173.464 91.3919 173.293 91.3864C172.059 90.946 170.755 90.7345 169.444 90.7622C168.669 90.9091 167.884 91.0034 167.096 91.0446L167.423 91.1635L168.597 91.5796C169.428 91.8496 170.277 92.0582 171.138 92.2038ZM176.979 92.9617C177.278 93.0217 177.586 93.0217 177.885 92.9617C178.099 92.8771 178.299 92.7619 178.48 92.6199C179.317 92.0864 180.282 91.7886 181.274 91.7579C181.5 91.7946 181.731 91.7946 181.957 91.7579C182.173 91.6676 182.377 91.5529 182.567 91.4161C183.305 90.9826 184.116 90.6856 184.959 90.5393C185.168 90.4815 185.382 90.4466 185.598 90.4353C185.716 90.4135 185.837 90.4135 185.955 90.4353C185.226 90.4986 184.512 90.6845 183.845 90.9852C183.245 91.3077 182.673 91.6806 182.136 92.0997H182.047H181.913C181.565 92.1079 181.217 92.1377 180.873 92.1889C180.526 92.252 180.183 92.3364 179.847 92.4416C179.176 92.6422 178.543 92.9536 177.975 93.3629L177.796 93.4967H177.663C177.399 93.42 177.131 93.3604 176.86 93.3184C176.585 93.2709 176.307 93.246 176.028 93.2441H175.181L174.319 93.3778C175.136 92.9524 176.071 92.8063 176.979 92.9617ZM184.588 88.1467C184.751 88.1467 184.945 88.1467 185.093 88.0575C184.573 88.2696 184.075 88.5334 183.607 88.8451C183.503 88.9084 183.393 88.9631 183.28 89.0086L182.923 89.1127C182.3 89.2279 181.692 89.4124 181.11 89.6625C180.501 89.968 179.953 90.3808 179.49 90.8811L179.357 91.0297H179.149C178.785 90.9244 178.412 90.8596 178.034 90.8366C177.648 90.8068 177.261 90.8068 176.875 90.8366C176.477 90.8541 176.08 90.8938 175.686 90.9554C175.286 91.0132 174.889 91.0926 174.497 91.1932C175.425 90.7512 176.442 90.5276 177.469 90.5393C177.796 90.5393 178.123 90.5393 178.45 90.6136C178.777 90.6879 179.074 90.7474 179.282 90.6136L179.372 90.5245C179.819 89.9528 180.431 89.5325 181.125 89.3207C181.779 89.1126 182.478 89.1127 183.117 88.86C183.444 88.7411 183.726 88.5628 184.038 88.4142C184.216 88.314 184.399 88.2247 184.588 88.1467Z" fill="#AF6152"/>
<path d="M72.981 342.347L71.0342 322.819L95.243 320.486C95.243 320.486 94.1433 335.897 94.2176 342.956C94.2176 346.285 96.5508 352.571 96.5508 352.571C96.5508 352.571 86.9654 357.431 82.0463 355.365C77.1273 353.299 73.9172 345.467 74.051 344.041L72.981 342.347Z" fill="#C8856A"/>
<path d="M124.028 376.468C124.355 376.468 124.489 379.604 122.542 381.06C117.398 384.288 111.226 385.456 105.258 384.329C97.1292 382.843 92.8343 380.094 89.7283 377.211C86.6224 374.328 82.2978 370.271 78.5825 369.26C75.3096 368.173 72.2806 366.456 69.6658 364.207C68.6255 363.108 69.0565 358.456 69.0565 358.456L124.028 376.468Z" fill="#263238"/>
<path d="M72.8044 340.549C72.8044 340.549 72.3585 340.757 72.0761 341.827C71.7938 342.897 71.2588 346.805 70.59 348.886C69.5201 352.537 69.0189 356.332 69.1039 360.136C69.416 362.543 75.7766 365.783 79.2838 367.328C83.3841 369.37 87.152 372.021 90.4594 375.19C94.1301 378.519 102.021 382.219 107.371 382.487C113.673 382.784 120.91 381.164 122.708 378.385C124.922 374.922 126.631 370.865 117.522 366.08C115.798 365.174 109.794 361.191 107.743 359.764C102.215 355.885 98.3804 352.408 96.1067 345.958C95.9303 345.175 95.4959 344.473 94.8732 343.967C94.3121 343.689 93.6775 343.595 93.0601 343.699C89.9328 343.871 86.823 344.278 83.757 344.918C82.4641 345.438 80.651 346.017 80.5767 347.608C80.5834 348.158 80.6736 348.704 80.8443 349.227C80.9334 349.569 80.9929 350 80.6956 350.179C80.3984 350.357 80.0714 350.179 79.8337 349.881C78.9725 348.903 78.1876 347.859 77.4856 346.761C76.8049 345.768 76.055 344.824 75.2416 343.937C74.724 343.596 74.2277 343.224 73.7554 342.822C73.1827 342.199 72.8462 341.394 72.8044 340.549Z" fill="#455A64"/>
<path d="M90.4878 375.116C88.9321 373.687 87.3052 372.338 85.6134 371.073C85.6134 371.073 96.2242 378.266 100.846 375.532C103.818 373.763 102.6 371.341 102.585 370.598C102.57 369.855 112.988 365.129 115.782 364.951C116.525 365.411 117.149 365.813 117.55 366.006C124.698 369.29 125.456 373.05 123.955 377.642C122.172 380.436 115.648 383.052 107.489 382.606C102.154 382.308 94.1585 378.445 90.4878 375.116Z" fill="#37474F"/>
<path d="M101.93 368.369C107.622 370.984 105.08 371.92 103.416 372.054C101.752 372.188 92.3147 366.021 86.608 361.027C80.6635 355.826 76.2052 349.049 73.976 347.132C73.1586 346.419 72.267 345.557 71.4942 344.739C71.7171 343.491 71.9103 342.347 72.059 341.767C72.3413 340.697 72.7871 340.489 72.7871 340.489C72.9586 341.295 73.2705 342.065 73.7085 342.763C74.1807 343.164 74.677 343.536 75.1946 343.877C76.0081 344.765 76.7579 345.708 77.4387 346.701C78.1406 347.8 78.9256 348.843 79.7867 349.822C84.572 356.45 96.2529 365.812 101.93 368.369Z" fill="#37474F"/>
<path d="M103.079 371.192C102.947 371.184 102.821 371.131 102.722 371.043C102.669 370.991 102.627 370.928 102.598 370.86C102.57 370.791 102.555 370.717 102.555 370.642C102.555 370.568 102.57 370.494 102.598 370.425C102.627 370.356 102.669 370.294 102.722 370.241C104.491 368.354 112.545 364.088 116.796 364.787C116.87 364.798 116.942 364.823 117.006 364.862C117.071 364.901 117.127 364.953 117.171 365.014C117.216 365.075 117.247 365.144 117.264 365.217C117.282 365.291 117.284 365.367 117.271 365.441C117.261 365.515 117.235 365.586 117.196 365.65C117.157 365.714 117.105 365.769 117.044 365.812C116.982 365.855 116.913 365.886 116.84 365.901C116.766 365.916 116.691 365.916 116.617 365.902C112.635 365.263 104.966 369.513 103.569 370.999C103.509 371.068 103.433 371.121 103.347 371.155C103.262 371.188 103.17 371.201 103.079 371.192Z" fill="#263238"/>
<path d="M98.1708 367.833C98.0394 367.822 97.9148 367.77 97.8141 367.685C97.7592 367.633 97.7155 367.571 97.6855 367.502C97.6556 367.433 97.6402 367.359 97.6402 367.284C97.6402 367.208 97.6556 367.134 97.6855 367.065C97.7155 366.996 97.7592 366.934 97.8141 366.882C99.5677 364.995 107.622 360.73 111.888 361.428C112.036 361.454 112.169 361.537 112.258 361.659C112.347 361.781 112.385 361.933 112.363 362.082C112.351 362.157 112.323 362.228 112.283 362.292C112.242 362.356 112.189 362.411 112.127 362.454C112.064 362.497 111.994 362.527 111.919 362.543C111.845 362.558 111.769 362.558 111.694 362.543C107.727 361.904 100.058 366.154 98.6612 367.64C98.5985 367.706 98.5221 367.758 98.4374 367.791C98.3527 367.825 98.2617 367.839 98.1708 367.833Z" fill="#263238"/>
<path d="M93.2665 364.639C93.1351 364.627 93.0106 364.575 92.9099 364.49C92.855 364.439 92.8112 364.376 92.7813 364.307C92.7514 364.238 92.7359 364.164 92.7359 364.089C92.7359 364.013 92.7514 363.939 92.7813 363.87C92.8112 363.801 92.855 363.739 92.9099 363.687C94.6635 361.8 102.718 357.52 106.983 358.233C107.132 358.259 107.265 358.342 107.354 358.464C107.443 358.586 107.48 358.738 107.459 358.887C107.446 358.962 107.419 359.034 107.378 359.097C107.338 359.161 107.285 359.217 107.222 359.26C107.16 359.303 107.089 359.332 107.015 359.348C106.941 359.363 106.864 359.363 106.79 359.348C102.807 358.709 95.1539 362.959 93.7569 364.445C93.6942 364.511 93.6178 364.563 93.5331 364.596C93.4484 364.63 93.3574 364.644 93.2665 364.639Z" fill="#263238"/>
<path d="M88.7638 361.042C88.6263 361.038 88.4946 360.985 88.3923 360.893C88.2887 360.785 88.2309 360.642 88.2309 360.492C88.2309 360.343 88.2887 360.199 88.3923 360.091C90.1459 358.203 98.2304 353.938 102.466 354.637C102.549 354.638 102.632 354.658 102.707 354.694C102.782 354.73 102.849 354.782 102.902 354.847C102.955 354.911 102.994 354.986 103.015 355.067C103.037 355.147 103.041 355.232 103.027 355.314C103.013 355.396 102.981 355.475 102.934 355.544C102.887 355.613 102.825 355.67 102.754 355.713C102.682 355.756 102.602 355.783 102.519 355.792C102.436 355.802 102.352 355.793 102.273 355.766C98.3047 355.127 90.6363 359.363 89.2394 360.864C89.182 360.932 89.1081 360.984 89.0248 361.015C88.9416 361.046 88.8517 361.055 88.7638 361.042Z" fill="#263238"/>
<path d="M84.3354 357.46C84.2076 357.452 84.0868 357.4 83.9936 357.312C83.9406 357.259 83.8985 357.197 83.8698 357.128C83.8411 357.059 83.8263 356.985 83.8263 356.911C83.8263 356.836 83.8411 356.762 83.8698 356.693C83.8985 356.624 83.9406 356.562 83.9936 356.509C86.416 353.834 94.7977 350.372 99.048 351.07C99.1956 351.092 99.3285 351.172 99.4176 351.292C99.5067 351.411 99.5448 351.561 99.5235 351.709C99.4945 351.859 99.4089 351.992 99.2844 352.081C99.1599 352.169 99.006 352.207 98.8548 352.185C95.0355 351.561 86.9658 354.889 84.8556 357.267C84.7919 357.34 84.711 357.396 84.6201 357.43C84.5293 357.464 84.4314 357.474 84.3354 357.46Z" fill="#263238"/>
<path d="M31.5158 353.284L36.6875 329.209L12.9096 325.821L12.7759 349.599C12.7759 349.599 11.0223 356.004 12.3895 358.174C13.7567 360.344 27.9937 362.469 29.2867 360.997C30.5796 359.526 31.5158 353.284 31.5158 353.284Z" fill="#C8856A"/>
<path d="M29.541 391.151C28.9614 396.545 27.8766 400.068 25.5731 403.04C23.2696 406.012 19.1233 406.532 15.0068 405.15C10.8903 403.768 5.64426 400.692 4.60398 395.862C3.69641 391.577 3.87005 387.134 5.10926 382.933L29.541 391.151Z" fill="#263238"/>
<path d="M12.8391 349.465C11.1152 349.465 11.6205 353.641 10.8923 360.908C10.0898 368.77 6.61231 374.967 5.40856 381.283C4.04133 388.505 4.35342 391.819 7.08788 396.575C9.82233 401.331 19.913 406.799 25.2185 401.033C29.5579 396.308 29.9443 390.631 29.8552 383.2C29.6228 376.972 29.7369 370.735 30.197 364.519C30.7468 359.065 32.9909 354.013 31.5196 353.225C31.371 354.027 30.0335 359.556 29.0081 359.482C28.9411 358.795 28.9411 358.103 29.0081 357.416C29.0728 357.1 29.0706 356.774 29.0015 356.459C28.9324 356.144 28.7979 355.848 28.6068 355.588C27.7841 354.955 26.8449 354.491 25.8427 354.221C24.1634 353.745 21.1762 353.151 19.4672 352.839C18.6201 352.675 17.7582 352.541 16.8962 352.452C16.1717 352.348 15.4361 352.348 14.7117 352.452C14.5157 352.482 14.3287 352.554 14.1642 352.665C13.9997 352.775 13.8618 352.921 13.7605 353.091C13.6681 353.358 13.6278 353.641 13.6417 353.923C13.6166 354.429 13.5216 354.93 13.3593 355.41C13.3593 355.618 13.1215 355.87 12.8688 355.796C12.7822 355.753 12.7111 355.684 12.6658 355.599C12.6205 355.514 12.6031 355.416 12.6162 355.32C12.6905 354.518 12.7797 350 12.8391 349.465Z" fill="#455A64"/>
<path d="M5.88324 379.306C5.67518 380.347 4.39709 387.227 6.49251 388.728C8.58793 390.229 10.2673 384.983 10.2673 384.983C10.2673 384.983 15.7956 384.107 23.6423 388.06C23.1965 389.145 24.2814 393.023 26.4957 392.518C28.71 392.013 29.8543 384.032 29.8691 383.928C29.8691 390.987 29.4382 396.516 25.2325 401.108C19.927 406.904 9.82142 401.435 7.10182 396.649C4.38223 391.864 4.05532 388.58 5.42255 381.357C5.54144 380.674 5.70491 379.945 5.88324 379.306Z" fill="#37474F"/>
<path d="M10.8762 385.533C10.7276 388.178 7.81482 387.019 7.82968 383.2C7.84455 379.381 9.7319 370.301 10.4155 364.148C10.8168 355.306 11.114 349.465 12.8379 349.525C12.8379 349.614 12.8379 349.703 12.8379 349.792C12.8379 349.881 12.719 354.83 12.7041 355.41C12.4515 360.804 12.4812 371.296 11.753 376.215C11.268 379.3 10.9751 382.412 10.8762 385.533Z" fill="#37474F"/>
<path d="M22.677 387.881C23.5397 384.886 24.2098 381.838 24.6832 378.757C25.456 373.927 28.2499 364.237 29.632 359.021C30.0927 358.159 31.4896 353.285 31.4896 353.285C32.6785 353.612 31.4896 358.248 31.0141 360.433C30.5385 362.617 29.8103 364.891 29.1564 368.042C27.4325 374.194 27.3582 383.379 26.1842 386.93C25.0102 390.482 22.0528 390.423 22.677 387.881Z" fill="#37474F"/>
<path d="M23.793 388.297C23.7141 388.281 23.6386 388.251 23.57 388.208C19.5402 386.055 14.9677 385.13 10.4179 385.548C10.252 385.57 10.0837 385.533 9.94247 385.443C9.80121 385.353 9.69599 385.217 9.64514 385.058C9.62742 384.985 9.62619 384.908 9.6416 384.835C9.65702 384.761 9.68869 384.692 9.73426 384.632C9.77982 384.572 9.83816 384.524 9.90501 384.489C9.97186 384.455 10.0455 384.436 10.1207 384.433C14.9899 383.955 19.891 384.944 24.1942 387.272C24.2648 387.304 24.3277 387.352 24.3787 387.41C24.4298 387.469 24.4677 387.538 24.4902 387.612C24.5127 387.687 24.5191 387.765 24.5091 387.842C24.499 387.919 24.4727 387.993 24.432 388.06C24.3588 388.155 24.2599 388.229 24.1468 388.271C24.0338 388.313 23.9111 388.322 23.793 388.297Z" fill="#263238"/>
<path d="M25.4563 382.695L25.2334 382.62C20.6687 380.359 15.5906 379.334 10.506 379.648C10.3425 379.665 10.1784 379.623 10.0425 379.531C9.90655 379.438 9.80757 379.301 9.76295 379.143C9.75023 379.068 9.7536 378.991 9.77284 378.918C9.79209 378.844 9.82677 378.776 9.87457 378.717C9.92237 378.658 9.98221 378.609 10.0501 378.575C10.118 378.541 10.1923 378.522 10.2682 378.519C15.6437 378.151 21.0187 379.24 25.8279 381.669C25.8989 381.699 25.9629 381.744 26.0156 381.8C26.0683 381.856 26.1086 381.923 26.1338 381.996C26.159 382.069 26.1687 382.146 26.162 382.223C26.1554 382.3 26.1327 382.375 26.0954 382.442C26.0266 382.544 25.9289 382.622 25.8149 382.667C25.7008 382.712 25.5759 382.722 25.4563 382.695Z" fill="#263238"/>
<path d="M11.1441 374.239C11.0253 374.214 10.9144 374.16 10.8211 374.082C10.7279 374.005 10.6551 373.905 10.6091 373.793C10.5868 373.721 10.5806 373.644 10.591 373.569C10.6014 373.494 10.628 373.422 10.6691 373.358C10.7101 373.295 10.7646 373.241 10.8286 373.2C10.8927 373.16 10.9649 373.134 11.0401 373.124C18.8125 371.638 26.2728 375.948 26.5848 376.097C26.6554 376.129 26.7183 376.176 26.7693 376.235C26.8204 376.294 26.8584 376.362 26.8809 376.437C26.9033 376.511 26.9097 376.59 26.8997 376.667C26.8897 376.744 26.8634 376.818 26.8226 376.884C26.7206 377.009 26.5763 377.091 26.4172 377.116C26.2582 377.14 26.0956 377.106 25.9607 377.018C25.9607 377.018 18.6341 372.827 11.4116 374.194L11.1441 374.239Z" fill="#263238"/>
<path d="M11.7847 369.126C11.6675 369.107 11.5576 369.057 11.4662 368.981C11.3747 368.905 11.3052 368.807 11.2645 368.695C11.2395 368.624 11.2308 368.548 11.2391 368.473C11.2474 368.398 11.2724 368.325 11.3123 368.261C11.3522 368.197 11.4061 368.143 11.4698 368.102C11.5336 368.061 11.6056 368.036 11.6806 368.026C17.1519 367.047 22.7923 368.104 27.5375 370.999C27.6032 371.037 27.6603 371.088 27.7053 371.149C27.7503 371.21 27.7822 371.28 27.7989 371.354C27.8157 371.427 27.8169 371.504 27.8026 371.579C27.7883 371.653 27.7588 371.724 27.7158 371.786C27.6091 371.91 27.4599 371.989 27.2976 372.009C27.1354 372.028 26.9717 371.986 26.839 371.89C22.4072 369.223 17.1666 368.232 12.067 369.096L11.7847 369.126Z" fill="#263238"/>
<path d="M12.5282 363.405C12.4141 363.378 12.3077 363.326 12.2175 363.251C12.1272 363.176 12.0556 363.081 12.0081 362.974C11.9833 362.903 11.9742 362.827 11.9816 362.752C11.9889 362.677 12.0125 362.605 12.0506 362.54C12.0888 362.475 12.1406 362.419 12.2026 362.376C12.2645 362.333 12.3351 362.304 12.4093 362.291C20.4344 360.537 28.0581 365.263 28.3851 365.471C28.4537 365.506 28.514 365.555 28.5619 365.615C28.6097 365.676 28.644 365.746 28.6623 365.82C28.6807 365.895 28.6827 365.973 28.6682 366.049C28.6537 366.124 28.623 366.196 28.5783 366.258C28.4736 366.385 28.324 366.467 28.1607 366.486C27.9974 366.506 27.8329 366.461 27.7015 366.362C27.6272 366.362 20.2709 361.755 12.8403 363.39C12.7388 363.419 12.632 363.424 12.5282 363.405Z" fill="#263238"/>
<path d="M27.2837 141.141C24.1777 155.72 19.7491 163.924 19.0655 200.898C18.3819 237.873 18.4859 248.246 18.3373 252.704C18.1887 257.162 15.6029 265.143 13.3142 287.108C11.9436 302.92 11.5763 318.804 12.2145 334.663C12.2145 334.663 15.3056 338.81 23.7022 339.553C28.0459 340.074 32.4386 339.116 36.1707 336.833C36.1707 336.833 45.9196 294.568 48.8621 281.342C51.8046 268.115 60.3349 224.631 60.3349 224.631L65.4026 259.912C65.4026 259.912 63.0397 272.038 65.4026 291.299C67.7655 310.559 71.5105 330.056 71.5105 330.056C71.5105 330.056 74.78 332.761 83.8304 332.241C87.7085 332.05 91.5155 331.127 95.0507 329.521C95.0507 329.521 100.861 272.202 100.861 250.371C100.861 228.54 98.6768 174.297 95.4519 141.201L27.2837 141.141Z" fill="#455A64"/>
<path d="M89.9674 173.063C86.6831 182.069 74.6901 188.385 69.4293 189.648L63.247 224.096L65.4019 259.852L60.3342 224.631L67.2595 182.589C67.2595 182.589 81.8532 181.534 89.9674 173.063ZM40.019 168.604C39.1571 172.141 38.3843 175.708 37.5521 179.275C36.7199 182.841 35.9173 186.408 35.0257 190.004C34.9899 186.305 35.2383 182.609 35.7687 178.948C36.2472 175.29 36.9118 171.659 37.7601 168.069C38.6139 164.471 39.6707 160.923 40.9256 157.444C42.1375 153.938 43.7271 150.574 45.6663 147.412C44.5517 150.949 43.5708 154.457 42.694 157.979C41.8172 161.501 40.8513 165.186 40.019 168.664V168.604ZM33.8219 161.783C32.633 163.908 31.5036 166.078 30.3593 168.248L27.0006 174.861C27.2576 172.353 27.8267 169.887 28.6948 167.52C29.5432 165.16 30.5716 162.87 31.7711 160.669C32.9866 158.475 34.347 156.365 35.843 154.353C37.3217 152.327 38.9941 150.451 40.8364 148.75C39.7367 151.024 38.5478 153.208 37.3589 155.333C36.17 157.459 34.9662 159.688 33.8219 161.843V161.783ZM39.3057 261.487C41.416 250.177 42.9169 238.734 44.3882 227.306C45.8594 215.878 47.2713 204.39 48.8465 192.947C48.1481 204.479 47.3604 216.012 46.1715 227.514C44.9827 239.017 43.66 250.504 41.5794 261.918C39.4989 273.331 37.1211 284.596 34.7433 295.905C32.3655 307.214 29.9134 318.479 27.3127 329.744C29.0663 318.321 30.9636 306.927 33.0046 295.563C34.9811 284.224 37.136 272.841 39.3057 261.546V261.487ZM91.8547 223.145L89.9674 193.021C91.513 202.929 92.7415 212.92 93.653 222.996C94.5595 233.042 95.4214 243.044 95.4512 253.224C95.1094 263.344 94.3366 273.346 93.5192 283.392C92.7019 293.438 91.6913 303.44 90.547 313.441C90.8244 303.365 91.2257 293.309 91.7508 283.273L92.5235 268.174C92.7762 263.166 93.0883 258.128 93.1923 253.15C93.2963 248.171 92.9693 243.163 92.7464 238.155C92.5235 233.146 92.1371 228.123 91.8547 223.145Z" fill="#37474F"/>
<path d="M21.5272 88.6813C27.1201 88.6813 32.4839 86.4596 36.4387 82.5048C40.3935 78.55 42.6152 73.1862 42.6152 67.5934V14.97H39.1229C34.4562 14.97 29.9807 16.8238 26.6808 20.1236C23.381 23.4234 21.5272 27.8989 21.5272 32.5656V88.6813Z" fill="#D8A85F"/>
<path d="M31.9286 21.5981C31.644 22.4666 31.4546 23.3636 31.3639 24.2731C31.2896 24.8602 31.2896 25.4544 31.3639 26.0415C31.6304 27.3823 32.3508 28.5901 33.4038 29.4618C34.4568 30.3334 35.778 30.8155 37.1449 30.8268C38.5113 30.7739 39.8477 30.4105 41.0528 29.7642C42.2578 29.1179 43.2999 28.2057 44.0999 27.0967C46.3588 24.2136 49.7174 17.4221 45.3334 15.0146C43.8641 14.269 42.217 13.9452 40.5748 14.079C38.9326 14.2128 37.3596 14.799 36.0303 15.7725C34.0817 17.232 32.6458 19.2715 31.9286 21.5981Z" fill="#BA68C8"/>
<path opacity="0.25" d="M31.9286 21.5981C31.644 22.4666 31.4546 23.3636 31.3639 24.2731C31.2896 24.8602 31.2896 25.4544 31.3639 26.0415C31.6304 27.3823 32.3508 28.5901 33.4038 29.4618C34.4568 30.3334 35.778 30.8155 37.1449 30.8268C38.5113 30.7739 39.8477 30.4105 41.0528 29.7642C42.2578 29.1179 43.2999 28.2057 44.0999 27.0967C46.3588 24.2136 49.7174 17.4221 45.3334 15.0146C43.8641 14.269 42.217 13.9452 40.5748 14.079C38.9326 14.2128 37.3596 14.799 36.0303 15.7725C34.0817 17.232 32.6458 19.2715 31.9286 21.5981Z" fill="black"/>
<path d="M21.1856 165.632C23.4594 154.145 26.4911 139.269 26.6545 133.755C27.0261 122.178 24.2619 113.41 23.2811 106.916C21.1708 92.7829 22.7312 80.2847 26.0155 77.5056C26.0155 77.5056 35.601 75.2913 38.7515 74.7266C41.2334 74.2807 43.2099 73.9835 46.4347 73.2405C51.9473 71.8419 57.6708 71.4741 63.317 72.1556C64.8032 72.3042 68.6522 73.3296 73.0065 73.9687L80.3331 75.0981C80.3331 75.0981 83.439 77.0152 88.1352 85.4118C91.7167 91.8169 93.5892 93.0355 95.0605 107.495C97.0816 127.513 97.037 154.041 97.7949 164.711C83.2756 173.568 39.8215 176.526 21.1856 165.632Z" fill="#D7AFDD"/>
<path d="M82.2805 47.3821L84.0044 46.8471C91.7471 42.7008 91.435 32.5952 89.4733 27.3344C85.2825 15.5792 72.5762 11.1803 64.7146 10.7493C49.8535 9.93196 42.5418 13.7216 40.9368 21.5088C38.9305 21.3305 36.1515 22.9949 34.4722 25.239C30.8163 30.2323 28.0967 45.1678 47.4162 63.4916L82.2805 47.3821Z" fill="#D8A85F"/>
<path d="M43.1483 57.9783C41.7463 58.1053 40.3357 57.857 39.0613 57.259C37.7868 56.6609 36.6944 55.7346 35.8961 54.5751C32.9238 50.1167 33.0725 45.9408 34.8558 43.3252C35.6674 42.2007 36.8663 41.4162 38.2216 41.1226C39.577 40.829 40.9931 41.0472 42.1972 41.735C44.679 43.4292 44.5601 44.7073 44.7385 46.7878C44.9168 48.8684 49.3603 48.6306 50.5492 41.3635C51.6489 34.6017 52.0353 27.9885 55.5128 25.0162C60.6696 20.5579 67.1045 22.1332 68.9919 24.9271C71.1468 21.8211 75.4714 21.613 78.7854 23.5747C81.5347 25.1797 83.8977 28.5235 83.6153 36.1175C83.6785 37.9339 83.8472 39.7451 84.1206 41.5419C85.4432 56.403 82.2035 62.0057 78.4585 65.186C76.3036 67.0287 73.1233 68.1582 68.1745 68.2474L68.3528 74.0581C68.3528 74.0581 75.0404 86.7049 74.5797 97.9846C74.5797 97.9846 71.8452 96.0972 59.5848 85.3674C51.3963 78.2192 46.2097 73.9986 46.2097 73.9986L46.6556 55.1101C46.3468 55.8364 45.8663 56.4768 45.2554 56.9764C44.6445 57.476 43.9214 57.8198 43.1483 57.9783Z" fill="#C8856A"/>
<path d="M81.4175 35.5232L76.4985 33.8587C76.5893 33.5315 76.7463 33.2264 76.9597 32.9623C77.1732 32.6982 77.4386 32.4807 77.7395 32.3233C78.0404 32.1659 78.3704 32.0719 78.7091 32.0471C79.0477 32.0224 79.3879 32.0674 79.7085 32.1794C80.3664 32.4132 80.91 32.8898 81.2277 33.5115C81.5455 34.1333 81.6134 34.853 81.4175 35.5232Z" fill="#263238"/>
<path d="M63.9258 34.0219L58.9473 36.4888C58.7689 36.1723 58.6573 35.8226 58.6193 35.4612C58.5813 35.0999 58.6178 34.7346 58.7264 34.3879C58.835 34.0411 59.0135 33.7203 59.2508 33.4453C59.4882 33.1702 59.7794 32.9466 60.1065 32.7884C60.7821 32.4795 61.5488 32.4348 62.2558 32.6631C62.9627 32.8914 63.5585 33.3762 63.9258 34.0219Z" fill="#263238"/>
<path d="M60.865 40.4271C60.865 40.8475 60.9896 41.2583 61.2231 41.6078C61.4566 41.9573 61.7885 42.2297 62.1768 42.3905C62.5651 42.5514 62.9924 42.5935 63.4047 42.5115C63.8169 42.4295 64.1956 42.2271 64.4928 41.9299C64.79 41.6326 64.9924 41.254 65.0744 40.8417C65.1564 40.4295 65.1143 40.0022 64.9534 39.6139C64.7926 39.2256 64.5202 38.8937 64.1708 38.6602C63.8213 38.4266 63.4104 38.302 62.9901 38.302C62.4265 38.302 61.8859 38.5259 61.4874 38.9244C61.0888 39.323 60.865 39.8635 60.865 40.4271Z" fill="#263238"/>
<path d="M76.1716 40.0556C76.1716 40.4759 76.2962 40.8868 76.5297 41.2362C76.7632 41.5857 77.0951 41.8581 77.4835 42.0189C77.8718 42.1798 78.2991 42.2219 78.7113 42.1399C79.1236 42.0579 79.5022 41.8555 79.7994 41.5583C80.0966 41.2611 80.299 40.8824 80.381 40.4702C80.463 40.0579 80.421 39.6306 80.2601 39.2423C80.0993 38.854 79.8269 38.5221 79.4774 38.2886C79.1279 38.0551 78.717 37.9304 78.2967 37.9304C78.0176 37.9304 77.7413 37.9854 77.4835 38.0922C77.2256 38.199 76.9913 38.3555 76.794 38.5529C76.5967 38.7502 76.4402 38.9845 76.3334 39.2423C76.2266 39.5001 76.1716 39.7765 76.1716 40.0556Z" fill="#263238"/>
<path d="M56.7059 25.9077C55.5467 27.3938 54.6997 29.8162 54.878 35.1216C54.7469 38.2532 53.9569 41.3219 52.5596 44.1275C51.2667 46.8174 49.9292 48.4224 47.061 48.9277C45.3196 49.1899 43.5401 49.0059 41.8893 48.3927C40.8787 47.932 38.0254 45.9109 38.3672 42.9683C38.9545 43.6043 39.6682 44.1105 40.4626 44.4545C41.0651 44.7018 41.7013 44.8571 42.35 44.9151C43.3263 44.9101 44.2857 44.6598 45.1401 44.1872C45.9944 43.7146 46.7163 43.0349 47.2393 42.2104C49.1564 39.3571 49.0375 35.508 49.6171 32.2386C50.375 28.0775 51.1032 24.5702 54.8482 22.5045C59.3066 20.0673 68.0301 20.4239 68.9961 24.9566C67.2298 23.477 64.9543 22.748 62.657 22.9258C60.3598 23.1036 58.2235 24.174 56.7059 25.9077Z" fill="#D8A85F"/>
<path d="M68.7405 37.9304L69.2904 50.9339L76.498 48.7345L68.7405 37.9304Z" fill="#AF6152"/>
<path d="M63.8826 54.3817C64.4095 54.127 64.9922 54.0094 65.5767 54.0399C66.1716 54.0619 66.7634 54.1365 67.3452 54.2628C68.3291 54.4667 69.2326 54.952 69.9459 55.6597C70.088 55.781 70.1999 55.9336 70.2729 56.1056C70.3472 56.4771 70.0053 56.4622 69.7527 56.3582L69.2474 56.0907C68.9948 55.9718 68.7124 55.8975 68.4598 55.7786C67.9833 55.5591 67.4852 55.3898 66.9737 55.2733C66.485 55.1624 65.9879 55.0928 65.4876 55.0653H64.685C64.4027 55.0653 64.0312 55.0653 63.8677 54.7978C63.824 54.7365 63.8018 54.6624 63.8045 54.5872C63.8072 54.512 63.8346 54.4397 63.8826 54.3817Z" fill="#AF6152"/>
<path d="M68.1796 68.2621C63.6647 68.4237 59.1863 67.3989 55.1909 65.2898C51.6688 63.4768 50.7326 60.3114 49.0087 56.9973C49.0087 56.9973 49.6031 63.8929 53.8831 67.2664C59.9168 72.022 68.2539 71.2195 68.2539 71.2195L68.1796 68.2621Z" fill="#AF6152"/>
<path d="M25.9724 77.5061C16.8625 78.9922 13.8011 81.8456 10.0263 91.7134C6.38535 101.254 -2.04094 122.729 0.455742 137.144C1.94186 145.942 24.2336 123.843 24.2336 123.843L34.8594 99.352C34.8594 99.352 33.6705 77.5061 25.9724 77.5061Z" fill="#C8856A"/>
<path d="M32.1406 84.4014C33.61 89.2634 34.5028 94.2812 34.8008 99.3517L24.1602 123.843C24.1602 123.843 20.965 127.023 16.9228 130.501L1.86843 122.684C2.07649 118.939 10.6811 108.016 16.0014 102.428C19.9248 98.3114 28.0389 88.7557 32.1406 84.4014Z" fill="#AF6152"/>
<path d="M28.5135 89.5884C30.8027 86.7152 32.4999 83.4169 33.5069 79.8841C34.5323 75.7675 37.7721 71.9779 38.8867 70.4175C40.0012 68.8571 42.3642 66.5685 44.1921 64.3839C46.02 62.1993 46.5402 61.5751 49.1557 61.1441C52.7521 60.5348 55.5757 59.9701 56.9875 60.3862C58.3993 60.8023 58.3399 61.7386 57.1213 62.9869C55.9027 64.2353 53.3317 64.473 52.5292 64.7851C51.7267 65.0972 49.9731 65.7808 49.9731 65.7808L46.6442 70.685C48.9302 71.0707 51.1851 71.622 53.3912 72.3346C54.0622 72.9699 54.5592 73.7665 54.835 74.6484C55.1107 75.5303 55.156 76.4682 54.9664 77.3725C55.5185 77.7325 55.9395 78.2611 56.1671 78.8796C56.3947 79.4981 56.4166 80.1735 56.2296 80.8055C56.2296 80.8055 57.4928 82.455 56.616 83.7777C55.6451 85.1472 54.5179 86.3991 53.2574 87.5078C52.1813 87.9721 51.0258 88.2244 49.8542 88.2509C48.6589 90.0785 47.23 91.7421 45.6039 93.1997C43.6719 94.6858 42.3939 94.5372 40.2687 97.5391L28.5135 89.5884Z" fill="#C8856A"/>
<path d="M49.1874 71.1903C50.5249 70.6107 50.8221 69.7042 52.1596 70.1946C53.4971 70.685 52.9324 72.1117 52.9324 72.1117L49.1874 71.1903Z" fill="#AF6152"/>
<path d="M54.9217 77.5063C54.0904 76.797 53.1714 76.1976 52.1872 75.723C51.2509 75.2771 49.3338 74.5935 49.3338 74.5935C50.6755 74.7126 51.9923 75.0281 53.2423 75.5298C53.887 75.7718 54.5046 76.0807 55.0851 76.4512C55.0923 76.7625 55.0523 77.0732 54.9662 77.3725L54.9217 77.5063Z" fill="#AF6152"/>
<path d="M55.0985 79.3937C55.5475 79.5843 55.9843 79.8027 56.4062 80.0476C56.3672 80.3573 56.2924 80.6615 56.1833 80.9541C55.1454 80.0078 53.9411 79.2621 52.6315 78.7546C53.4747 78.8768 54.302 79.0911 55.0985 79.3937Z" fill="#AF6152"/>
<path d="M49.3493 89.0236C50.1224 87.4538 51.0429 85.9609 52.0985 84.5653C52.4419 84.1814 52.918 83.9418 53.4309 83.8949C53.9438 83.848 54.4555 83.9973 54.8627 84.3127C55.2194 84.8477 53.3766 84.7734 52.8565 85.0111C51.4911 86.1635 50.3086 87.5164 49.3493 89.0236Z" fill="#AF6152"/>
<path d="M45.0997 70.5362C45.0997 70.5362 46.14 69.0501 47.9828 66.7615C49.8256 64.4729 49.7216 64.785 51.5198 64.4283C53.318 64.0716 56.7212 63.4772 57.6426 62.3923C57.4826 62.6018 57.3088 62.8004 57.1224 62.9868C55.9335 64.1905 53.3328 64.4729 52.5303 64.785C51.7278 65.0971 49.9742 65.7807 49.9742 65.7807L46.5562 70.8335L45.0997 70.5362Z" fill="#AF6152"/>
<path d="M28.514 89.5884C22.4804 96.8704 6.22226 114.362 2.46238 121.332C-0.138325 126.147 -0.792221 137.337 1.85307 141.409C4.49836 145.481 12.0924 143.772 18.2003 138.437C23.5058 133.785 27.9196 122.58 31.7686 114.659C35.6176 106.738 40.2246 97.6877 40.2246 97.6877L28.514 89.5884Z" fill="#C8856A"/>
<path d="M32.0963 83.7033C32.5753 82.6623 32.968 81.5837 33.2703 80.4784C33.5387 79.3513 33.9119 78.2518 34.3849 77.1941C35.3901 75.1183 36.6211 73.1597 38.0556 71.3537C39.4116 69.4938 40.9017 67.7355 42.514 66.0928C43.2868 65.2458 44.0001 64.3689 44.758 63.4773C45.455 62.5239 46.416 61.7955 47.5222 61.3819C48.6408 61.0779 49.7775 60.8446 50.9254 60.6834C52.0549 60.4902 53.1991 60.297 54.3435 60.1632C54.9271 60.1184 55.5134 60.1184 56.0971 60.1632C56.7098 60.166 57.3067 60.358 57.8061 60.7131C57.9433 60.8173 58.05 60.9564 58.1153 61.1158C58.1807 61.2752 58.2022 61.4491 58.1777 61.6196C58.131 61.9318 58.0085 62.2277 57.821 62.4816C57.4873 62.9787 57.0516 63.3992 56.5429 63.7151C55.5128 64.2736 54.3984 64.6601 53.2437 64.8594C52.1551 65.1408 51.0953 65.5239 50.0783 66.0037L46.898 70.6552C48.8745 71.0416 50.8362 71.428 52.7682 72.0076C53.0306 72.086 53.2846 72.1905 53.5261 72.3197C53.7558 72.4777 53.9568 72.6737 54.1205 72.8993C54.4244 73.3601 54.6644 73.86 54.8339 74.3854C55.1991 75.3681 55.2865 76.4325 55.0865 77.4616C55.6101 77.8479 56.029 78.3587 56.3051 78.9478C56.4478 79.26 56.5189 79.6002 56.5132 79.9434C56.5145 80.2689 56.454 80.5917 56.3348 80.8946C56.6505 81.2844 56.8623 81.7477 56.9506 82.2414C57.039 82.7351 57.001 83.2431 56.8401 83.7182C56.3185 84.5654 55.7056 85.3528 55.0122 86.0662C54.6704 86.4229 54.3286 86.7796 53.9719 87.1214C53.6409 87.5032 53.2299 87.8077 52.7682 88.0131C51.8283 88.2782 50.8608 88.4328 49.8851 88.4738C49.2795 89.3579 48.6297 90.211 47.9383 91.0299C47.2332 91.9117 46.4192 92.7006 45.5159 93.3779C44.5945 94.0467 43.5394 94.4628 42.6328 95.1316C41.7356 95.8157 40.953 96.6384 40.3145 97.5688C40.9417 96.6303 41.7142 95.7976 42.6031 95.1018C43.5097 94.4182 44.5499 93.9724 45.4565 93.3036C46.3424 92.6158 47.1409 91.8223 47.8343 90.9407C48.5327 90.0788 49.2015 89.1574 49.8256 88.236C50.797 88.1901 51.7597 88.0305 52.6939 87.7604C53.1283 87.5649 53.514 87.2757 53.8233 86.9133C54.1651 86.5715 54.507 86.2149 54.8339 85.8582C55.5119 85.1642 56.11 84.3966 56.6172 83.5696C56.7607 83.1206 56.7882 82.6426 56.6973 82.18C56.6064 81.7175 56.3999 81.2855 56.0971 80.9243C56.2145 80.6365 56.275 80.3286 56.2754 80.0178C56.2664 79.7 56.1958 79.3871 56.0674 79.0964C55.8143 78.5017 55.4031 77.9877 54.8785 77.6102H54.8041V77.5211C55.0046 76.5253 54.9117 75.4928 54.5367 74.5488C54.1948 73.5977 53.7044 72.602 52.6493 72.4088C50.6487 71.8464 48.6198 71.3901 46.571 71.0416H46.3333L46.4671 70.8336L49.7811 65.9294C50.827 65.4213 51.9226 65.0229 53.0505 64.7405C54.1693 64.5434 55.2516 64.1776 56.2606 63.6556C56.7249 63.3571 57.1243 62.9679 57.4346 62.5113C57.7615 62.0803 57.9102 61.5007 57.4346 61.1886C56.4408 60.679 55.3003 60.5318 54.2097 60.7725C53.0803 60.8914 51.9508 61.0846 50.8065 61.2778C49.6756 61.4328 48.5543 61.6511 47.4479 61.9317C46.387 62.3315 45.4671 63.0343 44.8026 63.9528C44.0596 64.8148 43.3164 65.7064 42.5288 66.5535C40.9172 68.1863 39.4271 69.9346 38.0705 71.7847C36.6366 73.5698 35.4055 75.5087 34.3998 77.5657C33.915 78.6062 33.5317 79.6912 33.2555 80.8054C32.9422 81.9201 32.5294 83.0044 32.022 84.0451C30.9808 86.0975 29.7572 88.0522 28.3661 89.8856C29.8009 87.9465 31.0498 85.8766 32.0963 83.7033Z" fill="#AF6152"/>
</svg>
