<svg width="369" height="501" viewBox="0 0 369 501" fill="none" xmlns="http://www.w3.org/2000/svg">
<path d="M118.151 439.117C118.239 439.084 118.319 439.034 118.387 438.968C118.456 438.903 118.51 438.824 118.548 438.736C128.629 413.317 155.913 401.102 167.568 395.904C169.45 395.065 170.936 394.392 171.915 393.871C176.324 391.519 179.11 387.516 179.346 383.144C179.428 381.127 178.989 379.125 178.073 377.339C177.157 375.553 175.797 374.048 174.132 372.976C165.462 366.735 146.6 374.323 131.304 390.248C109.878 412.567 110.473 434.122 110.485 434.338C110.487 434.451 110.517 434.561 110.571 434.658C110.625 434.756 110.702 434.838 110.795 434.898L117.557 439.105C117.632 439.153 117.717 439.183 117.805 439.194C117.925 439.21 118.048 439.183 118.151 439.117ZM132.283 391.151C147.145 375.683 165.202 368.159 173.413 374.031C174.896 374.98 176.108 376.314 176.926 377.899C177.743 379.484 178.138 381.263 178.07 383.055C177.845 385.119 177.105 387.088 175.92 388.771C174.735 390.455 173.146 391.795 171.308 392.663C170.367 393.172 168.831 393.82 167.035 394.659C155.344 399.882 128.121 412.033 117.619 437.49L111.835 433.881C111.86 431.021 112.789 411.461 132.283 391.151Z" fill="#DDB3E3"/>
<path d="M114 436.779H113.914C113.746 436.731 113.604 436.618 113.518 436.463C113.432 436.308 113.41 436.125 113.455 435.953C121.976 405.17 151.254 382.127 166.922 380.386C167.007 380.375 167.094 380.382 167.177 380.407C167.26 380.431 167.337 380.473 167.404 380.528C167.471 380.584 167.526 380.653 167.567 380.731C167.607 380.809 167.632 380.895 167.64 380.983C167.65 381.072 167.643 381.161 167.62 381.247C167.596 381.333 167.556 381.413 167.502 381.483C167.447 381.553 167.38 381.611 167.304 381.654C167.228 381.696 167.144 381.723 167.058 381.733C151.576 383.461 122.781 407.152 114.731 436.27C114.693 436.433 114.597 436.576 114.461 436.67C114.326 436.764 114.162 436.802 114 436.779Z" fill="#DDB3E3"/>
<path d="M111.079 434.936C110.986 434.921 110.898 434.886 110.819 434.834L106.298 431.746C106.209 431.684 106.135 431.601 106.083 431.504C106.031 431.406 106.003 431.297 106.001 431.187C106.001 430.869 105.865 398.942 123.935 361.613C133.137 342.549 150.29 326.598 164.719 323.561C171.654 322.099 177.636 323.497 182.491 327.742C185.241 330.131 186.603 332.826 186.553 335.749C186.405 343.833 175.605 352.564 164.161 361.817C156.161 368.299 147.887 374.984 143.045 381.657C142.995 381.729 142.931 381.79 142.857 381.836C142.783 381.883 142.701 381.913 142.615 381.926C142.53 381.939 142.443 381.935 142.359 381.912C142.275 381.89 142.197 381.851 142.128 381.796C142.058 381.744 141.998 381.677 141.953 381.6C141.907 381.523 141.877 381.438 141.865 381.349C141.852 381.261 141.857 381.17 141.879 381.083C141.9 380.996 141.939 380.915 141.992 380.843C146.946 374.031 155.281 367.282 163.344 360.749C174.49 351.713 185.092 343.159 185.228 335.724C185.228 333.182 184.101 330.919 181.637 328.771C177.104 324.819 171.506 323.51 164.991 324.882C150.922 327.844 134.165 343.553 125.124 362.223C108.206 397.137 107.364 427.234 107.326 430.856L111.55 433.741C111.694 433.842 111.795 433.997 111.829 434.173C111.864 434.348 111.83 434.531 111.735 434.682C111.658 434.78 111.556 434.856 111.441 434.9C111.326 434.945 111.201 434.957 111.079 434.936Z" fill="#DDB3E3"/>
<path d="M115.351 415.96C115.179 415.921 115.029 415.813 114.934 415.661C114.839 415.508 114.806 415.324 114.843 415.147C125.061 366.71 161.906 336.842 171.467 332.711C171.549 332.677 171.636 332.66 171.724 332.66C171.812 332.66 171.899 332.679 171.98 332.713C172.061 332.748 172.134 332.799 172.196 332.863C172.258 332.927 172.307 333.003 172.341 333.086C172.374 333.17 172.391 333.259 172.391 333.349C172.39 333.44 172.373 333.529 172.339 333.612C172.305 333.695 172.255 333.771 172.193 333.834C172.131 333.898 172.057 333.948 171.975 333.982C162.587 338.062 126.237 367.549 116.131 415.465C116.087 415.634 115.982 415.779 115.837 415.871C115.692 415.964 115.518 415.995 115.351 415.96Z" fill="#DDB3E3"/>
<path d="M359.215 432.735C357.555 412.653 359.103 404.201 357.109 372.846C356.874 364.801 356.49 356.184 355.871 348.533C353.79 322.795 349.802 314.026 349.381 309.069C349.381 309.069 349.381 278.184 347.115 221.829C346.037 195.329 338.445 187.386 332.253 173.38L256.394 174.244C252.382 209.336 252.617 274.422 253.261 310.238C253.595 328.477 261.757 419.11 261.93 421.359C262.525 429.316 261.93 432.468 258.871 435.849C252.543 442.941 243.341 449.728 235.34 455.93C236.578 459.056 246.189 458.828 250.945 456.387C257.166 452.985 263.088 449.034 268.643 444.58C275.182 439.496 283.567 435.429 283.579 427.841C283.612 427.383 283.683 426.928 283.79 426.481C283.864 422.046 293.401 363.543 294.07 348.38C294.639 335.34 292.831 313.25 292.831 313.25L299.606 268.322C299.606 268.322 303.903 291.695 309.291 313.911C313.687 331.997 321.416 355.853 326.37 378.121C331.188 403.769 338.036 421.995 339.337 434.844C339.721 437.92 343.473 468.03 344.96 474.918C346.446 481.807 361.184 481.82 362.001 469.936C362.534 462.005 359.524 436.509 359.215 432.735Z" fill="#C8856A"/>
<path d="M221.804 464.077C221.408 464.077 220.789 468.665 223.043 470.622C225.606 472.872 233.124 476.571 243.044 475.249C252.965 473.927 258.34 470.8 262.303 467.407C266.266 464.013 271.84 459.222 276.323 458.205C280.497 457.264 284.992 455.333 286.355 454.011C287.717 452.689 287.494 446.855 287.494 446.855L221.804 464.077Z" fill="#263238"/>
<path d="M283.976 424.321C283.976 424.321 284.719 424.321 284.979 425.706C285.289 427.32 285.623 432.061 286.28 434.603C287.196 438.276 287.815 445.813 287.27 448.813C286.725 451.812 279.926 453.896 275.591 455.587C270.483 457.872 265.739 460.936 261.522 464.674C256.865 468.602 247.056 472.542 240.591 472.643C230.683 472.796 224.317 470.101 222.336 466.441C219.859 461.954 221.803 459.362 233.148 453.985C235.29 452.969 242.833 448.406 245.409 446.754C248.132 445.015 250.713 443.051 253.125 440.882C254.334 439.774 255.488 438.603 256.58 437.374C257.714 436.282 258.683 435.023 259.454 433.637C259.578 433.319 259.664 432.964 259.776 432.646C260.097 431.766 260.345 430.861 260.519 429.939C260.705 428.973 260.816 427.562 261.757 426.99C263.042 426.449 264.447 426.278 265.82 426.494C267.29 426.598 268.751 426.811 270.191 427.13C271.863 427.511 273.796 427.664 274.786 429.265C275.446 430.557 275.77 432.001 275.728 433.459C275.728 434.133 275.728 434.819 275.728 435.493C275.728 435.785 275.604 436.306 276 436.179C276.396 436.052 276.805 435.048 276.941 434.705C277.251 433.955 277.461 433.141 277.796 432.392C278.176 431.523 278.65 430.7 279.208 429.939C279.739 429.251 280.341 428.625 281.004 428.07C281.678 427.691 282.328 427.267 282.948 426.799C283.522 426.096 283.88 425.233 283.976 424.321Z" fill="#37474F"/>
<path d="M231.315 454.926C245.619 455.917 250.128 464.929 250.734 470.508C247.482 471.765 244.061 472.502 240.591 472.694C230.683 472.847 223.908 470.152 221.939 466.492C219.623 462.272 221.184 458.853 231.315 454.926Z" fill="#FAFAFA"/>
<path d="M252.753 455.066C252.913 455.066 253.067 455.008 253.187 454.9C253.258 454.841 253.317 454.768 253.36 454.686C253.404 454.603 253.431 454.513 253.44 454.42C253.449 454.326 253.44 454.232 253.414 454.142C253.387 454.052 253.344 453.969 253.286 453.896C251.615 452.136 249.598 450.761 247.368 449.865C245.138 448.969 242.748 448.571 240.356 448.698C240.265 448.708 240.176 448.736 240.096 448.78C240.015 448.825 239.944 448.886 239.886 448.959C239.828 449.033 239.786 449.117 239.76 449.207C239.734 449.298 239.726 449.393 239.737 449.486C239.746 449.58 239.773 449.671 239.817 449.753C239.861 449.836 239.92 449.909 239.991 449.968C240.063 450.028 240.145 450.072 240.233 450.098C240.321 450.124 240.413 450.132 240.505 450.122C242.661 450.021 244.815 450.38 246.829 451.176C248.843 451.972 250.675 453.189 252.208 454.748C252.268 454.842 252.348 454.92 252.443 454.975C252.538 455.03 252.644 455.061 252.753 455.066Z" fill="#F0F0F0"/>
<path d="M258.895 451.393C259.056 451.395 259.213 451.341 259.341 451.24C259.412 451.181 259.471 451.108 259.514 451.026C259.558 450.943 259.585 450.853 259.594 450.759C259.603 450.666 259.594 450.572 259.568 450.482C259.542 450.392 259.498 450.309 259.44 450.236C257.771 448.473 255.753 447.098 253.523 446.201C251.293 445.305 248.902 444.908 246.51 445.038C246.415 445.041 246.321 445.064 246.234 445.105C246.147 445.147 246.07 445.207 246.007 445.281C245.944 445.355 245.897 445.442 245.868 445.536C245.84 445.629 245.83 445.728 245.84 445.826C245.851 445.923 245.881 446.018 245.928 446.103C245.976 446.188 246.04 446.262 246.117 446.321C246.194 446.379 246.282 446.421 246.375 446.443C246.468 446.465 246.565 446.467 246.659 446.449C248.82 446.353 250.977 446.72 252.992 447.528C255.007 448.335 256.837 449.565 258.363 451.138C258.429 451.218 258.51 451.281 258.602 451.325C258.694 451.369 258.794 451.392 258.895 451.393Z" fill="#F0F0F0"/>
<path d="M264.607 447.211C264.766 447.212 264.92 447.153 265.04 447.046C265.111 446.987 265.17 446.914 265.214 446.831C265.257 446.749 265.284 446.658 265.293 446.565C265.303 446.472 265.294 446.377 265.267 446.288C265.241 446.198 265.197 446.114 265.139 446.042C263.468 444.283 261.45 442.909 259.22 442.013C256.991 441.116 254.601 440.718 252.21 440.844C252.026 440.866 251.859 440.961 251.744 441.108C251.628 441.255 251.573 441.443 251.59 441.632C251.6 441.725 251.627 441.816 251.67 441.899C251.714 441.982 251.774 442.055 251.845 442.114C251.916 442.173 251.998 442.217 252.087 442.243C252.175 442.27 252.267 442.278 252.358 442.267C254.518 442.174 256.673 442.541 258.688 443.346C260.703 444.151 262.532 445.376 264.062 446.944C264.127 447.029 264.21 447.097 264.304 447.143C264.399 447.189 264.502 447.213 264.607 447.211Z" fill="#F0F0F0"/>
<path d="M270.191 443.03C270.35 443.029 270.504 442.971 270.625 442.864C270.766 442.747 270.857 442.578 270.878 442.392C270.899 442.207 270.848 442.02 270.736 441.873C267.987 438.34 261.794 436.014 256.605 436.599C256.514 436.608 256.426 436.636 256.346 436.681C256.266 436.726 256.196 436.787 256.139 436.861C256.082 436.934 256.041 437.019 256.016 437.109C255.992 437.199 255.986 437.294 255.998 437.387C256.007 437.48 256.035 437.571 256.078 437.654C256.122 437.737 256.181 437.81 256.253 437.869C256.324 437.928 256.406 437.972 256.494 437.998C256.583 438.025 256.675 438.033 256.766 438.022C261.435 437.501 267.207 439.623 269.634 442.75C269.701 442.836 269.785 442.906 269.882 442.955C269.978 443.003 270.084 443.029 270.191 443.03Z" fill="#F0F0F0"/>
<path d="M340.39 480.345C340.861 487.221 341.963 491.784 344.403 495.788C346.843 499.791 351.363 501.011 355.921 499.778C360.479 498.546 366.3 495.317 367.538 489.357C368.777 483.396 369.495 479.329 368.381 472.961L340.39 480.345Z" fill="#263238"/>
<path d="M358.967 430.282C360.85 430.409 361.444 439.649 362.683 448.889C363.921 458.79 366.906 462.869 368.045 470.978C369.284 480.256 367.872 484.425 364.751 490.043C361.63 495.661 350.409 501.342 344.749 493.36C340.142 486.853 339.869 479.583 340.167 470.292C340.313 462.448 340.023 454.602 339.3 446.792C338.841 439.839 337.256 432.811 338.891 432.048C339.027 433.065 339.163 434.362 339.3 435.366C339.381 436.62 339.601 437.861 339.956 439.064C340.154 439.585 340.575 440.119 340.736 439.28C340.823 438.703 340.823 438.116 340.736 437.539C340.427 434.997 341.69 434.768 342.371 434.552C345.236 433.944 348.13 433.49 351.041 433.192C352.477 433.078 357.444 432.798 358.1 433.624C358.524 434.452 358.749 435.371 358.757 436.306C358.942 437.704 359.264 438.721 359.301 438.289C359.376 437.285 359.165 434.679 359.128 434.057C359.091 433.434 358.992 432.633 358.979 432.023C358.967 431.413 359.079 430.866 358.967 430.282Z" fill="#37474F"/>
<path d="M368.714 476.354C369.11 481.322 367.933 486.288 365.358 490.513C362.224 496.169 350.099 501.837 344.439 493.856C341.628 489.89 340.823 485.162 340.389 480.345C343.659 474.105 363.388 471.143 368.714 476.354Z" fill="#FAFAFA"/>
<path d="M344.379 470.19H344.614C344.689 470.19 353.358 466.377 361.867 468.271C362.047 468.309 362.235 468.273 362.39 468.171C362.545 468.069 362.655 467.909 362.696 467.725C362.716 467.633 362.718 467.539 362.702 467.447C362.686 467.356 362.652 467.268 362.602 467.19C362.553 467.112 362.488 467.045 362.413 466.992C362.338 466.94 362.253 466.904 362.164 466.886C353.172 464.865 344.329 468.741 343.995 468.907C343.831 468.991 343.706 469.138 343.646 469.316C343.586 469.494 343.595 469.689 343.673 469.86C343.746 469.98 343.852 470.075 343.978 470.133C344.103 470.192 344.243 470.212 344.379 470.19Z" fill="#F0F0F0"/>
<path d="M361.358 461.293C361.491 461.278 361.617 461.224 361.722 461.139C361.827 461.054 361.907 460.94 361.952 460.81C362.007 460.63 361.991 460.435 361.908 460.266C361.825 460.098 361.681 459.969 361.506 459.908C353.022 457.086 343.709 461.573 343.362 461.764C343.28 461.806 343.208 461.866 343.149 461.938C343.09 462.01 343.046 462.094 343.019 462.184C342.992 462.275 342.984 462.369 342.994 462.463C343.004 462.557 343.032 462.647 343.077 462.73C343.166 462.894 343.314 463.017 343.49 463.072C343.666 463.126 343.855 463.108 344.019 463.022C344.093 463.022 353.183 458.624 361.073 461.255C361.163 461.292 361.261 461.305 361.358 461.293Z" fill="#F0F0F0"/>
<path d="M360.988 454.748C361.142 454.729 361.285 454.657 361.395 454.544C361.504 454.432 361.574 454.285 361.593 454.126C361.611 453.968 361.578 453.808 361.497 453.672C361.416 453.536 361.294 453.431 361.149 453.375C351.823 450.084 342.98 454.977 342.658 455.18C342.575 455.227 342.502 455.29 342.444 455.366C342.386 455.442 342.344 455.53 342.32 455.623C342.296 455.717 342.291 455.815 342.305 455.91C342.319 456.006 342.352 456.098 342.401 456.18C342.451 456.262 342.517 456.333 342.594 456.388C342.671 456.444 342.759 456.482 342.851 456.502C342.944 456.521 343.039 456.521 343.131 456.501C343.224 456.482 343.311 456.443 343.388 456.388C343.463 456.388 352.058 451.66 360.727 454.723C360.812 454.746 360.9 454.754 360.988 454.748Z" fill="#F0F0F0"/>
<path d="M360.454 448.393C360.584 448.379 360.708 448.327 360.811 448.244C360.914 448.161 360.992 448.05 361.036 447.923C361.096 447.744 361.085 447.548 361.007 447.377C360.928 447.206 360.787 447.074 360.615 447.008C351.871 443.792 342.359 448.8 342.037 449.028C341.88 449.124 341.767 449.279 341.72 449.459C341.674 449.64 341.699 449.832 341.789 449.994C341.885 450.159 342.04 450.279 342.221 450.327C342.402 450.374 342.594 450.346 342.755 450.249C342.83 450.249 352.057 445.355 360.181 448.355C360.268 448.387 360.361 448.4 360.454 448.393Z" fill="#EBEBEB"/>
<path d="M340.193 173.558C348.862 189.229 349.234 202.078 350.633 248.939C352.033 295.8 350.893 299.778 351.129 305.409C351.364 311.039 354.72 321.118 357.866 348.927C359.742 366.879 359.966 384.973 358.535 402.969C358.535 402.969 356.628 407.468 346.15 408.548C336.539 409.539 331.734 405.904 331.734 405.904C331.734 405.904 317.441 358.878 313.602 342.089C309.763 325.299 299.681 279.532 299.681 279.532L294.727 313.962C294.727 313.962 297.836 329.303 295.185 353.756C293.689 367.963 291.373 382.066 288.25 395.991C283.281 397.905 278.026 398.924 272.719 399.003C267.99 399.059 263.337 397.78 259.269 395.305C259.269 395.305 250.884 330.04 250.599 302.358C250.314 274.676 252.395 208.052 254.624 174.803L340.193 173.558Z" fill="#2E4C5B"/>
<path d="M310.754 313.81C310.754 313.81 314.829 307.658 324.972 306.285C335.116 304.913 340.478 310.492 340.478 310.492C340.478 310.492 321.591 308.675 310.754 313.81ZM341.717 314.572C328.638 317.368 322.656 316.898 316.65 315.754C316.6 315.754 335.438 313.098 341.63 314.572H341.717Z" fill="#C8856A"/>
<path d="M250.86 309.577L250.736 306.578C259.479 305.307 273.45 308.014 277.215 310.175C268.472 309.055 259.642 308.855 250.86 309.577ZM271.035 313.67C265.189 315.348 251.219 316.212 251.219 316.212L251.045 313.403C251.045 313.403 261.04 313.047 271.035 313.67Z" fill="#C8856A"/>
<path d="M356.751 404.989C356.304 405.343 355.832 405.662 355.339 405.942C357.494 362.157 351.4 344.084 347.648 327.371C347.288 325.769 346.942 324.244 346.632 322.795C343.796 309.73 344.787 301.913 344.576 280.396C344.576 273.914 344.452 267.216 344.316 260.06C344.143 251.735 343.796 243.131 343.078 234.641C328.116 232.988 324.698 217.965 320.388 198.99C319.806 196.448 319.15 193.715 318.53 190.957L319.856 190.627C320.524 193.385 321.094 196.079 321.713 198.672C326.036 217.737 329.144 231.501 342.941 233.204C341.096 213.86 336.972 195.151 327.51 181.705L328.612 180.891C342.681 200.896 345.146 232.137 345.716 260.06C345.852 267.178 345.914 273.876 345.976 280.396C346.186 301.837 345.195 309.628 347.994 322.503C348.316 323.952 348.651 325.477 349.01 327.079C352.713 343.716 358.782 361.649 356.751 404.989ZM290.516 230.701L299.742 279.531L294.788 313.962L294.293 280.917L288.1 247.986C287.915 251.265 287.729 254.633 287.543 258.065C285.97 286.382 285.066 308.116 286.552 314.852C290.738 333.306 289.698 344.987 287.791 366.212C287.593 368.36 287.394 370.609 287.196 372.973C286.168 384.959 284.831 389.814 284.051 397.529C283.617 397.643 283.146 397.77 282.639 397.885C283.419 390.182 284.794 385.086 285.834 372.846C286.045 370.482 286.243 368.233 286.428 366.085C288.299 345.012 289.327 333.408 285.19 315.169C283.617 308.23 284.496 287.78 286.144 257.976C286.441 252.574 286.738 247.338 286.998 242.343L285.685 236.407C279.134 234.882 268.594 229.9 266.575 220.711C276.805 231.311 290.516 230.701 290.516 230.701Z" fill="#263238"/>
<path d="M274.984 82.7848C261.658 85.403 255.255 89.7879 248.319 101.849C241.384 113.911 230.98 144.325 231.117 151.163H258.834L274.984 82.7848Z" fill="#C8856A"/>
<path d="M257.201 140.322C251.293 138.695 246.934 137.538 243.837 137.614C246.314 135.924 257.461 137.881 257.461 137.881L257.201 140.322Z" fill="#AF6152"/>
<path d="M275.641 81.9077C266.203 82.6703 259.342 85.3648 253.05 93.2702C246.759 101.176 246.214 104.239 242.882 112.881C239.551 121.524 237.284 127.281 237.284 127.281C237.284 127.281 243.625 138.936 264.222 137.182L271.554 114.635L275.641 81.9077Z" fill="#F9FAF9"/>
<path d="M324.773 79.2642C324.773 79.2642 336.712 82.4924 348.626 86.89C348.626 86.89 361.693 92.3171 354.559 131.73C352.751 141.669 349.085 156.133 348.081 168.423C347.512 175.401 347.958 192.228 348.862 206.552C348.862 206.552 327.683 220.889 288.794 216.44C258.265 212.932 253.311 199.155 253.311 199.155C253.311 199.155 254.55 163.873 257.089 140.563C260.742 107.098 267.269 88.377 275.666 81.8188L293.005 79.9124L324.773 79.2642Z" fill="#F9FAF9"/>
<path d="M338.446 53.9082C335.549 59.5959 331.838 64.8055 327.435 69.3633C326.123 70.8545 324.298 71.7656 322.345 71.9052L325.305 60.0343L327.572 51.8492C327.572 51.8492 322.457 44.2234 323.237 38.1354C323.509 35.8541 324.097 33.6244 324.983 31.5137L285.735 25.1588C285.735 25.1588 284.422 14.2538 291.284 7.50497C297.848 1.03571 306.146 -2.14173 318.964 1.59494C334.606 6.17044 341.034 16.0968 340.663 23.0744C343.058 24.791 344.731 27.375 345.344 30.3062C346.124 33.6362 345.988 39.3174 338.446 53.9082Z" fill="#263238"/>
<path d="M334.57 64.8893C334.169 65.071 333.755 65.2197 333.331 65.3341C332.21 65.6906 331.026 65.7904 329.863 65.6264C328.888 65.3441 327.995 64.8204 327.262 64.1013C326.402 63.3922 325.673 62.5314 325.107 61.5593L324.686 84.0428C314.109 97.2864 278.267 93.6514 293.043 80.4079L292.609 72.2863C290.885 71.8419 289.195 71.264 287.556 70.5578C284.94 69.5646 282.667 67.801 281.024 65.488C279.38 63.175 278.439 60.4157 278.317 57.5557C277.945 48.2395 283.902 29.5054 287.593 19.4265C288.161 17.9078 289.048 16.5362 290.191 15.4093C291.334 14.2824 292.705 13.4278 294.207 12.9064C301.279 11.1398 306.096 17.1896 314.134 22.82C317.453 25.1586 326.185 27.9039 328.773 27.2811C326.722 29.0817 325.332 31.5484 324.835 34.2715C324.435 36.2627 324.38 38.3107 324.674 40.3213C325.108 42.1004 325.377 43.9175 325.479 45.7484C325.363 46.5871 325.496 47.4423 325.863 48.2014C326.217 48.5971 326.69 48.8597 327.206 48.9472C327.722 49.0348 328.252 48.9422 328.711 48.6843C329.615 48.1523 330.447 47.503 331.188 46.7525C332.235 45.8122 333.526 45.2069 334.904 45.0112C336.215 44.9687 337.509 45.3345 338.614 46.0604C339.719 46.7863 340.585 47.8384 341.096 49.0783C342.074 51.6131 342.101 54.4301 341.171 56.9838C340.666 58.6999 339.818 60.2891 338.682 61.6503C337.545 63.0114 336.145 64.1145 334.57 64.8893Z" fill="#C8856A"/>
<path d="M292.594 72.261C299.53 73.837 305.884 74.3835 310.367 73.5319C314.85 72.6804 319.755 67.7998 322.207 62.3855C321.191 66.9737 317.451 74.6377 310.491 76.5696C303.53 78.5014 297.363 77.0652 292.805 76.112L292.594 72.261Z" fill="#AF6152"/>
<path d="M310.665 29.3021L315.087 34.2208C315.723 33.5845 316.096 32.721 316.129 31.8098C316.161 30.8986 315.85 30.0096 315.26 29.3275C314.967 29.0047 314.612 28.7468 314.218 28.5697C313.824 28.3926 313.398 28.3 312.968 28.2977C312.538 28.2953 312.112 28.3831 311.716 28.5559C311.32 28.7286 310.962 28.9825 310.665 29.3021Z" fill="#263238"/>
<path d="M287.566 27.7007L294.13 27.9931C294.176 27.5554 294.134 27.1128 294.007 26.6924C293.88 26.2721 293.67 25.8831 293.39 25.5494C293.11 25.2158 292.767 24.9447 292.38 24.7529C291.994 24.5611 291.574 24.4527 291.145 24.4343C290.256 24.4081 289.389 24.7316 288.724 25.3387C288.059 25.9458 287.645 26.7907 287.566 27.7007Z" fill="#263238"/>
<path d="M311.421 39.4826C311.262 39.9934 310.958 40.4443 310.549 40.7785C310.14 41.1128 309.644 41.3156 309.124 41.3613C308.603 41.407 308.08 41.2936 307.622 41.0355C307.164 40.7773 306.79 40.3858 306.548 39.9103C306.306 39.4348 306.207 38.8965 306.262 38.3631C306.318 37.8297 306.525 37.325 306.86 36.9125C307.194 36.5 307.639 36.1981 308.14 36.0448C308.641 35.8915 309.175 35.8937 309.675 36.051C310.01 36.1581 310.32 36.3319 310.589 36.5625C310.858 36.7931 311.08 37.0759 311.242 37.3947C311.405 37.7135 311.504 38.0621 311.535 38.4204C311.565 38.7787 311.527 39.1396 311.421 39.4826Z" fill="#263238"/>
<path d="M292.498 33.5852C292.336 34.0946 292.031 34.5436 291.622 34.8759C291.212 35.2082 290.716 35.409 290.196 35.453C289.676 35.4971 289.154 35.3825 288.697 35.1236C288.24 34.8647 287.868 34.473 287.627 33.9977C287.386 33.5225 287.287 32.9847 287.343 32.452C287.398 31.9194 287.606 31.4154 287.94 31.0034C288.274 30.5915 288.719 30.2899 289.219 30.1364C289.719 29.983 290.252 29.9845 290.752 30.1409C291.087 30.2479 291.399 30.4222 291.669 30.6536C291.939 30.8851 292.162 31.1692 292.324 31.4895C292.487 31.8097 292.586 32.1598 292.615 32.5195C292.645 32.8793 292.605 33.2415 292.498 33.5852Z" fill="#263238"/>
<path d="M301.488 32.9752L295.692 49.4979L287.134 43.6514C291.079 39.0335 295.984 35.3848 301.488 32.9752Z" fill="#AF6152"/>
<path d="M295.654 56.5009L295.728 56.4246C295.841 56.3578 295.97 56.3269 296.1 56.3356C297.131 56.4103 298.165 56.4103 299.196 56.3356C300.09 56.2234 300.962 55.9749 301.785 55.5985C302.487 55.1186 303.224 54.6938 303.989 54.3275C304.038 54.3141 304.088 54.3121 304.138 54.3216C304.187 54.3311 304.234 54.3518 304.274 54.3824C304.315 54.4129 304.348 54.4524 304.371 54.4979C304.395 54.5434 304.408 54.5937 304.41 54.6452C304.336 55.4459 303.172 56.056 302.528 56.3992C301.753 56.8088 300.915 57.0755 300.051 57.1872C299.13 57.3079 298.197 57.3079 297.276 57.1872C296.809 57.1344 296.346 57.0495 295.889 56.933C295.679 56.7932 295.555 56.6407 295.654 56.5009Z" fill="#AF6152"/>
<path d="M329.863 177.676C328.513 177.676 327.176 177.676 325.838 177.752C322.38 177.835 318.92 177.733 315.472 177.447C313.317 177.256 311.174 176.977 309.044 176.583C307.104 176.308 305.187 175.883 303.31 175.312C299.594 173.952 295.965 172.401 292.361 170.851C288.757 169.3 284.063 169.059 280.298 168.728C271.443 167.978 263.541 168.004 254.748 166.631C249.606 165.846 244.6 164.305 239.886 162.055C236.85 160.522 234.258 158.2 232.368 155.319C230.015 151.506 231.266 148.964 234.548 146.664C237.359 144.669 245.546 140.487 257.237 140.309C262.823 141.809 269.362 144.058 275.555 146.13C281.363 148.087 285.772 149.689 291.655 151.214C294.218 151.767 296.856 151.845 299.445 151.443C301.923 151.087 304.04 150.299 306.418 149.905C309.438 149.175 312.512 148.703 315.608 148.494C320.884 148.494 326.284 150.235 329.863 150.731C333.442 151.227 333.207 153.273 330.507 154.785C329.096 155.377 327.564 155.599 326.049 155.434C324.352 155.434 322.655 155.307 320.958 155.434C320.562 155.434 319.782 155.434 319.571 155.828C319.361 156.222 319.906 156.768 320.277 156.946C322.395 157.95 324.748 157.671 327.015 157.658H334.446C335.436 157.658 336.44 157.658 337.43 157.658C338.83 157.747 340.267 157.963 341.047 159.297C341.303 159.691 341.429 160.159 341.406 160.632C341.406 161.026 341.183 161.356 341.617 161.649C341.972 161.83 342.36 161.934 342.756 161.954C343.174 162.046 343.565 162.239 343.895 162.518C344.225 162.797 344.486 163.153 344.654 163.556C344.823 163.959 344.895 164.398 344.864 164.836C344.833 165.274 344.701 165.697 344.477 166.072C344.107 166.605 343.619 167.04 343.053 167.343C342.765 167.477 342.504 167.667 342.285 167.902C342.133 168.123 342.016 168.367 341.939 168.626C341.667 169.289 341.242 169.873 340.7 170.329C339.689 171.092 338.503 171.573 337.257 171.728C336.217 171.918 335.164 172.045 334.111 172.16C332.687 172.325 331.263 172.554 329.826 172.744L327.981 172.96L327.052 173.062C326.753 173.063 326.457 173.11 326.172 173.202C326.346 173.38 327.064 173.304 327.324 173.316L328.649 173.405C329.492 173.469 330.334 173.558 331.126 173.698C331.704 173.783 332.264 173.963 332.786 174.231C333.241 174.432 333.614 174.79 333.84 175.242C334.066 175.694 334.131 176.213 334.024 176.71C333.931 176.893 333.795 177.051 333.629 177.168C333.463 177.285 333.271 177.359 333.071 177.383C332.703 177.463 332.331 177.518 331.956 177.549C331.362 177.676 330.606 177.676 329.863 177.676Z" fill="#C8856A"/>
<path d="M306.257 164.14C303.982 160.059 302.222 155.699 301.018 151.163C302.851 150.769 304.572 150.223 306.43 149.892C309.45 149.162 312.524 148.69 315.62 148.481C320.896 148.481 326.296 150.223 329.875 150.718C333.454 151.214 333.219 153.26 330.519 154.773C329.108 155.364 327.576 155.587 326.06 155.421C324.364 155.421 322.667 155.294 320.97 155.421C320.574 155.421 319.793 155.421 319.583 155.815C319.372 156.209 319.917 156.755 320.289 156.933C322.407 157.937 324.76 157.658 327.026 157.645H334.457C335.448 157.645 336.451 157.645 337.442 157.645C338.842 157.734 340.278 157.95 341.059 159.285C341.315 159.678 341.441 160.146 341.418 160.619C341.418 160.95 341.269 161.242 341.492 161.496C340.952 161.845 340.492 162.309 340.142 162.856L337.764 167.038C339.756 167.26 341.768 167.209 343.746 166.885C343.532 167.065 343.304 167.226 343.065 167.368C342.795 167.5 342.549 167.676 342.334 167.889C340.826 168.212 339.341 168.636 337.888 169.16C336.579 169.932 335.417 170.939 334.457 172.134H334.135C332.711 172.299 331.287 172.528 329.85 172.719L328.005 172.935L327.076 173.037C326.778 173.038 326.481 173.085 326.197 173.176C326.37 173.354 327.088 173.278 327.348 173.291L328.674 173.38C329.516 173.443 330.358 173.532 331.151 173.672C331.573 173.747 331.987 173.862 332.389 174.015C328.203 177.332 322.357 178.908 317.453 176.621C316.829 176.333 316.224 176.002 315.644 175.629C311.483 172.935 308.672 168.486 306.257 164.14Z" fill="#AF6152"/>
<path d="M322.42 176.24C327.374 175.795 331.795 175.388 338.929 163.631C344.465 154.531 347.375 148.545 352.825 135.81C358.274 123.075 362.324 114.203 361.816 106.094C361.408 99.4727 359.76 92.2917 348.441 87.8052C341.629 92.2536 332.241 104.811 327.894 116.161C323.547 127.51 315.856 148.71 315.856 148.71L322.42 176.24Z" fill="#C8856A"/>
<path d="M348.626 87.2966C360.417 92.2407 364.727 101.404 361.445 115.004C357.791 130.256 347.821 150.591 347.821 150.591C347.821 150.591 341.158 150.909 332.773 145.342C327.665 141.868 323.657 136.938 321.243 131.158C321.243 131.158 325.441 119.058 327.72 112.614C332.216 99.8666 340.118 89.3683 348.626 87.2966Z" fill="#F9FAF9"/>
<path d="M334.371 151.201C334.024 137.5 327.943 129.162 323.299 118.906C318.654 108.649 316.103 102.472 314.394 96.257C312.685 90.0419 311.806 81.0053 312.635 76.4044C313.331 72.8931 314.305 69.4458 315.546 66.0968C316.388 63.809 315.484 63.5548 313.366 63.6565C311.248 63.7582 308.969 64.7877 307 68.7404C305.031 72.6931 304.523 75.0953 303.594 74.9046C302.665 74.714 298.058 69.198 295.371 66.6052C292.683 64.0124 291.655 63.9361 287.494 63.415C284.178 62.9092 280.802 62.9865 277.511 63.6438C275.802 64.1903 273.288 66.6687 272.26 67.4567C270.824 68.6006 273.251 70.6977 275.976 69.7064L278.651 68.7277C277.598 69.5665 277.672 70.7231 277.511 72.1593C277.457 73.1276 277.752 74.0824 278.341 74.8411C278.341 74.8411 277.35 75.1461 276.979 76.9636C276.756 78.0547 276.799 79.1852 277.103 80.2554C276.795 80.2165 276.484 80.2748 276.209 80.4224C275.935 80.57 275.711 80.7999 275.567 81.0816C274.96 82.0983 274.155 83.7379 277.722 87.0679C281.289 90.3978 283.915 92.6347 286.986 95.2402C289.038 96.845 290.828 98.7757 292.287 100.96C294.157 103.756 294.764 108.471 295.916 116.059C298.566 132.886 299.074 137.068 301.885 147.35C304.015 155.167 306.517 163.263 314.803 172.02C322.11 179.747 326.965 175.299 329.826 169.757C332.601 163.971 334.15 157.647 334.371 151.201Z" fill="#C8856A"/>
<path d="M334.37 151.201C334.68 138.491 327.559 127.599 322.704 116.466C320.156 110.892 317.882 105.191 315.892 99.3836C313.471 92.1472 312.535 84.4749 313.143 76.8493C313.852 73.09 314.884 69.4025 316.226 65.8299C317.465 62.1441 312.313 62.8558 310.455 63.9362C306.938 66.0079 305.934 70.291 304.262 73.7227C304.126 74.015 303.817 74.5742 303.693 74.498C300.089 71.5874 297.352 67.4186 293.487 64.686C292.13 63.9151 290.616 63.4799 289.066 63.4151C286.066 62.9939 283.03 62.9087 280.013 63.1609C276.792 63.1609 274.501 65.563 272.272 67.5966C274.576 65.6901 276.879 63.3897 280.037 63.4913C283.027 63.3302 286.025 63.5006 288.979 63.9997C290.438 64.0966 291.856 64.5311 293.128 65.2707C296.98 68.0922 299.531 72.3754 303.321 75.3622C304.845 76.0231 305.538 73.0236 306.095 72.0577C307.334 69.4268 308.411 66.3383 310.975 64.8894C312.208 64.2575 313.607 64.0524 314.963 64.3048C315.57 64.4573 315.285 64.9911 315.186 65.4995C313.39 70.5834 311.545 75.9215 311.743 81.3993C311.743 93.9693 316.697 105.738 321.886 116.872C327.076 128.006 334.16 138.479 334.383 151.189L334.37 151.201Z" fill="#AF6152"/>
<path d="M289.375 70.3546C286.229 68.5626 281.944 66.2875 278.6 68.8295C280.338 68.2441 282.217 68.2709 283.938 68.9057C285.536 69.376 287.765 69.9861 289.375 70.3546Z" fill="#AF6152"/>
<path d="M286.453 77.2688C284.074 75.5552 281.19 74.7381 278.291 74.9556C280.952 75.9351 283.68 76.7083 286.453 77.2688Z" fill="#AF6152"/>
<path d="M284.162 83.9667C281.89 82.5719 279.512 81.3649 277.053 80.3572C278.911 82.4141 281.441 83.6987 284.162 83.9667Z" fill="#AF6152"/>
<path d="M98.0678 91.6915C108.834 93.5071 112.592 95.6676 121.452 106.107C128.115 113.932 145.381 136.735 145.381 136.735C145.381 136.735 151.063 166.6 144.545 167.073C140.831 167.368 137.147 166.209 134.27 163.841C124.32 155.326 107.037 135.482 107.037 135.482L98.0678 91.6915Z" fill="#C8856A"/>
<path d="M144.346 135.355C140.624 139.168 135.922 156.797 135.922 156.797C134.304 152.336 134.051 147.495 135.195 142.89C136.483 138.687 138.539 134.759 141.259 131.307L144.346 135.355Z" fill="#AF6152"/>
<path d="M202.498 110.537C203.642 108.068 207.346 108.903 209.07 107.196C209.322 106.964 209.508 106.669 209.608 106.342C209.708 106.014 209.718 105.666 209.639 105.333C209.559 105 209.392 104.694 209.155 104.447C208.918 104.2 208.619 104.021 208.29 103.928C206.713 103.619 205.091 103.619 203.515 103.928C201.681 103.922 199.869 103.532 198.195 102.784C194.564 101.332 190.207 100.315 186.848 102.893C187.708 103.2 188.53 103.602 189.299 104.092C193.711 106.216 198.123 108.358 202.498 110.537Z" fill="#AF6152"/>
<path d="M216.641 109.03L215.315 109.665L213.609 110.5C213.333 110.628 213.066 110.773 212.81 110.936C212.683 110.936 212.156 111.499 212.047 111.463C210.296 110.872 208.444 110.637 206.601 110.773C204.295 111.154 203.823 111.608 200.628 109.339C198.485 107.813 195.871 105.036 193.039 103.729C190.206 102.421 187.32 101.677 184.342 104.437C181.365 107.196 179.876 109.066 176.699 111.699C171.42 116.047 165.924 120.125 160.232 123.917C151.154 130.326 143.493 134.248 137.901 143.652C135.65 147.447 131.419 161.335 134.27 163.841C138.318 167.381 147.832 169.923 157.363 161.172C161.726 157.206 165.825 152.961 169.636 148.463C173.503 144.015 175.083 141.71 180.62 135.246C186.158 128.783 189.299 125.479 192.548 123.572C195.326 121.938 199.048 122.211 201.626 122.32C204.903 122.581 208.199 122.186 211.321 121.158C214.535 120.323 216.586 119.342 218.783 118.725C220.964 117.783 223.015 116.562 224.883 115.094L228.514 112.897C228.925 112.696 229.285 112.404 229.567 112.044C229.694 111.808 229.422 111.281 229.331 111.009C229.216 110.759 229.049 110.536 228.841 110.355C229.308 110.303 229.767 110.187 230.203 110.01C230.589 109.874 230.983 109.759 231.383 109.665C231.673 109.665 232 109.411 232 109.103C231.989 108.918 231.912 108.744 231.782 108.612C231.278 108.03 230.605 107.618 229.858 107.432C228.839 107.296 227.808 107.296 226.789 107.432C226.64 107.468 226.485 107.468 226.336 107.432C226.158 107.347 225.993 107.237 225.845 107.105C225.302 106.773 224.65 106.669 224.03 106.815C222.94 107.099 221.867 107.445 220.816 107.85C220.163 108.05 219.491 108.14 218.837 108.322C218.086 108.494 217.351 108.731 216.641 109.03Z" fill="#C8856A"/>
<path d="M209.071 112.643C208.032 112.777 206.976 112.672 205.985 112.334C205.14 112.039 204.34 111.63 203.606 111.118C202.744 110.906 201.927 110.543 201.192 110.047C199.539 108.903 197.742 107.287 195.872 105.871C194.208 105.22 192.389 105.075 190.643 105.453C189.772 105.694 188.936 106.048 188.156 106.506C187.348 107.119 186.578 107.78 185.85 108.485C186.307 107.616 186.923 106.84 187.666 106.198C188.45 105.564 189.35 105.089 190.317 104.8C192.099 104.42 193.959 104.725 195.527 105.653C192.005 103.039 188.265 101.205 184.289 104.437C187.158 101.205 191.714 102.349 194.928 104.437C198.141 106.524 200.502 109.774 204.115 110.628C205.037 110.607 205.955 110.497 206.856 110.301C208.59 110.242 210.32 110.506 211.958 111.081L212.194 110.9C214.634 109.333 217.352 108.248 220.2 107.705C222.016 107.414 223.995 105.889 225.647 107.051C223.831 106.143 222.016 107.559 220.2 107.977C217.366 108.631 214.68 109.813 212.284 111.463C212.117 111.587 211.912 111.651 211.704 111.644C210.196 111.106 208.602 110.848 207.001 110.882C206.054 111.061 205.096 111.176 204.133 111.227L204.532 111.372L205.966 111.88C206.981 112.21 208.019 112.465 209.071 112.643ZM216.206 113.569C216.572 113.642 216.948 113.642 217.314 113.569C217.575 113.465 217.819 113.325 218.04 113.151C219.062 112.499 220.241 112.136 221.453 112.098C221.73 112.143 222.011 112.143 222.288 112.098C222.551 111.988 222.801 111.848 223.032 111.681C223.935 111.151 224.925 110.788 225.955 110.609C226.21 110.539 226.472 110.496 226.736 110.482C226.88 110.456 227.028 110.456 227.172 110.482C226.281 110.56 225.409 110.787 224.594 111.154C223.861 111.548 223.162 112.004 222.506 112.516H222.397H222.234C221.808 112.526 221.384 112.562 220.963 112.625C220.539 112.702 220.121 112.805 219.71 112.933C218.89 113.178 218.117 113.559 217.422 114.059L217.205 114.222H217.041C216.719 114.129 216.392 114.056 216.061 114.004C215.725 113.946 215.385 113.916 215.044 113.914H214.009L212.956 114.077C213.955 113.557 215.096 113.379 216.206 113.569ZM225.502 107.686C225.701 107.686 225.937 107.686 226.119 107.577C225.483 107.836 224.875 108.159 224.303 108.54C224.176 108.617 224.042 108.684 223.904 108.739L223.468 108.866C222.707 109.007 221.964 109.233 221.253 109.538C220.509 109.911 219.839 110.416 219.274 111.027L219.111 111.208H218.857C218.413 111.08 217.956 111.001 217.495 110.972C217.024 110.936 216.55 110.936 216.079 110.972C215.592 110.994 215.108 111.042 214.627 111.118C214.138 111.188 213.653 111.285 213.174 111.408C214.308 110.868 215.55 110.595 216.805 110.609C217.205 110.609 217.604 110.609 218.003 110.7C218.403 110.791 218.766 110.864 219.02 110.7L219.129 110.591C219.675 109.893 220.423 109.379 221.271 109.121C222.07 108.866 222.924 108.866 223.704 108.558C224.104 108.413 224.449 108.195 224.83 108.013C225.047 107.891 225.271 107.782 225.502 107.686Z" fill="#AF6152"/>
<path d="M89.1549 418.234L86.7765 394.378L116.352 391.527C116.352 391.527 115.008 410.354 115.099 418.978C115.099 423.045 117.949 430.724 117.949 430.724C117.949 430.724 106.239 436.661 100.23 434.138C94.2202 431.614 90.2987 422.046 90.4621 420.303L89.1549 418.234Z" fill="#C8856A"/>
<path d="M151.516 459.918C151.916 459.918 152.079 463.749 149.701 465.528C143.417 469.472 135.876 470.898 128.586 469.523C118.655 467.707 113.408 464.348 109.614 460.826C105.819 457.304 100.536 452.348 95.9974 451.113C91.999 449.784 88.2987 447.688 85.1042 444.94C83.8333 443.597 84.3598 437.914 84.3598 437.914L151.516 459.918Z" fill="#263238"/>
<path d="M88.9367 416.037C88.9367 416.037 88.392 416.291 88.047 417.598C87.7021 418.905 87.0485 423.68 86.2315 426.222C84.9244 430.683 84.3121 435.318 84.4159 439.966C84.7972 442.907 92.5677 446.865 96.8524 448.753C101.862 451.247 106.465 454.485 110.505 458.357C114.99 462.424 124.63 466.944 131.166 467.271C138.864 467.634 147.705 465.655 149.902 462.26C152.607 458.03 154.695 453.074 143.566 447.228C141.46 446.12 134.125 441.255 131.62 439.512C124.866 434.773 120.182 430.525 117.404 422.645C117.189 421.689 116.658 420.832 115.897 420.213C115.212 419.873 114.437 419.759 113.682 419.886C109.862 420.095 106.063 420.593 102.317 421.375C100.738 422.01 98.5227 422.718 98.4319 424.661C98.4401 425.333 98.5503 426 98.7587 426.64C98.8676 427.057 98.9403 427.584 98.5771 427.802C98.214 428.019 97.8146 427.802 97.5241 427.438C96.4721 426.243 95.5131 424.968 94.6556 423.626C93.8239 422.413 92.9078 421.26 91.9141 420.176C91.2818 419.76 90.6755 419.305 90.0986 418.815C89.3988 418.053 88.9878 417.07 88.9367 416.037Z" fill="#455A64"/>
<path d="M110.541 458.266C108.64 456.521 106.653 454.873 104.586 453.328C104.586 453.328 117.549 462.115 123.195 458.775C126.826 456.614 125.337 453.655 125.319 452.747C125.301 451.839 138.028 446.066 141.441 445.848C142.349 446.411 143.111 446.901 143.602 447.137C152.334 451.149 153.26 455.743 151.426 461.353C149.248 464.766 141.278 467.961 131.31 467.417C124.793 467.053 115.025 462.333 110.541 458.266Z" fill="#37474F"/>
<path d="M124.52 450.024C131.473 453.219 128.369 454.363 126.335 454.526C124.302 454.69 112.773 447.155 105.802 441.055C98.5395 434.701 93.0928 426.422 90.3695 424.08C89.371 423.208 88.2817 422.155 87.3376 421.157C87.61 419.632 87.846 418.234 88.0275 417.526C88.3725 416.219 88.9171 415.964 88.9171 415.964C89.1266 416.949 89.5076 417.889 90.0428 418.742C90.6197 419.233 91.226 419.687 91.8583 420.104C92.852 421.188 93.7681 422.341 94.5998 423.553C95.4573 424.896 96.4163 426.17 97.4683 427.366C103.314 435.463 117.584 446.901 124.52 450.024Z" fill="#37474F"/>
<path d="M125.919 453.473C125.758 453.463 125.605 453.399 125.484 453.292C125.419 453.227 125.367 453.151 125.332 453.067C125.297 452.983 125.279 452.893 125.279 452.801C125.279 452.71 125.297 452.62 125.332 452.536C125.367 452.452 125.419 452.375 125.484 452.311C127.644 450.006 137.484 444.795 142.677 445.648C142.768 445.661 142.855 445.693 142.934 445.74C143.013 445.788 143.081 445.851 143.136 445.925C143.19 446 143.228 446.084 143.249 446.174C143.27 446.263 143.273 446.356 143.258 446.447C143.245 446.538 143.213 446.625 143.166 446.703C143.118 446.781 143.055 446.848 142.98 446.901C142.905 446.954 142.82 446.99 142.731 447.009C142.641 447.028 142.549 447.028 142.459 447.01C137.593 446.229 128.225 451.422 126.519 453.237C126.444 453.321 126.352 453.386 126.247 453.427C126.143 453.468 126.031 453.484 125.919 453.473Z" fill="#263238"/>
<path d="M119.926 449.37C119.765 449.356 119.613 449.293 119.49 449.189C119.423 449.126 119.37 449.05 119.333 448.965C119.297 448.881 119.278 448.79 119.278 448.698C119.278 448.606 119.297 448.516 119.333 448.431C119.37 448.347 119.423 448.271 119.49 448.208C121.632 445.902 131.473 440.692 136.683 441.545C136.865 441.576 137.028 441.677 137.136 441.827C137.245 441.976 137.291 442.161 137.264 442.344C137.249 442.435 137.216 442.523 137.166 442.601C137.116 442.679 137.051 442.746 136.975 442.799C136.899 442.851 136.813 442.888 136.722 442.906C136.631 442.925 136.538 442.925 136.447 442.907C131.6 442.126 122.232 447.319 120.525 449.134C120.448 449.215 120.355 449.278 120.252 449.318C120.148 449.359 120.037 449.377 119.926 449.37Z" fill="#263238"/>
<path d="M113.936 445.467C113.775 445.453 113.623 445.389 113.5 445.285C113.433 445.222 113.379 445.146 113.343 445.062C113.306 444.978 113.287 444.887 113.287 444.795C113.287 444.703 113.306 444.612 113.343 444.528C113.379 444.444 113.433 444.368 113.5 444.305C115.642 441.999 125.482 436.77 130.693 437.642C130.875 437.673 131.037 437.774 131.146 437.923C131.254 438.072 131.3 438.258 131.274 438.441C131.259 438.532 131.225 438.619 131.176 438.697C131.126 438.775 131.061 438.843 130.985 438.895C130.909 438.948 130.823 438.984 130.732 439.003C130.641 439.022 130.548 439.022 130.457 439.003C125.591 438.223 116.241 443.415 114.535 445.231C114.458 445.311 114.365 445.374 114.261 445.415C114.158 445.456 114.047 445.473 113.936 445.467Z" fill="#263238"/>
<path d="M108.434 441.073C108.266 441.068 108.105 441.004 107.98 440.892C107.854 440.76 107.783 440.584 107.783 440.401C107.783 440.219 107.854 440.043 107.98 439.911C110.123 437.605 119.999 432.395 125.174 433.248C125.276 433.25 125.376 433.274 125.468 433.318C125.56 433.362 125.641 433.426 125.706 433.504C125.771 433.583 125.819 433.675 125.845 433.773C125.871 433.872 125.876 433.975 125.859 434.076C125.842 434.176 125.803 434.272 125.745 434.356C125.688 434.44 125.613 434.511 125.525 434.563C125.438 434.616 125.34 434.649 125.238 434.66C125.137 434.671 125.034 434.66 124.938 434.628C120.09 433.847 110.722 439.022 109.015 440.855C108.945 440.938 108.855 441.002 108.753 441.04C108.652 441.078 108.542 441.09 108.434 441.073Z" fill="#263238"/>
<path d="M103.024 436.698C102.868 436.688 102.72 436.623 102.607 436.516C102.542 436.452 102.49 436.376 102.455 436.291C102.42 436.207 102.402 436.117 102.402 436.026C102.402 435.935 102.42 435.845 102.455 435.76C102.49 435.676 102.542 435.6 102.607 435.536C105.566 432.268 115.806 428.038 120.998 428.891C121.178 428.918 121.341 429.015 121.45 429.161C121.558 429.308 121.605 429.491 121.579 429.672C121.543 429.855 121.439 430.017 121.287 430.126C121.135 430.234 120.947 430.279 120.762 430.252C116.096 429.49 106.238 433.557 103.66 436.462C103.582 436.551 103.483 436.619 103.372 436.661C103.261 436.702 103.141 436.715 103.024 436.698Z" fill="#263238"/>
<path d="M38.5003 431.596L44.8184 402.184L15.7698 398.045L15.6064 427.093C15.6064 427.093 13.4641 434.918 15.1344 437.569C16.8047 440.22 34.1975 442.816 35.777 441.019C37.3565 439.221 38.5003 431.596 38.5003 431.596Z" fill="#C8856A"/>
<path d="M36.0859 477.856C35.3779 484.446 34.0526 488.749 31.2385 492.38C28.4244 496.011 23.359 496.647 18.33 494.958C13.301 493.27 6.89215 489.512 5.62127 483.611C4.51252 478.376 4.72466 472.948 6.23855 467.816L36.0859 477.856Z" fill="#263238"/>
<path d="M15.6791 426.93C13.5731 426.93 14.1904 432.032 13.3008 440.91C12.3204 450.514 8.07204 458.085 6.60145 465.801C4.93116 474.624 5.31243 478.673 8.65302 484.483C11.9936 490.292 24.321 496.973 30.8025 489.929C36.1039 484.156 36.5759 477.22 36.467 468.143C36.1831 460.534 36.3225 452.915 36.8846 445.321C37.5563 438.658 40.2978 432.486 38.5004 431.523C38.3189 432.504 36.6849 439.258 35.4321 439.167C35.3503 438.328 35.3503 437.482 35.4321 436.643C35.5113 436.257 35.5085 435.859 35.4241 435.475C35.3396 435.09 35.1753 434.727 34.9419 434.41C33.9368 433.637 32.7894 433.069 31.5651 432.74C29.5135 432.159 25.8643 431.433 23.7764 431.051C22.7415 430.852 21.6885 430.688 20.6355 430.579C19.7504 430.452 18.8518 430.452 17.9667 430.579C17.7273 430.615 17.4988 430.704 17.2979 430.839C17.0969 430.974 16.9285 431.152 16.8047 431.36C16.6919 431.686 16.6426 432.032 16.6595 432.377C16.629 432.995 16.5129 433.606 16.3146 434.192C16.3146 434.446 16.0241 434.755 15.7154 434.664C15.6095 434.612 15.5228 434.528 15.4674 434.424C15.412 434.319 15.3908 434.2 15.4068 434.083C15.4976 433.103 15.6065 427.584 15.6791 426.93Z" fill="#455A64"/>
<path d="M7.18168 463.386C6.9275 464.657 5.36609 473.063 7.926 474.897C10.4859 476.73 12.5375 470.321 12.5375 470.321C12.5375 470.321 19.2913 469.25 28.8773 474.08C28.3326 475.405 29.658 480.143 32.3631 479.526C35.0683 478.909 36.4662 469.159 36.4844 469.032C36.4844 477.656 35.9579 484.41 30.8199 490.02C24.3385 497.1 11.9928 490.419 8.67037 484.573C5.34795 478.727 4.94857 474.715 6.61887 465.891C6.76411 465.056 6.96381 464.167 7.18168 463.386Z" fill="#37474F"/>
<path d="M13.2812 470.993C13.0997 474.225 9.54124 472.809 9.55939 468.143C9.57755 463.477 11.8833 452.384 12.7184 444.868C13.2086 434.065 13.5717 426.93 15.6777 427.003C15.6777 427.112 15.6777 427.221 15.6777 427.33C15.6777 427.438 15.5325 433.484 15.5143 434.192C15.2057 440.783 15.242 453.6 14.3524 459.61C13.7598 463.378 13.4021 467.18 13.2812 470.993Z" fill="#37474F"/>
<path d="M27.6979 473.862C28.7518 470.202 29.5705 466.479 30.1488 462.714C31.0929 456.814 34.5061 444.977 36.1946 438.604C36.7574 437.551 38.464 431.596 38.464 431.596C39.9164 431.995 38.464 437.66 37.883 440.329C37.302 442.998 36.4124 445.775 35.6136 449.624C33.5075 457.141 33.4168 468.361 31.9825 472.7C30.5482 477.039 26.9353 476.966 27.6979 473.862Z" fill="#37474F"/>
<path d="M29.059 474.37C28.9626 474.35 28.8705 474.313 28.7867 474.261C23.8635 471.631 18.2775 470.501 12.7192 471.011C12.5165 471.038 12.3109 470.993 12.1383 470.883C11.9658 470.774 11.8372 470.607 11.7751 470.412C11.7535 470.323 11.752 470.23 11.7708 470.14C11.7896 470.05 11.8283 469.966 11.884 469.893C11.9396 469.819 12.0109 469.76 12.0926 469.718C12.1743 469.676 12.2642 469.652 12.356 469.65C18.3046 469.065 24.292 470.273 29.5492 473.117C29.6354 473.157 29.7123 473.215 29.7746 473.286C29.8369 473.358 29.8833 473.442 29.9108 473.533C29.9382 473.624 29.9461 473.72 29.9338 473.814C29.9216 473.908 29.8895 473.999 29.8396 474.08C29.7502 474.197 29.6295 474.286 29.4913 474.338C29.3532 474.389 29.2033 474.4 29.059 474.37Z" fill="#263238"/>
<path d="M31.0924 467.525L30.8201 467.435C25.2435 464.672 19.0398 463.42 12.8282 463.804C12.6284 463.824 12.4279 463.773 12.2619 463.66C12.0958 463.547 11.9749 463.38 11.9204 463.186C11.9048 463.095 11.909 463.001 11.9325 462.911C11.956 462.822 11.9984 462.738 12.0568 462.666C12.1151 462.593 12.1882 462.535 12.2712 462.493C12.3541 462.451 12.4449 462.428 12.5377 462.424C19.1047 461.975 25.6712 463.305 31.5463 466.273C31.6331 466.309 31.7113 466.364 31.7757 466.433C31.8401 466.501 31.8893 466.583 31.9201 466.672C31.9509 466.761 31.9626 466.856 31.9545 466.949C31.9465 467.043 31.9187 467.134 31.8731 467.217C31.7891 467.341 31.6697 467.437 31.5304 467.492C31.3911 467.547 31.2385 467.559 31.0924 467.525Z" fill="#263238"/>
<path d="M13.6076 457.195C13.4625 457.165 13.327 457.099 13.2131 457.004C13.0992 456.909 13.0102 456.788 12.9541 456.65C12.9269 456.562 12.9193 456.469 12.932 456.377C12.9446 456.285 12.9772 456.197 13.0273 456.119C13.0775 456.042 13.144 455.976 13.2223 455.926C13.3006 455.877 13.3888 455.845 13.4806 455.833C22.9758 454.018 32.0898 459.283 32.4711 459.464C32.5573 459.504 32.6341 459.562 32.6965 459.634C32.7588 459.705 32.8053 459.789 32.8327 459.88C32.8602 459.971 32.868 460.067 32.8557 460.161C32.8434 460.255 32.8114 460.346 32.7616 460.427C32.6369 460.579 32.4606 460.679 32.2663 460.71C32.072 460.74 31.8734 460.697 31.7085 460.59C31.7085 460.59 22.758 455.47 13.9345 457.141L13.6076 457.195Z" fill="#263238"/>
<path d="M14.3901 450.95C14.247 450.926 14.1126 450.865 14.001 450.772C13.8893 450.68 13.8043 450.559 13.7546 450.423C13.7241 450.336 13.7135 450.243 13.7236 450.151C13.7337 450.06 13.7642 449.971 13.813 449.893C13.8618 449.814 13.9276 449.748 14.0055 449.698C14.0833 449.649 14.1713 449.617 14.263 449.606C20.947 448.41 27.8377 449.701 33.6347 453.237C33.715 453.283 33.7848 453.346 33.8398 453.42C33.8947 453.495 33.9337 453.58 33.9541 453.671C33.9746 453.761 33.9761 453.855 33.9587 453.946C33.9412 454.037 33.9051 454.123 33.8526 454.199C33.7222 454.351 33.54 454.448 33.3417 454.471C33.1435 454.495 32.9435 454.443 32.7814 454.326C27.3672 451.068 20.9651 449.858 14.735 450.913L14.3901 450.95Z" fill="#263238"/>
<path d="M15.2981 443.96C15.1587 443.927 15.0287 443.863 14.9184 443.771C14.8082 443.68 14.7206 443.564 14.6626 443.433C14.6323 443.346 14.6213 443.254 14.6302 443.162C14.6392 443.07 14.668 442.982 14.7146 442.902C14.7612 442.823 14.8246 442.755 14.9002 442.702C14.9759 442.649 15.0621 442.614 15.1528 442.598C24.9567 440.456 34.2704 446.229 34.6698 446.483C34.7537 446.526 34.8273 446.586 34.8858 446.66C34.9442 446.734 34.9861 446.819 35.0085 446.91C35.0309 447.002 35.0334 447.097 35.0157 447.189C34.9979 447.282 34.9605 447.369 34.9058 447.446C34.7779 447.601 34.5952 447.7 34.3957 447.724C34.1962 447.748 33.9953 447.693 33.8347 447.573C33.7439 447.573 24.757 441.945 15.6793 443.942C15.5554 443.977 15.4249 443.983 15.2981 443.96Z" fill="#263238"/>
<path d="M33.3258 172.428C29.5314 190.239 24.1211 200.261 23.2859 245.431C22.4508 290.602 22.5778 303.274 22.3963 308.721C22.2147 314.167 19.0557 323.917 16.2598 350.75C14.5854 370.068 14.1366 389.473 14.9163 408.847C14.9163 408.847 18.6926 413.913 28.9504 414.82C34.257 415.457 39.6233 414.287 44.1827 411.498C44.1827 411.498 56.0926 359.864 59.6874 343.706C63.2821 327.548 73.7033 274.425 73.7033 274.425L79.8943 317.526C79.8943 317.526 77.0076 332.341 79.8943 355.87C82.781 379.399 87.3561 403.219 87.3561 403.219C87.3561 403.219 91.3503 406.523 102.407 405.888C107.145 405.655 111.795 404.527 116.114 402.566C116.114 402.566 123.213 332.54 123.213 305.87C123.213 279.2 120.544 212.933 116.604 172.501L33.3258 172.428Z" fill="#455A64"/>
<path d="M109.904 211.426C105.892 222.428 91.2405 230.144 84.8135 231.687L77.2609 273.772L79.8934 317.453L73.7024 274.425L82.1628 223.064C82.1628 223.064 99.9914 221.775 109.904 211.426ZM48.8841 205.98C47.8311 210.3 46.887 214.658 45.8703 219.015C44.8536 223.372 43.8732 227.73 42.7839 232.123C42.7402 227.604 43.0436 223.088 43.6916 218.616C44.2761 214.147 45.0881 209.712 46.1245 205.326C47.1675 200.929 48.4586 196.595 49.9916 192.345C51.4722 188.062 53.4141 183.953 55.7831 180.09C54.4215 184.411 53.2232 188.696 52.152 192.998C51.0809 197.301 49.9008 201.804 48.8841 206.052V205.98ZM41.3133 197.646C39.8609 200.242 38.4811 202.893 37.0831 205.544L32.98 213.623C33.2939 210.559 33.9892 207.546 35.0497 204.654C36.0861 201.772 37.3425 198.974 38.8079 196.285C40.2929 193.605 41.9547 191.027 43.7824 188.569C45.5889 186.094 47.632 183.802 49.8826 181.724C48.5391 184.502 47.0867 187.171 45.6343 189.767C44.1819 192.363 42.7113 195.086 41.3133 197.719V197.646ZM48.0126 319.45C50.5907 305.634 52.4243 291.655 54.2217 277.693C56.0191 263.732 57.7439 249.698 59.6683 235.718C58.815 249.806 57.8528 263.895 56.4004 277.947C54.948 292 53.3321 306.034 50.7904 319.977C48.2486 333.92 45.3438 347.682 42.4389 361.498C39.5341 375.314 36.5384 389.076 33.3613 402.838C35.5036 388.883 37.8214 374.963 40.3148 361.081C42.7294 347.228 45.3619 333.321 48.0126 319.523V319.45ZM112.21 272.61L109.904 235.809C111.792 247.912 113.293 260.119 114.407 272.428C115.514 284.701 116.567 296.92 116.604 309.356C116.186 321.72 115.242 333.938 114.243 346.211C113.245 358.484 112.01 370.703 110.612 382.922C110.951 370.612 111.441 358.327 112.083 346.066L113.027 327.62C113.336 321.502 113.717 315.347 113.844 309.265C113.971 303.183 113.572 297.065 113.299 290.947C113.027 284.828 112.555 278.692 112.21 272.61Z" fill="#37474F"/>
<path d="M26.3001 108.34C33.1327 108.34 39.6855 105.626 44.5169 100.794C49.3482 95.963 52.0625 89.4102 52.0625 82.5776V18.2896H47.796C42.0949 18.2896 36.6273 20.5543 32.596 24.5856C28.5648 28.6168 26.3001 34.0844 26.3001 39.7855V108.34Z" fill="#D8A85F"/>
<path d="M39.007 26.3868C38.6592 27.4478 38.4278 28.5436 38.3171 29.6547C38.2263 30.372 38.2263 31.0979 38.3171 31.8152C38.6426 33.4531 39.5228 34.9287 40.8092 35.9936C42.0956 37.0584 43.7096 37.6473 45.3795 37.6612C47.0488 37.5966 48.6814 37.1526 50.1536 36.363C51.6258 35.5735 52.8988 34.459 53.8762 33.1042C56.6358 29.5821 60.7389 21.2851 55.3831 18.3439C53.5881 17.4332 51.5758 17.0376 49.5696 17.201C47.5634 17.3645 45.6417 18.0806 44.0178 19.2699C41.6373 21.0529 39.8831 23.5445 39.007 26.3868Z" fill="#BA68C8"/>
<path opacity="0.25" d="M39.007 26.3868C38.6592 27.4478 38.4278 28.5436 38.3171 29.6547C38.2263 30.372 38.2263 31.0979 38.3171 31.8152C38.6426 33.4531 39.5228 34.9287 40.8092 35.9936C42.0956 37.0584 43.7096 37.6473 45.3795 37.6612C47.0488 37.5966 48.6814 37.1526 50.1536 36.363C51.6258 35.5735 52.8988 34.459 53.8762 33.1042C56.6358 29.5821 60.7389 21.2851 55.3831 18.3439C53.5881 17.4332 51.5758 17.0376 49.5696 17.201C47.5634 17.3645 45.6417 18.0806 44.0178 19.2699C41.6373 21.0529 39.8831 23.5445 39.007 26.3868Z" fill="black"/>
<path d="M25.8819 202.348C28.6597 188.314 32.3633 170.141 32.563 163.405C33.0169 149.262 29.64 138.55 28.4418 130.617C25.8637 113.351 27.77 98.0822 31.7824 94.6871C31.7824 94.6871 43.4926 91.982 47.3415 91.2921C50.3735 90.7474 52.7881 90.3843 56.7278 89.4765C63.4623 87.768 70.4545 87.3186 77.3523 88.1512C79.1678 88.3328 83.87 89.5855 89.1896 90.3662L98.1401 91.7459C98.1401 91.7459 101.935 94.088 107.672 104.346C112.047 112.171 114.335 113.659 116.132 131.325C118.601 155.78 118.547 188.187 119.473 201.223C101.735 212.043 48.6487 215.656 25.8819 202.348Z" fill="#D7AFDD"/>
<path d="M100.519 57.8863L102.625 57.2327C112.083 52.1674 111.702 39.8217 109.306 33.3948C104.186 19.0339 88.6631 13.6599 79.0589 13.1334C60.9036 12.1349 51.9712 16.7645 50.0104 26.2779C47.5594 26.06 44.1644 28.0934 42.1128 30.8349C37.6466 36.9351 34.3242 55.1812 57.9261 77.5667L100.519 57.8863Z" fill="#D8A85F"/>
<path d="M52.7143 70.8311C51.0015 70.9862 49.2783 70.6829 47.7213 69.9523C46.1644 69.2217 44.8298 68.09 43.8545 66.6735C40.2234 61.2269 40.405 56.1252 42.5837 52.9299C43.5752 51.5561 45.0397 50.5977 46.6955 50.2391C48.3513 49.8804 50.0813 50.1469 51.5524 50.9873C54.5843 53.057 54.4391 54.6183 54.657 57.1601C54.8748 59.7018 60.3033 59.4114 61.7557 50.5334C63.0992 42.2727 63.5712 34.1936 67.8196 30.5625C74.1195 25.1159 81.9808 27.0404 84.2865 30.4536C86.919 26.6591 92.2022 26.4049 96.2509 28.8014C99.6096 30.7622 102.496 34.8472 102.151 44.1246C102.229 46.3435 102.435 48.5562 102.769 50.7513C104.384 68.9066 100.427 75.7512 95.8514 79.6364C93.2189 81.8877 89.3336 83.2675 83.2879 83.3764L83.5058 90.4751C83.5058 90.4751 91.6757 105.925 91.1129 119.705C91.1129 119.705 87.7723 117.4 72.7941 104.291C62.7905 95.5586 56.4543 90.4025 56.4543 90.4025L56.999 67.3271C56.6218 68.2144 56.0348 68.9968 55.2885 69.6071C54.5421 70.2175 53.6588 70.6375 52.7143 70.8311Z" fill="#C8856A"/>
<path d="M99.4655 43.3983L93.456 41.3649C93.567 40.9651 93.7587 40.5924 94.0195 40.2698C94.2803 39.9471 94.6045 39.6814 94.9721 39.4891C95.3397 39.2968 95.7429 39.182 96.1566 39.1517C96.5704 39.1215 96.986 39.1765 97.3776 39.3133C98.1814 39.599 98.8454 40.1812 99.2336 40.9408C99.6218 41.7003 99.7048 42.5796 99.4655 43.3983Z" fill="#263238"/>
<path d="M78.0977 41.5647L72.0156 44.5785C71.7977 44.1917 71.6614 43.7645 71.615 43.323C71.5686 42.8816 71.613 42.4353 71.7457 42.0118C71.8784 41.5882 72.0965 41.1963 72.3864 40.8602C72.6764 40.5242 73.0321 40.2511 73.4317 40.0578C74.2571 39.6804 75.1938 39.6258 76.0575 39.9047C76.9211 40.1836 77.6489 40.7758 78.0977 41.5647Z" fill="#263238"/>
<path d="M74.3564 49.3895C74.3564 49.903 74.5087 50.405 74.794 50.8319C75.0792 51.2589 75.4847 51.5916 75.9591 51.7881C76.4335 51.9846 76.9555 52.036 77.4591 51.9359C77.9627 51.8357 78.4253 51.5884 78.7884 51.2253C79.1515 50.8623 79.3988 50.3997 79.4989 49.896C79.5991 49.3924 79.5477 48.8704 79.3512 48.396C79.1547 47.9216 78.8219 47.5161 78.395 47.2309C77.968 46.9456 77.4661 46.7933 76.9526 46.7933C76.2641 46.7933 75.6037 47.0669 75.1168 47.5537C74.6299 48.0406 74.3564 48.701 74.3564 49.3895Z" fill="#263238"/>
<path d="M93.0556 48.9357C93.0556 49.4492 93.2079 49.9511 93.4932 50.3781C93.7784 50.805 94.1839 51.1378 94.6583 51.3343C95.1327 51.5308 95.6547 51.5822 96.1583 51.482C96.662 51.3818 97.1245 51.1346 97.4876 50.7715C97.8507 50.4084 98.098 49.9458 98.1982 49.4422C98.2983 48.9386 98.2469 48.4166 98.0504 47.9422C97.8539 47.4678 97.5211 47.0623 97.0942 46.777C96.6672 46.4917 96.1653 46.3395 95.6518 46.3395C95.3109 46.3395 94.9733 46.4066 94.6583 46.5371C94.3433 46.6676 94.0571 46.8588 93.816 47.0999C93.5749 47.341 93.3837 47.6272 93.2532 47.9422C93.1228 48.2571 93.0556 48.5948 93.0556 48.9357Z" fill="#263238"/>
<path d="M69.2746 31.6518C67.8584 33.4674 66.8236 36.4267 67.0415 42.9082C66.8814 46.7339 65.9163 50.4828 64.2092 53.9103C62.6297 57.1964 60.9957 59.1572 57.4918 59.7745C55.3644 60.0949 53.1904 59.87 51.1737 59.1209C49.9391 58.5581 46.4533 56.0889 46.8709 52.4942C47.5883 53.2711 48.4603 53.8895 49.4308 54.3097C50.1668 54.6119 50.944 54.8016 51.7365 54.8725C52.9292 54.8664 54.1013 54.5606 55.145 53.9833C56.1888 53.4059 57.0706 52.5754 57.7096 51.5683C60.0517 48.0824 59.9064 43.3802 60.6145 39.386C61.5404 34.3025 62.43 30.0179 67.0051 27.4943C72.4517 24.5168 83.109 24.9525 84.2891 30.4899C82.1313 28.6823 79.3513 27.7917 76.5448 28.0089C73.7384 28.2261 71.1286 29.5338 69.2746 31.6518Z" fill="#D8A85F"/>
<path d="M83.978 46.3395L84.6497 62.2254L93.4551 59.5384L83.978 46.3395Z" fill="#AF6152"/>
<path d="M78.0419 66.4375C78.6857 66.1263 79.3975 65.9827 80.1116 66.0199C80.8384 66.0469 81.5614 66.138 82.2721 66.2922C83.4741 66.5413 84.5779 67.1342 85.4493 67.9989C85.6229 68.147 85.7596 68.3334 85.8487 68.5435C85.9395 68.9974 85.5219 68.9792 85.2132 68.8521L84.596 68.5253C84.2873 68.3801 83.9424 68.2893 83.6337 68.1441C83.0516 67.8759 82.4431 67.6691 81.8182 67.5268C81.2212 67.3912 80.6139 67.3062 80.0027 67.2726H79.0223C78.6773 67.2726 78.2235 67.2726 78.0237 66.9458C77.9704 66.8709 77.9432 66.7805 77.9465 66.6886C77.9498 66.5967 77.9833 66.5084 78.0419 66.4375Z" fill="#AF6152"/>
<path d="M83.29 83.3946C77.7743 83.592 72.3033 82.34 67.4223 79.7635C63.1195 77.5485 61.9757 73.6815 59.8697 69.6328C59.8697 69.6328 60.5959 78.0569 65.8246 82.1782C73.1957 87.9879 83.3809 87.0075 83.3809 87.0075L83.29 83.3946Z" fill="#AF6152"/>
<path d="M31.729 94.6871C20.5998 96.5027 16.8598 99.9885 12.2483 112.044C7.80026 123.699 -2.49382 149.934 0.556274 167.545C2.37181 178.293 29.6048 151.295 29.6048 151.295L42.5859 121.375C42.5859 121.375 41.1335 94.6871 31.729 94.6871Z" fill="#C8856A"/>
<path d="M39.2638 103.111C41.0589 109.051 42.1497 115.181 42.5137 121.375L29.5144 151.295C29.5144 151.295 25.611 155.181 20.6728 159.429L2.28143 149.879C2.5356 145.304 13.0476 131.96 19.5472 125.134C24.3402 120.105 34.253 108.431 39.2638 103.111Z" fill="#AF6152"/>
<path d="M34.8336 109.447C37.6302 105.937 39.7036 101.908 40.9338 97.592C42.1866 92.563 46.1444 87.9333 47.5061 86.027C48.8677 84.1207 51.7544 81.3248 53.9875 78.656C56.2206 75.9871 56.8561 75.2246 60.0514 74.6981C64.445 73.9537 67.8945 73.2638 69.6193 73.7722C71.344 74.2805 71.2714 75.4243 69.7826 76.9494C68.2939 78.4744 65.153 78.7649 64.1726 79.1462C63.1923 79.5274 61.0499 80.3626 61.0499 80.3626L56.9831 86.3538C59.7758 86.825 62.5306 87.4985 65.2257 88.3691C66.0454 89.1452 66.6526 90.1183 66.9895 91.1957C67.3264 92.2731 67.3817 93.4189 67.1502 94.5237C67.8245 94.9636 68.3389 95.6092 68.617 96.3648C68.895 97.1204 68.9218 97.9456 68.6933 98.7176C68.6933 98.7176 70.2365 100.733 69.1654 102.349C67.9792 104.022 66.6022 105.551 65.0622 106.906C63.7477 107.473 62.3361 107.781 60.9047 107.813C59.4444 110.046 57.6988 112.079 55.7123 113.859C53.3521 115.675 51.7907 115.493 49.1945 119.161L34.8336 109.447Z" fill="#C8856A"/>
<path d="M60.0888 86.9712C61.7228 86.2631 62.0859 85.1557 63.7199 85.7548C65.3539 86.3539 64.664 88.0968 64.664 88.0968L60.0888 86.9712Z" fill="#AF6152"/>
<path d="M67.0962 94.6872C66.0807 93.8207 64.9579 93.0885 63.7555 92.5086C62.6118 91.9639 60.2697 91.1288 60.2697 91.1288C61.9088 91.2743 63.5175 91.6597 65.0446 92.2726C65.8322 92.5683 66.5867 92.9456 67.2959 93.3982C67.3047 93.7786 67.2558 94.1581 67.1506 94.5238L67.0962 94.6872Z" fill="#AF6152"/>
<path d="M67.3125 96.993C67.8611 97.2259 68.3947 97.4927 68.9102 97.7918C68.8625 98.1702 68.771 98.5419 68.6378 98.8993C67.3698 97.7433 65.8986 96.8322 64.2987 96.2123C65.3288 96.3615 66.3394 96.6233 67.3125 96.993Z" fill="#AF6152"/>
<path d="M60.2889 108.758C61.2334 106.84 62.358 105.016 63.6476 103.311C64.0671 102.842 64.6487 102.549 65.2753 102.492C65.9019 102.435 66.527 102.617 67.0245 103.002C67.4603 103.656 65.209 103.565 64.5736 103.856C62.9055 105.263 61.4609 106.916 60.2889 108.758Z" fill="#AF6152"/>
<path d="M55.0949 86.1723C55.0949 86.1723 56.3657 84.3567 58.617 81.5608C60.8683 78.7649 60.7412 79.1461 62.938 78.7104C65.1348 78.2747 69.2923 77.5485 70.418 76.2231C70.2225 76.479 70.0102 76.7216 69.7825 76.9494C68.3301 78.4199 65.1529 78.7649 64.1725 79.1462C63.1921 79.5274 61.0498 80.3626 61.0498 80.3626L56.8741 86.5354L55.0949 86.1723Z" fill="#AF6152"/>
<path d="M34.8342 109.448C27.4631 118.344 7.60119 139.712 3.00789 148.227C-0.169296 154.11 -0.968136 167.781 2.26352 172.755C5.49517 177.73 14.7725 175.642 22.2344 169.124C28.7159 163.442 34.108 149.752 38.8102 140.076C43.5125 130.399 49.1406 119.342 49.1406 119.342L34.8342 109.448Z" fill="#C8856A"/>
<path d="M39.2093 102.258C39.7945 100.986 40.2742 99.6686 40.6436 98.3183C40.9715 96.9413 41.4273 95.598 42.0052 94.3059C43.2332 91.77 44.7371 89.3772 46.4896 87.1709C48.1462 84.8987 49.9665 82.7507 51.9362 80.7439C52.8803 79.709 53.7517 78.6379 54.6776 77.5485C55.5292 76.3839 56.7031 75.494 58.0546 74.9886C59.4212 74.6174 60.8098 74.3324 62.2121 74.1353C63.592 73.8993 64.9899 73.6633 66.3879 73.4999C67.1009 73.4452 67.8171 73.4452 68.5302 73.4999C69.2787 73.5033 70.008 73.7379 70.6181 74.1716C70.7856 74.299 70.916 74.4689 70.9958 74.6636C71.0756 74.8583 71.1019 75.0708 71.072 75.2791C71.0149 75.6604 70.8653 76.022 70.6362 76.3321C70.2285 76.9395 69.6963 77.4532 69.0749 77.839C67.8165 78.5214 66.455 78.9936 65.0444 79.237C63.7144 79.5808 62.4197 80.0489 61.1773 80.635L57.292 86.3176C59.7067 86.7896 62.1032 87.2617 64.4634 87.9697C64.784 88.0655 65.0942 88.1932 65.3893 88.351C65.6699 88.544 65.9155 88.7835 66.1155 89.059C66.4867 89.6221 66.7799 90.2328 66.987 90.8746C67.4332 92.0752 67.5399 93.3754 67.2956 94.6327C67.9352 95.1046 68.447 95.7286 68.7844 96.4483C68.9587 96.8297 69.0455 97.2453 69.0385 97.6647C69.0401 98.0623 68.9662 98.4566 68.8207 98.8266C69.2062 99.3028 69.465 99.8688 69.573 100.472C69.6809 101.075 69.6344 101.696 69.4379 102.276C68.8007 103.311 68.0519 104.273 67.2049 105.145C66.7873 105.58 66.3697 106.016 65.934 106.434C65.5295 106.9 65.0275 107.272 64.4634 107.523C63.3152 107.847 62.1332 108.036 60.9412 108.086C60.2014 109.166 59.4076 110.208 58.5629 111.209C57.7015 112.286 56.7071 113.25 55.6036 114.077C54.4779 114.894 53.1889 115.402 52.0814 116.219C50.9853 117.055 50.0292 118.06 49.2492 119.197C50.0154 118.05 50.9592 117.033 52.0451 116.183C53.1526 115.348 54.4235 114.803 55.5309 113.986C56.6132 113.146 57.5888 112.177 58.4358 111.1C59.2891 110.047 60.1061 108.921 60.8686 107.795C62.0553 107.739 63.2314 107.544 64.3726 107.214C64.9034 106.976 65.3745 106.622 65.7524 106.18C66.17 105.762 66.5876 105.326 66.987 104.891C67.8152 104.043 68.546 103.105 69.1656 102.095C69.3409 101.546 69.3746 100.962 69.2635 100.397C69.1524 99.832 68.9001 99.3042 68.5302 98.8629C68.6736 98.5113 68.7476 98.1352 68.748 97.7554C68.7371 97.3673 68.6508 96.985 68.4939 96.6298C68.1847 95.9033 67.6824 95.2754 67.0415 94.8143H66.9507V94.7054C67.1955 93.4889 67.082 92.2275 66.6239 91.0743C66.2063 89.9123 65.6072 88.6959 64.3182 88.4599C61.8741 87.7729 59.3954 87.2153 56.8926 86.7896H56.6021L56.7655 86.5354L60.8141 80.5442C62.0919 79.9235 63.4304 79.4368 64.8083 79.0918C66.1751 78.851 67.4973 78.4042 68.7299 77.7664C69.2972 77.4017 69.7851 76.9262 70.1642 76.3685C70.5636 75.842 70.7452 75.1339 70.1642 74.7526C68.9501 74.13 67.5568 73.9502 66.2245 74.2443C64.8447 74.3895 63.4648 74.6255 62.0669 74.8616C60.6853 75.0508 59.3155 75.3175 57.9638 75.6604C56.6678 76.1488 55.544 77.0074 54.7322 78.1295C53.8244 79.1825 52.9166 80.2718 51.9543 81.3067C49.9855 83.3013 48.1651 85.4373 46.5077 87.6974C44.756 89.8782 43.252 92.2469 42.0234 94.7598C41.4311 96.031 40.9629 97.3565 40.6254 98.7177C40.2427 100.079 39.7384 101.404 39.1185 102.676C37.8465 105.183 36.3517 107.571 34.6523 109.811C36.4051 107.442 37.9309 104.913 39.2093 102.258Z" fill="#AF6152"/>
</svg>
