<svg width="57" height="56" viewBox="0 0 57 56" fill="none" xmlns="http://www.w3.org/2000/svg">
<circle cx="28.0352" cy="28" r="27.5" stroke="black"/>
<path d="M28.5234 10.6167C27.6831 4.24587 35.355 17.3038 35.0357 21.5174C34.7752 24.9329 31.8426 28.9524 28.3722 28.8949C24.7841 28.8374 22.0783 24.4655 22.0027 20.9278C21.9187 17.2319 29.0108 14.3413 28.5234 10.6167Z" stroke="black" stroke-width="0.75" stroke-miterlimit="10"/>
<path d="M19.5017 28.6109C18.6642 22.2614 26.3105 35.2758 25.9923 39.4754C25.7327 42.8795 22.8098 46.8856 19.3509 46.8282C15.7748 46.7709 13.0781 42.4136 13.0027 38.8877C12.9189 35.2041 19.9874 32.3232 19.5017 28.6109Z" stroke="black" stroke-width="0.75" stroke-miterlimit="10"/>
<path d="M35.5017 28.6109C34.6642 22.2614 42.3105 35.2758 41.9923 39.4754C41.7327 42.8795 38.8098 46.8856 35.3509 46.8282C31.7748 46.7709 29.0781 42.4136 29.0027 38.8877C28.9189 35.2041 35.9874 32.3232 35.5017 28.6109Z" stroke="black" stroke-width="0.75" stroke-miterlimit="10"/>
</svg>
