<svg width="57" height="57" viewBox="0 0 57 57" fill="none" xmlns="http://www.w3.org/2000/svg">
<circle cx="28.0332" cy="28.0166" r="27.5" stroke="black"/>
<path d="M36.7502 39.4468C34.0902 40.3368 24.3302 41.9968 22.1802 32.5668C22.2502 32.5668 22.3402 32.5668 22.4102 32.5668C29.4102 32.5668 32.4102 32.5668 32.4102 31.2568C32.4102 29.9468 28.7102 29.9468 22.9102 29.9468C22.5402 29.9468 22.1702 29.9468 21.8102 29.9468C21.7802 29.4668 21.7602 28.9668 21.7602 28.4468C21.7602 27.7368 21.8002 27.0768 21.8702 26.4468C22.2102 26.4468 22.5102 26.4468 22.7602 26.4468C29.7602 26.4468 32.7602 26.4468 32.7602 25.1968C32.7602 23.9468 29.5602 23.9468 23.7602 23.9468C23.2802 23.9468 22.8002 23.9468 22.3202 23.9468C24.8402 15.1468 35.0102 17.4468 36.7602 17.4468C37.7602 17.4468 38.0502 16.2768 37.9102 15.2468C37.8202 14.5968 37.4602 13.9968 36.8802 13.6868C31.4102 10.7968 19.6702 12.8868 17.2102 24.0368C14.5502 24.1568 12.7502 24.4668 12.7502 25.1968C12.7502 25.8268 14.6502 26.1368 16.8602 26.2968C16.7902 26.9868 16.7502 27.6968 16.7502 28.4468C16.7502 28.9868 16.7702 29.5168 16.8002 30.0268C14.1402 30.1468 12.4102 30.4568 12.4102 31.2568C12.4102 31.9768 14.6502 32.2968 17.0902 32.4468C19.3902 45.8468 33.2902 46.2568 37.7602 42.4568C38.9102 41.4768 37.9002 39.0768 36.7602 39.4568L36.7502 39.4468Z" stroke="black" stroke-miterlimit="10"/>
</svg>
