<svg width="46" height="86" viewBox="0 0 46 86" fill="none" xmlns="http://www.w3.org/2000/svg">
<path d="M23.8436 76.8839C23.8032 76.9206 23.7507 76.9409 23.6962 76.9409C23.6416 76.9409 23.589 76.9206 23.5487 76.8839C16.0668 69.9524 14.5905 58.7465 19.7894 48.3449C19.8164 48.2933 19.862 48.2539 19.9171 48.2349C19.9721 48.2159 20.0323 48.2186 20.0854 48.2425C20.1368 48.2708 20.1753 48.3178 20.1929 48.3737C20.2106 48.4296 20.206 48.4902 20.1801 48.5429C15.0717 58.7694 16.5141 69.7613 23.8454 76.5574C23.8885 76.5982 23.914 76.6542 23.9165 76.7135C23.919 76.7728 23.8982 76.8308 23.8587 76.875L23.8436 76.8839Z" fill="#455A64"/>
<path d="M23.8236 54.3706C23.7272 54.4372 23.6261 54.4965 23.5209 54.5481C22.8092 54.9392 22.0439 55.2235 21.2496 55.392C19.7159 55.6604 18.3059 56.4054 17.22 57.5211C17.1944 57.5461 17.1624 57.5636 17.1275 57.5714C17.0927 57.5793 17.0563 57.5774 17.0224 57.5658C16.9903 57.5498 16.9636 57.5249 16.9455 57.494C16.9273 57.4631 16.9186 57.4275 16.9204 57.3917C16.9993 55.2199 18.6955 51.1234 21.7692 50.6939C23.7249 50.4216 24.3164 51.4477 24.5075 51.8949C24.6505 52.329 24.6619 52.7957 24.5402 53.2363C24.4185 53.6768 24.1692 54.0715 23.8236 54.3706ZM17.4772 56.7805C18.5483 55.9196 19.8125 55.3317 21.1611 55.0676C21.9238 54.9066 22.6593 54.6363 23.3447 54.265C23.7055 54.0348 23.9805 53.6922 24.127 53.29C24.2736 52.8879 24.2836 52.4487 24.1555 52.0404C23.8625 51.246 23.0086 50.8824 21.8123 51.0449C18.9962 51.4454 17.5805 55.0317 17.3146 56.9368L17.4772 56.7805Z" fill="#455A64"/>
<path d="M17.2235 57.5598C17.2099 57.582 17.1911 57.6005 17.1687 57.6137C17.1462 57.6268 17.1208 57.6342 17.0948 57.6352C17.0505 57.6232 17.0127 57.5943 16.9895 57.5547C16.9662 57.5151 16.9594 57.4679 16.9706 57.4234C17.3909 55.4175 20.0853 52.9018 22.3197 52.4457C22.3649 52.4356 22.4123 52.4437 22.4515 52.4684C22.4907 52.493 22.5186 52.5321 22.529 52.5772C22.5379 52.6239 22.5284 52.6722 22.5025 52.7121C22.4766 52.7519 22.4362 52.7802 22.39 52.791C20.0817 53.2598 17.6703 55.7723 17.3174 57.4945C17.2928 57.5245 17.2602 57.5471 17.2235 57.5598Z" fill="#455A64"/>
<path d="M17.5833 55.8535C17.5475 55.8939 17.4998 55.9218 17.4471 55.9334C17.3973 55.925 17.3519 55.8998 17.3186 55.8619C17.2853 55.824 17.266 55.7758 17.2641 55.7254C17.3103 54.4169 14.8182 52.0748 13.1381 50.8226C12.6292 50.4632 12.2107 49.9906 11.9154 49.442C11.6202 48.8933 11.4563 48.2837 11.4366 47.661C11.4572 47.2519 11.5808 46.8547 11.7961 46.5062C12.0113 46.1577 12.3112 45.8693 12.6678 45.6677C13.0162 45.4592 13.4188 45.3592 13.8243 45.3804C14.2298 45.4016 14.6198 45.5431 14.9445 45.7869C16.7994 47.0077 18.3688 50.8977 17.6595 55.7579C17.6463 55.7979 17.6193 55.8318 17.5833 55.8535ZM12.4948 46.2573C12.2889 46.4305 12.1226 46.646 12.0073 46.8891C11.8919 47.1322 11.8301 47.3973 11.8262 47.6664C11.8455 48.2251 11.9945 48.7717 12.2614 49.2629C12.5283 49.7542 12.9058 50.1766 13.364 50.4969C13.5133 50.6128 16.4643 52.818 17.3874 54.687C17.7471 50.4792 16.342 47.1641 14.7128 46.0855C14.4496 45.8847 14.1326 45.7668 13.8021 45.7468C13.4716 45.7269 13.1427 45.8058 12.8573 45.9736C12.7255 46.0532 12.6038 46.1485 12.4948 46.2573Z" fill="#455A64"/>
<path d="M17.5824 55.8536C17.5519 55.891 17.5089 55.9162 17.4614 55.9246C17.4089 55.9236 17.359 55.9023 17.322 55.8651C17.285 55.828 17.2639 55.7779 17.2633 55.7255C17.2413 52.2196 14.7471 48.4346 13.8017 47.5855C13.7618 47.5509 13.7371 47.502 13.7328 47.4494C13.7286 47.3967 13.7451 47.3445 13.7789 47.3039C13.7962 47.2845 13.8173 47.2687 13.8408 47.2575C13.8643 47.2464 13.8899 47.2402 13.9159 47.2392C13.9419 47.2382 13.9678 47.2424 13.9922 47.2517C14.0165 47.261 14.0387 47.2751 14.0574 47.2932C15.0401 48.1712 17.6338 52.0911 17.656 55.7189C17.6485 55.7712 17.6224 55.819 17.5824 55.8536Z" fill="#455A64"/>
<path d="M27.2708 46.6029C25.081 47.3672 22.7492 47.6372 20.4426 47.3935C17.6469 44.8633 16.6331 43.6374 15.5724 40.9441C15.3513 40.2775 15.2838 39.5696 15.375 38.8733C15.4244 38.6156 15.5668 38.385 15.775 38.2254C15.9833 38.0658 16.2429 37.9882 16.5046 38.0074C16.8925 38.129 17.2237 38.386 17.4377 38.7315L19.6765 41.5781C19.0515 40.388 18.7407 39.0581 18.7735 37.7143C18.7875 37.2179 18.9275 36.6069 19.4116 36.4959C19.8957 36.385 20.4268 36.9786 20.6441 37.5224C21.223 38.9255 21.5669 40.4142 21.6621 41.929C22.284 40.4328 23.1372 39.0436 24.1905 37.8123C24.2803 37.6746 24.4008 37.5596 24.5427 37.4764C24.6845 37.3932 24.8437 37.3441 25.0078 37.333C25.5699 37.3898 25.6734 38.1732 25.5686 38.7229C25.3323 39.9935 24.8466 41.2046 24.1395 42.2864C25.3873 41.0753 26.8941 40.1638 28.5461 39.6209C28.6693 39.5644 28.8025 39.5331 28.9379 39.5288C29.0734 39.5244 29.2083 39.5472 29.3348 39.5957C29.8077 39.8472 29.6439 40.5738 29.3475 41.0222C28.5437 42.2118 27.4808 43.2037 26.2385 43.9234C27.1151 43.684 29.2688 43.3159 29.5931 43.9902C29.9173 44.6645 28.7019 46.1298 27.2708 46.6029Z" fill="#9D9C9D"/>
<path d="M44.6929 31.2716C44.5487 29.4892 41.819 28.0934 37.802 27.1289C38.0317 27.0516 38.2614 27.0353 38.3202 26.9336C40.0776 23.9344 39.1642 7.24976 38.7315 3.12743C38.411 0.0753577 8.55581 0.514856 8.00027 3.12743C7.17763 7.00966 6.25885 22.5549 8.00027 26.5388C8.06437 26.6935 8.24065 26.8359 8.49705 26.9661C4.74713 27.9021 2.20444 29.3223 2.01748 31.2716C0.441656 47.6348 0.954466 76.4015 1.82518 79.4984C3.33156 84.8293 41.2902 87.7471 44.2709 79.6205C45.3286 76.7352 45.0241 35.3817 44.6876 31.2757L44.6929 31.2716Z" stroke="#1D1D1B" stroke-miterlimit="10"/>
</svg>
