<svg width="57" height="56" viewBox="0 0 57 56" fill="none" xmlns="http://www.w3.org/2000/svg">
<circle cx="28.0312" cy="28" r="27.5" stroke="black"/>
<path d="M28.21 38.247C32.7507 38.247 36.4317 34.4642 36.4317 29.7978C36.4317 25.1315 32.7507 21.3486 28.21 21.3486C23.6693 21.3486 19.9883 25.1315 19.9883 29.7978C19.9883 34.4642 23.6693 38.247 28.21 38.247Z" stroke="#1D1D1B" stroke-miterlimit="10"/>
<path d="M15.2632 19.6059C17.5336 19.6059 19.3741 17.7145 19.3741 15.3813C19.3741 13.0482 17.5336 11.1567 15.2632 11.1567C12.9928 11.1567 11.1523 13.0482 11.1523 15.3813C11.1523 17.7145 12.9928 19.6059 15.2632 19.6059Z" stroke="#1D1D1B" stroke-miterlimit="10"/>
<path d="M37.6616 20.772C39.932 20.772 41.7725 18.8805 41.7725 16.5474C41.7725 14.2142 39.932 12.3228 37.6616 12.3228C35.3913 12.3228 33.5508 14.2142 33.5508 16.5474C33.5508 18.8805 35.3913 20.772 37.6616 20.772Z" stroke="#1D1D1B" stroke-miterlimit="10"/>
<path d="M17.021 46.8432C19.2914 46.8432 21.1319 44.9518 21.1319 42.6186C21.1319 40.2855 19.2914 38.394 17.021 38.394C14.7507 38.394 12.9102 40.2855 12.9102 42.6186C12.9102 44.9518 14.7507 46.8432 17.021 46.8432Z" stroke="#1D1D1B" stroke-miterlimit="10"/>
<path d="M42.7937 27.209C43.9289 27.209 44.8491 26.2633 44.8491 25.0967C44.8491 23.9301 43.9289 22.9844 42.7937 22.9844C41.6585 22.9844 40.7383 23.9301 40.7383 25.0967C40.7383 26.2633 41.6585 27.209 42.7937 27.209Z" stroke="#1D1D1B" stroke-miterlimit="10"/>
<path d="M14.9656 29.3213C16.1008 29.3213 17.021 28.3756 17.021 27.209C17.021 26.0424 16.1008 25.0967 14.9656 25.0967C13.8304 25.0967 12.9102 26.0424 12.9102 27.209C12.9102 28.3756 13.8304 29.3213 14.9656 29.3213Z" stroke="#1D1D1B" stroke-miterlimit="10"/>
<path d="M38.7195 44.6186C39.8547 44.6186 40.7749 43.6729 40.7749 42.5063C40.7749 41.3398 39.8547 40.394 38.7195 40.394C37.5843 40.394 36.6641 41.3398 36.6641 42.5063C36.6641 43.6729 37.5843 44.6186 38.7195 44.6186Z" stroke="#1D1D1B" stroke-miterlimit="10"/>
<path d="M18.1836 18.3555L22.4256 23.7929" stroke="#1D1D1B" stroke-miterlimit="10"/>
<path d="M35.7343 20.2798L33.5508 23.3762" stroke="#1D1D1B" stroke-miterlimit="10"/>
<path d="M40.7346 25.0967L36.0352 27.209" stroke="#1D1D1B" stroke-miterlimit="10"/>
<path d="M37.6616 40.5062L33.5508 36.2158" stroke="#1D1D1B" stroke-miterlimit="10"/>
<path d="M19.375 39.1555L22.6503 36.0215" stroke="#1D1D1B" stroke-miterlimit="10"/>
<path d="M17.0234 27.209L20.3048 27.4722" stroke="#1D1D1B" stroke-miterlimit="10"/>
</svg>
