<svg width="68" height="48" viewBox="0 0 68 48" fill="none" xmlns="http://www.w3.org/2000/svg">
<path d="M29.4542 1.03118C-8.21308 1.6105 1.00966 13.5039 4.84475 22.1589C8.78991 31.0688 17.8447 47.0001 31.7773 47.0001C46.8685 47.0001 55.8653 31.6771 58.2463 23.5493C61.9192 11.0012 74.1428 0.347582 29.4542 1.03118ZM32.4956 13.1969C16.518 13.1969 3.56446 10.9028 3.56446 8.06989C3.56446 5.23703 16.518 2.94293 32.4898 2.94293C48.4616 2.94293 61.421 5.23703 61.421 8.06989C61.421 10.9028 48.4674 13.1969 32.4898 13.1969H32.4956Z" stroke="#1D1D1B" stroke-width="0.75" stroke-miterlimit="10"/>
<path d="M59.5606 19.7895C60.7077 14.3381 69.5596 18.515 66.2749 28.0332C63.5869 35.8308 51.9542 36.1437 52.7305 34.6374C53.7211 32.7199 64.647 33.6005 64.647 25.351C64.647 17.1015 59.2652 21.1741 59.5606 19.7895Z" stroke="#1D1D1B" stroke-width="0.75" stroke-miterlimit="10"/>
<path d="M38.9186 34.1565C42.3598 28.7689 40.9346 21.4405 39.7065 19.4882C39.3125 18.8626 37.0938 24.9744 31.8741 29.6552C27.1179 33.919 27.228 40.4132 29.1745 41.6587C31.121 42.9043 35.4833 39.5442 38.9244 34.1565H38.9186Z" stroke="#1D1D1B" stroke-width="0.75" stroke-miterlimit="10"/>
<path d="M40.7421 39.8744C42.2136 37.5687 41.6053 34.4288 41.0781 33.5946C40.9101 33.3281 39.96 35.9467 37.7239 37.9511C35.6847 39.7759 35.731 42.5567 36.5652 43.0896C37.3994 43.6226 39.2649 42.1859 40.7421 39.8744Z" stroke="#1D1D1B" stroke-width="0.75" stroke-miterlimit="10"/>
<path d="M22.7437 36.1553C22.9928 33.4325 25.3912 31.3237 26.3181 30.9819C26.6135 30.8719 25.7677 33.5252 26.3065 36.4797C26.7989 39.1735 25.061 41.3402 24.0761 41.2533C23.0913 41.1664 22.4946 38.8838 22.7379 36.1553H22.7437Z" stroke="#1D1D1B" stroke-width="0.75" stroke-miterlimit="10"/>
<path d="M36.9023 42.5914C36.9023 40.9114 40.1929 38.4203 40.1929 36.7403" stroke="#1D1D1B" stroke-width="0.75" stroke-miterlimit="10"/>
<path d="M29.7422 40.7608C30.7386 36.1089 38.5478 29.7017 38.5478 25.2409" stroke="#1D1D1B" stroke-width="0.75" stroke-miterlimit="10"/>
<path d="M24.2031 40.3959C24.2031 38.8027 24.2031 35.6397 25.0373 34.0755" stroke="#1D1D1B" stroke-width="0.75" stroke-miterlimit="10"/>
</svg>
