<svg width="57" height="56" viewBox="0 0 57 56" fill="none" xmlns="http://www.w3.org/2000/svg">
<circle cx="28.0332" cy="28" r="27.5" stroke="black"/>
<path d="M8 35.9917C8 35.9917 10 33.7417 13.8065 35.9917C17.6129 38.2417 19.6129 35.9917 19.6129 35.9917C19.6129 35.9917 21.6774 33.7417 25.4194 35.9917C29.1613 38.2417 31.2258 35.9917 31.2258 35.9917C31.2258 35.9917 33.3548 33.7928 37.0323 35.9917C40.7742 38.1906 42.8387 35.9917 42.8387 35.9917C42.8387 35.9917 45.2903 33.7417 48 35.9917" stroke="black"/>
<path d="M25.9865 21.0421C25.9865 21.0421 23.936 19.6544 26.4776 18.0826C29.0191 16.5107 26.9686 15.123 26.9686 15.123C26.9686 15.123 24.9236 13.7025 27.4597 12.1635" stroke="black"/>
<path d="M31.9865 33.0426C31.9865 33.0426 29.936 31.6549 32.4776 30.0831C35.0191 28.5112 32.9686 27.1235 32.9686 27.1235C32.9686 27.1235 30.9236 25.7029 33.4597 24.164" stroke="black"/>
<path d="M8 39.9917C8 39.9917 10 37.7417 13.8065 39.9917C17.6129 42.2417 19.6129 39.9917 19.6129 39.9917C19.6129 39.9917 21.6774 37.7417 25.4194 39.9917C29.1613 42.2417 31.2258 39.9917 31.2258 39.9917C31.2258 39.9917 33.3548 37.7928 37.0323 39.9917C40.7742 42.1906 42.8387 39.9917 42.8387 39.9917C42.8387 39.9917 45.2903 37.7417 48 39.9917" stroke="black"/>
<path d="M8 43.4917C8 43.4917 10 40.1167 13.8065 43.4917C17.6129 46.8667 19.6129 43.4917 19.6129 43.4917C19.6129 43.4917 21.6774 40.1167 25.4194 43.4917C29.1613 46.8667 31.2258 43.4917 31.2258 43.4917C31.2258 43.4917 33.3548 40.1934 37.0323 43.4917C40.7742 46.79 42.8387 43.4917 42.8387 43.4917C42.8387 43.4917 45.2903 40.1167 48 43.4917" stroke="black"/>
<circle cx="16.5" cy="29.5" r="2" stroke="black"/>
<circle cx="21.5" cy="24.5" r="2" stroke="black"/>
<circle cx="15.5" cy="21.5" r="1" stroke="black"/>
<circle cx="2.5" cy="2.5" r="2" transform="matrix(-1 0 0 1 41 21)" stroke="black"/>
<circle cx="2.5" cy="2.5" r="2" transform="matrix(-1 0 0 1 36 16)" stroke="black"/>
<circle cx="1.5" cy="1.5" r="1" transform="matrix(-1 0 0 1 41 14)" stroke="black"/>
</svg>
