<svg width="57" height="56" viewBox="0 0 57 56" fill="none" xmlns="http://www.w3.org/2000/svg">
<circle cx="28.0352" cy="28" r="27.5" stroke="black"/>
<path d="M49.9999 30.8199C50.0281 43.64 40.1454 43.1372 38.0965 43.3048C19.2052 44.8377 13.6646 43.6301 13.2511 41.6783C11.94 35.4679 25.7513 39.0906 25.6714 37.607C25.5822 35.877 8.72092 39.4849 8.58934 34.6201C8.45776 29.7553 25.1921 32.1359 25.1498 31.091C25.1075 29.9721 5.9906 32.6978 6 28.459C6.0094 22.9238 25.4177 27.8971 25.4083 25.9354C25.4036 24.6292 6.64851 26.5613 8.1993 21.8641C9.75008 17.1669 22.2409 20.7403 33.4301 19.9665C37.0392 19.7151 21.912 16.7282 26.804 11.2966C28.1386 9.81297 49.9529 13.5294 49.9905 30.8248L49.9999 30.8199Z" stroke="#1D1D1B" stroke-miterlimit="10"/>
<line x1="16.5961" y1="47.7053" x2="43.5961" y2="10.7053" stroke="black"/>
</svg>
