<svg width="57" height="57" viewBox="0 0 57 57" fill="none" xmlns="http://www.w3.org/2000/svg">
<circle cx="28.0664" cy="28.209" r="27.5" stroke="black"/>
<path d="M41.6705 41.6645C49.3357 33.9943 49.3357 21.5585 41.6705 13.8883C34.0053 6.21809 21.5775 6.21809 13.9123 13.8883C6.24709 21.5585 6.24709 33.9943 13.9123 41.6645C21.5775 49.3346 34.0053 49.3346 41.6705 41.6645Z" stroke="#1D1D1B" stroke-miterlimit="10"/>
<path d="M32.6835 9.64497C32.4929 9.65797 29.6122 9.87471 29.4129 10.8934C29.3133 11.4049 30.4396 11.73 30.1147 12.2978C29.1357 13.9971 24.7561 15.1848 25.6181 16.4722C26.1683 17.3001 39.2941 14.0404 38.4537 18.1454C37.4746 22.9093 27.1386 16.1384 24.0413 20.872C22.837 22.7142 22.8024 25.6575 24.1193 26.8756C26.0123 28.6225 29.7465 25.9436 31.4402 27.7339C32.22 28.5575 33.2683 29.6325 32.22 33.3474C31.4662 36.0132 32.5795 37.3787 33.5456 37.7125C35.8415 38.5057 37.4616 35.8442 38.4537 32.9572C39.7099 29.3074 42.2614 28.228 41.8022 26.7976C40.8232 23.7459 38.2847 23.009 38.536 21.7606C38.7352 20.7766 41.9105 25.4365 44.8433 20.3258C46.1255 18.0891 38.6919 9.2375 32.6922 9.64497H32.6835Z" stroke="#1D1D1B" stroke-miterlimit="10"/>
<path d="M8.53273 26.5939C9.23883 25.6186 11.3225 27.9984 12.6611 30.3652C13.6314 32.0817 15.6848 30.8593 16.0703 31.7133C16.5252 32.7233 15.6025 33.9197 14.2769 36.022C13.3109 37.5522 15.1779 40.6429 14.0993 41.0503C12.1586 41.7829 6.63534 29.2208 8.53706 26.5939H8.53273Z" stroke="#1D1D1B" stroke-miterlimit="10"/>
<line x1="7.6668" y1="42.599" x2="47.6668" y2="12.599" stroke="black"/>
</svg>
