<svg width="57" height="57" viewBox="0 0 57 57" fill="none" xmlns="http://www.w3.org/2000/svg">
<circle cx="28.0332" cy="28.0166" r="27.5" stroke="black"/>
<path d="M36.4051 42.0369C37.0805 42.1735 39.2353 36.7981 39.4774 34.1162C39.8209 30.3257 36.2217 24.6302 35.5776 19.5749C34.9959 15.0349 36.128 8.7265 35.5776 8.10581C34.7422 7.16891 31.6699 13.8287 31.6777 17.9197C31.6895 23.6035 36.6199 31.0753 36.8814 34.9438C37.0493 37.4422 35.7142 41.9783 36.409 42.0369H36.4051Z" stroke="#1D1D1B" stroke-miterlimit="10"/>
<path d="M20.7274 47.3577C21.6604 47.4436 23.5576 42.1189 23.7996 39.437C24.1432 35.6465 20.5439 29.951 19.8998 24.8957C19.3182 20.3557 20.4502 14.0473 19.8998 13.4266C19.0683 12.4897 15.9922 19.1495 16 23.2405C16.0117 28.9243 20.9421 36.3961 21.2037 40.2646C21.3715 42.763 19.3182 47.2484 20.7313 47.3577H20.7274Z" stroke="#1D1D1B" stroke-miterlimit="10"/>
<path d="M28.5653 43.013C29.2719 43.1496 31.3955 37.7742 31.6375 35.0923C31.9811 31.3018 28.3818 25.6063 27.7377 20.551C27.1561 16.011 28.2881 9.70257 27.7377 9.08188C26.9023 8.14499 23.8301 14.8047 23.8379 18.8958C23.8496 24.5796 28.78 32.0513 29.0416 35.9199C29.2094 38.4183 27.9056 42.9544 28.5692 43.013H28.5653Z" stroke="#1D1D1B" stroke-miterlimit="10"/>
</svg>
