<svg width="57" height="57" viewBox="0 0 57 57" fill="none" xmlns="http://www.w3.org/2000/svg">
<circle cx="28.0332" cy="28.1045" r="27.5" stroke="black"/>
<path d="M6.83829 29.3961C6.75488 29.2913 6.68306 29.1995 6.62319 29.1223C6.68425 29.0402 6.75806 28.9421 6.84423 28.8293C7.13282 28.4517 7.55981 27.9105 8.11045 27.2602C9.21234 25.9589 10.8062 24.2246 12.7741 22.4916C16.726 19.0115 22.1094 15.6045 28 15.6045C33.8906 15.6045 39.274 19.0115 43.2259 22.4916C45.1938 24.2246 46.7877 25.9589 47.8896 27.2602C48.4402 27.9105 48.8672 28.4517 49.1558 28.8293C49.2419 28.9421 49.3157 29.0402 49.3768 29.1223C49.3169 29.1995 49.2451 29.2913 49.1617 29.3961C48.8733 29.7588 48.4465 30.2787 47.896 30.9034C46.7945 32.1535 45.2009 33.8197 43.2334 35.4847C39.2834 38.8273 33.8975 42.1045 28 42.1045C22.1025 42.1045 16.7166 38.8273 12.7666 35.4847C10.7991 33.8197 9.20553 32.1535 8.10401 30.9034C7.55354 30.2787 7.12672 29.7588 6.83829 29.3961Z" stroke="black"/>
<circle cx="27.5" cy="28.6045" r="8" stroke="black"/>
<circle cx="27.5" cy="28.6045" r="4.5" fill="black"/>
</svg>
