<svg width="57" height="57" viewBox="0 0 57 57" fill="none" xmlns="http://www.w3.org/2000/svg">
<circle cx="28.0332" cy="28.1045" r="27.5" stroke="black"/>
<path d="M42.6613 34.4264C42.6613 40.238 40.9496 44.2629 38.2526 46.8375C35.5506 49.417 31.793 50.6046 27.5806 50.6046C23.3683 50.6046 19.6107 49.417 16.9087 46.8375C14.2117 44.2629 12.5 40.238 12.5 34.4264C12.5 28.6091 14.2168 23.3627 16.9677 19.583C19.719 15.8028 23.4774 13.5186 27.5806 13.5186C31.6839 13.5186 35.4423 15.8028 38.1936 19.583C40.9445 23.3627 42.6613 28.6091 42.6613 34.4264Z" stroke="black"/>
<rect x="25.3594" y="5.60449" width="4.44086" height="7.4086" stroke="black"/>
<circle cx="28.8174" cy="8.56688" r="0.5" stroke="black" stroke-width="0.978495"/>
</svg>
