<svg width="57" height="56" viewBox="0 0 57 56" fill="none" xmlns="http://www.w3.org/2000/svg">
<circle cx="28.0352" cy="28" r="27.5" stroke="black"/>
<path d="M7.76407 30.2394C7.68066 30.1345 7.60884 30.0428 7.54898 29.9655C7.61003 29.8835 7.68384 29.7853 7.77001 29.6726C8.0586 29.295 8.48559 28.7537 9.03623 28.1034C10.1381 26.8021 11.732 25.0678 13.6999 23.3349C17.6518 19.8548 23.0352 16.4478 28.9258 16.4478C34.8164 16.4478 40.1998 19.8548 44.1517 23.3349C46.1195 25.0678 47.7134 26.8021 48.8153 28.1034C49.366 28.7537 49.793 29.295 50.0816 29.6726C50.1677 29.7853 50.2415 29.8835 50.3026 29.9655C50.2427 30.0428 50.1709 30.1345 50.0875 30.2394C49.7991 30.6021 49.3722 31.122 48.8218 31.7467C47.7202 32.9967 46.1267 34.663 44.1591 36.328C40.2092 39.6706 34.8233 42.9478 28.9258 42.9478C23.0282 42.9478 17.6424 39.6706 13.6924 36.328C11.7249 34.663 10.1313 32.9967 9.02979 31.7467C8.47932 31.122 8.0525 30.6021 7.76407 30.2394Z" stroke="black"/>
<circle cx="28.4258" cy="29.4478" r="8" stroke="black"/>
<circle cx="28.4258" cy="29.4478" r="4.5" fill="black"/>
<line x1="15.5244" y1="45.6496" x2="41.5244" y2="10.6496" stroke="black"/>
</svg>
