<svg width="57" height="57" viewBox="0 0 57 57" fill="none" xmlns="http://www.w3.org/2000/svg">
<circle cx="28.0332" cy="28.1567" r="27.5" stroke="black"/>
<path d="M8 24C8 24 10 21.75 13.8065 24C17.6129 26.25 19.6129 24 19.6129 24C19.6129 24 21.6774 21.75 25.4194 24C29.1613 26.25 31.2258 24 31.2258 24C31.2258 24 33.3548 21.8011 37.0323 24C40.7742 26.1989 42.8387 24 42.8387 24C42.8387 24 45.2903 21.75 48 24" stroke="black"/>
<path d="M8 28C8 28 10 25.75 13.8065 28C17.6129 30.25 19.6129 28 19.6129 28C19.6129 28 21.6774 25.75 25.4194 28C29.1613 30.25 31.2258 28 31.2258 28C31.2258 28 33.3548 25.8011 37.0323 28C40.7742 30.1989 42.8387 28 42.8387 28C42.8387 28 45.2903 25.75 48 28" stroke="black"/>
<path d="M8 31.5C8 31.5 10 28.125 13.8065 31.5C17.6129 34.875 19.6129 31.5 19.6129 31.5C19.6129 31.5 21.6774 28.125 25.4194 31.5C29.1613 34.875 31.2258 31.5 31.2258 31.5C31.2258 31.5 33.3548 28.2017 37.0323 31.5C40.7742 34.7983 42.8387 31.5 42.8387 31.5C42.8387 31.5 45.2903 28.125 48 31.5" stroke="black"/>
</svg>
