<svg width="57" height="56" viewBox="0 0 57 56" fill="none" xmlns="http://www.w3.org/2000/svg">
<circle cx="28.0352" cy="28" r="27.5" stroke="black"/>
<path d="M25.4896 27.8105H34.5423C36.3026 27.8105 37.7311 29.2446 37.7311 31.0117V47.7263H22.3008V31.0117C22.3008 29.2446 23.7293 27.8105 25.4896 27.8105Z" stroke="#1D1D1B" stroke-miterlimit="10"/>
<path d="M33.8734 22.1226H26.1582V27.8105H33.8734V22.1226Z" stroke="#1D1D1B" stroke-miterlimit="10"/>
<path d="M31.3165 13.1475H28.7109V22.1224H31.3165V13.1475Z" stroke="#1D1D1B" stroke-miterlimit="10"/>
<path d="M19.1125 14.5602C18.2778 14.5871 17.3469 14.5817 17.3736 13.3249C17.4057 11.7243 18.7861 10.403 19.0162 10.3869C19.4121 10.3601 19.8615 10.3869 19.8615 10.3869H34.4358C35.2062 10.3869 35.8322 10.9724 35.8322 11.6921C35.8322 12.4118 35.2062 12.9973 34.4358 12.9973H20.6587C20.2093 13.0617 19.8294 14.528 19.1125 14.5549V14.5602Z" stroke="#1D1D1B" stroke-width="1.39" stroke-miterlimit="10"/>
<path d="M16.6604 19.2426C17.6806 14.8708 11.9642 23.4156 11.8227 26.3683C11.7089 28.7618 13.1753 31.7621 15.2945 31.9646C17.4855 32.1754 19.4829 29.3242 19.8112 26.8692C20.1572 24.3048 16.0663 21.7988 16.6604 19.2426Z" stroke="black" stroke-width="0.75" stroke-miterlimit="10"/>
</svg>
