<svg width="57" height="56" viewBox="0 0 57 56" fill="none" xmlns="http://www.w3.org/2000/svg">
<circle cx="28.0312" cy="28" r="27.5" stroke="black"/>
<path d="M36.8075 17.5731C36.8075 13.6944 32.53 9 25.7875 9C20.6581 9 16 12.6794 16 17.5731V41.4437H22.7244V19.4037C22.7244 17.3919 24.3375 15.7244 26.3494 15.7244C27.6181 15.7244 29.8656 16.3406 30.065 18.7875V22.34C30.065 23.0831 30.6631 23.6813 31.4062 23.6813H35.4481C36.1912 23.6813 36.7894 23.0831 36.7894 22.34V17.555L36.8075 17.5731Z" stroke="#1D1D1B" stroke-width="0.75" stroke-miterlimit="10"/>
<circle cx="38.6562" cy="29.8438" r="2.34375" stroke="#1D1D1B" stroke-width="0.75"/>
<circle cx="31.4062" cy="29.8438" r="2.34375" stroke="#1D1D1B" stroke-width="0.75"/>
<circle cx="40.4688" cy="37.0938" r="2.34375" stroke="#1D1D1B" stroke-width="0.75"/>
<circle cx="29.5938" cy="37.0938" r="2.34375" stroke="#1D1D1B" stroke-width="0.75"/>
<circle cx="42.2812" cy="44.3438" r="2.34375" stroke="#1D1D1B" stroke-width="0.75"/>
<circle cx="27.7812" cy="44.3438" r="2.34375" stroke="#1D1D1B" stroke-width="0.75"/>
</svg>
