<svg width="365" height="400" viewBox="0 0 365 400" fill="none" xmlns="http://www.w3.org/2000/svg">
<path d="M78.7729 322.108C154.716 414.213 166.744 302.932 193.166 291.75C210.581 284.392 205.543 295.233 215.582 301.476C221.369 305.019 268.828 253.492 278.64 237.93C285.964 226.216 294.182 204.652 280.656 192.401C264.731 177.919 342.714 146.714 285.878 77.7828C239.757 21.8468 202.315 90.0144 188.558 87.9934C172.421 85.6282 180.473 70.8982 167.497 75.6727C143.163 84.5568 109.193 136.762 102.605 152.336C97.7013 163.849 115.282 169.406 110.58 181.926C92.666 229.703 5.22154 232.989 78.7722 322.192L78.7729 322.108Z" fill="#8B4E96"/>
<path d="M105.148 229.83C87.6816 253.43 58.484 277.532 86.8103 312.231C106.722 336.638 128.671 324.656 135.286 316.848C179.08 265.157 274.641 154.851 278.818 129.779C284.145 97.5485 268.702 78.4772 244.739 80.6512C224.63 82.5043 148.302 171.436 105.184 229.789L105.148 229.83Z" fill="#8B4E96" stroke="#FAFAFA" stroke-width="2" stroke-miterlimit="10"/>
<path d="M159.587 181.309C173.396 205.159 133.772 204.812 127.84 222.223C124.06 233.319 132.375 267.298 166.39 251.348C187.591 241.407 159.587 223.211 210.987 213.208C234.039 208.722 233.205 178.955 223.837 159.118C214.012 138.314 146.738 159.118 159.587 181.309Z" fill="#C95353"/>
</svg>
