<svg width="479" height="502" viewBox="0 0 479 502" fill="none" xmlns="http://www.w3.org/2000/svg">
<path d="M363.655 318.063C343.337 337.228 262.07 393.014 203.189 316.605C203.822 316.313 204.635 315.937 205.268 315.645C268.534 286.415 295.649 273.889 290.169 262.027C284.688 250.165 251.247 265.615 198.826 289.834C195.482 291.379 192.138 292.924 188.884 294.427C186.605 290.206 184.333 285.762 182.158 281.054C179.187 274.625 176.788 268.482 174.785 262.485C177.858 261.065 180.57 259.813 182.829 258.769C246.096 229.539 273.21 217.012 267.981 205.694C262.752 194.375 233.83 207.738 181.409 231.956C177.071 233.961 172.732 235.965 168.394 237.969C154.357 147.765 255.896 126.125 271.713 118.817C280.751 114.642 278.477 102.837 272.903 94.0949C269.37 88.5852 263.607 84.6556 257.068 84.2705C195.54 80.9432 98.1754 148.89 122.586 260.122C99.0464 272.316 84.0747 282.639 87.1285 289.249C89.764 294.953 108.233 289.826 128.877 282.047C131.131 288.587 133.739 295.183 136.877 301.974C139.136 306.863 141.534 311.579 143.938 316.072C120.399 328.265 106.06 338.296 109.407 345.54C112.419 352.059 134.003 345.603 156.683 336.773C233.527 448.502 360.872 394.173 385.376 341.1C391.67 327.424 372.501 309.91 363.788 318.111L363.655 318.063Z" stroke="black" stroke-width="2" stroke-miterlimit="10"/>
<path d="M239.039 0.860352C107.047 0.860352 0 113.04 0 251.36C0 389.681 107.047 501.86 239.039 501.86C371.031 501.86 478.078 389.681 478.078 251.36C478.078 113.04 371.102 0.860352 239.039 0.860352ZM239.039 443.604C137.765 443.604 55.6618 357.565 55.6618 251.435C55.6618 145.305 137.765 59.1908 239.039 59.1908C340.314 59.1908 422.417 145.23 422.417 251.36C422.417 357.49 340.314 443.53 239.039 443.53V443.604Z" fill="#8B4E96"/>
<path d="M318.431 73.9792L111.891 399.988L162.706 428.817L366.253 110.426L318.431 73.9792Z" fill="#8B4E96"/>
</svg>
