<svg width="57" height="56" viewBox="0 0 57 56" fill="none" xmlns="http://www.w3.org/2000/svg">
<circle cx="28.0352" cy="28" r="27.5" stroke="black"/>
<path d="M35.7503 30.4444C36.4597 42.8592 31.9375 52.7326 28.6003 52.7245C25.6607 52.7164 21.4073 43.9499 21.7942 31.5216C22.1757 19.2285 26.3137 5.75 28.7615 5.75C30.4436 5.75 35.0571 18.2677 35.753 30.4471L35.7503 30.4444Z" stroke="#1D1D1B" stroke-miterlimit="10"/>
<path d="M32.9155 37.8097C33.3562 44.0726 30.551 49.0526 28.4793 49.0472C26.6576 49.0418 24.0163 44.622 24.2554 38.351C24.4919 32.1504 27.0579 25.3516 28.5761 25.3516C29.6186 25.3516 32.4802 31.6659 32.9128 37.8097H32.9155Z" stroke="#1D1D1B" stroke-miterlimit="10"/>
<path d="M30.1724 20.0814C30.3336 21.34 29.3098 22.3414 28.5548 22.3414C27.8911 22.3414 26.9292 21.4509 27.0152 20.1897C27.1011 18.9285 28.0362 17.5752 28.5897 17.5752C28.9713 17.5752 30.0138 18.8446 30.1697 20.0787L30.1724 20.0814Z" stroke="#1D1D1B" stroke-miterlimit="10"/>
<path d="M30.7801 3.61223C30.2051 2.32393 36.0224 7.92644 36.9306 10.8089C37.5755 12.8577 37.0569 11.9023 37.9543 13.7888C39.1554 16.314 40.3699 16.6009 41.3184 18.7363C42.1863 20.685 41.2297 21.5132 41.3184 25.0777C41.4447 30.1281 43.4196 30.5557 42.9172 33.9064C42.5222 36.5507 41.2029 36.8728 39.373 40.9921C37.9758 44.1398 38.6502 45.3252 37.3148 47.707C37.1402 48.0182 30.1916 53.4205 30.7398 52.7249C36.2857 45.7096 41.6838 28.1036 30.7747 3.61223H30.7801Z" stroke="#1D1D1B" stroke-miterlimit="10"/>
<path d="M26.2188 3.61223C26.7938 2.32393 20.9765 7.92644 20.0683 10.8089C19.4234 12.8577 19.942 11.9023 19.0445 13.7888C17.8434 16.314 16.6289 16.6009 15.6804 18.7363C14.8125 20.685 15.7691 21.5132 15.6804 25.0777C15.5541 30.1281 13.5792 30.5557 14.0817 33.9064C14.4767 36.5507 15.796 36.8728 17.6258 40.9921C19.023 44.1398 18.3486 45.3252 19.684 47.707C19.8587 48.0182 26.8072 53.4205 26.2591 52.7249C20.7131 45.7096 15.315 28.1036 26.2241 3.61223H26.2188Z" stroke="#1D1D1B" stroke-miterlimit="10"/>
</svg>
