<svg width="67" height="67" viewBox="0 0 67 67" fill="none" xmlns="http://www.w3.org/2000/svg">
<circle cx="33.1758" cy="33.0522" r="27.5" stroke="black"/>
<path d="M49.5913 43.6647C55.4465 34.5376 52.7972 22.3873 43.6739 16.5262C34.5506 10.665 22.4081 13.3126 16.5529 22.4397C10.6977 31.5668 13.3471 43.7172 22.4704 49.5783C31.5937 55.4394 43.7361 52.7918 49.5913 43.6647Z" stroke="#1D1D1B" stroke-miterlimit="10"/>
<path d="M33.9887 14.295C33.8052 14.3483 31.0368 15.1738 31.0591 16.2115C31.0707 16.7325 32.2405 16.8102 32.044 17.4342C31.4494 19.303 27.4234 21.3965 28.54 22.4707C29.2539 23.1624 41.3839 17.1812 41.4373 21.371C41.4957 26.2341 29.9545 21.8206 27.9367 27.1054C27.1525 29.1619 27.7457 32.045 29.2919 32.9546C31.5136 34.2581 34.5913 30.8452 36.6276 32.2335C37.5649 32.8721 38.8182 33.6991 38.5854 37.552C38.4168 40.3172 39.7955 41.4142 40.8104 41.5345C43.2227 41.8204 44.2386 38.8748 44.5928 35.8428C45.0427 32.0091 47.3057 30.411 46.5523 29.1111C44.9456 26.3381 42.3084 26.1589 42.2879 24.8857C42.273 23.8818 46.3681 27.7582 48.1447 22.1401C48.921 19.6815 39.7724 12.6168 33.9972 14.2931L33.9887 14.295Z" stroke="#1D1D1B" stroke-miterlimit="10"/>
<path d="M14.0032 35.9997C14.4854 34.8964 17.0282 36.7776 18.8402 38.8049C20.154 40.2753 21.8998 38.6436 22.4584 39.3958C23.118 40.2857 22.4713 41.6512 21.6241 43.9877C21.0062 45.6885 23.4889 48.3105 22.5218 48.9384C20.7817 50.0676 12.709 38.9705 14.0075 35.9988L14.0032 35.9997Z" stroke="#1D1D1B" stroke-miterlimit="10"/>
</svg>
